<svg width="1024" height="517" viewBox="0 0 1024 517" fill="none" xmlns="http://www.w3.org/2000/svg">
<g clip-path="url(#clip0_236_1630)">
<mask id="mask0_236_1630" style="mask-type:luminance" maskUnits="userSpaceOnUse" x="0" y="0" width="1024" height="517">
<path d="M1023.5 0.5H0.5V516.5H1023.5V0.5Z" fill="white"/>
</mask>
<g mask="url(#mask0_236_1630)">
<path d="M623.453 135.713C782.485 43.8955 985.839 98.3841 1077.66 257.416L1243.91 545.37L667.999 877.87L501.749 589.916C409.932 430.884 464.42 227.53 623.453 135.713Z" fill="url(#paint0_linear_236_1630)"/>
<path d="M503.897 963.783C456.369 1141.16 274.047 1246.42 96.6695 1198.9L-224.501 1112.84L-52.3861 470.498L268.784 556.555C446.162 604.083 551.425 786.405 503.897 963.783Z" fill="url(#paint1_linear_236_1630)"/>
<path d="M84.6445 100.408C176.462 259.44 121.973 462.794 -37.0588 554.611L-325.012 720.861L-657.512 144.954L-369.559 -21.2953C-210.527 -113.113 -7.17282 -58.6242 84.6445 100.408Z" fill="url(#paint2_linear_236_1630)"/>
<path d="M887.5 236.5V210.5C887.5 205.529 883.471 201.5 878.5 201.5" stroke="#E3DFCF" stroke-width="1.5"/>
<path d="M580.5 237.5V204.5C580.5 195.663 587.663 188.5 596.5 188.5H597.5" stroke="#E3DFCF" stroke-width="1.5"/>
<path d="M731.5 202.115H746.5" stroke="#E3DFCF" stroke-width="1.5"/>
<path d="M741.308 202.115L746.5 197.5" stroke="#E3DFCF" stroke-width="1.5"/>
<path d="M746.5 207.308L741.308 202.115" stroke="#E3DFCF" stroke-width="1.5"/>
</g>
</g>
<defs>
<linearGradient id="paint0_linear_236_1630" x1="680.578" y1="116.294" x2="895.184" y2="680.455" gradientUnits="userSpaceOnUse">
<stop stop-color="#ECEADF"/>
<stop offset="1" stop-color="#F8F7F3"/>
</linearGradient>
<linearGradient id="paint1_linear_236_1630" x1="477.234" y1="1017.91" x2="-73.4361" y2="770.735" gradientUnits="userSpaceOnUse">
<stop stop-color="#ECEADF"/>
<stop offset="1" stop-color="#F8F7F3"/>
</linearGradient>
<linearGradient id="paint2_linear_236_1630" x1="104.063" y1="157.533" x2="-460.097" y2="372.139" gradientUnits="userSpaceOnUse">
<stop stop-color="#ECEADF"/>
<stop offset="1" stop-color="#F8F7F3"/>
</linearGradient>
<clipPath id="clip0_236_1630">
<rect width="1023" height="516" fill="white" transform="translate(0.5 0.5)"/>
</clipPath>
</defs>
</svg>
