<svg width="375" height="392" viewBox="0 0 375 392" fill="none" xmlns="http://www.w3.org/2000/svg">
<g clip-path="url(#clip0_594_453)">
<mask id="mask0_594_453" style="mask-type:luminance" maskUnits="userSpaceOnUse" x="0" y="0" width="375" height="392">
<path d="M0 0H375V392H0V0Z" fill="white"/>
</mask>
<g mask="url(#mask0_594_453)">
<path opacity="0.8" d="M311.866 -35.912C362.541 -65.1691 427.339 -47.8067 456.596 2.86803L509.57 94.6227L326.061 200.572L273.086 108.817C243.829 58.1425 261.192 -6.65501 311.866 -35.912Z" fill="url(#paint0_linear_594_453)"/>
<path opacity="0.8" d="M1.53866 336.29C43.2578 295.261 110.339 295.82 151.369 337.539L225.659 413.078L74.5805 561.659L0.289988 486.12C-40.7395 444.401 -40.1804 377.32 1.53866 336.29Z" fill="url(#paint1_linear_594_453)"/>
</g>
</g>
<defs>
<linearGradient id="paint0_linear_594_453" x1="315.705" y1="-39.6858" x2="422.929" y2="146.243" gradientUnits="userSpaceOnUse">
<stop stop-color="#EFEEEB"/>
<stop offset="1" stop-color="#F9F8F6"/>
</linearGradient>
<linearGradient id="paint1_linear_594_453" x1="4.30829" y1="331.675" x2="154.73" y2="484.776" gradientUnits="userSpaceOnUse">
<stop stop-color="#EFEEEB"/>
<stop offset="1" stop-color="#F9F8F6"/>
</linearGradient>
<clipPath id="clip0_594_453">
<rect width="375" height="392" fill="white"/>
</clipPath>
</defs>
</svg>
