<svg width="375" height="392" viewBox="0 0 375 392" fill="none" xmlns="http://www.w3.org/2000/svg">
<g clip-path="url(#clip0_174_2040)">
<mask id="mask0_174_2040" style="mask-type:luminance" maskUnits="userSpaceOnUse" x="0" y="0" width="375" height="392">
<path d="M0 0H375V392H0V0Z" fill="white"/>
</mask>
<g mask="url(#mask0_174_2040)">
<path opacity="0.8" d="M311.866 -35.9118C362.541 -65.1689 427.339 -47.8065 456.596 2.86827L509.57 94.6229L326.061 200.572L273.086 108.817C243.829 58.1427 261.192 -6.65477 311.866 -35.9118Z" fill="url(#paint0_linear_174_2040)"/>
<path opacity="0.8" d="M1.53866 336.291C43.2578 295.262 110.339 295.821 151.369 337.54L225.659 413.079L74.5805 561.66L0.289995 486.121C-40.7395 444.402 -40.1804 377.321 1.53866 336.291Z" fill="url(#paint1_linear_174_2040)"/>
</g>
<path d="M375 391H0V393H375V391Z" fill="#E7E7E7"/>
</g>
<defs>
<linearGradient id="paint0_linear_174_2040" x1="330.069" y1="-42.0994" x2="398.452" y2="137.667" gradientUnits="userSpaceOnUse">
<stop stop-color="#ECEADF"/>
<stop offset="1" stop-color="#F8F7F3"/>
</linearGradient>
<linearGradient id="paint1_linear_174_2040" x1="17.6082" y1="325.737" x2="128.885" y2="482.612" gradientUnits="userSpaceOnUse">
<stop stop-color="#ECEADF"/>
<stop offset="1" stop-color="#F8F7F3"/>
</linearGradient>
<clipPath id="clip0_174_2040">
<rect width="375" height="392" fill="white"/>
</clipPath>
</defs>
</svg>
