<svg width="1024" height="456" viewBox="0 0 1024 456" fill="none" xmlns="http://www.w3.org/2000/svg">
<g clip-path="url(#clip0_174_2006)">
<mask id="mask0_174_2006" style="mask-type:luminance" maskUnits="userSpaceOnUse" x="0" y="0" width="1024" height="456">
<path d="M1024 0.5H0V455.5H1024V0.5Z" fill="white"/>
</mask>
<g mask="url(#mask0_174_2006)">
<mask id="mask1_174_2006" style="mask-type:luminance" maskUnits="userSpaceOnUse" x="0" y="0" width="1024" height="456">
<path d="M1024 0.5H0V455.5H1024V0.5Z" fill="white"/>
</mask>
<g mask="url(#mask1_174_2006)">
<path d="M-126.864 493.878C-94.7573 313.072 77.8432 192.528 258.65 224.636L586.028 282.771L469.757 937.528L142.379 879.392C-38.4278 847.285 -158.971 674.684 -126.864 493.878Z" fill="url(#paint0_linear_174_2006)"/>
<path d="M678.104 269.674C678.064 269.302 677.896 269.012 677.601 268.805C677.308 268.597 676.928 268.493 676.459 268.493C676.129 268.493 675.847 268.543 675.611 268.643C675.375 268.742 675.195 268.877 675.07 269.047C674.945 269.218 674.881 269.413 674.878 269.631C674.878 269.813 674.919 269.971 675.001 270.104C675.087 270.238 675.202 270.351 675.347 270.445C675.491 270.536 675.652 270.613 675.828 270.675C676.004 270.738 676.182 270.79 676.361 270.833L677.179 271.038C677.509 271.114 677.825 271.218 678.129 271.349C678.436 271.479 678.71 271.644 678.952 271.843C679.196 272.042 679.389 272.282 679.531 272.563C679.673 272.844 679.744 273.174 679.744 273.552C679.744 274.063 679.614 274.513 679.352 274.903C679.091 275.289 678.713 275.591 678.219 275.81C677.727 276.026 677.132 276.134 676.433 276.134C675.754 276.134 675.165 276.029 674.665 275.819C674.168 275.609 673.778 275.302 673.497 274.898C673.219 274.495 673.068 274.003 673.045 273.424H674.601C674.624 273.728 674.717 273.981 674.882 274.182C675.047 274.384 675.261 274.535 675.526 274.634C675.793 274.734 676.091 274.783 676.42 274.783C676.764 274.783 677.065 274.732 677.324 274.63C677.585 274.525 677.79 274.38 677.938 274.195C678.085 274.008 678.161 273.789 678.163 273.539C678.161 273.312 678.094 273.124 677.963 272.976C677.832 272.826 677.649 272.701 677.413 272.601C677.18 272.499 676.908 272.408 676.595 272.329L675.602 272.073C674.884 271.888 674.315 271.609 673.898 271.234C673.483 270.856 673.276 270.354 673.276 269.729C673.276 269.215 673.415 268.765 673.693 268.378C673.974 267.992 674.357 267.692 674.839 267.479C675.322 267.263 675.869 267.155 676.48 267.155C677.099 267.155 677.642 267.263 678.108 267.479C678.577 267.692 678.945 267.989 679.212 268.37C679.479 268.748 679.616 269.182 679.625 269.674H678.104ZM685.257 273.249V269.457H686.8V276.002H685.304V274.839H685.236C685.088 275.205 684.846 275.505 684.507 275.738C684.172 275.971 683.759 276.087 683.267 276.087C682.838 276.087 682.459 275.992 682.13 275.802C681.803 275.609 681.547 275.329 681.363 274.962C681.178 274.593 681.086 274.147 681.086 273.624V269.457H682.628V273.386C682.628 273.8 682.742 274.13 682.969 274.374C683.196 274.618 683.495 274.741 683.864 274.741C684.091 274.741 684.311 274.685 684.525 274.574C684.738 274.464 684.912 274.299 685.049 274.08C685.188 273.859 685.257 273.582 685.257 273.249ZM688.455 276.002V267.275H689.997V270.539H690.061C690.141 270.38 690.253 270.211 690.398 270.032C690.543 269.85 690.739 269.695 690.986 269.567C691.233 269.437 691.548 269.371 691.932 269.371C692.438 269.371 692.893 269.501 693.3 269.759C693.709 270.015 694.033 270.394 694.271 270.897C694.513 271.397 694.634 272.011 694.634 272.738C694.634 273.457 694.516 274.067 694.28 274.57C694.044 275.073 693.723 275.457 693.317 275.721C692.911 275.985 692.45 276.117 691.936 276.117C691.561 276.117 691.25 276.055 691.003 275.93C690.756 275.805 690.557 275.654 690.406 275.478C690.259 275.299 690.143 275.13 690.061 274.971H689.972V276.002H688.455ZM689.967 272.729C689.967 273.153 690.027 273.523 690.146 273.841C690.268 274.16 690.443 274.408 690.67 274.587C690.901 274.763 691.179 274.851 691.506 274.851C691.847 274.851 692.132 274.761 692.362 274.579C692.592 274.394 692.766 274.143 692.882 273.824C693.001 273.503 693.061 273.138 693.061 272.729C693.061 272.323 693.003 271.962 692.886 271.647C692.77 271.332 692.597 271.084 692.366 270.905C692.136 270.726 691.849 270.637 691.506 270.637C691.176 270.637 690.896 270.724 690.666 270.897C690.436 271.07 690.261 271.313 690.142 271.626C690.026 271.938 689.967 272.306 689.967 272.729ZM701.118 271.187L699.712 271.34C699.672 271.198 699.603 271.064 699.503 270.94C699.407 270.814 699.276 270.714 699.111 270.637C698.946 270.56 698.745 270.522 698.506 270.522C698.185 270.522 697.915 270.591 697.696 270.731C697.48 270.87 697.374 271.05 697.377 271.272C697.374 271.462 697.444 271.617 697.586 271.736C697.73 271.856 697.969 271.954 698.301 272.03L699.418 272.269C700.037 272.403 700.498 272.614 700.799 272.904C701.103 273.194 701.256 273.573 701.259 274.042C701.256 274.454 701.135 274.817 700.897 275.133C700.661 275.445 700.333 275.689 699.912 275.866C699.492 276.042 699.009 276.13 698.463 276.13C697.662 276.13 697.017 275.962 696.529 275.627C696.04 275.289 695.749 274.819 695.655 274.216L697.159 274.072C697.228 274.367 697.373 274.59 697.594 274.741C697.816 274.891 698.104 274.966 698.459 274.966C698.826 274.966 699.12 274.891 699.341 274.741C699.566 274.59 699.678 274.404 699.678 274.182C699.678 273.995 699.605 273.84 699.461 273.718C699.319 273.596 699.097 273.502 698.796 273.437L697.679 273.202C697.051 273.072 696.587 272.851 696.286 272.542C695.985 272.229 695.836 271.834 695.838 271.357C695.836 270.954 695.945 270.604 696.167 270.309C696.391 270.011 696.702 269.78 697.1 269.618C697.5 269.454 697.962 269.371 698.485 269.371C699.252 269.371 699.855 269.535 700.296 269.861C700.739 270.188 701.013 270.63 701.118 271.187ZM705.386 276.13C704.733 276.13 704.172 275.986 703.703 275.699C703.237 275.413 702.877 275.016 702.625 274.511C702.375 274.002 702.25 273.417 702.25 272.755C702.25 272.09 702.377 271.503 702.633 270.995C702.889 270.484 703.25 270.086 703.716 269.802C704.184 269.515 704.738 269.371 705.377 269.371C705.909 269.371 706.379 269.469 706.788 269.665C707.2 269.859 707.528 270.133 707.772 270.488C708.017 270.84 708.156 271.252 708.19 271.724H706.716C706.656 271.408 706.514 271.145 706.289 270.935C706.068 270.722 705.771 270.616 705.399 270.616C705.083 270.616 704.806 270.701 704.568 270.871C704.329 271.039 704.143 271.28 704.01 271.596C703.879 271.911 703.814 272.289 703.814 272.729C703.814 273.175 703.879 273.559 704.01 273.88C704.14 274.198 704.324 274.444 704.559 274.617C704.798 274.788 705.078 274.873 705.399 274.873C705.626 274.873 705.829 274.83 706.008 274.745C706.19 274.657 706.342 274.53 706.464 274.366C706.586 274.201 706.67 274.001 706.716 273.765H708.19C708.153 274.228 708.017 274.638 707.781 274.996C707.545 275.351 707.224 275.63 706.818 275.832C706.412 276.03 705.934 276.13 705.386 276.13ZM709.457 276.002V269.457H710.952V270.547H711.021C711.14 270.17 711.344 269.878 711.634 269.674C711.927 269.466 712.261 269.363 712.636 269.363C712.721 269.363 712.816 269.367 712.921 269.376C713.029 269.381 713.119 269.391 713.19 269.405V270.824C713.124 270.802 713.021 270.782 712.879 270.765C712.739 270.745 712.604 270.735 712.474 270.735C712.192 270.735 711.94 270.796 711.715 270.918C711.494 271.038 711.319 271.204 711.191 271.417C711.063 271.63 710.999 271.876 710.999 272.154V276.002H709.457ZM714.214 276.002V269.457H715.757V276.002H714.214ZM714.99 268.528C714.746 268.528 714.536 268.447 714.359 268.285C714.183 268.12 714.095 267.922 714.095 267.692C714.095 267.459 714.183 267.262 714.359 267.1C714.536 266.935 714.746 266.853 714.99 266.853C715.237 266.853 715.447 266.935 715.621 267.1C715.797 267.262 715.885 267.459 715.885 267.692C715.885 267.922 715.797 268.12 715.621 268.285C715.447 268.447 715.237 268.528 714.99 268.528ZM717.412 276.002V267.275H718.954V270.539H719.018C719.098 270.38 719.21 270.211 719.355 270.032C719.5 269.85 719.696 269.695 719.943 269.567C720.19 269.437 720.505 269.371 720.889 269.371C721.395 269.371 721.85 269.501 722.257 269.759C722.666 270.015 722.99 270.394 723.228 270.897C723.47 271.397 723.591 272.011 723.591 272.738C723.591 273.457 723.473 274.067 723.237 274.57C723.001 275.073 722.68 275.457 722.274 275.721C721.868 275.985 721.407 276.117 720.893 276.117C720.518 276.117 720.207 276.055 719.96 275.93C719.713 275.805 719.514 275.654 719.363 275.478C719.216 275.299 719.1 275.13 719.018 274.971H718.929V276.002H717.412ZM718.924 272.729C718.924 273.153 718.984 273.523 719.103 273.841C719.225 274.16 719.4 274.408 719.627 274.587C719.858 274.763 720.136 274.851 720.463 274.851C720.804 274.851 721.089 274.761 721.319 274.579C721.549 274.394 721.723 274.143 721.839 273.824C721.958 273.503 722.018 273.138 722.018 272.729C722.018 272.323 721.96 271.962 721.843 271.647C721.727 271.332 721.554 271.084 721.324 270.905C721.093 270.726 720.806 270.637 720.463 270.637C720.133 270.637 719.853 270.724 719.623 270.897C719.393 271.07 719.218 271.313 719.099 271.626C718.983 271.938 718.924 272.306 718.924 272.729ZM727.8 276.13C727.143 276.13 726.577 275.993 726.099 275.721C725.625 275.445 725.26 275.056 725.004 274.553C724.749 274.047 724.621 273.452 724.621 272.768C724.621 272.094 724.749 271.503 725.004 270.995C725.263 270.484 725.624 270.086 726.087 269.802C726.55 269.515 727.094 269.371 727.719 269.371C728.122 269.371 728.503 269.437 728.861 269.567C729.222 269.695 729.54 269.894 729.815 270.164C730.094 270.434 730.313 270.778 730.472 271.195C730.631 271.61 730.71 272.104 730.71 272.678V273.151H725.345V272.111H729.232C729.229 271.816 729.165 271.553 729.04 271.323C728.915 271.09 728.74 270.907 728.516 270.773C728.294 270.64 728.036 270.573 727.74 270.573C727.425 270.573 727.148 270.65 726.909 270.803C726.67 270.954 726.484 271.153 726.351 271.4C726.22 271.644 726.153 271.913 726.151 272.205V273.113C726.151 273.493 726.22 273.82 726.359 274.093C726.499 274.363 726.693 274.57 726.943 274.715C727.193 274.857 727.486 274.928 727.821 274.928C728.045 274.928 728.249 274.897 728.43 274.834C728.612 274.769 728.77 274.674 728.903 274.549C729.037 274.424 729.138 274.269 729.206 274.084L730.646 274.246C730.555 274.627 730.382 274.959 730.126 275.243C729.874 275.525 729.55 275.743 729.155 275.9C728.76 276.053 728.308 276.13 727.8 276.13Z" fill="#F9F8F6"/>
<path d="M899.065 -300.354C1029.99 -429.117 1240.51 -427.363 1369.27 -296.436L1602.42 -59.371L1128.29 406.919L895.146 169.855C766.383 38.9289 768.138 -171.592 899.065 -300.354Z" fill="url(#paint1_linear_174_2006)"/>
</g>
</g>
</g>
<defs>
<linearGradient id="paint0_linear_174_2006" x1="-104.952" y1="437.662" x2="464.925" y2="636.592" gradientUnits="userSpaceOnUse">
<stop stop-color="#ECEADF"/>
<stop offset="1" stop-color="#F8F7F3"/>
</linearGradient>
<linearGradient id="paint1_linear_174_2006" x1="949.496" y1="-333.477" x2="1298.71" y2="158.843" gradientUnits="userSpaceOnUse">
<stop stop-color="#ECEADF"/>
<stop offset="1" stop-color="#F8F7F3"/>
</linearGradient>
<clipPath id="clip0_174_2006">
<rect width="1024" height="456" fill="white"/>
</clipPath>
</defs>
</svg>
