<svg width="1024" height="455" viewBox="0 0 1024 455" fill="none" xmlns="http://www.w3.org/2000/svg">
<g clip-path="url(#clip0_594_474)">
<mask id="mask0_594_474" style="mask-type:luminance" maskUnits="userSpaceOnUse" x="0" y="0" width="1024" height="455">
<path d="M1024 0H0V455H1024V0Z" fill="white"/>
</mask>
<g mask="url(#mask0_594_474)">
<path d="M-126.864 493.378C-94.7565 312.572 77.8439 192.028 258.65 224.136L586.028 282.271L469.757 937.028L142.379 878.892C-38.4271 846.785 -158.971 674.184 -126.864 493.378Z" fill="url(#paint0_linear_594_474)"/>
<path d="M899.065 -300.854C1029.99 -429.617 1240.51 -427.863 1369.27 -296.936L1602.42 -59.8716L1128.29 406.419L895.146 169.355C766.383 38.4283 768.138 -172.092 899.065 -300.854Z" fill="url(#paint1_linear_594_474)"/>
</g>
</g>
<defs>
<linearGradient id="paint0_linear_594_474" x1="-128.173" y1="476.536" x2="534.97" y2="594.634" gradientUnits="userSpaceOnUse">
<stop stop-color="#EFEEEB"/>
<stop offset="1" stop-color="#F9F8F6"/>
</linearGradient>
<linearGradient id="paint1_linear_594_474" x1="907.757" y1="-315.34" x2="1379.82" y2="165.136" gradientUnits="userSpaceOnUse">
<stop stop-color="#EFEEEB"/>
<stop offset="1" stop-color="#F9F8F6"/>
</linearGradient>
<clipPath id="clip0_594_474">
<rect width="1024" height="455" fill="white"/>
</clipPath>
</defs>
</svg>
