<svg width="66" height="65" viewBox="0 0 66 65" fill="none" xmlns="http://www.w3.org/2000/svg">
<path d="M1 8C1 3.85786 4.35786 0.5 8.5 0.5H57.5C61.6421 0.5 65 3.85786 65 8V57C65 61.1421 61.6421 64.5 57.5 64.5H8.5C4.35786 64.5 1 61.1421 1 57V8Z" stroke="#DDDFDA"/>
<path d="M32.9998 45.8327C40.3637 45.8327 46.3332 39.8632 46.3332 32.4993C46.3332 25.1356 40.3637 19.166 32.9998 19.166C25.636 19.166 19.6665 25.1356 19.6665 32.4993C19.6665 39.8632 25.636 45.8327 32.9998 45.8327Z" fill="#FFE9E4"/>
<path d="M19.6665 32.4994C19.6665 25.1356 25.636 19.166 32.9998 19.166C33.6974 19.166 34.3825 19.2196 35.0511 19.3228V23.7813C35.0511 24.7334 34.6729 25.6464 33.9997 26.3196C33.3265 26.9928 32.4134 27.371 31.4614 27.371C30.5093 27.371 29.5962 27.7492 28.923 28.4224C28.2498 29.0957 27.8716 30.0087 27.8716 30.9608V34.0377C27.8716 34.9898 27.4934 35.9028 26.8202 36.576C26.147 37.2492 25.234 37.6275 24.2819 37.6275H20.6883C20.03 36.0488 19.6665 34.3165 19.6665 32.4994Z" fill="#F9F8F6"/>
<path d="M46.3333 32.2932C45.3062 31.7603 44.1674 31.479 43.0102 31.4727H38.641C37.689 31.4727 36.7759 31.8509 36.1027 32.5241C35.4295 33.1973 35.0513 34.1103 35.0513 35.0624C35.0513 36.0145 35.4295 36.9275 36.1027 37.6007C36.7759 38.2739 37.689 38.6521 38.641 38.6521C39.321 38.6521 39.9733 38.9223 40.4541 39.4031C40.935 39.8839 41.2051 40.5362 41.2051 41.2162V43.0087C44.3268 40.5685 46.3333 36.7677 46.3333 32.4983V32.2932Z" fill="#F9F8F6"/>
<path d="M32.9998 45.8327C40.3637 45.8327 46.3332 39.8632 46.3332 32.4993C46.3332 25.1356 40.3637 19.166 32.9998 19.166C25.636 19.166 19.6665 25.1356 19.6665 32.4993C19.6665 39.8632 25.636 45.8327 32.9998 45.8327Z" stroke="#FF6849" stroke-width="1.5" stroke-linecap="round" stroke-linejoin="round"/>
<path d="M20.6924 37.6265H24.2821C25.2342 37.6265 26.1473 37.2483 26.8205 36.5751C27.4937 35.9019 27.8719 34.9889 27.8719 34.0368V30.9599C27.8719 30.0078 28.2501 29.0948 28.9233 28.4215C29.5965 27.7483 30.5096 27.3701 31.4616 27.3701C32.4137 27.3701 33.3267 26.9919 34 26.3187C34.6732 25.6455 35.0514 24.7325 35.0514 23.7804V19.3086" stroke="#FF6849" stroke-width="1.5" stroke-linecap="round" stroke-linejoin="round"/>
<path d="M46.3333 32.2932C45.3062 31.7603 44.1674 31.479 43.0102 31.4727H38.641C37.689 31.4727 36.7759 31.8509 36.1027 32.5241C35.4295 33.1973 35.0513 34.1103 35.0513 35.0624C35.0513 36.0145 35.4295 36.9275 36.1027 37.6007C36.7759 38.2739 37.689 38.6521 38.641 38.6521C39.321 38.6521 39.9733 38.9223 40.4541 39.4031C40.935 39.8839 41.2051 40.5362 41.2051 41.2162V43.0009" stroke="#FF6849" stroke-width="1.5" stroke-linecap="round" stroke-linejoin="round"/>
</svg>
