<svg width="66" height="65" viewBox="0 0 66 65" fill="none" xmlns="http://www.w3.org/2000/svg">
<path d="M1 8C1 3.85786 4.35786 0.5 8.5 0.5H57.5C61.6421 0.5 65 3.85786 65 8V57C65 61.1421 61.6421 64.5 57.5 64.5H8.5C4.35786 64.5 1 61.1421 1 57V8Z" stroke="#DDDFDA"/>
<path fill-rule="evenodd" clip-rule="evenodd" d="M42.6427 23.1152C42.6427 25.6242 37.3661 27.6581 30.857 27.6581C24.3479 27.6581 19.0713 25.6242 19.0713 23.1152V37.6009C19.0713 39.8859 23.4141 41.7613 29.1475 42.0922L35.06 31.4295C35.8709 29.7503 37.5952 28.6523 39.4807 28.6523C40.6586 28.6523 41.774 29.081 42.6427 29.8123V23.1152Z" fill="#FFE9E4"/>
<path d="M30.857 27.658C37.3661 27.658 42.6427 25.6241 42.6427 23.1151C42.6427 20.6062 37.3661 18.5723 30.857 18.5723C24.3479 18.5723 19.0713 20.6062 19.0713 23.1151C19.0713 25.6241 24.3479 27.658 30.857 27.658Z" fill="#F9F8F6"/>
<path d="M30.857 27.658C37.3661 27.658 42.6427 25.6241 42.6427 23.1151C42.6427 20.6062 37.3661 18.5723 30.857 18.5723C24.3479 18.5723 19.0713 20.6062 19.0713 23.1151C19.0713 25.6241 24.3479 27.658 30.857 27.658Z" stroke="#FF6849" stroke-width="1.5" stroke-linecap="round" stroke-linejoin="round"/>
<path d="M19.0713 23.1152V37.6009C19.0713 39.7562 22.965 41.5609 28.1889 42.0268" stroke="#FF6849" stroke-width="1.5" stroke-linecap="round" stroke-linejoin="round"/>
<path d="M19.0713 30.3574C19.0713 32.8664 24.3479 34.9003 30.857 34.9003C31.217 34.9003 31.5733 34.8941 31.9251 34.8819" stroke="#FF6849" stroke-width="1.5" stroke-linecap="round" stroke-linejoin="round"/>
<path d="M46.7684 44.5224C46.8734 44.7165 46.9282 44.9338 46.9282 45.1545C46.9282 45.3752 46.8734 45.5925 46.7684 45.7867C46.6696 45.9802 46.5191 46.1426 46.334 46.2562C46.1486 46.3695 45.9356 46.4295 45.7183 46.4295H33.1397C32.9225 46.4295 32.7094 46.3695 32.5241 46.2562C32.3388 46.1426 32.1885 45.9802 32.0897 45.7867C31.9847 45.5925 31.9297 45.3752 31.9297 45.1545C31.9297 44.9338 31.9847 44.7165 32.0897 44.5224L38.4111 33.1224C38.498 32.9095 38.6463 32.7274 38.8371 32.5991C39.0279 32.4708 39.2526 32.4023 39.4826 32.4023C39.7126 32.4023 39.9371 32.4708 40.1281 32.5991C40.3188 32.7274 40.4671 32.9095 40.5541 33.1224L46.7684 44.5224Z" fill="#F9F8F6"/>
<path d="M46.7684 44.5224C46.8734 44.7165 46.9282 44.9338 46.9282 45.1545C46.9282 45.3752 46.8734 45.5925 46.7684 45.7867C46.6696 45.9802 46.5191 46.1426 46.334 46.2562C46.1486 46.3695 45.9356 46.4295 45.7183 46.4295H33.1397C32.9225 46.4295 32.7094 46.3695 32.5241 46.2562C32.3388 46.1426 32.1885 45.9802 32.0897 45.7867C31.9847 45.5925 31.9297 45.3752 31.9297 45.1545C31.9297 44.9338 31.9847 44.7165 32.0897 44.5224L38.4111 33.1224C38.498 32.9095 38.6463 32.7274 38.8371 32.5991C39.0279 32.4708 39.2526 32.4023 39.4826 32.4023C39.7126 32.4023 39.9371 32.4708 40.1281 32.5991C40.3188 32.7274 40.4671 32.9095 40.5541 33.1224L46.7684 44.5224Z" stroke="#FF6849" stroke-width="1.5" stroke-linecap="round" stroke-linejoin="round"/>
<path d="M39.4399 40.0003V37.8574" stroke="#FF6849" stroke-width="1.5" stroke-linecap="round" stroke-linejoin="round"/>
<path d="M39.4297 43.4834C39.2816 43.4834 39.1616 43.3634 39.1616 43.2153C39.1616 43.0673 39.2816 42.9473 39.4297 42.9473" stroke="#FF6849" stroke-width="1.5" stroke-linecap="round" stroke-linejoin="round"/>
<path d="M39.4297 43.4832C39.5778 43.4832 39.6978 43.3632 39.6978 43.2153C39.6978 43.0673 39.5778 42.9473 39.4297 42.9473" stroke="#FF6849" stroke-width="1.5" stroke-linecap="round" stroke-linejoin="round"/>
<path d="M42.6426 28.7509V23.1152" stroke="#FF6849" stroke-width="1.5" stroke-linecap="round" stroke-linejoin="round"/>
</svg>
