<svg width="66" height="65" viewBox="0 0 66 65" fill="none" xmlns="http://www.w3.org/2000/svg">
<path d="M1 8C1 3.85786 4.35786 0.5 8.5 0.5H57.5C61.6421 0.5 65 3.85786 65 8V57C65 61.1421 61.6421 64.5 57.5 64.5H8.5C4.35786 64.5 1 61.1421 1 57V8Z" stroke="#DDDFDA"/>
<path fill-rule="evenodd" clip-rule="evenodd" d="M46.3007 45.8018C46.7025 45.4 46.9284 44.8548 46.9284 44.2865V26.0723L39.4284 18.5723H25.4998C24.9315 18.5723 24.3864 18.798 23.9846 19.1999C23.5827 19.6018 23.3569 20.1468 23.3569 20.7151V30.4118L24.991 28.7778C25.6943 28.0745 26.6481 27.6794 27.6426 27.6794H34.0712C36.1423 27.6794 37.8212 29.3583 37.8212 31.4294V37.858C37.8212 38.8525 37.4261 39.8063 36.7229 40.5096L30.8031 46.4294H44.7855C45.3538 46.4294 45.8989 46.2036 46.3007 45.8018Z" fill="#FFE9E4"/>
<path d="M23.3569 29.2866V20.7151C23.3569 20.1468 23.5827 19.6018 23.9846 19.1999C24.3864 18.798 24.9315 18.5723 25.4998 18.5723H39.4284L46.9284 26.0723V44.2865C46.9284 44.8548 46.7025 45.4 46.3007 45.8018C45.8989 46.2035 45.3538 46.4294 44.7855 46.4294H31.9284" stroke="#FF6849" stroke-width="1.5" stroke-linecap="round" stroke-linejoin="round"/>
<path d="M25.4999 46.4297L19.0713 40.0011L27.6427 31.4297H34.0713V37.8583L25.4999 46.4297Z" fill="#F9F8F6"/>
<path d="M29.7857 36.2511C29.4899 36.2511 29.25 36.0113 29.25 35.7154C29.25 35.4195 29.4899 35.1797 29.7857 35.1797" stroke="#FF6849" stroke-width="1.5" stroke-linecap="round" stroke-linejoin="round"/>
<path d="M29.7856 36.2511C30.0815 36.2511 30.3214 36.0113 30.3214 35.7154C30.3214 35.4195 30.0815 35.1797 29.7856 35.1797" stroke="#FF6849" stroke-width="1.5" stroke-linecap="round" stroke-linejoin="round"/>
<path d="M25.4999 46.4297L19.0713 40.0011L27.6427 31.4297H34.0713V37.8583L25.4999 46.4297Z" stroke="#FF6849" stroke-width="1.5" stroke-linecap="round" stroke-linejoin="round"/>
</svg>
