<svg width="66" height="65" viewBox="0 0 66 65" fill="none" xmlns="http://www.w3.org/2000/svg">
<path d="M1 8C1 3.85786 4.35786 0.5 8.5 0.5H57.5C61.6421 0.5 65 3.85786 65 8V57C65 61.1421 61.6421 64.5 57.5 64.5H8.5C4.35786 64.5 1 61.1421 1 57V8Z" stroke="#DDDFDA"/>
<path d="M33.0002 29.8615V37.7782L32.8968 37.7954C30.1375 38.2553 28.9194 41.5368 30.7102 43.6857L31.9446 45.1671H45.6668V41.099C45.6668 38.0991 43.2348 35.6671 40.2349 35.6671H38.278V29.8615C38.278 28.4041 37.0965 27.2227 35.6391 27.2227C34.1817 27.2227 33.0002 28.4041 33.0002 29.8615Z" fill="#FFE9E4"/>
<path d="M45.6668 45.1671V41.099C45.6668 38.0991 43.2348 35.6671 40.2349 35.6671H38.278V29.8615C38.278 28.4041 37.0965 27.2227 35.6391 27.2227C34.1817 27.2227 33.0002 28.4041 33.0002 29.8615V37.7782L32.8968 37.7954C30.1375 38.2553 28.9194 41.5368 30.7102 43.6857L31.9446 45.1671" stroke="#FF6849" stroke-width="1.5" stroke-linecap="round" stroke-linejoin="round"/>
<path d="M21.3891 21.9451C21.972 21.9451 22.4446 21.4725 22.4446 20.8895C22.4446 20.3066 21.972 19.834 21.3891 19.834C20.8061 19.834 20.3335 20.3066 20.3335 20.8895C20.3335 21.4725 20.8061 21.9451 21.3891 21.9451Z" stroke="#FF6849" stroke-width="1.5" stroke-linecap="round" stroke-linejoin="round"/>
<path d="M28.7777 21.9451C29.3607 21.9451 29.8333 21.4725 29.8333 20.8895C29.8333 20.3066 29.3607 19.834 28.7777 19.834C28.1948 19.834 27.7222 20.3066 27.7222 20.8895C27.7222 21.4725 28.1948 21.9451 28.7777 21.9451Z" stroke="#FF6849" stroke-width="1.5" stroke-linecap="round" stroke-linejoin="round"/>
<path d="M36.1669 21.9451C36.7498 21.9451 37.2224 21.4725 37.2224 20.8895C37.2224 20.3066 36.7498 19.834 36.1669 19.834C35.5839 19.834 35.1113 20.3066 35.1113 20.8895C35.1113 21.4725 35.5839 21.9451 36.1669 21.9451Z" stroke="#FF6849" stroke-width="1.5" stroke-linecap="round" stroke-linejoin="round"/>
<path d="M21.3891 29.3338C21.972 29.3338 22.4446 28.8612 22.4446 28.2782C22.4446 27.6952 21.972 27.2227 21.3891 27.2227C20.8061 27.2227 20.3335 27.6952 20.3335 28.2782C20.3335 28.8612 20.8061 29.3338 21.3891 29.3338Z" stroke="#FF6849" stroke-width="1.5" stroke-linecap="round" stroke-linejoin="round"/>
<path d="M28.7777 29.3338C29.3607 29.3338 29.8333 28.8612 29.8333 28.2782C29.8333 27.6952 29.3607 27.2227 28.7777 27.2227C28.1948 27.2227 27.7222 27.6952 27.7222 28.2782C27.7222 28.8612 28.1948 29.3338 28.7777 29.3338Z" stroke="#FF6849" stroke-width="1.5" stroke-linecap="round" stroke-linejoin="round"/>
<path d="M21.3891 36.7224C21.972 36.7224 22.4446 36.2498 22.4446 35.6669C22.4446 35.0839 21.972 34.6113 21.3891 34.6113C20.8061 34.6113 20.3335 35.0839 20.3335 35.6669C20.3335 36.2498 20.8061 36.7224 21.3891 36.7224Z" stroke="#FF6849" stroke-width="1.5" stroke-linecap="round" stroke-linejoin="round"/>
</svg>
