<svg width="66" height="65" viewBox="0 0 66 65" fill="none" xmlns="http://www.w3.org/2000/svg">
<path d="M1 8C1 3.85786 4.35786 0.5 8.5 0.5H57.5C61.6421 0.5 65 3.85786 65 8V57C65 61.1421 61.6421 64.5 57.5 64.5H8.5C4.35786 64.5 1 61.1421 1 57V8Z" stroke="#DDDFDA"/>
<path fill-rule="evenodd" clip-rule="evenodd" d="M30.564 25.6797H25.2051C24.0358 25.6797 23.2563 26.4592 23.2563 27.6284V37.372H42.7309V34.4693C41.8157 34.7722 40.8373 34.9361 39.8204 34.9361C34.7083 34.9361 30.564 30.7919 30.564 25.6797Z" fill="#F9F8F6"/>
<path d="M20.4999 42.8864L23.2566 37.373H42.7438L45.5004 42.8864C45.6099 43.1052 45.6668 43.3466 45.6668 43.5914C45.6668 44.4621 44.961 45.1679 44.0903 45.1679H21.91C21.0393 45.1679 20.3335 44.4621 20.3335 43.5914C20.3335 43.3466 20.3905 43.1052 20.4999 42.8864Z" fill="#FFE9E4"/>
<path d="M20.4999 42.8864L23.2566 37.373H42.7438L45.5004 42.8864C45.6099 43.1052 45.6668 43.3466 45.6668 43.5914C45.6668 44.4621 44.961 45.1679 44.0903 45.1679H21.91C21.0393 45.1679 20.3335 44.4621 20.3335 43.5914C20.3335 43.3466 20.3905 43.1052 20.4999 42.8864Z" stroke="#FF6849" stroke-width="1.5" stroke-linecap="round" stroke-linejoin="round"/>
<path d="M29.5897 25.6797H25.2051C24.1288 25.6797 23.2563 26.5522 23.2563 27.6284V37.372H42.7435V35.1797" stroke="#FF6849" stroke-width="1.5" stroke-linecap="round" stroke-linejoin="round"/>
<path d="M39.8208 31.5263C43.0496 31.5263 45.6669 28.9089 45.6669 25.6801C45.6669 22.4514 43.0496 19.834 39.8208 19.834C36.592 19.834 33.9746 22.4514 33.9746 25.6801C33.9746 28.9089 36.592 31.5263 39.8208 31.5263Z" fill="#FFE9E4"/>
<path d="M39.8208 31.5263C43.0496 31.5263 45.6669 28.9089 45.6669 25.6801C45.6669 22.4514 43.0496 19.834 39.8208 19.834C36.592 19.834 33.9746 22.4514 33.9746 25.6801C33.9746 28.9089 36.592 31.5263 39.8208 31.5263Z" stroke="#FF6849" stroke-width="1.5" stroke-linecap="round" stroke-linejoin="round"/>
<path d="M39.8208 23.7305V26.1664L41.7695 26.6535" stroke="#FF6849" stroke-width="1.5" stroke-linecap="round" stroke-linejoin="round"/>
</svg>
