<svg width="328" height="218" viewBox="0 0 328 218" fill="none" xmlns="http://www.w3.org/2000/svg">
<path d="M173.998 74.2382C170.907 72.4522 169.002 69.1568 168.998 65.5907L168.977 43.1081C168.973 39.5351 170.88 36.2332 173.977 34.4477L193.421 23.2377C196.519 21.4522 200.335 21.4546 203.432 23.244L222.92 34.5038C226.012 36.2898 227.917 39.5852 227.92 43.1514L227.942 65.634C227.945 69.207 226.039 72.5088 222.942 74.2943L203.497 85.5043C200.4 87.2899 196.583 87.2875 193.486 85.498L173.998 74.2382Z" fill="#E5EFFF"/>
<path d="M198.111 58.8536C200.335 58.8536 204.099 58.4655 204.099 57.0135V48.7346C204.099 47.2826 200.335 46.8945 198.111 46.8945C195.887 46.8945 192.123 47.2826 192.123 48.7346V57.0135C192.123 58.4655 195.887 58.8536 198.111 58.8536ZM198.111 57.9341C195.036 57.9341 193.202 57.3229 193.045 57.0146V55.3125C194.301 55.9097 196.574 56.094 198.111 56.094C199.648 56.094 201.926 55.9075 203.183 55.3125V56.9823C203.02 57.3229 201.185 57.9341 198.111 57.9341ZM198.111 47.8151C201.089 47.8151 202.904 48.3886 203.163 48.7346C202.904 49.0817 201.09 49.6541 198.111 49.6541C195.131 49.6541 193.318 49.0807 193.059 48.7346C193.318 48.3886 195.132 47.8151 198.111 47.8151ZM193.045 49.7932C194.301 50.3904 196.574 50.5748 198.111 50.5748C199.648 50.5748 201.922 50.3904 203.177 49.7932V51.4662C202.998 51.809 201.168 52.4138 198.111 52.4138C195.036 52.4138 193.202 51.8026 193.045 51.4943V49.7932ZM193.045 52.5528C194.301 53.1501 196.574 53.3344 198.111 53.3344C199.648 53.3344 201.924 53.1479 203.18 52.5528V54.2237C203.01 54.5665 201.178 55.1745 198.111 55.1745C195.036 55.1745 193.202 54.5633 193.045 54.255V52.5528Z" fill="#252532"/>
<path d="M188.899 68.5128H207.322C208.086 68.5128 208.704 67.8951 208.704 67.133V47.3554C208.719 46.645 208.436 45.9605 207.925 45.4667L204.147 41.6949C203.653 41.1839 202.967 40.9015 202.256 40.9166H188.899C188.136 40.9166 187.517 41.5343 187.517 42.2964V67.1329C187.517 67.8951 188.136 68.5128 188.899 68.5128ZM207.323 67.5933H188.899C188.644 67.5933 188.438 67.3874 188.438 67.133V61.1534H207.783V67.133C207.783 67.2548 207.735 67.3723 207.648 67.4585C207.562 67.5448 207.444 67.5933 207.322 67.5933L207.323 67.5933ZM207.132 45.9767L204.559 45.9756C204.05 45.9756 203.638 45.5638 203.638 45.0561V42.4873L207.132 45.9767ZM188.899 41.8361H202.256C202.378 41.8361 202.496 41.8846 202.582 41.9709C202.668 42.0571 202.717 42.1746 202.717 42.2964V45.056C202.717 45.5444 202.91 46.0122 203.257 46.3571C203.602 46.7021 204.071 46.8961 204.559 46.8961H207.322C207.444 46.8961 207.562 46.9446 207.648 47.0309C207.735 47.1171 207.783 47.2335 207.783 47.3553V60.2339H188.438V42.2964C188.438 42.042 188.644 41.8361 188.899 41.8361Z" fill="#252532"/>
<path d="M209.237 134.095C206.126 132.31 204.199 129.036 204.178 125.5L204.048 103.108C204.028 99.5557 205.934 96.279 209.048 94.5156L228.567 83.4606C231.68 81.6972 235.526 81.7158 238.652 83.5095L258.355 94.8161C261.466 96.6015 263.393 99.8753 263.414 103.411L263.544 125.803C263.564 129.356 261.658 132.632 258.544 134.396L239.025 145.451C235.912 147.214 232.066 147.196 228.94 145.402L209.237 134.095Z" fill="#619DFF"/>
<path d="M233.496 118.986C235.725 118.986 239.498 118.604 239.498 117.174V109.023C239.498 107.593 235.725 107.211 233.496 107.211C231.267 107.211 227.495 107.593 227.495 109.023V117.174C227.495 118.604 231.267 118.986 233.496 118.986ZM233.496 118.081C230.415 118.081 228.577 117.479 228.419 117.175V115.499C229.678 116.087 231.956 116.269 233.496 116.269C235.037 116.269 237.32 116.085 238.579 115.499V117.143C238.416 117.479 236.578 118.081 233.496 118.081ZM233.496 108.117C236.481 108.117 238.3 108.682 238.56 109.023C238.3 109.365 236.482 109.928 233.496 109.928C230.51 109.928 228.692 109.363 228.433 109.023C228.692 108.682 230.511 108.117 233.496 108.117ZM228.419 110.065C229.678 110.653 231.956 110.835 233.496 110.835C235.037 110.835 237.316 110.653 238.574 110.065V111.712C238.394 112.05 236.56 112.645 233.496 112.645C230.415 112.645 228.577 112.043 228.419 111.74V110.065ZM228.419 112.782C229.678 113.37 231.956 113.552 233.496 113.552C235.037 113.552 237.318 113.368 238.577 112.782V114.427C238.406 114.765 236.57 115.364 233.496 115.364C230.415 115.364 228.577 114.762 228.419 114.458V112.782Z" fill="white"/>
<path d="M224.264 128.496H242.729C243.494 128.496 244.113 127.888 244.113 127.138V107.664C244.129 106.965 243.845 106.291 243.332 105.805L239.547 102.091C239.051 101.588 238.364 101.31 237.651 101.325H224.264C223.499 101.325 222.879 101.933 222.879 102.683V127.138C222.879 127.888 223.499 128.496 224.264 128.496ZM242.73 127.591H224.264C224.008 127.591 223.802 127.388 223.802 127.138V121.25H243.191V127.138C243.191 127.258 243.142 127.373 243.055 127.458C242.969 127.543 242.851 127.591 242.729 127.591L242.73 127.591ZM242.538 106.307L239.959 106.306C239.449 106.306 239.036 105.9 239.036 105.401V102.871L242.538 106.307ZM224.264 102.23H237.651C237.773 102.23 237.891 102.278 237.978 102.363C238.064 102.448 238.113 102.563 238.113 102.683V105.401C238.113 105.881 238.306 106.342 238.654 106.682C239 107.021 239.47 107.212 239.959 107.212H242.728C242.851 107.212 242.969 107.26 243.055 107.345C243.142 107.43 243.19 107.545 243.19 107.664V120.345H223.802V102.683C223.802 102.433 224.008 102.23 224.264 102.23Z" fill="white"/>
<path d="M128.531 132.924L99.5453 149.922C96.4531 151.736 94.5456 155.079 94.5456 158.684L94.5456 186.954C94.5456 190.523 96.4151 193.812 99.4581 195.596L123.56 209.731C126.634 211.534 130.438 211.527 133.53 209.714L157.516 195.648C160.608 193.834 162.515 190.491 162.515 186.886L162.515 152.854" stroke="#FF6849" stroke-dasharray="4 8"/>
<path d="M104.412 192.516C101.366 190.731 99.4946 187.439 99.4962 183.866L99.5061 161.088C99.5077 157.484 101.415 154.143 104.506 152.33L123.84 140.992C126.931 139.179 130.733 139.172 133.806 140.972L153.232 152.353C156.279 154.138 158.15 157.43 158.148 161.002L158.138 183.781C158.137 187.385 156.229 190.726 153.139 192.538L133.804 203.877C130.714 205.69 126.912 205.697 123.838 203.896L104.412 192.516Z" fill="#E5EFFF"/>
<path d="M128.245 176.795C130.448 176.795 134.176 176.404 134.176 174.941V166.6C134.176 165.137 130.448 164.746 128.245 164.746C126.043 164.746 122.314 165.137 122.314 166.6V174.941C122.314 176.404 126.043 176.795 128.245 176.795ZM128.245 175.868C125.2 175.868 123.384 175.252 123.228 174.942V173.227C124.472 173.829 126.723 174.014 128.245 174.014C129.768 174.014 132.024 173.826 133.268 173.227V174.909C133.107 175.252 131.29 175.868 128.245 175.868ZM128.245 165.674C131.195 165.674 132.992 166.251 133.249 166.6C132.992 166.95 131.196 167.526 128.245 167.526C125.294 167.526 123.498 166.949 123.242 166.6C123.498 166.251 125.295 165.674 128.245 165.674ZM123.228 167.666C124.472 168.268 126.723 168.454 128.245 168.454C129.768 168.454 132.019 168.268 133.263 167.666V169.352C133.085 169.697 131.273 170.307 128.245 170.307C125.2 170.307 123.384 169.691 123.228 169.38V167.666ZM123.228 170.447C124.472 171.048 126.723 171.234 128.245 171.234C129.768 171.234 132.022 171.046 133.266 170.447V172.13C133.097 172.475 131.283 173.088 128.245 173.088C125.2 173.088 123.384 172.472 123.228 172.162V170.447Z" fill="#252532"/>
<path d="M119.122 186.526H137.368C138.124 186.526 138.737 185.903 138.737 185.136V165.21C138.752 164.494 138.472 163.805 137.965 163.307L134.224 159.507C133.734 158.993 133.055 158.708 132.35 158.723H119.121C118.366 158.723 117.753 159.346 117.753 160.113V185.136C117.753 185.903 118.366 186.526 119.122 186.526ZM137.369 185.599H119.122C118.869 185.599 118.665 185.392 118.665 185.136V179.111H137.825V185.136C137.825 185.258 137.777 185.377 137.691 185.464C137.605 185.551 137.489 185.599 137.368 185.599L137.369 185.599ZM137.18 163.821L134.631 163.82C134.127 163.82 133.719 163.405 133.719 162.894V160.306L137.18 163.821ZM119.121 159.65H132.35C132.471 159.65 132.588 159.699 132.673 159.785C132.759 159.872 132.807 159.991 132.807 160.113V162.894C132.807 163.386 132.998 163.857 133.341 164.204C133.684 164.552 134.148 164.747 134.631 164.747H137.368C137.489 164.747 137.605 164.796 137.691 164.883C137.776 164.97 137.825 165.087 137.825 165.21V178.185H118.665V160.113C118.665 159.857 118.869 159.65 119.121 159.65Z" fill="#252532"/>
<path d="M128.742 132.924L128.742 98.8932C128.742 95.2876 130.65 91.9447 133.742 90.1313L162.727 73.1328M196.712 93.0634L196.712 127.095C196.712 130.7 194.805 134.043 191.713 135.857L162.727 152.855" stroke="#FF6849" stroke-dasharray="4 8"/>
<path d="M175.077 192.793C172.047 191.009 170.183 187.737 170.174 184.186L170.117 161.26C170.108 157.65 172.016 154.301 175.116 152.487L194.433 141.184C197.533 139.37 201.349 139.369 204.429 141.182L223.99 152.696C227.021 154.479 228.885 157.751 228.894 161.303L228.951 184.229C228.96 187.838 227.052 191.187 223.951 193.001L204.635 204.304C201.534 206.118 197.719 206.119 194.639 204.306L175.077 192.793Z" fill="#619DFF"/>
<path d="M199.397 177.513C201.581 177.513 205.279 177.126 205.279 175.679V167.426C205.279 165.979 201.581 165.592 199.397 165.592C197.213 165.592 193.516 165.979 193.516 167.426V175.679C193.516 177.126 197.213 177.513 199.397 177.513ZM199.397 176.596C196.378 176.596 194.576 175.987 194.422 175.68V173.983C195.656 174.578 197.888 174.762 199.397 174.762C200.907 174.762 203.144 174.576 204.378 173.983V175.647C204.218 175.987 202.417 176.596 199.397 176.596ZM199.397 166.509C202.322 166.509 204.105 167.081 204.359 167.426C204.105 167.772 202.324 168.343 199.397 168.343C196.471 168.343 194.69 167.771 194.435 167.426C194.69 167.081 196.472 166.509 199.397 166.509ZM194.422 168.481C195.656 169.077 197.888 169.26 199.397 169.26C200.907 169.26 203.14 169.077 204.373 168.481V170.149C204.197 170.491 202.4 171.094 199.397 171.094C196.378 171.094 194.576 170.484 194.422 170.177V168.481ZM194.422 171.232C195.656 171.827 197.888 172.011 199.397 172.011C200.907 172.011 203.142 171.825 204.376 171.232V172.898C204.209 173.239 202.41 173.845 199.397 173.845C196.378 173.845 194.576 173.236 194.422 172.929V171.232Z" fill="white"/>
<path d="M190.35 187.14H208.444C209.194 187.14 209.801 186.524 209.801 185.765V166.05C209.816 165.342 209.538 164.659 209.036 164.167L205.326 160.407C204.84 159.898 204.167 159.616 203.468 159.631H190.35C189.6 159.631 188.993 160.247 188.993 161.007V185.765C188.993 186.524 189.6 187.14 190.35 187.14ZM208.445 186.223H190.35C190.1 186.223 189.897 186.018 189.897 185.765V179.804H208.897V185.765C208.897 185.886 208.849 186.003 208.764 186.089C208.679 186.175 208.564 186.223 208.444 186.223L208.445 186.223ZM208.257 164.675L205.73 164.674C205.23 164.674 204.825 164.264 204.825 163.758V161.197L208.257 164.675ZM190.35 160.548H203.468C203.588 160.548 203.703 160.596 203.788 160.682C203.873 160.768 203.921 160.885 203.921 161.007V163.758C203.921 164.244 204.111 164.711 204.451 165.055C204.79 165.399 205.25 165.592 205.73 165.592H208.444C208.564 165.592 208.679 165.64 208.764 165.726C208.849 165.812 208.897 165.928 208.897 166.05V178.887H189.897V161.007C189.897 160.753 190.099 160.548 190.35 160.548Z" fill="white"/>
<path d="M245.243 77.4577C242.163 75.671 240.272 72.3508 240.286 68.7523L240.376 46.2511C240.39 42.6637 242.295 39.3445 245.376 37.5415L264.764 26.1915C267.845 24.3885 271.632 24.375 274.704 26.1562L293.968 37.3283C297.048 39.1149 298.939 42.4352 298.925 46.0337L298.835 68.5348C298.821 72.1222 296.916 75.4415 293.835 77.2445L274.446 88.5945C271.366 90.3975 267.579 90.4109 264.507 88.6297L245.243 77.4577Z" fill="#619DFF"/>
<path d="M268.997 61.1118C271.221 61.1118 274.986 60.7178 274.986 59.2434V50.8372C274.986 49.3628 271.221 48.9688 268.997 48.9688C266.774 48.9688 263.009 49.3628 263.009 50.8372V59.2434C263.009 60.7177 266.774 61.1118 268.997 61.1118ZM268.997 60.1782C265.923 60.1782 264.089 59.5575 263.931 59.2445V57.5162C265.188 58.1226 267.46 58.3097 268.997 58.3097C270.535 58.3097 272.813 58.1204 274.069 57.5162V59.2117C273.906 59.5576 272.072 60.1782 268.997 60.1782ZM268.997 49.9035C271.976 49.9035 273.791 50.4858 274.05 50.8372C273.791 51.1896 271.977 51.7708 268.997 51.7708C266.018 51.7708 264.204 51.1885 263.945 50.8372C264.204 50.4858 266.019 49.9035 268.997 49.9035ZM263.931 51.912C265.188 52.5184 267.46 52.7056 268.997 52.7056C270.535 52.7056 272.808 52.5184 274.064 51.912V53.6108C273.885 53.9589 272.055 54.5729 268.997 54.5729C265.923 54.5729 264.089 53.9523 263.931 53.6393V51.912ZM263.931 54.7141C265.188 55.3205 267.46 55.5077 268.997 55.5077C270.535 55.5077 272.81 55.3183 274.067 54.7141V56.4107C273.897 56.7588 272.065 57.3761 268.997 57.3761C265.923 57.3761 264.089 56.7555 263.931 56.4424V54.7141Z" fill="white"/>
<path d="M259.786 70.9178H278.209C278.972 70.9178 279.591 70.2906 279.591 69.5168V49.4349C279.606 48.7136 279.323 48.0185 278.811 47.5172L275.034 43.6873C274.54 43.1685 273.854 42.8817 273.143 42.8971H259.786C259.022 42.8971 258.404 43.5243 258.404 44.2981V69.5167C258.404 70.2906 259.022 70.9178 259.786 70.9178ZM278.21 69.9842H259.786C259.531 69.9842 259.325 69.7751 259.325 69.5168V63.4452H278.67V69.5168C278.67 69.6405 278.621 69.7598 278.535 69.8473C278.449 69.9349 278.331 69.9842 278.209 69.9842L278.21 69.9842ZM278.019 48.035L275.445 48.0339C274.937 48.0339 274.525 47.6158 274.525 47.1002V44.4919L278.019 48.035ZM259.786 43.8307H273.143C273.265 43.8307 273.382 43.88 273.469 43.9676C273.555 44.0551 273.604 44.1744 273.604 44.2981V47.1002C273.604 47.596 273.797 48.0711 274.143 48.4213C274.489 48.7716 274.957 48.9686 275.445 48.9686H278.209C278.331 48.9686 278.449 49.0178 278.535 49.1054C278.621 49.193 278.67 49.3112 278.67 49.4349V62.5116H259.325V44.2981C259.325 44.0398 259.531 43.8307 259.786 43.8307Z" fill="white"/>
<path d="M138.243 133.458C135.163 131.671 133.272 128.351 133.286 124.752L133.376 102.251C133.39 98.6637 135.295 95.3445 138.376 93.5415L157.764 82.1915C160.845 80.3885 164.632 80.375 167.704 82.1562L186.968 93.3283C190.048 95.1149 191.939 98.4352 191.925 102.034L191.835 124.535C191.821 128.122 189.916 131.441 186.835 133.245L167.446 144.594C164.366 146.397 160.579 146.411 157.507 144.63L138.243 133.458Z" fill="#E5EFFF"/>
<path d="M161.997 117.112C164.221 117.112 167.986 116.718 167.986 115.243V106.837C167.986 105.363 164.221 104.969 161.997 104.969C159.774 104.969 156.009 105.363 156.009 106.837V115.243C156.009 116.718 159.774 117.112 161.997 117.112ZM161.997 116.178C158.923 116.178 157.089 115.558 156.931 115.245V113.516C158.188 114.123 160.46 114.31 161.997 114.31C163.535 114.31 165.813 114.12 167.069 113.516V115.212C166.906 115.558 165.072 116.178 161.997 116.178ZM161.997 105.904C164.976 105.904 166.791 106.486 167.05 106.837C166.791 107.19 164.977 107.771 161.997 107.771C159.018 107.771 157.204 107.189 156.945 106.837C157.204 106.486 159.019 105.904 161.997 105.904ZM156.931 107.912C158.188 108.518 160.46 108.706 161.997 108.706C163.535 108.706 165.808 108.518 167.064 107.912V109.611C166.885 109.959 165.055 110.573 161.997 110.573C158.923 110.573 157.089 109.952 156.931 109.639V107.912ZM156.931 110.714C158.188 111.321 160.46 111.508 161.997 111.508C163.535 111.508 165.81 111.318 167.067 110.714V112.411C166.897 112.759 165.065 113.376 161.997 113.376C158.923 113.376 157.089 112.755 156.931 112.442V110.714Z" fill="#252532"/>
<path d="M152.786 126.918H171.209C171.972 126.918 172.591 126.291 172.591 125.517V105.435C172.606 104.714 172.323 104.019 171.811 103.517L168.034 99.6873C167.54 99.1685 166.854 98.8817 166.143 98.8971H152.786C152.022 98.8971 151.404 99.5243 151.404 100.298V125.517C151.404 126.291 152.022 126.918 152.786 126.918ZM171.21 125.984H152.786C152.531 125.984 152.325 125.775 152.325 125.517V119.445H171.67V125.517C171.67 125.64 171.621 125.76 171.535 125.847C171.449 125.935 171.331 125.984 171.209 125.984L171.21 125.984ZM171.019 104.035L168.445 104.034C167.937 104.034 167.525 103.616 167.525 103.1V100.492L171.019 104.035ZM152.786 99.8307H166.143C166.265 99.8307 166.382 99.88 166.469 99.9676C166.555 100.055 166.604 100.174 166.604 100.298V103.1C166.604 103.596 166.797 104.071 167.143 104.421C167.489 104.772 167.957 104.969 168.445 104.969H171.209C171.331 104.969 171.449 105.018 171.535 105.105C171.621 105.193 171.67 105.311 171.67 105.435V118.512H152.325V100.298C152.325 100.04 152.531 99.8307 152.786 99.8307Z" fill="#252532"/>
<path d="M129.036 93.6766L111.873 83.7677L99.7101 76.7455C96.6161 74.9592 92.8041 74.9592 89.7101 76.7455L65.3846 90.7899C62.2906 92.5762 60.3846 95.8775 60.3846 99.4501L60.3846 127.539C60.3846 131.111 62.2906 134.413 65.3846 136.199L94.7101 153.13" stroke="#FF6849" stroke-dasharray="4 8"/>
<path d="M94.9243 73.8594L94.9243 39.9972C94.9243 36.4245 96.8303 33.1233 99.9243 31.3369L124.25 17.2926C127.344 15.5063 131.156 15.5063 134.25 17.2926L146.413 24.3148L163.575 34.2237" stroke="#FF6849" stroke-dasharray="4 8"/>
<path d="M163.262 73.3631L163.262 39.5009C163.262 35.9282 165.168 32.627 168.262 30.8407L192.587 16.7963C195.681 15.01 199.493 15.01 202.587 16.7963L226.913 30.8406C230.007 32.627 231.913 35.9283 231.913 39.5009L231.913 67.5896C231.913 71.1622 230.007 74.4635 226.913 76.2498L197.587 93.1809" stroke="#FF6849" stroke-dasharray="4 8"/>
<path d="M35.5243 73.3605C32.4125 71.5727 30.4997 68.2448 30.5144 64.644L30.6048 42.3561C30.6192 38.7885 32.5237 35.4943 35.6047 33.7075L55.0635 22.4226C58.1444 20.6358 61.9368 20.6263 65.0198 22.3974L84.2808 33.4628C87.3926 35.2505 89.3054 38.5784 89.2908 42.1792L89.2004 64.4671C89.1859 68.0347 87.2814 71.3289 84.2005 73.1157L64.7417 84.4006C61.6607 86.1874 57.8683 86.1969 54.7853 84.4258L35.5243 73.3605Z" fill="#FF6849"/>
<path d="M49.0298 52.7383V64.2332H52.4008V62.8575C50.2487 60.8745 49.0278 56.5391 49.0278 52.7305" fill="white"/>
<path d="M69.5468 52.7383V64.2332H66.1738V62.8575C68.326 60.8745 69.5468 56.5391 69.5468 52.7305" fill="white"/>
<path d="M66.174 44.3083V53.1638C66.174 55.9682 65.368 58.1399 63.9045 59.5116V50.7564H60.422V61.0917C60.0442 61.1464 59.663 61.1746 59.2813 61.1762C58.9003 61.1746 58.5198 61.1463 58.1426 61.0917V41.1875H54.666V59.5116C53.2025 58.1359 52.3964 55.9741 52.3964 53.1638V47.496H49.0234V53.1638C49.0234 60.0658 53.0499 64.527 59.2813 64.527C65.5127 64.527 69.5412 60.0658 69.5412 53.1638V44.3083H66.174Z" fill="white"/>
</svg>
