<svg width="368" height="218" viewBox="0 0 368 218" fill="none" xmlns="http://www.w3.org/2000/svg">
<path d="M218.737 133.129L208.765 127.306L218.794 121.582L218.737 133.129ZM213.973 124.782L214.841 124.287L214.841 124.287L213.973 124.782ZM212.643 122.453L211.775 122.949L211.775 122.949L212.643 122.453ZM132.334 115.055L134.332 115.065L134.322 117.065L132.324 117.055L132.334 115.055ZM140.328 115.094L144.325 115.114L144.315 117.114L140.318 117.094L140.328 115.094ZM150.321 115.144L154.319 115.164L154.309 117.164L150.311 117.144L150.321 115.144ZM160.315 115.194L164.312 115.213L164.302 117.213L160.305 117.193L160.315 115.194ZM170.308 115.243L174.305 115.263L174.295 117.263L170.298 117.243L170.308 115.243ZM180.301 115.293L184.298 115.312L184.288 117.312L180.291 117.293L180.301 115.293ZM190.294 115.342L194.291 115.362L194.282 117.362L190.284 117.342L190.294 115.342ZM200.287 115.392L202.286 115.402L202.276 117.402L200.277 117.392L200.287 115.392ZM202.286 115.402C203.205 115.406 204.109 115.508 204.988 115.699L204.562 117.653C203.819 117.491 203.054 117.406 202.276 117.402L202.286 115.402ZM211.926 119.751C212.524 120.421 213.057 121.16 213.512 121.957L211.775 122.949C211.389 122.273 210.938 121.649 210.433 121.081L211.926 119.751ZM213.512 121.957L213.778 122.423L212.041 123.415L211.775 122.949L213.512 121.957ZM214.576 123.821L214.841 124.287L213.104 125.278L212.839 124.812L214.576 123.821ZM214.841 124.287L215.794 125.956L214.057 126.947L213.104 125.278L214.841 124.287ZM218.737 133.129L208.765 127.306L218.794 121.582L218.737 133.129ZM213.973 124.782L214.841 124.287L214.841 124.287L213.973 124.782ZM212.643 122.453L211.775 122.949L211.775 122.949L212.643 122.453ZM132.334 115.055L134.332 115.065L134.322 117.065L132.324 117.055L132.334 115.055ZM140.328 115.094L144.325 115.114L144.315 117.114L140.318 117.094L140.328 115.094ZM150.321 115.144L154.319 115.164L154.309 117.164L150.311 117.144L150.321 115.144ZM160.315 115.194L164.312 115.213L164.302 117.213L160.305 117.193L160.315 115.194ZM170.308 115.243L174.305 115.263L174.295 117.263L170.298 117.243L170.308 115.243ZM180.301 115.293L184.298 115.312L184.288 117.312L180.291 117.293L180.301 115.293ZM190.294 115.342L194.291 115.362L194.282 117.362L190.284 117.342L190.294 115.342ZM200.287 115.392L202.286 115.402L202.276 117.402L200.277 117.392L200.287 115.392ZM202.286 115.402C203.205 115.406 204.109 115.508 204.988 115.699L204.562 117.653C203.819 117.491 203.054 117.406 202.276 117.402L202.286 115.402ZM211.926 119.751C212.524 120.421 213.057 121.16 213.512 121.957L211.775 122.949C211.389 122.273 210.938 121.649 210.433 121.081L211.926 119.751ZM213.512 121.957L213.778 122.423L212.041 123.415L211.775 122.949L213.512 121.957ZM214.576 123.821L214.841 124.287L213.104 125.278L212.839 124.812L214.576 123.821ZM214.841 124.287L215.794 125.956L214.057 126.947L213.104 125.278L214.841 124.287Z" fill="#FF6849" fill-opacity="0.25"/>
<path d="M218.82 84.0547L208.848 89.8777L218.877 95.6016L218.82 84.0547ZM214.056 92.4011L214.924 92.8968L214.924 92.8968L214.056 92.4011ZM212.726 94.7304L211.858 94.2347L211.858 94.2347L212.726 94.7304ZM132.417 102.129L134.415 102.119L134.405 100.119L132.407 100.129L132.417 102.129ZM140.411 102.089L144.408 102.069L144.399 100.069L140.401 100.089L140.411 102.089ZM150.404 102.04L154.402 102.02L154.392 100.02L150.394 100.04L150.404 102.04ZM160.398 101.99L164.395 101.97L164.385 99.9703L160.388 99.9901L160.398 101.99ZM170.391 101.941L174.388 101.921L174.378 99.9207L170.381 99.9405L170.391 101.941ZM180.384 101.891L184.381 101.871L184.371 99.8711L180.374 99.891L180.384 101.891ZM190.377 101.841L194.374 101.822L194.365 99.8215L190.367 99.8414L190.377 101.841ZM200.37 101.792L202.369 101.782L202.359 99.7819L200.36 99.7918L200.37 101.792ZM202.369 101.782C203.288 101.777 204.193 101.676 205.071 101.485L204.645 99.5304C203.902 99.6921 203.137 99.778 202.359 99.7819L202.369 101.782ZM212.009 97.4329C212.607 96.7621 213.14 96.024 213.595 95.2261L211.858 94.2347C211.472 94.9103 211.021 95.5347 210.516 96.1021L212.009 97.4329ZM213.595 95.2261L213.861 94.7602L212.124 93.7688L211.858 94.2347L213.595 95.2261ZM214.659 93.3627L214.924 92.8968L213.187 91.9054L212.922 92.3713L214.659 93.3627ZM214.924 92.8968L215.877 91.2275L214.14 90.2361L213.187 91.9054L214.924 92.8968ZM218.82 84.0547L208.848 89.8777L218.877 95.6016L218.82 84.0547ZM214.056 92.4011L214.924 92.8968L214.924 92.8968L214.056 92.4011ZM212.726 94.7304L211.858 94.2347L211.858 94.2347L212.726 94.7304ZM132.417 102.129L134.415 102.119L134.405 100.119L132.407 100.129L132.417 102.129ZM140.411 102.089L144.408 102.069L144.399 100.069L140.401 100.089L140.411 102.089ZM150.404 102.04L154.402 102.02L154.392 100.02L150.394 100.04L150.404 102.04ZM160.398 101.99L164.395 101.97L164.385 99.9703L160.388 99.9901L160.398 101.99ZM170.391 101.941L174.388 101.921L174.378 99.9207L170.381 99.9405L170.391 101.941ZM180.384 101.891L184.381 101.871L184.371 99.8711L180.374 99.891L180.384 101.891ZM190.377 101.841L194.374 101.822L194.365 99.8215L190.367 99.8414L190.377 101.841ZM200.37 101.792L202.369 101.782L202.359 99.7819L200.36 99.7918L200.37 101.792ZM202.369 101.782C203.288 101.777 204.193 101.676 205.071 101.485L204.645 99.5304C203.902 99.6921 203.137 99.778 202.359 99.7819L202.369 101.782ZM212.009 97.4329C212.607 96.7621 213.14 96.024 213.595 95.2261L211.858 94.2347C211.472 94.9103 211.021 95.5347 210.516 96.1021L212.009 97.4329ZM213.595 95.2261L213.861 94.7602L212.124 93.7688L211.858 94.2347L213.595 95.2261ZM214.659 93.3627L214.924 92.8968L213.187 91.9054L212.922 92.3713L214.659 93.3627ZM214.924 92.8968L215.877 91.2275L214.14 90.2361L213.187 91.9054L214.924 92.8968Z" fill="#FF6849" fill-opacity="0.25"/>
<path d="M240.582 108.591L230.582 102.818L230.582 114.365L240.582 108.591ZM62.2498 107.591L52.2498 102.818L52.2498 114.365L62.2498 109.591L62.2498 107.591ZM232.652 107.591L228.687 107.591L228.687 109.591L232.652 109.591L232.652 107.591ZM222.74 107.591L218.775 107.591L218.775 109.591L222.74 109.591L222.74 107.591ZM212.828 107.591L208.863 107.591L208.863 109.591L212.828 109.591L212.828 107.591ZM202.915 107.591L198.95 107.591L198.95 109.591L202.915 109.591L202.915 107.591ZM193.003 107.591L189.038 107.591L189.038 109.591L193.003 109.591L193.003 107.591ZM183.091 107.591L179.126 107.591L179.126 109.591L183.091 109.591L183.091 107.591ZM173.179 107.591L169.214 107.591L169.214 109.591L173.179 109.591L173.179 107.591ZM163.267 107.591L159.302 107.591L159.302 109.591L163.267 109.591L163.267 107.591ZM153.354 107.591L149.389 107.591L149.389 109.591L153.354 109.591L153.354 107.591ZM143.442 107.591L139.477 107.591L139.477 109.591L143.442 109.591L143.442 107.591ZM133.53 107.591L129.565 107.591L129.565 109.591L133.53 109.591L133.53 107.591ZM123.618 107.591L119.653 107.591L119.653 109.591L123.618 109.591L123.618 107.591ZM113.705 107.591L109.741 107.591L109.741 109.591L113.705 109.591L113.705 107.591ZM103.793 107.591L99.8284 107.591L99.8284 109.591L103.793 109.591L103.793 107.591ZM93.881 107.591L89.9162 107.591L89.9162 109.591L93.881 109.591L93.881 107.591ZM83.9688 107.591L80.0039 107.591L80.0039 109.591L83.9688 109.591L83.9688 107.591ZM74.0566 107.591L70.0917 107.591L70.0917 109.591L74.0566 109.591L74.0566 107.591ZM64.1444 107.591L60.1795 107.591L60.1795 109.591L64.1444 109.591L64.1444 107.591ZM240.582 108.591L230.582 102.818L230.582 114.365L240.582 108.591ZM62.2498 107.591L52.2498 102.818L52.2498 114.365L62.2498 109.591L62.2498 107.591ZM232.652 107.591L228.687 107.591L228.687 109.591L232.652 109.591L232.652 107.591ZM222.74 107.591L218.775 107.591L218.775 109.591L222.74 109.591L222.74 107.591ZM212.828 107.591L208.863 107.591L208.863 109.591L212.828 109.591L212.828 107.591ZM202.915 107.591L198.95 107.591L198.95 109.591L202.915 109.591L202.915 107.591ZM193.003 107.591L189.038 107.591L189.038 109.591L193.003 109.591L193.003 107.591ZM183.091 107.591L179.126 107.591L179.126 109.591L183.091 109.591L183.091 107.591ZM173.179 107.591L169.214 107.591L169.214 109.591L173.179 109.591L173.179 107.591ZM163.267 107.591L159.302 107.591L159.302 109.591L163.267 109.591L163.267 107.591ZM153.354 107.591L149.389 107.591L149.389 109.591L153.354 109.591L153.354 107.591ZM143.442 107.591L139.477 107.591L139.477 109.591L143.442 109.591L143.442 107.591ZM133.53 107.591L129.565 107.591L129.565 109.591L133.53 109.591L133.53 107.591ZM123.618 107.591L119.653 107.591L119.653 109.591L123.618 109.591L123.618 107.591ZM113.705 107.591L109.741 107.591L109.741 109.591L113.705 109.591L113.705 107.591ZM103.793 107.591L99.8284 107.591L99.8284 109.591L103.793 109.591L103.793 107.591ZM93.881 107.591L89.9162 107.591L89.9162 109.591L93.881 109.591L93.881 107.591ZM83.9688 107.591L80.0039 107.591L80.0039 109.591L83.9688 109.591L83.9688 107.591ZM74.0566 107.591L70.0917 107.591L70.0917 109.591L74.0566 109.591L74.0566 107.591ZM64.1444 107.591L60.1795 107.591L60.1795 109.591L64.1444 109.591L64.1444 107.591Z" fill="#FF6849" fill-opacity="0.25"/>
<path d="M100.842 127.586C97.7478 125.799 95.8418 122.498 95.8418 118.925L95.8418 90.4723C95.8418 86.8997 97.7478 83.5984 100.842 81.8121L125.483 67.5856C128.577 65.7992 132.389 65.7993 135.483 67.5856L160.124 81.8121C163.218 83.5984 165.124 86.8997 165.124 90.4723L165.124 118.925C165.124 122.498 163.218 125.799 160.124 127.586L135.483 141.812C132.389 143.598 128.577 143.598 125.483 141.812L100.842 127.586Z" fill="#FF6849"/>
<path d="M111.59 103.696V125.012H117.869V122.461C113.86 118.784 111.586 110.745 111.586 103.682" fill="white"/>
<path d="M149.809 103.696V125.012H143.526V122.461C147.535 118.784 149.809 110.745 149.809 103.682" fill="white"/>
<path d="M143.526 88.0608V104.483C143.526 109.683 142.025 113.71 139.299 116.254V100.018H132.812V119.184C132.108 119.286 131.398 119.338 130.687 119.341C129.977 119.338 129.268 119.286 128.566 119.184V82.2734H122.09V116.254C119.364 113.703 117.862 109.694 117.862 104.483V93.972H111.579V104.483C111.579 117.282 119.079 125.555 130.687 125.555C142.294 125.555 149.798 117.282 149.798 104.483V88.0608H143.526Z" fill="white"/>
<path d="M251.007 132.595C247.913 130.809 246.007 127.508 246.007 123.935L246.007 95.4821C246.007 91.9094 247.913 88.6082 251.007 86.8218L275.648 72.5953C278.742 70.809 282.554 70.809 285.648 72.5953L310.289 86.8218C313.383 88.6082 315.289 91.9094 315.289 95.4821L315.289 123.935C315.289 127.508 313.383 130.809 310.289 132.595L285.648 146.822C282.554 148.608 278.742 148.608 275.648 146.822L251.007 132.595Z" fill="#FCFCFC"/>
<path d="M286.812 102.462L289.947 99.3424L290.156 98.0287C284.443 92.8588 275.361 93.445 270.211 99.2518C268.78 100.865 267.719 102.875 267.153 104.952L268.276 104.794L274.546 103.765L275.03 103.273C277.819 100.224 282.535 99.8141 285.756 102.408L286.812 102.462Z" fill="#EA4335"/>
<path d="M294.413 104.86C293.693 102.219 292.213 99.8448 290.156 98.0287L285.756 102.408C287.614 103.919 288.672 106.195 288.627 108.582V109.359C290.79 109.359 292.543 111.104 292.543 113.256C292.543 115.409 290.79 117.11 288.627 117.11H280.783L280.013 117.942V122.616L280.783 123.35H288.627C294.253 123.394 298.849 118.934 298.893 113.336C298.919 109.942 297.238 106.761 294.413 104.86Z" fill="#4285F4"/>
<path d="M272.951 123.35L280.783 123.35V117.11L272.951 117.11C272.393 117.11 271.852 116.99 271.345 116.76L270.234 117.099L267.077 120.219L266.802 121.281C268.572 122.611 270.732 123.36 272.951 123.35Z" fill="#34A853"/>
<path d="M272.951 103.108C267.325 103.142 262.792 107.707 262.825 113.306C262.844 116.432 264.311 119.375 266.802 121.281L271.345 116.76C269.374 115.873 268.498 113.565 269.388 111.603C270.279 109.642 272.599 108.77 274.57 109.656C275.438 110.047 276.134 110.739 276.526 111.603L281.07 107.082C279.136 104.567 276.133 103.097 272.951 103.108Z" fill="#FBBC05"/>
<path d="M210.731 196.146C207.637 194.36 205.731 191.059 205.731 187.486L205.731 159.033C205.731 155.46 207.637 152.159 210.731 150.373L235.372 136.146C238.466 134.36 242.278 134.36 245.372 136.146L270.013 150.373C273.107 152.159 275.013 155.46 275.013 159.033L275.013 187.486C275.013 191.059 273.107 194.36 270.013 196.146L245.372 210.373C242.278 212.159 238.466 212.159 235.372 210.373L210.731 196.146Z" fill="#FCFCFC"/>
<path d="M234.251 155.094H244.904L233.845 187.859C233.732 188.195 233.515 188.488 233.227 188.695C232.938 188.903 232.592 189.014 232.236 189.014H223.946C223.677 189.014 223.411 188.95 223.172 188.827C222.932 188.704 222.725 188.526 222.568 188.307C222.411 188.089 222.309 187.836 222.269 187.57C222.229 187.303 222.253 187.031 222.339 186.776L232.642 156.249C232.755 155.913 232.972 155.62 233.26 155.413C233.549 155.205 233.896 155.094 234.251 155.094Z" fill="url(#paint0_linear_3887_14943)"/>
<path d="M249.731 177.07H232.839C232.682 177.07 232.528 177.117 232.398 177.206C232.269 177.294 232.168 177.419 232.111 177.565C232.053 177.711 232.041 177.871 232.075 178.025C232.11 178.178 232.19 178.317 232.305 178.424L243.16 188.555C243.476 188.85 243.892 189.014 244.324 189.014H253.889L249.731 177.07Z" fill="#619DFF"/>
<path d="M234.251 155.094C233.892 155.092 233.542 155.206 233.251 155.418C232.961 155.63 232.746 155.929 232.638 156.272L222.352 186.748C222.26 187.004 222.231 187.278 222.268 187.548C222.304 187.818 222.405 188.074 222.562 188.297C222.719 188.519 222.927 188.7 223.169 188.825C223.411 188.95 223.679 189.014 223.951 189.014H232.455C232.772 188.957 233.068 188.817 233.313 188.609C233.558 188.401 233.743 188.131 233.85 187.827L235.901 181.782L243.229 188.616C243.536 188.87 243.921 189.01 244.319 189.014H253.849L249.669 177.07L237.485 177.073L244.942 155.094H234.251Z" fill="url(#paint1_linear_3887_14943)"/>
<path d="M247.858 156.247C247.744 155.911 247.528 155.619 247.24 155.412C246.952 155.205 246.606 155.094 246.251 155.094H234.379C234.734 155.094 235.08 155.205 235.368 155.412C235.656 155.619 235.872 155.911 235.986 156.247L246.289 186.775C246.375 187.031 246.399 187.303 246.359 187.569C246.32 187.835 246.217 188.088 246.06 188.307C245.903 188.526 245.696 188.704 245.456 188.827C245.217 188.95 244.951 189.014 244.682 189.014H256.554C256.824 189.014 257.089 188.95 257.329 188.827C257.568 188.704 257.775 188.526 257.932 188.307C258.089 188.088 258.192 187.835 258.231 187.569C258.271 187.303 258.247 187.031 258.161 186.775L247.858 156.247Z" fill="url(#paint2_linear_3887_14943)"/>
<path d="M210.73 69.4938C207.636 67.7075 205.73 64.4062 205.73 60.8335L205.73 32.3805C205.73 28.8079 207.636 25.5066 210.73 23.7203L235.371 9.49378C238.465 7.70745 242.277 7.70745 245.371 9.49378L270.013 23.7203C273.107 25.5066 275.012 28.8079 275.013 32.3805L275.012 60.8335C275.013 64.4062 273.107 67.7075 270.013 69.4938L245.371 83.7203C242.277 85.5066 238.465 85.5066 235.371 83.7203L210.73 69.4938Z" fill="#FCFCFC"/>
<path d="M232.713 42.8685C232.713 43.3124 232.761 43.6722 232.845 43.9361C232.941 44.2001 233.06 44.488 233.228 44.7998C233.288 44.8958 233.312 44.9918 233.312 45.0758C233.312 45.1957 233.24 45.3157 233.084 45.4356L232.329 45.9395C232.221 46.0114 232.113 46.0474 232.017 46.0474C231.897 46.0474 231.777 45.9874 231.657 45.8795C231.489 45.6995 231.345 45.5076 231.225 45.3157C231.105 45.1117 230.985 44.8838 230.853 44.6079C229.918 45.7115 228.742 46.2634 227.326 46.2634C226.319 46.2634 225.515 45.9755 224.927 45.3996C224.339 44.8238 224.04 44.0561 224.04 43.0964C224.04 42.0768 224.399 41.2491 225.131 40.6253C225.863 40.0015 226.835 39.6896 228.07 39.6896C228.478 39.6896 228.898 39.7256 229.342 39.7855C229.786 39.8455 230.241 39.9415 230.721 40.0495V39.1738C230.721 38.2621 230.529 37.6263 230.157 37.2544C229.774 36.8825 229.126 36.7026 228.202 36.7026C227.782 36.7026 227.35 36.7506 226.907 36.8585C226.463 36.9665 226.031 37.0985 225.611 37.2664C225.419 37.3504 225.275 37.3984 225.191 37.4223C225.107 37.4463 225.047 37.4583 224.999 37.4583C224.831 37.4583 224.747 37.3384 224.747 37.0865V36.4987C224.747 36.3067 224.771 36.1628 224.831 36.0788C224.891 35.9948 224.999 35.9109 225.167 35.8269C225.587 35.611 226.091 35.431 226.679 35.2871C227.266 35.1311 227.89 35.0591 228.55 35.0591C229.978 35.0591 231.021 35.383 231.693 36.0308C232.353 36.6786 232.689 37.6623 232.689 38.9818V42.8685H232.713ZM227.842 44.6919C228.238 44.6919 228.646 44.6199 229.078 44.476C229.51 44.332 229.894 44.0681 230.217 43.7082C230.409 43.4803 230.553 43.2284 230.625 42.9405C230.697 42.6526 230.745 42.3047 230.745 41.8968V41.393C230.397 41.309 230.026 41.2371 229.642 41.1891C229.258 41.1411 228.886 41.1171 228.514 41.1171C227.71 41.1171 227.123 41.273 226.727 41.5969C226.331 41.9208 226.139 42.3767 226.139 42.9765C226.139 43.5403 226.283 43.9601 226.583 44.248C226.871 44.5479 227.29 44.6919 227.842 44.6919ZM237.475 45.9874C237.259 45.9874 237.115 45.9515 237.019 45.8675C236.923 45.7955 236.839 45.6276 236.767 45.3996L233.948 36.1268C233.876 35.8869 233.84 35.7309 233.84 35.6469C233.84 35.455 233.936 35.3471 234.128 35.3471H235.304C235.532 35.3471 235.688 35.383 235.772 35.467C235.868 35.539 235.94 35.7069 236.011 35.9349L238.027 43.8762L239.898 35.9349C239.958 35.6949 240.03 35.539 240.126 35.467C240.222 35.395 240.39 35.3471 240.606 35.3471H241.566C241.794 35.3471 241.949 35.383 242.045 35.467C242.141 35.539 242.225 35.7069 242.273 35.9349L244.169 43.9721L246.244 35.9349C246.316 35.6949 246.4 35.539 246.484 35.467C246.58 35.395 246.736 35.3471 246.952 35.3471H248.067C248.259 35.3471 248.367 35.443 248.367 35.6469C248.367 35.7069 248.355 35.7669 248.343 35.8389C248.331 35.9109 248.307 36.0068 248.259 36.1388L245.368 45.4116C245.296 45.6516 245.212 45.8075 245.116 45.8795C245.02 45.9515 244.864 45.9994 244.661 45.9994H243.629C243.401 45.9994 243.245 45.9635 243.149 45.8795C243.053 45.7955 242.969 45.6396 242.921 45.3996L241.062 37.6623L239.214 45.3877C239.154 45.6276 239.082 45.7835 238.986 45.8675C238.891 45.9515 238.723 45.9874 238.507 45.9874H237.475ZM252.89 46.3113C252.266 46.3113 251.642 46.2394 251.042 46.0954C250.443 45.9515 249.975 45.7955 249.663 45.6156C249.471 45.5076 249.339 45.3877 249.291 45.2797C249.243 45.1717 249.219 45.0518 249.219 44.9438V44.332C249.219 44.0801 249.315 43.9601 249.495 43.9601C249.567 43.9601 249.639 43.9721 249.711 43.9961C249.783 44.0201 249.891 44.0681 250.011 44.1161C250.419 44.296 250.862 44.44 251.33 44.5359C251.81 44.6319 252.278 44.6799 252.758 44.6799C253.514 44.6799 254.101 44.5479 254.509 44.284C254.917 44.0201 255.133 43.6362 255.133 43.1444C255.133 42.8085 255.025 42.5326 254.809 42.3047C254.593 42.0768 254.185 41.8728 253.598 41.6809L251.858 41.1411C250.982 40.8652 250.335 40.4573 249.939 39.9175C249.543 39.3897 249.339 38.8019 249.339 38.1781C249.339 37.6743 249.447 37.2304 249.663 36.8465C249.879 36.4627 250.167 36.1268 250.527 35.8629C250.886 35.587 251.294 35.383 251.774 35.2391C252.254 35.0951 252.758 35.0352 253.286 35.0352C253.55 35.0352 253.825 35.0472 254.089 35.0831C254.365 35.1191 254.617 35.1671 254.869 35.2151C255.109 35.2751 255.337 35.3351 255.553 35.407C255.769 35.479 255.937 35.551 256.057 35.623C256.225 35.7189 256.345 35.8149 256.417 35.9229C256.489 36.0188 256.525 36.1508 256.525 36.3187V36.8825C256.525 37.1344 256.429 37.2664 256.249 37.2664C256.153 37.2664 255.997 37.2184 255.793 37.1224C255.109 36.8106 254.341 36.6546 253.49 36.6546C252.806 36.6546 252.266 36.7626 251.894 36.9905C251.522 37.2184 251.33 37.5663 251.33 38.0581C251.33 38.394 251.45 38.6819 251.69 38.9098C251.93 39.1378 252.374 39.3657 253.01 39.5696L254.713 40.1094C255.577 40.3853 256.201 40.7692 256.573 41.261C256.944 41.7529 257.124 42.3167 257.124 42.9405C257.124 43.4563 257.016 43.9241 256.812 44.332C256.597 44.7399 256.309 45.0997 255.937 45.3877C255.565 45.6875 255.121 45.9035 254.605 46.0594C254.065 46.2274 253.502 46.3113 252.89 46.3113Z" fill="#252F3E"/>
<path fill-rule="evenodd" clip-rule="evenodd" d="M255.157 52.1412C251.21 55.0562 245.476 56.6036 240.546 56.6036C233.636 56.6036 227.411 54.0485 222.708 49.802C222.336 49.4661 222.672 49.0102 223.116 49.2741C228.202 52.2251 234.476 54.0125 240.966 54.0125C245.344 54.0125 250.155 53.1008 254.581 51.2295C255.241 50.9296 255.805 51.6613 255.157 52.1412Z" fill="#FF9900"/>
<path fill-rule="evenodd" clip-rule="evenodd" d="M256.799 50.2688C256.296 49.621 253.465 49.9569 252.181 50.1128C251.797 50.1608 251.737 49.8249 252.085 49.573C254.34 47.9896 258.047 48.4454 258.479 48.9732C258.911 49.513 258.359 53.2198 256.248 54.9952C255.924 55.2711 255.612 55.1271 255.756 54.7673C256.236 53.5797 257.303 50.9046 256.799 50.2688Z" fill="#FF9900"/>
<defs>
<linearGradient id="paint0_linear_3887_14943" x1="238.134" y1="157.608" x2="227.071" y2="190.29" gradientUnits="userSpaceOnUse">
<stop stop-color="#114A8B"/>
<stop offset="1" stop-color="#0669BC"/>
</linearGradient>
<linearGradient id="paint1_linear_3887_14943" x1="241.59" y1="172.838" x2="239.031" y2="173.703" gradientUnits="userSpaceOnUse">
<stop stop-opacity="0.3"/>
<stop offset="0.071" stop-opacity="0.2"/>
<stop offset="0.321" stop-opacity="0.1"/>
<stop offset="0.623" stop-opacity="0.05"/>
<stop offset="1" stop-opacity="0"/>
</linearGradient>
<linearGradient id="paint2_linear_3887_14943" x1="240.183" y1="156.654" x2="252.327" y2="189.007" gradientUnits="userSpaceOnUse">
<stop stop-color="#3CCBF4"/>
<stop offset="1" stop-color="#2892DF"/>
</linearGradient>
</defs>
</svg>
