<svg width="105" height="104" viewBox="0 0 105 104" fill="none" xmlns="http://www.w3.org/2000/svg">
<path d="M0.833984 8C0.833984 3.85786 4.19185 0.5 8.33398 0.5H96.334C100.476 0.5 103.834 3.85786 103.834 8V96C103.834 100.142 100.476 103.5 96.334 103.5H8.33398C4.19185 103.5 0.833984 100.142 0.833984 96V8Z" stroke="#DDDFDA"/>
<path fill-rule="evenodd" clip-rule="evenodd" d="M48.0717 40.0645H38.6935C36.6473 40.0645 35.2832 41.4286 35.2832 43.4747V60.526H69.3636V55.4462C67.7621 55.9763 66.0499 56.2632 64.2704 56.2632C55.3241 56.2632 48.0717 49.0107 48.0717 40.0645Z" fill="#F9F8F6"/>
<path d="M30.4592 70.1737L35.2834 60.5254H69.3859L74.2101 70.1737C74.4017 70.5567 74.5013 70.9792 74.5013 71.4075C74.5013 72.9312 73.2661 74.1664 71.7424 74.1664H32.9269C31.4032 74.1664 30.168 72.9312 30.168 71.4075C30.168 70.9792 30.2677 70.5567 30.4592 70.1737Z" fill="#FFE9E4"/>
<path d="M30.4592 70.1737L35.2834 60.5254H69.3859L74.2101 70.1737C74.4017 70.5567 74.5013 70.9792 74.5013 71.4075C74.5013 72.9312 73.2661 74.1664 71.7424 74.1664H32.9269C31.4032 74.1664 30.168 72.9312 30.168 71.4075C30.168 70.9792 30.2677 70.5567 30.4592 70.1737Z" stroke="#FF6849" stroke-width="1.5" stroke-linecap="round" stroke-linejoin="round"/>
<path d="M46.3665 40.0645H38.6935C36.81 40.0645 35.2832 41.5913 35.2832 43.4747V60.526H69.3858V56.6895" stroke="#FF6849" stroke-width="1.5" stroke-linecap="round" stroke-linejoin="round"/>
<path d="M64.2698 50.2955C69.9203 50.2955 74.5006 45.715 74.5006 40.0648C74.5006 34.4145 69.9203 29.834 64.2698 29.834C58.6195 29.834 54.0391 34.4145 54.0391 40.0648C54.0391 45.715 58.6195 50.2955 64.2698 50.2955Z" fill="#FFE9E4"/>
<path d="M64.2698 50.2955C69.9203 50.2955 74.5006 45.715 74.5006 40.0648C74.5006 34.4145 69.9203 29.834 64.2698 29.834C58.6195 29.834 54.0391 34.4145 54.0391 40.0648C54.0391 45.715 58.6195 50.2955 64.2698 50.2955Z" stroke="#FF6849" stroke-width="1.5" stroke-linecap="round" stroke-linejoin="round"/>
<path d="M64.2715 36.6543V40.9171L67.6817 41.7697" stroke="#FF6849" stroke-width="1.5" stroke-linecap="round" stroke-linejoin="round"/>
</svg>
