<svg width="104" height="104" viewBox="0 0 104 104" fill="none" xmlns="http://www.w3.org/2000/svg">
<path d="M0.5 8C0.5 3.85786 3.85786 0.5 8 0.5H96C100.142 0.5 103.5 3.85786 103.5 8V96C103.5 100.142 100.142 103.5 96 103.5H8C3.85786 103.5 0.5 100.142 0.5 96V8Z" stroke="#DDDFDA"/>
<path d="M51.9993 75.3327C64.8862 75.3327 75.3327 64.8862 75.3327 51.9993C75.3327 39.1127 64.8862 28.666 51.9993 28.666C39.1127 28.666 28.666 39.1127 28.666 51.9993C28.666 64.8862 39.1127 75.3327 51.9993 75.3327Z" fill="#FFE9E4"/>
<path d="M28.666 51.9994C28.666 39.1127 39.1127 28.666 51.9994 28.666C53.2201 28.666 54.4189 28.7598 55.5891 28.9404V36.7428C55.5891 38.4089 54.9273 40.0067 53.7491 41.1848C52.571 42.3629 50.9732 43.0248 49.307 43.0248C47.6409 43.0248 46.0431 43.6867 44.865 44.8648C43.6868 46.0429 43.025 47.6408 43.025 49.3069V54.6915C43.025 56.3576 42.3632 57.9554 41.185 59.1335C40.0069 60.3117 38.409 60.9735 36.7429 60.9735H30.4542C29.3022 58.2109 28.666 55.1794 28.666 51.9994Z" fill="#F9F8F6"/>
<path d="M75.3334 51.641C73.536 50.7084 71.543 50.2162 69.518 50.2051H61.8719C60.2058 50.2051 58.6079 50.8669 57.4298 52.045C56.2517 53.2232 55.5898 54.821 55.5898 56.4871C55.5898 58.1532 56.2517 59.7511 57.4298 60.9292C58.6079 62.1073 60.2058 62.7692 61.8719 62.7692C63.0619 62.7692 64.2034 63.242 65.0449 64.0834C65.8863 64.9248 66.3591 66.0664 66.3591 67.2564V70.3931C71.8219 66.1227 75.3334 59.4714 75.3334 51.9999V51.641Z" fill="#F9F8F6"/>
<path d="M51.9993 75.3327C64.8862 75.3327 75.3327 64.8862 75.3327 51.9993C75.3327 39.1127 64.8862 28.666 51.9993 28.666C39.1127 28.666 28.666 39.1127 28.666 51.9993C28.666 64.8862 39.1127 75.3327 51.9993 75.3327Z" stroke="#FF6849" stroke-width="1.5" stroke-linecap="round" stroke-linejoin="round"/>
<path d="M30.4609 60.9724H36.743C38.4091 60.9724 40.007 60.3106 41.1851 59.1324C42.3632 57.9544 43.025 56.3565 43.025 54.6904V49.3058C43.025 47.6397 43.6869 46.0418 44.865 44.8637C46.0431 43.6856 47.641 43.0237 49.3071 43.0237C50.9732 43.0237 52.5711 42.3618 53.7492 41.1837C54.9273 40.0056 55.5891 38.4078 55.5891 36.7417V28.916" stroke="#FF6849" stroke-width="1.5" stroke-linecap="round" stroke-linejoin="round"/>
<path d="M75.3334 51.641C73.536 50.7084 71.543 50.2162 69.518 50.2051H61.8719C60.2058 50.2051 58.6079 50.8669 57.4298 52.045C56.2517 53.2232 55.5898 54.821 55.5898 56.4871C55.5898 58.1532 56.2517 59.7511 57.4298 60.9292C58.6079 62.1073 60.2058 62.7692 61.8719 62.7692C63.0619 62.7692 64.2034 63.242 65.0449 64.0834C65.8863 64.9248 66.3591 66.0664 66.3591 67.2564V70.3794" stroke="#FF6849" stroke-width="1.5" stroke-linecap="round" stroke-linejoin="round"/>
</svg>
