<svg width="104" height="104" viewBox="0 0 104 104" fill="none" xmlns="http://www.w3.org/2000/svg">
<path d="M0.5 8C0.5 3.85786 3.85786 0.5 8 0.5H96C100.142 0.5 103.5 3.85786 103.5 8V96C103.5 100.142 100.142 103.5 96 103.5H8C3.85786 103.5 0.5 100.142 0.5 96V8Z" stroke="#DDDFDA"/>
<path d="M52.0003 47.3817V61.2359L51.8194 61.266C46.9906 62.0708 44.8589 67.8135 47.9928 71.5741L50.1531 74.1665H74.1669V67.0473C74.1669 61.7974 69.9109 57.5415 64.6611 57.5415H61.2364V47.3817C61.2364 44.8312 59.1689 42.7637 56.6184 42.7637C54.0679 42.7637 52.0003 44.8312 52.0003 47.3817Z" fill="#FFE9E4"/>
<path d="M74.1669 74.1665V67.0473C74.1669 61.7974 69.9109 57.5415 64.6611 57.5415H61.2364V47.3817C61.2364 44.8312 59.1689 42.7637 56.6184 42.7637C54.0679 42.7637 52.0003 44.8312 52.0003 47.3817V61.2359L51.8194 61.266C46.9906 62.0708 44.8589 67.8135 47.9928 71.5741L50.1531 74.1665" stroke="#FF6849" stroke-width="1.5" stroke-linecap="round" stroke-linejoin="round"/>
<path d="M31.6812 33.5284C32.7014 33.5284 33.5284 32.7014 33.5284 31.6812C33.5284 30.661 32.7014 29.834 31.6812 29.834C30.661 29.834 29.834 30.661 29.834 31.6812C29.834 32.7014 30.661 33.5284 31.6812 33.5284Z" stroke="#FF6849" stroke-width="1.5" stroke-linecap="round" stroke-linejoin="round"/>
<path d="M44.6109 33.5284C45.6311 33.5284 46.4581 32.7014 46.4581 31.6812C46.4581 30.661 45.6311 29.834 44.6109 29.834C43.5907 29.834 42.7637 30.661 42.7637 31.6812C42.7637 32.7014 43.5907 33.5284 44.6109 33.5284Z" stroke="#FF6849" stroke-width="1.5" stroke-linecap="round" stroke-linejoin="round"/>
<path d="M57.5425 33.5284C58.5627 33.5284 59.3898 32.7014 59.3898 31.6812C59.3898 30.661 58.5627 29.834 57.5425 29.834C56.5224 29.834 55.6953 30.661 55.6953 31.6812C55.6953 32.7014 56.5224 33.5284 57.5425 33.5284Z" stroke="#FF6849" stroke-width="1.5" stroke-linecap="round" stroke-linejoin="round"/>
<path d="M31.6812 46.4581C32.7014 46.4581 33.5284 45.6311 33.5284 44.6109C33.5284 43.5907 32.7014 42.7637 31.6812 42.7637C30.661 42.7637 29.834 43.5907 29.834 44.6109C29.834 45.6311 30.661 46.4581 31.6812 46.4581Z" stroke="#FF6849" stroke-width="1.5" stroke-linecap="round" stroke-linejoin="round"/>
<path d="M44.6109 46.4581C45.6311 46.4581 46.4581 45.6311 46.4581 44.6109C46.4581 43.5907 45.6311 42.7637 44.6109 42.7637C43.5907 42.7637 42.7637 43.5907 42.7637 44.6109C42.7637 45.6311 43.5907 46.4581 44.6109 46.4581Z" stroke="#FF6849" stroke-width="1.5" stroke-linecap="round" stroke-linejoin="round"/>
<path d="M31.6812 59.3898C32.7014 59.3898 33.5284 58.5627 33.5284 57.5425C33.5284 56.5224 32.7014 55.6953 31.6812 55.6953C30.661 55.6953 29.834 56.5224 29.834 57.5425C29.834 58.5627 30.661 59.3898 31.6812 59.3898Z" stroke="#FF6849" stroke-width="1.5" stroke-linecap="round" stroke-linejoin="round"/>
</svg>
