<svg width="105" height="104" viewBox="0 0 105 104" fill="none" xmlns="http://www.w3.org/2000/svg">
<path d="M1.16602 8C1.16602 3.85786 4.52388 0.5 8.66602 0.5H96.666C100.808 0.5 104.166 3.85786 104.166 8V96C104.166 100.142 100.808 103.5 96.666 103.5H8.66602C4.52388 103.5 1.16602 100.142 1.16602 96V8Z" stroke="#DDDFDA"/>
<path fill-rule="evenodd" clip-rule="evenodd" d="M75.9426 75.2766C76.6458 74.5735 77.041 73.6195 77.041 72.625V40.75L63.916 27.625H39.541C38.5464 27.625 37.5926 28.0201 36.8894 28.7233C36.1861 29.4266 35.791 30.3804 35.791 31.375V48.3442L38.6506 45.4846C39.8813 44.2539 41.5505 43.5625 43.291 43.5625H54.541C58.1654 43.5625 61.1035 46.5006 61.1035 50.125V61.375C61.1035 63.1155 60.4121 64.7845 59.1814 66.0153L48.8218 76.375H73.291C74.2855 76.375 75.2395 75.9798 75.9426 75.2766Z" fill="#FFE9E4"/>
<path d="M35.791 46.375V31.375C35.791 30.3804 36.1861 29.4266 36.8894 28.7233C37.5926 28.0201 38.5464 27.625 39.541 27.625H63.916L77.041 40.75V72.625C77.041 73.6195 76.6458 74.5735 75.9426 75.2766C75.2395 75.9798 74.2855 76.375 73.291 76.375H50.791" stroke="#FF6849" stroke-width="1.5" stroke-linecap="round" stroke-linejoin="round"/>
<path d="M39.541 76.375L28.291 65.125L43.291 50.125H54.541V61.375L39.541 76.375Z" fill="#F9F8F6"/>
<path d="M47.041 58.5625C46.5233 58.5625 46.1035 58.1428 46.1035 57.625C46.1035 57.1072 46.5233 56.6875 47.041 56.6875" stroke="#FF6849" stroke-width="1.5" stroke-linecap="round" stroke-linejoin="round"/>
<path d="M47.041 58.5625C47.5588 58.5625 47.9785 58.1428 47.9785 57.625C47.9785 57.1072 47.5588 56.6875 47.041 56.6875" stroke="#FF6849" stroke-width="1.5" stroke-linecap="round" stroke-linejoin="round"/>
<path d="M39.541 76.375L28.291 65.125L43.291 50.125H54.541V61.375L39.541 76.375Z" stroke="#FF6849" stroke-width="1.5" stroke-linecap="round" stroke-linejoin="round"/>
</svg>
