<svg width="105" height="104" viewBox="0 0 105 104" fill="none" xmlns="http://www.w3.org/2000/svg">
<path d="M1.16602 8C1.16602 3.85786 4.52388 0.5 8.66602 0.5H96.666C100.808 0.5 104.166 3.85786 104.166 8V96C104.166 100.142 100.808 103.5 96.666 103.5H8.66602C4.52388 103.5 1.16602 100.142 1.16602 96V8Z" stroke="#E7E7E7"/>
<path fill-rule="evenodd" clip-rule="evenodd" d="M69.541 35.5742C69.541 39.9649 60.3069 43.5242 48.916 43.5242C37.5251 43.5242 28.291 39.9649 28.291 35.5742V60.9242C28.291 64.9228 35.8909 68.2048 45.9243 68.7838L56.2713 50.1241C57.6903 47.1855 60.7079 45.2641 64.0075 45.2641C66.0689 45.2641 68.0208 46.0143 69.541 47.2941V35.5742Z" fill="#FFE9E4"/>
<path d="M48.916 43.525C60.3069 43.525 69.541 39.9656 69.541 35.575C69.541 31.1843 60.3069 27.625 48.916 27.625C37.5251 27.625 28.291 31.1843 28.291 35.575C28.291 39.9656 37.5251 43.525 48.916 43.525Z" fill="#F9F8F6"/>
<path d="M48.916 43.525C60.3069 43.525 69.541 39.9656 69.541 35.575C69.541 31.1843 60.3069 27.625 48.916 27.625C37.5251 27.625 28.291 31.1843 28.291 35.575C28.291 39.9656 37.5251 43.525 48.916 43.525Z" stroke="#FF6849" stroke-width="1.5" stroke-linecap="round" stroke-linejoin="round"/>
<path d="M28.291 35.5742V60.9242C28.291 64.696 35.105 67.8542 44.2468 68.6695" stroke="#FF6849" stroke-width="1.5" stroke-linecap="round" stroke-linejoin="round"/>
<path d="M28.291 48.25C28.291 52.6407 37.5251 56.2 48.916 56.2C49.5461 56.2 50.1695 56.1891 50.7852 56.1678" stroke="#FF6849" stroke-width="1.5" stroke-linecap="round" stroke-linejoin="round"/>
<path d="M76.7606 73.0382C76.9444 73.378 77.0404 73.7582 77.0404 74.1445C77.0404 74.5307 76.9444 74.9109 76.7606 75.2507C76.5878 75.5893 76.3245 75.8736 76.0005 76.0723C75.6761 76.2707 75.3034 76.3757 74.9231 76.3757H52.9105C52.5303 76.3757 52.1574 76.2707 51.8332 76.0723C51.5089 75.8736 51.2458 75.5893 51.073 75.2507C50.8892 74.9109 50.793 74.5307 50.793 74.1445C50.793 73.7582 50.8892 73.378 51.073 73.0382L62.1355 53.0883C62.2875 52.7157 62.547 52.3969 62.8809 52.1724C63.2149 51.948 63.6081 51.8281 64.0106 51.8281C64.413 51.8281 64.806 51.948 65.1401 52.1724C65.4739 52.3969 65.7334 52.7157 65.8856 53.0883L76.7606 73.0382Z" fill="#F9F8F6"/>
<path d="M76.7606 73.0382C76.9444 73.378 77.0404 73.7582 77.0404 74.1445C77.0404 74.5307 76.9444 74.9109 76.7606 75.2507C76.5878 75.5893 76.3245 75.8736 76.0005 76.0723C75.6761 76.2707 75.3034 76.3757 74.9231 76.3757H52.9105C52.5303 76.3757 52.1574 76.2707 51.8332 76.0723C51.5089 75.8736 51.2458 75.5893 51.073 75.2507C50.8892 74.9109 50.793 74.5307 50.793 74.1445C50.793 73.7582 50.8892 73.378 51.073 73.0382L62.1355 53.0883C62.2875 52.7157 62.547 52.3969 62.8809 52.1724C63.2149 51.948 63.6081 51.8281 64.0106 51.8281C64.413 51.8281 64.806 51.948 65.1401 52.1724C65.4739 52.3969 65.7334 52.7157 65.8856 53.0883L76.7606 73.0382Z" stroke="#FF6849" stroke-width="1.5" stroke-linecap="round" stroke-linejoin="round"/>
<path d="M63.9355 65.1251V61.375" stroke="#FF6849" stroke-width="1.5" stroke-linecap="round" stroke-linejoin="round"/>
<path d="M63.9184 71.2195C63.6592 71.2195 63.4492 71.0095 63.4492 70.7504C63.4492 70.4913 63.6592 70.2812 63.9184 70.2812" stroke="#FF6849" stroke-width="1.5" stroke-linecap="round" stroke-linejoin="round"/>
<path d="M63.918 71.2191C64.1771 71.2191 64.3871 71.0091 64.3871 70.7504C64.3871 70.4913 64.1771 70.2812 63.918 70.2812" stroke="#FF6849" stroke-width="1.5" stroke-linecap="round" stroke-linejoin="round"/>
<path d="M69.541 45.4367V35.5742" stroke="#FF6849" stroke-width="1.5" stroke-linecap="round" stroke-linejoin="round"/>
</svg>
