<svg width="375" height="364" viewBox="0 0 375 364" fill="none" xmlns="http://www.w3.org/2000/svg">
<g clip-path="url(#clip0_182_915)">
<mask id="mask0_182_915" style="mask-type:luminance" maskUnits="userSpaceOnUse" x="0" y="0" width="375" height="364">
<path d="M375 0H0V364H375V0Z" fill="white"/>
</mask>
<g mask="url(#mask0_182_915)">
<path opacity="0.6" d="M-50.3392 199.797C15.7478 171.742 92.0642 202.574 120.119 268.661L170.915 388.322L-68.4073 489.915L-119.203 370.254C-147.257 304.167 -116.426 227.851 -50.3392 199.797Z" fill="url(#paint0_linear_182_915)"/>
<path opacity="0.8" d="M273.862 -79.9119C324.537 -109.169 389.335 -91.8066 418.592 -41.1318L471.566 50.6228L288.057 156.572L235.082 64.8173C205.825 14.1426 223.188 -50.6549 273.862 -79.9119Z" fill="url(#paint1_linear_182_915)"/>
</g>
</g>
<defs>
<linearGradient id="paint0_linear_182_915" x1="-27.2464" y1="194.982" x2="29.1568" y2="424.13" gradientUnits="userSpaceOnUse">
<stop stop-color="#ECEADF"/>
<stop offset="1" stop-color="#F8F7F3"/>
</linearGradient>
<linearGradient id="paint1_linear_182_915" x1="292.065" y1="-86.0995" x2="360.448" y2="93.6668" gradientUnits="userSpaceOnUse">
<stop stop-color="#ECEADF"/>
<stop offset="1" stop-color="#F8F7F3"/>
</linearGradient>
<clipPath id="clip0_182_915">
<rect width="375" height="364" fill="white"/>
</clipPath>
</defs>
</svg>
