<svg width="64" height="64" viewBox="0 0 64 64" fill="none" xmlns="http://www.w3.org/2000/svg">
<path d="M0.5 12C0.5 5.64873 5.64873 0.5 12 0.5H52C58.3513 0.5 63.5 5.64873 63.5 12V52C63.5 58.3513 58.3513 63.5 52 63.5H12C5.64873 63.5 0.5 58.3513 0.5 52V12Z" stroke="#DDDFDA"/>
<path d="M32.0001 28.7004C39.9501 28.7004 46.4001 26.1504 46.4001 23.1504V32.9004C46.4001 35.9004 39.9501 38.4504 32.0001 38.4504C24.0501 38.4504 17.6001 35.9004 17.6001 32.9004V23.1504C17.6001 26.1504 24.0501 28.7004 32.0001 28.7004Z" fill="#FFE9E4"/>
<path d="M32.0001 28.6996C39.9501 28.6996 46.4001 26.1496 46.4001 23.1496C46.4001 20.1496 39.9501 17.5996 32.0001 17.5996C24.0501 17.5996 17.6001 19.9996 17.6001 23.1496C17.6001 26.1496 24.0501 28.6996 32.0001 28.6996Z" fill="#F9F8F6"/>
<path d="M32.0001 28.6996C39.9501 28.6996 46.4001 26.1496 46.4001 23.1496C46.4001 20.1496 39.9501 17.5996 32.0001 17.5996C24.0501 17.5996 17.6001 19.9996 17.6001 23.1496C17.6001 26.1496 24.0501 28.6996 32.0001 28.6996Z" stroke="#FF6849" stroke-width="1.5" stroke-linecap="round" stroke-linejoin="round"/>
<path d="M46.3999 39.8004V23.1504" stroke="#FF6849" stroke-width="1.5" stroke-linecap="round" stroke-linejoin="round"/>
<path d="M17.6001 23.1504V39.9504" stroke="#FF6849" stroke-width="1.5" stroke-linecap="round" stroke-linejoin="round"/>
<path d="M46.4001 32C46.4001 35 39.9501 37.55 32.0001 37.55C24.0501 37.55 17.6001 35 17.6001 32" stroke="#FF6849" stroke-width="1.5" stroke-linecap="round" stroke-linejoin="round"/>
<path d="M15.5 42.6504C19.55 42.6504 19.55 45.6504 23.6 45.6504C27.65 45.6504 27.65 42.6504 31.85 42.6504C35.9 42.6504 35.9 45.6504 40.1 45.6504C44.3 45.6504 44.15 42.6504 48.35 42.6504" stroke="#FF6849" stroke-width="1.4691" stroke-linecap="round" stroke-linejoin="round"/>
</svg>
