<svg width="54" height="54" viewBox="0 0 54 54" fill="none" xmlns="http://www.w3.org/2000/svg">
<path d="M12 0.5H42C48.3513 0.5 53.5 5.64873 53.5 12V42C53.5 48.3513 48.3513 53.5 42 53.5H12C5.64873 53.5 0.5 48.3513 0.5 42V12C0.5 5.64873 5.64873 0.5 12 0.5Z" stroke="#DDDFDA"/>
<path d="M27 24.7977C32.3 24.7977 36.6 23.0977 36.6 21.0977V27.5977C36.6 29.5977 32.3 31.2977 27 31.2977C21.7 31.2977 17.4 29.5977 17.4 27.5977V21.0977C17.4 23.0977 21.7 24.7977 27 24.7977Z" fill="#FFE9E4"/>
<path d="M27 24.7984C32.3 24.7984 36.6 23.0984 36.6 21.0984C36.6 19.0984 32.3 17.3984 27 17.3984C21.7 17.3984 17.4 18.9984 17.4 21.0984C17.4 23.0984 21.7 24.7984 27 24.7984Z" fill="#F9F8F6"/>
<path d="M27 24.7984C32.3 24.7984 36.6 23.0984 36.6 21.0984C36.6 19.0984 32.3 17.3984 27 17.3984C21.7 17.3984 17.4 18.9984 17.4 21.0984C17.4 23.0984 21.7 24.7984 27 24.7984Z" stroke="#FF6849" stroke-width="1.5" stroke-linecap="round" stroke-linejoin="round"/>
<path d="M36.6 32.1977V21.0977" stroke="#FF6849" stroke-width="1.5" stroke-linecap="round" stroke-linejoin="round"/>
<path d="M17.4 21.0977V32.2977" stroke="#FF6849" stroke-width="1.5" stroke-linecap="round" stroke-linejoin="round"/>
<path d="M36.6 27C36.6 29 32.3 30.7 27 30.7C21.7 30.7 17.4 29 17.4 27" stroke="#FF6849" stroke-width="1.5" stroke-linecap="round" stroke-linejoin="round"/>
<path d="M16 34.1016C18.7 34.1016 18.7 36.1016 21.4 36.1016C24.1 36.1016 24.1 34.1016 26.9 34.1016C29.6 34.1016 29.6 36.1016 32.4 36.1016C35.2 36.1016 35.1 34.1016 37.9 34.1016" stroke="#FF6849" stroke-width="1.4691" stroke-linecap="round" stroke-linejoin="round"/>
</svg>
