<svg width="88" height="89" viewBox="0 0 88 89" fill="none" xmlns="http://www.w3.org/2000/svg">
<path d="M0.5 12.5C0.5 6.14873 5.64873 1 12 1H76C82.3513 1 87.5 6.14873 87.5 12.5V76.5C87.5 82.8513 82.3513 88 76 88H12C5.64873 88 0.5 82.8513 0.5 76.5V12.5Z" stroke="#DDDFDA"/>
<path d="M30.1445 45.8196V60.3334H57.8529V45.8196C57.8529 44.3621 56.6714 43.1807 55.214 43.1807H32.7834C31.326 43.1807 30.1445 44.3621 30.1445 45.8196Z" fill="#FFE9E4"/>
<path d="M33.4434 37.9035V43.1813H54.5545V37.9035C54.5545 36.4461 53.373 35.2646 51.9156 35.2646H36.0822C34.6248 35.2646 33.4434 36.4461 33.4434 37.9035Z" fill="#FFE9E4"/>
<path d="M30.1445 45.8196V60.3334H57.8529V45.8196C57.8529 44.3621 56.6714 43.1807 55.214 43.1807H32.7834C31.326 43.1807 30.1445 44.3621 30.1445 45.8196Z" stroke="#FF6849" stroke-width="1.5" stroke-linecap="round" stroke-linejoin="round"/>
<path d="M33.4434 37.9035V43.1813H54.5545V37.9035C54.5545 36.4461 53.373 35.2646 51.9156 35.2646H36.0822C34.6248 35.2646 33.4434 36.4461 33.4434 37.9035Z" stroke="#FF6849" stroke-width="1.5" stroke-linecap="round" stroke-linejoin="round"/>
<path d="M44 35.2642V28.667H46.6389" stroke="#FF6849" stroke-width="1.5" stroke-linecap="round" stroke-linejoin="round"/>
<path d="M28.166 60.334H59.8327" stroke="#FF6849" stroke-width="1.5" stroke-linecap="round" stroke-linejoin="round"/>
<path d="M44 49.7783V60.3339" stroke="#FF6849" stroke-width="1.5" stroke-linecap="round" stroke-linejoin="round"/>
<path d="M51.2559 49.7783V60.3339" stroke="#FF6849" stroke-width="1.5" stroke-linecap="round" stroke-linejoin="round"/>
<path d="M36.7422 49.7783V60.3339" stroke="#FF6849" stroke-width="1.5" stroke-linecap="round" stroke-linejoin="round"/>
</svg>
