<svg width="375" height="740" viewBox="0 0 375 740" fill="none" xmlns="http://www.w3.org/2000/svg">
<g clip-path="url(#clip0_614_541)">
<path d="M360.324 242.341C405.609 216.195 463.516 231.711 489.661 276.997L537.002 358.993L373.009 453.675L325.668 371.678C299.522 326.393 315.038 268.486 360.324 242.341Z" fill="url(#paint0_linear_614_541)"/>
<path d="M243.127 562.441C269.273 607.726 253.757 665.633 208.471 691.778L126.475 739.119L31.793 575.126L113.79 527.785C159.075 501.639 216.981 517.155 243.127 562.441Z" fill="url(#paint1_linear_614_541)"/>
<path d="M54.334 317.667C80.4796 362.953 64.9637 420.859 19.6782 447.005L-62.3184 494.346L-157 330.352L-75.0033 283.012C-29.7178 256.866 28.1884 272.382 54.334 317.667Z" fill="url(#paint2_linear_614_541)"/>
</g>
<defs>
<linearGradient id="paint0_linear_614_541" x1="363.754" y1="238.968" x2="459.575" y2="405.124" gradientUnits="userSpaceOnUse">
<stop stop-color="#EFEEEB"/>
<stop offset="1" stop-color="#F9F8F6"/>
</linearGradient>
<linearGradient id="paint1_linear_614_541" x1="246.499" y1="565.871" x2="80.344" y2="661.692" gradientUnits="userSpaceOnUse">
<stop stop-color="#EFEEEB"/>
<stop offset="1" stop-color="#F9F8F6"/>
</linearGradient>
<linearGradient id="paint2_linear_614_541" x1="57.7064" y1="321.098" x2="-108.449" y2="416.918" gradientUnits="userSpaceOnUse">
<stop stop-color="#EFEEEB"/>
<stop offset="1" stop-color="#F9F8F6"/>
</linearGradient>
<clipPath id="clip0_614_541">
<rect width="375" height="740" fill="white"/>
</clipPath>
</defs>
</svg>
