<svg width="1920" height="751" viewBox="0 0 1920 751" fill="none" xmlns="http://www.w3.org/2000/svg">
<g clip-path="url(#clip0_597_438)">
<path d="M1218.95 101.25C1377.99 9.43269 1581.34 63.9212 1673.16 222.953L1839.41 510.907L1263.5 843.407L1097.25 555.453C1005.43 396.421 1059.92 193.067 1218.95 101.25Z" fill="url(#paint0_linear_597_438)"/>
<path d="M737.157 803.954C828.975 962.986 774.486 1166.34 615.454 1258.16L327.5 1424.41L-5 848.5L282.954 682.25C441.986 590.433 645.34 644.921 737.157 803.954Z" fill="url(#paint1_linear_597_438)"/>
<path d="M74.1567 119.954C165.974 278.986 111.486 482.34 -47.5467 574.157L-335.5 740.407L-668 164.5L-380.047 -1.74949C-221.014 -93.5668 -17.6606 -39.0783 74.1567 119.954Z" fill="url(#paint2_linear_597_438)"/>
</g>
<defs>
<linearGradient id="paint0_linear_597_438" x1="1231" y1="89.4069" x2="1567.5" y2="672.907" gradientUnits="userSpaceOnUse">
<stop stop-color="#EFEEEB"/>
<stop offset="1" stop-color="#F9F8F6"/>
</linearGradient>
<linearGradient id="paint1_linear_597_438" x1="749" y1="816" x2="165.5" y2="1152.5" gradientUnits="userSpaceOnUse">
<stop stop-color="#EFEEEB"/>
<stop offset="1" stop-color="#F9F8F6"/>
</linearGradient>
<linearGradient id="paint2_linear_597_438" x1="85.9998" y1="132" x2="-497.5" y2="468.5" gradientUnits="userSpaceOnUse">
<stop stop-color="#EFEEEB"/>
<stop offset="1" stop-color="#F9F8F6"/>
</linearGradient>
<clipPath id="clip0_597_438">
<rect width="1920" height="751" fill="white"/>
</clipPath>
</defs>
</svg>
