<svg width="1840" height="751" viewBox="0 0 1840 751" fill="none" xmlns="http://www.w3.org/2000/svg">
<path d="M1218.95 101.25C1377.99 9.43266 1581.34 63.9212 1673.16 222.953L1839.41 510.907L1263.5 843.407L1097.25 555.453C1005.43 396.421 1059.92 193.067 1218.95 101.25Z" fill="url(#paint0_linear_3550_22657)"/>
<path d="M737.157 803.954C828.975 962.986 774.486 1166.34 615.454 1258.16L327.5 1424.41L-4.9997 848.5L282.954 682.25C441.986 590.433 645.34 644.921 737.157 803.954Z" fill="url(#paint1_linear_3550_22657)"/>
<path d="M74.1567 119.954C165.974 278.986 111.486 482.34 -47.5467 574.157L-335.5 740.407L-668 164.5L-380.047 -1.74964C-221.014 -93.567 -17.6606 -39.0785 74.1567 119.954Z" fill="url(#paint2_linear_3550_22657)"/>
<defs>
<linearGradient id="paint0_linear_3550_22657" x1="1276.08" y1="81.8316" x2="1490.68" y2="645.992" gradientUnits="userSpaceOnUse">
<stop stop-color="#ECEADF"/>
<stop offset="1" stop-color="#F8F7F3"/>
</linearGradient>
<linearGradient id="paint1_linear_3550_22657" x1="756.576" y1="861.079" x2="192.416" y2="1075.68" gradientUnits="userSpaceOnUse">
<stop stop-color="#ECEADF"/>
<stop offset="1" stop-color="#F8F7F3"/>
</linearGradient>
<linearGradient id="paint2_linear_3550_22657" x1="93.5751" y1="177.079" x2="-470.585" y2="391.685" gradientUnits="userSpaceOnUse">
<stop stop-color="#ECEADF"/>
<stop offset="1" stop-color="#F8F7F3"/>
</linearGradient>
</defs>
</svg>
