<svg width="340" height="264" viewBox="0 0 340 264" fill="none" xmlns="http://www.w3.org/2000/svg">
<rect x="143" y="76.8164" width="9" height="10" rx="1.5" fill="#F9F8F6" stroke="white"/>
<rect x="167" y="76.8164" width="9" height="10" rx="1.5" fill="#F9F8F6" stroke="white"/>
<rect x="193" y="76.8164" width="9" height="10" rx="1.5" fill="#F9F8F6" stroke="white"/>
<rect x="143" y="165.816" width="9" height="10" rx="1.5" fill="#F9F8F6" stroke="white"/>
<rect x="167" y="165.816" width="9" height="10" rx="1.5" fill="#F9F8F6" stroke="white"/>
<rect x="192" y="165.816" width="9" height="10" rx="1.5" fill="#F9F8F6" stroke="white"/>
<rect x="212" y="154.816" width="9" height="10" rx="1.5" transform="rotate(-90 212 154.816)" fill="#F9F8F6" stroke="white"/>
<rect x="212" y="129.816" width="9" height="10" rx="1.5" transform="rotate(-90 212 129.816)" fill="#F9F8F6" stroke="white"/>
<rect x="212" y="105.816" width="9" height="10" rx="1.5" transform="rotate(-90 212 105.816)" fill="#F9F8F6" stroke="white"/>
<rect x="123" y="106.816" width="9" height="9" rx="1.5" transform="rotate(-90 123 106.816)" fill="#F9F8F6" stroke="white"/>
<rect x="122" y="130.816" width="9" height="10" rx="1.5" transform="rotate(-90 122 130.816)" fill="#F9F8F6" stroke="white"/>
<rect x="123" y="154.816" width="9" height="9" rx="1.5" transform="rotate(-90 123 154.816)" fill="#F9F8F6" stroke="white"/>
<rect x="131.5" y="86.3164" width="81" height="80" rx="11" fill="url(#paint0_linear_3984_4947)" stroke="url(#paint1_linear_3984_4947)" stroke-width="2"/>
<path d="M142.5 20.6625V35.8212L156.554 49.6972M147.419 75.2337V58.909L161.473 45.033M168.851 15.0655L177.986 24.0441M171.779 75.2337V30.6906L189.23 13.3164M185.482 54.7112L190.928 60.25M196.374 75.2337V65.7887L190.928 60.25M190.928 60.25L209.491 41.6515M223.545 101.587H259.5M311.5 78.7319H287.608L271.797 101.587H259.5M259.5 101.587L279.995 122.226H299.671M223.545 125.491H241.698L257.977 150.561H263.365M309.743 131.671H287.608L271.797 150.561H263.365M223.545 150.561H263.365M292.293 150.561H263.365M263.365 150.561L283.86 171.316H305.293" stroke="#FFA28D" stroke-width="3" stroke-dasharray="4 6"/>
<rect x="142.5" y="97.3164" width="59" height="58" rx="12" fill="#FF6849"/>
<path d="M147.585 178.088V200.913L152.992 206.444M158.398 211.976L152.992 206.444M152.992 206.444L135.277 224.553M171.397 178.088V235.616L164.945 242.37M154.487 253.316L164.945 242.37M164.945 242.37L174.273 251.919M195.784 178.088V207.201L186.504 216.75M181.865 221.525L186.504 216.75M186.504 216.75L200.5 230.958V246.096M50.4986 130.11H68.2135L88.5741 150.838M37.5 174.012H60.9665L77.0709 150.838H120.668M39.2255 120.794H60.9665L77.0709 102.045M120.668 102.045H90.0695M56.2502 102.045H84.778M120.668 127.315H106.404L90.0695 102.045M90.0695 102.045H84.778M84.778 102.045L64.4174 81.3164H44.2869" stroke="#FFA28D" stroke-width="3" stroke-dasharray="4 6"/>
<path d="M29.3031 123.47C28.6843 123.113 28.3031 122.452 28.3031 121.738L28.3031 119.277C28.3031 118.563 28.6843 117.903 29.3031 117.545L31.4339 116.315C32.0527 115.958 32.8151 115.958 33.4339 116.315L35.5647 117.545C36.1835 117.903 36.5647 118.563 36.5647 119.277L36.5647 121.738C36.5647 122.452 36.1835 123.113 35.5647 123.47L33.4339 124.7C32.8151 125.057 32.0527 125.057 31.4339 124.7L29.3031 123.47Z" fill="#FFA28D"/>
<path d="M136.261 128.436C135.642 128.078 135.261 127.418 135.261 126.704L135.261 126.346C135.261 125.632 135.642 124.971 136.261 124.614L136.57 124.435C137.189 124.078 137.952 124.078 138.57 124.435L138.88 124.614C139.499 124.971 139.88 125.632 139.88 126.346L139.88 126.704C139.88 127.418 139.499 128.078 138.88 128.436L138.57 128.614C137.952 128.972 137.189 128.972 136.57 128.614L136.261 128.436Z" fill="#F9F8F6"/>
<path d="M136.261 104.434C135.642 104.076 135.261 103.416 135.261 102.702L135.261 102.344C135.261 101.63 135.642 100.969 136.261 100.612L136.57 100.433C137.189 100.076 137.952 100.076 138.57 100.433L138.88 100.612C139.499 100.969 139.88 101.63 139.88 102.344L139.88 102.702C139.88 103.416 139.499 104.076 138.88 104.434L138.57 104.613C137.952 104.97 137.189 104.97 136.57 104.613L136.261 104.434Z" fill="#F9F8F6"/>
<path d="M135.372 152.438C134.753 152.08 134.372 151.42 134.372 150.706L134.372 150.348C134.372 149.634 134.753 148.973 135.372 148.616L135.682 148.437C136.301 148.08 137.063 148.08 137.682 148.437L137.991 148.616C138.61 148.973 138.991 149.634 138.991 150.348L138.991 150.706C138.991 151.42 138.61 152.08 137.991 152.438L137.682 152.616C137.063 152.974 136.301 152.974 135.682 152.616L135.372 152.438Z" fill="#F9F8F6"/>
<path d="M146.484 163.994C145.865 163.637 145.484 162.977 145.484 162.262L145.484 161.905C145.484 161.19 145.865 160.53 146.484 160.173L146.794 159.994C147.412 159.637 148.175 159.637 148.794 159.994L149.103 160.173C149.722 160.53 150.103 161.19 150.103 161.905L150.103 162.262C150.103 162.977 149.722 163.637 149.103 163.994L148.794 164.173C148.175 164.53 147.412 164.53 146.794 164.173L146.484 163.994Z" fill="#F9F8F6"/>
<path d="M170.486 163.994C169.867 163.637 169.486 162.977 169.486 162.262L169.486 161.905C169.486 161.19 169.867 160.53 170.486 160.173L170.795 159.994C171.414 159.637 172.177 159.637 172.795 159.994L173.105 160.173C173.724 160.53 174.105 161.19 174.105 161.905L174.105 162.262C174.105 162.977 173.724 163.637 173.105 163.994L172.795 164.173C172.177 164.53 171.414 164.53 170.795 164.173L170.486 163.994Z" fill="#F9F8F6"/>
<path d="M194.933 163.994C194.314 163.637 193.933 162.977 193.933 162.262L193.933 161.905C193.933 161.19 194.314 160.53 194.933 160.173L195.242 159.994C195.861 159.637 196.623 159.637 197.242 159.994L197.552 160.173C198.171 160.53 198.552 161.19 198.552 161.905L198.552 162.262C198.552 162.977 198.171 163.637 197.552 163.994L197.242 164.173C196.623 164.53 195.861 164.53 195.242 164.173L194.933 163.994Z" fill="#F9F8F6"/>
<path d="M195.822 93.3224C195.203 92.9652 194.822 92.3049 194.822 91.5904L194.822 91.2329C194.822 90.5184 195.203 89.8581 195.822 89.5008L196.131 89.3221C196.75 88.9648 197.513 88.9648 198.131 89.3221L198.441 89.5008C199.06 89.8581 199.441 90.5184 199.441 91.2329L199.441 91.5904C199.441 92.3049 199.06 92.9652 198.441 93.3224L198.131 93.5012C197.513 93.8585 196.75 93.8585 196.131 93.5012L195.822 93.3224Z" fill="#F9F8F6"/>
<path d="M170.931 93.3224C170.312 92.9652 169.931 92.3049 169.931 91.5904L169.931 91.2329C169.931 90.5184 170.312 89.8581 170.931 89.5008L171.24 89.3221C171.859 88.9648 172.622 88.9648 173.24 89.3221L173.55 89.5008C174.169 89.8581 174.55 90.5184 174.55 91.2329L174.55 91.5904C174.55 92.3049 174.169 92.9652 173.55 93.3224L173.24 93.5012C172.622 93.8585 171.859 93.8585 171.24 93.5012L170.931 93.3224Z" fill="#F9F8F6"/>
<path d="M146.484 93.3224C145.865 92.9652 145.484 92.3049 145.484 91.5904L145.484 91.2329C145.484 90.5184 145.865 89.8581 146.484 89.5008L146.794 89.3221C147.412 88.9648 148.175 88.9648 148.794 89.3221L149.103 89.5008C149.722 89.8581 150.103 90.5184 150.103 91.2329L150.103 91.5904C150.103 92.3049 149.722 92.9652 149.103 93.3224L148.794 93.5012C148.175 93.8585 147.412 93.8585 146.794 93.5012L146.484 93.3224Z" fill="#F9F8F6"/>
<path d="M205.6 103.545C204.981 103.188 204.6 102.528 204.6 101.813L204.6 101.456C204.6 100.741 204.981 100.081 205.6 99.7235L205.91 99.5447C206.529 99.1875 207.291 99.1875 207.91 99.5447L208.219 99.7235C208.838 100.081 209.219 100.741 209.219 101.456L209.219 101.813C209.219 102.528 208.838 103.188 208.219 103.545L207.91 103.724C207.291 104.081 206.529 104.081 205.91 103.724L205.6 103.545Z" fill="#F9F8F6"/>
<path d="M205.6 128.436C204.981 128.078 204.6 127.418 204.6 126.704L204.6 126.346C204.6 125.632 204.981 124.971 205.6 124.614L205.91 124.435C206.529 124.078 207.291 124.078 207.91 124.435L208.219 124.614C208.838 124.971 209.219 125.632 209.219 126.346L209.219 126.704C209.219 127.418 208.838 128.078 208.219 128.436L207.91 128.614C207.291 128.972 206.529 128.972 205.91 128.614L205.6 128.436Z" fill="#F9F8F6"/>
<path d="M205.6 152.438C204.981 152.08 204.6 151.42 204.6 150.706L204.6 150.348C204.6 149.634 204.981 148.973 205.6 148.616L205.91 148.437C206.529 148.08 207.291 148.08 207.91 148.437L208.219 148.616C208.838 148.973 209.219 149.634 209.219 150.348L209.219 150.706C209.219 151.42 208.838 152.08 208.219 152.438L207.91 152.616C207.291 152.974 206.529 152.974 205.91 152.616L205.6 152.438Z" fill="#F9F8F6"/>
<path d="M312.518 135.202C311.899 134.845 311.518 134.185 311.518 133.47L311.518 129.963C311.518 129.249 311.899 128.588 312.518 128.231L315.555 126.478C316.174 126.12 316.936 126.12 317.555 126.478L320.592 128.231C321.211 128.588 321.592 129.249 321.592 129.963L321.592 133.47C321.592 134.185 321.211 134.845 320.592 135.202L317.555 136.956C316.936 137.313 316.174 137.313 315.555 136.956L312.518 135.202Z" fill="#FFA28D"/>
<path d="M17.7687 149.391C17.1499 149.034 16.7687 148.374 16.7687 147.659L16.7687 147.431C16.7687 146.716 17.1499 146.056 17.7687 145.699L17.9665 145.585C18.5853 145.227 19.3477 145.227 19.9665 145.585L20.1643 145.699C20.7831 146.056 21.1643 146.716 21.1643 147.431L21.1643 147.659C21.1643 148.374 20.7831 149.034 20.1643 149.391L19.9665 149.505C19.3477 149.863 18.5853 149.863 17.9665 149.505L17.7687 149.391Z" fill="#FFD2C8"/>
<path d="M307.286 173.336C306.667 172.979 306.286 172.318 306.286 171.604L306.286 171.005C306.286 170.29 306.667 169.63 307.286 169.273L307.804 168.973C308.423 168.616 309.186 168.616 309.804 168.973L310.323 169.273C310.942 169.63 311.323 170.29 311.323 171.005L311.323 171.604C311.323 172.318 310.942 172.979 310.323 173.336L309.804 173.635C309.186 173.993 308.423 173.993 307.804 173.635L307.286 173.336Z" fill="#FFD2C8"/>
<path d="M55.93 202.672C55.3112 202.315 54.93 201.654 54.93 200.94L54.93 200.341C54.93 199.626 55.3112 198.966 55.93 198.609L56.4488 198.309C57.0676 197.952 57.83 197.952 58.4488 198.309L58.9676 198.609C59.5864 198.966 59.9676 199.626 59.9676 200.341L59.9676 200.94C59.9676 201.654 59.5864 202.315 58.9676 202.672L58.4488 202.971C57.83 203.329 57.0676 203.329 56.4488 202.971L55.93 202.672Z" fill="#FFD2C8"/>
<path d="M152.831 254.691C152.326 254.185 152.129 253.449 152.314 252.759L152.469 252.18C152.654 251.49 153.193 250.951 153.883 250.766L154.462 250.611C155.152 250.426 155.888 250.623 156.393 251.129L156.817 251.552C157.322 252.057 157.52 252.794 157.335 253.484L157.18 254.063C156.995 254.753 156.456 255.292 155.765 255.477L155.187 255.632C154.497 255.817 153.76 255.62 153.255 255.114L152.831 254.691Z" fill="#FFD2C8"/>
<path d="M173.991 254.695C173.301 254.51 172.762 253.971 172.577 253.281L172.422 252.703C172.237 252.012 172.435 251.276 172.94 250.771L173.363 250.347C173.869 249.842 174.605 249.645 175.295 249.829L175.874 249.984C176.564 250.169 177.103 250.709 177.288 251.399L177.443 251.977C177.628 252.668 177.431 253.404 176.925 253.909L176.502 254.333C175.997 254.838 175.26 255.035 174.57 254.85L173.991 254.695Z" fill="#FFD2C8"/>
<path d="M192.29 13.8665C191.6 14.0514 190.863 13.8541 190.358 13.3488L189.78 12.7708C189.275 12.2656 189.077 11.5292 189.262 10.839L189.474 10.0494C189.659 9.35924 190.198 8.82014 190.888 8.63521L191.678 8.42365C192.368 8.23871 193.104 8.43604 193.61 8.94129L194.188 9.51928C194.693 10.0245 194.89 10.761 194.705 11.4511L194.494 12.2407C194.309 12.9309 193.77 13.47 193.079 13.6549L192.29 13.8665Z" fill="#FFD2C8"/>
<path d="M162.166 44.4505C161.661 43.9453 161.463 43.2088 161.648 42.5186L161.803 41.94C161.988 41.2498 162.527 40.7107 163.217 40.5258L163.796 40.3707C164.486 40.1858 165.223 40.3831 165.728 40.8884L166.151 41.312C166.657 41.8172 166.854 42.5536 166.669 43.2438L166.514 43.8225C166.329 44.5127 165.79 45.0518 165.1 45.2367L164.521 45.3917C163.831 45.5767 163.095 45.3793 162.589 44.8741L162.166 44.4505Z" fill="#FFD2C8"/>
<path d="M97.9759 65.6868C97.3571 65.3295 96.9759 64.6692 96.9759 63.9547L96.9759 61.4942C96.9759 60.7797 97.3571 60.1195 97.9759 59.7622L100.107 58.532C100.726 58.1747 101.488 58.1747 102.107 58.532L104.238 59.7622C104.856 60.1194 105.238 60.7797 105.238 61.4942L105.238 63.9547C105.238 64.6692 104.856 65.3295 104.238 65.6868L102.107 66.917C101.488 67.2743 100.726 67.2743 100.107 66.917L97.9759 65.6868Z" fill="#FFD2C8"/>
<path d="M230.398 176.132C229.779 175.775 229.398 175.115 229.398 174.4L229.398 171.94C229.398 171.225 229.779 170.565 230.398 170.207L232.529 168.977C233.148 168.62 233.91 168.62 234.529 168.977L236.66 170.207C237.279 170.565 237.66 171.225 237.66 171.94L237.66 174.4C237.66 175.115 237.279 175.775 236.66 176.132L234.529 177.362C233.91 177.72 233.148 177.72 232.529 177.362L230.398 176.132Z" fill="#FFD2C8"/>
<path d="M43.5267 243.482C42.9079 243.124 42.5267 242.464 42.5267 241.75L42.5267 239.289C42.5267 238.575 42.9079 237.914 43.5267 237.557L45.6575 236.327C46.2763 235.97 47.0387 235.97 47.6575 236.327L49.7883 237.557C50.4071 237.914 50.7883 238.575 50.7883 239.289L50.7883 241.75C50.7883 242.464 50.4071 243.124 49.7883 243.482L47.6575 244.712C47.0387 245.069 46.2763 245.069 45.6575 244.712L43.5267 243.482Z" fill="#FFD2C8"/>
<path d="M34.7075 210.888C34.0887 210.531 33.7075 209.871 33.7075 209.156L33.7075 208.918C33.7075 208.203 34.0887 207.543 34.7075 207.186L34.9141 207.066C35.5329 206.709 36.2953 206.709 36.9141 207.066L37.1207 207.186C37.7395 207.543 38.1207 208.203 38.1207 208.918L38.1207 209.156C38.1207 209.871 37.7395 210.531 37.1207 210.888L36.9141 211.008C36.2953 211.365 35.5329 211.365 34.9141 211.008L34.7075 210.888Z" fill="#FFD2C8"/>
<path d="M257.435 75.0227C256.817 74.6654 256.435 74.0052 256.435 73.2906L256.435 70.8302C256.435 70.1156 256.817 69.4554 257.435 69.0981L259.566 67.8679C260.185 67.5106 260.947 67.5106 261.566 67.8679L263.697 69.0981C264.316 69.4554 264.697 70.1156 264.697 70.8302L264.697 73.2906C264.697 74.0052 264.316 74.6654 263.697 75.0227L261.566 76.2529C260.947 76.6102 260.185 76.6102 259.566 76.2529L257.435 75.0227Z" fill="#FFD2C8"/>
<path d="M307.105 18.5735C306.486 18.2162 306.105 17.556 306.105 16.8414L306.105 14.381C306.105 13.6664 306.486 13.0062 307.105 12.6489L309.236 11.4187C309.854 11.0614 310.617 11.0614 311.236 11.4187L313.366 12.6489C313.985 13.0062 314.366 13.6664 314.366 14.381L314.366 16.8414C314.366 17.556 313.985 18.2162 313.366 18.5735L311.236 19.8037C310.617 20.161 309.854 20.161 309.236 19.8037L307.105 18.5735Z" fill="#FFD2C8"/>
<path d="M282.556 55.5204C281.938 55.1632 281.556 54.5029 281.556 53.7884L281.556 48.2017C281.556 47.4872 281.938 46.8269 282.556 46.4697L287.395 43.6764C288.013 43.3191 288.776 43.3191 289.395 43.6764L294.233 46.4697C294.852 46.827 295.233 47.4872 295.233 48.2017L295.233 53.7884C295.233 54.5029 294.852 55.1632 294.233 55.5204L289.395 58.3137C288.776 58.671 288.013 58.671 287.395 58.3137L282.556 55.5204Z" fill="#FFE9E4"/>
<path d="M243.646 36.5854C243.027 36.2281 242.646 35.5678 242.646 34.8533L242.646 34.4115C242.646 33.697 243.027 33.0367 243.646 32.6794L244.028 32.4585C244.647 32.1013 245.41 32.1013 246.028 32.4585L246.411 32.6794C247.03 33.0367 247.411 33.697 247.411 34.4115L247.411 34.8533C247.411 35.5678 247.03 36.2281 246.411 36.5854L246.028 36.8063C245.41 37.1635 244.647 37.1635 244.028 36.8063L243.646 36.5854Z" fill="#FFD2C8"/>
<path d="M315.675 60.6416C315.114 60.3177 314.768 59.719 314.768 59.0711C314.768 58.4231 315.114 57.8245 315.675 57.5005C316.236 57.1765 316.927 57.1765 317.488 57.5005C318.049 57.8245 318.395 58.4231 318.395 59.0711C318.395 59.719 318.049 60.3177 317.488 60.6416C316.927 60.9656 316.236 60.9656 315.675 60.6416Z" fill="#FFD2C8"/>
<path d="M109.604 89.8799C109.043 89.556 108.697 88.9573 108.697 88.3093C108.697 87.6614 109.043 87.0627 109.604 86.7388C110.165 86.4148 110.856 86.4148 111.417 86.7388C111.979 87.0627 112.324 87.6614 112.324 88.3093C112.324 88.9573 111.979 89.556 111.417 89.8799C110.856 90.2039 110.165 90.2039 109.604 89.8799Z" fill="#FFD2C8"/>
<path d="M136.827 42.8799C136.266 42.556 135.92 41.9573 135.92 41.3093C135.92 40.6614 136.266 40.0627 136.827 39.7388C137.388 39.4148 138.079 39.4148 138.641 39.7388C139.202 40.0627 139.547 40.6614 139.547 41.3093C139.547 41.9573 139.202 42.556 138.641 42.8799C138.079 43.2039 137.388 43.2039 136.827 42.8799Z" fill="#FFD2C8"/>
<path d="M278.783 204.208C278.221 203.884 277.876 203.285 277.876 202.637C277.876 201.99 278.221 201.391 278.783 201.067C279.344 200.743 280.035 200.743 280.596 201.067C281.157 201.391 281.503 201.99 281.503 202.637C281.503 203.285 281.157 203.884 280.596 204.208C280.035 204.532 279.344 204.532 278.783 204.208Z" fill="#FFD2C8"/>
<path d="M205.001 215.759C204.44 215.435 204.095 214.836 204.095 214.188C204.095 213.54 204.44 212.942 205.001 212.618C205.562 212.294 206.254 212.294 206.815 212.618C207.376 212.942 207.722 213.54 207.722 214.188C207.722 214.836 207.376 215.435 206.815 215.759C206.254 216.083 205.562 216.083 205.001 215.759Z" fill="#FFD2C8"/>
<path d="M31.6502 23.7491C31.0891 23.4251 30.7435 22.8264 30.7435 22.1785C30.7435 21.5306 31.0891 20.9319 31.6502 20.6079C32.2114 20.284 32.9027 20.284 33.4638 20.6079C34.0249 20.9319 34.3706 21.5306 34.3706 22.1785C34.3706 22.8264 34.0249 23.4251 33.4638 23.7491C32.9027 24.073 32.2114 24.073 31.6502 23.7491Z" fill="#FFD2C8"/>
<path d="M20.7601 250.435C20.199 250.111 19.8533 249.512 19.8533 248.864C19.8533 248.216 20.199 247.617 20.7601 247.293C21.3212 246.97 22.0125 246.97 22.5736 247.293C23.1348 247.617 23.4804 248.216 23.4804 248.864C23.4804 249.512 23.1348 250.111 22.5736 250.435C22.0125 250.759 21.3212 250.759 20.7601 250.435Z" fill="#FFD2C8"/>
<path d="M141.077 18.8164C140.72 18.1976 140.72 17.4352 141.077 16.8164L141.173 16.6513C141.53 16.0325 142.19 15.6513 142.905 15.6513L143.095 15.6513C143.81 15.6513 144.47 16.0325 144.827 16.6513L144.923 16.8164C145.28 17.4352 145.28 18.1976 144.923 18.8164L144.827 18.9815C144.47 19.6003 143.81 19.9815 143.095 19.9815L142.905 19.9815C142.19 19.9815 141.53 19.6003 141.173 18.9815L141.077 18.8164Z" fill="#FFD2C8"/>
<path d="M165.729 15.2212C165.038 15.0362 164.499 14.4971 164.314 13.8069L164.255 13.5863C164.07 12.8961 164.268 12.1597 164.773 11.6545L164.934 11.493C165.44 10.9877 166.176 10.7904 166.866 10.9753L167.087 11.0345C167.777 11.2194 168.316 11.7585 168.501 12.4487L168.56 12.6693C168.745 13.3595 168.548 14.0959 168.043 14.6011L167.881 14.7626C167.376 15.2679 166.639 15.4652 165.949 15.2803L165.729 15.2212Z" fill="#FFD2C8"/>
<path d="M209.725 40.8958C209.22 40.3906 209.023 39.6541 209.208 38.964L209.363 38.3853C209.548 37.6951 210.087 37.156 210.777 36.9711L211.356 36.8161C212.046 36.6311 212.782 36.8284 213.287 37.3337L213.711 37.7573C214.216 38.2625 214.414 38.999 214.229 39.6891L214.074 40.2678C213.889 40.958 213.35 41.4971 212.659 41.682L212.081 41.837C211.391 42.022 210.654 41.8247 210.149 41.3194L209.725 40.8958Z" fill="#FFD2C8"/>
<path d="M181.992 54.6778C181.302 54.4929 180.763 53.9538 180.578 53.2636L180.423 52.685C180.238 51.9948 180.435 51.2584 180.941 50.7531L181.364 50.3295C181.87 49.8243 182.606 49.6269 183.296 49.8119L183.875 49.9669C184.565 50.1519 185.104 50.6909 185.289 51.3811L185.444 51.9598C185.629 52.65 185.432 53.3864 184.926 53.8916L184.503 54.3152C183.998 54.8205 183.261 55.0178 182.571 54.8329L181.992 54.6778Z" fill="#FFD2C8"/>
<path d="M198.939 249.703C198.662 249.144 198.662 248.488 198.939 247.929L199.449 246.898C199.787 246.217 200.481 245.785 201.242 245.785L201.758 245.785C202.519 245.785 203.213 246.217 203.551 246.898L204.061 247.929C204.338 248.488 204.338 249.144 204.061 249.703L203.551 250.735C203.213 251.416 202.519 251.847 201.758 251.847L201.242 251.847C200.481 251.847 199.787 251.416 199.449 250.735L198.939 249.703Z" fill="#FFD2C8"/>
<path d="M21.4235 103.305C20.8047 102.948 20.4235 102.288 20.4235 101.573L20.4235 101.345C20.4235 100.63 20.8047 99.9701 21.4235 99.6128L21.6213 99.4986C22.2401 99.1414 23.0025 99.1414 23.6213 99.4986L23.8191 99.6128C24.4379 99.9701 24.8191 100.63 24.8191 101.345L24.8191 101.573C24.8191 102.288 24.4379 102.948 23.8191 103.305L23.6213 103.42C23.0025 103.777 22.2401 103.777 21.6213 103.42L21.4235 103.305Z" fill="#FFD2C8"/>
<path d="M28.9153 176.696C28.2965 176.339 27.9153 175.679 27.9153 174.964L27.9153 173.279C27.9153 172.564 28.2965 171.904 28.9153 171.547L30.3747 170.704C30.9935 170.347 31.7559 170.347 32.3747 170.704L33.8341 171.547C34.453 171.904 34.8341 172.564 34.8341 173.279L34.8341 174.964C34.8341 175.679 34.453 176.339 33.8341 176.696L32.3747 177.539C31.7559 177.896 30.9935 177.896 30.3747 177.539L28.9153 176.696Z" fill="#FFD2C8"/>
<path d="M301.952 124.441C301.333 124.084 300.952 123.424 300.952 122.709L300.952 122.11C300.952 121.396 301.333 120.735 301.952 120.378L302.47 120.079C303.089 119.721 303.852 119.721 304.47 120.079L304.989 120.378C305.608 120.735 305.989 121.396 305.989 122.11L305.989 122.709C305.989 123.424 305.608 124.084 304.989 124.441L304.47 124.741C303.852 125.098 303.089 125.098 302.47 124.741L301.952 124.441Z" fill="#FFD2C8"/>
<path d="M48.1517 131.555C47.5329 131.197 47.1517 130.537 47.1517 129.823L47.1517 129.224C47.1517 128.509 47.5329 127.849 48.1517 127.491L48.6705 127.192C49.2893 126.835 50.0517 126.835 50.6705 127.192L51.1893 127.491C51.8081 127.849 52.1893 128.509 52.1893 129.224L52.1893 129.823C52.1893 130.537 51.8081 131.197 51.1893 131.555L50.6705 131.854C50.0517 132.211 49.2893 132.211 48.6705 131.854L48.1517 131.555Z" fill="#FFD2C8"/>
<path d="M50.3744 103.551C49.7556 103.193 49.3744 102.533 49.3744 101.819L49.3744 101.22C49.3744 100.505 49.7556 99.8448 50.3744 99.4876L50.8932 99.1881C51.512 98.8308 52.2744 98.8308 52.8932 99.1881L53.412 99.4876C54.0308 99.8448 54.412 100.505 54.412 101.22L54.412 101.819C54.412 102.533 54.0308 103.193 53.412 103.551L52.8932 103.85C52.2744 104.208 51.512 104.208 50.8932 103.85L50.3744 103.551Z" fill="#FFD2C8"/>
<path d="M293.951 152.889C293.332 152.531 292.951 151.871 292.951 151.157L292.951 150.558C292.951 149.843 293.332 149.183 293.951 148.825L294.47 148.526C295.089 148.169 295.851 148.169 296.47 148.526L296.989 148.825C297.607 149.183 297.989 149.843 297.989 150.558L297.989 151.157C297.989 151.871 297.607 152.531 296.989 152.889L296.47 153.188C295.851 153.545 295.089 153.545 294.47 153.188L293.951 152.889Z" fill="#FFD2C8"/>
<path d="M131.052 228.023C130.547 227.518 130.349 226.781 130.534 226.091L130.689 225.512C130.874 224.822 131.413 224.283 132.104 224.098L132.682 223.943C133.372 223.758 134.109 223.955 134.614 224.461L135.038 224.884C135.543 225.389 135.74 226.126 135.555 226.816L135.4 227.395C135.215 228.085 134.676 228.624 133.986 228.809L133.407 228.964C132.717 229.149 131.981 228.952 131.476 228.446L131.052 228.023Z" fill="#FFD2C8"/>
<path d="M160.213 216.469C159.522 216.284 158.983 215.745 158.798 215.055L158.643 214.476C158.458 213.786 158.656 213.049 159.161 212.544L159.585 212.121C160.09 211.615 160.826 211.418 161.516 211.603L162.095 211.758C162.785 211.943 163.324 212.482 163.509 213.172L163.664 213.751C163.849 214.441 163.652 215.177 163.147 215.683L162.723 216.106C162.218 216.611 161.481 216.809 160.791 216.624L160.213 216.469Z" fill="#FFD2C8"/>
<path d="M178.134 225.322C177.628 224.816 177.431 224.08 177.616 223.39L177.771 222.811C177.956 222.121 178.495 221.582 179.185 221.397L179.764 221.242C180.454 221.057 181.19 221.254 181.696 221.759L182.119 222.183C182.625 222.688 182.822 223.425 182.637 224.115L182.482 224.694C182.297 225.384 181.758 225.923 181.068 226.108L180.489 226.263C179.799 226.448 179.062 226.25 178.557 225.745L178.134 225.322Z" fill="#FFD2C8"/>
<path d="M41.4647 82.3789C40.8459 82.0216 40.4647 81.3613 40.4647 80.6468L40.4647 80.0478C40.4647 79.3332 40.8459 78.673 41.4647 78.3157L41.9835 78.0162C42.6023 77.6589 43.3647 77.6589 43.9835 78.0162L44.5023 78.3157C45.1211 78.673 45.5023 79.3332 45.5023 80.0478L45.5023 80.6468C45.5023 81.3613 45.1211 82.0216 44.5023 82.3789L43.9835 82.6784C43.3647 83.0357 42.6023 83.0357 41.9835 82.6784L41.4647 82.3789Z" fill="#FFD2C8"/>
<path d="M312.51 80.8828C311.891 80.5255 311.51 79.8653 311.51 79.1507L311.51 78.5517C311.51 77.8371 311.891 77.1769 312.51 76.8196L313.028 76.5201C313.647 76.1628 314.41 76.1628 315.028 76.5201L315.547 76.8196C316.166 77.1769 316.547 77.8371 316.547 78.5517L316.547 79.1507C316.547 79.8653 316.166 80.5255 315.547 80.8828L315.028 81.1823C314.41 81.5396 313.647 81.5396 313.028 81.1823L312.51 80.8828Z" fill="#FFD2C8"/>
<path d="M179.109 108.215V121.145H176.375V108.215H179.109Z" fill="#F9F8F6"/>
<path d="M165.304 121.145H162.375L166.838 108.215H170.361L174.819 121.145H171.889L168.65 111.17H168.549L165.304 121.145ZM165.121 116.063H172.041V118.197H165.121V116.063Z" fill="#F9F8F6"/>
<path d="M178.643 143.409V130.479H181.377V141.155H186.92V143.409H178.643Z" fill="#F9F8F6"/>
<path d="M162.375 130.479H165.746L169.307 139.166H169.458L173.019 130.479H176.391V143.409H173.739V134.993H173.632L170.286 143.346H168.48L165.134 134.961H165.026V143.409H162.375V130.479Z" fill="#F9F8F6"/>
<defs>
<linearGradient id="paint0_linear_3984_4947" x1="131.966" y1="119.019" x2="206.293" y2="131.168" gradientUnits="userSpaceOnUse">
<stop stop-color="#F4F3EB"/>
<stop offset="1" stop-color="#F8F8F8"/>
</linearGradient>
<linearGradient id="paint1_linear_3984_4947" x1="131.966" y1="119.019" x2="206.293" y2="131.168" gradientUnits="userSpaceOnUse">
<stop stop-color="#F4F3EB"/>
<stop offset="1" stop-color="#F8F8F8"/>
</linearGradient>
</defs>
</svg>
