<svg width="368" height="218" viewBox="0 0 368 218" fill="none" xmlns="http://www.w3.org/2000/svg">
<path d="M86.5754 37.0241C89.6688 38.8104 91.5742 42.112 91.5738 45.6853L91.5718 68.1418C91.5715 71.715 89.6655 75.017 86.5718 76.8039L67.129 88.0339C64.0353 89.8208 60.2239 89.8211 57.1305 88.0348L37.6898 76.8083C34.5964 75.022 32.691 71.7204 32.6913 68.1472L32.6934 45.6906C32.6937 42.1174 34.5997 38.8154 37.6934 37.0285L57.1362 25.7985C60.2299 24.0116 64.0413 24.0113 67.1346 25.7976L86.5754 37.0241Z" fill="#F8F7F3"/>
<path d="M47.5176 56.7435L76.5633 46.5977" stroke="#FF6849" stroke-linecap="round" stroke-linejoin="round"/>
<path d="M70.8132 43.7598L76.5634 46.5779L73.7714 52.3608" stroke="#FF6849" stroke-linecap="round" stroke-linejoin="round"/>
<path d="M66.8812 72.8165V57.1699H76.5631V72.8165" fill="#F9E9E7"/>
<path d="M57.1995 72.815V61.0801H66.8813V72.815" fill="white"/>
<path d="M47.5176 72.8215V64.4395H57.1994V72.8215" fill="#F9E9E7"/>
<path d="M66.8812 72.8165V57.1699H76.5631V72.8165" stroke="#FF6849" stroke-linecap="round" stroke-linejoin="round"/>
<path d="M57.1995 72.815V61.0801H66.8813V72.815" stroke="#FF6849" stroke-linecap="round" stroke-linejoin="round"/>
<path d="M47.5176 72.8215V64.4395H57.1994V72.8215" stroke="#FF6849" stroke-linecap="round" stroke-linejoin="round"/>
<path d="M86.5754 139.024C89.6688 140.81 91.5742 144.112 91.5738 147.685L91.5718 170.142C91.5715 173.715 89.6655 177.017 86.5718 178.804L67.129 190.034C64.0353 191.821 60.2239 191.821 57.1305 190.035L37.6898 178.808C34.5964 177.022 32.691 173.72 32.6913 170.147L32.6934 147.691C32.6937 144.117 34.5997 140.815 37.6934 139.029L57.1362 127.799C60.2299 126.012 64.0413 126.011 67.1346 127.798L86.5754 139.024Z" fill="#F8F7F3"/>
<g clip-path="url(#clip0_3850_11347)">
<path d="M62.0405 145.238V148.712" stroke="#FF6849" stroke-linecap="round" stroke-linejoin="round"/>
<path d="M62.0405 171.871V175.345" stroke="#FF6849" stroke-linecap="round" stroke-linejoin="round"/>
<path d="M77.0871 160.291H73.6147" stroke="#FF6849" stroke-linecap="round" stroke-linejoin="round"/>
<path d="M50.4662 160.291H46.9939" stroke="#FF6849" stroke-linecap="round" stroke-linejoin="round"/>
<path d="M51.4021 149.645L53.8574 152.101" stroke="#FF6849" stroke-linecap="round" stroke-linejoin="round"/>
<path d="M70.224 168.479L72.6794 170.935" stroke="#FF6849" stroke-linecap="round" stroke-linejoin="round"/>
<path d="M72.6794 149.645L70.224 152.101" stroke="#FF6849" stroke-linecap="round" stroke-linejoin="round"/>
<path d="M53.8574 168.479L51.4021 170.935" stroke="#FF6849" stroke-linecap="round" stroke-linejoin="round"/>
<path d="M50.4664 160.292C50.4664 163.363 51.6859 166.308 53.8565 168.48C56.0271 170.651 58.9711 171.871 62.0408 171.871C65.1105 171.871 68.0545 170.651 70.2251 168.48C72.3957 166.308 73.6152 163.363 73.6152 160.292C73.6152 157.221 72.3957 154.276 70.2251 152.104C68.0545 149.933 65.1105 148.713 62.0408 148.713C58.9711 148.713 56.0271 149.933 53.8565 152.104C51.6859 154.276 50.4664 157.221 50.4664 160.292Z" fill="#F9E9E7"/>
<path d="M50.4664 160.292C50.4664 163.363 51.6859 166.308 53.8565 168.48C56.0271 170.651 58.9711 171.871 62.0408 171.871C65.1105 171.871 68.0545 170.651 70.2251 168.48C72.3957 166.308 73.6152 163.363 73.6152 160.292C73.6152 157.221 72.3957 154.276 70.2251 152.104C68.0545 149.933 65.1105 148.713 62.0408 148.713C58.9711 148.713 56.0271 149.933 53.8565 152.104C51.6859 154.276 50.4664 157.221 50.4664 160.292Z" stroke="#FF6849" stroke-linecap="round" stroke-linejoin="round"/>
<path d="M62.0405 160.291H73.6149" stroke="#FF6849" stroke-linecap="round" stroke-linejoin="round"/>
<path d="M56.2534 150.26L62.0406 160.288" stroke="#FF6849" stroke-linecap="round" stroke-linejoin="round"/>
<path d="M56.2534 170.319L62.0406 160.291" stroke="#FF6849" stroke-linecap="round" stroke-linejoin="round"/>
</g>
<path d="M329.696 139.145C332.764 140.931 334.646 144.246 334.633 147.841L334.551 170.436C334.538 174.032 332.632 177.361 329.551 179.17L310.19 190.539C307.109 192.349 303.321 192.363 300.254 190.576L280.974 179.351C277.906 177.565 276.024 174.25 276.037 170.654L276.119 148.059C276.132 144.464 278.038 141.135 281.118 139.326L300.48 127.956C303.561 126.147 307.348 126.133 310.416 127.919L329.696 139.145Z" fill="#F8F7F3"/>
<g clip-path="url(#clip1_3850_11347)">
<path d="M304.516 171.705C311.278 171.705 316.761 166.129 316.761 159.251C316.761 152.373 311.278 146.797 304.516 146.797C297.753 146.797 292.271 152.373 292.271 159.251C292.271 166.129 297.753 171.705 304.516 171.705Z" fill="#F9E9E7"/>
<path d="M297.979 163.79L301.822 158.387L307.436 160.801L311.052 154.709" stroke="#F37441" stroke-linecap="round" stroke-linejoin="round"/>
<path d="M304.516 171.705C311.278 171.705 316.761 166.129 316.761 159.251C316.761 152.373 311.278 146.797 304.516 146.797C297.753 146.797 292.271 152.373 292.271 159.251C292.271 166.129 297.753 171.705 304.516 171.705Z" stroke="#F37441" stroke-linecap="round" stroke-linejoin="round"/>
<path d="M313.169 168.053L318.802 173.782" stroke="#F37441" stroke-linecap="round" stroke-linejoin="round"/>
</g>
<path d="M330.576 37.0241C333.669 38.8104 335.574 42.112 335.574 45.6853L335.572 68.1418C335.572 71.715 333.666 75.017 330.572 76.8039L311.129 88.0339C308.035 89.8208 304.224 89.8211 301.131 88.0348L281.69 76.8083C278.597 75.022 276.691 71.7204 276.691 68.1472L276.694 45.6906C276.694 42.1174 278.6 38.8154 281.694 37.0285L301.136 25.7985C304.23 24.0116 308.041 24.0113 311.135 25.7976L330.576 37.0241Z" fill="#F8F7F3"/>
<path d="M317.66 44.3418H294.421C293.138 44.3418 292.098 45.3827 292.098 46.6666V53.0597C292.098 54.3437 293.138 55.3845 294.421 55.3845H317.66C318.943 55.3845 319.983 54.3437 319.983 53.0597V46.6666C319.983 45.3827 318.943 44.3418 317.66 44.3418Z" fill="#F9E9E7"/>
<path d="M317.66 55.3848H294.421C293.138 55.3848 292.098 56.4256 292.098 57.7096V64.1027C292.098 65.3867 293.138 66.4275 294.421 66.4275H317.66C318.943 66.4275 319.983 65.3867 319.983 64.1027V57.7096C319.983 56.4256 318.943 55.3848 317.66 55.3848Z" fill="#F9E9E7"/>
<path d="M317.66 44.3418H294.421C293.138 44.3418 292.098 45.3827 292.098 46.6666V53.0597C292.098 54.3437 293.138 55.3845 294.421 55.3845H317.66C318.943 55.3845 319.983 54.3437 319.983 53.0597V46.6666C319.983 45.3827 318.943 44.3418 317.66 44.3418Z" stroke="#FF6849" stroke-linecap="round" stroke-linejoin="round"/>
<path d="M294.421 55.3848C293.805 55.3848 293.214 55.6297 292.778 56.0657C292.342 56.5017 292.098 57.093 292.098 57.7096V64.1027C292.098 64.7193 292.342 65.3107 292.778 65.7466C293.214 66.1825 293.805 66.4275 294.421 66.4275H317.66C318.276 66.4275 318.867 66.1825 319.303 65.7466C319.738 65.3107 319.983 64.7193 319.983 64.1027V57.7096C319.983 57.093 319.738 56.5017 319.303 56.0657C318.867 55.6297 318.276 55.3848 317.66 55.3848" stroke="#FF6849" stroke-linecap="round" stroke-linejoin="round"/>
<path d="M297.326 61.4866C297.005 61.4866 296.745 61.2264 296.745 60.9054C296.745 60.5844 297.005 60.3242 297.326 60.3242" stroke="#FF6849" stroke-linecap="round" stroke-linejoin="round"/>
<path d="M297.326 61.4866C297.647 61.4866 297.907 61.2264 297.907 60.9054C297.907 60.5844 297.647 60.3242 297.326 60.3242" stroke="#FF6849" stroke-linecap="round" stroke-linejoin="round"/>
<path d="M297.326 50.4436C297.005 50.4436 296.745 50.1834 296.745 49.8624C296.745 49.5415 297.005 49.2812 297.326 49.2812" stroke="#FF6849" stroke-linecap="round" stroke-linejoin="round"/>
<path d="M297.326 50.4436C297.647 50.4436 297.907 50.1834 297.907 49.8624C297.907 49.5415 297.647 49.2812 297.326 49.2812" stroke="#FF6849" stroke-linecap="round" stroke-linejoin="round"/>
<path d="M306.041 66.4277V72.2397" stroke="#FF6849" stroke-linecap="round" stroke-linejoin="round"/>
<path d="M294.422 72.2383H317.66" stroke="#FF6849" stroke-linecap="round" stroke-linejoin="round"/>
<path d="M307.202 49.8633H315.336" stroke="#FF6849" stroke-linecap="round" stroke-linejoin="round"/>
<path d="M307.202 60.9062H315.336" stroke="#FF6849" stroke-linecap="round" stroke-linejoin="round"/>
<path d="M143.441 146.496C140.347 144.71 138.441 141.408 138.441 137.836L138.441 97.3828C138.441 93.8101 140.347 90.5088 143.441 88.7225L178.474 68.496C181.568 66.7097 185.38 66.7097 188.474 68.496L223.507 88.7225C226.601 90.5088 228.507 93.8101 228.507 97.3828L228.507 137.836C228.507 141.408 226.601 144.71 223.507 146.496L188.474 166.723C185.38 168.509 181.568 168.509 178.474 166.723L143.441 146.496Z" fill="#303540"/>
<path d="M139.19 150.849L141.102 151.953L141.602 151.087L147.339 154.399L146.839 155.265L150.664 157.473L151.164 156.607L156.901 159.919L156.401 160.785L160.226 162.994L160.726 162.128L166.463 165.44L165.963 166.306L169.787 168.514L170.287 167.648L176.025 170.96L175.525 171.826L177.437 172.931C178.233 173.39 179.065 173.759 179.92 174.036L180.229 173.085C182.637 173.868 185.236 173.868 187.645 173.085L187.954 174.036C188.809 173.759 189.641 173.39 190.437 172.931L192.349 171.826L191.849 170.96L197.586 167.648L198.086 168.514L201.911 166.306L201.411 165.44L207.148 162.128L207.648 162.994L211.473 160.785L210.973 159.919L216.71 156.607L217.21 157.473L221.035 155.265L220.535 154.399L226.272 151.087L226.772 151.953L228.684 150.849C229.48 150.389 230.215 149.853 230.883 149.251L230.214 148.508C232.096 146.813 233.396 144.563 233.922 142.085L234.9 142.293C235.087 141.414 235.184 140.509 235.184 139.59L235.184 137.382L234.184 137.382L234.184 130.757L235.184 130.757L235.184 126.341L234.184 126.341L234.184 119.716L235.184 119.716L235.184 115.3L234.184 115.3L234.184 108.675L235.184 108.675L235.184 104.259L234.184 104.259L234.184 97.6344L235.184 97.6344L235.184 95.4262C235.184 94.5074 235.087 93.6022 234.9 92.7231L233.922 92.931C233.396 90.4537 232.096 88.203 230.214 86.5083L230.883 85.7651C230.215 85.1638 229.48 84.6272 228.684 84.1678L226.772 83.0637L226.272 83.9297L220.535 80.6174L221.035 79.7514L217.21 77.5432L216.71 78.4092L210.973 75.0969L211.473 74.2309L207.648 72.0227L207.148 72.8887L201.411 69.5764L201.911 68.7104L198.086 66.5022L197.586 67.3682L191.849 64.0559L192.349 63.1899L190.437 62.0858C189.641 61.6264 188.809 61.2578 187.954 60.9801L187.645 61.9311C185.236 61.1484 182.637 61.1484 180.229 61.9311L179.92 60.9801C179.065 61.2578 178.233 61.6264 177.437 62.0858L175.525 63.1899L176.025 64.0559L170.287 67.3682L169.787 66.5022L165.963 68.7104L166.463 69.5764L160.726 72.8887L160.226 72.0227L156.401 74.2309L156.901 75.0969L151.164 78.4092L150.664 77.5432L146.839 79.7514L147.339 80.6174L141.602 83.9297L141.102 83.0637L139.19 84.1678C138.394 84.6272 137.659 85.1638 136.991 85.7651L137.66 86.5083C135.778 88.203 134.478 90.4536 133.952 92.931L132.974 92.7231C132.787 93.6022 132.69 94.5074 132.69 95.4261L132.69 97.6343L133.69 97.6344L133.69 104.259L132.69 104.259L132.69 108.675L133.69 108.675L133.69 115.3L132.69 115.3L132.69 119.716L133.69 119.716L133.69 126.341L132.69 126.341L132.69 130.757L133.69 130.757L133.69 137.382L132.69 137.382L132.69 139.59C132.69 140.509 132.787 141.414 132.974 142.293L133.952 142.085C134.478 144.563 135.778 146.813 137.66 148.508L136.991 149.251C137.659 149.853 138.394 150.389 139.19 150.849Z" stroke="#FF6849" stroke-opacity="0.25" stroke-width="2" stroke-dasharray="4 6"/>
<path fill-rule="evenodd" clip-rule="evenodd" d="M163.122 105.322V134.943C163.122 136.704 164.55 138.131 166.31 138.131H201.377C203.138 138.131 204.565 136.704 204.565 134.943V105.322H163.122Z" fill="white"/>
<path fill-rule="evenodd" clip-rule="evenodd" d="M204.565 105.387H163.122V99.8774C163.122 98.1167 164.55 96.6895 166.31 96.6895H201.377C203.138 96.6895 204.565 98.1167 204.565 99.8774V105.387Z" fill="#F9E9E7"/>
<path d="M201.377 96.6895H166.31C164.55 96.6895 163.122 98.1167 163.122 99.8774V134.944C163.122 136.705 164.55 138.132 166.31 138.132H201.377C203.138 138.132 204.565 136.705 204.565 134.944V99.8774C204.565 98.1167 203.138 96.6895 201.377 96.6895Z" stroke="#FF6849" stroke-linecap="round" stroke-linejoin="round"/>
<path d="M163.122 105.322H204.566" stroke="#FF6849" stroke-linecap="round" stroke-linejoin="round"/>
<path d="M183.844 128.526L194.421 117.949" stroke="#FF6849" stroke-linecap="round" stroke-linejoin="round"/>
<path d="M194.421 128.529H197.443" stroke="#FF6849" stroke-linecap="round" stroke-linejoin="round"/>
<path d="M183.844 117.954V114.932" stroke="#FF6849" stroke-linecap="round" stroke-linejoin="round"/>
<path d="M176.38 121.065L174.234 118.92" stroke="#FF6849" stroke-linecap="round" stroke-linejoin="round"/>
<path d="M173.267 128.529H170.245" stroke="#FF6849" stroke-linecap="round" stroke-linejoin="round"/>
<path d="M242.679 76.7039L243.551 77.1926L242.679 76.7039ZM282.859 70.7482L276.857 76.4259L271.075 70.801L277.077 65.1234L282.859 70.7482ZM258.752 70.8561L258.733 71.835L258.721 71.8349L258.752 70.8561ZM253.517 70.8216L253.548 69.8428L253.517 70.8216ZM234.61 87.7301L236.049 85.4272L237.794 86.4044L236.355 88.7074L234.61 87.7301ZM240.367 78.5183L241.807 76.2153L243.551 77.1926L242.112 79.4955L240.367 78.5183ZM241.807 76.2153C242.297 75.4301 242.867 74.7048 243.501 74.0466L244.985 75.3575C244.448 75.9141 243.967 76.5278 243.551 77.1926L241.807 76.2153ZM250.761 70.1065C251.67 69.9268 252.603 69.8366 253.548 69.8428L253.486 71.8004C252.687 71.7952 251.897 71.8716 251.128 72.0235L250.761 70.1065ZM253.548 69.8428L254.595 69.8497L254.533 71.8073L253.486 71.8004L253.548 69.8428ZM257.736 69.8704L258.783 69.8773L258.721 71.8349L257.674 71.828L257.736 69.8704ZM258.771 69.8773L260.593 69.8692L260.554 71.8268L258.733 71.835L258.771 69.8773ZM266.057 69.8447L269.7 69.8284L269.662 71.786L266.019 71.8024L266.057 69.8447ZM275.165 69.8039L276.986 69.7958L276.948 71.7534L275.126 71.7616L275.165 69.8039ZM242.679 76.7039L243.551 77.1926L242.679 76.7039ZM282.859 70.7482L276.857 76.4259L271.075 70.801L277.077 65.1234L282.859 70.7482ZM258.752 70.8561L258.733 71.835L258.721 71.8349L258.752 70.8561ZM253.517 70.8216L253.548 69.8428L253.517 70.8216ZM234.61 87.7301L236.049 85.4272L237.794 86.4044L236.355 88.7074L234.61 87.7301ZM240.367 78.5183L241.807 76.2153L243.551 77.1926L242.112 79.4955L240.367 78.5183ZM241.807 76.2153C242.297 75.4301 242.867 74.7048 243.501 74.0466L244.985 75.3575C244.448 75.9141 243.967 76.5278 243.551 77.1926L241.807 76.2153ZM250.761 70.1065C251.67 69.9268 252.603 69.8366 253.548 69.8428L253.486 71.8004C252.687 71.7952 251.897 71.8716 251.128 72.0235L250.761 70.1065ZM253.548 69.8428L254.595 69.8497L254.533 71.8073L253.486 71.8004L253.548 69.8428ZM257.736 69.8704L258.783 69.8773L258.721 71.8349L257.674 71.828L257.736 69.8704ZM258.771 69.8773L260.593 69.8692L260.554 71.8268L258.733 71.835L258.771 69.8773ZM266.057 69.8447L269.7 69.8284L269.662 71.786L266.019 71.8024L266.057 69.8447ZM275.165 69.8039L276.986 69.7958L276.948 71.7534L275.126 71.7616L275.165 69.8039Z" fill="#FF6849" fill-opacity="0.25"/>
<path d="M124.43 76.8329L123.558 77.3215L124.43 76.8329ZM84.2502 70.8771L90.2527 76.5548L96.0344 70.9299L90.0319 65.2523L84.2502 70.8771ZM108.357 70.985L108.377 71.9639L108.388 71.9639L108.357 70.985ZM113.592 70.9505L113.561 69.9717L113.592 70.9505ZM132.499 87.859L131.06 85.5561L129.315 86.5333L130.755 88.8363L132.499 87.859ZM126.742 78.6472L125.303 76.3442L123.558 77.3215L124.997 79.6244L126.742 78.6472ZM125.303 76.3442C124.812 75.559 124.243 74.8337 123.608 74.1756L122.124 75.4864C122.661 76.043 123.143 76.6567 123.558 77.3215L125.303 76.3442ZM116.348 70.2354C115.439 70.0557 114.506 69.9655 113.561 69.9717L113.623 71.9293C114.423 71.9241 115.213 72.0005 115.981 72.1524L116.348 70.2354ZM113.561 69.9717L112.514 69.9786L112.576 71.9362L113.623 71.9293L113.561 69.9717ZM109.373 69.9993L108.327 70.0062L108.388 71.9639L109.435 71.957L109.373 69.9993ZM108.338 70.0062L106.517 69.9981L106.555 71.9557L108.377 71.9639L108.338 70.0062ZM101.052 69.9736L97.4092 69.9573L97.4475 71.915L101.09 71.9313L101.052 69.9736ZM91.9447 69.9328L90.1232 69.9247L90.1614 71.8823L91.9829 71.8905L91.9447 69.9328ZM124.43 76.8329L123.558 77.3215L124.43 76.8329ZM84.2502 70.8771L90.2527 76.5548L96.0344 70.9299L90.0319 65.2523L84.2502 70.8771ZM108.357 70.985L108.377 71.9639L108.388 71.9639L108.357 70.985ZM113.592 70.9505L113.561 69.9717L113.592 70.9505ZM132.499 87.859L131.06 85.5561L129.315 86.5333L130.755 88.8363L132.499 87.859ZM126.742 78.6472L125.303 76.3442L123.558 77.3215L124.997 79.6244L126.742 78.6472ZM125.303 76.3442C124.812 75.559 124.243 74.8337 123.608 74.1756L122.124 75.4864C122.661 76.043 123.143 76.6567 123.558 77.3215L125.303 76.3442ZM116.348 70.2354C115.439 70.0557 114.506 69.9655 113.561 69.9717L113.623 71.9293C114.423 71.9241 115.213 72.0005 115.981 72.1524L116.348 70.2354ZM113.561 69.9717L112.514 69.9786L112.576 71.9362L113.623 71.9293L113.561 69.9717ZM109.373 69.9993L108.327 70.0062L108.388 71.9639L109.435 71.957L109.373 69.9993ZM108.338 70.0062L106.517 69.9981L106.555 71.9557L108.377 71.9639L108.338 70.0062ZM101.052 69.9736L97.4092 69.9573L97.4475 71.915L101.09 71.9313L101.052 69.9736ZM91.9447 69.9328L90.1232 69.9247L90.1614 71.8823L91.9829 71.8905L91.9447 69.9328Z" fill="#FF6849" fill-opacity="0.25"/>
<path d="M247.011 167.624L247.895 167.154L247.011 167.624ZM283.147 173.7L277.118 168.049L271.364 173.7L277.393 179.351L283.147 173.7ZM263.039 173.7L263.015 172.721L263.008 172.721L263.039 173.7ZM257.987 173.733L257.956 172.754L257.987 173.733ZM233.374 146.647L234.65 148.792L236.417 147.852L235.142 145.708L233.374 146.647ZM238.475 155.226L241.026 159.515L242.793 158.576L240.243 154.286L238.475 155.226ZM244.852 165.949L246.127 168.094L247.895 167.154L246.619 165.01L244.852 165.949ZM246.127 168.094C246.61 168.906 247.176 169.657 247.811 170.34L249.32 169.055C248.782 168.478 248.303 167.842 247.895 167.154L246.127 168.094ZM255.173 174.437C256.1 174.624 257.053 174.718 258.018 174.712L257.956 172.754C257.139 172.76 256.333 172.68 255.549 172.522L255.173 174.437ZM258.018 174.712L259.029 174.705L258.967 172.748L257.956 172.754L258.018 174.712ZM262.06 174.685L263.07 174.679L263.008 172.721L261.998 172.728L262.06 174.685ZM263.063 174.679L265.906 174.679L265.859 172.721L263.015 172.721L263.063 174.679ZM274.436 174.679L277.279 174.679L277.232 172.721L274.388 172.721L274.436 174.679ZM247.011 167.624L247.895 167.154L247.011 167.624ZM283.147 173.7L277.118 168.049L271.364 173.7L277.393 179.351L283.147 173.7ZM263.039 173.7L263.015 172.721L263.008 172.721L263.039 173.7ZM257.987 173.733L257.956 172.754L257.987 173.733ZM233.374 146.647L234.65 148.792L236.417 147.852L235.142 145.708L233.374 146.647ZM238.475 155.226L241.026 159.515L242.793 158.576L240.243 154.286L238.475 155.226ZM244.852 165.949L246.127 168.094L247.895 167.154L246.619 165.01L244.852 165.949ZM246.127 168.094C246.61 168.906 247.176 169.657 247.811 170.34L249.32 169.055C248.782 168.478 248.303 167.842 247.895 167.154L246.127 168.094ZM255.173 174.437C256.1 174.624 257.053 174.718 258.018 174.712L257.956 172.754C257.139 172.76 256.333 172.68 255.549 172.522L255.173 174.437ZM258.018 174.712L259.029 174.705L258.967 172.748L257.956 172.754L258.018 174.712ZM262.06 174.685L263.07 174.679L263.008 172.721L261.998 172.728L262.06 174.685ZM263.063 174.679L265.906 174.679L265.859 172.721L263.015 172.721L263.063 174.679ZM274.436 174.679L277.279 174.679L277.232 172.721L274.388 172.721L274.436 174.679Z" fill="#FF6849" fill-opacity="0.25"/>
<path d="M120.097 167.753L119.213 167.283L120.097 167.753ZM83.9603 173.829L89.9897 168.178L95.7434 173.829L89.714 179.48L83.9603 173.829ZM104.068 173.829L104.092 172.85L104.099 172.85L104.068 173.829ZM109.12 173.862L109.151 172.883L109.12 173.862ZM133.733 146.776L132.458 148.921L130.69 147.981L131.966 145.836L133.733 146.776ZM128.632 155.355L126.082 159.644L124.314 158.705L126.864 154.415L128.632 155.355ZM122.256 166.078L120.98 168.223L119.213 167.283L120.488 165.139L122.256 166.078ZM120.98 168.223C120.498 169.035 119.931 169.786 119.296 170.468L117.788 169.184C118.325 168.607 118.804 167.971 119.213 167.283L120.98 168.223ZM111.934 174.566C111.007 174.753 110.054 174.847 109.089 174.841L109.151 172.883C109.968 172.889 110.774 172.809 111.558 172.651L111.934 174.566ZM109.089 174.841L108.079 174.834L108.141 172.877L109.151 172.883L109.089 174.841ZM105.048 174.814L104.037 174.808L104.099 172.85L105.109 172.857L105.048 174.814ZM104.044 174.808L101.201 174.808L101.249 172.85L104.092 172.85L104.044 174.808ZM92.6712 174.808L89.828 174.808L89.8757 172.85L92.719 172.85L92.6712 174.808ZM120.097 167.753L119.213 167.283L120.097 167.753ZM83.9603 173.829L89.9897 168.178L95.7434 173.829L89.714 179.48L83.9603 173.829ZM104.068 173.829L104.092 172.85L104.099 172.85L104.068 173.829ZM109.12 173.862L109.151 172.883L109.12 173.862ZM133.733 146.776L132.458 148.921L130.69 147.981L131.966 145.836L133.733 146.776ZM128.632 155.355L126.082 159.644L124.314 158.705L126.864 154.415L128.632 155.355ZM122.256 166.078L120.98 168.223L119.213 167.283L120.488 165.139L122.256 166.078ZM120.98 168.223C120.498 169.035 119.931 169.786 119.296 170.468L117.788 169.184C118.325 168.607 118.804 167.971 119.213 167.283L120.98 168.223ZM111.934 174.566C111.007 174.753 110.054 174.847 109.089 174.841L109.151 172.883C109.968 172.889 110.774 172.809 111.558 172.651L111.934 174.566ZM109.089 174.841L108.079 174.834L108.141 172.877L109.151 172.883L109.089 174.841ZM105.048 174.814L104.037 174.808L104.099 172.85L105.109 172.857L105.048 174.814ZM104.044 174.808L101.201 174.808L101.249 172.85L104.092 172.85L104.044 174.808ZM92.6712 174.808L89.828 174.808L89.8757 172.85L92.719 172.85L92.6712 174.808Z" fill="#FF6849" fill-opacity="0.25"/>
<defs>
<clipPath id="clip0_3850_11347">
<rect width="32.5333" height="32.547" fill="white" transform="translate(45.7738 144.018)"/>
</clipPath>
<clipPath id="clip1_3850_11347">
<rect width="28.5714" height="29.0598" fill="white" transform="translate(291.25 145.762)"/>
</clipPath>
</defs>
</svg>
