<svg width="322" height="219" viewBox="0 0 322 219" fill="none" xmlns="http://www.w3.org/2000/svg">
<path d="M155.873 74.1578C158.96 75.9441 160.859 79.2492 160.855 82.8281L160.801 136.374C160.798 139.953 158.892 143.262 155.802 145.055L109.564 171.875C106.474 173.667 102.668 173.671 99.5814 171.885L53.3977 145.159C50.3109 143.372 48.4115 140.067 48.4151 136.488L48.4689 82.9419C48.4725 79.363 50.3785 76.0541 53.4689 74.2615L99.7065 47.4416C102.797 45.649 106.602 45.6451 109.689 47.4315L155.873 74.1578Z" fill="#303540"/>
<path d="M90.7391 112.374C90.7391 114.364 89.8152 115.505 88.2046 115.505C86.7453 115.505 85.9119 114.414 85.9119 112.51L85.9119 107.418L84.0376 107.418L84.0376 112.562C84.0376 116.093 86.2157 117.346 88.0888 117.346C89.1308 117.346 90.0307 117.058 90.7426 116.511L90.7426 117.176L92.618 117.176L92.618 107.418L90.7426 107.418L90.7391 112.374Z" fill="white"/>
<path d="M99.0231 107.246C97.9811 107.246 97.0743 107.535 96.3682 108.082L96.3682 107.417L94.4939 107.417L94.4939 117.175L96.3682 117.175L96.3682 112.219C96.3682 110.228 97.2921 109.086 98.9027 109.086C100.362 109.086 101.195 110.178 101.195 112.083L101.195 117.175L103.071 117.175L103.071 112.031C103.071 108.499 100.893 107.246 99.0197 107.246" fill="white"/>
<path d="M106.691 107.418L104.816 107.418L104.816 117.176L106.691 117.176L106.691 107.418Z" fill="white"/>
<path d="M105.762 104.568C105.467 104.568 105.183 104.682 104.971 104.888C104.76 105.093 104.636 105.373 104.628 105.668C104.629 105.968 104.748 106.256 104.961 106.469C105.173 106.681 105.461 106.801 105.762 106.801C106.06 106.799 106.345 106.678 106.554 106.465C106.764 106.253 106.88 105.966 106.878 105.668C106.872 105.375 106.752 105.096 106.544 104.891C106.335 104.686 106.054 104.57 105.762 104.568Z" fill="white"/>
<path d="M112.141 115.405C111.973 115.471 111.795 115.505 111.616 115.506C111.421 115.506 111.094 115.506 111.094 114.763L111.094 103.07L109.219 103.07L109.219 114.801C109.219 116.375 110.105 117.351 111.53 117.351C111.968 117.355 112.402 117.26 112.8 117.073L113.22 116.862L112.962 114.996L112.141 115.405Z" fill="white"/>
<path d="M121.397 108.339C120.531 107.623 119.439 107.236 118.316 107.246C115.594 107.246 113.463 109.468 113.463 112.304C113.463 115.14 115.594 117.348 118.316 117.348C119.442 117.35 120.532 116.956 121.397 116.235L121.397 117.175L123.271 117.175L123.271 107.417L121.397 107.417L121.397 108.339ZM118.367 115.505C116.668 115.505 115.337 114.099 115.337 112.304C115.337 110.509 116.668 109.086 118.367 109.086C120.095 109.086 121.397 110.47 121.397 112.304C121.397 114.099 120.066 115.505 118.367 115.505Z" fill="white"/>
<path d="M134.96 107.418L132.449 107.418L128.9 111.309H127.678L127.678 103.066L125.804 103.066L125.804 117.176L127.678 117.176L127.678 113.166H128.862L132.446 117.176L134.932 117.176L130.55 112.243L134.96 107.418Z" fill="white"/>
<path d="M139.223 107.247C136.417 107.247 134.301 109.425 134.301 112.304C134.301 115.131 136.5 117.348 139.308 117.348C140.92 117.348 142.353 116.688 143.346 115.489L143.725 115.03L142.419 113.724L141.96 114.28C141.64 114.672 141.235 114.987 140.776 115.2C140.317 115.413 139.815 115.518 139.308 115.508C138.62 115.512 137.95 115.287 137.403 114.868C136.856 114.449 136.464 113.861 136.288 113.195L143.804 113.195L143.91 112.668C143.946 112.485 143.961 112.299 143.957 112.113C143.957 109.381 141.877 107.242 139.223 107.242M136.29 111.369C136.659 110.008 137.806 109.076 139.223 109.076C140.587 109.076 141.693 110.022 142.01 111.369L136.29 111.369Z" fill="white"/>
<path d="M66.0002 109.805L66.0002 116.51L67.9753 116.51V115.708C66.7143 114.551 65.999 112.022 65.999 109.801" fill="#FF6849"/>
<path d="M78.0224 109.805L78.0224 116.51L76.0461 116.51V115.708C77.3071 114.551 78.0224 112.022 78.0224 109.801" fill="#FF6849"/>
<path d="M76.0459 104.887L76.0459 110.052C76.0459 111.688 75.5736 112.955 74.7162 113.755L74.7162 108.648L72.6757 108.648L72.6757 114.677C72.4543 114.708 72.231 114.725 72.0073 114.726C71.7841 114.725 71.5612 114.708 71.3402 114.677L71.3402 103.066L69.3031 103.066L69.3031 113.755C68.4457 112.952 67.9734 111.691 67.9734 110.052L67.9734 106.746L65.9971 106.746L65.9971 110.052C65.9971 114.078 68.3562 116.68 72.0073 116.68C75.6585 116.68 78.0188 114.078 78.0188 110.052L78.0188 104.887L76.0459 104.887Z" fill="#FF6849"/>
<path d="M109.065 56.0568C109.06 59.9055 111.1 63.4593 114.417 65.3796L138.989 79.606C142.305 81.5263 146.394 81.5213 149.716 79.5928L174.322 65.3061C177.643 63.3776 179.692 59.8188 179.697 55.97L179.732 27.4569C179.736 23.6082 177.696 20.0543 174.379 18.1341L149.808 3.90768C146.491 1.9874 142.402 1.99242 139.081 3.92085L114.474 18.2076C111.153 20.136 109.104 23.6949 109.1 27.5436L109.065 56.0568Z" stroke="#FF6849" stroke-width="1.5"/>
<path d="M118.792 61.9746C115.707 60.1883 113.809 56.8824 113.813 53.3022L113.842 29.7997C113.846 26.2194 115.752 22.9089 118.842 21.115L139.124 9.33881C142.213 7.54492 146.017 7.54025 149.102 9.32656L169.356 21.053C172.441 22.8393 174.339 26.1452 174.335 29.7254L174.306 53.2279C174.302 56.8081 172.396 60.1187 169.306 61.9126L149.024 73.6888C145.935 75.4827 142.131 75.4873 139.045 73.701L118.792 61.9746Z" fill="#F8F8F8"/>
<path d="M144.324 46.6375C147.077 46.6375 151.736 46.2043 151.736 44.5833V35.3413C151.736 33.7203 147.077 33.2871 144.324 33.2871C141.572 33.2871 136.912 33.7203 136.912 35.3413V44.5833C136.912 46.2043 141.572 46.6375 144.324 46.6375ZM144.324 45.6111C140.519 45.6111 138.248 44.9287 138.053 44.5846V42.6844C139.609 43.3511 142.422 43.5569 144.324 43.5569C146.227 43.5569 149.046 43.3487 150.602 42.6844V44.5485C150.4 44.9287 148.13 45.6111 144.324 45.6111ZM144.324 34.3148C148.011 34.3148 150.257 34.955 150.577 35.3413C150.257 35.7288 148.012 36.3678 144.324 36.3678C140.636 36.3678 138.391 35.7276 138.071 35.3413C138.392 34.955 140.638 34.3148 144.324 34.3148ZM138.053 36.5231C139.609 37.1897 142.422 37.3955 144.324 37.3955C146.227 37.3955 149.041 37.1897 150.595 36.5231V38.3907C150.373 38.7734 148.108 39.4485 144.324 39.4485C140.519 39.4485 138.248 38.7662 138.053 38.422V36.5231ZM138.053 39.6037C139.609 40.2704 142.422 40.4762 144.324 40.4762C146.227 40.4762 149.044 40.268 150.599 39.6037V41.469C150.388 41.8517 148.12 42.5304 144.324 42.5304C140.519 42.5304 138.248 41.8481 138.053 41.5039V39.6037Z" fill="#303540"/>
<path d="M132.923 57.4188H155.726C156.671 57.4188 157.436 56.7292 157.436 55.8784V33.7998C157.455 33.0068 157.105 32.2426 156.472 31.6915L151.796 27.4808C151.184 26.9104 150.336 26.5951 149.455 26.612H132.923C131.978 26.612 131.212 27.3015 131.212 28.1523V55.8784C131.212 56.7292 131.978 57.4188 132.923 57.4188ZM155.727 56.3923H132.923C132.607 56.3923 132.352 56.1625 132.352 55.8784V49.2032H156.296V55.8784C156.296 56.0144 156.236 56.1456 156.129 56.2419C156.023 56.3381 155.877 56.3923 155.726 56.3923L155.727 56.3923ZM155.491 32.2607L152.305 32.2595C151.676 32.2595 151.166 31.7998 151.166 31.233V28.3654L155.491 32.2607ZM132.923 27.6385H149.455C149.606 27.6385 149.752 27.6926 149.859 27.7889C149.966 27.8852 150.026 28.0163 150.026 28.1523V31.233C150.026 31.7781 150.265 32.3004 150.694 32.6855C151.121 33.0706 151.701 33.2872 152.305 33.2872H155.726C155.877 33.2872 156.022 33.3413 156.129 33.4376C156.236 33.5339 156.296 33.6638 156.296 33.7998V48.1767H132.352V28.1523C132.352 27.8683 132.607 27.6385 132.923 27.6385Z" fill="#303540"/>
<path d="M151.165 54.3377H148.884V50.7431C148.884 50.4603 148.629 50.2305 148.315 50.2305C148 50.2305 147.745 50.4603 147.745 50.7431V54.8515C147.745 54.9875 147.805 55.1175 147.912 55.2137C148.019 55.31 148.164 55.3642 148.315 55.3642H151.165C151.481 55.3642 151.736 55.1343 151.736 54.8515C151.736 54.5675 151.481 54.3377 151.165 54.3377Z" fill="#303540"/>
<path d="M139.193 52.2835C138.99 52.2835 138.802 52.186 138.7 52.0271C138.599 51.8683 138.599 51.6722 138.7 51.5133C138.802 51.3544 138.99 51.257 139.195 51.257C139.398 51.257 139.586 51.3544 139.688 51.5133C139.849 51.7492 140.19 51.8274 140.457 51.6878C140.724 51.5494 140.821 51.2449 140.674 51.0006C140.369 50.5241 139.804 50.2305 139.193 50.2305C138.583 50.2305 138.017 50.5241 137.711 51.0006C137.407 51.4772 137.407 52.0644 137.711 52.541C138.017 53.0175 138.583 53.3111 139.193 53.3111C139.396 53.3111 139.585 53.4086 139.686 53.5675C139.788 53.7263 139.788 53.9225 139.686 54.0813C139.585 54.2402 139.396 54.3376 139.192 54.3376C138.989 54.3376 138.8 54.2402 138.699 54.0813C138.537 53.8455 138.196 53.7673 137.929 53.9068C137.662 54.0452 137.566 54.3497 137.713 54.594C138.017 55.0705 138.583 55.3641 139.193 55.3641C139.804 55.3641 140.369 55.0705 140.675 54.594C140.98 54.1174 140.98 53.5302 140.675 53.0536C140.369 52.5771 139.804 52.2835 139.193 52.2835Z" fill="#303540"/>
<path d="M144.324 50.2305C143.064 50.2305 142.043 51.1499 142.043 52.2835V53.3111C142.043 53.8551 142.284 54.3773 142.711 54.7624C143.139 55.1487 143.719 55.3641 144.324 55.3641C144.73 55.3629 145.127 55.2618 145.475 55.0729L145.631 55.2137C145.855 55.4086 146.211 55.4062 146.43 55.2077C146.65 55.0103 146.653 54.689 146.438 54.4881L146.282 54.3473C146.491 54.0344 146.602 53.6758 146.605 53.3111V52.2835C146.605 51.7395 146.364 51.2173 145.937 50.8322C145.509 50.4459 144.929 50.2305 144.324 50.2305ZM145.297 53.4615C145.074 53.2665 144.718 53.2689 144.498 53.4675C144.279 53.6649 144.275 53.9862 144.491 54.1871L144.615 54.299C144.521 54.3231 144.423 54.3363 144.324 54.3375C143.695 54.3375 143.184 53.8778 143.184 53.3111V52.2834C143.184 51.7166 143.695 51.2569 144.324 51.2569C144.953 51.2569 145.464 51.7166 145.464 52.2834V53.3111C145.463 53.3989 145.449 53.488 145.421 53.5734L145.297 53.4615Z" fill="#303540"/>
<path d="M114.479 191.557C114.475 195.405 116.515 198.959 119.832 200.88L144.403 215.106C147.72 217.026 151.809 217.021 155.13 215.093L179.737 200.806C183.058 198.878 185.107 195.319 185.111 191.47L185.146 162.957C185.151 159.108 183.111 155.554 179.794 153.634L155.222 139.408C151.906 137.487 147.817 137.492 144.495 139.421L119.889 153.708C116.568 155.636 114.519 159.195 114.514 163.044L114.479 191.557Z" stroke="#FF6849" stroke-width="1.5"/>
<path d="M124.206 197.475C121.121 195.688 119.223 192.382 119.228 188.802L119.256 165.3C119.26 161.719 121.166 158.409 124.256 156.615L144.538 144.839C147.628 143.045 151.432 143.04 154.517 144.827L174.771 156.553C177.856 158.339 179.754 161.645 179.749 165.225L179.721 188.728C179.716 192.308 177.811 195.619 174.721 197.413L154.439 209.189C151.349 210.983 147.545 210.987 144.46 209.201L124.206 197.475Z" fill="#F8F8F8"/>
<path d="M155.925 175.024V168.437C155.925 168.159 155.816 167.892 155.619 167.694C155.423 167.496 155.155 167.385 154.876 167.385H151.586C150.956 167.385 150.441 166.871 150.441 166.23V162.922C150.441 162.644 150.331 162.376 150.135 162.179L149.78 162.531L150.135 162.179C150.063 162.106 149.981 162.045 149.892 161.997V161.864L149.392 161.864L136.231 161.87C136.231 161.87 136.231 161.87 136.231 161.87C135.649 161.87 135.183 162.344 135.183 162.922V188.291C135.183 188.868 135.65 189.341 136.231 189.341C136.231 189.341 136.231 189.341 136.231 189.341L138.453 189.342L139.001 189.342L138.951 188.797C138.935 188.623 138.925 188.456 138.925 188.29L138.925 188.29C138.923 187.264 139.205 186.258 139.738 185.383L155.925 175.024ZM155.925 175.024V175.396V175.397H155.425H155.425L155.282 175.875C153.825 175.438 152.267 175.477 150.834 175.988C149.401 176.499 148.165 177.455 147.306 178.719L147.122 178.988L146.802 178.929C145.669 178.722 144.502 179.031 143.617 179.773L143.617 179.773C142.731 180.515 142.217 181.615 142.215 182.775V182.889V183.194L141.943 183.334C141.034 183.799 140.271 184.508 139.738 185.382L155.925 175.024ZM160.397 182.473L160.413 182.834L160.761 182.932C162.489 183.421 163.875 184.725 164.475 186.429C165.076 188.134 164.816 190.026 163.779 191.503C162.743 192.979 161.058 193.856 159.263 193.857H144.458C143.256 193.855 142.086 193.459 141.126 192.729L141.126 192.728C140.167 191.999 139.469 190.974 139.14 189.809L139.037 189.445H138.659H136.231C135.601 189.445 135.086 188.931 135.086 188.291V162.922C135.086 162.282 135.601 161.768 136.231 161.768H149.392C149.438 161.768 149.47 161.769 149.498 161.772L149.514 161.773L149.531 161.774C149.882 161.786 150.224 161.87 150.537 162.017V163.15V166.231C150.537 166.809 151.004 167.282 151.586 167.282H154.649H155.769C155.916 167.599 156.001 167.944 156.016 168.299L156.016 168.31L156.017 168.322C156.02 168.357 156.022 168.384 156.022 168.409V175.827V176.142L156.306 176.278C157.483 176.84 158.486 177.712 159.206 178.804L159.206 178.804C159.927 179.895 160.34 181.164 160.397 182.473ZM151.392 162.798L150.698 162.1C150.909 162.218 151.105 162.366 151.279 162.541L151.279 162.542L155.249 166.533C155.249 166.534 155.249 166.534 155.249 166.534C155.421 166.707 155.566 166.903 155.683 167.113L155.004 166.43L151.392 162.798ZM159.808 182.797C159.761 183.091 159.952 183.369 160.241 183.427C161.853 183.756 163.196 184.873 163.821 186.402C164.447 187.933 164.273 189.675 163.358 191.05L159.808 182.797ZM159.264 193.754C161.077 193.751 162.769 192.841 163.775 191.327C164.781 189.814 164.972 187.897 164.284 186.213C163.596 184.53 162.117 183.3 160.341 182.937L160.34 182.937C160.317 182.932 160.297 182.908 160.302 182.877L160.308 182.838V182.797C160.308 180.716 159.402 178.736 157.825 177.383C156.249 176.03 154.162 175.439 152.114 175.767C150.066 176.095 148.265 177.308 147.185 179.086C147.172 179.107 147.15 179.113 147.132 179.108L147.131 179.108C145.987 178.786 144.76 179.02 143.814 179.741L143.814 179.741C142.87 180.461 142.314 181.584 142.311 182.774H142.311L142.312 182.78C142.313 182.926 142.322 183.074 142.339 183.223C142.341 183.246 142.328 183.267 142.309 183.275L142.307 183.276C140.766 183.946 139.62 185.294 139.201 186.928C138.783 188.561 139.139 190.297 140.166 191.631C141.193 192.968 142.776 193.751 144.456 193.754L144.457 193.754L158.823 193.753L158.823 193.755L159.264 193.754Z" fill="#303540" stroke="#303540"/>
<mask id="path-23-inside-1_3764_21241" fill="white">
<path d="M137.395 171.279L137.843 171.458C137.96 171.88 138.129 172.287 138.342 172.671L138.145 173.128C138.019 173.453 138.076 173.822 138.292 174.095C138.562 174.415 138.86 174.712 139.18 174.982C139.454 175.191 139.816 175.237 140.132 175.105L140.571 174.914H140.572C140.952 175.129 141.357 175.297 141.777 175.415L141.956 175.869C142.089 176.195 142.389 176.421 142.738 176.456C142.91 176.471 143.132 176.486 143.38 176.486C143.579 176.487 143.78 176.477 143.979 176.455C144.327 176.42 144.628 176.194 144.759 175.868L144.937 175.417V175.415C145.357 175.298 145.762 175.129 146.144 174.914L146.596 175.11H146.595C146.919 175.24 147.287 175.184 147.559 174.964C147.877 174.693 148.173 174.393 148.442 174.071C148.649 173.797 148.695 173.433 148.564 173.113L148.374 172.673C148.587 172.29 148.755 171.883 148.872 171.459L149.323 171.279V171.281C149.647 171.147 149.872 170.846 149.906 170.496C149.947 170.081 149.947 169.662 149.906 169.247C149.871 168.897 149.646 168.595 149.322 168.463L148.874 168.283L148.872 168.285C148.754 167.861 148.587 167.453 148.374 167.071L148.569 166.617C148.696 166.291 148.641 165.92 148.424 165.648C148.154 165.325 147.858 165.026 147.539 164.753C147.266 164.548 146.903 164.501 146.587 164.632L146.149 164.823C145.768 164.608 145.362 164.44 144.942 164.322L144.763 163.869H144.764C144.631 163.542 144.329 163.316 143.979 163.281C143.567 163.242 143.151 163.242 142.738 163.281C142.389 163.317 142.09 163.543 141.959 163.87L141.78 164.322C141.36 164.44 140.955 164.608 140.573 164.823L140.119 164.625H140.121C139.797 164.5 139.431 164.555 139.158 164.773C138.839 165.045 138.544 165.345 138.274 165.667C138.069 165.942 138.023 166.307 138.153 166.625L138.343 167.066C138.13 167.448 137.963 167.857 137.845 168.279L137.395 168.459C137.07 168.592 136.846 168.893 136.81 169.244C136.77 169.66 136.77 170.077 136.81 170.492C136.845 170.844 137.07 171.146 137.395 171.279ZM137.892 169.448L138.509 169.202C138.677 169.135 138.802 168.989 138.842 168.811C138.952 168.31 139.148 167.833 139.419 167.4C139.517 167.247 139.532 167.054 139.46 166.887L139.197 166.276C139.38 166.066 139.577 165.867 139.785 165.683L140.395 165.947H140.393C140.56 166.02 140.752 166.004 140.905 165.907C141.335 165.633 141.81 165.437 142.307 165.326C142.483 165.286 142.63 165.16 142.696 164.991L142.941 164.371C143.22 164.347 143.5 164.347 143.779 164.371L144.022 164.99H144.023C144.09 165.159 144.235 165.284 144.412 165.324C144.91 165.436 145.384 165.632 145.815 165.906C145.968 166.003 146.158 166.019 146.325 165.946L146.934 165.681C147.142 165.866 147.339 166.065 147.523 166.275L147.259 166.886C147.187 167.054 147.203 167.245 147.3 167.4C147.572 167.833 147.767 168.309 147.877 168.809C147.917 168.988 148.042 169.135 148.212 169.202L148.829 169.448C148.85 169.728 148.85 170.01 148.829 170.291L148.213 170.535H148.212C148.043 170.602 147.919 170.749 147.879 170.928C147.768 171.427 147.573 171.904 147.3 172.337C147.204 172.49 147.189 172.683 147.261 172.85L147.524 173.462C147.34 173.673 147.144 173.871 146.935 174.056L146.326 173.791V173.789C146.159 173.718 145.969 173.733 145.816 173.831C145.385 174.105 144.911 174.301 144.414 174.412C144.236 174.453 144.091 174.578 144.024 174.747L143.78 175.368C143.501 175.391 143.221 175.391 142.942 175.368L142.698 174.749C142.631 174.579 142.484 174.453 142.308 174.414C141.811 174.303 141.337 174.105 140.906 173.832C140.753 173.735 140.562 173.72 140.395 173.791L139.787 174.056C139.578 173.872 139.382 173.674 139.198 173.465L139.461 172.852V172.851C139.532 172.684 139.518 172.492 139.42 172.338C139.149 171.905 138.952 171.428 138.842 170.928C138.803 170.751 138.677 170.603 138.509 170.536L137.892 170.29C137.87 170.01 137.87 169.728 137.892 169.448Z"/>
</mask>
<path d="M137.395 171.279L137.843 171.458C137.96 171.88 138.129 172.287 138.342 172.671L138.145 173.128C138.019 173.453 138.076 173.822 138.292 174.095C138.562 174.415 138.86 174.712 139.18 174.982C139.454 175.191 139.816 175.237 140.132 175.105L140.571 174.914H140.572C140.952 175.129 141.357 175.297 141.777 175.415L141.956 175.869C142.089 176.195 142.389 176.421 142.738 176.456C142.91 176.471 143.132 176.486 143.38 176.486C143.579 176.487 143.78 176.477 143.979 176.455C144.327 176.42 144.628 176.194 144.759 175.868L144.937 175.417V175.415C145.357 175.298 145.762 175.129 146.144 174.914L146.596 175.11H146.595C146.919 175.24 147.287 175.184 147.559 174.964C147.877 174.693 148.173 174.393 148.442 174.071C148.649 173.797 148.695 173.433 148.564 173.113L148.374 172.673C148.587 172.29 148.755 171.883 148.872 171.459L149.323 171.279V171.281C149.647 171.147 149.872 170.846 149.906 170.496C149.947 170.081 149.947 169.662 149.906 169.247C149.871 168.897 149.646 168.595 149.322 168.463L148.874 168.283L148.872 168.285C148.754 167.861 148.587 167.453 148.374 167.071L148.569 166.617C148.696 166.291 148.641 165.92 148.424 165.648C148.154 165.325 147.858 165.026 147.539 164.753C147.266 164.548 146.903 164.501 146.587 164.632L146.149 164.823C145.768 164.608 145.362 164.44 144.942 164.322L144.763 163.869H144.764C144.631 163.542 144.329 163.316 143.979 163.281C143.567 163.242 143.151 163.242 142.738 163.281C142.389 163.317 142.09 163.543 141.959 163.87L141.78 164.322C141.36 164.44 140.955 164.608 140.573 164.823L140.119 164.625H140.121C139.797 164.5 139.431 164.555 139.158 164.773C138.839 165.045 138.544 165.345 138.274 165.667C138.069 165.942 138.023 166.307 138.153 166.625L138.343 167.066C138.13 167.448 137.963 167.857 137.845 168.279L137.395 168.459C137.07 168.592 136.846 168.893 136.81 169.244C136.77 169.66 136.77 170.077 136.81 170.492C136.845 170.844 137.07 171.146 137.395 171.279ZM137.892 169.448L138.509 169.202C138.677 169.135 138.802 168.989 138.842 168.811C138.952 168.31 139.148 167.833 139.419 167.4C139.517 167.247 139.532 167.054 139.46 166.887L139.197 166.276C139.38 166.066 139.577 165.867 139.785 165.683L140.395 165.947H140.393C140.56 166.02 140.752 166.004 140.905 165.907C141.335 165.633 141.81 165.437 142.307 165.326C142.483 165.286 142.63 165.16 142.696 164.991L142.941 164.371C143.22 164.347 143.5 164.347 143.779 164.371L144.022 164.99H144.023C144.09 165.159 144.235 165.284 144.412 165.324C144.91 165.436 145.384 165.632 145.815 165.906C145.968 166.003 146.158 166.019 146.325 165.946L146.934 165.681C147.142 165.866 147.339 166.065 147.523 166.275L147.259 166.886C147.187 167.054 147.203 167.245 147.3 167.4C147.572 167.833 147.767 168.309 147.877 168.809C147.917 168.988 148.042 169.135 148.212 169.202L148.829 169.448C148.85 169.728 148.85 170.01 148.829 170.291L148.213 170.535H148.212C148.043 170.602 147.919 170.749 147.879 170.928C147.768 171.427 147.573 171.904 147.3 172.337C147.204 172.49 147.189 172.683 147.261 172.85L147.524 173.462C147.34 173.673 147.144 173.871 146.935 174.056L146.326 173.791V173.789C146.159 173.718 145.969 173.733 145.816 173.831C145.385 174.105 144.911 174.301 144.414 174.412C144.236 174.453 144.091 174.578 144.024 174.747L143.78 175.368C143.501 175.391 143.221 175.391 142.942 175.368L142.698 174.749C142.631 174.579 142.484 174.453 142.308 174.414C141.811 174.303 141.337 174.105 140.906 173.832C140.753 173.735 140.562 173.72 140.395 173.791L139.787 174.056C139.578 173.872 139.382 173.674 139.198 173.465L139.461 172.852V172.851C139.532 172.684 139.518 172.492 139.42 172.338C139.149 171.905 138.952 171.428 138.842 170.928C138.803 170.751 138.677 170.603 138.509 170.536L137.892 170.29C137.87 170.01 137.87 169.728 137.892 169.448Z" fill="#303540" stroke="#303540" stroke-width="2" mask="url(#path-23-inside-1_3764_21241)"/>
<path d="M145.937 170.945L145.936 170.945C145.504 171.996 144.487 172.679 143.359 172.679C141.822 172.677 140.571 171.423 140.569 169.87C140.569 168.732 141.251 167.709 142.293 167.275L142.294 167.275C143.334 166.84 144.533 167.079 145.332 167.882C146.131 168.686 146.37 169.895 145.937 170.945ZM145.265 171.781C146.034 171.007 146.264 169.845 145.848 168.836C145.432 167.825 144.451 167.164 143.359 167.164C141.869 167.164 140.666 168.378 140.666 169.87C140.666 170.962 141.32 171.949 142.327 172.369C143.336 172.789 144.495 172.557 145.265 171.781Z" fill="#303540" stroke="#303540"/>
<path d="M145.487 187.041C145.574 187.041 145.658 187.08 145.72 187.148C145.781 187.216 145.816 187.308 145.816 187.405V189.225C145.816 189.828 146.258 190.317 146.803 190.317C146.984 190.317 147.132 190.154 147.132 189.953C147.132 189.751 146.984 189.588 146.803 189.588C146.621 189.588 146.474 189.425 146.474 189.225V187.405C146.474 187.136 146.384 186.877 146.222 186.677C146.384 186.477 146.474 186.218 146.474 185.949V184.129C146.474 183.929 146.621 183.766 146.803 183.766C146.984 183.766 147.132 183.603 147.132 183.401C147.132 183.2 146.984 183.037 146.803 183.037C146.258 183.037 145.816 183.526 145.816 184.129V185.949C145.816 186.046 145.781 186.138 145.72 186.206C145.658 186.274 145.574 186.313 145.487 186.313C145.305 186.313 145.157 186.476 145.157 186.677C145.157 186.878 145.305 187.041 145.487 187.041Z" fill="#303540" stroke="#303540" stroke-width="0.7"/>
<path d="M157.778 189.225C157.778 189.321 157.744 189.413 157.682 189.482C157.62 189.55 157.536 189.588 157.449 189.588C157.268 189.588 157.121 189.751 157.121 189.953C157.121 190.154 157.268 190.317 157.449 190.317C157.994 190.317 158.436 189.828 158.436 189.225V187.405C158.436 187.204 158.584 187.041 158.766 187.041C158.948 187.041 159.095 186.878 159.095 186.677C159.095 186.476 158.948 186.313 158.766 186.313C158.584 186.313 158.436 186.15 158.436 185.949V184.129C158.436 183.526 157.994 183.037 157.449 183.037C157.268 183.037 157.121 183.2 157.121 183.401C157.121 183.603 157.268 183.766 157.449 183.766C157.536 183.766 157.62 183.804 157.682 183.872C157.744 183.94 157.778 184.033 157.778 184.129V185.949C157.778 186.218 157.868 186.477 158.031 186.677C157.868 186.877 157.778 187.136 157.778 187.405V189.225Z" fill="#303540" stroke="#303540" stroke-width="0.7"/>
<circle cx="151" cy="186.768" r="0.5" fill="#303540" stroke="#303540"/>
<circle cx="154.5" cy="186.768" r="0.5" fill="#303540" stroke="#303540"/>
<circle cx="158" cy="186.768" r="0.5" fill="#303540" stroke="#303540"/>
<path d="M151.479 122.557C151.475 126.405 153.515 129.959 156.832 131.88L181.403 146.106C184.72 148.026 188.809 148.021 192.13 146.093L216.737 131.806C220.058 129.878 222.107 126.319 222.111 122.47L222.146 93.9569C222.151 90.1082 220.111 86.5543 216.794 84.6341L192.222 70.4077C188.906 68.4874 184.817 68.4924 181.495 70.4209L156.889 84.7076C153.568 86.636 151.519 90.1949 151.514 94.0436L151.479 122.557Z" stroke="#FF6849" stroke-width="1.5"/>
<path d="M161.206 128.475C158.121 126.688 156.223 123.382 156.228 119.802L156.256 96.2997C156.26 92.7194 158.166 89.4089 161.256 87.615L181.538 75.8388C184.628 74.0449 188.432 74.0403 191.517 75.8266L211.771 87.553C214.856 89.3393 216.754 92.6452 216.749 96.2254L216.721 119.728C216.716 123.308 214.811 126.619 211.721 128.413L191.439 140.189C188.349 141.983 184.545 141.987 181.46 140.201L161.206 128.475Z" fill="#F8F8F8"/>
<path d="M186.718 100.958L197.769 98.1867L197.769 119.18L186.718 116.493L186.718 100.958Z" fill="#FF6849"/>
<path d="M187.041 100.874L176.312 98.1867L176.312 119.18L187.041 116.493L187.041 100.874Z" fill="#8C3123"/>
<path d="M187.041 124.807L187.041 116.661L182.362 115.486L182.362 122.371L187.041 124.807ZM176.312 119.181L176.312 98.1875L174.215 99.2792L174.215 118.173L176.312 119.181ZM187.041 112.715L187.041 104.569L182.362 105.241L182.362 112.127L187.041 112.715ZM182.362 101.882L187.041 100.707L187.041 92.5614L182.362 94.9966L182.362 101.882Z" fill="#FF6849"/>
<path d="M187.041 92.5605L187.041 100.706L191.719 101.881L191.719 94.9957L187.041 92.5605ZM197.769 98.1867L197.769 119.18L199.866 118.088L199.866 99.1943L197.769 98.1867ZM187.041 104.653L187.041 112.798L191.719 112.126L191.719 105.24L187.041 104.653ZM191.719 115.485L187.041 116.66L187.041 124.806L191.719 122.371L191.719 115.485Z" fill="#8C3123"/>
<path d="M182.362 115.487L187.041 114.563L191.719 115.487L187.041 116.746L182.362 115.487Z" fill="#5E1F18"/>
<path d="M182.362 101.883L187.041 102.807L191.719 101.883L187.041 100.539L182.362 101.883Z" fill="#F2B0A9"/>
<path d="M281.48 110.965C281.048 110.965 280.676 110.873 280.364 110.688C280.054 110.502 279.814 110.24 279.645 109.903C279.477 109.565 279.394 109.168 279.394 108.713C279.394 108.264 279.477 107.868 279.645 107.526C279.814 107.183 280.05 106.916 280.353 106.724C280.657 106.532 281.013 106.436 281.42 106.436C281.667 106.436 281.907 106.476 282.139 106.558C282.371 106.64 282.58 106.769 282.764 106.944C282.949 107.119 283.094 107.346 283.201 107.626C283.307 107.903 283.361 108.241 283.361 108.639V108.941H279.876V108.302H282.524C282.524 108.078 282.479 107.879 282.387 107.706C282.296 107.531 282.168 107.393 282.002 107.292C281.839 107.191 281.646 107.14 281.426 107.14C281.186 107.14 280.977 107.199 280.798 107.317C280.621 107.434 280.484 107.586 280.387 107.774C280.292 107.961 280.244 108.163 280.244 108.382V108.881C280.244 109.174 280.295 109.424 280.398 109.629C280.503 109.835 280.648 109.992 280.835 110.1C281.021 110.207 281.239 110.26 281.488 110.26C281.65 110.26 281.798 110.237 281.931 110.191C282.064 110.144 282.179 110.074 282.276 109.98C282.373 109.887 282.447 109.772 282.499 109.635L283.306 109.78C283.242 110.018 283.126 110.227 282.958 110.406C282.793 110.582 282.584 110.72 282.333 110.819C282.084 110.916 281.8 110.965 281.48 110.965Z" fill="#6F6E73"/>
<path d="M276.468 112.612C276.12 112.612 275.82 112.566 275.569 112.475C275.32 112.383 275.116 112.263 274.958 112.112C274.8 111.962 274.683 111.797 274.605 111.618L275.338 111.316C275.389 111.4 275.458 111.488 275.543 111.581C275.631 111.677 275.749 111.757 275.897 111.824C276.048 111.891 276.241 111.924 276.477 111.924C276.8 111.924 277.068 111.845 277.279 111.687C277.49 111.531 277.596 111.282 277.596 110.939V110.077H277.541C277.49 110.171 277.416 110.274 277.319 110.388C277.224 110.503 277.092 110.602 276.925 110.685C276.757 110.769 276.54 110.811 276.271 110.811C275.925 110.811 275.613 110.73 275.335 110.568C275.059 110.405 274.84 110.164 274.679 109.846C274.519 109.526 274.439 109.134 274.439 108.667C274.439 108.201 274.518 107.802 274.676 107.469C274.836 107.136 275.054 106.881 275.332 106.704C275.61 106.525 275.925 106.436 276.277 106.436C276.549 106.436 276.769 106.481 276.936 106.573C277.104 106.662 277.234 106.767 277.327 106.886C277.422 107.006 277.496 107.112 277.547 107.203H277.61V106.493H278.446V110.973C278.446 111.35 278.359 111.659 278.183 111.901C278.008 112.143 277.772 112.322 277.473 112.438C277.176 112.554 276.841 112.612 276.468 112.612ZM276.46 110.103C276.705 110.103 276.912 110.046 277.082 109.932C277.253 109.816 277.382 109.65 277.47 109.435C277.559 109.218 277.604 108.959 277.604 108.656C277.604 108.361 277.56 108.101 277.473 107.877C277.385 107.652 277.257 107.477 277.088 107.352C276.918 107.224 276.709 107.16 276.46 107.16C276.203 107.16 275.989 107.227 275.817 107.36C275.646 107.492 275.517 107.67 275.429 107.897C275.344 108.123 275.301 108.376 275.301 108.656C275.301 108.943 275.345 109.195 275.432 109.412C275.52 109.629 275.649 109.799 275.82 109.92C275.993 110.042 276.207 110.103 276.46 110.103Z" fill="#6F6E73"/>
<path d="M271.33 110.973C271.052 110.973 270.801 110.922 270.577 110.819C270.352 110.715 270.174 110.563 270.043 110.366C269.914 110.168 269.849 109.925 269.849 109.638C269.849 109.39 269.896 109.187 269.992 109.027C270.087 108.867 270.215 108.741 270.377 108.647C270.539 108.554 270.719 108.484 270.919 108.436C271.119 108.389 271.323 108.353 271.53 108.328C271.792 108.297 272.006 108.273 272.169 108.254C272.333 108.233 272.452 108.199 272.526 108.154C272.6 108.108 272.637 108.034 272.637 107.931V107.911C272.637 107.662 272.567 107.469 272.426 107.332C272.287 107.195 272.08 107.126 271.804 107.126C271.517 107.126 271.29 107.19 271.125 107.317C270.961 107.443 270.848 107.583 270.785 107.737L269.983 107.554C270.078 107.288 270.217 107.073 270.4 106.909C270.584 106.744 270.796 106.624 271.036 106.55C271.276 106.474 271.528 106.436 271.792 106.436C271.968 106.436 272.153 106.456 272.349 106.498C272.547 106.538 272.731 106.612 272.903 106.721C273.076 106.829 273.218 106.984 273.328 107.186C273.438 107.386 273.493 107.646 273.493 107.965V110.876H272.66V110.277H272.626C272.571 110.387 272.488 110.496 272.378 110.602C272.267 110.709 272.125 110.797 271.952 110.868C271.779 110.938 271.572 110.973 271.33 110.973ZM271.516 110.289C271.752 110.289 271.953 110.242 272.121 110.149C272.29 110.055 272.418 109.934 272.506 109.783C272.595 109.631 272.64 109.468 272.64 109.295V108.73C272.61 108.761 272.551 108.789 272.463 108.816C272.378 108.841 272.28 108.862 272.169 108.881C272.059 108.899 271.951 108.915 271.847 108.93C271.742 108.943 271.655 108.955 271.584 108.964C271.419 108.985 271.267 109.02 271.13 109.07C270.995 109.119 270.887 109.191 270.805 109.284C270.725 109.375 270.685 109.497 270.685 109.649C270.685 109.86 270.763 110.02 270.919 110.129C271.075 110.235 271.274 110.289 271.516 110.289Z" fill="#6F6E73"/>
<path d="M267.009 110.875V106.491H267.834V107.188H267.88C267.959 106.952 268.1 106.766 268.302 106.631C268.506 106.494 268.736 106.426 268.993 106.426C269.046 106.426 269.109 106.428 269.181 106.431C269.255 106.435 269.313 106.44 269.355 106.446V107.262C269.321 107.253 269.26 107.242 269.172 107.231C269.085 107.217 268.997 107.211 268.91 107.211C268.708 107.211 268.528 107.253 268.37 107.339C268.214 107.423 268.091 107.54 267.999 107.69C267.908 107.839 267.862 108.008 267.862 108.198V110.875H267.009Z" fill="#6F6E73"/>
<path d="M264.013 110.965C263.602 110.965 263.243 110.871 262.937 110.682C262.631 110.494 262.393 110.23 262.223 109.892C262.054 109.553 261.969 109.157 261.969 108.705C261.969 108.25 262.054 107.852 262.223 107.512C262.393 107.171 262.631 106.906 262.937 106.718C263.243 106.53 263.602 106.436 264.013 106.436C264.424 106.436 264.783 106.53 265.089 106.718C265.395 106.906 265.633 107.171 265.802 107.512C265.972 107.852 266.056 108.25 266.056 108.705C266.056 109.157 265.972 109.553 265.802 109.892C265.633 110.23 265.395 110.494 265.089 110.682C264.783 110.871 264.424 110.965 264.013 110.965ZM264.016 110.249C264.282 110.249 264.503 110.178 264.678 110.037C264.853 109.897 264.982 109.709 265.066 109.475C265.152 109.241 265.195 108.983 265.195 108.702C265.195 108.422 265.152 108.165 265.066 107.931C264.982 107.695 264.853 107.506 264.678 107.363C264.503 107.22 264.282 107.149 264.016 107.149C263.748 107.149 263.525 107.22 263.348 107.363C263.173 107.506 263.043 107.695 262.957 107.931C262.873 108.165 262.831 108.422 262.831 108.702C262.831 108.983 262.873 109.241 262.957 109.475C263.043 109.709 263.173 109.897 263.348 110.037C263.525 110.178 263.748 110.249 264.016 110.249Z" fill="#6F6E73"/>
<path d="M261.27 106.492V107.177H258.875V106.492H261.27ZM259.517 105.441H260.371V109.588C260.371 109.754 260.395 109.878 260.445 109.962C260.494 110.044 260.558 110.1 260.636 110.131C260.716 110.159 260.802 110.173 260.896 110.173C260.964 110.173 261.024 110.169 261.075 110.159C261.127 110.15 261.167 110.142 261.195 110.136L261.349 110.841C261.3 110.86 261.23 110.879 261.138 110.898C261.047 110.919 260.933 110.931 260.796 110.933C260.571 110.936 260.362 110.896 260.168 110.813C259.974 110.729 259.817 110.6 259.697 110.425C259.577 110.25 259.517 110.03 259.517 109.765V105.441Z" fill="#6F6E73"/>
<path d="M258.2 107.563L257.426 107.7C257.394 107.601 257.342 107.507 257.272 107.417C257.203 107.328 257.11 107.255 256.992 107.198C256.874 107.14 256.727 107.112 256.55 107.112C256.308 107.112 256.107 107.166 255.945 107.275C255.783 107.381 255.702 107.519 255.702 107.688C255.702 107.835 255.756 107.953 255.865 108.042C255.973 108.132 256.148 108.205 256.39 108.262L257.086 108.422C257.49 108.515 257.79 108.659 257.988 108.853C258.186 109.047 258.285 109.299 258.285 109.609C258.285 109.872 258.209 110.106 258.057 110.311C257.907 110.515 257.696 110.675 257.426 110.791C257.158 110.907 256.847 110.965 256.493 110.965C256.002 110.965 255.601 110.86 255.291 110.651C254.981 110.44 254.791 110.14 254.72 109.752L255.545 109.626C255.597 109.841 255.702 110.004 255.862 110.114C256.022 110.223 256.23 110.277 256.487 110.277C256.767 110.277 256.99 110.219 257.158 110.103C257.325 109.985 257.409 109.841 257.409 109.672C257.409 109.535 257.358 109.42 257.255 109.327C257.154 109.233 256.999 109.163 256.79 109.115L256.048 108.953C255.639 108.86 255.336 108.711 255.14 108.508C254.946 108.304 254.849 108.046 254.849 107.734C254.849 107.475 254.921 107.249 255.066 107.055C255.21 106.861 255.41 106.71 255.665 106.601C255.92 106.491 256.212 106.436 256.541 106.436C257.015 106.436 257.388 106.538 257.66 106.744C257.932 106.947 258.112 107.22 258.2 107.563Z" fill="#6F6E73"/>
<path d="M251.844 106.492V107.177H249.449V106.492H251.844ZM250.091 105.441H250.944V109.588C250.944 109.754 250.969 109.878 251.019 109.962C251.068 110.044 251.132 110.1 251.21 110.131C251.29 110.159 251.376 110.173 251.47 110.173C251.538 110.173 251.598 110.169 251.649 110.159C251.701 110.15 251.741 110.142 251.769 110.136L251.923 110.841C251.874 110.86 251.804 110.879 251.712 110.898C251.621 110.919 251.507 110.931 251.37 110.933C251.145 110.936 250.936 110.896 250.742 110.813C250.548 110.729 250.391 110.6 250.271 110.425C250.151 110.25 250.091 110.03 250.091 109.765V105.441Z" fill="#6F6E73"/>
<path d="M247.084 110.965C246.659 110.965 246.294 110.869 245.988 110.677C245.683 110.483 245.449 110.215 245.285 109.875C245.122 109.534 245.04 109.144 245.04 108.705C245.04 108.259 245.124 107.866 245.291 107.526C245.459 107.183 245.695 106.916 245.999 106.724C246.303 106.532 246.662 106.436 247.075 106.436C247.408 106.436 247.705 106.497 247.965 106.621C248.226 106.743 248.436 106.914 248.596 107.135C248.758 107.356 248.854 107.613 248.884 107.908H248.054C248.008 107.703 247.904 107.526 247.74 107.377C247.578 107.229 247.361 107.155 247.089 107.155C246.851 107.155 246.643 107.218 246.464 107.343C246.287 107.467 246.149 107.644 246.05 107.874C245.951 108.102 245.902 108.372 245.902 108.685C245.902 109.004 245.95 109.28 246.048 109.512C246.145 109.744 246.282 109.924 246.459 110.052C246.637 110.179 246.848 110.243 247.089 110.243C247.251 110.243 247.397 110.213 247.529 110.154C247.662 110.093 247.773 110.007 247.863 109.895C247.954 109.782 248.018 109.647 248.054 109.489H248.884C248.854 109.773 248.762 110.026 248.608 110.249C248.453 110.471 248.247 110.646 247.988 110.774C247.731 110.901 247.43 110.965 247.084 110.965Z" fill="#6F6E73"/>
<path d="M242.409 110.965C241.977 110.965 241.605 110.873 241.293 110.688C240.983 110.502 240.743 110.24 240.574 109.903C240.407 109.565 240.323 109.168 240.323 108.713C240.323 108.264 240.407 107.868 240.574 107.526C240.743 107.183 240.979 106.916 241.282 106.724C241.586 106.532 241.942 106.436 242.349 106.436C242.597 106.436 242.836 106.476 243.069 106.558C243.301 106.64 243.509 106.769 243.694 106.944C243.878 107.119 244.024 107.346 244.13 107.626C244.237 107.903 244.29 108.241 244.29 108.639V108.941H240.805V108.302H243.454C243.454 108.078 243.408 107.879 243.317 107.706C243.226 107.531 243.097 107.393 242.932 107.292C242.768 107.191 242.576 107.14 242.355 107.14C242.115 107.14 241.906 107.199 241.727 107.317C241.55 107.434 241.413 107.586 241.316 107.774C241.221 107.961 241.174 108.163 241.174 108.382V108.881C241.174 109.174 241.225 109.424 241.328 109.629C241.432 109.835 241.578 109.992 241.764 110.1C241.951 110.207 242.169 110.26 242.418 110.26C242.58 110.26 242.727 110.237 242.86 110.191C242.993 110.144 243.109 110.074 243.206 109.98C243.303 109.887 243.377 109.772 243.428 109.635L244.236 109.78C244.171 110.018 244.055 110.227 243.888 110.406C243.722 110.582 243.514 110.72 243.263 110.819C243.013 110.916 242.729 110.965 242.409 110.965Z" fill="#6F6E73"/>
<path d="M238.519 106.492H239.372V111.161C239.372 111.454 239.319 111.702 239.212 111.903C239.107 112.105 238.951 112.258 238.744 112.363C238.538 112.468 238.284 112.52 237.982 112.52C237.952 112.52 237.923 112.52 237.896 112.52C237.868 112.52 237.838 112.519 237.808 112.517V111.784C237.834 111.784 237.858 111.784 237.879 111.784C237.898 111.784 237.92 111.784 237.945 111.784C238.147 111.784 238.292 111.729 238.382 111.621C238.473 111.514 238.519 111.359 238.519 111.156V106.492ZM238.941 105.816C238.793 105.816 238.665 105.766 238.558 105.667C238.454 105.567 238.402 105.447 238.402 105.308C238.402 105.167 238.454 105.047 238.558 104.948C238.665 104.847 238.793 104.797 238.941 104.797C239.089 104.797 239.216 104.847 239.321 104.948C239.427 105.047 239.48 105.167 239.48 105.308C239.48 105.447 239.427 105.567 239.321 105.667C239.216 105.766 239.089 105.816 238.941 105.816Z" fill="#6F6E73"/>
<path d="M233.556 110.876V105.031H234.41V107.203H234.461C234.51 107.112 234.582 107.006 234.675 106.886C234.768 106.767 234.898 106.662 235.063 106.572C235.229 106.481 235.447 106.435 235.72 106.435C236.073 106.435 236.389 106.525 236.667 106.704C236.945 106.883 237.163 107.14 237.321 107.477C237.48 107.814 237.56 108.219 237.56 108.693C237.56 109.167 237.481 109.573 237.323 109.912C237.166 110.248 236.949 110.508 236.673 110.691C236.397 110.872 236.082 110.962 235.728 110.962C235.462 110.962 235.244 110.917 235.075 110.828C234.907 110.738 234.776 110.634 234.681 110.514C234.586 110.394 234.512 110.287 234.461 110.194H234.39V110.876H233.556ZM234.392 108.684C234.392 108.993 234.437 109.263 234.527 109.495C234.616 109.727 234.745 109.909 234.915 110.04C235.084 110.169 235.291 110.234 235.537 110.234C235.792 110.234 236.005 110.167 236.176 110.032C236.347 109.895 236.477 109.709 236.564 109.475C236.654 109.241 236.698 108.977 236.698 108.684C236.698 108.395 236.655 108.136 236.567 107.905C236.482 107.675 236.352 107.493 236.179 107.36C236.008 107.227 235.794 107.16 235.537 107.16C235.29 107.16 235.08 107.224 234.909 107.352C234.74 107.479 234.611 107.657 234.524 107.885C234.436 108.114 234.392 108.38 234.392 108.684Z" fill="#6F6E73"/>
<path d="M232.457 107.954C232.457 108.578 232.342 109.114 232.114 109.563C231.886 110.01 231.573 110.355 231.175 110.596C230.779 110.836 230.329 110.956 229.825 110.956C229.319 110.956 228.867 110.836 228.47 110.596C228.074 110.355 227.762 110.009 227.533 109.56C227.305 109.111 227.191 108.576 227.191 107.954C227.191 107.33 227.305 106.794 227.533 106.347C227.762 105.898 228.074 105.553 228.47 105.314C228.867 105.072 229.319 104.951 229.825 104.951C230.329 104.951 230.779 105.072 231.175 105.314C231.573 105.553 231.886 105.898 232.114 106.347C232.342 106.794 232.457 107.33 232.457 107.954ZM231.583 107.954C231.583 107.478 231.506 107.077 231.352 106.752C231.2 106.425 230.991 106.177 230.724 106.01C230.46 105.841 230.16 105.756 229.825 105.756C229.488 105.756 229.188 105.841 228.923 106.01C228.659 106.177 228.45 106.425 228.295 106.752C228.143 107.077 228.067 107.478 228.067 107.954C228.067 108.429 228.143 108.831 228.295 109.158C228.45 109.483 228.659 109.731 228.923 109.9C229.188 110.068 229.488 110.151 229.825 110.151C230.16 110.151 230.46 110.068 230.724 109.9C230.991 109.731 231.2 109.483 231.352 109.158C231.506 108.831 231.583 108.429 231.583 107.954Z" fill="#6F6E73"/>
<path d="M222.634 173.344V179.189H221.752V173.344H222.634Z" fill="#6F6E73"/>
<path d="M216.611 179.189V173.344H218.694C219.149 173.344 219.526 173.427 219.824 173.592C220.123 173.758 220.347 173.984 220.495 174.271C220.644 174.557 220.718 174.878 220.718 175.236C220.718 175.596 220.643 175.919 220.492 176.206C220.344 176.492 220.119 176.718 219.819 176.886C219.52 177.051 219.144 177.134 218.691 177.134H217.259V176.386H218.612C218.899 176.386 219.132 176.337 219.311 176.238C219.49 176.137 219.621 176 219.705 175.827C219.788 175.654 219.83 175.457 219.83 175.236C219.83 175.015 219.788 174.819 219.705 174.648C219.621 174.477 219.489 174.343 219.308 174.246C219.129 174.149 218.893 174.1 218.6 174.1H217.493V179.189H216.611Z" fill="#6F6E73"/>
<path d="M211.477 179.189H210.541L212.644 173.344H213.663L215.767 179.189H214.831L213.178 174.405H213.132L211.477 179.189ZM211.634 176.9H214.671V177.642H211.634V176.9Z" fill="#6F6E73"/>
<path d="M207.844 174.806V175.491H205.449V174.806H207.844ZM206.092 173.756H206.945V177.903C206.945 178.068 206.97 178.193 207.019 178.277C207.069 178.358 207.132 178.415 207.21 178.445C207.29 178.474 207.377 178.488 207.47 178.488C207.539 178.488 207.599 178.483 207.65 178.474C207.701 178.464 207.741 178.456 207.77 178.451L207.924 179.156C207.874 179.175 207.804 179.194 207.713 179.213C207.621 179.234 207.507 179.245 207.37 179.247C207.146 179.251 206.936 179.211 206.742 179.127C206.548 179.043 206.391 178.914 206.271 178.739C206.152 178.564 206.092 178.344 206.092 178.08V173.756Z" fill="#6F6E73"/>
<path d="M204.774 175.875L204 176.012C203.968 175.913 203.917 175.819 203.846 175.73C203.778 175.64 203.684 175.567 203.566 175.51C203.449 175.453 203.301 175.424 203.124 175.424C202.882 175.424 202.681 175.479 202.519 175.587C202.357 175.694 202.276 175.832 202.276 176.001C202.276 176.147 202.331 176.265 202.439 176.355C202.548 176.444 202.723 176.518 202.964 176.575L203.661 176.734C204.064 176.828 204.365 176.971 204.563 177.165C204.76 177.359 204.859 177.612 204.859 177.922C204.859 178.184 204.783 178.418 204.631 178.624C204.481 178.827 204.27 178.987 204 179.103C203.732 179.219 203.421 179.277 203.067 179.277C202.576 179.277 202.176 179.173 201.865 178.963C201.555 178.752 201.365 178.453 201.295 178.064L202.119 177.939C202.171 178.154 202.276 178.317 202.436 178.427C202.596 178.535 202.804 178.59 203.061 178.59C203.341 178.59 203.565 178.532 203.732 178.415C203.899 178.298 203.983 178.154 203.983 177.985C203.983 177.848 203.932 177.732 203.829 177.639C203.728 177.546 203.573 177.476 203.364 177.428L202.622 177.265C202.213 177.172 201.91 177.024 201.714 176.82C201.52 176.616 201.423 176.359 201.423 176.047C201.423 175.788 201.495 175.561 201.64 175.367C201.785 175.173 201.984 175.022 202.239 174.914C202.494 174.803 202.786 174.748 203.116 174.748C203.589 174.748 203.962 174.851 204.234 175.056C204.506 175.26 204.686 175.533 204.774 175.875Z" fill="#6F6E73"/>
<path d="M198.661 179.277C198.229 179.277 197.857 179.185 197.545 179.001C197.235 178.814 196.995 178.552 196.826 178.216C196.658 177.877 196.575 177.48 196.575 177.026C196.575 176.577 196.658 176.181 196.826 175.838C196.995 175.496 197.231 175.228 197.534 175.036C197.838 174.844 198.194 174.748 198.601 174.748C198.848 174.748 199.088 174.789 199.32 174.871C199.552 174.953 199.761 175.081 199.945 175.256C200.13 175.431 200.275 175.658 200.382 175.938C200.489 176.216 200.542 176.554 200.542 176.951V177.254H197.057V176.615H199.706C199.706 176.39 199.66 176.191 199.569 176.018C199.477 175.843 199.349 175.705 199.183 175.604C199.02 175.503 198.828 175.453 198.607 175.453C198.367 175.453 198.158 175.512 197.979 175.63C197.802 175.746 197.665 175.898 197.568 176.087C197.473 176.273 197.425 176.476 197.425 176.695V177.194C197.425 177.487 197.477 177.736 197.579 177.942C197.684 178.147 197.83 178.304 198.016 178.413C198.202 178.519 198.42 178.572 198.67 178.572C198.831 178.572 198.979 178.55 199.112 178.504C199.245 178.456 199.36 178.386 199.457 178.293C199.554 178.2 199.629 178.084 199.68 177.947L200.488 178.093C200.423 178.331 200.307 178.539 200.139 178.718C199.974 178.895 199.766 179.033 199.514 179.132C199.265 179.229 198.981 179.277 198.661 179.277Z" fill="#6F6E73"/>
<path d="M191.715 179.189V173.344H193.799C194.251 173.344 194.627 173.422 194.926 173.578C195.227 173.734 195.451 173.95 195.599 174.226C195.748 174.5 195.822 174.816 195.822 175.176C195.822 175.534 195.747 175.849 195.597 176.121C195.448 176.391 195.224 176.601 194.923 176.751C194.624 176.902 194.249 176.977 193.796 176.977H192.217V176.218H193.716C194.001 176.218 194.233 176.177 194.412 176.095C194.593 176.013 194.725 175.894 194.809 175.738C194.893 175.582 194.934 175.395 194.934 175.176C194.934 174.955 194.892 174.764 194.806 174.602C194.722 174.441 194.59 174.317 194.409 174.231C194.23 174.144 193.995 174.1 193.704 174.1H192.597V179.189H191.715ZM194.601 176.552L196.045 179.189H195.04L193.624 176.552H194.601Z" fill="#6F6E73"/>
<path d="M203.064 44.0677V38.2227H203.946V43.3086H206.595V44.0677H203.064Z" fill="#6F6E73"/>
<path d="M199.036 42.1725H199.904L200.515 42.9688L200.803 43.3227L201.776 44.5927H200.874L200.224 43.7451L200.001 43.4368L199.036 42.1725ZM201.965 41.145C201.965 41.7691 201.851 42.3057 201.622 42.7547C201.394 43.2019 201.081 43.5462 200.683 43.7879C200.287 44.0276 199.837 44.1475 199.333 44.1475C198.827 44.1475 198.375 44.0276 197.978 43.7879C197.582 43.5462 197.27 43.2009 197.041 42.7519C196.813 42.3028 196.699 41.7672 196.699 41.145C196.699 40.5209 196.813 39.9853 197.041 39.5382C197.27 39.0892 197.582 38.7448 197.978 38.505C198.375 38.2634 198.827 38.1426 199.333 38.1426C199.837 38.1426 200.287 38.2634 200.683 38.505C201.081 38.7448 201.394 39.0892 201.622 39.5382C201.851 39.9853 201.965 40.5209 201.965 41.145ZM201.091 41.145C201.091 40.6694 201.014 40.2688 200.86 39.9435C200.708 39.6162 200.499 39.3689 200.232 39.2014C199.968 39.0321 199.668 38.9474 199.333 38.9474C198.996 38.9474 198.696 39.0321 198.431 39.2014C198.167 39.3689 197.958 39.6162 197.803 39.9435C197.651 40.2688 197.575 40.6694 197.575 41.145C197.575 41.6207 197.651 42.0222 197.803 42.3494C197.958 42.6748 198.167 42.9222 198.431 43.0915C198.696 43.2589 198.996 43.3426 199.333 43.3426C199.668 43.3426 199.968 43.2589 200.232 43.0915C200.499 42.9222 200.708 42.6748 200.86 42.3494C201.014 42.0222 201.091 41.6207 201.091 41.145Z" fill="#6F6E73"/>
<path d="M194.903 39.758C194.873 39.4878 194.747 39.2785 194.526 39.1301C194.306 38.9798 194.028 38.9046 193.693 38.9046C193.453 38.9046 193.246 38.9427 193.071 39.0188C192.896 39.093 192.76 39.1957 192.663 39.327C192.567 39.4564 192.52 39.6038 192.52 39.7694C192.52 39.9083 192.552 40.0282 192.617 40.129C192.684 40.2298 192.77 40.3145 192.877 40.383C192.985 40.4496 193.101 40.5057 193.225 40.5514C193.349 40.5952 193.467 40.6313 193.582 40.6598L194.152 40.8083C194.339 40.8539 194.53 40.9158 194.726 40.9938C194.922 41.0718 195.104 41.1745 195.271 41.302C195.439 41.4295 195.574 41.5874 195.676 41.7758C195.781 41.9641 195.833 42.1896 195.833 42.4522C195.833 42.7833 195.748 43.0772 195.577 43.3341C195.407 43.591 195.161 43.7936 194.837 43.942C194.516 44.0904 194.127 44.1646 193.67 44.1646C193.232 44.1646 192.854 44.0952 192.534 43.9563C192.215 43.8174 191.964 43.6204 191.784 43.3655C191.603 43.1086 191.503 42.8042 191.484 42.4522H192.369C192.386 42.6634 192.454 42.8394 192.574 42.9802C192.696 43.1191 192.851 43.2228 193.039 43.2913C193.23 43.3579 193.438 43.3912 193.664 43.3912C193.914 43.3912 194.135 43.3522 194.329 43.2742C194.525 43.1942 194.679 43.0839 194.792 42.9431C194.904 42.8004 194.96 42.6339 194.96 42.4436C194.96 42.2705 194.911 42.1287 194.812 42.0184C194.715 41.908 194.582 41.8167 194.415 41.7444C194.249 41.6721 194.062 41.6083 193.853 41.5532L193.162 41.3648C192.694 41.2373 192.323 41.0499 192.049 40.8025C191.777 40.5552 191.641 40.2279 191.641 39.8208C191.641 39.484 191.732 39.19 191.915 38.9389C192.098 38.6877 192.345 38.4927 192.657 38.3538C192.969 38.213 193.321 38.1426 193.713 38.1426C194.109 38.1426 194.458 38.212 194.76 38.3509C195.065 38.4898 195.305 38.681 195.48 38.9246C195.655 39.1662 195.746 39.444 195.754 39.758H194.903Z" fill="#6F6E73"/>
</svg>
