<svg width="368" height="218" viewBox="0 0 368 218" fill="none" xmlns="http://www.w3.org/2000/svg">
<path d="M89.512 72.8709C92.6388 74.657 94.5752 77.9405 94.5918 81.4846L94.682 100.782C94.6986 104.326 92.7928 107.592 89.6826 109.35L72.7477 118.923C69.6375 120.681 65.7954 120.663 62.6686 118.877L45.6435 109.152C42.5167 107.366 40.5804 104.082 40.5638 100.538L40.4735 81.2408C40.457 77.6967 42.3627 74.4305 45.4729 72.6725L62.4078 63.1002C65.518 61.3422 69.3601 61.3595 72.4869 63.1456L89.512 72.8709Z" fill="#FCFCFC"/>
<g clip-path="url(#clip0_3850_21131)">
<path d="M72.7499 102.537V98.9473H72.7255C71.2321 99.9194 69.4394 100.486 67.5116 100.486C65.5837 100.486 63.791 99.9194 62.2976 98.9473H62.2732V102.537C62.2732 103.081 62.494 103.603 62.8869 103.988C63.2799 104.372 63.8128 104.589 64.3685 104.589H70.6546C71.2103 104.589 71.7432 104.372 72.1362 103.988C72.5291 103.603 72.7499 103.081 72.7499 102.537Z" fill="#F9E9E7"/>
<path d="M67.5118 100.488C72.7193 100.488 76.9409 96.3549 76.9409 91.2566C76.9409 86.1584 72.7193 82.0254 67.5118 82.0254C62.3043 82.0254 58.0828 86.1584 58.0828 91.2566C58.0828 96.3549 62.3043 100.488 67.5118 100.488Z" fill="white"/>
<path d="M72.7499 79.9733V83.5632H72.7255C71.2321 82.5911 69.4394 82.0246 67.5116 82.0246C65.5837 82.0246 63.791 82.5911 62.2976 83.5632H62.2732V79.9733C62.2732 79.4292 62.494 78.9074 62.8869 78.5227C63.2799 78.138 63.8128 77.9219 64.3685 77.9219H70.6546C71.2103 77.9219 71.7432 78.138 72.1362 78.5227C72.5291 78.9074 72.7499 79.4292 72.7499 79.9733Z" fill="#F9E9E7"/>
<path d="M67.5117 86.8965V91.2557L70.1309 93.8199" stroke="#FF6849" stroke-linecap="round" stroke-linejoin="round"/>
<path d="M67.5118 100.488C72.7193 100.488 76.9409 96.3549 76.9409 91.2566C76.9409 86.1584 72.7193 82.0254 67.5118 82.0254C62.3043 82.0254 58.0828 86.1584 58.0828 91.2566C58.0828 96.3549 62.3043 100.488 67.5118 100.488Z" stroke="#FF6849" stroke-linecap="round" stroke-linejoin="round"/>
<path d="M72.7499 83.5632V79.9733C72.7499 79.4292 72.5291 78.9074 72.1362 78.5227C71.7432 78.138 71.2103 77.9219 70.6546 77.9219H64.3685C63.8128 77.9219 63.2799 78.138 62.8869 78.5227C62.494 78.9074 62.2732 79.4292 62.2732 79.9733V83.5632" stroke="#FF6849" stroke-linecap="round" stroke-linejoin="round"/>
<path d="M72.7499 98.9473V102.537C72.7499 103.081 72.5291 103.603 72.1362 103.988C71.7432 104.372 71.2103 104.589 70.6546 104.589H64.3685C63.8128 104.589 63.2799 104.372 62.8869 103.988C62.494 103.603 62.2732 103.081 62.2732 102.537V98.9473" stroke="#FF6849" stroke-linecap="round" stroke-linejoin="round"/>
</g>
<path d="M84.512 164.871C87.6388 166.657 89.5752 169.941 89.5918 173.485L89.682 192.782C89.6986 196.326 87.7928 199.592 84.6826 201.35L67.7477 210.923C64.6375 212.681 60.7954 212.663 57.6686 210.877L40.6435 201.152C37.5167 199.366 35.5804 196.082 35.5638 192.538L35.4735 173.241C35.457 169.697 37.3627 166.43 40.4729 164.672L57.4078 155.1C60.518 153.342 64.3601 153.36 67.4869 155.146L84.512 164.871Z" fill="#FCFCFC"/>
<g clip-path="url(#clip1_3850_21131)">
<path d="M71.9409 171.973H53.0831C51.9259 171.973 50.9878 172.891 50.9878 174.024V194.538C50.9878 195.67 51.9259 196.589 53.0831 196.589H71.9409C73.0981 196.589 74.0362 195.67 74.0362 194.538V174.024C74.0362 172.891 73.0981 171.973 71.9409 171.973Z" fill="#F9E9E7"/>
<path d="M65.6548 175.05H59.3689C57.9224 175.05 56.7498 173.902 56.7498 172.486C56.7498 171.07 57.9224 169.922 59.3689 169.922H65.6548C67.1013 169.922 68.274 171.07 68.274 172.486C68.274 173.902 67.1013 175.05 65.6548 175.05Z" fill="white"/>
<path d="M68.2217 171.973H71.9409C73.0981 171.973 74.0362 172.891 74.0362 174.024V194.538C74.0362 195.67 73.0981 196.589 71.9409 196.589H53.0831C51.9259 196.589 50.9878 195.67 50.9878 194.538V174.024C50.9878 172.891 51.9259 171.973 53.0831 171.973H56.8023" stroke="#FF6849" stroke-linecap="round" stroke-linejoin="round"/>
<path d="M65.6548 175.05H59.3689C57.9224 175.05 56.7498 173.902 56.7498 172.486C56.7498 171.07 57.9224 169.922 59.3689 169.922H65.6548C67.1013 169.922 68.274 171.07 68.274 172.486C68.274 173.902 67.1013 175.05 65.6548 175.05Z" stroke="#FF6849" stroke-linecap="round" stroke-linejoin="round"/>
<path d="M50.9878 186.269H56.9468L60.2071 181.205L64.8168 191.462L68.327 186.269H74.0362" stroke="#FF6849" stroke-linecap="round" stroke-linejoin="round"/>
</g>
<path d="M328.633 163.996C331.732 165.782 333.642 169.081 333.644 172.65L333.656 192.082C333.658 195.651 331.752 198.947 328.656 200.73L311.797 210.435C308.701 212.218 304.885 212.216 301.787 210.429L284.916 200.703C281.818 198.916 279.907 195.617 279.905 192.049L279.893 172.616C279.891 169.048 281.797 165.751 284.893 163.969L301.752 154.263C304.848 152.48 308.664 152.483 311.763 154.269L328.633 163.996Z" fill="#FCFCFC"/>
<g clip-path="url(#clip2_3850_21131)">
<path d="M293.636 180.838L320.378 171.527" stroke="#FF6849" stroke-linecap="round" stroke-linejoin="round"/>
<path d="M315.084 168.922L320.378 171.508L317.808 176.815" stroke="#FF6849" stroke-linecap="round" stroke-linejoin="round"/>
<path d="M311.464 195.589V181.23H320.378V195.589" fill="#F9E9E7"/>
<path d="M302.55 195.589V184.82H311.464V195.589" fill="white"/>
<path d="M293.636 195.587V187.895H302.55V195.587" fill="#F9E9E7"/>
<path d="M311.464 195.589V181.23H320.378V195.589" stroke="#FF6849" stroke-linecap="round" stroke-linejoin="round"/>
<path d="M302.55 195.589V184.82H311.464V195.589" stroke="#FF6849" stroke-linecap="round" stroke-linejoin="round"/>
<path d="M293.636 195.587V187.895H302.55V195.587" stroke="#FF6849" stroke-linecap="round" stroke-linejoin="round"/>
</g>
<path d="M207.753 17.1202C210.823 18.9064 212.706 22.2206 212.694 25.8144L212.628 45.3825C212.615 48.9763 210.71 52.3036 207.628 54.1112L190.849 63.9535C187.767 65.7611 183.978 65.7743 180.908 63.9881L164.195 54.2622C161.125 52.476 159.242 49.1618 159.254 45.568L159.32 26C159.333 22.4062 161.238 19.0788 164.32 17.2712L181.099 7.42893C184.181 5.62134 187.97 5.60816 191.04 7.39437L207.753 17.1202Z" fill="#FCFCFC"/>
<path fill-rule="evenodd" clip-rule="evenodd" d="M184.545 25.3945C184.241 26.3245 184.076 27.3193 184.076 28.3531C184.076 33.5274 188.205 37.7219 193.297 37.7219C195.506 37.7219 197.534 36.933 199.122 35.6173V42.1598C199.122 42.7044 198.687 43.146 198.151 43.146H174.854C174.318 43.146 173.884 42.7044 173.884 42.1598V26.3807C173.884 25.8361 174.318 25.3945 174.854 25.3945H184.545Z" fill="#F9E9E7"/>
<path d="M190.385 48.0775L188.444 43.1465H184.561L182.62 48.0775H190.385Z" fill="white"/>
<path d="M183.537 25.3945H174.854C174.318 25.3945 173.884 25.8361 173.884 26.3807V42.1598C173.884 42.7044 174.318 43.146 174.854 43.146H198.151C198.687 43.146 199.122 42.7044 199.122 42.1598V36.0129" stroke="#FF6849" stroke-linecap="round" stroke-linejoin="round"/>
<path d="M184.561 43.1465L182.62 48.0775" stroke="#FF6849" stroke-linecap="round" stroke-linejoin="round"/>
<path d="M188.444 43.1465L190.385 48.0775" stroke="#FF6849" stroke-linecap="round" stroke-linejoin="round"/>
<path d="M180.678 48.0762H192.327" stroke="#FF6849" stroke-linecap="round" stroke-linejoin="round"/>
<path d="M193.298 34.2699C196.514 34.2699 199.122 31.6207 199.122 28.3527C199.122 25.0848 196.514 22.4355 193.298 22.4355C190.081 22.4355 187.473 25.0848 187.473 28.3527C187.473 31.6207 190.081 34.2699 193.298 34.2699Z" fill="white"/>
<path d="M193.298 34.2699C196.514 34.2699 199.122 31.6207 199.122 28.3527C199.122 25.0848 196.514 22.4355 193.298 22.4355C190.081 22.4355 187.473 25.0848 187.473 28.3527C187.473 31.6207 190.081 34.2699 193.298 34.2699Z" stroke="#FF6849" stroke-linecap="round" stroke-linejoin="round"/>
<path d="M193.297 26.3809V28.8463L195.239 29.3394" stroke="#FF6849" stroke-linecap="round" stroke-linejoin="round"/>
<path d="M325.512 72.8709C328.639 74.657 330.575 77.9405 330.592 81.4846L330.682 100.782C330.699 104.326 328.793 107.592 325.683 109.35L308.748 118.923C305.638 120.681 301.795 120.663 298.669 118.877L281.643 109.152C278.517 107.366 276.58 104.082 276.564 100.538L276.474 81.2408C276.457 77.6967 278.363 74.4305 281.473 72.6725L298.408 63.1002C301.518 61.3422 305.36 61.3595 308.487 63.1456L325.512 72.8709Z" fill="#FCFCFC"/>
<g clip-path="url(#clip3_3850_21131)">
<path d="M298.331 85.1523C300.432 85.1523 302.136 86.8199 302.136 88.877C302.136 90.9341 300.432 92.6017 298.331 92.6017C296.23 92.6017 294.527 90.9341 294.527 88.877C294.527 86.8199 296.23 85.1523 298.331 85.1523Z" fill="#F9E9E7"/>
<path d="M313.327 78.9238C315.428 78.9238 317.131 80.5914 317.131 82.6485C317.131 84.7056 315.428 86.3732 313.327 86.3732C311.226 86.3732 309.522 84.7056 309.522 82.6485C309.522 80.5914 311.226 78.9238 313.327 78.9238Z" fill="#F9E9E7"/>
<path d="M308.037 92.6035C310.139 92.6035 311.842 94.2711 311.842 96.3282C311.842 98.3853 310.139 100.053 308.037 100.053C305.936 100.053 304.233 98.3853 304.233 96.3282C304.233 94.2711 305.936 92.6035 308.037 92.6035Z" fill="#F9E9E7"/>
<path d="M298.331 85.1523C300.432 85.1523 302.136 86.8199 302.136 88.877C302.136 90.9341 300.432 92.6017 298.331 92.6017C296.23 92.6017 294.527 90.9341 294.527 88.877C294.527 86.8199 296.23 85.1523 298.331 85.1523Z" stroke="#FF6849" stroke-linecap="round" stroke-linejoin="round"/>
<path d="M313.327 78.9238C315.428 78.9238 317.131 80.5914 317.131 82.6485C317.131 84.7056 315.428 86.3732 313.327 86.3732C311.226 86.3732 309.522 84.7056 309.522 82.6485C309.522 80.5914 311.226 78.9238 313.327 78.9238Z" stroke="#FF6849" stroke-linecap="round" stroke-linejoin="round"/>
<path d="M308.037 92.6035C310.139 92.6035 311.842 94.2711 311.842 96.3282C311.842 98.3853 310.139 100.053 308.037 100.053C305.936 100.053 304.233 98.3853 304.233 96.3282C304.233 94.2711 305.936 92.6035 308.037 92.6035Z" stroke="#FF6849" stroke-linecap="round" stroke-linejoin="round"/>
<path d="M289.892 96.8342L295.321 91.1582" stroke="#FF6849" stroke-linecap="round" stroke-linejoin="round"/>
<path d="M301.647 90.7324L305.128 93.9112" stroke="#FF6849" stroke-linecap="round" stroke-linejoin="round"/>
<path d="M309.716 92.9599L312.226 86.209" stroke="#FF6849" stroke-linecap="round" stroke-linejoin="round"/>
<path d="M289.892 77.9219V104.589H317.13" stroke="#FF6849" stroke-linecap="round" stroke-linejoin="round"/>
</g>
<path d="M151.25 173.857C148.156 172.071 146.25 168.769 146.25 165.197L146.25 131.744C146.25 128.171 148.156 124.87 151.25 123.084L180.221 106.357C183.315 104.571 187.127 104.571 190.221 106.357L219.192 123.084C222.286 124.87 224.192 128.171 224.192 131.744L224.192 165.197C224.192 168.769 222.286 172.071 219.192 173.857L190.221 190.584C187.127 192.37 183.315 192.37 180.221 190.584L151.25 173.857Z" fill="#FF6849"/>
<path d="M145.056 178.093L146.696 179.04L147.196 178.174L152.118 181.016L151.618 181.882L154.899 183.776L155.399 182.91L160.32 185.751L159.82 186.617L163.101 188.511L163.601 187.645L168.522 190.487L168.022 191.353L171.303 193.247L171.803 192.381L176.725 195.222L176.225 196.088L177.865 197.036C178.661 197.495 179.493 197.864 180.348 198.141L180.657 197.19C183.066 197.973 185.665 197.973 188.073 197.19L188.382 198.141C189.237 197.864 190.069 197.495 190.865 197.036L192.506 196.088L192.006 195.222L196.927 192.381L197.427 193.247L200.708 191.353L200.208 190.487L205.129 187.645L205.629 188.511L208.91 186.617L208.41 185.751L213.332 182.91L213.832 183.776L217.113 181.882L216.613 181.016L221.534 178.174L222.034 179.04L223.674 178.093C224.47 177.634 225.206 177.097 225.873 176.496L225.204 175.753C227.086 174.058 228.386 171.807 228.912 169.33L229.891 169.538C230.077 168.659 230.174 167.754 230.174 166.835L230.174 164.941L229.174 164.941L229.174 159.258L230.174 159.258L230.174 155.469L229.174 155.469L229.174 149.787L230.174 149.787L230.174 145.998L229.174 145.998L229.174 140.315L230.174 140.315L230.174 136.527L229.174 136.527L229.174 130.844L230.174 130.844L230.174 128.95C230.174 128.031 230.077 127.126 229.891 126.247L228.912 126.455C228.386 123.977 227.086 121.727 225.204 120.032L225.873 119.289C225.206 118.688 224.47 118.151 223.674 117.692L222.034 116.744L221.534 117.61L216.613 114.769L217.113 113.903L213.832 112.009L213.332 112.875L208.41 110.033L208.91 109.167L205.629 107.273L205.129 108.139L200.208 105.298L200.708 104.432L197.427 102.538L196.927 103.404L192.006 100.562L192.506 99.6962L190.865 98.7491C190.069 98.2897 189.237 97.9211 188.382 97.6434L188.073 98.5945C185.665 97.8118 183.066 97.8118 180.657 98.5945L180.348 97.6434C179.493 97.9211 178.661 98.2897 177.865 98.7491L176.225 99.6962L176.725 100.562L171.803 103.404L171.303 102.538L168.022 104.432L168.522 105.298L163.601 108.139L163.101 107.273L159.82 109.167L160.32 110.033L155.399 112.875L154.899 112.009L151.618 113.903L152.118 114.769L147.196 117.61L146.696 116.744L145.056 117.692C144.26 118.151 143.525 118.688 142.857 119.289L143.526 120.032C141.644 121.727 140.344 123.977 139.818 126.455L138.84 126.247C138.653 127.126 138.556 128.031 138.556 128.95L138.556 130.844L139.556 130.844L139.556 136.527L138.556 136.527L138.556 140.315L139.556 140.315L139.556 145.998L138.556 145.998L138.556 149.787L139.556 149.787L139.556 155.469L138.556 155.469L138.556 159.258L139.556 159.258L139.556 164.941L138.556 164.941L138.556 166.835C138.556 167.754 138.653 168.659 138.84 169.538L139.818 169.33C140.344 171.807 141.644 174.058 143.526 175.753L142.857 176.496C143.525 177.097 144.26 177.634 145.056 178.093Z" stroke="#FF6849" stroke-opacity="0.25" stroke-width="2" stroke-dasharray="4 6"/>
<path fill-rule="evenodd" clip-rule="evenodd" d="M172.46 139.461C172.887 138.587 173.448 137.835 174.039 137.214C175.271 135.919 176.819 134.979 178.353 134.297C181.434 132.928 185.341 132.208 189.394 132.208C189.551 132.208 189.708 132.209 189.864 132.211C187.959 130.144 183.387 128.688 178.049 128.688C171 128.688 165.286 131.227 165.286 134.36C165.286 136.602 168.212 138.54 172.46 139.461Z" fill="white"/>
<path fill-rule="evenodd" clip-rule="evenodd" d="M172.471 139.437C168.218 138.517 165.286 136.578 165.286 134.334V151.351C165.286 153.445 167.842 155.284 171.668 156.266V142.842C171.668 141.563 171.985 140.423 172.471 139.437Z" fill="#F9E9E7"/>
<path d="M189.055 147.986C196.911 147.986 203.278 145.133 203.278 141.615C203.278 138.096 196.911 135.244 189.055 135.244C181.2 135.244 174.832 138.096 174.832 141.615C174.832 145.133 181.2 147.986 189.055 147.986Z" fill="white"/>
<path d="M189.055 147.838C196.911 147.838 203.278 144.985 203.278 141.467V160.579C203.278 164.083 196.957 166.95 189.055 166.95C181.154 166.95 174.832 164.083 174.832 160.579V141.467C174.832 144.985 181.2 147.838 189.055 147.838Z" fill="#F9E9E7"/>
<path d="M174.832 141.467V160.579C174.832 164.083 181.154 166.95 189.055 166.95C196.957 166.95 203.278 164.083 203.278 160.579V141.467" stroke="#FF6849" stroke-linecap="round" stroke-linejoin="round"/>
<path d="M203.278 150.949C203.278 154.535 196.956 157.468 189.055 157.468C181.153 157.468 174.832 154.535 174.832 150.949" stroke="#FF6849" stroke-linecap="round" stroke-linejoin="round"/>
<path d="M171.181 139.116C167.636 138.109 165.286 136.343 165.286 134.334C165.286 131.202 171 128.662 178.049 128.662C182.803 128.662 186.951 129.817 189.147 131.531" stroke="#FF6849" stroke-linecap="round" stroke-linejoin="round"/>
<path d="M189.055 147.986C196.911 147.986 203.278 145.133 203.278 141.615C203.278 138.096 196.911 135.244 189.055 135.244C181.2 135.244 174.832 138.096 174.832 141.615C174.832 145.133 181.2 147.986 189.055 147.986Z" stroke="#FF6849" stroke-linecap="round" stroke-linejoin="round"/>
<path d="M165.286 134.334V151.351C165.286 153.319 167.543 155.061 170.989 156.079" stroke="#FF6849" stroke-linecap="round" stroke-linejoin="round"/>
<path d="M165.286 142.844C165.286 144.794 167.503 146.523 170.898 147.545" stroke="#FF6849" stroke-linecap="round" stroke-linejoin="round"/>
<path d="M185.75 58.2265L191.524 64L185.75 69.7735L179.976 64L185.75 58.2265ZM184.75 91V89.2H186.75V91H184.75ZM184.75 83.8V80.2H186.75V83.8H184.75ZM184.75 74.8V71.2H186.75V74.8H184.75ZM184.75 65.8V64H186.75V65.8H184.75ZM185.75 58.2265L191.524 64L185.75 69.7735L179.976 64L185.75 58.2265ZM184.75 91V89.2H186.75V91H184.75ZM184.75 83.8V80.2H186.75V83.8H184.75ZM184.75 74.8V71.2H186.75V74.8H184.75ZM184.75 65.8V64H186.75V65.8H184.75Z" fill="#FF6849" fill-opacity="0.25"/>
<path d="M236.024 108.053L235.164 107.544L236.024 108.053ZM283.708 102.192L277.934 107.966L272.161 102.192L277.934 96.4186L283.708 102.192ZM250.566 102.192L250.566 103.192L250.559 103.192L250.566 102.192ZM246.436 102.163L246.429 103.163L246.436 102.163ZM228.954 118.042L230.196 115.942L231.917 116.96L230.675 119.06L228.954 118.042ZM233.922 109.644L235.164 107.544L236.885 108.563L235.643 110.662L233.922 109.644ZM235.164 107.544C235.63 106.756 236.172 106.029 236.778 105.369L238.251 106.722C237.738 107.28 237.28 107.895 236.885 108.563L235.164 107.544ZM243.747 101.426C244.625 101.247 245.528 101.157 246.443 101.163L246.429 103.163C245.654 103.158 244.89 103.234 244.148 103.386L243.747 101.426ZM246.443 101.163L247.269 101.169L247.255 103.169L246.429 103.163L246.443 101.163ZM249.747 101.186L250.573 101.192L250.559 103.192L249.733 103.186L249.747 101.186ZM250.566 101.192L252.39 101.192L252.39 103.192L250.566 103.192L250.566 101.192ZM257.864 101.192L261.513 101.192L261.513 103.192L257.864 103.192L257.864 101.192ZM266.987 101.192L270.636 101.192L270.636 103.192L266.987 103.192L266.987 101.192ZM276.11 101.192L277.934 101.192L277.934 103.192L276.11 103.192L276.11 101.192ZM236.024 108.053L235.164 107.544L236.024 108.053ZM283.708 102.192L277.934 107.966L272.161 102.192L277.934 96.4186L283.708 102.192ZM250.566 102.192L250.566 103.192L250.559 103.192L250.566 102.192ZM246.436 102.163L246.429 103.163L246.436 102.163ZM228.954 118.042L230.196 115.942L231.917 116.96L230.675 119.06L228.954 118.042ZM233.922 109.644L235.164 107.544L236.885 108.563L235.643 110.662L233.922 109.644ZM235.164 107.544C235.63 106.756 236.172 106.029 236.778 105.369L238.251 106.722C237.738 107.28 237.28 107.895 236.885 108.563L235.164 107.544ZM243.747 101.426C244.625 101.247 245.528 101.157 246.443 101.163L246.429 103.163C245.654 103.158 244.89 103.234 244.148 103.386L243.747 101.426ZM246.443 101.163L247.269 101.169L247.255 103.169L246.429 103.163L246.443 101.163ZM249.747 101.186L250.573 101.192L250.559 103.192L249.733 103.186L249.747 101.186ZM250.566 101.192L252.39 101.192L252.39 103.192L250.566 103.192L250.566 101.192ZM257.864 101.192L261.513 101.192L261.513 103.192L257.864 103.192L257.864 101.192ZM266.987 101.192L270.636 101.192L270.636 103.192L266.987 103.192L266.987 101.192ZM276.11 101.192L277.934 101.192L277.934 103.192L276.11 103.192L276.11 101.192Z" fill="#FF6849" fill-opacity="0.25"/>
<path d="M241.445 188.994L242.317 188.503L241.445 188.994ZM288.309 195.08L282.535 189.307L276.762 195.08L282.535 200.854L288.309 195.08ZM255.943 195.08L255.943 194.08L255.936 194.08L255.943 195.08ZM251.986 195.108L251.979 194.108L251.979 194.108L251.986 195.108ZM229.405 169.639L230.522 171.624L232.265 170.643L231.148 168.659L229.405 169.639ZM233.873 177.577L236.106 181.546L237.849 180.565L235.615 176.596L233.873 177.577ZM239.457 187.5L240.574 189.484L242.317 188.503L241.2 186.519L239.457 187.5ZM240.574 189.484C241.032 190.299 241.571 191.052 242.178 191.736L243.674 190.408C243.161 189.83 242.705 189.193 242.317 188.503L240.574 189.484ZM249.243 195.833C250.137 196.02 251.058 196.114 251.993 196.108L251.979 194.108C251.188 194.113 250.408 194.034 249.652 193.876L249.243 195.833ZM251.993 196.108L252.785 196.102L252.771 194.102L251.979 194.108L251.993 196.108ZM255.159 196.086L255.95 196.08L255.936 194.08L255.145 194.086L255.159 196.086ZM255.943 196.08L257.716 196.08L257.716 194.08L255.943 194.08L255.943 196.08ZM263.034 196.08L266.58 196.08L266.58 194.08L263.034 194.08L263.034 196.08ZM271.898 196.08L275.444 196.08L275.444 194.08L271.898 194.08L271.898 196.08ZM280.762 196.08L282.535 196.08L282.535 194.08L280.762 194.08L280.762 196.08ZM241.445 188.994L242.317 188.503L241.445 188.994ZM288.309 195.08L282.535 189.307L276.762 195.08L282.535 200.854L288.309 195.08ZM255.943 195.08L255.943 194.08L255.936 194.08L255.943 195.08ZM251.986 195.108L251.979 194.108L251.979 194.108L251.986 195.108ZM229.405 169.639L230.522 171.624L232.265 170.643L231.148 168.659L229.405 169.639ZM233.873 177.577L236.106 181.546L237.849 180.565L235.615 176.596L233.873 177.577ZM239.457 187.5L240.574 189.484L242.317 188.503L241.2 186.519L239.457 187.5ZM240.574 189.484C241.032 190.299 241.571 191.052 242.178 191.736L243.674 190.408C243.161 189.83 242.705 189.193 242.317 188.503L240.574 189.484ZM249.243 195.833C250.137 196.02 251.058 196.114 251.993 196.108L251.979 194.108C251.188 194.113 250.408 194.034 249.652 193.876L249.243 195.833ZM251.993 196.108L252.785 196.102L252.771 194.102L251.979 194.108L251.993 196.108ZM255.159 196.086L255.95 196.08L255.936 194.08L255.145 194.086L255.159 196.086ZM255.943 196.08L257.716 196.08L257.716 194.08L255.943 194.08L255.943 196.08ZM263.034 196.08L266.58 196.08L266.58 194.08L263.034 194.08L263.034 196.08ZM271.898 196.08L275.444 196.08L275.444 194.08L271.898 194.08L271.898 196.08ZM280.762 196.08L282.535 196.08L282.535 194.08L280.762 194.08L280.762 196.08Z" fill="#FF6849" fill-opacity="0.25"/>
<path d="M128.696 188.826L127.846 188.299L128.696 188.826ZM81.7528 194.473L87.5263 188.699L93.2998 194.473L87.5263 200.246L81.7528 194.473ZM114.118 194.473L114.118 193.473L114.125 193.473L114.118 194.473ZM118.413 194.503L118.42 193.503L118.413 194.503ZM141.67 169.798L140.457 171.754L138.758 170.7L139.97 168.745L141.67 169.798ZM136.82 177.62L134.395 181.531L132.696 180.477L135.12 176.567L136.82 177.62ZM130.758 187.398L129.546 189.353L127.846 188.299L129.058 186.344L130.758 187.398ZM129.546 189.353C129.073 190.116 128.529 190.818 127.924 191.455L126.474 190.078C126.985 189.539 127.446 188.945 127.846 188.299L129.546 189.353ZM121.049 195.25C120.188 195.423 119.303 195.509 118.406 195.503L118.42 193.503C119.18 193.508 119.928 193.435 120.656 193.289L121.049 195.25ZM118.406 195.503L117.547 195.497L117.561 193.497L118.42 193.503L118.406 195.503ZM114.97 195.479L114.112 195.473L114.125 193.473L114.984 193.479L114.97 195.479ZM114.118 195.473L112.346 195.473L112.346 193.473L114.118 193.473L114.118 195.473ZM107.027 195.473L103.482 195.473L103.482 193.473L107.027 193.473L107.027 195.473ZM98.1632 195.473L94.6175 195.473L94.6175 193.473L98.1632 193.473L98.1632 195.473ZM89.2991 195.473L87.5263 195.473L87.5263 193.473L89.2991 193.473L89.2991 195.473ZM128.696 188.826L127.846 188.299L128.696 188.826ZM81.7528 194.473L87.5263 188.699L93.2998 194.473L87.5263 200.246L81.7528 194.473ZM114.118 194.473L114.118 193.473L114.125 193.473L114.118 194.473ZM118.413 194.503L118.42 193.503L118.413 194.503ZM141.67 169.798L140.457 171.754L138.758 170.7L139.97 168.745L141.67 169.798ZM136.82 177.62L134.395 181.531L132.696 180.477L135.12 176.567L136.82 177.62ZM130.758 187.398L129.546 189.353L127.846 188.299L129.058 186.344L130.758 187.398ZM129.546 189.353C129.073 190.116 128.529 190.818 127.924 191.455L126.474 190.078C126.985 189.539 127.446 188.945 127.846 188.299L129.546 189.353ZM121.049 195.25C120.188 195.423 119.303 195.509 118.406 195.503L118.42 193.503C119.18 193.508 119.928 193.435 120.656 193.289L121.049 195.25ZM118.406 195.503L117.547 195.497L117.561 193.497L118.42 193.503L118.406 195.503ZM114.97 195.479L114.112 195.473L114.125 193.473L114.984 193.479L114.97 195.479ZM114.118 195.473L112.346 195.473L112.346 193.473L114.118 193.473L114.118 195.473ZM107.027 195.473L103.482 195.473L103.482 193.473L107.027 193.473L107.027 195.473ZM98.1632 195.473L94.6175 195.473L94.6175 193.473L98.1632 193.473L98.1632 195.473ZM89.2991 195.473L87.5263 195.473L87.5263 193.473L89.2991 193.473L89.2991 195.473Z" fill="#FF6849" fill-opacity="0.25"/>
<path d="M134.344 108.577L133.481 109.083L134.344 108.577ZM87.4444 102.673L93.2179 108.447L98.9914 102.673L93.2179 96.8998L87.4444 102.673ZM119.81 102.673L119.81 103.673L119.817 103.673L119.81 102.673ZM123.907 102.645L123.9 101.645L123.907 102.645ZM140.906 117.798L139.766 115.852L138.041 116.864L139.181 118.809L140.906 117.798ZM136.347 110.017L135.207 108.072L133.481 109.083L134.621 111.028L136.347 110.017ZM135.207 108.072C134.742 107.279 134.2 106.546 133.594 105.882L132.117 107.23C132.629 107.792 133.088 108.411 133.481 109.083L135.207 108.072ZM126.606 101.91C125.726 101.729 124.819 101.638 123.9 101.645L123.914 103.645C124.692 103.639 125.459 103.716 126.204 103.869L126.606 101.91ZM123.9 101.645L123.081 101.651L123.095 103.651L123.914 103.645L123.9 101.645ZM120.622 101.668L119.803 101.673L119.817 103.673L120.636 103.668L120.622 101.668ZM119.81 101.673L118.037 101.673L118.037 103.673L119.81 103.673L119.81 101.673ZM112.719 101.673L109.173 101.673L109.173 103.673L112.719 103.673L112.719 101.673ZM103.855 101.673L100.309 101.673L100.309 103.673L103.855 103.673L103.855 101.673ZM94.9907 101.673L93.2179 101.673L93.2179 103.673L94.9907 103.673L94.9907 101.673ZM134.344 108.577L133.481 109.083L134.344 108.577ZM87.4444 102.673L93.2179 108.447L98.9914 102.673L93.2179 96.8998L87.4444 102.673ZM119.81 102.673L119.81 103.673L119.817 103.673L119.81 102.673ZM123.907 102.645L123.9 101.645L123.907 102.645ZM140.906 117.798L139.766 115.852L138.041 116.864L139.181 118.809L140.906 117.798ZM136.347 110.017L135.207 108.072L133.481 109.083L134.621 111.028L136.347 110.017ZM135.207 108.072C134.742 107.279 134.2 106.546 133.594 105.882L132.117 107.23C132.629 107.792 133.088 108.411 133.481 109.083L135.207 108.072ZM126.606 101.91C125.726 101.729 124.819 101.638 123.9 101.645L123.914 103.645C124.692 103.639 125.459 103.716 126.204 103.869L126.606 101.91ZM123.9 101.645L123.081 101.651L123.095 103.651L123.914 103.645L123.9 101.645ZM120.622 101.668L119.803 101.673L119.817 103.673L120.636 103.668L120.622 101.668ZM119.81 101.673L118.037 101.673L118.037 103.673L119.81 103.673L119.81 101.673ZM112.719 101.673L109.173 101.673L109.173 103.673L112.719 103.673L112.719 101.673ZM103.855 101.673L100.309 101.673L100.309 103.673L103.855 103.673L103.855 101.673ZM94.9907 101.673L93.2179 101.673L93.2179 103.673L94.9907 103.673L94.9907 101.673Z" fill="#FF6849" fill-opacity="0.25"/>
<defs>
<clipPath id="clip0_3850_21131">
<rect width="29.3333" height="28.7179" fill="white" transform="translate(52.8452 76.8965)"/>
</clipPath>
<clipPath id="clip1_3850_21131">
<rect width="29.3333" height="28.7179" fill="white" transform="translate(47.8452 168.896)"/>
</clipPath>
<clipPath id="clip2_3850_21131">
<rect width="28.8" height="28.7179" fill="white" transform="translate(292.607 167.896)"/>
</clipPath>
<clipPath id="clip3_3850_21131">
<rect width="29.3333" height="28.7179" fill="white" transform="translate(288.845 76.8965)"/>
</clipPath>
</defs>
</svg>
