<svg width="88" height="89" viewBox="0 0 88 89" fill="none" xmlns="http://www.w3.org/2000/svg">
<path d="M0.5 12.5C0.5 6.14873 5.64873 1 12 1H76C82.3513 1 87.5 6.14873 87.5 12.5V76.5C87.5 82.8513 82.3513 88 76 88H12C5.64873 88 0.5 82.8513 0.5 76.5V12.5Z" stroke="#DDDFDA"/>
<path d="M27.9277 60.5716L31.9456 56.5537" stroke="#FF6849" stroke-width="1.5" stroke-linecap="round" stroke-linejoin="round"/>
<path d="M60.0706 28.4287L56.0527 32.4466" stroke="#FF6849" stroke-width="1.5" stroke-linecap="round" stroke-linejoin="round"/>
<path d="M45.3384 53.8754L42.6599 56.554C39.7012 59.5127 34.9042 59.5127 31.9456 56.554C28.9869 53.5952 28.9869 48.7984 31.9456 45.8397L34.6241 43.1611L45.3384 53.8754Z" stroke="#FF6849" stroke-width="1.5" stroke-linecap="round" stroke-linejoin="round"/>
<path d="M53.3744 45.8394L56.053 43.1608C59.0118 40.2022 59.0118 35.4052 56.053 32.4465C53.0943 29.4879 48.2974 29.4879 45.3387 32.4465L42.6602 35.1251L53.3744 45.8394Z" stroke="#FF6849" stroke-width="1.5" stroke-linecap="round" stroke-linejoin="round"/>
<path d="M37.3027 45.8391L41.3206 41.8213" stroke="#FF6849" stroke-width="1.5" stroke-linecap="round" stroke-linejoin="round"/>
<path d="M42.6602 51.1966L46.678 47.1787" stroke="#FF6849" stroke-width="1.5" stroke-linecap="round" stroke-linejoin="round"/>
</svg>
