<svg width="54" height="54" viewBox="0 0 54 54" fill="none" xmlns="http://www.w3.org/2000/svg">
<path d="M12 0.5H42C48.3513 0.5 53.5 5.64873 53.5 12V42C53.5 48.3513 48.3513 53.5 42 53.5H12C5.64873 53.5 0.5 48.3513 0.5 42V12C0.5 5.64873 5.64873 0.5 12 0.5Z" stroke="#DDDFDA"/>
<path d="M17.3572 36.6412L19.7679 34.2305" stroke="#FF6849" stroke-width="1.5" stroke-linecap="round" stroke-linejoin="round"/>
<path d="M36.6429 17.3555L34.2322 19.7662" stroke="#FF6849" stroke-width="1.5" stroke-linecap="round" stroke-linejoin="round"/>
<path d="M27.8034 32.6239L26.1963 34.231C24.4211 36.0063 21.5429 36.0063 19.7677 34.231C17.9925 32.4558 17.9925 29.5777 19.7677 27.8025L21.3748 26.1953L27.8034 32.6239Z" fill="#FFE9E4" stroke="#FF6849" stroke-width="1.5" stroke-linecap="round" stroke-linejoin="round"/>
<path d="M32.6251 27.8007L34.2322 26.1936C36.0075 24.4184 36.0075 21.5402 34.2322 19.765C32.457 17.9898 29.5789 17.9898 27.8037 19.765L26.1965 21.3721L32.6251 27.8007Z" fill="#FFE9E4" stroke="#FF6849" stroke-width="1.5" stroke-linecap="round" stroke-linejoin="round"/>
<path d="M22.9822 27.8013L25.3929 25.3906" stroke="#FF6849" stroke-width="1.5" stroke-linecap="round" stroke-linejoin="round"/>
<path d="M26.1965 31.0162L28.6072 28.6055" stroke="#FF6849" stroke-width="1.5" stroke-linecap="round" stroke-linejoin="round"/>
</svg>
