<svg width="368" height="218" viewBox="0 0 368 218" fill="none" xmlns="http://www.w3.org/2000/svg">
<path d="M181.213 89.768L181.911 90.4841L181.213 89.768ZM207.936 90.7771L196.797 93.8178L199.733 82.6504L207.936 90.7771ZM197.006 87.9029L197.26 86.9358L197.26 86.9358L197.006 87.9029ZM192.641 86.7553L192.895 85.7882L192.895 85.7882L192.641 86.7553ZM119.069 148.95L120.435 147.619L121.831 149.051L120.465 150.382L119.069 148.95ZM124.531 143.626L127.262 140.964L128.658 142.396L125.927 145.058L124.531 143.626ZM131.358 136.97L134.089 134.308L135.485 135.74L132.755 138.402L131.358 136.97ZM138.186 130.315L140.917 127.653L142.313 129.085L139.582 131.747L138.186 130.315ZM145.013 123.66L147.744 120.998L149.14 122.43L146.409 125.092L145.013 123.66ZM151.84 117.004L154.571 114.342L155.967 115.774L153.236 118.436L151.84 117.004ZM158.668 110.349L161.399 107.687L162.795 109.119L160.064 111.781L158.668 110.349ZM165.495 103.694L168.226 101.032L169.622 102.464L166.891 105.126L165.495 103.694ZM172.322 97.0384L175.053 94.3762L176.449 95.8084L173.718 98.4705L172.322 97.0384ZM179.15 90.383L180.515 89.052L181.911 90.4841L180.546 91.8152L179.15 90.383ZM180.515 89.052C181.162 88.4216 181.865 87.8673 182.61 87.3927L183.684 89.0801C183.053 89.4815 182.459 89.9504 181.911 90.4841L180.515 89.052ZM190.254 85.3776C191.137 85.4228 192.022 85.5585 192.895 85.7882L192.387 87.7224C191.647 87.528 190.899 87.4132 190.152 87.375L190.254 85.3776ZM192.895 85.7882L193.768 86.0177L193.26 87.952L192.387 87.7224L192.895 85.7882ZM196.387 86.7063L197.26 86.9358L196.751 88.8701L195.878 88.6406L196.387 86.7063ZM197.26 86.9358L199.446 87.5106L198.938 89.4449L196.751 88.8701L197.26 86.9358ZM181.213 89.768L181.911 90.4841L181.213 89.768ZM207.936 90.7771L196.797 93.8178L199.733 82.6504L207.936 90.7771ZM197.006 87.9029L197.26 86.9358L197.26 86.9358L197.006 87.9029ZM192.641 86.7553L192.895 85.7882L192.895 85.7882L192.641 86.7553ZM119.069 148.95L120.435 147.619L121.831 149.051L120.465 150.382L119.069 148.95ZM124.531 143.626L127.262 140.964L128.658 142.396L125.927 145.058L124.531 143.626ZM131.358 136.97L134.089 134.308L135.485 135.74L132.755 138.402L131.358 136.97ZM138.186 130.315L140.917 127.653L142.313 129.085L139.582 131.747L138.186 130.315ZM145.013 123.66L147.744 120.998L149.14 122.43L146.409 125.092L145.013 123.66ZM151.84 117.004L154.571 114.342L155.967 115.774L153.236 118.436L151.84 117.004ZM158.668 110.349L161.399 107.687L162.795 109.119L160.064 111.781L158.668 110.349ZM165.495 103.694L168.226 101.032L169.622 102.464L166.891 105.126L165.495 103.694ZM172.322 97.0384L175.053 94.3762L176.449 95.8084L173.718 98.4705L172.322 97.0384ZM179.15 90.383L180.515 89.052L181.911 90.4841L180.546 91.8152L179.15 90.383ZM180.515 89.052C181.162 88.4216 181.865 87.8673 182.61 87.3927L183.684 89.0801C183.053 89.4815 182.459 89.9504 181.911 90.4841L180.515 89.052ZM190.254 85.3776C191.137 85.4228 192.022 85.5585 192.895 85.7882L192.387 87.7224C191.647 87.528 190.899 87.4132 190.152 87.375L190.254 85.3776ZM192.895 85.7882L193.768 86.0177L193.26 87.952L192.387 87.7224L192.895 85.7882ZM196.387 86.7063L197.26 86.9358L196.751 88.8701L195.878 88.6406L196.387 86.7063ZM197.26 86.9358L199.446 87.5106L198.938 89.4449L196.751 88.8701L197.26 86.9358Z" fill="#FF6849" fill-opacity="0.25"/>
<path d="M219.984 175.041L209.285 170.698L210.874 182.136L219.984 175.041ZM208.789 176.596L208.927 177.587L208.927 177.587L208.789 176.596ZM204.457 177.198L204.319 176.208L204.319 176.208L204.457 177.198ZM141.248 107.429L142.531 109.076L144.109 107.847L142.826 106.2L141.248 107.429ZM146.378 114.016L148.943 117.31L150.521 116.081L147.956 112.787L146.378 114.016ZM152.791 122.25L155.356 125.544L156.934 124.315L154.369 121.021L152.791 122.25ZM159.203 130.484L161.768 133.777L163.346 132.549L160.781 129.255L159.203 130.484ZM165.616 138.718L168.181 142.011L169.759 140.783L167.194 137.489L165.616 138.718ZM172.028 146.952L174.593 150.245L176.171 149.016L173.606 145.723L172.028 146.952ZM178.441 155.186L181.006 158.479L182.584 157.25L180.019 153.957L178.441 155.186ZM184.853 163.42L187.418 166.713L188.996 165.484L186.431 162.191L184.853 163.42ZM191.266 171.654L192.548 173.3L194.126 172.071L192.844 170.425L191.266 171.654ZM192.548 173.3C193.113 174.025 193.746 174.68 194.433 175.258L195.721 173.728C195.14 173.239 194.604 172.685 194.126 172.071L192.548 173.3ZM201.878 178.28C202.774 178.344 203.684 178.315 204.594 178.189L204.319 176.208C203.549 176.315 202.779 176.339 202.021 176.285L201.878 178.28ZM204.594 178.189L205.461 178.068L205.186 176.087L204.319 176.208L204.594 178.189ZM208.06 177.707L208.927 177.587L208.652 175.606L207.785 175.726L208.06 177.707ZM208.927 177.587L211.166 177.276L210.891 175.295L208.652 175.606L208.927 177.587ZM219.984 175.041L209.285 170.698L210.874 182.136L219.984 175.041ZM208.789 176.596L208.927 177.587L208.927 177.587L208.789 176.596ZM204.457 177.198L204.319 176.208L204.319 176.208L204.457 177.198ZM141.248 107.429L142.531 109.076L144.109 107.847L142.826 106.2L141.248 107.429ZM146.378 114.016L148.943 117.31L150.521 116.081L147.956 112.787L146.378 114.016ZM152.791 122.25L155.356 125.544L156.934 124.315L154.369 121.021L152.791 122.25ZM159.203 130.484L161.768 133.777L163.346 132.549L160.781 129.255L159.203 130.484ZM165.616 138.718L168.181 142.011L169.759 140.783L167.194 137.489L165.616 138.718ZM172.028 146.952L174.593 150.245L176.171 149.016L173.606 145.723L172.028 146.952ZM178.441 155.186L181.006 158.479L182.584 157.25L180.019 153.957L178.441 155.186ZM184.853 163.42L187.418 166.713L188.996 165.484L186.431 162.191L184.853 163.42ZM191.266 171.654L192.548 173.3L194.126 172.071L192.844 170.425L191.266 171.654ZM192.548 173.3C193.113 174.025 193.746 174.68 194.433 175.258L195.721 173.728C195.14 173.239 194.604 172.685 194.126 172.071L192.548 173.3ZM201.878 178.28C202.774 178.344 203.684 178.315 204.594 178.189L204.319 176.208C203.549 176.315 202.779 176.339 202.021 176.285L201.878 178.28ZM204.594 178.189L205.461 178.068L205.186 176.087L204.319 176.208L204.594 178.189ZM208.06 177.707L208.927 177.587L208.652 175.606L207.785 175.726L208.06 177.707ZM208.927 177.587L211.166 177.276L210.891 175.295L208.652 175.606L208.927 177.587Z" fill="#FF6849" fill-opacity="0.25"/>
<path d="M285.525 118.414L286.325 117.813L285.525 118.414ZM278.818 144.277L278.954 132.731L288.885 138.622L278.818 144.277ZM284.584 134.556L285.444 135.066L284.584 134.556ZM286.252 131.743L285.392 131.233L285.392 131.233L286.252 131.743ZM266.381 91.2685L267.711 93.0381L266.112 94.2394L264.782 92.4698L266.381 91.2685ZM271.699 98.347L274.359 101.886L272.76 103.088L270.1 99.5483L271.699 98.347ZM278.347 107.195L281.006 110.734L279.407 111.936L276.748 108.396L278.347 107.195ZM284.995 116.043L286.325 117.813L284.726 119.014L283.396 117.245L284.995 116.043ZM286.325 117.813C286.948 118.643 287.461 119.532 287.862 120.459L286.027 121.253C285.688 120.469 285.254 119.717 284.726 119.014L286.325 117.813ZM288.353 129.456C288.055 130.421 287.642 131.36 287.112 132.253L285.392 131.233C285.841 130.477 286.19 129.682 286.442 128.866L288.353 129.456ZM287.112 132.253L286.779 132.816L285.058 131.796L285.392 131.233L287.112 132.253ZM285.778 134.504L285.444 135.066L283.724 134.046L284.057 133.483L285.778 134.504ZM285.444 135.066L284.291 137.011L282.571 135.99L283.724 134.046L285.444 135.066ZM285.525 118.414L286.325 117.813L285.525 118.414ZM278.818 144.277L278.954 132.731L288.885 138.622L278.818 144.277ZM284.584 134.556L285.444 135.066L284.584 134.556ZM286.252 131.743L285.392 131.233L285.392 131.233L286.252 131.743ZM266.381 91.2685L267.711 93.0381L266.112 94.2394L264.782 92.4698L266.381 91.2685ZM271.699 98.347L274.359 101.886L272.76 103.088L270.1 99.5483L271.699 98.347ZM278.347 107.195L281.006 110.734L279.407 111.936L276.748 108.396L278.347 107.195ZM284.995 116.043L286.325 117.813L284.726 119.014L283.396 117.245L284.995 116.043ZM286.325 117.813C286.948 118.643 287.461 119.532 287.862 120.459L286.027 121.253C285.688 120.469 285.254 119.717 284.726 119.014L286.325 117.813ZM288.353 129.456C288.055 130.421 287.642 131.36 287.112 132.253L285.392 131.233C285.841 130.477 286.19 129.682 286.442 128.866L288.353 129.456ZM287.112 132.253L286.779 132.816L285.058 131.796L285.392 131.233L287.112 132.253ZM285.778 134.504L285.444 135.066L283.724 134.046L284.057 133.483L285.778 134.504ZM285.444 135.066L284.291 137.011L282.571 135.99L283.724 134.046L285.444 135.066Z" fill="#FF6849" fill-opacity="0.25"/>
<path d="M303.945 162.79L304.925 162.99L303.945 162.79ZM280.958 176.098L288.979 167.791L292.163 178.89L280.958 176.098ZM291.725 173.01L291.449 172.048L291.449 172.048L291.725 173.01ZM295.496 171.928L295.772 172.889L295.496 171.928ZM313.222 122.292L312.807 124.327L310.847 123.928L311.262 121.893L313.222 122.292ZM311.563 130.432L310.733 134.502L308.773 134.102L309.603 130.032L311.563 130.432ZM309.488 140.606L308.659 144.676L306.699 144.277L307.529 140.207L309.488 140.606ZM307.414 150.781L306.584 154.851L304.625 154.451L305.454 150.381L307.414 150.781ZM305.34 160.955L304.925 162.99L302.965 162.591L303.38 160.556L305.34 160.955ZM304.925 162.99C304.734 163.928 304.442 164.831 304.062 165.685L302.235 164.871C302.557 164.148 302.803 163.385 302.965 162.591L304.925 162.99ZM298.39 171.818C297.569 172.264 296.692 172.625 295.772 172.889L295.22 170.967C295.999 170.743 296.741 170.438 297.436 170.06L298.39 171.818ZM295.772 172.889L295.017 173.106L294.466 171.183L295.22 170.967L295.772 172.889ZM292.755 173.755L292.001 173.971L291.449 172.048L292.203 171.832L292.755 173.755ZM292.001 173.971L289.847 174.589L289.296 172.666L291.449 172.048L292.001 173.971ZM303.945 162.79L304.925 162.99L303.945 162.79ZM280.958 176.098L288.979 167.791L292.163 178.89L280.958 176.098ZM291.725 173.01L291.449 172.048L291.449 172.048L291.725 173.01ZM295.496 171.928L295.772 172.889L295.496 171.928ZM313.222 122.292L312.807 124.327L310.847 123.928L311.262 121.893L313.222 122.292ZM311.563 130.432L310.733 134.502L308.773 134.102L309.603 130.032L311.563 130.432ZM309.488 140.606L308.659 144.676L306.699 144.277L307.529 140.207L309.488 140.606ZM307.414 150.781L306.584 154.851L304.625 154.451L305.454 150.381L307.414 150.781ZM305.34 160.955L304.925 162.99L302.965 162.591L303.38 160.556L305.34 160.955ZM304.925 162.99C304.734 163.928 304.442 164.831 304.062 165.685L302.235 164.871C302.557 164.148 302.803 163.385 302.965 162.591L304.925 162.99ZM298.39 171.818C297.569 172.264 296.692 172.625 295.772 172.889L295.22 170.967C295.999 170.743 296.741 170.438 297.436 170.06L298.39 171.818ZM295.772 172.889L295.017 173.106L294.466 171.183L295.22 170.967L295.772 172.889ZM292.755 173.755L292.001 173.971L291.449 172.048L292.203 171.832L292.755 173.755ZM292.001 173.971L289.847 174.589L289.296 172.666L291.449 172.048L292.001 173.971Z" fill="#FF6849" fill-opacity="0.25"/>
<path d="M292.827 36.489L292.705 35.4966L292.827 36.489ZM312.142 54.975L302.077 49.3151L312.011 43.4287L312.142 54.975ZM306.38 45.2514L307.24 44.7417L307.24 44.7417L306.38 45.2514ZM304.62 42.2815L303.76 42.7913L303.76 42.7912L304.62 42.2815ZM239.213 42.0958L241.352 41.8318L241.597 43.8167L239.458 44.0807L239.213 42.0958ZM247.771 41.0399L252.051 40.5119L252.296 42.4969L248.016 43.0248L247.771 41.0399ZM258.47 39.72L262.749 39.1921L262.994 41.1771L258.715 41.705L258.47 39.72ZM269.168 38.4002L273.448 37.8723L273.693 39.8572L269.413 40.3852L269.168 38.4002ZM279.867 37.0804L284.146 36.5524L284.391 38.5374L280.112 39.0653L279.867 37.0804ZM290.565 35.7605L292.705 35.4966L292.95 37.4815L290.81 37.7455L290.565 35.7605ZM292.705 35.4966C293.717 35.3717 294.724 35.3675 295.711 35.4754L295.493 37.4635C294.659 37.3723 293.806 37.3758 292.95 37.4815L292.705 35.4966ZM303.66 39.3799C304.348 40.0945 304.961 40.8947 305.481 41.7717L303.76 42.7912C303.32 42.0486 302.801 41.3716 302.219 40.7673L303.66 39.3799ZM305.481 41.7717L305.833 42.3657L304.112 43.3852L303.76 42.7913L305.481 41.7717ZM306.888 44.1477L307.24 44.7417L305.52 45.7612L305.168 45.1672L306.888 44.1477ZM307.24 44.7417L308.393 46.6864L306.672 47.7059L305.52 45.7612L307.24 44.7417ZM292.827 36.489L292.705 35.4966L292.827 36.489ZM312.142 54.975L302.077 49.3151L312.011 43.4287L312.142 54.975ZM306.38 45.2514L307.24 44.7417L307.24 44.7417L306.38 45.2514ZM304.62 42.2815L303.76 42.7913L303.76 42.7912L304.62 42.2815ZM239.213 42.0958L241.352 41.8318L241.597 43.8167L239.458 44.0807L239.213 42.0958ZM247.771 41.0399L252.051 40.5119L252.296 42.4969L248.016 43.0248L247.771 41.0399ZM258.47 39.72L262.749 39.1921L262.994 41.1771L258.715 41.705L258.47 39.72ZM269.168 38.4002L273.448 37.8723L273.693 39.8572L269.413 40.3852L269.168 38.4002ZM279.867 37.0804L284.146 36.5524L284.391 38.5374L280.112 39.0653L279.867 37.0804ZM290.565 35.7605L292.705 35.4966L292.95 37.4815L290.81 37.7455L290.565 35.7605ZM292.705 35.4966C293.717 35.3717 294.724 35.3675 295.711 35.4754L295.493 37.4635C294.659 37.3723 293.806 37.3758 292.95 37.4815L292.705 35.4966ZM303.66 39.3799C304.348 40.0945 304.961 40.8947 305.481 41.7717L303.76 42.7912C303.32 42.0486 302.801 41.3716 302.219 40.7673L303.66 39.3799ZM305.481 41.7717L305.833 42.3657L304.112 43.3852L303.76 42.7913L305.481 41.7717ZM306.888 44.1477L307.24 44.7417L305.52 45.7612L305.168 45.1672L306.888 44.1477ZM307.24 44.7417L308.393 46.6864L306.672 47.7059L305.52 45.7612L307.24 44.7417Z" fill="#FF6849" fill-opacity="0.25"/>
<path d="M220.461 113.562L220.902 112.664L220.461 113.562ZM226.497 139.607L221.176 129.359L232.711 129.874L226.497 139.607ZM227.001 128.316L228 128.36L228 128.36L227.001 128.316ZM227.156 124.867L226.157 124.822L226.157 124.822L227.156 124.867ZM172.531 88.8895L174.466 89.8405L173.584 91.6354L171.649 90.6844L172.531 88.8895ZM180.271 92.6934L184.14 94.5954L183.258 96.3903L179.388 94.4884L180.271 92.6934ZM189.945 97.4484L193.814 99.3504L192.932 101.145L189.062 99.2433L189.945 97.4484ZM199.619 102.203L203.488 104.105L202.606 105.9L198.737 103.998L199.619 102.203ZM209.293 106.958L213.163 108.86L212.28 110.655L208.411 108.753L209.293 106.958ZM218.967 111.713L220.902 112.664L220.02 114.459L218.085 113.508L218.967 111.713ZM220.902 112.664C221.817 113.114 222.662 113.662 223.428 114.293L222.158 115.837C221.51 115.304 220.795 114.84 220.02 114.459L220.902 112.664ZM227.941 121.913C228.126 122.888 228.2 123.893 228.155 124.911L226.157 124.822C226.195 123.96 226.132 123.109 225.976 122.285L227.941 121.913ZM228.155 124.911L228.124 125.601L226.126 125.512L226.157 124.822L228.155 124.911ZM228.031 127.67L228 128.36L226.002 128.271L226.033 127.581L228.031 127.67ZM228 128.36L227.9 130.618L225.902 130.529L226.002 128.271L228 128.36ZM220.461 113.562L220.902 112.664L220.461 113.562ZM226.497 139.607L221.176 129.359L232.711 129.874L226.497 139.607ZM227.001 128.316L228 128.36L228 128.36L227.001 128.316ZM227.156 124.867L226.157 124.822L226.157 124.822L227.156 124.867ZM172.531 88.8895L174.466 89.8405L173.584 91.6354L171.649 90.6844L172.531 88.8895ZM180.271 92.6934L184.14 94.5954L183.258 96.3903L179.388 94.4884L180.271 92.6934ZM189.945 97.4484L193.814 99.3504L192.932 101.145L189.062 99.2433L189.945 97.4484ZM199.619 102.203L203.488 104.105L202.606 105.9L198.737 103.998L199.619 102.203ZM209.293 106.958L213.163 108.86L212.28 110.655L208.411 108.753L209.293 106.958ZM218.967 111.713L220.902 112.664L220.02 114.459L218.085 113.508L218.967 111.713ZM220.902 112.664C221.817 113.114 222.662 113.662 223.428 114.293L222.158 115.837C221.51 115.304 220.795 114.84 220.02 114.459L220.902 112.664ZM227.941 121.913C228.126 122.888 228.2 123.893 228.155 124.911L226.157 124.822C226.195 123.96 226.132 123.109 225.976 122.285L227.941 121.913ZM228.155 124.911L228.124 125.601L226.126 125.512L226.157 124.822L228.155 124.911ZM228.031 127.67L228 128.36L226.002 128.271L226.033 127.581L228.031 127.67ZM228 128.36L227.9 130.618L225.902 130.529L226.002 128.271L228 128.36Z" fill="#FF6849" fill-opacity="0.25"/>
<path d="M111.25 91L105.724 101.139L99.7065 91.2841L111.25 91ZM101.75 96.8011L101.229 95.9477H101.229L101.75 96.8011ZM97.9961 99.0934L97.4749 98.24H97.4749L97.9961 99.0934ZM91.25 134V131.533H93.25V134H91.25ZM91.25 124.134V119.201H93.25V124.134H91.25ZM91.25 111.801V109.335H93.25V111.801H91.25ZM91.25 109.335C91.25 108.438 91.3424 107.554 91.5207 106.695L93.479 107.101C93.3282 107.828 93.25 108.576 93.25 109.335H91.25ZM95.3626 99.8471C96.0033 99.2469 96.7097 98.7073 97.4749 98.24L98.5172 99.9469C97.8694 100.342 97.2718 100.799 96.7298 101.307L95.3626 99.8471ZM97.4749 98.24L98.2257 97.7815L99.268 99.4884L98.5172 99.9469L97.4749 98.24ZM100.478 96.4061L101.229 95.9477L102.271 97.6546L101.52 98.113L100.478 96.4061ZM101.229 95.9477L103.129 94.7874L104.171 96.4943L102.271 97.6546L101.229 95.9477ZM111.25 91L105.724 101.139L99.7065 91.2841L111.25 91ZM101.75 96.8011L101.229 95.9477H101.229L101.75 96.8011ZM97.9961 99.0934L97.4749 98.24H97.4749L97.9961 99.0934ZM91.25 134V131.533H93.25V134H91.25ZM91.25 124.134V119.201H93.25V124.134H91.25ZM91.25 111.801V109.335H93.25V111.801H91.25ZM91.25 109.335C91.25 108.438 91.3424 107.554 91.5207 106.695L93.479 107.101C93.3282 107.828 93.25 108.576 93.25 109.335H91.25ZM95.3626 99.8471C96.0033 99.2469 96.7097 98.7073 97.4749 98.24L98.5172 99.9469C97.8694 100.342 97.2718 100.799 96.7298 101.307L95.3626 99.8471ZM97.4749 98.24L98.2257 97.7815L99.268 99.4884L98.5172 99.9469L97.4749 98.24ZM100.478 96.4061L101.229 95.9477L102.271 97.6546L101.52 98.113L100.478 96.4061ZM101.229 95.9477L103.129 94.7874L104.171 96.4943L102.271 97.6546L101.229 95.9477Z" fill="#FF6849" fill-opacity="0.25"/>
<path d="M55.9721 109.632L58.259 120.95L47.3136 117.272L55.9721 109.632ZM52.3714 120.345L53.3193 120.664L53.3193 120.664L52.3714 120.345ZM50.9676 124.522L50.0197 124.204L50.0197 124.204L50.9676 124.522ZM53.3122 136.248L54.0647 135.59L53.3122 136.248ZM63.6054 149.528L62.5008 148.266L64.0058 146.948L65.1104 148.211L63.6054 149.528ZM59.1871 144.479L56.978 141.955L58.483 140.638L60.6921 143.162L59.1871 144.479ZM53.6643 138.169L52.5597 136.907L54.0647 135.59L55.1693 136.852L53.6643 138.169ZM52.5597 136.907C51.957 136.218 51.4356 135.476 50.9983 134.695L52.7435 133.718C53.1133 134.379 53.5545 135.007 54.0647 135.59L52.5597 136.907ZM49.4288 126.846C49.5321 125.957 49.7281 125.071 50.0197 124.204L51.9155 124.841C51.6686 125.575 51.5028 126.324 51.4154 127.077L49.4288 126.846ZM50.0197 124.204L50.3004 123.368L52.1962 124.005L51.9155 124.841L50.0197 124.204ZM51.1427 120.862L51.4235 120.027L53.3193 120.664L53.0385 121.499L51.1427 120.862ZM51.4235 120.027L52.1436 117.884L54.0394 118.521L53.3193 120.664L51.4235 120.027ZM55.9721 109.632L58.259 120.95L47.3136 117.272L55.9721 109.632ZM52.3714 120.345L53.3193 120.664L53.3193 120.664L52.3714 120.345ZM50.9676 124.522L50.0197 124.204L50.0197 124.204L50.9676 124.522ZM53.3122 136.248L54.0647 135.59L53.3122 136.248ZM63.6054 149.528L62.5008 148.266L64.0058 146.948L65.1104 148.211L63.6054 149.528ZM59.1871 144.479L56.978 141.955L58.483 140.638L60.6921 143.162L59.1871 144.479ZM53.6643 138.169L52.5597 136.907L54.0647 135.59L55.1693 136.852L53.6643 138.169ZM52.5597 136.907C51.957 136.218 51.4356 135.476 50.9983 134.695L52.7435 133.718C53.1133 134.379 53.5545 135.007 54.0647 135.59L52.5597 136.907ZM49.4288 126.846C49.5321 125.957 49.7281 125.071 50.0197 124.204L51.9155 124.841C51.6686 125.575 51.5028 126.324 51.4154 127.077L49.4288 126.846ZM50.0197 124.204L50.3004 123.368L52.1962 124.005L51.9155 124.841L50.0197 124.204ZM51.1427 120.862L51.4235 120.027L53.3193 120.664L53.0385 121.499L51.1427 120.862ZM51.4235 120.027L52.1436 117.884L54.0394 118.521L53.3193 120.664L51.4235 120.027Z" fill="#FF6849" fill-opacity="0.25"/>
<path d="M139.029 41.1475L127.809 43.874L131.058 32.7935L139.029 41.1475ZM128.183 37.9673L127.902 38.9269L127.902 38.9269L128.183 37.9673ZM123.002 36.4481L122.721 37.4077L123.002 36.4481ZM112.564 38.2609L113.153 39.0694L112.564 38.2609ZM83.123 58.4512L84.5656 57.4013L85.7425 59.0184L84.2999 60.0683L83.123 58.4512ZM88.8936 54.2514L91.7789 52.1516L92.9558 53.7686L90.0705 55.8685L88.8936 54.2514ZM96.1068 49.0017L98.9922 46.9018L100.169 48.5189L97.2837 50.6188L96.1068 49.0017ZM103.32 43.752L106.205 41.6521L107.382 43.2692L104.497 45.3691L103.32 43.752ZM110.533 38.5023L111.976 37.4523L113.153 39.0694L111.71 40.1194L110.533 38.5023ZM111.976 37.4523C112.623 36.9817 113.306 36.5758 114.015 36.2363L114.878 38.0404C114.278 38.3276 113.7 38.671 113.153 39.0694L111.976 37.4523ZM120.954 35.0312C121.736 35.1116 122.516 35.2635 123.284 35.4886L122.721 37.4077C122.071 37.2173 121.411 37.0887 120.75 37.0208L120.954 35.0312ZM123.284 35.4886L124.32 35.7924L123.757 37.7116L122.721 37.4077L123.284 35.4886ZM127.428 36.7039L128.465 37.0077L127.902 38.9269L126.866 38.6231L127.428 36.7039ZM128.465 37.0077L130.634 37.6438L130.071 39.563L127.902 38.9269L128.465 37.0077ZM139.029 41.1475L127.809 43.874L131.058 32.7935L139.029 41.1475ZM128.183 37.9673L127.902 38.9269L127.902 38.9269L128.183 37.9673ZM123.002 36.4481L122.721 37.4077L123.002 36.4481ZM112.564 38.2609L113.153 39.0694L112.564 38.2609ZM83.123 58.4512L84.5656 57.4013L85.7425 59.0184L84.2999 60.0683L83.123 58.4512ZM88.8936 54.2514L91.7789 52.1516L92.9558 53.7686L90.0705 55.8685L88.8936 54.2514ZM96.1068 49.0017L98.9922 46.9018L100.169 48.5189L97.2837 50.6188L96.1068 49.0017ZM103.32 43.752L106.205 41.6521L107.382 43.2692L104.497 45.3691L103.32 43.752ZM110.533 38.5023L111.976 37.4523L113.153 39.0694L111.71 40.1194L110.533 38.5023ZM111.976 37.4523C112.623 36.9817 113.306 36.5758 114.015 36.2363L114.878 38.0404C114.278 38.3276 113.7 38.671 113.153 39.0694L111.976 37.4523ZM120.954 35.0312C121.736 35.1116 122.516 35.2635 123.284 35.4886L122.721 37.4077C122.071 37.2173 121.411 37.0887 120.75 37.0208L120.954 35.0312ZM123.284 35.4886L124.32 35.7924L123.757 37.7116L122.721 37.4077L123.284 35.4886ZM127.428 36.7039L128.465 37.0077L127.902 38.9269L126.866 38.6231L127.428 36.7039ZM128.465 37.0077L130.634 37.6438L130.071 39.563L127.902 38.9269L128.465 37.0077Z" fill="#FF6849" fill-opacity="0.25"/>
<path d="M70.1688 184.431C67.2332 182.734 65.4259 179.596 65.4277 176.199L65.4382 156.728C65.4401 153.331 67.2507 150.191 70.1882 148.49L87.0245 138.746C89.9619 137.045 93.5799 137.043 96.5155 138.74L113.341 148.467C116.277 150.164 118.084 153.302 118.082 156.699L118.072 176.171C118.07 179.568 116.259 182.708 113.322 184.408L96.4856 194.153C93.5481 195.853 89.9302 195.855 86.9945 194.158L70.1688 184.431Z" stroke="#FF6849"/>
<path d="M73.2948 181.658C70.8226 180.229 69.3007 177.586 69.3023 174.725L69.3113 157.947C69.3129 155.086 70.8376 152.442 73.3113 151.01L87.8189 142.613C90.2925 141.181 93.3393 141.18 95.8114 142.609L110.31 150.99C112.782 152.419 114.304 155.062 114.302 157.923L114.293 174.701C114.292 177.561 112.767 180.206 110.293 181.638L95.7858 190.034C93.3121 191.466 90.2654 191.468 87.7933 190.039L73.2948 181.658Z" fill="#FCFCFC"/>
<g clip-path="url(#clip0_3850_20093)">
<path d="M98.8039 157.303H85.2244C84.4744 157.303 83.8665 157.912 83.8665 158.664V164.109C83.8665 164.861 84.4744 165.471 85.2244 165.471H98.8039C99.5538 165.471 100.162 164.861 100.162 164.109V158.664C100.162 157.912 99.5538 157.303 98.8039 157.303Z" fill="#F9E9E7"/>
<path d="M98.8039 165.471H85.2244C84.4744 165.471 83.8665 166.08 83.8665 166.832V172.277C83.8665 173.029 84.4744 173.639 85.2244 173.639H98.8039C99.5538 173.639 100.162 173.029 100.162 172.277V166.832C100.162 166.08 99.5538 165.471 98.8039 165.471Z" fill="#F9E9E7"/>
<path d="M87.2612 162.068C87.6362 162.068 87.9402 161.764 87.9402 161.388C87.9402 161.012 87.6362 160.707 87.2612 160.707C86.8863 160.707 86.5823 161.012 86.5823 161.388C86.5823 161.764 86.8863 162.068 87.2612 162.068Z" stroke="#FF6849" stroke-linecap="round" stroke-linejoin="round"/>
<path d="M92.6929 161.387H97.4457" stroke="#FF6849" stroke-linecap="round" stroke-linejoin="round"/>
<path d="M98.8039 157.303H85.2244C84.4744 157.303 83.8665 157.912 83.8665 158.664V164.109C83.8665 164.861 84.4744 165.471 85.2244 165.471H98.8039C99.5538 165.471 100.162 164.861 100.162 164.109V158.664C100.162 157.912 99.5538 157.303 98.8039 157.303Z" stroke="#FF6849" stroke-linecap="round" stroke-linejoin="round"/>
<path d="M98.8039 165.471H85.2244C84.4744 165.471 83.8665 166.08 83.8665 166.832V172.277C83.8665 173.029 84.4744 173.639 85.2244 173.639H98.8039C99.5538 173.639 100.162 173.029 100.162 172.277V166.832C100.162 166.08 99.5538 165.471 98.8039 165.471Z" stroke="#FF6849" stroke-linecap="round" stroke-linejoin="round"/>
<path d="M87.2612 170.234C87.6362 170.234 87.9402 169.93 87.9402 169.554C87.9402 169.178 87.6362 168.873 87.2612 168.873C86.8863 168.873 86.5823 169.178 86.5823 169.554C86.5823 169.93 86.8863 170.234 87.2612 170.234Z" stroke="#FF6849" stroke-linecap="round" stroke-linejoin="round"/>
<path d="M92.6929 169.557H97.4457" stroke="#FF6849" stroke-linecap="round" stroke-linejoin="round"/>
</g>
<path d="M214.998 94.2689C212.035 92.572 210.202 89.4486 210.19 86.0753L210.121 66.7409C210.109 63.3675 211.92 60.2567 214.871 58.5803L231.785 48.9717C234.736 47.2952 238.38 47.3078 241.343 49.0047L258.326 58.7305C261.289 60.4274 263.122 63.5507 263.133 66.9241L263.202 86.2585C263.214 89.6318 261.404 92.7426 258.453 94.419L241.538 104.028C238.587 105.704 234.944 105.692 231.981 103.995L214.998 94.2689Z" stroke="#FF6849"/>
<path d="M218.15 91.5975C215.654 90.1686 214.111 87.5384 214.101 84.6977L214.042 68.0375C214.032 65.1968 215.556 62.5771 218.041 61.1654L232.616 52.8858C235.101 51.474 238.169 51.4846 240.665 52.9136L255.299 61.2942C257.794 62.7231 259.337 65.3533 259.347 68.194L259.407 84.8542C259.417 87.6949 257.892 90.3146 255.407 91.7263L240.832 100.006C238.347 101.418 235.279 101.407 232.784 99.9781L218.15 91.5975Z" fill="#FCFCFC"/>
<g clip-path="url(#clip1_3850_20093)">
<path d="M242.827 74.7203C242.766 74.7023 242.711 74.6676 242.669 74.6201C242.627 74.5726 242.601 74.5143 242.591 74.4522C242.482 73.2726 241.965 72.1655 241.126 71.3156C240.288 70.4657 239.178 69.9243 237.983 69.7818C236.788 69.6392 235.579 69.9041 234.559 70.5323C233.538 71.1605 232.767 72.114 232.375 73.2337C232.349 73.2859 232.308 73.3297 232.258 73.36C232.207 73.3902 232.149 73.4056 232.09 73.4043C231.521 73.4419 230.964 73.5895 230.453 73.8385C229.942 74.0876 229.486 74.4333 229.11 74.8559C228.352 75.7094 227.969 76.8243 228.046 77.9554C228.124 79.0865 228.654 80.1411 229.522 80.8872C230.389 81.6333 231.522 82.0098 232.672 81.9339H241.997C242.906 81.9286 243.782 81.5953 244.458 80.9974C245.134 80.3995 245.564 79.5784 245.666 78.6895C245.769 77.8006 245.536 76.9057 245.013 76.1742C244.489 75.4427 243.712 74.9254 242.827 74.7203Z" fill="#F9E9E7"/>
<path d="M242.827 74.7203C242.766 74.7023 242.711 74.6676 242.669 74.6201C242.627 74.5726 242.601 74.5143 242.591 74.4522C242.482 73.2726 241.965 72.1655 241.126 71.3156C240.288 70.4657 239.178 69.9243 237.983 69.7818C236.788 69.6392 235.579 69.9041 234.559 70.5323C233.538 71.1605 232.767 72.114 232.375 73.2337C232.349 73.2859 232.308 73.3297 232.258 73.36C232.207 73.3902 232.149 73.4056 232.09 73.4043C231.521 73.4419 230.964 73.5895 230.453 73.8385C229.942 74.0876 229.486 74.4333 229.11 74.8559C228.352 75.7094 227.969 76.8243 228.046 77.9554C228.124 79.0865 228.654 80.1411 229.522 80.8872C230.389 81.6333 231.522 82.0098 232.672 81.9339H241.997C242.906 81.9286 243.782 81.5953 244.458 80.9974C245.134 80.3995 245.564 79.5784 245.666 78.6895C245.769 77.8006 245.536 76.9057 245.013 76.1742C244.489 75.4427 243.712 74.9254 242.827 74.7203Z" stroke="#FF6849" stroke-linecap="round" stroke-linejoin="round"/>
</g>
<path d="M118.169 93.9607C115.233 92.2637 113.426 89.1256 113.428 85.7284L113.438 66.2572C113.44 62.8599 115.251 59.7198 118.188 58.0196L135.024 48.2749C137.962 46.5747 141.58 46.5727 144.516 48.2697L161.341 57.9962C164.277 59.6932 166.084 62.8314 166.082 66.2286L166.072 85.6998C166.07 89.097 164.259 92.2371 161.322 93.9373L144.486 103.682C141.548 105.382 137.93 105.384 134.995 103.687L118.169 93.9607Z" stroke="#FF6849"/>
<path d="M121.295 90.6576C118.823 89.2285 117.301 86.5859 117.302 83.7251L117.311 66.947C117.313 64.0862 118.838 61.4418 121.311 60.0101L135.819 51.6132C138.293 50.1814 141.339 50.1798 143.811 51.6088L158.31 59.99C160.782 61.4191 162.304 64.0618 162.302 66.9226L162.293 83.7007C162.292 86.5615 160.767 89.2058 158.293 90.6375L143.786 99.0344C141.312 100.466 138.265 100.468 135.793 99.0388L121.295 90.6576Z" fill="#FCFCFC"/>
<g clip-path="url(#clip2_3850_20093)">
<path d="M140.014 81.1202C140.952 81.1202 141.712 80.3583 141.712 79.4185C141.712 78.4787 140.952 77.7168 140.014 77.7168C139.077 77.7168 138.317 78.4787 138.317 79.4185C138.317 80.3583 139.077 81.1202 140.014 81.1202Z" fill="#F9E9E7"/>
<path d="M140.014 81.1202C140.952 81.1202 141.712 80.3583 141.712 79.4185C141.712 78.4787 140.952 77.7168 140.014 77.7168C139.077 77.7168 138.317 78.4787 138.317 79.4185C138.317 80.3583 139.077 81.1202 140.014 81.1202Z" stroke="#FF6849" stroke-linecap="round" stroke-linejoin="round"/>
<path d="M136.613 75.8887C138.491 74.0058 141.537 74.0058 143.415 75.8887" stroke="#FF6849" stroke-linecap="round" stroke-linejoin="round"/>
<path d="M134.613 73.8014C137.596 70.811 142.432 70.811 145.415 73.8014" stroke="#FF6849" stroke-linecap="round" stroke-linejoin="round"/>
<path d="M132.659 71.6682C136.735 67.6314 143.294 67.6314 147.37 71.6683" stroke="#FF6849" stroke-linecap="round" stroke-linejoin="round"/>
</g>
<path d="M227.998 179.269C225.035 177.572 223.202 174.449 223.19 171.075L223.121 151.741C223.109 148.368 224.92 145.257 227.871 143.58L244.785 133.972C247.736 132.295 251.38 132.308 254.343 134.005L271.326 143.73C274.289 145.427 276.122 148.551 276.133 151.924L276.202 171.258C276.214 174.632 274.404 177.743 271.453 179.419L254.538 189.028C251.587 190.704 247.944 190.692 244.981 188.995L227.998 179.269Z" stroke="#FF6849"/>
<path d="M231.15 176.598C228.654 175.169 227.111 172.538 227.101 169.698L227.042 153.037C227.032 150.197 228.556 147.577 231.041 146.165L245.616 137.886C248.101 136.474 251.169 136.485 253.665 137.914L268.299 146.294C270.794 147.723 272.337 150.353 272.347 153.194L272.407 169.854C272.417 172.695 270.892 175.315 268.407 176.726L253.832 185.006C251.347 186.418 248.279 186.407 245.784 184.978L231.15 176.598Z" fill="#FCFCFC"/>
<path d="M250.014 159.13C254.514 159.13 258.162 157.75 258.162 156.047V165.914C258.162 167.616 254.514 168.997 250.014 168.997C245.514 168.997 241.866 167.616 241.866 165.914V156.047C241.866 157.75 245.514 159.13 250.014 159.13Z" fill="#F9E9E7"/>
<path d="M250.014 159.13C254.514 159.13 258.162 157.749 258.162 156.046C258.162 154.343 254.514 152.963 250.014 152.963C245.514 152.963 241.866 154.343 241.866 156.046C241.866 157.749 245.514 159.13 250.014 159.13Z" fill="white"/>
<path d="M250.014 159.13C254.514 159.13 258.162 157.749 258.162 156.046C258.162 154.343 254.514 152.963 250.014 152.963C245.514 152.963 241.866 154.343 241.866 156.046C241.866 157.749 245.514 159.13 250.014 159.13Z" stroke="#FF6849" stroke-linecap="round" stroke-linejoin="round"/>
<path d="M241.866 156.047V165.914C241.866 167.616 245.514 168.997 250.014 168.997C254.514 168.997 258.162 167.616 258.162 165.914V156.047" stroke="#FF6849" stroke-linecap="round" stroke-linejoin="round"/>
<path d="M258.162 160.98C258.162 162.683 254.514 164.064 250.014 164.064C245.514 164.064 241.866 162.683 241.866 160.98" stroke="#FF6849" stroke-linecap="round" stroke-linejoin="round"/>
<path d="M158.061 163.336C159.915 162.264 162.202 162.264 164.061 163.336L173.66 168.871C175.518 169.943 176.665 171.924 176.669 174.068L176.69 185.139C176.694 187.283 175.555 189.264 173.7 190.336L164.122 195.871C162.268 196.943 159.981 196.943 158.122 195.871L148.523 190.336C146.665 189.264 145.518 187.283 145.514 185.139L145.493 174.068C145.488 171.924 146.628 169.943 148.483 168.871L158.061 163.336Z" fill="#FF6849"/>
<path d="M163.579 180.907H162.989L162.78 180.712C163.511 179.893 163.952 178.829 163.952 177.672C163.952 175.092 161.78 173 159.101 173C156.422 173 154.25 175.092 154.25 177.672C154.25 180.252 156.422 182.344 159.101 182.344C160.302 182.344 161.407 181.92 162.258 181.216L162.459 181.417V181.985L166.191 185.571L167.303 184.5L163.579 180.907ZM159.101 180.907C157.243 180.907 155.743 179.462 155.743 177.672C155.743 175.882 157.243 174.438 159.101 174.438C160.959 174.438 162.459 175.882 162.459 177.672C162.459 179.462 160.959 180.907 159.101 180.907Z" fill="white"/>
<path d="M37.1761 92.05C34.6739 90.6211 33.124 87.9947 33.1104 85.1602L33.0302 68.5359C33.0165 65.7014 34.5411 63.0893 37.0296 61.6836L51.6246 53.4394C54.1131 52.0337 57.1876 52.048 59.6898 53.4769L74.3649 61.8569C76.8671 63.2858 78.417 65.9122 78.4307 68.7467L78.5109 85.371C78.5245 88.2055 76.9999 90.8176 74.5114 92.2233L59.9165 100.468C57.4279 101.873 54.3535 101.859 51.8513 100.43L37.1761 92.05Z" fill="#FCFCFC"/>
<path d="M33.985 95.2112C31.0136 93.5144 29.1732 90.3956 29.1569 87.0296L29.0639 67.7369C29.0476 64.3709 30.8581 61.269 33.8132 59.5997L50.7508 50.0323C53.706 48.363 57.3569 48.3799 60.3283 50.0767L77.359 59.8019C80.3304 61.4987 82.1708 64.6175 82.1871 67.9836L82.2801 87.2762C82.2964 90.6423 80.4859 93.7441 77.5308 95.4134L60.5932 104.981C57.638 106.65 53.9871 106.633 51.0157 104.936L33.985 95.2112Z" stroke="#FF6849"/>
<g clip-path="url(#clip3_3850_20093)">
<path d="M54.1784 80.2415H48.6546C48.2733 80.2415 47.9641 79.9391 47.9641 79.566V73.4861C47.9641 73.113 48.2733 72.8105 48.6546 72.8105H54.1784C54.5597 72.8105 54.8689 73.113 54.8689 73.4861V79.566C54.8689 79.9391 54.5597 80.2415 54.1784 80.2415Z" fill="#F9E9E7"/>
<path d="M54.8689 76.5254H60.3927" stroke="#FF6849" stroke-linecap="round" stroke-linejoin="round"/>
<path d="M60.3928 83.2824H59.0118C58.2491 83.2824 57.6309 82.6775 57.6309 81.9313V71.1226C57.6309 70.3764 58.2491 69.7715 59.0118 69.7715H60.3928" stroke="#FF6849" stroke-linecap="round" stroke-linejoin="round"/>
<path d="M63.845 85.3091H61.0831C60.7018 85.3091 60.3926 85.0066 60.3926 84.6336V81.9314C60.3926 81.5584 60.7018 81.2559 61.0831 81.2559H63.845C64.2262 81.2559 64.5354 81.5584 64.5354 81.9314V84.6336C64.5354 85.0066 64.2262 85.3091 63.845 85.3091Z" fill="#F9E9E7"/>
<path d="M63.845 78.5533H61.0831C60.7018 78.5533 60.3926 78.2508 60.3926 77.8777V75.1755C60.3926 74.8025 60.7018 74.5 61.0831 74.5H63.845C64.2262 74.5 64.5354 74.8025 64.5354 75.1755V77.8777C64.5354 78.2508 64.2262 78.5533 63.845 78.5533Z" fill="#F9E9E7"/>
<path d="M63.845 71.7974H61.0831C60.7018 71.7974 60.3926 71.495 60.3926 71.1219V68.4197C60.3926 68.0466 60.7018 67.7441 61.0831 67.7441H63.845C64.2262 67.7441 64.5354 68.0466 64.5354 68.4197V71.1219C64.5354 71.495 64.2262 71.7974 63.845 71.7974Z" fill="#F9E9E7"/>
<path d="M54.1784 80.2415H48.6546C48.2733 80.2415 47.9641 79.9391 47.9641 79.566V73.4861C47.9641 73.113 48.2733 72.8105 48.6546 72.8105H54.1784C54.5597 72.8105 54.8689 73.113 54.8689 73.4861V79.566C54.8689 79.9391 54.5597 80.2415 54.1784 80.2415Z" stroke="#FF6849" stroke-linecap="round" stroke-linejoin="round"/>
<path d="M63.845 85.3091H61.0831C60.7018 85.3091 60.3926 85.0066 60.3926 84.6336V81.9314C60.3926 81.5584 60.7018 81.2559 61.0831 81.2559H63.845C64.2262 81.2559 64.5354 81.5584 64.5354 81.9314V84.6336C64.5354 85.0066 64.2262 85.3091 63.845 85.3091Z" stroke="#FF6849" stroke-linecap="round" stroke-linejoin="round"/>
<path d="M63.845 78.5533H61.0831C60.7018 78.5533 60.3926 78.2508 60.3926 77.8777V75.1755C60.3926 74.8025 60.7018 74.5 61.0831 74.5H63.845C64.2262 74.5 64.5354 74.8025 64.5354 75.1755V77.8777C64.5354 78.2508 64.2262 78.5533 63.845 78.5533Z" stroke="#FF6849" stroke-linecap="round" stroke-linejoin="round"/>
<path d="M63.845 71.7974H61.0831C60.7018 71.7974 60.3926 71.495 60.3926 71.1219V68.4197C60.3926 68.0466 60.7018 67.7441 61.0831 67.7441H63.845C64.2262 67.7441 64.5354 68.0466 64.5354 68.4197V71.1219C64.5354 71.495 64.2262 71.7974 63.845 71.7974Z" stroke="#FF6849" stroke-linecap="round" stroke-linejoin="round"/>
</g>
<path d="M294.227 103.94C291.786 102.511 290.292 99.8527 290.309 96.9655L290.407 80.0328C290.423 77.1456 291.948 74.4687 294.406 73.0103L308.822 64.457C311.28 62.9987 314.298 62.9804 316.739 64.4092L331.058 72.7886C333.499 74.2174 334.993 76.8761 334.976 79.7633L334.879 96.696C334.862 99.5831 333.337 102.26 330.879 103.718L316.463 112.272C314.005 113.73 310.987 113.748 308.546 112.32L294.227 103.94Z" fill="#FCFCFC"/>
<path d="M291.137 107.272C288.237 105.575 286.464 102.418 286.483 98.9897L286.597 79.339C286.616 75.9105 288.427 72.7316 291.346 70.9998L308.076 61.0736C310.995 59.3418 314.579 59.3201 317.478 61.0168L334.094 70.7413C336.994 72.4379 338.767 75.5951 338.748 79.0237L338.634 98.6743C338.615 102.103 336.804 105.282 333.885 107.014L317.155 116.94C314.236 118.672 310.652 118.693 307.753 116.997L291.137 107.272Z" stroke="#FF6849"/>
<g clip-path="url(#clip4_3850_20093)">
<path d="M312.75 83.3579C314.062 83.3579 315.125 82.2652 315.125 80.9172C315.125 79.5693 314.062 78.4766 312.75 78.4766C311.438 78.4766 310.375 79.5693 310.375 80.9172C310.375 82.2652 311.438 83.3579 312.75 83.3579Z" fill="#F9E9E7"/>
<path d="M308 90.6795H310.036L310.714 96.6068H314.786L315.464 90.6795H317.5V88.2388C317.5 85.5429 315.373 83.3574 312.75 83.3574C310.127 83.3574 308 85.5429 308 88.2388V90.6795Z" fill="#F9E9E7"/>
<path d="M312.75 83.3579C314.062 83.3579 315.125 82.2652 315.125 80.9172C315.125 79.5693 314.062 78.4766 312.75 78.4766C311.438 78.4766 310.375 79.5693 310.375 80.9172C310.375 82.2652 311.438 83.3579 312.75 83.3579Z" stroke="#FF6849" stroke-linecap="round" stroke-linejoin="round"/>
<path d="M308 90.6795H310.036L310.714 96.6068H314.786L315.464 90.6795H317.5V88.2388C317.5 85.5429 315.373 83.3574 312.75 83.3574C310.127 83.3574 308 85.5429 308 88.2388V90.6795Z" stroke="#FF6849" stroke-linecap="round" stroke-linejoin="round"/>
</g>
<defs>
<clipPath id="clip0_3850_20093">
<rect width="19.0112" height="19.0588" fill="white" transform="translate(82.5085 155.941)"/>
</clipPath>
<clipPath id="clip1_3850_20093">
<rect width="19.0112" height="18.7059" fill="white" transform="translate(227.509 66.627)"/>
</clipPath>
<clipPath id="clip2_3850_20093">
<rect width="15.8427" height="15.8824" fill="white" transform="translate(132.093 66.9395)"/>
</clipPath>
<clipPath id="clip3_3850_20093">
<rect width="19.3333" height="18.9153" fill="white" transform="translate(46.5833 67.0684)"/>
</clipPath>
<clipPath id="clip4_3850_20093">
<rect width="19" height="19.5254" fill="white" transform="translate(303.25 77.7793)"/>
</clipPath>
</defs>
</svg>
