<svg width="340" height="254" viewBox="0 0 340 254" fill="none" xmlns="http://www.w3.org/2000/svg">
<path d="M65.946 79.8546C70.4845 82.5305 73.2702 87.4578 73.2702 92.8096L73.2702 109.246C73.2702 114.671 70.4082 119.707 65.7709 122.441L52.0668 130.521C47.4295 133.255 41.7282 133.268 37.1273 130.555L23.1892 122.337C18.6507 119.662 15.865 114.734 15.865 109.382L15.865 92.9465C15.865 87.5212 18.727 82.4855 23.3643 79.7514L37.0684 71.6714C41.7057 68.9373 47.407 68.924 52.0079 71.6367L65.946 79.8546Z" fill="#F8F7F3"/>
<path fill-rule="evenodd" clip-rule="evenodd" d="M53.6621 94.8922C53.7279 94.9684 53.814 95.0241 53.9105 95.0529C55.307 95.3819 56.5342 96.2115 57.36 97.3847C58.1859 98.5578 58.5527 99.993 58.3914 101.419C58.23 102.844 57.5516 104.161 56.4845 105.12C55.4175 106.079 54.0358 106.613 52.6012 106.622H52.5266C52.5999 105.576 52.2369 104.506 51.4374 103.706L47.152 99.4209L47.1419 99.4108L47.1359 99.4048C46.4614 98.7383 45.5267 98.3223 44.5001 98.3223C43.9973 98.3223 43.5093 98.4235 43.064 98.6079C42.5189 98.873 42.2541 99.0746 41.8066 99.4625L37.5627 103.706C36.7765 104.493 36.4124 105.541 36.4704 106.57C35.1624 106.386 33.9246 105.826 32.915 104.943C31.5462 103.747 30.7087 102.055 30.5869 100.241C30.4651 98.4273 31.069 96.6392 32.2655 95.2704C32.858 94.5926 33.5782 94.0382 34.3849 93.6387C35.1917 93.2393 36.0692 93.0027 36.9674 92.9423C37.0607 92.9444 37.1525 92.9197 37.2322 92.8712C37.3118 92.8228 37.3759 92.7525 37.4169 92.6688C38.0365 90.8729 39.2531 89.3438 40.8637 88.3363C42.4743 87.3289 44.3816 86.904 46.2675 87.1326C48.1534 87.3612 49.904 88.2295 51.2272 89.5925C52.5506 90.9556 53.3666 92.7311 53.5391 94.623C53.5537 94.7226 53.5961 94.816 53.6621 94.8922Z" fill="#F9E9E7"/>
<path d="M53.4722 106.552C54.5876 106.377 55.6357 105.883 56.4845 105.12C57.5516 104.161 58.23 102.844 58.3914 101.419C58.5527 99.9931 58.1859 98.5578 57.36 97.3847C56.5342 96.2115 55.307 95.3819 53.9105 95.0529C53.814 95.0241 53.7279 94.9684 53.6621 94.8922C53.5961 94.816 53.5537 94.7226 53.5391 94.623C53.3666 92.7311 52.5506 90.9556 51.2272 89.5925C49.904 88.2295 48.1534 87.3612 46.2675 87.1326C44.3816 86.904 42.4743 87.3289 40.8637 88.3363C39.2531 89.3438 38.0365 90.8729 37.4169 92.6688C37.3759 92.7525 37.3118 92.8228 37.2322 92.8712C37.1525 92.9197 37.0607 92.9444 36.9674 92.9423C36.0692 93.0027 35.1917 93.2393 34.3849 93.6387C33.5782 94.0382 32.858 94.5926 32.2655 95.2704C31.069 96.6392 30.4651 98.4273 30.5869 100.241C30.7087 102.055 31.5462 103.747 32.915 104.943C33.6843 105.616 34.5861 106.101 35.5505 106.375" stroke="#F37441" stroke-linecap="round" stroke-linejoin="round"/>
<path d="M44.5 102.072V114.929" stroke="#F37441" stroke-linecap="round" stroke-linejoin="round"/>
<path d="M40.2144 106.358L44.5001 102.072L48.7858 106.358" stroke="#F37441" stroke-linecap="round" stroke-linejoin="round"/>
<path d="M59.8184 178.599C64.4313 181.278 67.2702 186.223 67.2702 191.58L67.2702 207.568C67.2702 212.945 64.4103 217.92 59.7702 220.614L46.0675 228.571C41.4275 231.265 35.7139 231.269 31.0838 228.58L17.3168 220.586C12.7039 217.908 9.86505 212.963 9.86505 207.605L9.86505 191.617C9.86505 186.24 12.7249 181.265 17.365 178.571L31.0677 170.614C35.7077 167.92 41.4213 167.916 46.0514 170.605L59.8184 178.599Z" fill="#F8F7F3"/>
<path d="M44.9903 191.445H34.6332C33.4892 191.445 32.5618 192.378 32.5618 193.529V211.237C32.5618 212.388 33.4892 213.32 34.6332 213.32H48.0975C49.2415 213.32 50.1689 212.388 50.1689 211.237V196.654L44.9903 191.445Z" fill="#FFE9E4"/>
<path d="M43.9548 197.695V191.445H44.9905L50.1691 196.654V197.695H43.9548Z" fill="#F9F8F6"/>
<path d="M44.9903 191.445H34.6332C33.4892 191.445 32.5618 192.378 32.5618 193.529V211.237C32.5618 212.388 33.4892 213.32 34.6332 213.32H48.0975C49.2415 213.32 50.1689 212.388 50.1689 211.237V196.654L44.9903 191.445Z" stroke="#FF6849" stroke-linecap="round" stroke-linejoin="round"/>
<path d="M39.8119 186.236H29.4547C28.3107 186.236 27.3833 187.169 27.3833 188.32V206.028" stroke="#FF6849" stroke-linecap="round" stroke-linejoin="round"/>
<path d="M43.9548 191.445V197.695H50.1691" stroke="#FF6849" stroke-linecap="round" stroke-linejoin="round"/>
<path d="M322.818 178.599C327.431 181.278 330.27 186.223 330.27 191.58L330.27 207.568C330.27 212.945 327.41 217.92 322.77 220.614L309.068 228.571C304.427 231.265 298.714 231.269 294.084 228.58L280.317 220.586C275.704 217.908 272.865 212.963 272.865 207.605L272.865 191.617C272.865 186.24 275.725 181.265 280.365 178.571L294.068 170.614C298.708 167.92 304.421 167.916 309.051 170.605L322.818 178.599Z" fill="#F8F7F3"/>
<path d="M312.824 186.445H290.729C289.508 186.445 288.519 187.44 288.519 188.668V194.779C288.519 196.006 289.508 197.001 290.729 197.001H312.824C314.044 197.001 315.033 196.006 315.033 194.779V188.668C315.033 187.44 314.044 186.445 312.824 186.445Z" fill="#F9E9E7"/>
<path d="M312.824 197H290.729C289.508 197 288.519 197.995 288.519 199.222V205.333C288.519 206.561 289.508 207.556 290.729 207.556H312.824C314.044 207.556 315.033 206.561 315.033 205.333V199.222C315.033 197.995 314.044 197 312.824 197Z" fill="#F9E9E7"/>
<path d="M312.824 186.445H290.729C289.508 186.445 288.519 187.44 288.519 188.668V194.779C288.519 196.006 289.508 197.001 290.729 197.001H312.824C314.044 197.001 315.033 196.006 315.033 194.779V188.668C315.033 187.44 314.044 186.445 312.824 186.445Z" stroke="#F37441" stroke-linecap="round" stroke-linejoin="round"/>
<path d="M290.729 197C290.143 197 289.581 197.234 289.166 197.651C288.752 198.068 288.519 198.633 288.519 199.222V205.333C288.519 205.923 288.752 206.488 289.166 206.905C289.581 207.321 290.143 207.556 290.729 207.556H312.824C313.41 207.556 313.972 207.321 314.386 206.905C314.8 206.488 315.033 205.923 315.033 205.333V199.222C315.033 198.633 314.8 198.068 314.386 197.651C313.972 197.234 313.41 197 312.824 197" stroke="#F37441" stroke-linecap="round" stroke-linejoin="round"/>
<path d="M293.49 202.834C293.185 202.834 292.938 202.585 292.938 202.278C292.938 201.971 293.185 201.723 293.49 201.723" stroke="#F37441" stroke-linecap="round" stroke-linejoin="round"/>
<path d="M293.49 202.834C293.796 202.834 294.043 202.585 294.043 202.278C294.043 201.971 293.796 201.723 293.49 201.723" stroke="#F37441" stroke-linecap="round" stroke-linejoin="round"/>
<path d="M293.49 192.279C293.185 192.279 292.938 192.03 292.938 191.724C292.938 191.417 293.185 191.168 293.49 191.168" stroke="#F37441" stroke-linecap="round" stroke-linejoin="round"/>
<path d="M293.49 192.279C293.796 192.279 294.043 192.03 294.043 191.724C294.043 191.417 293.796 191.168 293.49 191.168" stroke="#F37441" stroke-linecap="round" stroke-linejoin="round"/>
<path d="M301.776 207.557V213.112" stroke="#F37441" stroke-linecap="round" stroke-linejoin="round"/>
<path d="M290.729 213.111H312.824" stroke="#F37441" stroke-linecap="round" stroke-linejoin="round"/>
<path d="M302.881 191.723H310.614" stroke="#F37441" stroke-linecap="round" stroke-linejoin="round"/>
<path d="M302.881 202.279H310.614" stroke="#F37441" stroke-linecap="round" stroke-linejoin="round"/>
<path d="M192.818 20.5991C197.431 23.2777 200.27 28.2229 200.27 33.5801L200.27 49.5682C200.27 54.9453 197.41 59.9201 192.77 62.6144L179.068 70.5711C174.427 73.2655 168.714 73.269 164.084 70.5805L150.317 62.5864C145.704 59.9078 142.865 54.9626 142.865 49.6054L142.865 33.6173C142.865 28.2402 145.725 23.2655 150.365 20.5711L164.068 12.6144C168.708 9.92007 174.421 9.9165 179.051 12.6051L192.818 20.5991Z" fill="#F8F7F3"/>
<g clip-path="url(#clip0_3850_9307)">
<path d="M159.502 54.1311L158.657 39.6867C158.582 38.4103 159.591 37.334 160.862 37.334H165.632C166.646 37.334 167.53 38.028 167.776 39.0172L168.462 41.7784H182.647C183.934 41.7784 184.949 42.8804 184.85 44.1711L184.086 54.1711C183.997 55.3289 183.037 56.2229 181.883 56.2229H161.707C160.537 56.2229 159.57 55.3058 159.502 54.1311Z" fill="#F9E9E7"/>
<path d="M162.386 29.5562V37.334H167.357L168.462 41.7784H181.167V29.5562C181.167 28.3289 180.177 27.334 178.957 27.334H164.595C163.375 27.334 162.386 28.3289 162.386 29.5562Z" fill="white"/>
<path d="M162.386 32.8895V29.5562C162.386 28.3289 163.375 27.334 164.595 27.334H178.957C180.177 27.334 181.167 28.3289 181.167 29.5562V37.334" stroke="#F37441" stroke-linecap="round" stroke-linejoin="round"/>
<path d="M159.502 54.1311L158.657 39.6867C158.582 38.4103 159.591 37.334 160.862 37.334H165.632C166.646 37.334 167.53 38.028 167.776 39.0172L168.462 41.7784H182.647C183.934 41.7784 184.949 42.8804 184.85 44.1711L184.086 54.1711C183.997 55.3289 183.037 56.2229 181.883 56.2229H161.707C160.537 56.2229 159.57 55.3058 159.502 54.1311Z" stroke="#F37441" stroke-linecap="round" stroke-linejoin="round"/>
</g>
<path d="M318.946 79.8546C323.485 82.5305 326.27 87.4578 326.27 92.8096L326.27 109.246C326.27 114.671 323.408 119.707 318.771 122.441L305.067 130.521C300.43 133.255 294.728 133.268 290.127 130.555L276.189 122.337C271.651 119.662 268.865 114.734 268.865 109.382L268.865 92.9465C268.865 87.5212 271.727 82.4855 276.364 79.7514L290.068 71.6714C294.706 68.9373 300.407 68.924 305.008 71.6367L318.946 79.8546Z" fill="#F8F7F3"/>
<path fill-rule="evenodd" clip-rule="evenodd" d="M293.357 87.7422H308.824C310.044 87.7422 311.033 88.7524 311.033 89.9986V112.563C311.033 113.809 310.044 114.819 308.824 114.819H301.229C301.496 114.12 301.643 113.359 301.643 112.563V97.896C301.643 94.469 298.923 91.6909 295.567 91.6909H291.148V89.9986C291.148 88.7524 292.137 87.7422 293.357 87.7422Z" fill="white"/>
<path d="M302.195 114.819H308.824C310.044 114.819 311.033 113.809 311.033 112.563V89.9986C311.033 88.7524 310.044 87.7422 308.824 87.7422H293.357C292.137 87.7422 291.148 88.7524 291.148 89.9986V90.9153" stroke="#F37441" stroke-linecap="round" stroke-linejoin="round"/>
<path d="M295.567 95.6387H286.729C285.508 95.6387 284.519 96.6489 284.519 97.8951V112.562C284.519 113.808 285.508 114.818 286.729 114.818H295.567C296.787 114.818 297.776 113.808 297.776 112.562V97.8951C297.776 96.6489 296.787 95.6387 295.567 95.6387Z" fill="#F9E9E7"/>
<path d="M295.567 95.6387H286.729C285.508 95.6387 284.519 96.6489 284.519 97.8951V112.562C284.519 113.808 285.508 114.818 286.729 114.818H295.567C296.787 114.818 297.776 113.808 297.776 112.562V97.8951C297.776 96.6489 296.787 95.6387 295.567 95.6387Z" stroke="#F37441" stroke-linecap="round" stroke-linejoin="round"/>
<path d="M290.043 110.307H292.252" stroke="#F37441" stroke-linecap="round" stroke-linejoin="round"/>
<path d="M137.382 188.649C131.194 185.077 127.382 178.474 127.382 171.329L127.382 144.399C127.382 137.254 131.194 130.651 137.382 127.079L160.703 113.614C166.891 110.041 174.515 110.041 180.703 113.614L204.025 127.079C210.213 130.651 214.025 137.254 214.025 144.399L214.025 171.329C214.025 178.474 210.213 185.077 204.025 188.649L180.703 202.114C174.515 205.687 166.891 205.687 160.703 202.114L137.382 188.649Z" fill="#F9F8F6"/>
<path d="M128.185 190.607L130.192 191.766L130.942 190.467L138.972 195.103L138.222 196.402L142.237 198.72L142.987 197.421L151.017 202.057L150.267 203.356L154.282 205.674L155.032 204.375L163.062 209.011L162.312 210.31L164.32 211.469C165.007 211.866 165.721 212.198 166.453 212.464L166.966 211.054C169.615 212.019 172.525 212.019 175.174 211.054L175.687 212.464C176.419 212.198 177.133 211.866 177.82 211.469L179.827 210.31L179.077 209.011L187.107 204.375L187.857 205.674L191.872 203.356L191.122 202.057L199.152 197.421L199.902 198.72L203.917 196.402L203.167 195.103L211.197 190.467L211.947 191.766L213.955 190.607C214.642 190.21 215.286 189.757 215.883 189.257L214.919 188.108C217.079 186.296 218.533 183.776 219.023 180.999L220.5 181.26C220.635 180.493 220.705 179.709 220.705 178.915L220.705 176.597L219.205 176.597L219.205 167.325L220.705 167.325L220.705 162.689L219.205 162.689L219.205 153.416L220.705 153.416L220.705 148.78L219.205 148.78L219.205 139.508L220.705 139.508L220.705 137.19C220.705 136.396 220.635 135.612 220.5 134.846L219.023 135.106C218.533 132.329 217.079 129.81 214.919 127.997L215.883 126.848C215.286 126.348 214.642 125.895 213.955 125.499L211.947 124.34L211.197 125.639L203.167 121.003L203.917 119.704L199.902 117.385L199.152 118.684L191.122 114.048L191.872 112.749L187.857 110.431L187.107 111.73L179.077 107.094L179.827 105.795L177.82 104.636C177.133 104.239 176.419 103.908 175.687 103.641L175.174 105.051C172.525 104.086 169.615 104.086 166.966 105.051L166.453 103.641C165.721 103.908 165.007 104.239 164.32 104.636L162.312 105.795L163.062 107.094L155.032 111.73L154.282 110.431L150.267 112.749L151.017 114.048L142.987 118.684L142.237 117.385L138.222 119.704L138.972 121.003L130.942 125.639L130.192 124.34L128.185 125.499C127.498 125.895 126.853 126.348 126.257 126.848L127.221 127.997C125.061 129.81 123.606 132.329 123.117 135.106L121.64 134.846C121.504 135.612 121.435 136.396 121.435 137.19L121.435 139.508L122.935 139.508L122.935 148.78L121.435 148.78L121.435 153.416L122.935 153.416L122.935 162.689L121.435 162.689L121.435 167.325L122.935 167.325L122.935 176.597L121.435 176.597L121.435 178.915C121.435 179.709 121.504 180.493 121.64 181.26L123.117 180.999C123.606 183.776 125.061 186.296 127.221 188.108L126.257 189.257C126.853 189.757 127.498 190.21 128.185 190.607Z" stroke="#FACCBB" stroke-width="3" stroke-dasharray="4 8"/>
<path d="M170.425 153.562C180.95 153.562 189.482 150.28 189.482 146.232V169.687C189.482 173.732 180.95 177.016 170.425 177.016C159.9 177.016 151.368 173.732 151.368 169.687V146.232C151.368 150.28 159.9 153.562 170.425 153.562Z" fill="#FFE9E4"/>
<path d="M170.425 153.561C180.95 153.561 189.482 150.28 189.482 146.232C189.482 142.184 180.95 138.902 170.425 138.902C159.9 138.902 151.368 142.184 151.368 146.232C151.368 150.28 159.9 153.561 170.425 153.561Z" fill="white"/>
<path d="M170.425 153.561C180.95 153.561 189.482 150.28 189.482 146.232C189.482 142.184 180.95 138.902 170.425 138.902C159.9 138.902 151.368 142.184 151.368 146.232C151.368 150.28 159.9 153.561 170.425 153.561Z" stroke="#FF6849" stroke-linecap="round" stroke-linejoin="round"/>
<path d="M151.368 146.232V169.687C151.368 173.732 159.9 177.016 170.425 177.016C180.95 177.016 189.482 173.732 189.482 169.687V146.232" stroke="#FF6849" stroke-linecap="round" stroke-linejoin="round"/>
<path d="M189.482 157.959C189.482 162.005 180.95 165.288 170.425 165.288C159.9 165.288 151.368 162.005 151.368 157.959" stroke="#FF6849" stroke-linecap="round" stroke-linejoin="round"/>
<path d="M171.5 64.3397L180.16 73L171.5 81.6603L162.84 73L171.5 64.3397ZM170 101V98.6667H173V101H170ZM170 89.3333V84.6667H173V89.3333H170ZM170 75.3333V73H173V75.3333H170ZM171.5 64.3397L180.16 73L171.5 81.6603L162.84 73L171.5 64.3397ZM170 101V98.6667H173V101H170ZM170 89.3333V84.6667H173V89.3333H170ZM170 75.3333V73H173V75.3333H170Z" fill="#FACCBB"/>
<path d="M225.712 119.259L224.421 118.496L225.712 119.259ZM279.132 113.404L270.472 122.064L261.812 113.404L270.472 104.743L279.132 113.404ZM241.072 113.404L241.072 114.904L241.062 114.904L241.072 113.404ZM236.124 113.369L236.114 114.869L236.114 114.869L236.124 113.369ZM217.49 130.213L218.645 128.26L221.227 129.787L220.072 131.74L217.49 130.213ZM223.266 120.448L224.421 118.496L227.003 120.023L225.848 121.976L223.266 120.448ZM224.421 118.496C224.824 117.815 225.281 117.178 225.786 116.588L228.065 118.539C227.673 118.998 227.317 119.493 227.003 120.023L224.421 118.496ZM233.797 112.056C234.562 111.928 235.344 111.864 236.135 111.869L236.114 114.869C235.498 114.865 234.89 114.915 234.295 115.015L233.797 112.056ZM236.135 111.869L236.959 111.875L236.938 114.875L236.114 114.869L236.135 111.869ZM240.258 111.898L241.083 111.904L241.062 114.904L240.237 114.898L240.258 111.898ZM241.072 111.904L243.522 111.904L243.522 114.904L241.072 114.904L241.072 111.904ZM253.322 111.904L258.222 111.904L258.222 114.904L253.322 114.904L253.322 111.904ZM268.022 111.904L270.472 111.904L270.472 114.904L268.022 114.904L268.022 111.904ZM225.712 119.259L224.421 118.496L225.712 119.259ZM279.132 113.404L270.472 122.064L261.812 113.404L270.472 104.743L279.132 113.404ZM241.072 113.404L241.072 114.904L241.062 114.904L241.072 113.404ZM236.124 113.369L236.114 114.869L236.114 114.869L236.124 113.369ZM217.49 130.213L218.645 128.26L221.227 129.787L220.072 131.74L217.49 130.213ZM223.266 120.448L224.421 118.496L227.003 120.023L225.848 121.976L223.266 120.448ZM224.421 118.496C224.824 117.815 225.281 117.178 225.786 116.588L228.065 118.539C227.673 118.998 227.317 119.493 227.003 120.023L224.421 118.496ZM233.797 112.056C234.562 111.928 235.344 111.864 236.135 111.869L236.114 114.869C235.498 114.865 234.89 114.915 234.295 115.015L233.797 112.056ZM236.135 111.869L236.959 111.875L236.938 114.875L236.114 114.869L236.135 111.869ZM240.258 111.898L241.083 111.904L241.062 114.904L240.237 114.898L240.258 111.898ZM241.072 111.904L243.522 111.904L243.522 114.904L241.072 114.904L241.072 111.904ZM253.322 111.904L258.222 111.904L258.222 114.904L253.322 114.904L253.322 111.904ZM268.022 111.904L270.472 111.904L270.472 114.904L268.022 114.904L268.022 111.904Z" fill="#FACCBB"/>
<path d="M231.532 207.107L232.839 206.371L231.532 207.107ZM284.075 213.188L275.414 204.528L266.754 213.188L275.414 221.848L284.075 213.188ZM246.848 213.188L246.848 211.688L246.838 211.688L246.848 213.188ZM242.073 213.221L242.084 214.721L242.084 214.721L242.073 213.221ZM217.97 186.068L218.991 187.882L221.606 186.411L220.584 184.596L217.97 186.068ZM223.076 195.141L225.119 198.77L227.733 197.298L225.691 193.669L223.076 195.141ZM229.204 206.028L230.225 207.843L232.839 206.371L231.818 204.557L229.204 206.028ZM230.225 207.843C230.621 208.546 231.075 209.206 231.579 209.816L233.893 207.907C233.501 207.432 233.148 206.919 232.839 206.371L230.225 207.843ZM239.698 214.526C240.479 214.66 241.276 214.727 242.084 214.721L242.063 211.721C241.434 211.726 240.814 211.674 240.207 211.569L239.698 214.526ZM242.084 214.721L242.88 214.716L242.859 211.716L242.063 211.721L242.084 214.721ZM246.063 214.693L246.859 214.688L246.838 211.688L246.042 211.694L246.063 214.693ZM246.848 214.688L249.229 214.688L249.229 211.688L246.848 211.688L246.848 214.688ZM258.751 214.688L263.512 214.688L263.512 211.688L258.751 211.688L258.751 214.688ZM273.034 214.688L275.414 214.688L275.414 211.688L273.034 211.688L273.034 214.688ZM231.532 207.107L232.839 206.371L231.532 207.107ZM284.075 213.188L275.414 204.528L266.754 213.188L275.414 221.848L284.075 213.188ZM246.848 213.188L246.848 211.688L246.838 211.688L246.848 213.188ZM242.073 213.221L242.084 214.721L242.084 214.721L242.073 213.221ZM217.97 186.068L218.991 187.882L221.606 186.411L220.584 184.596L217.97 186.068ZM223.076 195.141L225.119 198.77L227.733 197.298L225.691 193.669L223.076 195.141ZM229.204 206.028L230.225 207.843L232.839 206.371L231.818 204.557L229.204 206.028ZM230.225 207.843C230.621 208.546 231.075 209.206 231.579 209.816L233.893 207.907C233.501 207.432 233.148 206.919 232.839 206.371L230.225 207.843ZM239.698 214.526C240.479 214.66 241.276 214.727 242.084 214.721L242.063 211.721C241.434 211.726 240.814 211.674 240.207 211.569L239.698 214.526ZM242.084 214.721L242.88 214.716L242.859 211.716L242.063 211.721L242.084 214.721ZM246.063 214.693L246.859 214.688L246.838 211.688L246.042 211.694L246.063 214.693ZM246.848 214.688L249.229 214.688L249.229 211.688L246.848 211.688L246.848 214.688ZM258.751 214.688L263.512 214.688L263.512 211.688L258.751 211.688L258.751 214.688ZM273.034 214.688L275.414 214.688L275.414 211.688L273.034 211.688L273.034 214.688Z" fill="#FACCBB"/>
<path d="M109.893 206.894L111.168 207.684L109.893 206.894ZM57.2713 212.535L65.9316 203.875L74.5918 212.535L65.9316 221.195L57.2713 212.535ZM94.4975 212.535L94.4975 211.035L94.5079 211.035L94.4975 212.535ZM99.611 212.57L99.6214 211.07L99.6214 211.07L99.611 212.57ZM124.456 186.253L123.348 188.039L120.799 186.458L121.906 184.672L124.456 186.253ZM118.919 195.183L116.705 198.755L114.155 197.174L116.369 193.602L118.919 195.183ZM112.276 205.898L111.168 207.684L108.619 206.104L109.726 204.318L112.276 205.898ZM111.168 207.684C110.76 208.343 110.3 208.959 109.795 209.528L107.551 207.538C107.943 207.095 108.301 206.616 108.619 206.104L111.168 207.684ZM101.892 213.891C101.141 214.015 100.375 214.076 99.6005 214.07L99.6214 211.07C100.224 211.075 100.82 211.027 101.404 210.931L101.892 213.891ZM99.6006 214.07L98.7483 214.064L98.7692 211.065L99.6214 211.07L99.6006 214.07ZM95.3393 214.041L94.487 214.035L94.5079 211.035L95.3602 211.041L95.3393 214.041ZM94.4975 214.035L92.117 214.035L92.117 211.035L94.4975 211.035L94.4975 214.035ZM82.595 214.035L77.8341 214.035L77.8341 211.035L82.595 211.035L82.595 214.035ZM68.3121 214.035L65.9316 214.035L65.9316 211.035L68.3121 211.035L68.3121 214.035ZM109.893 206.894L111.168 207.684L109.893 206.894ZM57.2713 212.535L65.9316 203.875L74.5918 212.535L65.9316 221.195L57.2713 212.535ZM94.4975 212.535L94.4975 211.035L94.5079 211.035L94.4975 212.535ZM99.611 212.57L99.6214 211.07L99.6214 211.07L99.611 212.57ZM124.456 186.253L123.348 188.039L120.799 186.458L121.906 184.672L124.456 186.253ZM118.919 195.183L116.705 198.755L114.155 197.174L116.369 193.602L118.919 195.183ZM112.276 205.898L111.168 207.684L108.619 206.104L109.726 204.318L112.276 205.898ZM111.168 207.684C110.76 208.343 110.3 208.959 109.795 209.528L107.551 207.538C107.943 207.095 108.301 206.616 108.619 206.104L111.168 207.684ZM101.892 213.891C101.141 214.015 100.375 214.076 99.6005 214.07L99.6214 211.07C100.224 211.075 100.82 211.027 101.404 210.931L101.892 213.891ZM99.6006 214.07L98.7483 214.064L98.7692 211.065L99.6214 211.07L99.6006 214.07ZM95.3393 214.041L94.487 214.035L94.5079 211.035L95.3602 211.041L95.3393 214.041ZM94.4975 214.035L92.117 214.035L92.117 211.035L94.4975 211.035L94.4975 214.035ZM82.595 214.035L77.8341 214.035L77.8341 211.035L82.595 211.035L82.595 214.035ZM68.3121 214.035L65.9316 214.035L65.9316 211.035L68.3121 211.035L68.3121 214.035Z" fill="#FACCBB"/>
<path d="M115.964 119.822L117.258 119.063L115.964 119.822ZM63.3853 113.924L72.0455 122.584L80.7058 113.924L72.0456 105.264L63.3853 113.924ZM100.611 113.924L100.611 115.424L100.622 115.424L100.611 113.924ZM105.527 113.89L105.517 112.39L105.517 112.39L105.527 113.89ZM123.641 129.955L122.577 128.14L119.989 129.657L121.053 131.472L123.641 129.955ZM118.322 120.879L117.258 119.063L114.67 120.58L115.733 122.396L118.322 120.879ZM117.258 119.063C116.856 118.378 116.4 117.737 115.895 117.144L113.61 119.087C114.002 119.548 114.357 120.047 114.67 120.58L117.258 119.063ZM107.863 112.578C107.095 112.448 106.311 112.384 105.517 112.39L105.538 115.39C106.156 115.385 106.766 115.435 107.363 115.536L107.863 112.578ZM105.517 112.39L104.697 112.395L104.718 115.395L105.538 115.39L105.517 112.39ZM101.42 112.418L100.601 112.424L100.622 115.424L101.441 115.418L101.42 112.418ZM100.611 112.424L98.231 112.424L98.2309 115.424L100.611 115.424L100.611 112.424ZM88.709 112.424L83.948 112.424L83.948 115.424L88.709 115.424L88.709 112.424ZM74.426 112.424L72.0455 112.424L72.0455 115.424L74.426 115.424L74.426 112.424ZM115.964 119.822L117.258 119.063L115.964 119.822ZM63.3853 113.924L72.0455 122.584L80.7058 113.924L72.0456 105.264L63.3853 113.924ZM100.611 113.924L100.611 115.424L100.622 115.424L100.611 113.924ZM105.527 113.89L105.517 112.39L105.517 112.39L105.527 113.89ZM123.641 129.955L122.577 128.14L119.989 129.657L121.053 131.472L123.641 129.955ZM118.322 120.879L117.258 119.063L114.67 120.58L115.733 122.396L118.322 120.879ZM117.258 119.063C116.856 118.378 116.4 117.737 115.895 117.144L113.61 119.087C114.002 119.548 114.357 120.047 114.67 120.58L117.258 119.063ZM107.863 112.578C107.095 112.448 106.311 112.384 105.517 112.39L105.538 115.39C106.156 115.385 106.766 115.435 107.363 115.536L107.863 112.578ZM105.517 112.39L104.697 112.395L104.718 115.395L105.538 115.39L105.517 112.39ZM101.42 112.418L100.601 112.424L100.622 115.424L101.441 115.418L101.42 112.418ZM100.611 112.424L98.231 112.424L98.2309 115.424L100.611 115.424L100.611 112.424ZM88.709 112.424L83.948 112.424L83.948 115.424L88.709 115.424L88.709 112.424ZM74.426 112.424L72.0455 112.424L72.0455 115.424L74.426 115.424L74.426 112.424Z" fill="#FACCBB"/>
<path d="M149.146 233.077C147.304 232.006 146.171 230.031 146.169 227.891L146.156 207.08C146.154 204.928 147.298 202.936 149.156 201.857L167.009 191.487C168.866 190.408 171.153 190.408 173.006 191.485L190.913 201.902C192.755 202.973 193.888 204.948 193.89 207.088L193.903 227.899C193.905 230.051 192.761 232.043 190.903 233.122L173.05 243.492C171.193 244.571 168.906 244.571 167.053 243.494L149.146 233.077Z" fill="#FF6849"/>
<path d="M160.921 216.919V227.675H164.07V226.388C162.06 224.532 160.919 220.476 160.919 216.912" fill="#F9F8F6"/>
<path d="M180.09 216.919V227.675H176.939V226.388C178.95 224.532 180.09 220.476 180.09 216.912" fill="#F9F8F6"/>
<path d="M176.939 209.031V217.317C176.939 219.941 176.186 221.973 174.819 223.257V215.065H171.565V224.735C171.212 224.787 170.856 224.813 170.499 224.814C170.143 224.813 169.788 224.787 169.436 224.735V206.111H166.187V223.257C164.82 221.97 164.067 219.947 164.067 217.317V212.014H160.916V217.317C160.916 223.775 164.678 227.95 170.499 227.95C176.321 227.95 180.085 223.775 180.085 217.317V209.031H176.939Z" fill="#F9F8F6"/>
<defs>
<clipPath id="clip0_3850_9307">
<rect width="30.9333" height="31.1111" fill="white" transform="translate(156.31 26.2227)"/>
</clipPath>
</defs>
</svg>
