<svg width="364" height="113" viewBox="0 0 364 113" fill="none" xmlns="http://www.w3.org/2000/svg">
<path d="M0.5 8C0.5 3.85787 3.85786 0.5 8 0.5H356C360.142 0.5 363.5 3.85786 363.5 8V105C363.5 109.142 360.142 112.5 356 112.5H8C3.85786 112.5 0.5 109.142 0.5 105V8Z" fill="#F9F8F6"/>
<path d="M0.5 8C0.5 3.85787 3.85786 0.5 8 0.5H356C360.142 0.5 363.5 3.85786 363.5 8V105C363.5 109.142 360.142 112.5 356 112.5H8C3.85786 112.5 0.5 109.142 0.5 105V8Z" stroke="#DDDFDA"/>
<path d="M24.5 32C24.5 27.8579 27.8579 24.5 32 24.5H81C85.1421 24.5 88.5 27.8579 88.5 32V81C88.5 85.1421 85.1421 88.5 81 88.5H32C27.8579 88.5 24.5 85.1421 24.5 81V32Z" fill="#F9F8F6"/>
<path d="M24.5 32C24.5 27.8579 27.8579 24.5 32 24.5H81C85.1421 24.5 88.5 27.8579 88.5 32V81C88.5 85.1421 85.1421 88.5 81 88.5H32C27.8579 88.5 24.5 85.1421 24.5 81V32Z" stroke="#DDDFDA"/>
<path d="M56.396 41.5027C56.1308 41.5164 55.8709 41.5842 55.6317 41.702L45.2022 46.8379C44.9323 46.9707 44.6951 47.1641 44.5083 47.4035C44.3215 47.6429 44.1898 47.9223 44.1232 48.2208L41.5501 59.7573C41.4907 60.0231 41.484 60.2984 41.5306 60.5669C41.5771 60.8354 41.6758 61.0916 41.8209 61.3203C41.8561 61.3763 41.8939 61.4304 41.9343 61.4826L49.1531 70.7329C49.34 70.9723 49.5772 71.1655 49.8471 71.2983C50.1171 71.4311 50.4128 71.5001 50.7124 71.5L62.289 71.4973C62.5885 71.4975 62.8842 71.4288 63.1541 71.2962C63.424 71.1637 63.6613 70.9707 63.8483 70.7316L71.0645 61.4798C71.2515 61.2403 71.3832 60.9609 71.4499 60.6622C71.5167 60.3635 71.5167 60.0532 71.45 59.7546L68.873 48.2181C68.8063 47.9195 68.6747 47.6401 68.4879 47.4007C68.3011 47.1613 68.0639 46.968 67.7939 46.8351L57.3631 41.7019C57.0621 41.5538 56.7296 41.4852 56.396 41.5027Z" fill="#326CE5"/>
<path d="M56.4999 45.4277C56.1551 45.4278 55.8756 45.7478 55.8756 46.1426C55.8756 46.1486 55.8768 46.1545 55.8769 46.1604C55.8764 46.2141 55.8739 46.2787 55.8756 46.3254C55.8838 46.5531 55.932 46.7274 55.961 46.9372C56.0135 47.3861 56.0575 47.7583 56.0304 48.1043C56.0039 48.2347 55.9107 48.354 55.8276 48.4369L55.8129 48.7092C55.4332 48.7414 55.0561 48.8011 54.6845 48.8878C53.0636 49.2672 51.668 50.1277 50.6055 51.2895C50.5297 51.2355 50.4545 51.1805 50.3801 51.1245C50.2686 51.14 50.156 51.1755 50.0093 51.0874C49.7299 50.8936 49.4755 50.6261 49.1676 50.3038C49.0265 50.1497 48.9244 50.0029 48.7568 49.8543C48.7187 49.8205 48.6606 49.7749 48.618 49.7402C48.487 49.6325 48.3325 49.5763 48.1832 49.5711C47.9913 49.5643 47.8066 49.6417 47.6857 49.7979C47.4707 50.0757 47.5396 50.5004 47.8391 50.7464C47.8421 50.749 47.8453 50.7509 47.8484 50.7533C47.8896 50.7877 47.94 50.8318 47.9778 50.8606C48.1556 50.9959 48.3181 51.0652 48.4953 51.1726C48.8687 51.4103 49.1782 51.6072 49.4237 51.8448C49.5196 51.9502 49.5363 52.1357 49.5491 52.216L49.7492 52.4002C48.6781 54.0615 48.1824 56.1135 48.4754 58.2042L48.2139 58.2826C48.145 58.3743 48.0476 58.5186 47.9458 58.5617C47.6246 58.6659 47.2631 58.7042 46.8267 58.7513C46.6218 58.7689 46.445 58.7584 46.2278 58.8008C46.18 58.8102 46.1134 58.8281 46.061 58.8407L46.0557 58.8421C46.0528 58.8428 46.0491 58.8442 46.0464 58.8448C45.6784 58.9365 45.4421 59.285 45.5181 59.6284C45.5942 59.9719 45.9536 60.1808 46.3238 60.0985C46.3265 60.0979 46.3304 60.0978 46.3331 60.0972C46.3373 60.0962 46.341 60.0941 46.3451 60.093C46.3968 60.0814 46.4614 60.0684 46.5066 60.056C46.7201 59.997 46.8748 59.9104 47.0668 59.8346C47.4798 59.682 47.8219 59.5544 48.1552 59.5047C48.2944 59.4935 48.4411 59.5932 48.514 59.6353L48.7861 59.5872C49.4123 61.588 50.7246 63.2052 52.3862 64.2199L52.2728 64.5004C52.3137 64.6092 52.3588 64.7566 52.3283 64.8642C52.2072 65.1879 51.9997 65.5297 51.7633 65.9108C51.6489 66.0868 51.5318 66.2235 51.4285 66.4249C51.4038 66.4732 51.3723 66.5472 51.3485 66.5981C51.188 66.952 51.3057 67.3594 51.6139 67.5123C51.9241 67.6662 52.309 67.5039 52.4756 67.1494C52.4758 67.1489 52.4767 67.1485 52.4769 67.148C52.4771 67.1476 52.4767 67.147 52.4769 67.1467C52.5006 67.0964 52.5343 67.0303 52.5543 66.9831C52.6427 66.7742 52.6722 66.5953 52.7344 66.3933C52.8996 65.9657 52.9903 65.5171 53.2176 65.2375C53.2799 65.161 53.3814 65.1315 53.4867 65.1025L53.628 64.8385C55.0766 65.4116 56.6981 65.5654 58.3179 65.1863C58.682 65.101 59.0398 64.9899 59.389 64.8537C59.4287 64.9263 59.5026 65.0659 59.5224 65.1011C59.6294 65.1369 59.7461 65.1555 59.8412 65.3004C60.0113 65.6 60.1276 65.9543 60.2694 66.3823C60.3315 66.5843 60.3623 66.7633 60.4508 66.9721C60.4709 67.0197 60.5044 67.0866 60.5281 67.137C60.6944 67.4927 61.0806 67.6555 61.3912 67.5013C61.6993 67.3483 61.8171 66.9409 61.6566 66.5871C61.6327 66.5362 61.5999 66.4622 61.5752 66.4139C61.4719 66.2125 61.3548 66.0772 61.2404 65.9012C61.0041 65.5201 60.808 65.2036 60.6868 64.8797C60.6362 64.7127 60.6954 64.6089 60.7349 64.5004C60.7112 64.4724 60.6606 64.3147 60.6308 64.2406C62.3577 63.1897 63.6314 61.5122 64.2296 59.5748C64.3104 59.5879 64.4508 59.6135 64.4964 59.6229C64.5903 59.5591 64.6766 59.4758 64.8459 59.4896C65.1791 59.5393 65.5212 59.6669 65.9343 59.8195C66.1263 59.8953 66.2809 59.9833 66.4945 60.0422C66.5396 60.0546 66.6043 60.0663 66.6559 60.078C66.66 60.079 66.6637 60.0811 66.6679 60.0821C66.6707 60.0827 66.6746 60.0828 66.6772 60.0835C67.0474 60.1655 67.4069 59.9568 67.4829 59.6133C67.5589 59.2699 67.3227 58.9212 66.9547 58.8297C66.9012 58.8171 66.8253 58.7959 66.7733 58.7857C66.556 58.7433 66.3793 58.7538 66.1744 58.7363C65.7379 58.6891 65.3765 58.6508 65.0553 58.5465C64.9243 58.4942 64.8311 58.3336 64.7858 58.2674L64.5337 58.1919C64.6644 57.2173 64.6292 56.203 64.403 55.1881C64.1747 54.1638 63.7713 53.227 63.2332 52.4016C63.2978 52.341 63.42 52.2296 63.4546 52.1968C63.4647 52.0813 63.456 51.9603 63.572 51.8325C63.8175 51.5949 64.127 51.3979 64.5004 51.1603C64.6776 51.0528 64.8414 50.9836 65.0192 50.8482C65.0594 50.8176 65.1144 50.7691 65.1566 50.7341C65.4561 50.4879 65.525 50.0633 65.31 49.7856C65.095 49.5078 64.6785 49.4816 64.379 49.7278C64.3364 49.7626 64.2785 49.808 64.2403 49.8419C64.0727 49.9905 63.9692 50.1373 63.8281 50.2914C63.5202 50.6137 63.2658 50.8826 62.9864 51.0764C62.8654 51.149 62.6881 51.1239 62.6076 51.119L62.3702 51.2936C61.0163 49.8305 59.173 48.895 57.1882 48.7133C57.1826 48.6276 57.1753 48.4726 57.1735 48.4259C57.0922 48.3458 56.994 48.2774 56.9694 48.1043C56.9422 47.7583 56.9876 47.3861 57.0401 46.9372C57.0691 46.7274 57.1172 46.5531 57.1255 46.3254C57.1273 46.2737 57.1243 46.1985 57.1241 46.1426C57.1241 45.7478 56.8446 45.4277 56.4999 45.4277ZM55.7182 50.4179L55.5328 53.7928L55.5195 53.7997C55.507 54.1016 55.2659 54.3427 54.9699 54.3427C54.8487 54.3427 54.7367 54.3025 54.6458 54.2341L54.6405 54.2368L51.9554 52.2751C52.7806 51.4389 53.8362 50.8208 55.0526 50.5362C55.2724 50.485 55.4945 50.4456 55.7182 50.4179ZM57.2828 50.4179C58.7031 50.5979 60.0165 51.2607 61.023 52.2765L58.3553 54.2258L58.3459 54.2217C58.1091 54.3999 57.7755 54.3557 57.591 54.1173C57.518 54.0237 57.476 53.9086 57.4709 53.7886L57.4682 53.7873L57.2828 50.4179ZM50.9817 53.5357L53.4333 55.7958L53.4306 55.8095C53.6519 56.0077 53.6846 56.3518 53.5 56.5903C53.4272 56.6845 53.3273 56.7524 53.2146 56.7841L53.2119 56.7951L50.0693 57.7299C49.9094 56.2226 50.2541 54.7574 50.9817 53.5357ZM62.0007 53.5371C62.365 54.1456 62.6408 54.8252 62.805 55.562C62.9673 56.29 63.008 57.0167 62.9411 57.7189L59.7825 56.7814L59.7798 56.7676C59.497 56.688 59.3231 56.3915 59.389 56.0941C59.4146 55.9771 59.4759 55.8716 59.5638 55.793L59.5624 55.7861L62.0007 53.5371V53.5371ZM55.997 55.9703H57.0014L57.6257 56.7745L57.4016 57.7781L56.4999 58.2248L55.5955 57.7767L55.3714 56.7731L55.997 55.9703ZM59.217 58.7225C59.2596 58.7203 59.3021 58.7242 59.3437 58.7321L59.349 58.7252L62.5996 59.2916C62.1239 60.6691 61.2136 61.8624 59.9973 62.661L58.7354 59.5198L58.7394 59.5143C58.6235 59.2367 58.7395 58.9112 59.0062 58.7788C59.0745 58.745 59.1458 58.7262 59.217 58.7225ZM53.7575 58.7362C54.0055 58.7398 54.228 58.9173 54.2857 59.1775C54.3126 59.2994 54.2995 59.42 54.2549 59.5267L54.2643 59.539L53.0158 62.6486C51.8485 61.8766 50.9188 60.7208 50.4214 59.3026L53.644 58.739L53.6494 58.7458C53.6854 58.739 53.722 58.7357 53.7575 58.7362ZM56.4798 60.0986C56.5688 60.0954 56.6572 60.1147 56.7373 60.1549C56.8466 60.2091 56.9309 60.2945 56.984 60.3968H56.9961L58.5847 63.3552C58.3761 63.427 58.1642 63.4881 57.9498 63.5381C56.7348 63.8224 55.5237 63.7362 54.4271 63.3511L56.0117 60.3983H56.0144C56.0598 60.3107 56.1266 60.237 56.2083 60.1844C56.29 60.1318 56.3836 60.1022 56.4799 60.0985L56.4798 60.0986Z" fill="white" stroke="white" stroke-width="0.276684"/>
<path d="M106.409 62.5V50.8636H107.818V56.6364H107.955L113.182 50.8636H115.023L110.136 56.1136L115.023 62.5H113.318L109.273 57.0909L107.818 58.7273V62.5H106.409ZM121.618 58.9318V53.7727H122.959V62.5H121.618V61.0227H121.527C121.322 61.4659 121.004 61.8428 120.572 62.1534C120.141 62.4602 119.595 62.6136 118.936 62.6136C118.391 62.6136 117.906 62.4943 117.482 62.2557C117.057 62.0133 116.724 61.6496 116.482 61.1648C116.239 60.6761 116.118 60.0606 116.118 59.3182V53.7727H117.459V59.2273C117.459 59.8636 117.637 60.3712 117.993 60.75C118.353 61.1288 118.811 61.3182 119.368 61.3182C119.701 61.3182 120.04 61.233 120.385 61.0625C120.733 60.892 121.025 60.6307 121.26 60.2784C121.499 59.9261 121.618 59.4773 121.618 58.9318ZM125.597 62.5V50.8636H126.938V55.1591H127.051C127.15 55.0076 127.286 54.8144 127.46 54.5795C127.638 54.3409 127.892 54.1288 128.222 53.9432C128.555 53.7538 129.006 53.6591 129.574 53.6591C130.309 53.6591 130.956 53.8428 131.517 54.2102C132.078 54.5777 132.515 55.0985 132.83 55.7727C133.144 56.447 133.301 57.2424 133.301 58.1591C133.301 59.0833 133.144 59.8845 132.83 60.5625C132.515 61.2367 132.08 61.7595 131.523 62.1307C130.966 62.4981 130.324 62.6818 129.597 62.6818C129.036 62.6818 128.587 62.589 128.25 62.4034C127.913 62.214 127.653 62 127.472 61.7614C127.29 61.5189 127.15 61.3182 127.051 61.1591H126.892V62.5H125.597ZM126.915 58.1364C126.915 58.7955 127.011 59.3769 127.205 59.8807C127.398 60.3807 127.68 60.7727 128.051 61.0568C128.422 61.3371 128.877 61.4773 129.415 61.4773C129.975 61.4773 130.443 61.3295 130.818 61.0341C131.197 60.7348 131.481 60.3333 131.67 59.8295C131.864 59.322 131.96 58.7576 131.96 58.1364C131.96 57.5227 131.866 56.9697 131.676 56.4773C131.491 55.9811 131.208 55.589 130.83 55.3011C130.455 55.0095 129.983 54.8636 129.415 54.8636C128.869 54.8636 128.411 55.0019 128.04 55.2784C127.669 55.5511 127.388 55.9337 127.199 56.4261C127.009 56.9148 126.915 57.4848 126.915 58.1364ZM139.011 62.6818C138.17 62.6818 137.445 62.4962 136.835 62.125C136.229 61.75 135.761 61.2273 135.432 60.5568C135.106 59.8826 134.943 59.0985 134.943 58.2045C134.943 57.3106 135.106 56.5227 135.432 55.8409C135.761 55.1553 136.22 54.6212 136.807 54.2386C137.398 53.8523 138.087 53.6591 138.875 53.6591C139.33 53.6591 139.778 53.7348 140.222 53.8864C140.665 54.0379 141.068 54.2841 141.432 54.625C141.795 54.9621 142.085 55.4091 142.301 55.9659C142.517 56.5227 142.625 57.2083 142.625 58.0227V58.5909H135.898V57.4318H141.261C141.261 56.9394 141.163 56.5 140.966 56.1136C140.773 55.7273 140.496 55.4223 140.136 55.1989C139.78 54.9754 139.36 54.8636 138.875 54.8636C138.341 54.8636 137.879 54.9962 137.489 55.2614C137.102 55.5227 136.805 55.8636 136.597 56.2841C136.388 56.7045 136.284 57.1553 136.284 57.6364V58.4091C136.284 59.0682 136.398 59.6269 136.625 60.0852C136.856 60.5398 137.176 60.8864 137.585 61.125C137.994 61.3598 138.47 61.4773 139.011 61.4773C139.364 61.4773 139.682 61.428 139.966 61.3295C140.254 61.2273 140.502 61.0758 140.71 60.875C140.919 60.6705 141.08 60.4167 141.193 60.1136L142.489 60.4773C142.352 60.9167 142.123 61.303 141.801 61.6364C141.479 61.9659 141.081 62.2235 140.608 62.4091C140.134 62.5909 139.602 62.6818 139.011 62.6818ZM144.665 62.5V53.7727H145.96V55.0909H146.051C146.21 54.6591 146.498 54.3087 146.915 54.0398C147.331 53.7708 147.801 53.6364 148.324 53.6364C148.422 53.6364 148.545 53.6383 148.693 53.642C148.841 53.6458 148.953 53.6515 149.028 53.6591V55.0227C148.983 55.0114 148.879 54.9943 148.716 54.9716C148.557 54.9451 148.388 54.9318 148.21 54.9318C147.786 54.9318 147.407 55.0208 147.074 55.1989C146.744 55.3731 146.483 55.6155 146.29 55.9261C146.1 56.233 146.006 56.5833 146.006 56.9773V62.5H144.665ZM151.959 57.25V62.5H150.618V53.7727H151.913V55.1364H152.027C152.232 54.6932 152.542 54.3371 152.959 54.0682C153.375 53.7955 153.913 53.6591 154.572 53.6591C155.163 53.6591 155.68 53.7803 156.124 54.0227C156.567 54.2614 156.911 54.625 157.158 55.1136C157.404 55.5985 157.527 56.2121 157.527 56.9545V62.5H156.186V57.0455C156.186 56.3598 156.008 55.8258 155.652 55.4432C155.296 55.0568 154.807 54.8636 154.186 54.8636C153.758 54.8636 153.375 54.9564 153.038 55.142C152.705 55.3277 152.442 55.5985 152.249 55.9545C152.055 56.3106 151.959 56.7424 151.959 57.25ZM163.636 62.6818C162.795 62.6818 162.07 62.4962 161.46 62.125C160.854 61.75 160.386 61.2273 160.057 60.5568C159.731 59.8826 159.568 59.0985 159.568 58.2045C159.568 57.3106 159.731 56.5227 160.057 55.8409C160.386 55.1553 160.845 54.6212 161.432 54.2386C162.023 53.8523 162.712 53.6591 163.5 53.6591C163.955 53.6591 164.403 53.7348 164.847 53.8864C165.29 54.0379 165.693 54.2841 166.057 54.625C166.42 54.9621 166.71 55.4091 166.926 55.9659C167.142 56.5227 167.25 57.2083 167.25 58.0227V58.5909H160.523V57.4318H165.886C165.886 56.9394 165.788 56.5 165.591 56.1136C165.398 55.7273 165.121 55.4223 164.761 55.1989C164.405 54.9754 163.985 54.8636 163.5 54.8636C162.966 54.8636 162.504 54.9962 162.114 55.2614C161.727 55.5227 161.43 55.8636 161.222 56.2841C161.013 56.7045 160.909 57.1553 160.909 57.6364V58.4091C160.909 59.0682 161.023 59.6269 161.25 60.0852C161.481 60.5398 161.801 60.8864 162.21 61.125C162.619 61.3598 163.095 61.4773 163.636 61.4773C163.989 61.4773 164.307 61.428 164.591 61.3295C164.879 61.2273 165.127 61.0758 165.335 60.875C165.544 60.6705 165.705 60.4167 165.818 60.1136L167.114 60.4773C166.977 60.9167 166.748 61.303 166.426 61.6364C166.104 61.9659 165.706 62.2235 165.233 62.4091C164.759 62.5909 164.227 62.6818 163.636 62.6818ZM173.085 53.7727V54.9091H168.562V53.7727H173.085ZM169.881 51.6818H171.222V60C171.222 60.3788 171.277 60.6629 171.386 60.8523C171.5 61.0379 171.644 61.1629 171.818 61.2273C171.996 61.2879 172.184 61.3182 172.381 61.3182C172.528 61.3182 172.65 61.3106 172.744 61.2955C172.839 61.2765 172.915 61.2614 172.972 61.25L173.244 62.4545C173.153 62.4886 173.027 62.5227 172.864 62.5568C172.701 62.5947 172.494 62.6136 172.244 62.6136C171.866 62.6136 171.494 62.5322 171.131 62.3693C170.771 62.2064 170.472 61.9583 170.233 61.625C169.998 61.2917 169.881 60.8712 169.881 60.3636V51.6818ZM178.668 62.6818C177.827 62.6818 177.101 62.4962 176.491 62.125C175.885 61.75 175.418 61.2273 175.088 60.5568C174.762 59.8826 174.599 59.0985 174.599 58.2045C174.599 57.3106 174.762 56.5227 175.088 55.8409C175.418 55.1553 175.876 54.6212 176.463 54.2386C177.054 53.8523 177.743 53.6591 178.531 53.6591C178.986 53.6591 179.435 53.7348 179.878 53.8864C180.321 54.0379 180.724 54.2841 181.088 54.625C181.452 54.9621 181.741 55.4091 181.957 55.9659C182.173 56.5227 182.281 57.2083 182.281 58.0227V58.5909H175.554V57.4318H180.918C180.918 56.9394 180.819 56.5 180.622 56.1136C180.429 55.7273 180.152 55.4223 179.793 55.1989C179.437 54.9754 179.016 54.8636 178.531 54.8636C177.997 54.8636 177.535 54.9962 177.145 55.2614C176.759 55.5227 176.461 55.8636 176.253 56.2841C176.045 56.7045 175.94 57.1553 175.94 57.6364V58.4091C175.94 59.0682 176.054 59.6269 176.281 60.0852C176.512 60.5398 176.832 60.8864 177.241 61.125C177.651 61.3598 178.126 61.4773 178.668 61.4773C179.02 61.4773 179.338 61.428 179.622 61.3295C179.91 61.2273 180.158 61.0758 180.366 60.875C180.575 60.6705 180.736 60.4167 180.849 60.1136L182.145 60.4773C182.009 60.9167 181.779 61.303 181.457 61.6364C181.135 61.9659 180.738 62.2235 180.264 62.4091C179.791 62.5909 179.259 62.6818 178.668 62.6818ZM190.503 55.7273L189.298 56.0682C189.223 55.8674 189.111 55.6723 188.963 55.483C188.819 55.2898 188.622 55.1307 188.372 55.0057C188.122 54.8807 187.802 54.8182 187.412 54.8182C186.878 54.8182 186.433 54.9413 186.077 55.1875C185.724 55.4299 185.548 55.7386 185.548 56.1136C185.548 56.447 185.67 56.7102 185.912 56.9034C186.154 57.0966 186.533 57.2576 187.048 57.3864L188.344 57.7045C189.124 57.8939 189.705 58.1837 190.088 58.5739C190.471 58.9602 190.662 59.4583 190.662 60.0682C190.662 60.5682 190.518 61.0152 190.23 61.4091C189.946 61.803 189.548 62.1136 189.037 62.3409C188.526 62.5682 187.931 62.6818 187.253 62.6818C186.363 62.6818 185.626 62.4886 185.043 62.1023C184.459 61.7159 184.09 61.1515 183.935 60.4091L185.207 60.0909C185.329 60.5606 185.558 60.9129 185.895 61.1477C186.236 61.3826 186.681 61.5 187.23 61.5C187.855 61.5 188.351 61.3674 188.719 61.1023C189.09 60.8333 189.276 60.5114 189.276 60.1364C189.276 59.8333 189.17 59.5795 188.957 59.375C188.745 59.1667 188.42 59.0114 187.98 58.9091L186.526 58.5682C185.726 58.3788 185.139 58.0852 184.764 57.6875C184.393 57.286 184.207 56.7841 184.207 56.1818C184.207 55.6894 184.346 55.2538 184.622 54.875C184.902 54.4962 185.283 54.1989 185.764 53.983C186.249 53.767 186.798 53.6591 187.412 53.6591C188.276 53.6591 188.954 53.8485 189.446 54.2273C189.942 54.6061 190.295 55.1061 190.503 55.7273Z" fill="#252532"/>
</svg>
