<svg width="364" height="113" viewBox="0 0 364 113" fill="none" xmlns="http://www.w3.org/2000/svg">
<path d="M0.5 8C0.5 3.85787 3.85786 0.5 8 0.5H356C360.142 0.5 363.5 3.85786 363.5 8V105C363.5 109.142 360.142 112.5 356 112.5H8C3.85786 112.5 0.5 109.142 0.5 105V8Z" fill="#F9F8F6"/>
<path d="M0.5 8C0.5 3.85787 3.85786 0.5 8 0.5H356C360.142 0.5 363.5 3.85786 363.5 8V105C363.5 109.142 360.142 112.5 356 112.5H8C3.85786 112.5 0.5 109.142 0.5 105V8Z" stroke="#DDDFDA"/>
<path d="M24.5 32C24.5 27.8579 27.8579 24.5 32 24.5H81C85.1421 24.5 88.5 27.8579 88.5 32V81C88.5 85.1421 85.1421 88.5 81 88.5H32C27.8579 88.5 24.5 85.1421 24.5 81V32Z" fill="#F9F8F6"/>
<path d="M24.5 32C24.5 27.8579 27.8579 24.5 32 24.5H81C85.1421 24.5 88.5 27.8579 88.5 32V81C88.5 85.1421 85.1421 88.5 81 88.5H32C27.8579 88.5 24.5 85.1421 24.5 81V32Z" stroke="#DDDFDA"/>
<path d="M56.5 71.5C64.7843 71.5 71.5 64.7843 71.5 56.5C71.5 48.2157 64.7843 41.5 56.5 41.5C48.2157 41.5 41.5 48.2157 41.5 56.5C41.5 64.7843 48.2157 71.5 56.5 71.5Z" fill="#F37441"/>
<path d="M53.2278 55.5371C53.2278 55.7217 53.2483 55.8711 53.2835 55.9795C53.3245 56.0908 53.3743 56.2109 53.4446 56.3398C53.471 56.3779 53.4797 56.4189 53.4797 56.4541C53.4797 56.5039 53.4504 56.5537 53.386 56.6035L53.0725 56.8115C53.0344 56.8379 52.9905 56.8555 52.9436 56.8555C52.8938 56.8555 52.844 56.8291 52.7942 56.7852C52.7268 56.7119 52.6682 56.6357 52.6155 56.5508C52.5598 56.4541 52.5071 56.3574 52.4602 56.2578C52.0706 56.7178 51.5813 56.9463 50.9924 56.9463C50.5735 56.9463 50.2395 56.8262 49.9963 56.5889C49.7532 56.3486 49.6272 56.0293 49.6272 55.6309C49.6272 55.2061 49.7766 54.8633 50.0813 54.6025C50.386 54.3418 50.7903 54.2129 51.303 54.2129C51.4729 54.2129 51.6487 54.2275 51.8303 54.2539C52.0149 54.2803 52.2053 54.3184 52.4045 54.3652V54.002C52.4045 53.624 52.3254 53.3574 52.1702 53.2051C52.012 53.0498 51.7424 52.9766 51.3586 52.9766C51.1829 52.9766 51.0042 52.9971 50.8196 53.041C50.635 53.085 50.4563 53.1406 50.2805 53.2109C50.2249 53.2373 50.1663 53.2578 50.1047 53.2754C50.0784 53.2842 50.052 53.2871 50.0256 53.29C49.9553 53.29 49.9202 53.2402 49.9202 53.1348V52.8916C49.9202 52.8125 49.929 52.751 49.9553 52.7158C49.9934 52.6719 50.0403 52.6338 50.096 52.6104C50.2717 52.5195 50.4797 52.4463 50.7229 52.3848C50.9778 52.3203 51.2385 52.2881 51.5022 52.291C52.0969 52.291 52.5305 52.4258 52.8088 52.6953C53.0842 52.9648 53.2219 53.3721 53.2219 53.9229V55.54L53.2278 55.5371ZM51.2034 56.2959C51.3674 56.2959 51.5374 56.2666 51.7161 56.2051C51.8948 56.1465 52.0559 56.0352 52.1907 55.8857C52.2698 55.792 52.3313 55.6865 52.3606 55.5664C52.3899 55.4463 52.4104 55.3027 52.4104 55.1328V54.9248C52.2581 54.8867 52.1057 54.8604 51.9504 54.8398C51.7952 54.8193 51.637 54.8105 51.4817 54.8105C51.1477 54.8105 50.9016 54.875 50.7376 55.0098C50.5735 55.1445 50.4944 55.335 50.4944 55.584C50.4944 55.8184 50.553 55.9941 50.679 56.1113C50.7991 56.2373 50.9719 56.2959 51.2034 56.2959ZM55.2083 56.835C55.1174 56.835 55.0588 56.8203 55.0178 56.7852C54.9768 56.7559 54.9417 56.6855 54.9124 56.5918L53.7405 52.7363C53.717 52.6719 53.7024 52.6045 53.6965 52.5371C53.6965 52.458 53.7376 52.4111 53.8167 52.4111H54.3059C54.3997 52.4111 54.4641 52.4258 54.4993 52.4609C54.5403 52.4902 54.5696 52.5605 54.5989 52.6572L55.4368 55.959L56.2161 52.6572C56.2424 52.5576 56.2717 52.4932 56.3098 52.4609C56.3684 52.4229 56.4387 52.4053 56.509 52.4111H56.9104C57.0042 52.4111 57.0715 52.4258 57.1096 52.4609C57.1477 52.4902 57.1858 52.5605 57.2034 52.6572L57.9915 56L58.8557 52.6572C58.885 52.5576 58.9202 52.4932 58.9553 52.4609C59.0139 52.4229 59.0813 52.4053 59.1487 52.4111H59.6145C59.6936 52.4111 59.7405 52.4521 59.7405 52.5371C59.7405 52.5635 59.7346 52.5869 59.7288 52.6162C59.72 52.6602 59.7083 52.7012 59.6936 52.7422L58.4924 56.5977C58.4631 56.6973 58.428 56.7617 58.387 56.791C58.3313 56.8262 58.2639 56.8437 58.1965 56.8408H57.7659C57.6721 56.8408 57.6077 56.8262 57.5667 56.791C57.5286 56.7559 57.4934 56.6914 57.4729 56.5918L56.6995 53.375L55.9319 56.5889C55.9055 56.6885 55.8762 56.7529 55.8381 56.7881C55.7971 56.8232 55.7268 56.8379 55.6389 56.8379L55.2083 56.835ZM61.6184 56.9697C61.3577 56.9697 61.0999 56.9404 60.8508 56.8789C60.6018 56.8203 60.4085 56.7529 60.2766 56.6797C60.1975 56.6357 60.1419 56.5859 60.1213 56.5391C60.1008 56.4951 60.092 56.4482 60.092 56.3984V56.1436C60.092 56.0381 60.1331 55.9883 60.2063 55.9883C60.2356 55.9883 60.2649 55.9941 60.2971 56.0029C60.3264 56.0117 60.3733 56.0322 60.4231 56.0527C60.593 56.1289 60.7776 56.1875 60.971 56.2285C61.1702 56.2695 61.3635 56.2871 61.5657 56.2871C61.8792 56.2871 62.1252 56.2314 62.2952 56.123C62.4592 56.0234 62.5588 55.8418 62.5559 55.6484C62.5588 55.5195 62.512 55.3936 62.4211 55.2998C62.3303 55.2061 62.1604 55.1211 61.9172 55.0391L61.1936 54.8135C60.8303 54.6992 60.5608 54.5293 60.3967 54.3066C60.2356 54.0986 60.1477 53.8437 60.1477 53.583C60.1477 53.375 60.1946 53.1904 60.2825 53.0293C60.3733 52.8711 60.4905 52.7305 60.6428 52.6191C60.7922 52.5049 60.9622 52.4199 61.1614 52.3584C61.3606 52.2998 61.5715 52.2734 61.7913 52.2734C61.8997 52.2734 62.0169 52.2793 62.1253 52.2939C62.2395 52.3086 62.345 52.3291 62.4504 52.3496C62.5501 52.376 62.6467 52.3994 62.7346 52.4287C62.8254 52.458 62.8958 52.4873 62.9456 52.5195C63.0042 52.5488 63.0569 52.5928 63.095 52.6455C63.1272 52.6953 63.1419 52.751 63.1389 52.8096V53.0439C63.1389 53.1494 63.0979 53.2051 63.0247 53.2051C62.9573 53.1963 62.8928 53.1758 62.8342 53.1465C62.5325 53.0146 62.2073 52.9473 61.8762 52.9531C61.592 52.9531 61.3665 52.9971 61.2112 53.0938C61.0559 53.1875 60.9768 53.334 60.9768 53.5361C60.9768 53.6768 61.0266 53.7969 61.1262 53.8906C61.2258 53.9844 61.4104 54.0811 61.6741 54.166L62.3831 54.3887C62.7405 54.5029 63.0012 54.6641 63.1565 54.8691C63.3118 55.0742 63.385 55.3086 63.385 55.5664C63.385 55.7803 63.3411 55.9766 63.2561 56.1465C63.1653 56.3164 63.0452 56.4658 62.8928 56.5859C62.7376 56.7119 62.553 56.7998 62.3391 56.8643C62.1077 56.9346 61.8733 56.9697 61.6184 56.9697ZM62.5618 59.3926C60.9212 60.6055 58.5364 61.2471 56.4856 61.2471C53.6116 61.2471 51.0217 60.1836 49.0676 58.417C48.9124 58.2764 49.053 58.0889 49.2376 58.1973C51.3528 59.4248 53.9631 60.1689 56.6614 60.1689C58.4836 60.1689 60.4817 59.791 62.3245 59.0117C62.5969 58.8887 62.8313 59.1934 62.5618 59.3926ZM63.2444 58.6162C63.0335 58.3467 61.8557 58.4873 61.3225 58.5518C61.1643 58.5723 61.1379 58.4316 61.2844 58.3262C62.2219 57.667 63.7629 57.8574 63.9446 58.0771C64.1233 58.3027 63.8948 59.8437 63.0159 60.582C62.8811 60.6963 62.7522 60.6377 62.8108 60.4883C63.01 59.9932 63.4553 58.8799 63.2444 58.6162Z" fill="white"/>
<path d="M106.886 62.5H105.409L109.682 50.8636H111.136L115.409 62.5H113.932L110.455 52.7045H110.364L106.886 62.5ZM107.432 57.9545H113.386V59.2045H107.432V57.9545ZM117.923 62.5L115.264 53.7727H116.673L118.56 60.4545H118.651L120.514 53.7727H121.946L123.787 60.4318H123.878L125.764 53.7727H127.173L124.514 62.5H123.196L121.287 55.7955H121.151L119.241 62.5H117.923ZM135.128 55.7273L133.923 56.0682C133.848 55.8674 133.736 55.6723 133.588 55.483C133.444 55.2898 133.247 55.1307 132.997 55.0057C132.747 54.8807 132.427 54.8182 132.037 54.8182C131.503 54.8182 131.058 54.9413 130.702 55.1875C130.349 55.4299 130.173 55.7386 130.173 56.1136C130.173 56.447 130.295 56.7102 130.537 56.9034C130.779 57.0966 131.158 57.2576 131.673 57.3864L132.969 57.7045C133.749 57.8939 134.33 58.1837 134.713 58.5739C135.096 58.9602 135.287 59.4583 135.287 60.0682C135.287 60.5682 135.143 61.0152 134.855 61.4091C134.571 61.803 134.173 62.1136 133.662 62.3409C133.151 62.5682 132.556 62.6818 131.878 62.6818C130.988 62.6818 130.251 62.4886 129.668 62.1023C129.084 61.7159 128.715 61.1515 128.56 60.4091L129.832 60.0909C129.954 60.5606 130.183 60.9129 130.52 61.1477C130.861 61.3826 131.306 61.5 131.855 61.5C132.48 61.5 132.976 61.3674 133.344 61.1023C133.715 60.8333 133.901 60.5114 133.901 60.1364C133.901 59.8333 133.795 59.5795 133.582 59.375C133.37 59.1667 133.045 59.0114 132.605 58.9091L131.151 58.5682C130.351 58.3788 129.764 58.0852 129.389 57.6875C129.018 57.286 128.832 56.7841 128.832 56.1818C128.832 55.6894 128.971 55.2538 129.247 54.875C129.527 54.4962 129.908 54.1989 130.389 53.983C130.874 53.767 131.423 53.6591 132.037 53.6591C132.901 53.6591 133.579 53.8485 134.071 54.2273C134.567 54.6061 134.92 55.1061 135.128 55.7273Z" fill="#252532"/>
</svg>
