<svg width="364" height="113" viewBox="0 0 364 113" fill="none" xmlns="http://www.w3.org/2000/svg">
<path d="M0.5 8C0.5 3.85787 3.85786 0.5 8 0.5H356C360.142 0.5 363.5 3.85786 363.5 8V105C363.5 109.142 360.142 112.5 356 112.5H8C3.85786 112.5 0.5 109.142 0.5 105V8Z" fill="#F9F8F6"/>
<path d="M0.5 8C0.5 3.85787 3.85786 0.5 8 0.5H356C360.142 0.5 363.5 3.85786 363.5 8V105C363.5 109.142 360.142 112.5 356 112.5H8C3.85786 112.5 0.5 109.142 0.5 105V8Z" stroke="#DDDFDA"/>
<path d="M24.5 32C24.5 27.8579 27.8579 24.5 32 24.5H81C85.1421 24.5 88.5 27.8579 88.5 32V81C88.5 85.1421 85.1421 88.5 81 88.5H32C27.8579 88.5 24.5 85.1421 24.5 81V32Z" fill="#F9F8F6"/>
<path d="M24.5 32C24.5 27.8579 27.8579 24.5 32 24.5H81C85.1421 24.5 88.5 27.8579 88.5 32V81C88.5 85.1421 85.1421 88.5 81 88.5H32C27.8579 88.5 24.5 85.1421 24.5 81V32Z" stroke="#DDDFDA"/>
<path d="M56.5 71.5001L41.5 64.3706L49 61.9883L56.5 69.1353L64 61.9883L71.5 64.3706L56.5 71.5001Z" fill="#4285F4"/>
<path d="M56.5 41.5L69 53.4117L56.5 65.3235L44 53.4117L56.5 41.5ZM56.5 43.8823L46.5 53.4117L56.5 62.9411L66.5 53.4117L56.5 43.8823Z" fill="#4285F4"/>
<path d="M67.9019 56.9844L69.0002 58.035L56.4996 70.089L43.9985 58.035L45.0969 56.986L46.1419 57.9866L46.0384 58.0856L56.4996 67.9065L66.9607 58.0856L66.8552 57.9866L67.9019 56.9844Z" fill="#4285F4"/>
<path d="M106.409 62.5V50.8636H110.477C111.288 50.8636 111.956 51.0038 112.483 51.2841C113.009 51.5606 113.402 51.9337 113.659 52.4034C113.917 52.8693 114.045 53.3864 114.045 53.9545C114.045 54.4545 113.956 54.8674 113.778 55.1932C113.604 55.5189 113.373 55.7765 113.085 55.9659C112.801 56.1553 112.492 56.2955 112.159 56.3864V56.5C112.515 56.5227 112.873 56.6477 113.233 56.875C113.593 57.1023 113.894 57.428 114.136 57.8523C114.379 58.2765 114.5 58.7955 114.5 59.4091C114.5 59.9924 114.367 60.517 114.102 60.983C113.837 61.4489 113.419 61.8182 112.847 62.0909C112.275 62.3636 111.53 62.5 110.614 62.5H106.409ZM107.818 61.25H110.614C111.534 61.25 112.188 61.072 112.574 60.7159C112.964 60.3561 113.159 59.9205 113.159 59.4091C113.159 59.0152 113.059 58.6515 112.858 58.3182C112.657 57.9811 112.371 57.7121 112 57.5114C111.629 57.3068 111.189 57.2045 110.682 57.2045H107.818V61.25ZM107.818 55.9773H110.432C110.856 55.9773 111.239 55.8939 111.58 55.7273C111.924 55.5606 112.197 55.3258 112.398 55.0227C112.602 54.7197 112.705 54.3636 112.705 53.9545C112.705 53.4432 112.527 53.0095 112.17 52.6534C111.814 52.2936 111.25 52.1136 110.477 52.1136H107.818V55.9773ZM119.202 62.7045C118.649 62.7045 118.147 62.6004 117.696 62.392C117.245 62.1799 116.887 61.875 116.622 61.4773C116.357 61.0758 116.224 60.5909 116.224 60.0227C116.224 59.5227 116.323 59.1174 116.52 58.8068C116.717 58.4924 116.98 58.2462 117.31 58.0682C117.639 57.8902 118.003 57.7576 118.401 57.6705C118.802 57.5795 119.205 57.5076 119.611 57.4545C120.141 57.3864 120.571 57.3352 120.901 57.3011C121.234 57.2633 121.476 57.2008 121.628 57.1136C121.783 57.0265 121.861 56.875 121.861 56.6591V56.6136C121.861 56.053 121.707 55.6174 121.401 55.3068C121.098 54.9962 120.637 54.8409 120.02 54.8409C119.38 54.8409 118.878 54.9811 118.514 55.2614C118.151 55.5417 117.895 55.8409 117.747 56.1591L116.474 55.7045C116.702 55.1742 117.005 54.7614 117.384 54.4659C117.766 54.1667 118.183 53.9583 118.634 53.8409C119.088 53.7197 119.535 53.6591 119.974 53.6591C120.255 53.6591 120.577 53.6932 120.94 53.7614C121.308 53.8258 121.662 53.9602 122.003 54.1648C122.348 54.3693 122.634 54.678 122.861 55.0909C123.088 55.5038 123.202 56.0568 123.202 56.75V62.5H121.861V61.3182H121.793C121.702 61.5076 121.55 61.7102 121.338 61.9261C121.126 62.142 120.844 62.3258 120.491 62.4773C120.139 62.6288 119.709 62.7045 119.202 62.7045ZM119.406 61.5C119.937 61.5 120.384 61.3958 120.747 61.1875C121.115 60.9792 121.391 60.7102 121.577 60.3807C121.766 60.0511 121.861 59.7045 121.861 59.3409V58.1136C121.804 58.1818 121.679 58.2443 121.486 58.3011C121.296 58.3542 121.077 58.4015 120.827 58.4432C120.58 58.4811 120.34 58.5152 120.105 58.5455C119.874 58.572 119.687 58.5947 119.543 58.6136C119.194 58.6591 118.868 58.733 118.565 58.8352C118.266 58.9337 118.024 59.0833 117.838 59.2841C117.656 59.4811 117.565 59.75 117.565 60.0909C117.565 60.5568 117.738 60.9091 118.082 61.1477C118.431 61.3826 118.872 61.5 119.406 61.5ZM125.649 62.5V53.7727H126.945V55.0909H127.036C127.195 54.6591 127.482 54.3087 127.899 54.0398C128.316 53.7708 128.786 53.6364 129.308 53.6364C129.407 53.6364 129.53 53.6383 129.678 53.642C129.825 53.6458 129.937 53.6515 130.013 53.6591V55.0227C129.967 55.0114 129.863 54.9943 129.7 54.9716C129.541 54.9451 129.373 54.9318 129.195 54.9318C128.77 54.9318 128.392 55.0208 128.058 55.1989C127.729 55.3731 127.467 55.6155 127.274 55.9261C127.085 56.233 126.99 56.5833 126.99 56.9773V62.5H125.649ZM134.996 62.6818C134.155 62.6818 133.429 62.4962 132.82 62.125C132.214 61.75 131.746 61.2273 131.416 60.5568C131.09 59.8826 130.928 59.0985 130.928 58.2045C130.928 57.3106 131.09 56.5227 131.416 55.8409C131.746 55.1553 132.204 54.6212 132.791 54.2386C133.382 53.8523 134.071 53.6591 134.859 53.6591C135.314 53.6591 135.763 53.7348 136.206 53.8864C136.649 54.0379 137.053 54.2841 137.416 54.625C137.78 54.9621 138.07 55.4091 138.286 55.9659C138.501 56.5227 138.609 57.2083 138.609 58.0227V58.5909H131.882V57.4318H137.246C137.246 56.9394 137.147 56.5 136.95 56.1136C136.757 55.7273 136.481 55.4223 136.121 55.1989C135.765 54.9754 135.344 54.8636 134.859 54.8636C134.325 54.8636 133.863 54.9962 133.473 55.2614C133.087 55.5227 132.789 55.8636 132.581 56.2841C132.373 56.7045 132.268 57.1553 132.268 57.6364V58.4091C132.268 59.0682 132.382 59.6269 132.609 60.0852C132.84 60.5398 133.161 60.8864 133.57 61.125C133.979 61.3598 134.454 61.4773 134.996 61.4773C135.348 61.4773 135.666 61.428 135.95 61.3295C136.238 61.2273 136.486 61.0758 136.695 60.875C136.903 60.6705 137.064 60.4167 137.178 60.1136L138.473 60.4773C138.337 60.9167 138.107 61.303 137.786 61.6364C137.464 61.9659 137.066 62.2235 136.592 62.4091C136.119 62.5909 135.587 62.6818 134.996 62.6818ZM145.149 62.5V53.7727H146.445V55.1364H146.558C146.74 54.6705 147.034 54.3087 147.439 54.0511C147.844 53.7898 148.331 53.6591 148.899 53.6591C149.475 53.6591 149.954 53.7898 150.337 54.0511C150.723 54.3087 151.024 54.6705 151.24 55.1364H151.331C151.554 54.6856 151.89 54.3277 152.337 54.0625C152.784 53.7936 153.32 53.6591 153.945 53.6591C154.725 53.6591 155.363 53.9034 155.859 54.392C156.356 54.8769 156.604 55.6326 156.604 56.6591V62.5H155.263V56.6591C155.263 56.0152 155.087 55.5549 154.734 55.2784C154.382 55.0019 153.967 54.8636 153.49 54.8636C152.876 54.8636 152.401 55.0492 152.064 55.4205C151.727 55.7879 151.558 56.2538 151.558 56.8182V62.5H150.195V56.5227C150.195 56.0265 150.034 55.6269 149.712 55.3239C149.39 55.017 148.975 54.8636 148.467 54.8636C148.119 54.8636 147.793 54.9564 147.49 55.142C147.191 55.3277 146.948 55.5852 146.763 55.9148C146.581 56.2405 146.49 56.6174 146.49 57.0455V62.5H145.149ZM162.714 62.6818C161.874 62.6818 161.148 62.4962 160.538 62.125C159.932 61.75 159.464 61.2273 159.135 60.5568C158.809 59.8826 158.646 59.0985 158.646 58.2045C158.646 57.3106 158.809 56.5227 159.135 55.8409C159.464 55.1553 159.923 54.6212 160.51 54.2386C161.101 53.8523 161.79 53.6591 162.578 53.6591C163.033 53.6591 163.482 53.7348 163.925 53.8864C164.368 54.0379 164.771 54.2841 165.135 54.625C165.499 54.9621 165.788 55.4091 166.004 55.9659C166.22 56.5227 166.328 57.2083 166.328 58.0227V58.5909H159.601V57.4318H164.964C164.964 56.9394 164.866 56.5 164.669 56.1136C164.476 55.7273 164.199 55.4223 163.839 55.1989C163.483 54.9754 163.063 54.8636 162.578 54.8636C162.044 54.8636 161.582 54.9962 161.192 55.2614C160.805 55.5227 160.508 55.8636 160.3 56.2841C160.091 56.7045 159.987 57.1553 159.987 57.6364V58.4091C159.987 59.0682 160.101 59.6269 160.328 60.0852C160.559 60.5398 160.879 60.8864 161.288 61.125C161.697 61.3598 162.173 61.4773 162.714 61.4773C163.067 61.4773 163.385 61.428 163.669 61.3295C163.957 61.2273 164.205 61.0758 164.413 60.875C164.622 60.6705 164.783 60.4167 164.896 60.1136L166.192 60.4773C166.055 60.9167 165.826 61.303 165.504 61.6364C165.182 61.9659 164.785 62.2235 164.311 62.4091C163.838 62.5909 163.305 62.6818 162.714 62.6818ZM172.163 53.7727V54.9091H167.641V53.7727H172.163ZM168.959 51.6818H170.3V60C170.3 60.3788 170.355 60.6629 170.464 60.8523C170.578 61.0379 170.722 61.1629 170.896 61.2273C171.074 61.2879 171.262 61.3182 171.459 61.3182C171.607 61.3182 171.728 61.3106 171.822 61.2955C171.917 61.2765 171.993 61.2614 172.05 61.25L172.322 62.4545C172.232 62.4886 172.105 62.5227 171.942 62.5568C171.779 62.5947 171.572 62.6136 171.322 62.6136C170.944 62.6136 170.572 62.5322 170.209 62.3693C169.849 62.2064 169.55 61.9583 169.311 61.625C169.076 61.2917 168.959 60.8712 168.959 60.3636V51.6818ZM176.749 62.7045C176.196 62.7045 175.694 62.6004 175.243 62.392C174.792 62.1799 174.434 61.875 174.169 61.4773C173.904 61.0758 173.771 60.5909 173.771 60.0227C173.771 59.5227 173.87 59.1174 174.067 58.8068C174.264 58.4924 174.527 58.2462 174.857 58.0682C175.186 57.8902 175.55 57.7576 175.947 57.6705C176.349 57.5795 176.752 57.5076 177.158 57.4545C177.688 57.3864 178.118 57.3352 178.447 57.3011C178.781 57.2633 179.023 57.2008 179.175 57.1136C179.33 57.0265 179.408 56.875 179.408 56.6591V56.6136C179.408 56.053 179.254 55.6174 178.947 55.3068C178.644 54.9962 178.184 54.8409 177.567 54.8409C176.927 54.8409 176.425 54.9811 176.061 55.2614C175.697 55.5417 175.442 55.8409 175.294 56.1591L174.021 55.7045C174.249 55.1742 174.552 54.7614 174.93 54.4659C175.313 54.1667 175.73 53.9583 176.18 53.8409C176.635 53.7197 177.082 53.6591 177.521 53.6591C177.802 53.6591 178.124 53.6932 178.487 53.7614C178.855 53.8258 179.209 53.9602 179.55 54.1648C179.894 54.3693 180.18 54.678 180.408 55.0909C180.635 55.5038 180.749 56.0568 180.749 56.75V62.5H179.408V61.3182H179.339C179.249 61.5076 179.097 61.7102 178.885 61.9261C178.673 62.142 178.391 62.3258 178.038 62.4773C177.686 62.6288 177.256 62.7045 176.749 62.7045ZM176.953 61.5C177.483 61.5 177.93 61.3958 178.294 61.1875C178.661 60.9792 178.938 60.7102 179.124 60.3807C179.313 60.0511 179.408 59.7045 179.408 59.3409V58.1136C179.351 58.1818 179.226 58.2443 179.033 58.3011C178.843 58.3542 178.624 58.4015 178.374 58.4432C178.127 58.4811 177.887 58.5152 177.652 58.5455C177.421 58.572 177.233 58.5947 177.089 58.6136C176.741 58.6591 176.415 58.733 176.112 58.8352C175.813 58.9337 175.571 59.0833 175.385 59.2841C175.203 59.4811 175.112 59.75 175.112 60.0909C175.112 60.5568 175.285 60.9091 175.629 61.1477C175.978 61.3826 176.419 61.5 176.953 61.5ZM184.537 50.8636V62.5H183.196V50.8636H184.537Z" fill="#252532"/>
</svg>
