<svg width="723" height="465" viewBox="0 0 723 465" fill="none" xmlns="http://www.w3.org/2000/svg">
<path d="M363.501 89.255L377.365 96.5451L377.366 96.5452C378.255 97.0131 379.301 96.2592 379.132 95.2605C379.132 95.2602 379.132 95.2599 379.132 95.2596L376.485 79.8189L376.484 79.8143C376.312 78.7806 376.646 77.7145 377.41 76.9728C377.41 76.9725 377.41 76.9722 377.411 76.9719L388.63 66.0354C389.355 65.3282 388.949 64.1063 387.962 63.9658L387.959 63.9654L372.455 61.7153C372.455 61.7153 372.455 61.7153 372.454 61.7153C371.413 61.5644 370.499 60.9083 370.031 59.9575L363.093 45.9048C363.093 45.9045 363.092 45.9042 363.092 45.9039C362.642 44.9991 361.353 45.0027 360.908 45.9034L353.969 59.9575C353.502 60.9057 352.596 61.564 351.546 61.7153L363.501 89.255ZM363.501 89.255L363.501 89.2541C362.565 88.7586 361.44 88.7595 360.504 89.2528L363.501 89.255ZM336.041 63.9653L351.544 61.7155L336.041 63.9653ZM360.503 89.2532L346.639 96.5431C346.638 96.5434 346.637 96.5438 346.637 96.5441C345.74 97.009 344.702 96.2488 344.868 95.2597C344.868 95.2594 344.868 95.2591 344.869 95.2588L347.515 79.8189L347.515 79.8186C347.693 78.7786 347.352 77.7119 346.59 76.9724C346.59 76.9723 346.589 76.9721 346.589 76.972L335.369 66.035L335.367 66.0329C334.652 65.3402 335.043 64.1114 336.041 63.9654L360.503 89.2532Z" fill="white" stroke="#FFE500" stroke-width="2"/>
<path d="M363.501 427.493L377.365 434.783L377.366 434.784C378.255 435.251 379.301 434.497 379.132 433.499C379.132 433.498 379.132 433.498 379.132 433.498L376.485 418.057L376.484 418.053C376.312 417.019 376.646 415.953 377.41 415.211C377.41 415.211 377.41 415.211 377.411 415.21L388.63 404.274C389.355 403.566 388.949 402.345 387.962 402.204L387.959 402.204L372.455 399.954C372.455 399.954 372.455 399.954 372.454 399.954C371.413 399.803 370.499 399.147 370.031 398.196L363.093 384.143C363.093 384.143 363.092 384.142 363.092 384.142C362.642 383.237 361.353 383.241 360.908 384.142L353.969 398.196C353.502 399.144 352.596 399.802 351.546 399.954L363.501 427.493ZM363.501 427.493L363.501 427.492C362.565 426.997 361.44 426.998 360.504 427.491L363.501 427.493ZM336.041 402.204L351.544 399.954L336.041 402.204ZM360.503 427.491L346.639 434.781C346.638 434.782 346.637 434.782 346.637 434.782C345.74 435.247 344.702 434.487 344.868 433.498C344.868 433.498 344.868 433.497 344.869 433.497L347.515 418.057L347.515 418.057C347.693 417.017 347.352 415.95 346.59 415.211C346.59 415.211 346.589 415.21 346.589 415.21L335.369 404.273L335.367 404.271C334.652 403.578 335.043 402.35 336.041 402.204L360.503 427.491Z" fill="white" stroke="#FFE500" stroke-width="2"/>
<path d="M195.501 253.255L209.365 260.545L209.366 260.545C210.255 261.013 211.301 260.259 211.132 259.261C211.132 259.26 211.132 259.26 211.132 259.26L208.485 243.819L208.484 243.814C208.312 242.781 208.646 241.715 209.41 240.973C209.41 240.973 209.41 240.972 209.411 240.972L220.63 230.035C221.355 229.328 220.949 228.106 219.962 227.966L219.959 227.965L204.455 225.715C204.455 225.715 204.455 225.715 204.454 225.715C203.413 225.564 202.499 224.908 202.031 223.957L195.093 209.905C195.093 209.905 195.092 209.904 195.092 209.904C194.642 208.999 193.353 209.003 192.908 209.903L185.969 223.958C185.502 224.906 184.596 225.564 183.546 225.715L195.501 253.255ZM195.501 253.255L195.501 253.254C194.565 252.759 193.44 252.76 192.504 253.253L195.501 253.255ZM168.041 227.965L183.544 225.716L168.041 227.965ZM192.503 253.253L178.639 260.543C178.638 260.543 178.637 260.544 178.637 260.544C177.74 261.009 176.702 260.249 176.868 259.26C176.868 259.259 176.868 259.259 176.869 259.259L179.515 243.819L179.515 243.819C179.693 242.779 179.352 241.712 178.59 240.972C178.59 240.972 178.589 240.972 178.589 240.972L167.369 230.035L167.367 230.033C166.652 229.34 167.043 228.111 168.041 227.965L192.503 253.253Z" fill="white" stroke="#FFE500" stroke-width="2"/>
<path d="M531.501 259.255L545.365 266.545L545.366 266.545C546.255 267.013 547.301 266.259 547.132 265.261C547.132 265.26 547.132 265.26 547.132 265.26L544.485 249.819L544.484 249.814C544.312 248.781 544.646 247.715 545.41 246.973C545.41 246.973 545.41 246.972 545.411 246.972L556.63 236.035C557.355 235.328 556.949 234.106 555.962 233.966L555.959 233.965L540.455 231.715C540.455 231.715 540.455 231.715 540.454 231.715C539.413 231.564 538.499 230.908 538.031 229.957L531.093 215.905C531.093 215.905 531.092 215.904 531.092 215.904C530.642 214.999 529.353 215.003 528.908 215.903L521.969 229.958C521.502 230.906 520.596 231.564 519.546 231.715L531.501 259.255ZM531.501 259.255L531.501 259.254C530.565 258.759 529.44 258.76 528.504 259.253L531.501 259.255ZM504.041 233.965L519.544 231.716L504.041 233.965ZM528.503 259.253L514.639 266.543C514.638 266.543 514.637 266.544 514.637 266.544C513.74 267.009 512.702 266.249 512.868 265.26C512.868 265.259 512.868 265.259 512.869 265.259L515.515 249.819L515.515 249.819C515.693 248.779 515.352 247.712 514.59 246.972C514.59 246.972 514.589 246.972 514.589 246.972L503.369 236.035L503.367 236.033C502.652 235.34 503.043 234.111 504.041 233.965L528.503 259.253Z" fill="white" stroke="#FFE500" stroke-width="2"/>
<path d="M510.501 341.255L524.365 348.545L524.366 348.545C525.255 349.013 526.301 348.259 526.132 347.261C526.132 347.26 526.132 347.26 526.132 347.26L523.485 331.819L523.484 331.814C523.312 330.781 523.646 329.715 524.41 328.973C524.41 328.973 524.41 328.972 524.411 328.972L535.63 318.035C536.355 317.328 535.949 316.106 534.962 315.966L534.959 315.965L519.455 313.715C519.455 313.715 519.455 313.715 519.454 313.715C518.413 313.564 517.499 312.908 517.031 311.957L510.093 297.905C510.093 297.905 510.092 297.904 510.092 297.904C509.642 296.999 508.353 297.003 507.908 297.903L500.969 311.958C500.502 312.906 499.596 313.564 498.546 313.715L510.501 341.255ZM510.501 341.255L510.501 341.254C509.565 340.759 508.44 340.76 507.504 341.253L510.501 341.255ZM483.041 315.965L498.544 313.716L483.041 315.965ZM507.503 341.253L493.639 348.543C493.638 348.543 493.637 348.544 493.637 348.544C492.74 349.009 491.702 348.249 491.868 347.26C491.868 347.259 491.868 347.259 491.869 347.259L494.515 331.819L494.515 331.819C494.693 330.779 494.352 329.712 493.59 328.972C493.59 328.972 493.589 328.972 493.589 328.972L482.369 318.035L482.367 318.033C481.652 317.34 482.043 316.111 483.041 315.965L507.503 341.253Z" fill="white" stroke="#FFE500" stroke-width="2"/>
<path d="M453.501 404.255L467.365 411.545L467.366 411.545C468.255 412.013 469.301 411.259 469.132 410.261C469.132 410.26 469.132 410.26 469.132 410.26L466.485 394.819L466.484 394.814C466.312 393.781 466.646 392.715 467.41 391.973C467.41 391.973 467.41 391.972 467.411 391.972L478.63 381.035C479.355 380.328 478.949 379.106 477.962 378.966L477.959 378.965L462.455 376.715C462.455 376.715 462.455 376.715 462.454 376.715C461.413 376.564 460.499 375.908 460.031 374.957L453.093 360.905C453.093 360.905 453.092 360.904 453.092 360.904C452.642 359.999 451.353 360.003 450.908 360.903L443.969 374.958C443.502 375.906 442.596 376.564 441.546 376.715L453.501 404.255ZM453.501 404.255L453.501 404.254C452.565 403.759 451.44 403.76 450.504 404.253L453.501 404.255ZM426.041 378.965L441.544 376.716L426.041 378.965ZM450.503 404.253L436.639 411.543C436.638 411.543 436.637 411.544 436.637 411.544C435.74 412.009 434.702 411.249 434.868 410.26C434.868 410.259 434.868 410.259 434.869 410.259L437.515 394.819L437.515 394.819C437.693 393.779 437.352 392.712 436.59 391.972C436.59 391.972 436.589 391.972 436.589 391.972L425.369 381.035L425.367 381.033C424.652 380.34 425.043 379.111 426.041 378.965L450.503 404.253Z" fill="white" stroke="#FFE500" stroke-width="2"/>
<path d="M273.501 404.255L287.365 411.545L287.366 411.545C288.255 412.013 289.301 411.259 289.132 410.261C289.132 410.26 289.132 410.26 289.132 410.26L286.485 394.819L286.484 394.814C286.312 393.781 286.646 392.715 287.41 391.973C287.41 391.973 287.41 391.972 287.411 391.972L298.63 381.035C299.355 380.328 298.949 379.106 297.962 378.966L297.959 378.965L282.455 376.715C282.455 376.715 282.455 376.715 282.454 376.715C281.413 376.564 280.499 375.908 280.031 374.957L273.093 360.905C273.093 360.905 273.092 360.904 273.092 360.904C272.642 359.999 271.353 360.003 270.908 360.903L263.969 374.958C263.502 375.906 262.596 376.564 261.546 376.715L273.501 404.255ZM273.501 404.255L273.501 404.254C272.565 403.759 271.44 403.76 270.504 404.253L273.501 404.255ZM246.041 378.965L261.544 376.716L246.041 378.965ZM270.503 404.253L256.639 411.543C256.638 411.543 256.637 411.544 256.637 411.544C255.74 412.009 254.702 411.249 254.868 410.26C254.868 410.259 254.868 410.259 254.869 410.259L257.515 394.819L257.515 394.819C257.693 393.779 257.352 392.712 256.59 391.972C256.59 391.972 256.589 391.972 256.589 391.972L245.369 381.035L245.367 381.033C244.652 380.34 245.043 379.111 246.041 378.965L270.503 404.253Z" fill="white" stroke="#FFE500" stroke-width="2"/>
<path d="M213.501 341.255L227.365 348.545L227.366 348.545C228.255 349.013 229.301 348.259 229.132 347.261C229.132 347.26 229.132 347.26 229.132 347.26L226.485 331.819L226.484 331.814C226.312 330.781 226.646 329.715 227.41 328.973C227.41 328.973 227.41 328.972 227.411 328.972L238.63 318.035C239.355 317.328 238.949 316.106 237.962 315.966L237.959 315.965L222.455 313.715C222.455 313.715 222.455 313.715 222.454 313.715C221.413 313.564 220.499 312.908 220.031 311.957L213.093 297.905C213.093 297.905 213.092 297.904 213.092 297.904C212.642 296.999 211.353 297.003 210.908 297.903L203.969 311.958C203.502 312.906 202.596 313.564 201.546 313.715L213.501 341.255ZM213.501 341.255L213.501 341.254C212.565 340.759 211.44 340.76 210.504 341.253L213.501 341.255ZM186.041 315.965L201.544 313.716L186.041 315.965ZM210.503 341.253L196.639 348.543C196.638 348.543 196.637 348.544 196.637 348.544C195.74 349.009 194.702 348.249 194.868 347.26C194.868 347.259 194.868 347.259 194.869 347.259L197.515 331.819L197.515 331.819C197.693 330.779 197.352 329.712 196.59 328.972C196.59 328.972 196.589 328.972 196.589 328.972L185.369 318.035L185.367 318.033C184.652 317.34 185.043 316.111 186.041 315.965L210.503 341.253Z" fill="white" stroke="#FFE500" stroke-width="2"/>
<path d="M213.501 173.255L227.365 180.545L227.366 180.545C228.255 181.013 229.301 180.259 229.132 179.261C229.132 179.26 229.132 179.26 229.132 179.26L226.485 163.819L226.484 163.814C226.312 162.781 226.646 161.715 227.41 160.973C227.41 160.973 227.41 160.972 227.411 160.972L238.63 150.035C239.355 149.328 238.949 148.106 237.962 147.966L237.959 147.965L222.455 145.715C222.455 145.715 222.455 145.715 222.454 145.715C221.413 145.564 220.499 144.908 220.031 143.957L213.093 129.905C213.093 129.905 213.092 129.904 213.092 129.904C212.642 128.999 211.353 129.003 210.908 129.903L203.969 143.958C203.502 144.906 202.596 145.564 201.546 145.715L213.501 173.255ZM213.501 173.255L213.501 173.254C212.565 172.759 211.44 172.76 210.504 173.253L213.501 173.255ZM186.041 147.965L201.544 145.716L186.041 147.965ZM210.503 173.253L196.639 180.543C196.638 180.543 196.637 180.544 196.637 180.544C195.74 181.009 194.702 180.249 194.868 179.26C194.868 179.259 194.868 179.259 194.869 179.259L197.515 163.819L197.515 163.819C197.693 162.779 197.352 161.712 196.59 160.972C196.59 160.972 196.589 160.972 196.589 160.972L185.369 150.035L185.367 150.033C184.652 149.34 185.043 148.111 186.041 147.965L210.503 173.253Z" fill="white" stroke="#FFE500" stroke-width="2"/>
<path d="M277.501 116.028L291.365 123.319L291.366 123.319C292.255 123.787 293.301 123.032 293.132 122.034C293.132 122.033 293.132 122.033 293.132 122.033L290.485 106.592L290.484 106.588C290.312 105.554 290.646 104.488 291.41 103.746C291.41 103.746 291.41 103.746 291.411 103.745L302.63 92.8089C303.355 92.1016 302.949 90.8798 301.962 90.7392L301.959 90.7388L286.455 88.4888C285.413 88.338 284.499 87.6818 284.031 86.7309L277.093 72.6782C277.093 72.6781 277.093 72.6781 277.093 72.678C276.643 71.7725 275.353 71.7759 274.908 72.6769L267.969 86.731C267.502 87.6791 266.596 88.3375 265.546 88.4887L277.501 116.028ZM277.501 116.028L277.501 116.028C276.565 115.532 275.44 115.533 274.504 116.026C274.503 116.026 274.503 116.026 274.503 116.027L260.639 123.317C260.638 123.317 260.637 123.317 260.637 123.318C259.74 123.782 258.702 123.022 258.868 122.033C258.868 122.033 258.868 122.033 258.869 122.032L261.515 106.592L261.515 106.592C261.693 105.552 261.352 104.486 260.59 103.746C260.59 103.746 260.59 103.746 260.589 103.745L249.369 92.8084L249.367 92.8063C248.652 92.1137 249.043 90.8848 250.041 90.7388L277.501 116.028ZM250.041 90.7387L265.544 88.4889L250.041 90.7387Z" fill="white" stroke="#FFE500" stroke-width="2"/>
<path d="M449.501 116.028L463.365 123.319L463.366 123.319C464.255 123.787 465.301 123.033 465.132 122.034C465.132 122.034 465.132 122.033 465.132 122.033L462.485 106.592L462.484 106.588C462.312 105.554 462.646 104.488 463.41 103.746C463.41 103.746 463.41 103.746 463.411 103.745L474.63 92.8089C475.355 92.1016 474.949 90.8798 473.962 90.7392L473.959 90.7388L458.455 88.4888C458.455 88.4887 458.455 88.4887 458.454 88.4887C457.413 88.3379 456.499 87.6817 456.031 86.7309L449.093 72.6782C449.093 72.6779 449.092 72.6777 449.092 72.6774C448.642 71.7725 447.353 71.7761 446.908 72.6769L439.969 86.731C439.502 87.6791 438.596 88.3375 437.546 88.4887L449.501 116.028ZM449.501 116.028L449.501 116.028C448.565 115.532 447.44 115.533 446.504 116.026L449.501 116.028ZM422.041 90.7387L437.544 88.4889L422.041 90.7387ZM446.503 116.027L432.639 123.317C432.638 123.317 432.637 123.317 432.637 123.318C431.74 123.782 430.702 123.022 430.868 122.033C430.868 122.033 430.868 122.033 430.869 122.032L433.515 106.592L433.515 106.592C433.693 105.552 433.352 104.485 432.59 103.746C432.59 103.746 432.589 103.746 432.589 103.745L421.369 92.8084L421.367 92.8063C420.652 92.1137 421.043 90.8848 422.041 90.7388L446.503 116.027Z" fill="white" stroke="#FFE500" stroke-width="2"/>
<path d="M510.501 173.028L524.365 180.319L524.366 180.319C525.255 180.787 526.301 180.033 526.132 179.034C526.132 179.034 526.132 179.033 526.132 179.033L523.485 163.592L523.484 163.588C523.312 162.554 523.646 161.488 524.41 160.746C524.41 160.746 524.41 160.746 524.411 160.745L535.63 149.809C536.355 149.102 535.949 147.88 534.962 147.739L534.959 147.739L519.455 145.489C519.455 145.489 519.455 145.489 519.454 145.489C518.413 145.338 517.499 144.682 517.031 143.731L510.093 129.678C510.093 129.678 510.092 129.678 510.092 129.677C509.642 128.772 508.353 128.776 507.908 129.677L500.969 143.731C500.502 144.679 499.596 145.337 498.546 145.489L510.501 173.028ZM510.501 173.028L510.501 173.028C509.565 172.532 508.44 172.533 507.504 173.026L510.501 173.028ZM483.041 147.739L498.544 145.489L483.041 147.739ZM507.503 173.027L493.639 180.317C493.638 180.317 493.637 180.317 493.637 180.318C492.74 180.782 491.702 180.022 491.868 179.033C491.868 179.033 491.868 179.033 491.869 179.032L494.515 163.592L494.515 163.592C494.693 162.552 494.352 161.485 493.59 160.746C493.59 160.746 493.589 160.746 493.589 160.745L482.369 149.808L482.367 149.806C481.652 149.114 482.043 147.885 483.041 147.739L507.503 173.027Z" fill="white" stroke="#FFE500" stroke-width="2"/>
<path d="M282.638 299.432C276.45 295.86 272.638 289.257 272.638 282.112L272.638 202.021C272.638 194.876 276.45 188.273 282.638 184.701L351.999 144.655C358.187 141.083 365.811 141.083 371.999 144.655L441.359 184.701C447.547 188.273 451.359 194.876 451.359 202.021L451.359 282.112C451.359 289.257 447.547 295.86 441.359 299.432L371.999 339.478C365.811 343.05 358.187 343.05 351.999 339.478L282.638 299.432Z" fill="#1A76FF"/>
<path d="M397.214 225.238C395.936 206.264 380.64 191.227 362.005 191.227C347.495 191.227 334.468 200.468 329.172 214.369C315.276 217.153 305 229.925 305 244.744C305 254.541 309.342 263.554 316.903 269.461C318.085 270.383 319.792 270.182 320.715 269C321.637 267.817 321.436 266.11 320.237 265.188C314.008 260.315 310.424 252.866 310.424 244.748C310.424 232.045 319.506 221.171 331.541 219.475C332.559 219.326 333.36 218.648 333.699 217.752C333.752 217.646 333.805 217.518 333.837 217.412C338.057 205.006 349.366 196.672 361.984 196.672C378.446 196.672 391.844 210.653 391.844 227.82C391.844 229.315 393.063 230.534 394.558 230.534C405.035 230.534 413.56 239.452 413.56 250.406C413.56 257.49 409.907 264.101 404.017 267.642C402.729 268.416 402.32 270.086 403.094 271.375C403.609 272.218 404.505 272.689 405.427 272.689C405.904 272.689 406.392 272.568 406.827 272.297C414.334 267.78 419 259.387 419 250.417C419 237.385 409.441 226.844 397.214 225.487V225.238Z" fill="white" stroke="#1A76FF" stroke-width="3"/>
<path d="M352.824 265.668V256.992C352.824 256.034 353.601 255.257 354.559 255.257H368.44C369.399 255.257 370.175 256.034 370.175 256.992V265.668C370.175 266.626 369.399 267.403 368.44 267.403H354.559C353.601 267.403 352.824 266.626 352.824 265.668Z" fill="#F9F8F6"/>
<path d="M378.85 237.905H344.148C342.231 237.905 340.678 239.459 340.678 241.376V250.66C340.678 263.767 349.065 275.403 361.499 279.548C373.933 275.403 382.321 263.767 382.321 250.66V241.376C382.321 239.459 380.767 237.905 378.85 237.905Z" stroke="white" stroke-width="3" stroke-linecap="round" stroke-linejoin="round"/>
<path d="M352.824 265.668V256.992C352.824 256.034 353.601 255.257 354.559 255.257H368.44C369.399 255.257 370.175 256.034 370.175 256.992V265.668C370.175 266.626 369.399 267.403 368.44 267.403H354.559C353.601 267.403 352.824 266.626 352.824 265.668Z" stroke="white" stroke-width="3" stroke-linecap="round" stroke-linejoin="round"/>
<path d="M355.426 255.256V250.919C355.426 247.565 358.145 244.846 361.499 244.846C364.853 244.846 367.572 247.565 367.572 250.919V255.256" stroke="white" stroke-width="3" stroke-linecap="round" stroke-linejoin="round"/>
</svg>
