<svg width="723" height="465" viewBox="0 0 723 465" fill="none" xmlns="http://www.w3.org/2000/svg">
<path d="M245.86 258.17C239.673 254.597 235.862 247.995 235.862 240.85L235.862 124.622C235.862 117.476 239.674 110.873 245.862 107.3L346.499 49.1877C352.687 45.6145 360.311 45.6144 366.498 49.1873L467.137 107.301C473.324 110.874 477.136 117.476 477.136 124.621L477.136 240.848C477.136 247.994 473.324 254.598 467.136 258.171L366.499 316.283C360.311 319.856 352.687 319.856 346.499 316.283L245.86 258.17Z" fill="#1A76FF"/>
<path d="M331.75 226.934V217.934C331.75 216.74 332.262 215.596 333.173 214.752C334.085 213.908 335.321 213.434 336.61 213.434H375.49C376.779 213.434 378.015 213.908 378.927 214.752C379.838 215.596 380.35 216.74 380.35 217.934V226.934" stroke="#FF6849" stroke-width="1.5" stroke-linecap="round" stroke-linejoin="round"/>
<path d="M325 234.135V225.135C325 223.892 326.007 222.885 327.25 222.885H336.25C337.493 222.885 338.5 223.892 338.5 225.135V234.135C338.5 235.377 337.493 236.385 336.25 236.385H327.25C326.007 236.385 325 235.377 325 234.135Z" fill="#FFE9E4"/>
<path d="M325 234.135V225.135C325 223.892 326.007 222.885 327.25 222.885H336.25C337.493 222.885 338.5 223.892 338.5 225.135V234.135C338.5 235.377 337.493 236.385 336.25 236.385H327.25C326.007 236.385 325 235.377 325 234.135Z" stroke="#FF6849" stroke-width="1.5" stroke-linecap="round" stroke-linejoin="round"/>
<path d="M373.6 234.135V225.135C373.6 223.892 374.607 222.885 375.85 222.885H384.85C386.092 222.885 387.1 223.892 387.1 225.135V234.135C387.1 235.377 386.092 236.385 384.85 236.385H375.85C374.607 236.385 373.6 235.377 373.6 234.135Z" fill="#FFE9E4"/>
<path d="M373.6 234.135V225.135C373.6 223.892 374.607 222.885 375.85 222.885H384.85C386.092 222.885 387.1 223.892 387.1 225.135V234.135C387.1 235.377 386.092 236.385 384.85 236.385H375.85C374.607 236.385 373.6 235.377 373.6 234.135Z" stroke="#FF6849" stroke-width="1.5" stroke-linecap="round" stroke-linejoin="round"/>
<path d="M356.051 197.234V213.434" stroke="#FF6849" stroke-width="1.5" stroke-linecap="round" stroke-linejoin="round"/>
<path d="M349.301 217.934V208.934C349.301 207.691 350.308 206.684 351.551 206.684H360.551C361.793 206.684 362.801 207.691 362.801 208.934V217.934C362.801 219.176 361.793 220.184 360.551 220.184H351.551C350.308 220.184 349.301 219.176 349.301 217.934Z" fill="#FFE9E4"/>
<path d="M349.301 217.934V208.934C349.301 207.691 350.308 206.684 351.551 206.684H360.551C361.793 206.684 362.801 207.691 362.801 208.934V217.934C362.801 219.176 361.793 220.184 360.551 220.184H351.551C350.308 220.184 349.301 219.176 349.301 217.934Z" stroke="#FF6849" stroke-width="1.5" stroke-linecap="round" stroke-linejoin="round"/>
<path d="M390.02 156.996C389.673 156.892 389.363 156.691 389.126 156.417C388.888 156.143 388.736 155.807 388.683 155.448C388.062 148.637 385.125 142.246 380.36 137.339C375.597 132.431 369.295 129.306 362.506 128.483C355.716 127.66 348.85 129.189 343.052 132.816C337.254 136.443 332.874 141.948 330.643 148.413C330.496 148.714 330.265 148.967 329.978 149.142C329.691 149.316 329.361 149.405 329.025 149.398C325.792 149.615 322.633 150.467 319.728 151.905C316.824 153.343 314.231 155.339 312.098 157.779C307.791 162.707 305.617 169.144 306.055 175.674C306.494 182.205 309.509 188.293 314.436 192.601C319.364 196.909 325.801 199.082 332.332 198.644H385.307C390.471 198.613 395.446 196.689 399.287 193.237C403.128 189.785 405.571 185.044 406.151 179.912C406.732 174.78 405.412 169.614 402.439 165.39C399.466 161.167 395.048 158.18 390.02 156.996Z" fill="#FFE9E4"/>
<path d="M390.02 156.996C389.673 156.892 389.363 156.692 389.126 156.417C388.888 156.143 388.736 155.807 388.683 155.448C388.062 148.637 385.125 142.246 380.36 137.339C375.597 132.431 369.295 129.306 362.506 128.483C355.716 127.66 348.85 129.189 343.052 132.816C337.254 136.443 332.874 141.948 330.643 148.413C330.496 148.714 330.265 148.967 329.978 149.142C329.691 149.316 329.361 149.405 329.025 149.398C325.792 149.615 322.633 150.467 319.728 151.905C316.824 153.343 314.231 155.339 312.098 157.779C307.791 162.707 305.617 169.144 306.055 175.674C306.494 182.205 309.509 188.293 314.436 192.601C319.364 196.909 325.801 199.082 332.332 198.644H385.307C390.471 198.613 395.446 196.689 399.287 193.237C403.128 189.785 405.571 185.044 406.151 179.912C406.732 174.78 405.412 169.614 402.439 165.39C399.466 161.167 395.048 158.18 390.02 156.996Z" stroke="#FF6849" stroke-width="1.5" stroke-linecap="round" stroke-linejoin="round"/>
<path d="M103.006 381.274C96.972 377.791 93.2552 371.353 93.2552 364.387L93.2552 265.955C93.2552 258.988 96.9719 252.551 103.005 249.068L188.252 199.852C194.285 196.369 201.719 196.369 207.752 199.852L292.999 249.068C299.032 252.551 302.749 258.989 302.749 265.955L302.749 364.387C302.749 371.353 299.032 377.791 292.999 381.274L207.752 430.49C201.719 433.973 194.285 433.973 188.252 430.49L103.006 381.274Z" fill="white" stroke="#F8F8F8"/>
<path d="M198.215 363.599C209.095 363.599 217.915 354.779 217.915 343.899C217.915 333.019 209.095 324.199 198.215 324.199C187.335 324.199 178.516 333.019 178.516 343.899C178.516 354.779 187.335 363.599 198.215 363.599Z" fill="#FF6849" fill-opacity="0.25"/>
<path d="M178.516 343.899C178.516 333.019 187.335 324.199 198.215 324.199C199.246 324.199 200.258 324.278 201.246 324.431V331.018C201.246 332.425 200.687 333.774 199.693 334.768C198.698 335.763 197.349 336.322 195.942 336.322C194.536 336.322 193.187 336.881 192.192 337.875C191.197 338.87 190.638 340.219 190.638 341.626V346.172C190.638 347.578 190.08 348.927 189.085 349.922C188.09 350.917 186.741 351.475 185.335 351.475H180.025C179.053 349.143 178.516 346.584 178.516 343.899Z" fill="white"/>
<path d="M217.915 343.595C216.398 342.808 214.715 342.392 213.005 342.383H206.55C205.143 342.383 203.794 342.942 202.8 343.936C201.805 344.931 201.246 346.28 201.246 347.687C201.246 349.093 201.805 350.442 202.8 351.437C203.794 352.432 205.143 352.99 206.55 352.99C207.555 352.99 208.518 353.389 209.229 354.1C209.939 354.81 210.338 355.774 210.338 356.779V359.427C214.95 355.822 217.915 350.206 217.915 343.898V343.595Z" fill="white"/>
<path d="M198.215 363.599C209.095 363.599 217.915 354.779 217.915 343.899C217.915 333.019 209.095 324.199 198.215 324.199C187.335 324.199 178.516 333.019 178.516 343.899C178.516 354.779 187.335 363.599 198.215 363.599Z" stroke="#FF6849" stroke-width="1.5" stroke-linecap="round" stroke-linejoin="round"/>
<path d="M180.031 351.476H185.335C186.742 351.476 188.091 350.918 189.085 349.923C190.08 348.928 190.639 347.579 190.639 346.173V341.627C190.639 340.22 191.198 338.871 192.192 337.876C193.187 336.882 194.536 336.323 195.942 336.323C197.349 336.323 198.698 335.764 199.693 334.769C200.687 333.775 201.246 332.426 201.246 331.019V324.412" stroke="#FF6849" stroke-width="1.5" stroke-linecap="round" stroke-linejoin="round"/>
<path d="M217.915 343.595C216.398 342.808 214.715 342.392 213.005 342.383H206.55C205.143 342.383 203.794 342.942 202.8 343.936C201.805 344.931 201.246 346.28 201.246 347.687C201.246 349.093 201.805 350.442 202.8 351.437C203.794 352.432 205.143 352.99 206.55 352.99C207.555 352.99 208.518 353.389 209.229 354.1C209.939 354.81 210.338 355.774 210.338 356.779V359.415" stroke="#FF6849" stroke-width="1.5" stroke-linecap="round" stroke-linejoin="round"/>
<path fill-rule="evenodd" clip-rule="evenodd" d="M230.983 292.693C231.22 292.967 231.53 293.168 231.878 293.271C236.905 294.456 241.323 297.442 244.296 301.666C247.269 305.889 248.59 311.056 248.009 316.188C247.428 321.32 244.986 326.061 241.144 329.513C238.392 331.986 235.059 333.674 231.491 334.445C227.47 319.721 213.999 308.898 198 308.898C182.271 308.898 168.985 319.36 164.72 333.705C161.649 332.679 158.779 331.049 156.294 328.877C151.366 324.569 148.351 318.48 147.913 311.95C147.474 305.419 149.648 298.982 153.956 294.054C156.089 291.614 158.681 289.618 161.586 288.18C164.49 286.742 167.649 285.89 170.883 285.673C171.218 285.681 171.549 285.592 171.836 285.417C172.122 285.243 172.353 284.99 172.501 284.688C174.731 278.223 179.111 272.718 184.909 269.092C190.707 265.465 197.574 263.935 204.363 264.758C211.152 265.581 217.454 268.707 222.218 273.614C226.982 278.521 229.92 284.913 230.541 291.724C230.593 292.082 230.746 292.418 230.983 292.693Z" fill="#FF6849" fill-opacity="0.25"/>
<path d="M161.258 332.247C159.487 331.337 157.818 330.209 156.294 328.877C151.366 324.569 148.351 318.48 147.913 311.95C147.474 305.419 149.648 298.982 153.956 294.054C156.089 291.614 158.681 289.618 161.586 288.18C164.49 286.742 167.649 285.89 170.883 285.673C171.218 285.681 171.549 285.592 171.836 285.417C172.122 285.243 172.353 284.99 172.501 284.688C174.731 278.223 179.111 272.718 184.909 269.092C190.707 265.465 197.574 263.935 204.363 264.758C211.152 265.581 217.454 268.707 222.218 273.614C226.982 278.521 229.92 284.913 230.541 291.724C230.593 292.082 230.746 292.418 230.983 292.693C231.22 292.967 231.53 293.168 231.878 293.271C236.905 294.456 241.323 297.442 244.296 301.666C247.269 305.889 248.59 311.056 248.009 316.188C247.428 321.32 244.986 326.061 241.144 329.513C239.302 331.169 237.198 332.473 234.938 333.385" stroke="#FF6849" stroke-width="1.5" stroke-linecap="round" stroke-linejoin="round"/>
<path d="M429.918 381.072C423.884 377.588 420.168 371.151 420.168 364.184L420.168 265.699C420.168 258.732 423.884 252.295 429.918 248.812L515.208 199.569C521.241 196.086 528.675 196.086 534.708 199.569L619.998 248.812C626.032 252.295 629.748 258.732 629.748 265.699L629.748 364.184C629.748 371.151 626.032 377.588 619.998 381.072L534.708 430.314C528.675 433.797 521.241 433.797 515.208 430.314L429.918 381.072Z" fill="white" stroke="#F8F8F8"/>
<path fill-rule="evenodd" clip-rule="evenodd" d="M557.983 292.693C558.22 292.967 558.53 293.168 558.878 293.271C563.905 294.456 568.323 297.442 571.296 301.666C574.269 305.889 575.59 311.056 575.009 316.188C574.428 321.32 571.986 326.061 568.144 329.513C564.852 332.471 560.727 334.307 556.364 334.791C555.358 332.469 553.859 330.411 552 328.748V328.184C552 313.272 539.912 301.184 525 301.184C510.089 301.184 498 313.272 498 328.184V328.748C496.27 330.296 494.852 332.185 493.853 334.312C489.978 333.395 486.347 331.545 483.294 328.877C478.366 324.569 475.351 318.48 474.913 311.95C474.474 305.419 476.648 298.982 480.956 294.054C483.089 291.614 485.681 289.618 488.586 288.18C491.49 286.742 494.649 285.89 497.883 285.673C498.218 285.681 498.549 285.592 498.836 285.417C499.122 285.243 499.353 284.99 499.501 284.688C501.731 278.223 506.111 272.718 511.909 269.092C517.707 265.465 524.574 263.935 531.363 264.758C538.152 265.581 544.454 268.707 549.218 273.614C553.982 278.521 556.92 284.913 557.541 291.724C557.593 292.082 557.746 292.418 557.983 292.693Z" fill="#FF6849" fill-opacity="0.25"/>
<path d="M491.452 333.613C488.482 332.584 485.707 330.986 483.294 328.877C478.366 324.569 475.351 318.48 474.913 311.95C474.474 305.419 476.648 298.982 480.956 294.054C483.089 291.614 485.681 289.618 488.586 288.18C491.49 286.742 494.649 285.89 497.883 285.673C498.218 285.681 498.549 285.592 498.836 285.417C499.122 285.243 499.353 284.99 499.501 284.688C501.731 278.223 506.111 272.718 511.909 269.092C517.707 265.465 524.574 263.935 531.363 264.758C538.152 265.581 544.454 268.707 549.218 273.614C553.982 278.521 556.92 284.913 557.541 291.724C557.593 292.082 557.746 292.418 557.983 292.693C558.22 292.967 558.53 293.168 558.878 293.271C563.905 294.456 568.323 297.442 571.296 301.666C574.269 305.889 575.59 311.056 575.009 316.188C574.428 321.32 571.986 326.061 568.144 329.513C565.783 331.634 562.995 333.179 559.997 334.061" stroke="#FF6849" stroke-width="1.5" stroke-linecap="round" stroke-linejoin="round"/>
<path d="M505.715 360.969V341.683C505.715 339.553 507.442 337.826 509.572 337.826H540.429C542.559 337.826 544.286 339.553 544.286 341.683V360.969C544.286 363.099 542.559 364.826 540.429 364.826H509.572C507.442 364.826 505.715 363.099 505.715 360.969Z" fill="white"/>
<path d="M505.715 360.969V341.683C505.715 339.553 507.442 337.826 509.572 337.826H540.429C542.559 337.826 544.286 339.553 544.286 341.683V360.969C544.286 363.099 542.559 364.826 540.429 364.826H509.572C507.442 364.826 505.715 363.099 505.715 360.969Z" stroke="#FF6849" stroke-width="1.5" stroke-linecap="round" stroke-linejoin="round"/>
<path d="M511.5 337.826V328.184C511.5 320.728 517.544 314.684 525 314.684C532.456 314.684 538.5 320.728 538.5 328.184V337.826" stroke="#FF6849" stroke-width="1.5" stroke-linecap="round" stroke-linejoin="round"/>
<path d="M417.57 338.279L402.743 329.325L402.402 346.642L417.57 338.279ZM304.084 336.043L318.91 344.997L319.251 327.68L304.084 336.043ZM407.091 336.572L402.888 336.489L402.829 339.489L407.032 339.572L407.091 336.572ZM394.482 336.324L390.279 336.241L390.22 339.24L394.423 339.323L394.482 336.324ZM381.872 336.075L377.669 335.993L377.61 338.992L381.813 339.075L381.872 336.075ZM369.263 335.827L365.06 335.744L365.001 338.744L369.204 338.826L369.263 335.827ZM356.653 335.579L352.45 335.496L352.391 338.495L356.594 338.578L356.653 335.579ZM344.044 335.33L339.84 335.247L339.781 338.247L343.985 338.33L344.044 335.33ZM331.434 335.082L327.231 334.999L327.172 337.998L331.375 338.081L331.434 335.082ZM318.824 334.833L314.621 334.751L314.562 337.75L318.765 337.833L318.824 334.833ZM417.57 338.279L402.743 329.325L402.402 346.642L417.57 338.279ZM304.084 336.043L318.91 344.997L319.251 327.68L304.084 336.043ZM407.091 336.572L402.888 336.489L402.829 339.489L407.032 339.572L407.091 336.572ZM394.482 336.324L390.279 336.241L390.22 339.24L394.423 339.323L394.482 336.324ZM381.872 336.075L377.669 335.993L377.61 338.992L381.813 339.075L381.872 336.075ZM369.263 335.827L365.06 335.744L365.001 338.744L369.204 338.826L369.263 335.827ZM356.653 335.579L352.45 335.496L352.391 338.495L356.594 338.578L356.653 335.579ZM344.044 335.33L339.84 335.247L339.781 338.247L343.985 338.33L344.044 335.33ZM331.434 335.082L327.231 334.999L327.172 337.998L331.375 338.081L331.434 335.082ZM318.824 334.833L314.621 334.751L314.562 337.75L318.765 337.833L318.824 334.833Z" fill="#FF6849" fill-opacity="0.25"/>
</svg>
