<svg width="1920" height="915" viewBox="0 0 1920 915" fill="none" xmlns="http://www.w3.org/2000/svg">
<g clip-path="url(#clip0_597_472)">
<mask id="mask0_597_472" style="mask-type:luminance" maskUnits="userSpaceOnUse" x="0" y="0" width="1920" height="915">
<path d="M0 0H1920V915H0V0Z" fill="white"/>
</mask>
<g mask="url(#mask0_597_472)">
<path d="M1.57689 -161.835C160.954 -253.053 364.101 -197.8 455.32 -38.4229L620.485 250.154L43.3305 580.485L-121.834 291.908C-213.053 132.531 -157.799 -70.6164 1.57689 -161.835Z" fill="url(#paint0_linear_597_472)"/>
<path d="M-342.09 339.378C-225.101 197.832 -15.5165 177.924 126.029 294.913L382.321 506.74L-41.3332 1019.32L-297.625 807.497C-439.171 690.508 -459.079 480.924 -342.09 339.378Z" fill="url(#paint1_linear_597_472)"/>
<path d="M1623.06 -205.854C1753.99 -334.617 1964.51 -332.863 2093.27 -201.936L2326.42 35.1285L1852.29 501.419L1619.15 264.355C1490.38 133.428 1492.14 -77.0917 1623.06 -205.854Z" fill="url(#paint2_linear_597_472)"/>
</g>
</g>
<defs>
<linearGradient id="paint0_linear_597_472" x1="13.668" y1="-173.632" x2="347.97" y2="411.13" gradientUnits="userSpaceOnUse">
<stop stop-color="#EFEEEB"/>
<stop offset="1" stop-color="#F9F8F6"/>
</linearGradient>
<linearGradient id="paint1_linear_597_472" x1="-334.934" y1="324.075" x2="184.049" y2="753.449" gradientUnits="userSpaceOnUse">
<stop stop-color="#EFEEEB"/>
<stop offset="1" stop-color="#F9F8F6"/>
</linearGradient>
<linearGradient id="paint2_linear_597_472" x1="1631.76" y1="-220.34" x2="2103.82" y2="260.136" gradientUnits="userSpaceOnUse">
<stop stop-color="#EFEEEB"/>
<stop offset="1" stop-color="#F9F8F6"/>
</linearGradient>
<clipPath id="clip0_597_472">
<rect width="1920" height="915" fill="white"/>
</clipPath>
</defs>
</svg>
