<svg width="723" height="465" viewBox="0 0 723 465" fill="none" xmlns="http://www.w3.org/2000/svg">
<path d="M196.084 110.338C200.725 113.018 203.584 117.97 203.584 123.329L203.584 166.008C203.584 171.367 200.725 176.319 196.084 178.999L159.122 200.338C154.481 203.018 148.763 203.018 144.122 200.338L107.161 178.999C102.52 176.319 99.6609 171.367 99.6609 166.008L99.6609 123.329C99.6609 117.97 102.52 113.018 107.161 110.338L144.122 88.9987C148.763 86.3192 154.481 86.3192 159.122 88.9987L196.084 110.338Z" fill="#F8F7F3"/>
<path d="M127.002 142.338L176.998 124.882" stroke="#FF6849" stroke-linecap="round" stroke-linejoin="round"/>
<path d="M167.101 119.999L176.998 124.848L172.193 134.798" stroke="#FF6849" stroke-linecap="round" stroke-linejoin="round"/>
<path d="M160.333 169.995V143.074H176.998V169.995" fill="#FFE9E4"/>
<path d="M143.667 169.991V149.8H160.332V169.991" fill="white"/>
<path d="M127.002 170.001V155.579H143.667V170.001" fill="#FFE9E4"/>
<path d="M160.333 169.995V143.074H176.998V169.995" stroke="#FF6849" stroke-linecap="round" stroke-linejoin="round"/>
<path d="M143.667 169.991V149.8H160.332V169.991" stroke="#FF6849" stroke-linecap="round" stroke-linejoin="round"/>
<path d="M127.002 170.001V155.579H143.667V170.001" stroke="#FF6849" stroke-linecap="round" stroke-linejoin="round"/>
<path d="M196.084 286.338C200.725 289.018 203.584 293.97 203.584 299.329L203.584 342.008C203.584 347.367 200.725 352.319 196.084 354.999L159.122 376.338C154.481 379.018 148.763 379.018 144.122 376.338L107.161 354.999C102.52 352.319 99.6609 347.367 99.6609 342.008L99.6609 299.329C99.6609 293.97 102.52 289.018 107.161 286.338L144.122 264.999C148.763 262.319 154.481 262.319 159.122 264.999L196.084 286.338Z" fill="#F8F7F3"/>
<path d="M152 295.1V301.077" stroke="#FF6849" stroke-linecap="round" stroke-linejoin="round"/>
<path d="M152 340.923V346.9" stroke="#FF6849" stroke-linecap="round" stroke-linejoin="round"/>
<path d="M177.9 321H171.923" stroke="#FF6849" stroke-linecap="round" stroke-linejoin="round"/>
<path d="M132.077 321H126.1" stroke="#FF6849" stroke-linecap="round" stroke-linejoin="round"/>
<path d="M133.688 302.68L137.914 306.906" stroke="#FF6849" stroke-linecap="round" stroke-linejoin="round"/>
<path d="M166.086 335.087L170.313 339.314" stroke="#FF6849" stroke-linecap="round" stroke-linejoin="round"/>
<path d="M170.313 302.68L166.086 306.906" stroke="#FF6849" stroke-linecap="round" stroke-linejoin="round"/>
<path d="M137.914 335.087L133.688 339.314" stroke="#FF6849" stroke-linecap="round" stroke-linejoin="round"/>
<path d="M132.077 321C132.077 326.284 134.176 331.352 137.913 335.088C141.649 338.825 146.717 340.924 152 340.924C157.284 340.924 162.352 338.825 166.088 335.088C169.825 331.352 171.924 326.284 171.924 321C171.924 315.717 169.825 310.649 166.088 306.913C162.352 303.176 157.284 301.077 152 301.077C146.717 301.077 141.649 303.176 137.913 306.913C134.176 310.649 132.077 315.717 132.077 321Z" fill="#FFE9E4"/>
<path d="M132.077 321C132.077 326.284 134.176 331.352 137.913 335.088C141.649 338.825 146.717 340.924 152.001 340.924C157.284 340.924 162.352 338.825 166.088 335.088C169.825 331.352 171.924 326.284 171.924 321C171.924 315.717 169.825 310.649 166.088 306.913C162.352 303.176 157.284 301.077 152.001 301.077C146.717 301.077 141.649 303.176 137.913 306.913C134.176 310.649 132.077 315.717 132.077 321Z" stroke="#FF6849" stroke-linecap="round" stroke-linejoin="round"/>
<path d="M152 321H171.923" stroke="#FF6849" stroke-linecap="round" stroke-linejoin="round"/>
<path d="M142.039 303.74L152 320.994" stroke="#FF6849" stroke-linecap="round" stroke-linejoin="round"/>
<path d="M142.039 338.254L152 321" stroke="#FF6849" stroke-linecap="round" stroke-linejoin="round"/>
<path d="M615.084 286.338C619.725 289.018 622.584 293.97 622.584 299.329L622.584 342.008C622.584 347.367 619.725 352.319 615.084 354.999L578.122 376.338C573.481 379.018 567.763 379.018 563.122 376.338L526.161 354.999C521.52 352.319 518.661 347.367 518.661 342.008L518.661 299.329C518.661 293.97 521.52 289.018 526.161 286.338L563.122 264.999C567.763 262.319 573.481 262.319 578.122 264.999L615.084 286.338Z" fill="#F8F7F3"/>
<path d="M569.215 340.639C581.05 340.639 590.643 331.045 590.643 319.211C590.643 307.376 581.05 297.782 569.215 297.782C557.38 297.782 547.786 307.376 547.786 319.211C547.786 331.045 557.38 340.639 569.215 340.639Z" fill="#FFE9E4"/>
<path d="M557.776 327.022L564.5 317.726L574.325 321.88L580.654 311.397" stroke="#FF6849" stroke-linecap="round" stroke-linejoin="round"/>
<path d="M569.215 340.639C581.05 340.639 590.643 331.045 590.643 319.211C590.643 307.376 581.05 297.782 569.215 297.782C557.38 297.782 547.786 307.376 547.786 319.211C547.786 331.045 557.38 340.639 569.215 340.639Z" stroke="#FF6849" stroke-linecap="round" stroke-linejoin="round"/>
<path d="M584.359 334.354L594.216 344.212" stroke="#FF6849" stroke-linecap="round" stroke-linejoin="round"/>
<path d="M616.084 110.338C620.725 113.018 623.584 117.97 623.584 123.329L623.584 166.008C623.584 171.367 620.725 176.319 616.084 178.999L579.122 200.338C574.481 203.018 568.763 203.018 564.122 200.338L527.161 178.999C522.52 176.319 519.661 171.367 519.661 166.008L519.661 123.329C519.661 117.97 522.52 113.018 527.161 110.338L564.122 88.9987C568.763 86.3192 574.481 86.3192 579.122 88.9987L616.084 110.338Z" fill="#F8F7F3"/>
<path d="M592 121H552C549.791 121 548 122.791 548 125V136C548 138.209 549.791 140 552 140H592C594.209 140 596 138.209 596 136V125C596 122.791 594.209 121 592 121Z" fill="#FFE9E4"/>
<path d="M592 140H552C549.791 140 548 141.791 548 144V155C548 157.209 549.791 159 552 159H592C594.209 159 596 157.209 596 155V144C596 141.791 594.209 140 592 140Z" fill="#FFE9E4"/>
<path d="M592 121H552C549.791 121 548 122.791 548 125V136C548 138.209 549.791 140 552 140H592C594.209 140 596 138.209 596 136V125C596 122.791 594.209 121 592 121Z" stroke="#FF6849" stroke-linecap="round" stroke-linejoin="round"/>
<path d="M552 140C550.939 140 549.922 140.421 549.172 141.172C548.421 141.922 548 142.939 548 144V155C548 156.061 548.421 157.078 549.172 157.828C549.922 158.578 550.939 159 552 159H592C593.061 159 594.078 158.578 594.828 157.828C595.578 157.078 596 156.061 596 155V144C596 142.939 595.578 141.922 594.828 141.172C594.078 140.421 593.061 140 592 140" stroke="#FF6849" stroke-linecap="round" stroke-linejoin="round"/>
<path d="M557 150.5C556.448 150.5 556 150.052 556 149.5C556 148.948 556.448 148.5 557 148.5" stroke="#FF6849" stroke-linecap="round" stroke-linejoin="round"/>
<path d="M557 150.5C557.552 150.5 558 150.052 558 149.5C558 148.948 557.552 148.5 557 148.5" stroke="#FF6849" stroke-linecap="round" stroke-linejoin="round"/>
<path d="M557 131.5C556.448 131.5 556 131.052 556 130.5C556 129.948 556.448 129.5 557 129.5" stroke="#FF6849" stroke-linecap="round" stroke-linejoin="round"/>
<path d="M557 131.5C557.552 131.5 558 131.052 558 130.5C558 129.948 557.552 129.5 557 129.5" stroke="#FF6849" stroke-linecap="round" stroke-linejoin="round"/>
<path d="M572 159V169" stroke="#FF6849" stroke-linecap="round" stroke-linejoin="round"/>
<path d="M552 169H592" stroke="#FF6849" stroke-linecap="round" stroke-linejoin="round"/>
<path d="M574 130.5H588" stroke="#FF6849" stroke-linecap="round" stroke-linejoin="round"/>
<path d="M574 149.5H588" stroke="#FF6849" stroke-linecap="round" stroke-linejoin="round"/>
<path d="M293.558 297.601C287.37 294.028 283.558 287.426 283.558 280.28L283.558 213.374C283.558 206.229 287.37 199.626 293.558 196.054L351.5 162.601C357.688 159.028 365.312 159.028 371.5 162.601L429.443 196.054C435.631 199.626 439.443 206.229 439.443 213.374L439.443 280.28C439.443 287.426 435.631 294.028 429.443 297.601L371.5 331.054C365.312 334.626 357.688 334.626 351.5 331.054L293.558 297.601Z" fill="#303540"/>
<path d="M280.808 301.93L282.584 302.956L283.334 301.657L290.439 305.759L289.689 307.058L293.241 309.109L293.991 307.81L301.096 311.912L300.346 313.211L303.899 315.262L304.649 313.963L311.754 318.065L311.004 319.364L314.556 321.415L315.306 320.116L322.411 324.218L321.661 325.517L325.214 327.568L325.964 326.269L333.069 330.371L332.319 331.67L335.871 333.721L336.621 332.422L343.726 336.524L342.976 337.823L346.529 339.874L347.279 338.575L354.384 342.677L353.634 343.976L355.41 345.002C356.097 345.399 356.811 345.73 357.543 345.997L358.056 344.587C360.705 345.552 363.615 345.552 366.264 344.587L366.778 345.997C367.509 345.73 368.223 345.399 368.91 345.002L370.686 343.976L369.936 342.677L377.041 338.575L377.791 339.874L381.344 337.823L380.594 336.524L387.699 332.422L388.449 333.721L392.001 331.67L391.251 330.371L398.356 326.269L399.106 327.568L402.659 325.517L401.909 324.218L409.014 320.116L409.764 321.415L413.316 319.364L412.566 318.065L419.671 313.963L420.421 315.262L423.974 313.211L423.224 311.912L430.329 307.81L431.079 309.109L434.631 307.058L433.881 305.759L440.986 301.657L441.736 302.956L443.513 301.93C444.2 301.533 444.844 301.081 445.44 300.581L444.476 299.431C446.636 297.619 448.091 295.1 448.581 292.323L450.058 292.583C450.193 291.816 450.263 291.032 450.263 290.239L450.263 288.188L448.763 288.188L448.763 279.984L450.263 279.984L450.263 275.882L448.763 275.882L448.763 267.677L450.263 267.677L450.263 263.575L448.763 263.575L448.763 255.371L450.263 255.371L450.263 251.269L448.763 251.269L448.763 243.065L450.263 243.065L450.263 238.963L448.763 238.963L448.763 230.759L450.263 230.759L450.263 226.657L448.763 226.657L448.763 218.452L450.263 218.452L450.263 214.35L448.763 214.35L448.763 206.146L450.263 206.146L450.263 204.095C450.263 203.302 450.193 202.518 450.058 201.751L448.581 202.011C448.091 199.234 446.636 196.715 444.476 194.903L445.441 193.753C444.844 193.253 444.2 192.801 443.513 192.404L441.736 191.378L440.986 192.677L433.881 188.575L434.631 187.276L431.079 185.225L430.329 186.524L423.224 182.422L423.974 181.123L420.421 179.072L419.671 180.371L412.566 176.269L413.316 174.97L409.764 172.919L409.014 174.218L401.909 170.116L402.659 168.817L399.106 166.766L398.356 168.065L391.251 163.963L392.001 162.664L388.449 160.613L387.699 161.912L380.594 157.81L381.344 156.511L377.791 154.46L377.041 155.759L369.936 151.657L370.686 150.358L368.91 149.332C368.223 148.935 367.509 148.604 366.778 148.337L366.264 149.747C363.615 148.782 360.705 148.782 358.056 149.747L357.543 148.337C356.811 148.604 356.097 148.935 355.41 149.332L353.634 150.358L354.384 151.657L347.279 155.759L346.529 154.46L342.976 156.511L343.726 157.81L336.621 161.912L335.871 160.613L332.319 162.664L333.069 163.963L325.964 168.065L325.214 166.766L321.661 168.817L322.411 170.116L315.306 174.218L314.556 172.919L311.004 174.97L311.754 176.269L304.649 180.371L303.899 179.072L300.346 181.123L301.096 182.422L293.991 186.524L293.241 185.225L289.689 187.276L290.439 188.575L283.334 192.677L282.584 191.378L280.808 192.404C280.12 192.801 279.476 193.253 278.88 193.753L279.844 194.903C277.684 196.715 276.229 199.234 275.74 202.011L274.262 201.751C274.127 202.518 274.058 203.302 274.058 204.095L274.058 206.146L275.558 206.146L275.558 214.35L274.058 214.35L274.058 218.452L275.558 218.452L275.558 226.657L274.058 226.657L274.058 230.759L275.558 230.759L275.558 238.963L274.058 238.963L274.058 243.065L275.558 243.065L275.558 251.269L274.058 251.269L274.058 255.371L275.558 255.371L275.558 263.575L274.058 263.575L274.058 267.677L275.558 267.677L275.558 275.882L274.058 275.882L274.058 279.984L275.558 279.984L275.558 288.188L274.058 288.188L274.058 290.239C274.058 291.032 274.127 291.816 274.262 292.583L275.74 292.323C276.229 295.099 277.684 297.619 279.844 299.431L278.88 300.581C279.476 301.081 280.12 301.533 280.808 301.93Z" stroke="#FF6849" stroke-opacity="0.25" stroke-width="3" stroke-dasharray="4 8"/>
<path fill-rule="evenodd" clip-rule="evenodd" d="M326.286 226.164V277.217C326.286 280.251 328.746 282.711 331.78 282.711H392.219C395.254 282.711 397.714 280.251 397.714 277.217V226.164H326.286Z" fill="white"/>
<path fill-rule="evenodd" clip-rule="evenodd" d="M397.714 226.276H326.286V216.78C326.286 213.746 328.746 211.286 331.78 211.286H392.219C395.254 211.286 397.714 213.746 397.714 216.78V226.276Z" fill="#FFE9E4"/>
<path d="M392.219 211.286H331.78C328.746 211.286 326.286 213.746 326.286 216.78V277.219C326.286 280.254 328.746 282.714 331.78 282.714H392.219C395.254 282.714 397.714 280.254 397.714 277.219V216.78C397.714 213.746 395.254 211.286 392.219 211.286Z" stroke="#FF6849" stroke-linecap="round" stroke-linejoin="round"/>
<path d="M326.286 226.164H397.714" stroke="#FF6849" stroke-linecap="round" stroke-linejoin="round"/>
<path d="M362.001 266.158L380.23 247.928" stroke="#FF6849" stroke-linecap="round" stroke-linejoin="round"/>
<path d="M380.229 266.163H385.438" stroke="#FF6849" stroke-linecap="round" stroke-linejoin="round"/>
<path d="M362.001 247.934V242.725" stroke="#FF6849" stroke-linecap="round" stroke-linejoin="round"/>
<path d="M349.136 253.3L345.438 249.602" stroke="#FF6849" stroke-linecap="round" stroke-linejoin="round"/>
<path d="M343.771 266.163H338.563" stroke="#FF6849" stroke-linecap="round" stroke-linejoin="round"/>
<path d="M466.085 172.545L467.393 173.278L466.085 172.545ZM531.338 166.576L522.334 175.093L513.662 166.655L522.666 158.139L531.338 166.576ZM491.106 166.756L491.077 168.224L491.068 168.224L491.059 168.224L491.106 166.756ZM476.923 166.663L476.876 168.131L476.876 168.131L476.923 166.663ZM449.692 195.948L450.949 193.937L453.565 195.403L452.308 197.414L449.692 195.948ZM455.977 185.891L458.491 181.869L461.108 183.335L458.594 187.357L455.977 185.891ZM463.519 173.823L464.776 171.812L467.393 173.278L466.136 175.289L463.519 173.823ZM464.776 171.812C465.2 171.134 465.68 170.499 466.209 169.911L468.508 171.799C468.097 172.256 467.723 172.75 467.393 173.278L464.776 171.812ZM474.553 165.382C475.345 165.253 476.153 165.189 476.969 165.194L476.876 168.131C476.241 168.127 475.613 168.176 474.997 168.277L474.553 165.382ZM476.969 165.194L479.333 165.21L479.24 168.146L476.876 168.131L476.969 165.194ZM488.788 165.272L491.152 165.288L491.059 168.224L488.696 168.209L488.788 165.272ZM491.134 165.288L492.879 165.28L492.821 168.217L491.077 168.224L491.134 165.288ZM499.855 165.249L503.343 165.233L503.286 168.17L499.798 168.185L499.855 165.249ZM510.32 165.202L513.808 165.186L513.751 168.123L510.262 168.139L510.32 165.202ZM520.785 165.155L522.529 165.147L522.471 168.084L520.727 168.092L520.785 165.155ZM466.085 172.545L467.393 173.278L466.085 172.545ZM531.338 166.576L522.334 175.093L513.662 166.655L522.666 158.139L531.338 166.576ZM491.106 166.756L491.077 168.224L491.068 168.224L491.059 168.224L491.106 166.756ZM476.923 166.663L476.876 168.131L476.876 168.131L476.923 166.663ZM449.692 195.948L450.949 193.937L453.565 195.403L452.308 197.414L449.692 195.948ZM455.977 185.891L458.491 181.869L461.108 183.335L458.594 187.357L455.977 185.891ZM463.519 173.823L464.776 171.812L467.393 173.278L466.136 175.289L463.519 173.823ZM464.776 171.812C465.2 171.134 465.68 170.499 466.209 169.911L468.508 171.799C468.097 172.256 467.723 172.75 467.393 173.278L464.776 171.812ZM474.553 165.382C475.345 165.253 476.153 165.189 476.969 165.194L476.876 168.131C476.241 168.127 475.613 168.176 474.997 168.277L474.553 165.382ZM476.969 165.194L479.333 165.21L479.24 168.146L476.876 168.131L476.969 165.194ZM488.788 165.272L491.152 165.288L491.059 168.224L488.696 168.209L488.788 165.272ZM491.134 165.288L492.879 165.28L492.821 168.217L491.077 168.224L491.134 165.288ZM499.855 165.249L503.343 165.233L503.286 168.17L499.798 168.185L499.855 165.249ZM510.32 165.202L513.808 165.186L513.751 168.123L510.262 168.139L510.32 165.202ZM520.785 165.155L522.529 165.147L522.471 168.084L520.727 168.092L520.785 165.155Z" fill="#FF6849" fill-opacity="0.25"/>
<path d="M256.915 172.768L255.607 173.501L256.915 172.768ZM191.662 166.799L200.666 175.315L209.338 166.878L200.334 158.362L191.662 166.799ZM231.894 166.979L231.923 168.447L231.932 168.447L231.941 168.447L231.894 166.979ZM246.077 166.886L246.124 168.354L246.124 168.354L246.077 166.886ZM273.308 196.171L272.051 194.16L269.435 195.626L270.692 197.637L273.308 196.171ZM267.023 186.114L264.509 182.092L261.892 183.558L264.406 187.58L267.023 186.114ZM259.481 174.046L258.224 172.035L255.607 173.501L256.864 175.512L259.481 174.046ZM258.224 172.035C257.8 171.357 257.32 170.721 256.791 170.134L254.492 172.022C254.903 172.479 255.277 172.973 255.607 173.501L258.224 172.035ZM248.447 165.605C247.655 165.476 246.847 165.412 246.031 165.417L246.124 168.354C246.759 168.35 247.387 168.399 248.003 168.5L248.447 165.605ZM246.031 165.417L243.667 165.433L243.76 168.369L246.124 168.354L246.031 165.417ZM234.212 165.495L231.848 165.511L231.941 168.447L234.304 168.432L234.212 165.495ZM231.866 165.511L230.121 165.503L230.179 168.44L231.923 168.447L231.866 165.511ZM223.145 165.472L219.657 165.456L219.714 168.393L223.202 168.408L223.145 165.472ZM212.68 165.425L209.192 165.409L209.249 168.346L212.738 168.361L212.68 165.425ZM202.215 165.378L200.471 165.37L200.529 168.307L202.273 168.315L202.215 165.378ZM256.915 172.768L255.607 173.501L256.915 172.768ZM191.662 166.799L200.666 175.315L209.338 166.878L200.334 158.362L191.662 166.799ZM231.894 166.979L231.923 168.447L231.932 168.447L231.941 168.447L231.894 166.979ZM246.077 166.886L246.124 168.354L246.124 168.354L246.077 166.886ZM273.308 196.171L272.051 194.16L269.435 195.626L270.692 197.637L273.308 196.171ZM267.023 186.114L264.509 182.092L261.892 183.558L264.406 187.58L267.023 186.114ZM259.481 174.046L258.224 172.035L255.607 173.501L256.864 175.512L259.481 174.046ZM258.224 172.035C257.8 171.357 257.32 170.721 256.791 170.134L254.492 172.022C254.903 172.479 255.277 172.973 255.607 173.501L258.224 172.035ZM248.447 165.605C247.655 165.476 246.847 165.412 246.031 165.417L246.124 168.354C246.759 168.35 247.387 168.399 248.003 168.5L248.447 165.605ZM246.031 165.417L243.667 165.433L243.76 168.369L246.124 168.354L246.031 165.417ZM234.212 165.495L231.848 165.511L231.941 168.447L234.304 168.432L234.212 165.495ZM231.866 165.511L230.121 165.503L230.179 168.44L231.923 168.447L231.866 165.511ZM223.145 165.472L219.657 165.456L219.714 168.393L223.202 168.408L223.145 165.472ZM212.68 165.425L209.192 165.409L209.249 168.346L212.738 168.361L212.68 165.425ZM202.215 165.378L200.471 165.37L200.529 168.307L202.273 168.315L202.215 165.378Z" fill="#FF6849" fill-opacity="0.25"/>
<path d="M473.521 337.996L472.195 338.701L473.521 337.996ZM531.837 344.013L522.793 335.536L514.163 344.013L523.207 352.49L531.837 344.013ZM498.498 344.013L498.462 342.545L498.451 342.545L498.498 344.013ZM484.498 344.106L484.544 345.574L484.498 344.106ZM447.567 297.282L448.593 299.008L451.244 297.598L450.218 295.873L447.567 297.282ZM452.698 305.911L454.75 309.362L457.402 307.953L455.349 304.502L452.698 305.911ZM458.855 316.266L460.907 319.717L463.559 318.308L461.506 314.856L458.855 316.266ZM465.012 326.62L467.064 330.072L469.716 328.663L467.664 325.211L465.012 326.62ZM471.169 336.975L472.195 338.701L474.847 337.292L473.821 335.566L471.169 336.975ZM472.195 338.701C472.612 339.402 473.089 340.06 473.618 340.669L475.953 338.823C475.543 338.35 475.172 337.838 474.847 337.292L472.195 338.701ZM482.078 345.378C482.886 345.512 483.711 345.579 484.544 345.574L484.451 342.637C483.802 342.642 483.161 342.59 482.533 342.485L482.078 345.378ZM484.544 345.574L486.877 345.558L486.785 342.622L484.451 342.637L484.544 345.574ZM496.211 345.497L498.544 345.481L498.451 342.545L496.118 342.56L496.211 345.497ZM498.534 345.482L500.575 345.482L500.504 342.545L498.462 342.545L498.534 345.482ZM508.743 345.482L512.827 345.482L512.755 342.545L508.671 342.545L508.743 345.482ZM520.994 345.482L523.036 345.482L522.964 342.545L520.922 342.545L520.994 345.482ZM473.521 337.996L472.195 338.701L473.521 337.996ZM531.837 344.013L522.793 335.536L514.163 344.013L523.207 352.49L531.837 344.013ZM498.498 344.013L498.462 342.545L498.451 342.545L498.498 344.013ZM484.498 344.106L484.544 345.574L484.498 344.106ZM447.567 297.282L448.593 299.008L451.244 297.598L450.218 295.873L447.567 297.282ZM452.698 305.911L454.75 309.362L457.402 307.953L455.349 304.502L452.698 305.911ZM458.855 316.266L460.907 319.717L463.559 318.308L461.506 314.856L458.855 316.266ZM465.012 326.62L467.064 330.072L469.716 328.663L467.664 325.211L465.012 326.62ZM471.169 336.975L472.195 338.701L474.847 337.292L473.821 335.566L471.169 336.975ZM472.195 338.701C472.612 339.402 473.089 340.06 473.618 340.669L475.953 338.823C475.543 338.35 475.172 337.838 474.847 337.292L472.195 338.701ZM482.078 345.378C482.886 345.512 483.711 345.579 484.544 345.574L484.451 342.637C483.802 342.642 483.161 342.59 482.533 342.485L482.078 345.378ZM484.544 345.574L486.877 345.558L486.785 342.622L484.451 342.637L484.544 345.574ZM496.211 345.497L498.544 345.481L498.451 342.545L496.118 342.56L496.211 345.497ZM498.534 345.482L500.575 345.482L500.504 342.545L498.462 342.545L498.534 345.482ZM508.743 345.482L512.827 345.482L512.755 342.545L508.671 342.545L508.743 345.482ZM520.994 345.482L523.036 345.482L522.964 342.545L520.922 342.545L520.994 345.482Z" fill="#FF6849" fill-opacity="0.25"/>
<path d="M249.479 338.219L250.805 338.924L249.479 338.219ZM191.163 344.236L200.207 335.759L208.837 344.236L199.793 352.713L191.163 344.236ZM224.502 344.236L224.538 342.768L224.549 342.768L224.502 344.236ZM238.502 344.328L238.456 345.797L238.502 344.328ZM275.433 297.505L274.407 299.23L271.756 297.821L272.782 296.095L275.433 297.505ZM270.302 306.134L268.25 309.585L265.598 308.176L267.651 304.724L270.302 306.134ZM264.145 316.488L262.093 319.94L259.441 318.531L261.494 315.079L264.145 316.488ZM257.988 326.843L255.936 330.295L253.284 328.886L255.336 325.434L257.988 326.843ZM251.831 337.198L250.805 338.924L248.153 337.515L249.179 335.789L251.831 337.198ZM250.805 338.924C250.388 339.625 249.911 340.283 249.382 340.892L247.047 339.046C247.457 338.572 247.828 338.061 248.153 337.515L250.805 338.924ZM240.922 345.601C240.114 345.735 239.289 345.802 238.456 345.797L238.549 342.86C239.198 342.865 239.839 342.812 240.467 342.708L240.922 345.601ZM238.456 345.797L236.123 345.781L236.215 342.845L238.549 342.86L238.456 345.797ZM226.789 345.72L224.456 345.704L224.549 342.768L226.882 342.783L226.789 345.72ZM224.466 345.704L222.425 345.704L222.496 342.768L224.538 342.768L224.466 345.704ZM214.257 345.704L210.173 345.704L210.245 342.768L214.329 342.768L214.257 345.704ZM202.006 345.704L199.964 345.704L200.036 342.768L202.078 342.768L202.006 345.704ZM249.479 338.219L250.805 338.924L249.479 338.219ZM191.163 344.236L200.207 335.759L208.837 344.236L199.793 352.713L191.163 344.236ZM224.502 344.236L224.538 342.768L224.549 342.768L224.502 344.236ZM238.502 344.328L238.456 345.797L238.502 344.328ZM275.433 297.505L274.407 299.23L271.756 297.821L272.782 296.095L275.433 297.505ZM270.302 306.134L268.25 309.585L265.598 308.176L267.651 304.724L270.302 306.134ZM264.145 316.488L262.093 319.94L259.441 318.531L261.494 315.079L264.145 316.488ZM257.988 326.843L255.936 330.295L253.284 328.886L255.336 325.434L257.988 326.843ZM251.831 337.198L250.805 338.924L248.153 337.515L249.179 335.789L251.831 337.198ZM250.805 338.924C250.388 339.625 249.911 340.283 249.382 340.892L247.047 339.046C247.457 338.572 247.828 338.061 248.153 337.515L250.805 338.924ZM240.922 345.601C240.114 345.735 239.289 345.802 238.456 345.797L238.549 342.86C239.198 342.865 239.839 342.812 240.467 342.708L240.922 345.601ZM238.456 345.797L236.123 345.781L236.215 342.845L238.549 342.86L238.456 345.797ZM226.789 345.72L224.456 345.704L224.549 342.768L226.882 342.783L226.789 345.72ZM224.466 345.704L222.425 345.704L222.496 342.768L224.538 342.768L224.466 345.704ZM214.257 345.704L210.173 345.704L210.245 342.768L214.329 342.768L214.257 345.704ZM202.006 345.704L199.964 345.704L200.036 342.768L202.078 342.768L202.006 345.704Z" fill="#FF6849" fill-opacity="0.25"/>
</svg>
