<svg width="368" height="218" viewBox="0 0 368 218" fill="none" xmlns="http://www.w3.org/2000/svg">
<path d="M242.576 46.59L235.046 50.8677L235.107 42.2077L242.576 46.59ZM231.279 46.5113L231.285 45.7613L231.279 46.5113ZM226.911 46.4808L226.905 47.2308L226.911 46.4808ZM173.603 124.005L174.659 122.206L175.953 122.965L174.897 124.764L173.603 124.005ZM177.826 116.808L179.937 113.209L181.231 113.968L179.12 117.567L177.826 116.808ZM183.104 107.811L185.215 104.212L186.509 104.971L184.398 108.57L183.104 107.811ZM188.382 98.8135L190.494 95.2147L191.788 95.9737L189.676 99.5725L188.382 98.8135ZM193.661 89.8164L195.772 86.2176L197.066 86.9766L194.955 90.5755L193.661 89.8164ZM198.939 80.8194L201.05 77.2206L202.344 77.9796L200.233 81.5784L198.939 80.8194ZM204.217 71.8223L206.329 68.2235L207.623 68.9825L205.511 72.5814L204.217 71.8223ZM209.496 62.8253L211.607 59.2265L212.901 59.9855L210.79 63.5843L209.496 62.8253ZM214.774 53.8282L215.83 52.0288L217.124 52.7878L216.068 54.5873L214.774 53.8282ZM215.83 52.0288C216.286 51.2515 216.817 50.5339 217.411 49.8831L218.519 50.8945C217.995 51.4686 217.526 52.1017 217.124 52.7878L215.83 52.0288ZM224.263 45.9908C225.126 45.8135 226.015 45.7246 226.916 45.7309L226.905 47.2308C226.11 47.2253 225.326 47.3038 224.565 47.4601L224.263 45.9908ZM226.916 45.7309L227.79 45.737L227.779 47.2369L226.905 47.2308L226.916 45.7309ZM230.411 45.7552L231.285 45.7613L231.274 47.2613L230.4 47.2552L230.411 45.7552ZM231.285 45.7613L233.544 45.777L233.534 47.277L231.274 47.2613L231.285 45.7613ZM242.576 46.59L235.046 50.8677L235.107 42.2077L242.576 46.59ZM231.279 46.5113L231.285 45.7613L231.279 46.5113ZM226.911 46.4808L226.905 47.2308L226.911 46.4808ZM173.603 124.005L174.659 122.206L175.953 122.965L174.897 124.764L173.603 124.005ZM177.826 116.808L179.937 113.209L181.231 113.968L179.12 117.567L177.826 116.808ZM183.104 107.811L185.215 104.212L186.509 104.971L184.398 108.57L183.104 107.811ZM188.382 98.8135L190.494 95.2147L191.788 95.9737L189.676 99.5725L188.382 98.8135ZM193.661 89.8164L195.772 86.2176L197.066 86.9766L194.955 90.5755L193.661 89.8164ZM198.939 80.8194L201.05 77.2206L202.344 77.9796L200.233 81.5784L198.939 80.8194ZM204.217 71.8223L206.329 68.2235L207.623 68.9825L205.511 72.5814L204.217 71.8223ZM209.496 62.8253L211.607 59.2265L212.901 59.9855L210.79 63.5843L209.496 62.8253ZM214.774 53.8282L215.83 52.0288L217.124 52.7878L216.068 54.5873L214.774 53.8282ZM215.83 52.0288C216.286 51.2515 216.817 50.5339 217.411 49.8831L218.519 50.8945C217.995 51.4686 217.526 52.1017 217.124 52.7878L215.83 52.0288ZM224.263 45.9908C225.126 45.8135 226.015 45.7246 226.916 45.7309L226.905 47.2308C226.11 47.2253 225.326 47.3038 224.565 47.4601L224.263 45.9908ZM226.916 45.7309L227.79 45.737L227.779 47.2369L226.905 47.2308L226.916 45.7309ZM230.411 45.7552L231.285 45.7613L231.274 47.2613L230.4 47.2552L230.411 45.7552ZM231.285 45.7613L233.544 45.777L233.534 47.277L231.274 47.2613L231.285 45.7613Z" fill="#FACCBB"/>
<path d="M128.25 46.8015L135.833 50.9846L135.664 42.326L128.25 46.8015ZM139.545 46.5813L139.53 45.8315L139.545 46.5813ZM143.913 46.4962L143.928 47.246L143.913 46.4962ZM198.187 123.347L197.109 121.561L195.825 122.336L196.903 124.122L198.187 123.347ZM193.875 116.203L191.719 112.631L190.435 113.406L192.591 116.978L193.875 116.203ZM188.484 107.272L186.328 103.7L185.044 104.475L187.2 108.048L188.484 107.272ZM183.094 98.3421L180.938 94.77L179.653 95.5452L181.81 99.1173L183.094 98.3421ZM177.703 89.4119L175.547 85.8398L174.263 86.615L176.419 90.1871L177.703 89.4119ZM172.313 80.4817L170.156 76.9096L168.872 77.6848L171.028 81.2568L172.313 80.4817ZM166.922 71.5514L164.766 67.9793L163.481 68.7545L165.638 72.3266L166.922 71.5514ZM161.531 62.6212L159.375 59.0491L158.091 59.8243L160.247 63.3964L161.531 62.6212ZM156.141 53.691L155.063 51.9049L153.778 52.6801L154.856 54.4662L156.141 53.691ZM155.063 51.9049C154.597 51.1334 154.057 50.4225 153.454 49.7792L152.359 50.8044C152.891 51.3719 153.367 51.9991 153.778 52.6801L155.063 51.9049ZM146.555 45.973C145.689 45.8066 144.8 45.7288 143.899 45.7463L143.928 47.246C144.723 47.2305 145.508 47.2992 146.271 47.446L146.555 45.973ZM143.899 45.7463L143.025 45.7634L143.054 47.2631L143.928 47.246L143.899 45.7463ZM140.404 45.8144L139.53 45.8315L139.56 47.3312L140.433 47.3142L140.404 45.8144ZM139.53 45.8315L137.271 45.8755L137.301 47.3752L139.56 47.3312L139.53 45.8315ZM128.25 46.8015L135.833 50.9846L135.664 42.326L128.25 46.8015ZM139.545 46.5813L139.53 45.8315L139.545 46.5813ZM143.913 46.4962L143.928 47.246L143.913 46.4962ZM198.187 123.347L197.109 121.561L195.825 122.336L196.903 124.122L198.187 123.347ZM193.875 116.203L191.719 112.631L190.435 113.406L192.591 116.978L193.875 116.203ZM188.484 107.272L186.328 103.7L185.044 104.475L187.2 108.048L188.484 107.272ZM183.094 98.3421L180.938 94.77L179.653 95.5452L181.81 99.1173L183.094 98.3421ZM177.703 89.4119L175.547 85.8398L174.263 86.615L176.419 90.1871L177.703 89.4119ZM172.313 80.4817L170.156 76.9096L168.872 77.6848L171.028 81.2568L172.313 80.4817ZM166.922 71.5514L164.766 67.9793L163.481 68.7545L165.638 72.3266L166.922 71.5514ZM161.531 62.6212L159.375 59.0491L158.091 59.8243L160.247 63.3964L161.531 62.6212ZM156.141 53.691L155.063 51.9049L153.778 52.6801L154.856 54.4662L156.141 53.691ZM155.063 51.9049C154.597 51.1334 154.057 50.4225 153.454 49.7792L152.359 50.8044C152.891 51.3719 153.367 51.9991 153.778 52.6801L155.063 51.9049ZM146.555 45.973C145.689 45.8066 144.8 45.7288 143.899 45.7463L143.928 47.246C144.723 47.2305 145.508 47.2992 146.271 47.446L146.555 45.973ZM143.899 45.7463L143.025 45.7634L143.054 47.2631L143.928 47.246L143.899 45.7463ZM140.404 45.8144L139.53 45.8315L139.56 47.3312L140.433 47.3142L140.404 45.8144ZM139.53 45.8315L137.271 45.8755L137.301 47.3752L139.56 47.3312L139.53 45.8315Z" fill="#FACCBB"/>
<path d="M241.576 166.387L234.046 162.109L234.107 170.769L241.576 166.387ZM230.279 166.465L230.285 167.215L230.279 166.465ZM225.911 166.496L225.905 165.746L225.911 166.496ZM172.603 88.9713L173.659 90.7707L174.953 90.0117L173.897 88.2123L172.603 88.9713ZM176.826 96.169L178.937 99.7678L180.231 99.0087L178.12 95.4099L176.826 96.169ZM182.104 105.166L184.215 108.765L185.509 108.006L183.398 104.407L182.104 105.166ZM187.382 114.163L189.494 117.762L190.788 117.003L188.676 113.404L187.382 114.163ZM192.661 123.16L194.772 126.759L196.066 126L193.955 122.401L192.661 123.16ZM197.939 132.157L200.05 135.756L201.344 134.997L199.233 131.398L197.939 132.157ZM203.217 141.154L205.329 144.753L206.623 143.994L204.511 140.395L203.217 141.154ZM208.496 150.151L210.607 153.75L211.901 152.991L209.79 149.392L208.496 150.151ZM213.774 159.148L214.83 160.948L216.124 160.189L215.068 158.389L213.774 159.148ZM214.83 160.948C215.286 161.725 215.817 162.443 216.411 163.093L217.519 162.082C216.995 161.508 216.526 160.875 216.124 160.189L214.83 160.948ZM223.263 166.986C224.126 167.163 225.015 167.252 225.916 167.246L225.905 165.746C225.11 165.751 224.326 165.673 223.565 165.516L223.263 166.986ZM225.916 167.246L226.79 167.24L226.779 165.74L225.905 165.746L225.916 167.246ZM229.411 167.221L230.285 167.215L230.274 165.715L229.4 165.721L229.411 167.221ZM230.285 167.215L232.544 167.2L232.534 165.7L230.274 165.715L230.285 167.215ZM241.576 166.387L234.046 162.109L234.107 170.769L241.576 166.387ZM230.279 166.465L230.285 167.215L230.279 166.465ZM225.911 166.496L225.905 165.746L225.911 166.496ZM172.603 88.9713L173.659 90.7707L174.953 90.0117L173.897 88.2123L172.603 88.9713ZM176.826 96.169L178.937 99.7678L180.231 99.0087L178.12 95.4099L176.826 96.169ZM182.104 105.166L184.215 108.765L185.509 108.006L183.398 104.407L182.104 105.166ZM187.382 114.163L189.494 117.762L190.788 117.003L188.676 113.404L187.382 114.163ZM192.661 123.16L194.772 126.759L196.066 126L193.955 122.401L192.661 123.16ZM197.939 132.157L200.05 135.756L201.344 134.997L199.233 131.398L197.939 132.157ZM203.217 141.154L205.329 144.753L206.623 143.994L204.511 140.395L203.217 141.154ZM208.496 150.151L210.607 153.75L211.901 152.991L209.79 149.392L208.496 150.151ZM213.774 159.148L214.83 160.948L216.124 160.189L215.068 158.389L213.774 159.148ZM214.83 160.948C215.286 161.725 215.817 162.443 216.411 163.093L217.519 162.082C216.995 161.508 216.526 160.875 216.124 160.189L214.83 160.948ZM223.263 166.986C224.126 167.163 225.015 167.252 225.916 167.246L225.905 165.746C225.11 165.751 224.326 165.673 223.565 165.516L223.263 166.986ZM225.916 167.246L226.79 167.24L226.779 165.74L225.905 165.746L225.916 167.246ZM229.411 167.221L230.285 167.215L230.274 165.715L229.4 165.721L229.411 167.221ZM230.285 167.215L232.544 167.2L232.534 165.7L230.274 165.715L230.285 167.215Z" fill="#FACCBB"/>
<path d="M126.25 165.734L133.833 161.551L133.664 170.209L126.25 165.734ZM137.545 165.954L137.53 166.704L137.545 165.954ZM141.913 166.039L141.928 165.289L141.913 166.039ZM196.187 89.1884L195.109 90.9744L193.825 90.1992L194.903 88.4132L196.187 89.1884ZM191.875 96.3326L189.719 99.9046L188.435 99.1295L190.591 95.5574L191.875 96.3326ZM186.484 105.263L184.328 108.835L183.044 108.06L185.2 104.488L186.484 105.263ZM181.094 114.193L178.938 117.765L177.653 116.99L179.81 113.418L181.094 114.193ZM175.703 123.123L173.547 126.695L172.263 125.92L174.419 122.348L175.703 123.123ZM170.313 132.053L168.156 135.626L166.872 134.85L169.028 131.278L170.313 132.053ZM164.922 140.984L162.766 144.556L161.481 143.781L163.638 140.209L164.922 140.984ZM159.531 149.914L157.375 153.486L156.091 152.711L158.247 149.139L159.531 149.914ZM154.141 158.844L153.063 160.63L151.778 159.855L152.856 158.069L154.141 158.844ZM153.063 160.63C152.597 161.402 152.057 162.113 151.454 162.756L150.359 161.731C150.891 161.163 151.367 160.536 151.778 159.855L153.063 160.63ZM144.555 166.562C143.689 166.729 142.8 166.806 141.899 166.789L141.928 165.289C142.723 165.305 143.508 165.236 144.271 165.089L144.555 166.562ZM141.899 166.789L141.025 166.772L141.054 165.272L141.928 165.289L141.899 166.789ZM138.404 166.721L137.53 166.704L137.56 165.204L138.433 165.221L138.404 166.721ZM137.53 166.704L135.271 166.66L135.301 165.16L137.56 165.204L137.53 166.704ZM126.25 165.734L133.833 161.551L133.664 170.209L126.25 165.734ZM137.545 165.954L137.53 166.704L137.545 165.954ZM141.913 166.039L141.928 165.289L141.913 166.039ZM196.187 89.1884L195.109 90.9744L193.825 90.1992L194.903 88.4132L196.187 89.1884ZM191.875 96.3326L189.719 99.9046L188.435 99.1295L190.591 95.5574L191.875 96.3326ZM186.484 105.263L184.328 108.835L183.044 108.06L185.2 104.488L186.484 105.263ZM181.094 114.193L178.938 117.765L177.653 116.99L179.81 113.418L181.094 114.193ZM175.703 123.123L173.547 126.695L172.263 125.92L174.419 122.348L175.703 123.123ZM170.313 132.053L168.156 135.626L166.872 134.85L169.028 131.278L170.313 132.053ZM164.922 140.984L162.766 144.556L161.481 143.781L163.638 140.209L164.922 140.984ZM159.531 149.914L157.375 153.486L156.091 152.711L158.247 149.139L159.531 149.914ZM154.141 158.844L153.063 160.63L151.778 159.855L152.856 158.069L154.141 158.844ZM153.063 160.63C152.597 161.402 152.057 162.113 151.454 162.756L150.359 161.731C150.891 161.163 151.367 160.536 151.778 159.855L153.063 160.63ZM144.555 166.562C143.689 166.729 142.8 166.806 141.899 166.789L141.928 165.289C142.723 165.305 143.508 165.236 144.271 165.089L144.555 166.562ZM141.899 166.789L141.025 166.772L141.054 165.272L141.928 165.289L141.899 166.789ZM138.404 166.721L137.53 166.704L137.56 165.204L138.433 165.221L138.404 166.721ZM137.53 166.704L135.271 166.66L135.301 165.16L137.56 165.204L137.53 166.704Z" fill="#FACCBB"/>
<path d="M51.2195 75.5824C48.1255 73.796 46.2195 70.4948 46.2195 66.9221L46.2195 30.7704C46.2195 27.1977 48.1255 23.8965 51.2195 22.1101L82.5278 4.03428C85.6218 2.24796 89.4338 2.24796 92.5278 4.03429L123.836 22.1101C126.93 23.8965 128.836 27.1977 128.836 30.7704L128.836 66.9221C128.836 70.4948 126.93 73.796 123.836 75.5824L92.5278 93.6582C89.4338 95.4445 85.6218 95.4445 82.5278 93.6582L51.2195 75.5824Z" fill="white"/>
<path d="M70.25 25.6895V63.6894H63.3637V32.3877H63.141L54.25 38.0654V31.7568L63.6978 25.6895H70.25Z" fill="#F8F7F3"/>
<path d="M77.7227 39.5855L84.8775 31.9219L88.5874 38.3453L78.3798 40.709L77.7227 39.5855Z" fill="#F9E9E7"/>
<path d="M84.6621 31.5449L88.8043 38.7194" stroke="#FF6849" stroke-linecap="round" stroke-linejoin="round"/>
<path d="M88.5876 38.3431L78.3767 40.714L77.7227 39.5812L84.8815 31.9238" stroke="#FF6849" stroke-linecap="round" stroke-linejoin="round"/>
<path d="M80.5981 40.1968L81.1604 41.1706C81.3644 41.5202 81.6989 41.7745 82.0903 41.8774C82.4817 41.9804 82.898 41.9236 83.2476 41.7197C83.5972 41.5157 83.8514 41.1812 83.9544 40.7898C84.0574 40.3983 84.0006 39.9821 83.7966 39.6325L83.7066 39.4766" stroke="#FF6849" stroke-linecap="round" stroke-linejoin="round"/>
<path d="M84.6118 29.5745V28.1484" stroke="#FF6849" stroke-linecap="round" stroke-linejoin="round"/>
<path d="M90.0762 35.0391H91.5023" stroke="#FF6849" stroke-linecap="round" stroke-linejoin="round"/>
<path d="M77.7231 35.0391H79.1492" stroke="#FF6849" stroke-linecap="round" stroke-linejoin="round"/>
<path d="M79.7393 30.166L80.7476 31.1744" stroke="#FF6849" stroke-linecap="round" stroke-linejoin="round"/>
<path d="M88.4761 31.1744L89.4844 30.166" stroke="#FF6849" stroke-linecap="round" stroke-linejoin="round"/>
<path d="M246.784 76.1136C243.69 74.3273 241.784 71.026 241.784 67.4534L241.784 31.3016C241.784 27.729 243.69 24.4277 246.784 22.6414L278.092 4.56553C281.186 2.77921 284.998 2.77921 288.092 4.56554L319.401 22.6414C322.495 24.4277 324.401 27.729 324.401 31.3016L324.401 67.4534C324.401 71.026 322.495 74.3273 319.401 76.1136L288.092 94.1895C284.998 95.9758 281.186 95.9758 278.092 94.1895L246.784 76.1136Z" fill="white"/>
<path d="M251.479 65.6895V60.5257L265.036 47.096C266.333 45.7729 267.413 44.5976 268.278 43.57C269.142 42.5424 269.79 41.5469 270.222 40.5835C270.655 39.6201 270.871 38.5925 270.871 37.5006C270.871 36.2546 270.591 35.1885 270.032 34.3022C269.472 33.403 268.703 32.7094 267.725 32.2212C266.746 31.7331 265.633 31.4891 264.388 31.4891C263.104 31.4891 261.979 31.7588 261.013 32.2983C260.047 32.825 259.297 33.5764 258.763 34.5527C258.242 35.5289 257.981 36.6914 257.981 38.0401H251.25C251.25 35.5353 251.816 33.358 252.947 31.5083C254.078 29.6586 255.636 28.2264 257.619 27.2116C259.614 26.1968 261.903 25.6895 264.483 25.6895C267.102 25.6895 269.403 26.184 271.386 27.1731C273.369 28.1622 274.907 29.5173 276 31.2386C277.106 32.9598 277.659 34.9252 277.659 37.1345C277.659 38.6117 277.379 40.0632 276.82 41.4891C276.261 42.9149 275.275 44.4948 273.864 46.229C272.466 47.9631 270.502 50.0632 267.972 52.5295L261.242 59.4467V59.7164H278.25V65.6895H251.479Z" fill="#F8F7F3"/>
<path d="M281.767 35.0381C281.767 36.4437 282.325 37.7918 283.319 38.7857C284.313 39.7796 285.661 40.338 287.067 40.338C288.473 40.338 289.821 39.7796 290.815 38.7857C291.808 37.7918 292.367 36.4437 292.367 35.0381C292.367 33.6325 291.808 32.2845 290.815 31.2906C289.821 30.2967 288.473 29.7383 287.067 29.7383C285.661 29.7383 284.313 30.2967 283.319 31.2906C282.325 32.2845 281.767 33.6325 281.767 35.0381Z" fill="#F9E9E7" stroke="#FF6849" stroke-linecap="round" stroke-linejoin="round"/>
<path d="M287.067 28.1484V29.7384" stroke="#FF6849" stroke-linecap="round" stroke-linejoin="round"/>
<path d="M287.067 40.3379V41.9278" stroke="#FF6849" stroke-linecap="round" stroke-linejoin="round"/>
<path d="M293.957 35.0391H292.367" stroke="#FF6849" stroke-linecap="round" stroke-linejoin="round"/>
<path d="M281.767 35.0391H280.177" stroke="#FF6849" stroke-linecap="round" stroke-linejoin="round"/>
<path d="M282.195 30.166L283.32 31.2903" stroke="#FF6849" stroke-linecap="round" stroke-linejoin="round"/>
<path d="M290.814 38.7852L291.939 39.9095" stroke="#FF6849" stroke-linecap="round" stroke-linejoin="round"/>
<path d="M291.939 30.166L290.814 31.2903" stroke="#FF6849" stroke-linecap="round" stroke-linejoin="round"/>
<path d="M283.32 38.7852L282.195 39.9095" stroke="#FF6849" stroke-linecap="round" stroke-linejoin="round"/>
<path d="M281.767 35.0381C281.767 36.4437 282.325 37.7918 283.319 38.7857C284.313 39.7796 285.661 40.338 287.067 40.338C288.473 40.338 289.821 39.7796 290.815 38.7857C291.808 37.7918 292.367 36.4437 292.367 35.0381C292.367 33.6325 291.808 32.2845 290.815 31.2906C289.821 30.2967 288.473 29.7383 287.067 29.7383C285.661 29.7383 284.313 30.2967 283.319 31.2906C282.325 32.2845 281.767 33.6325 281.767 35.0381Z" stroke="#FF6849" stroke-linecap="round" stroke-linejoin="round"/>
<path d="M287.067 35.0391H292.367" stroke="#FF6849" stroke-linecap="round" stroke-linejoin="round"/>
<path d="M284.417 30.4492L287.067 35.039" stroke="#FF6849" stroke-linecap="round" stroke-linejoin="round"/>
<path d="M284.417 39.6288L287.067 35.0391" stroke="#FF6849" stroke-linecap="round" stroke-linejoin="round"/>
<path d="M49.0994 195.889C46.0054 194.103 44.0994 190.801 44.0994 187.229L44.0994 151.077C44.0994 147.504 46.0054 144.203 49.0994 142.417L80.4077 124.341C83.5017 122.555 87.3137 122.555 90.4077 124.341L121.716 142.417C124.81 144.203 126.716 147.504 126.716 151.077L126.716 187.229C126.716 190.801 124.81 194.103 121.716 195.889L90.4077 213.965C87.3137 215.751 83.5017 215.751 80.4077 213.965L49.0994 195.889Z" fill="white"/>
<path d="M66.7018 186.689C63.9308 186.689 61.4676 186.232 59.3123 185.318C57.1699 184.403 55.4765 183.131 54.2321 181.499C52.9877 179.868 52.327 177.984 52.25 175.846H59.4855C59.5497 176.871 59.9025 177.767 60.5439 178.534C61.1854 179.287 62.0385 179.874 63.1033 180.294C64.1681 180.715 65.3612 180.925 66.6826 180.925C68.0938 180.925 69.3446 180.69 70.435 180.22C71.5255 179.738 72.3786 179.071 72.9944 178.218C73.6102 177.366 73.9117 176.383 73.8988 175.271C73.9117 174.122 73.6038 173.109 72.9752 172.231C72.3465 171.354 71.4357 170.668 70.2426 170.174C69.0623 169.679 67.6383 169.432 65.9706 169.432H62.4875V164.131H65.9706C67.3433 164.131 68.5428 163.902 69.5691 163.445C70.6082 162.988 71.4229 162.345 72.013 161.517C72.6031 160.677 72.8918 159.707 72.8789 158.607C72.8918 157.532 72.6416 156.599 72.1285 155.808C71.6281 155.005 70.9161 154.381 69.9924 153.936C69.0816 153.491 68.0104 153.269 66.7788 153.269C65.5729 153.269 64.4567 153.479 63.4304 153.899C62.4041 154.319 61.5766 154.919 60.948 155.697C60.3194 156.463 59.9859 157.378 59.9474 158.44H53.0775C53.1288 156.315 53.7638 154.449 54.9826 152.842C56.2141 151.224 57.8563 149.963 59.9089 149.061C61.9615 148.147 64.2643 147.689 66.8173 147.689C69.4472 147.689 71.7308 148.165 73.6679 149.117C75.6179 150.056 77.1253 151.323 78.1901 152.917C79.2549 154.511 79.7873 156.272 79.7873 158.199C79.8002 160.337 79.1459 162.129 77.8245 163.575C76.516 165.021 74.7969 165.966 72.6673 166.411V166.708C75.4383 167.078 77.5615 168.067 79.0368 169.673C80.525 171.267 81.2627 173.251 81.2498 175.623C81.2498 177.749 80.6212 179.652 79.364 181.333C78.1196 183.001 76.4005 184.311 74.2067 185.262C72.0258 186.214 69.5242 186.689 66.7018 186.689Z" fill="#F8F7F3"/>
<path d="M91.6716 152.313L91.2158 153.49L89.647 154.38L88.3963 154.189C88.188 154.161 87.976 154.195 87.7873 154.288C87.5986 154.38 87.4416 154.527 87.3363 154.709L86.9123 155.451C86.8037 155.635 86.7536 155.849 86.7688 156.063C86.7839 156.277 86.8635 156.481 86.9971 156.648L87.7921 157.634V158.404C88.284 158.18 88.8214 158.033 89.3908 157.979C89.9377 157.928 90.5262 157.876 91.0881 157.833C91.192 157.532 91.3634 157.255 91.5929 157.026C91.9905 156.628 92.5297 156.405 93.092 156.405C93.5112 156.405 93.9211 156.529 94.2697 156.762C94.6184 156.995 94.8901 157.326 95.0505 157.713C95.0669 157.753 95.082 157.793 95.0958 157.833C95.6577 157.876 96.2463 157.928 96.7932 157.979C97.3626 158.033 97.9 158.18 98.3918 158.404V157.634L99.1656 156.648C99.2992 156.481 99.3788 156.277 99.394 156.063C99.409 155.849 99.359 155.635 99.2504 155.451L98.8264 154.709C98.7211 154.527 98.5641 154.38 98.3754 154.288C98.1867 154.195 97.9747 154.161 97.7664 154.189L96.5156 154.38L94.9681 153.49L94.5123 152.313C94.4354 152.114 94.3002 151.943 94.1243 151.822C93.9484 151.7 93.7401 151.635 93.5265 151.635H92.6574C92.4438 151.635 92.2355 151.7 92.0596 151.822C91.8837 151.943 91.7485 152.114 91.6716 152.313Z" fill="#F9E9E7"/>
<path d="M87.7921 158.404V157.634L86.9971 156.648C86.8635 156.481 86.7839 156.277 86.7688 156.063C86.7536 155.849 86.8037 155.635 86.9123 155.451L87.3363 154.709C87.4416 154.527 87.5986 154.38 87.7873 154.288C87.976 154.195 88.188 154.161 88.3963 154.189L89.647 154.38L91.2158 153.49L91.6716 152.313C91.7485 152.114 91.8837 151.943 92.0596 151.822C92.2355 151.7 92.4438 151.635 92.6574 151.635H93.5265C93.7401 151.635 93.9484 151.7 94.1243 151.822C94.3002 151.943 94.4354 152.114 94.5123 152.313L94.9681 153.49L96.5156 154.38L97.7664 154.189C97.9747 154.161 98.1867 154.195 98.3754 154.288C98.5641 154.38 98.7211 154.527 98.8264 154.709L99.2504 155.451C99.359 155.635 99.409 155.849 99.394 156.063C99.3788 156.277 99.2992 156.481 99.1656 156.648L98.3918 157.634V158.404" stroke="#FF6849" stroke-linecap="round" stroke-linejoin="round"/>
<path d="M91.0884 157.832C91.1923 157.531 91.3637 157.255 91.5932 157.025C91.9908 156.628 92.53 156.404 93.0923 156.404C93.5115 156.404 93.9214 156.529 94.27 156.762C94.6187 156.995 94.8904 157.326 95.0508 157.713C95.0672 157.752 95.0823 157.792 95.0961 157.832" stroke="#FF6849" stroke-linecap="round" stroke-linejoin="round"/>
<path d="M87.7924 164.354H89.6473C90.0864 164.354 90.4423 163.998 90.4423 163.559C90.4423 163.12 90.7982 162.764 91.2373 162.764H94.9472C95.3863 162.764 95.7422 163.12 95.7422 163.559C95.7422 163.998 96.0981 164.354 96.5372 164.354H98.3921C98.9775 164.354 99.4521 163.879 99.4521 163.294V162.96C99.4521 161.34 98.234 159.977 96.6207 159.826C95.2926 159.701 93.8404 159.584 93.0922 159.584C92.3441 159.584 90.8919 159.701 89.5638 159.826C87.9505 159.977 86.7324 161.34 86.7324 162.96V163.294C86.7324 163.879 87.207 164.354 87.7924 164.354Z" fill="white"/>
<path d="M87.7924 164.354H89.6473C90.0864 164.354 90.4423 163.998 90.4423 163.559C90.4423 163.12 90.7982 162.764 91.2373 162.764H94.9472C95.3863 162.764 95.7422 163.12 95.7422 163.559C95.7422 163.998 96.0981 164.354 96.5372 164.354H98.3921C98.9775 164.354 99.4521 163.879 99.4521 163.294V162.96C99.4521 161.34 98.234 159.977 96.6207 159.826C95.2926 159.701 93.8404 159.584 93.0922 159.584C92.3441 159.584 90.8919 159.701 89.5638 159.826C87.9505 159.977 86.7324 161.34 86.7324 162.96V163.294C86.7324 163.879 87.207 164.354 87.7924 164.354Z" stroke="#FF6849" stroke-linecap="round" stroke-linejoin="round"/>
<path d="M246.784 195.889C243.69 194.103 241.784 190.801 241.784 187.229L241.784 151.077C241.784 147.504 243.69 144.203 246.784 142.417L278.092 124.341C281.186 122.555 284.998 122.555 288.092 124.341L319.401 142.417C322.495 144.203 324.401 147.504 324.401 151.077L324.401 187.229C324.401 190.801 322.495 194.103 319.401 195.889L288.092 213.965C284.998 215.751 281.186 215.751 278.092 213.965L246.784 195.889Z" fill="white"/>
<path d="M254.25 178.639V173.165L270.615 147.689H275.248V155.482H272.423L261.406 172.683V172.979H284.25V178.639H254.25ZM272.649 185.689V176.969L272.725 174.52V147.689H279.316V185.689H272.649Z" fill="#F8F7F3"/>
<path d="M289.187 159.055H286.537V163.295C286.537 163.88 287.012 164.355 287.597 164.355H289.187C289.772 164.355 290.247 163.88 290.247 163.295V160.115C290.247 159.529 289.772 159.055 289.187 159.055Z" fill="#F9E9E7"/>
<path d="M299.257 159.055H296.607C296.021 159.055 295.547 159.529 295.547 160.115V163.295C295.547 163.88 296.021 164.355 296.607 164.355H298.197C298.782 164.355 299.257 163.88 299.257 163.295V159.055Z" fill="#F9E9E7"/>
<path d="M289.187 159.055H286.537V163.295C286.537 163.88 287.012 164.355 287.597 164.355H289.187C289.772 164.355 290.247 163.88 290.247 163.295V160.115C290.247 159.529 289.772 159.055 289.187 159.055Z" stroke="#FF6849" stroke-linecap="round" stroke-linejoin="round"/>
<path d="M299.257 159.055H296.607C296.021 159.055 295.547 159.529 295.547 160.115V163.295C295.547 163.88 296.021 164.355 296.607 164.355H298.197C298.782 164.355 299.257 163.88 299.257 163.295V159.055Z" stroke="#FF6849" stroke-linecap="round" stroke-linejoin="round"/>
<path d="M286.537 159.055V157.995C286.537 154.482 289.385 151.635 292.897 151.635C296.409 151.635 299.257 154.482 299.257 157.995V159.055" stroke="#FF6849" stroke-linecap="round" stroke-linejoin="round"/>
<path d="M147.677 133.881C144.583 132.095 142.677 128.794 142.677 125.221L142.677 89.0692C142.677 85.4966 144.583 82.1953 147.677 80.409L178.985 62.3331C182.079 60.5468 185.891 60.5468 188.985 62.3331L220.293 80.409C223.387 82.1953 225.293 85.4966 225.293 89.0692L225.293 125.221C225.293 128.794 223.387 132.095 220.293 133.881L188.985 151.957C185.891 153.743 182.079 153.743 178.985 151.957L147.677 133.881Z" fill="white"/>
<path d="M173.19 108.809C173.19 110.392 172.455 111.3 171.174 111.3C170.013 111.3 169.351 110.432 169.351 108.917V104.867H167.86V108.958C167.86 111.768 169.592 112.764 171.082 112.764C171.911 112.764 172.627 112.534 173.193 112.099V112.628H174.685V104.867H173.193L173.19 108.809Z" fill="#162B33"/>
<path d="M179.779 104.732C178.95 104.732 178.229 104.962 177.667 105.397V104.868H176.176V112.629H177.667V108.688C177.667 107.104 178.402 106.196 179.683 106.196C180.844 106.196 181.507 107.065 181.507 108.579V112.629H182.998V108.538C182.998 105.729 181.266 104.732 179.776 104.732" fill="#162B33"/>
<path d="M185.878 104.867H184.387V112.628H185.878V104.867Z" fill="#162B33"/>
<path d="M185.139 102.602C184.904 102.601 184.679 102.692 184.51 102.855C184.342 103.019 184.244 103.241 184.237 103.476C184.238 103.715 184.333 103.944 184.502 104.113C184.671 104.282 184.9 104.377 185.139 104.378C185.376 104.376 185.603 104.279 185.769 104.11C185.936 103.941 186.029 103.713 186.027 103.476C186.022 103.243 185.927 103.021 185.761 102.858C185.595 102.695 185.372 102.603 185.139 102.602Z" fill="#162B33"/>
<path d="M190.212 111.219C190.079 111.271 189.938 111.298 189.795 111.299C189.64 111.299 189.38 111.299 189.38 110.708V101.408H187.888V110.738C187.888 111.99 188.593 112.767 189.726 112.767C190.075 112.77 190.421 112.694 190.737 112.546L191.071 112.378L190.866 110.893L190.212 111.219Z" fill="#162B33"/>
<path d="M197.575 105.602C196.886 105.032 196.018 104.724 195.124 104.733C192.96 104.733 191.265 106.5 191.265 108.755C191.265 111.011 192.96 112.767 195.124 112.767C196.02 112.769 196.887 112.456 197.575 111.882V112.629H199.066V104.868H197.575V105.602ZM195.165 111.301C193.814 111.301 192.755 110.183 192.755 108.755C192.755 107.327 193.814 106.196 195.165 106.196C196.539 106.196 197.575 107.296 197.575 108.755C197.575 110.183 196.516 111.301 195.165 111.301Z" fill="#162B33"/>
<path d="M208.362 104.867H206.365L203.542 107.962H202.57V101.406H201.08V112.628H202.57V109.439H203.512L206.362 112.628H208.34L204.854 108.705L208.362 104.867Z" fill="#162B33"/>
<path d="M211.753 104.73C209.522 104.73 207.839 106.463 207.839 108.753C207.839 111.001 209.588 112.765 211.822 112.765C213.103 112.765 214.243 112.24 215.033 111.286L215.335 110.921L214.295 109.882L213.93 110.324C213.676 110.636 213.354 110.886 212.989 111.056C212.623 111.225 212.224 111.309 211.822 111.301C211.274 111.304 210.741 111.125 210.306 110.792C209.871 110.459 209.559 109.991 209.419 109.461H215.398L215.481 109.042C215.51 108.897 215.522 108.749 215.519 108.601C215.519 106.428 213.865 104.727 211.753 104.727M209.421 108.009C209.714 106.927 210.626 106.185 211.753 106.185C212.838 106.185 213.718 106.938 213.971 108.009H209.421Z" fill="#162B33"/>
<path d="M153.514 106.765V112.098H155.085V111.46C154.082 110.54 153.513 108.529 153.513 106.762" fill="#FF6849"/>
<path d="M163.075 106.765V112.098H161.503V111.46C162.506 110.54 163.075 108.529 163.075 106.762" fill="#FF6849"/>
<path d="M161.503 102.854V106.963C161.503 108.264 161.128 109.271 160.446 109.908V105.846H158.823V110.641C158.647 110.666 158.469 110.679 158.291 110.68C158.114 110.679 157.936 110.666 157.761 110.641V101.406H156.14V109.908C155.458 109.269 155.083 108.266 155.083 106.963V104.333H153.511V106.963C153.511 110.165 155.387 112.235 158.291 112.235C161.195 112.235 163.073 110.165 163.073 106.963V102.854H161.503Z" fill="#FF6849"/>
<path d="M312.429 184.222V186.763H311.78V182.539H312.407V183.199H312.462C312.561 182.985 312.712 182.813 312.913 182.682C313.115 182.55 313.375 182.484 313.694 182.484C313.98 182.484 314.23 182.543 314.445 182.66C314.659 182.776 314.826 182.952 314.945 183.188C315.065 183.423 315.124 183.72 315.124 184.079V186.763H314.475V184.123C314.475 183.792 314.389 183.533 314.217 183.348C314.044 183.161 313.808 183.067 313.507 183.067C313.3 183.067 313.115 183.112 312.952 183.202C312.79 183.292 312.663 183.423 312.57 183.595C312.476 183.768 312.429 183.977 312.429 184.222Z" fill="#525D61"/>
<path d="M309.943 186.763V182.539H310.592V186.763H309.943ZM310.273 181.835C310.146 181.835 310.037 181.792 309.945 181.706C309.855 181.62 309.811 181.516 309.811 181.395C309.811 181.274 309.855 181.17 309.945 181.084C310.037 180.998 310.146 180.955 310.273 180.955C310.399 180.955 310.507 180.998 310.597 181.084C310.689 181.17 310.735 181.274 310.735 181.395C310.735 181.516 310.689 181.62 310.597 181.706C310.507 181.792 310.399 181.835 310.273 181.835Z" fill="#525D61"/>
<path d="M306.822 186.862C306.554 186.862 306.311 186.812 306.093 186.711C305.875 186.608 305.702 186.461 305.573 186.268C305.445 186.074 305.381 185.839 305.381 185.564C305.381 185.322 305.429 185.126 305.524 184.976C305.619 184.824 305.747 184.705 305.906 184.618C306.066 184.532 306.242 184.468 306.434 184.426C306.628 184.382 306.824 184.347 307.02 184.321C307.277 184.288 307.485 184.264 307.644 184.247C307.805 184.229 307.923 184.199 307.996 184.156C308.071 184.114 308.109 184.041 308.109 183.936V183.914C308.109 183.643 308.035 183.432 307.886 183.282C307.739 183.132 307.517 183.056 307.218 183.056C306.908 183.056 306.665 183.124 306.489 183.26C306.313 183.396 306.189 183.54 306.118 183.694L305.502 183.474C305.612 183.218 305.759 183.018 305.942 182.875C306.127 182.73 306.329 182.629 306.547 182.572C306.767 182.514 306.983 182.484 307.196 182.484C307.332 182.484 307.487 182.501 307.663 182.534C307.841 182.565 308.013 182.63 308.178 182.729C308.344 182.828 308.483 182.978 308.593 183.177C308.703 183.377 308.758 183.645 308.758 183.98V186.763H308.109V186.191H308.076C308.032 186.283 307.958 186.381 307.856 186.486C307.753 186.59 307.617 186.679 307.446 186.752C307.276 186.826 307.068 186.862 306.822 186.862ZM306.921 186.279C307.178 186.279 307.394 186.229 307.57 186.128C307.748 186.027 307.881 185.897 307.971 185.738C308.063 185.578 308.109 185.41 308.109 185.234V184.64C308.081 184.673 308.021 184.704 307.927 184.731C307.836 184.757 307.729 184.78 307.608 184.8C307.489 184.818 307.373 184.835 307.259 184.849C307.147 184.862 307.057 184.873 306.987 184.882C306.818 184.904 306.661 184.94 306.514 184.99C306.369 185.037 306.252 185.11 306.162 185.207C306.074 185.302 306.03 185.432 306.03 185.597C306.03 185.823 306.113 185.993 306.28 186.109C306.449 186.222 306.662 186.279 306.921 186.279Z" fill="#525D61"/>
<path d="M298.849 186.763V182.539H299.476V183.199H299.531C299.619 182.974 299.761 182.799 299.957 182.674C300.153 182.548 300.389 182.484 300.664 182.484C300.942 182.484 301.174 182.548 301.359 182.674C301.546 182.799 301.692 182.974 301.797 183.199H301.841C301.949 182.981 302.111 182.808 302.327 182.68C302.544 182.549 302.803 182.484 303.106 182.484C303.483 182.484 303.792 182.603 304.032 182.839C304.272 183.074 304.393 183.44 304.393 183.936V186.763H303.744V183.936C303.744 183.625 303.658 183.402 303.488 183.268C303.317 183.134 303.117 183.067 302.886 183.067C302.589 183.067 302.359 183.157 302.195 183.337C302.032 183.515 301.951 183.74 301.951 184.013V186.763H301.291V183.87C301.291 183.63 301.213 183.437 301.057 183.29C300.901 183.142 300.7 183.067 300.455 183.067C300.286 183.067 300.128 183.112 299.982 183.202C299.837 183.292 299.719 183.417 299.63 183.576C299.542 183.734 299.498 183.916 299.498 184.123V186.763H298.849Z" fill="#525D61"/>
<path d="M295.944 186.851C295.562 186.851 295.228 186.761 294.94 186.579C294.654 186.398 294.43 186.144 294.269 185.817C294.11 185.491 294.03 185.11 294.03 184.673C294.03 184.233 294.11 183.849 294.269 183.521C294.43 183.193 294.654 182.938 294.94 182.757C295.228 182.575 295.562 182.484 295.944 182.484C296.325 182.484 296.659 182.575 296.945 182.757C297.233 182.938 297.456 183.193 297.616 183.521C297.777 183.849 297.858 184.233 297.858 184.673C297.858 185.11 297.777 185.491 297.616 185.817C297.456 186.144 297.233 186.398 296.945 186.579C296.659 186.761 296.325 186.851 295.944 186.851ZM295.944 186.268C296.233 186.268 296.472 186.194 296.659 186.046C296.846 185.897 296.984 185.702 297.074 185.46C297.164 185.218 297.209 184.956 297.209 184.673C297.209 184.391 297.164 184.128 297.074 183.884C296.984 183.64 296.846 183.443 296.659 183.293C296.472 183.143 296.233 183.067 295.944 183.067C295.654 183.067 295.416 183.143 295.229 183.293C295.042 183.443 294.903 183.64 294.814 183.884C294.724 184.128 294.679 184.391 294.679 184.673C294.679 184.956 294.724 185.218 294.814 185.46C294.903 185.702 295.042 185.897 295.229 186.046C295.416 186.194 295.654 186.268 295.944 186.268Z" fill="#525D61"/>
<path d="M290.488 186.765H288.75V181.133H290.565C291.111 181.133 291.579 181.246 291.967 181.471C292.356 181.695 292.654 182.016 292.861 182.436C293.068 182.854 293.172 183.355 293.172 183.938C293.172 184.524 293.067 185.03 292.858 185.453C292.649 185.875 292.345 186.199 291.945 186.426C291.546 186.652 291.06 186.765 290.488 186.765ZM289.432 186.16H290.444C290.91 186.16 291.296 186.07 291.602 185.89C291.908 185.711 292.136 185.455 292.286 185.123C292.437 184.791 292.512 184.396 292.512 183.938C292.512 183.483 292.438 183.092 292.289 182.764C292.141 182.434 291.919 182.181 291.624 182.005C291.329 181.827 290.961 181.738 290.521 181.738H289.432V186.16Z" fill="#525D61"/>
<path d="M294.482 175.632V170H296.385C296.825 170 297.187 170.075 297.469 170.225C297.751 170.374 297.96 170.578 298.096 170.839C298.232 171.099 298.299 171.395 298.299 171.727C298.299 172.059 298.232 172.353 298.096 172.61C297.96 172.866 297.752 173.068 297.472 173.215C297.191 173.36 296.833 173.432 296.396 173.432H294.856V172.816H296.374C296.675 172.816 296.917 172.772 297.1 172.684C297.286 172.596 297.419 172.471 297.502 172.31C297.586 172.147 297.628 171.952 297.628 171.727C297.628 171.501 297.586 171.304 297.502 171.136C297.418 170.967 297.283 170.837 297.098 170.745C296.912 170.652 296.668 170.605 296.363 170.605H295.164V175.632H294.482ZM297.133 173.102L298.519 175.632H297.727L296.363 173.102H297.133Z" fill="#525D61"/>
<path d="M288.75 175.632V170H289.432V172.508H292.435V170H293.117V175.632H292.435V173.113H289.432V175.632H288.75Z" fill="#525D61"/>
<path d="M102.429 64.3981V66.9391H101.78V62.7152H102.407V63.3751H102.462C102.561 63.1606 102.712 62.9883 102.913 62.8582C103.115 62.7262 103.375 62.6602 103.694 62.6602C103.98 62.6602 104.23 62.7188 104.445 62.8362C104.659 62.9517 104.826 63.1276 104.945 63.3641C105.065 63.5988 105.124 63.8958 105.124 64.2551V66.9391H104.475V64.2991C104.475 63.9673 104.389 63.7088 104.217 63.5236C104.044 63.3366 103.808 63.2431 103.507 63.2431C103.3 63.2431 103.115 63.2881 102.952 63.3779C102.79 63.4677 102.663 63.5988 102.57 63.7711C102.476 63.9435 102.429 64.1525 102.429 64.3981Z" fill="#525D61"/>
<path d="M99.9425 66.9407V62.7168H100.592V66.9407H99.9425ZM100.273 62.0128C100.146 62.0128 100.037 61.9697 99.9453 61.8836C99.8555 61.7974 99.8105 61.6938 99.8105 61.5728C99.8105 61.4518 99.8555 61.3482 99.9453 61.2621C100.037 61.1759 100.146 61.1328 100.273 61.1328C100.399 61.1328 100.507 61.1759 100.597 61.2621C100.689 61.3482 100.735 61.4518 100.735 61.5728C100.735 61.6938 100.689 61.7974 100.597 61.8836C100.507 61.9697 100.399 62.0128 100.273 62.0128Z" fill="#525D61"/>
<path d="M96.8218 67.0381C96.5542 67.0381 96.3113 66.9877 96.0931 66.8869C95.8749 66.7842 95.7017 66.6366 95.5734 66.4441C95.445 66.2498 95.3809 66.0151 95.3809 65.7401C95.3809 65.4981 95.4285 65.302 95.5239 65.1516C95.6192 64.9995 95.7466 64.8803 95.9061 64.7941C96.0656 64.708 96.2416 64.6438 96.4341 64.6016C96.6284 64.5576 96.8237 64.5228 97.0198 64.4971C97.2765 64.4641 97.4846 64.4394 97.6441 64.4229C97.8054 64.4046 97.9227 64.3743 97.9961 64.3321C98.0712 64.29 98.1088 64.2166 98.1088 64.1121V64.0901C98.1088 63.8188 98.0346 63.608 97.8861 63.4576C97.7394 63.3073 97.5167 63.2321 97.2178 63.2321C96.908 63.2321 96.6651 63.3 96.4891 63.4356C96.3131 63.5713 96.1893 63.7161 96.1179 63.8701L95.5019 63.6501C95.6119 63.3935 95.7585 63.1936 95.9419 63.0507C96.127 62.9058 96.3287 62.805 96.5468 62.7482C96.7668 62.6895 96.9832 62.6602 97.1958 62.6602C97.3315 62.6602 97.4873 62.6767 97.6633 62.7097C97.8412 62.7408 98.0126 62.8059 98.1776 62.9049C98.3444 63.0039 98.4828 63.1533 98.5928 63.3531C98.7028 63.553 98.7578 63.8206 98.7578 64.1561V66.9391H98.1088V66.3671H98.0758C98.0318 66.4588 97.9585 66.5569 97.8558 66.6614C97.7532 66.7659 97.6166 66.8548 97.4461 66.9281C97.2756 67.0014 97.0675 67.0381 96.8218 67.0381ZM96.9208 66.4551C97.1775 66.4551 97.3938 66.4047 97.5698 66.3039C97.7477 66.203 97.8815 66.0729 97.9713 65.9134C98.063 65.7539 98.1088 65.5861 98.1088 65.4101V64.8161C98.0813 64.8491 98.0208 64.8794 97.9273 64.9069C97.8357 64.9325 97.7293 64.9555 97.6083 64.9756C97.4892 64.994 97.3728 65.0105 97.2591 65.0251C97.1473 65.038 97.0565 65.049 96.9868 65.0581C96.8182 65.0801 96.6605 65.1159 96.5138 65.1654C96.369 65.213 96.2517 65.2855 96.1619 65.3826C96.0739 65.478 96.0299 65.6081 96.0299 65.7731C96.0299 65.9986 96.1133 66.1691 96.2801 66.2846C96.4488 66.3983 96.6623 66.4551 96.9208 66.4551Z" fill="#525D61"/>
<path d="M88.8486 66.9391V62.7152H89.4756V63.3751H89.5306C89.6186 63.1496 89.7607 62.9746 89.9569 62.8499C90.153 62.7234 90.3886 62.6602 90.6636 62.6602C90.9423 62.6602 91.1742 62.7234 91.3594 62.8499C91.5463 62.9746 91.6921 63.1496 91.7966 63.3751H91.8406C91.9488 63.157 92.111 62.9837 92.3273 62.8554C92.5437 62.7252 92.8031 62.6602 93.1056 62.6602C93.4832 62.6602 93.7922 62.7784 94.0323 63.0149C94.2725 63.2496 94.3926 63.6153 94.3926 64.1121V66.9391H93.7436V64.1121C93.7436 63.8005 93.6583 63.5777 93.4878 63.4439C93.3173 63.3101 93.1166 63.2431 92.8856 63.2431C92.5886 63.2431 92.3585 63.333 92.1953 63.5126C92.0322 63.6905 91.9506 63.916 91.9506 64.1891V66.9391H91.2906V64.0461C91.2906 63.806 91.2127 63.6126 91.0569 63.4659C90.901 63.3174 90.7003 63.2431 90.4546 63.2431C90.2859 63.2431 90.1283 63.2881 89.9816 63.3779C89.8368 63.4677 89.7195 63.5924 89.6296 63.7519C89.5416 63.9096 89.4976 64.092 89.4976 64.2991V66.9391H88.8486Z" fill="#525D61"/>
<path d="M85.9438 67.0271C85.5624 67.0271 85.2279 66.9364 84.94 66.7549C84.654 66.5734 84.4304 66.3194 84.269 65.9931C84.1095 65.6668 84.0298 65.2855 84.0298 64.8491C84.0298 64.4091 84.1095 64.0251 84.269 63.6969C84.4304 63.3687 84.654 63.1139 84.94 62.9324C85.2279 62.7509 85.5624 62.6602 85.9438 62.6602C86.3251 62.6602 86.6588 62.7509 86.9447 62.9324C87.2326 63.1139 87.4562 63.3687 87.6157 63.6969C87.7771 64.0251 87.8577 64.4091 87.8577 64.8491C87.8577 65.2855 87.7771 65.6668 87.6157 65.9931C87.4562 66.3194 87.2326 66.5734 86.9447 66.7549C86.6588 66.9364 86.3251 67.0271 85.9438 67.0271ZM85.9438 66.4441C86.2334 66.4441 86.4718 66.3699 86.6588 66.2214C86.8457 66.0729 86.9842 65.8776 87.074 65.6356C87.1638 65.3936 87.2087 65.1315 87.2087 64.8491C87.2087 64.5668 87.1638 64.3037 87.074 64.0599C86.9842 63.8161 86.8457 63.619 86.6588 63.4686C86.4718 63.3183 86.2334 63.2431 85.9438 63.2431C85.6541 63.2431 85.4158 63.3183 85.2288 63.4686C85.0418 63.619 84.9034 63.8161 84.8135 64.0599C84.7237 64.3037 84.6788 64.5668 84.6788 64.8491C84.6788 65.1315 84.7237 65.3936 84.8135 65.6356C84.9034 65.8776 85.0418 66.0729 85.2288 66.2214C85.4158 66.3699 85.6541 66.4441 85.9438 66.4441Z" fill="#525D61"/>
<path d="M80.488 66.9405H78.75V61.3086H80.565C81.1113 61.3086 81.5788 61.4213 81.9675 61.6468C82.3561 61.8705 82.654 62.1922 82.8612 62.6121C83.0684 63.0301 83.1719 63.5306 83.1719 64.1136C83.1719 64.7002 83.0674 65.2053 82.8584 65.6288C82.6495 66.0505 82.3451 66.3749 81.9455 66.6023C81.5458 66.8278 81.06 66.9405 80.488 66.9405ZM79.432 66.3355H80.444C80.9096 66.3355 81.2956 66.2457 81.6017 66.066C81.9079 65.8864 82.1361 65.6306 82.2865 65.2988C82.4368 64.967 82.512 64.5719 82.512 64.1136C82.512 63.6589 82.4377 63.2675 82.2892 62.9393C82.1407 62.6093 81.9189 62.3563 81.6237 62.1803C81.3286 62.0025 80.961 61.9136 80.521 61.9136H79.432V66.3355Z" fill="#525D61"/>
<path d="M112.227 57.4802C111.914 57.4802 111.644 57.4399 111.419 57.3592C111.193 57.2804 111.005 57.1759 110.855 57.0457C110.706 56.9174 110.588 56.7799 110.5 56.6332L111.017 56.2702C111.076 56.3472 111.15 56.4352 111.24 56.5342C111.33 56.6351 111.453 56.7221 111.608 56.7955C111.766 56.8706 111.972 56.9082 112.227 56.9082C112.568 56.9082 112.85 56.8257 113.071 56.6607C113.293 56.4957 113.404 56.2372 113.404 55.8852V55.0273H113.349C113.302 55.1043 113.234 55.1996 113.146 55.3132C113.06 55.4251 112.935 55.525 112.772 55.613C112.61 55.6992 112.392 55.7422 112.117 55.7422C111.776 55.7422 111.47 55.6616 111.199 55.5002C110.929 55.3389 110.716 55.1043 110.558 54.7963C110.402 54.4883 110.324 54.1143 110.324 53.6743C110.324 53.2416 110.4 52.8649 110.552 52.544C110.705 52.2214 110.916 51.972 111.188 51.796C111.459 51.6182 111.773 51.5293 112.128 51.5293C112.403 51.5293 112.621 51.5751 112.783 51.6668C112.946 51.7566 113.071 51.8593 113.157 51.9748C113.245 52.0885 113.313 52.182 113.36 52.2553H113.426V51.5843H114.053V55.9292C114.053 56.2922 113.971 56.5874 113.806 56.8147C113.643 57.0439 113.423 57.2116 113.146 57.318C112.871 57.4261 112.565 57.4802 112.227 57.4802ZM112.205 55.1593C112.466 55.1593 112.686 55.0997 112.865 54.9805C113.045 54.8613 113.181 54.6899 113.275 54.4663C113.368 54.2426 113.415 53.9749 113.415 53.6633C113.415 53.3589 113.369 53.0904 113.278 52.8575C113.186 52.6247 113.05 52.4423 112.871 52.3103C112.691 52.1783 112.469 52.1123 112.205 52.1123C111.93 52.1123 111.701 52.182 111.518 52.3213C111.336 52.4606 111.2 52.6476 111.108 52.8823C111.018 53.1169 110.973 53.3773 110.973 53.6633C110.973 53.9566 111.019 54.216 111.111 54.4415C111.204 54.6652 111.342 54.8412 111.523 54.9695C111.707 55.096 111.934 55.1593 112.205 55.1593Z" fill="#525D61"/>
<path d="M106.642 53.2673V55.8082H105.993V51.5843H106.62V52.2443H106.675C106.774 52.0298 106.924 51.8575 107.126 51.7273C107.327 51.5953 107.588 51.5293 107.907 51.5293C108.193 51.5293 108.443 51.588 108.657 51.7053C108.872 51.8208 109.039 51.9968 109.158 52.2333C109.277 52.468 109.337 52.7649 109.337 53.1243V55.8082H108.688V53.1683C108.688 52.8364 108.601 52.578 108.429 52.3928C108.257 52.2058 108.02 52.1123 107.72 52.1123C107.512 52.1123 107.327 52.1572 107.164 52.247C107.003 52.3369 106.875 52.468 106.782 52.6403C106.688 52.8126 106.642 53.0216 106.642 53.2673Z" fill="#525D61"/>
<path d="M104.155 55.8079V51.584H104.804V55.8079H104.155ZM104.485 50.88C104.358 50.88 104.249 50.8369 104.158 50.7507C104.068 50.6646 104.023 50.561 104.023 50.44C104.023 50.319 104.068 50.2154 104.158 50.1292C104.249 50.0431 104.358 50 104.485 50C104.611 50 104.72 50.0431 104.809 50.1292C104.901 50.2154 104.947 50.319 104.947 50.44C104.947 50.561 104.901 50.6646 104.809 50.7507C104.72 50.8369 104.611 50.88 104.485 50.88Z" fill="#525D61"/>
<path d="M103.179 51.5843V52.1342H100.99V51.5843H103.179ZM101.628 50.5723H102.277V54.5982C102.277 54.7815 102.303 54.919 102.356 55.0107C102.411 55.1005 102.481 55.161 102.565 55.1922C102.652 55.2215 102.742 55.2362 102.838 55.2362C102.909 55.2362 102.968 55.2325 103.014 55.2252C103.06 55.216 103.096 55.2087 103.124 55.2032L103.256 55.7862C103.212 55.8027 103.15 55.8192 103.071 55.8357C102.993 55.854 102.893 55.8632 102.772 55.8632C102.588 55.8632 102.409 55.8238 102.233 55.7449C102.059 55.6661 101.914 55.546 101.798 55.3847C101.685 55.2234 101.628 55.0199 101.628 54.7742V50.5723Z" fill="#525D61"/>
<path d="M98.6052 55.8962C98.1982 55.8962 97.8471 55.8064 97.552 55.6267C97.2586 55.4452 97.0322 55.1923 96.8727 54.8678C96.7151 54.5414 96.6362 54.1619 96.6362 53.7293C96.6362 53.2966 96.7151 52.9153 96.8727 52.5853C97.0322 52.2535 97.2541 51.995 97.5382 51.8098C97.8242 51.6228 98.1579 51.5293 98.5392 51.5293C98.7592 51.5293 98.9765 51.566 99.1909 51.6393C99.4054 51.7126 99.6007 51.8318 99.7767 51.9968C99.9527 52.16 100.093 52.3763 100.197 52.6458C100.302 52.9153 100.354 53.2471 100.354 53.6413V53.9163H97.0982V53.3553H99.6942C99.6942 53.1169 99.6465 52.9043 99.5512 52.7173C99.4577 52.5303 99.3239 52.3827 99.1497 52.2745C98.9774 52.1664 98.7739 52.1123 98.5392 52.1123C98.2807 52.1123 98.057 52.1765 97.8682 52.3048C97.6812 52.4313 97.5373 52.5963 97.4365 52.7998C97.3356 53.0033 97.2852 53.2214 97.2852 53.4543V53.8283C97.2852 54.1473 97.3402 54.4177 97.4502 54.6395C97.5621 54.8595 97.717 55.0273 97.915 55.1428C98.113 55.2564 98.343 55.3132 98.6052 55.3132C98.7757 55.3132 98.9297 55.2894 99.0672 55.2417C99.2065 55.1923 99.3266 55.1189 99.4274 55.0218C99.5283 54.9228 99.6062 54.7999 99.6612 54.6533L100.288 54.8293C100.222 55.0419 100.111 55.2289 99.9554 55.3902C99.7996 55.5497 99.6071 55.6744 99.3779 55.7642C99.1488 55.8522 98.8912 55.8962 98.6052 55.8962Z" fill="#525D61"/>
<path d="M93.4009 54.2677L93.3899 53.4647H93.5219L95.3699 51.5838H96.1729L94.2039 53.5747H94.1489L93.4009 54.2677ZM92.7959 55.8077V50.1758H93.4449V55.8077H92.7959ZM95.4799 55.8077L93.8299 53.7177L94.2919 53.2667L96.3049 55.8077H95.4799Z" fill="#525D61"/>
<path d="M89.915 55.8075V51.5836H90.542V52.2216H90.586C90.663 52.0126 90.8024 51.843 91.004 51.7128C91.2057 51.5827 91.433 51.5176 91.686 51.5176C91.7337 51.5176 91.7933 51.5185 91.8648 51.5203C91.9363 51.5222 91.9903 51.5249 92.027 51.5286V52.1886C92.005 52.1831 91.9546 52.1748 91.8758 52.1638C91.7988 52.151 91.7172 52.1446 91.631 52.1446C91.4257 52.1446 91.2424 52.1877 91.081 52.2738C90.9215 52.3582 90.795 52.4755 90.7015 52.6258C90.6099 52.7743 90.564 52.9439 90.564 53.1346V55.8075H89.915Z" fill="#525D61"/>
<path d="M86.7945 55.9072C86.5268 55.9072 86.2839 55.8568 86.0658 55.756C85.8476 55.6533 85.6743 55.5057 85.546 55.3132C85.4177 55.1189 85.3535 54.8843 85.3535 54.6093C85.3535 54.3673 85.4012 54.1711 85.4965 54.0208C85.5918 53.8686 85.7193 53.7494 85.8788 53.6633C86.0383 53.5771 86.2143 53.5129 86.4068 53.4708C86.6011 53.4268 86.7963 53.3919 86.9925 53.3663C87.2492 53.3333 87.4572 53.3085 87.6167 53.292C87.7781 53.2737 87.8954 53.2434 87.9687 53.2013C88.0439 53.1591 88.0815 53.0858 88.0815 52.9813V52.9593C88.0815 52.6879 88.0072 52.4771 87.8587 52.3268C87.7121 52.1765 87.4893 52.1013 87.1905 52.1013C86.8807 52.1013 86.6377 52.1691 86.4618 52.3048C86.2858 52.4405 86.162 52.5853 86.0905 52.7393L85.4745 52.5193C85.5845 52.2626 85.7312 52.0628 85.9145 51.9198C86.0997 51.775 86.3013 51.6741 86.5195 51.6173C86.7395 51.5586 86.9558 51.5293 87.1685 51.5293C87.3042 51.5293 87.46 51.5458 87.636 51.5788C87.8138 51.61 87.9852 51.675 88.1502 51.774C88.3171 51.873 88.4555 52.0225 88.5655 52.2223C88.6755 52.4221 88.7305 52.6898 88.7305 53.0253V55.8082H88.0815V55.2362H88.0485C88.0045 55.3279 87.9311 55.426 87.8285 55.5305C87.7258 55.635 87.5892 55.7239 87.4187 55.7972C87.2482 55.8706 87.0402 55.9072 86.7945 55.9072ZM86.8935 55.3242C87.1502 55.3242 87.3665 55.2738 87.5425 55.173C87.7203 55.0722 87.8542 54.942 87.944 54.7825C88.0356 54.623 88.0815 54.4553 88.0815 54.2793V53.6853C88.054 53.7183 87.9935 53.7485 87.9 53.776C87.8083 53.8017 87.702 53.8246 87.581 53.8448C87.4618 53.8631 87.3454 53.8796 87.2317 53.8943C87.1199 53.9071 87.0292 53.9181 86.9595 53.9273C86.7908 53.9493 86.6332 53.985 86.4865 54.0345C86.3417 54.0822 86.2243 54.1546 86.1345 54.2518C86.0465 54.3471 86.0025 54.4773 86.0025 54.6423C86.0025 54.8678 86.0859 55.0383 86.2528 55.1538C86.4214 55.2674 86.635 55.3242 86.8935 55.3242Z" fill="#525D61"/>
<path d="M78.75 50.1758H79.564L81.478 54.8507H81.544L83.4579 50.1758H84.2719V55.8077H83.6339V51.5288H83.5789L81.819 55.8077H81.203L79.443 51.5288H79.388V55.8077H78.75V50.1758Z" fill="#525D61"/>
<path d="M305.649 63.3981V65.9391H305V61.7152H305.627V62.3751H305.682C305.781 62.1606 305.932 61.9883 306.133 61.8582C306.335 61.7262 306.595 61.6602 306.914 61.6602C307.2 61.6602 307.451 61.7188 307.665 61.8362C307.88 61.9517 308.047 62.1276 308.166 62.3641C308.285 62.5988 308.344 62.8958 308.344 63.2551V65.9391H307.695V63.2991C307.695 62.9673 307.609 62.7088 307.437 62.5236C307.265 62.3366 307.028 62.2431 306.727 62.2431C306.52 62.2431 306.335 62.2881 306.172 62.3779C306.011 62.4677 305.883 62.5988 305.79 62.7711C305.696 62.9435 305.649 63.1525 305.649 63.3981Z" fill="#525D61"/>
<path d="M303.163 65.9407V61.7168H303.812V65.9407H303.163ZM303.493 61.0128C303.366 61.0128 303.257 60.9697 303.166 60.8836C303.076 60.7974 303.031 60.6938 303.031 60.5728C303.031 60.4518 303.076 60.3482 303.166 60.2621C303.257 60.1759 303.366 60.1328 303.493 60.1328C303.619 60.1328 303.727 60.1759 303.817 60.2621C303.909 60.3482 303.955 60.4518 303.955 60.5728C303.955 60.6938 303.909 60.7974 303.817 60.8836C303.727 60.9697 303.619 61.0128 303.493 61.0128Z" fill="#525D61"/>
<path d="M300.042 66.0381C299.774 66.0381 299.531 65.9877 299.313 65.8869C299.095 65.7842 298.922 65.6366 298.794 65.4441C298.665 65.2498 298.601 65.0151 298.601 64.7401C298.601 64.4981 298.649 64.302 298.744 64.1516C298.839 63.9995 298.967 63.8803 299.126 63.7941C299.286 63.708 299.462 63.6438 299.654 63.6016C299.849 63.5576 300.044 63.5228 300.24 63.4971C300.497 63.4641 300.705 63.4394 300.864 63.4229C301.026 63.4046 301.143 63.3743 301.216 63.3321C301.291 63.29 301.329 63.2166 301.329 63.1121V63.0901C301.329 62.8188 301.255 62.608 301.106 62.4576C300.96 62.3073 300.737 62.2321 300.438 62.2321C300.128 62.2321 299.885 62.3 299.709 62.4356C299.533 62.5713 299.41 62.7161 299.338 62.8701L298.722 62.6501C298.832 62.3935 298.979 62.1936 299.162 62.0507C299.347 61.9058 299.549 61.805 299.767 61.7482C299.987 61.6895 300.203 61.6602 300.416 61.6602C300.552 61.6602 300.708 61.6767 300.884 61.7097C301.061 61.7408 301.233 61.8059 301.398 61.9049C301.565 62.0039 301.703 62.1533 301.813 62.3531C301.923 62.553 301.978 62.8206 301.978 63.1561V65.9391H301.329V65.3671H301.296C301.252 65.4588 301.179 65.5569 301.076 65.6614C300.973 65.7659 300.837 65.8548 300.666 65.9281C300.496 66.0014 300.288 66.0381 300.042 66.0381ZM300.141 65.4551C300.398 65.4551 300.614 65.4047 300.79 65.3039C300.968 65.203 301.102 65.0729 301.192 64.9134C301.283 64.7539 301.329 64.5861 301.329 64.4101V63.8161C301.302 63.8491 301.241 63.8794 301.148 63.9069C301.056 63.9325 300.95 63.9555 300.829 63.9756C300.709 63.994 300.593 64.0105 300.479 64.0251C300.367 64.038 300.277 64.049 300.207 64.0581C300.038 64.0801 299.881 64.1159 299.734 64.1654C299.589 64.213 299.472 64.2855 299.382 64.3826C299.294 64.478 299.25 64.6081 299.25 64.7731C299.25 64.9986 299.333 65.1691 299.5 65.2846C299.669 65.3983 299.883 65.4551 300.141 65.4551Z" fill="#525D61"/>
<path d="M292.068 65.9391V61.7152H292.695V62.3751H292.75C292.838 62.1496 292.98 61.9746 293.177 61.8499C293.373 61.7234 293.608 61.6602 293.883 61.6602C294.162 61.6602 294.394 61.7234 294.579 61.8499C294.766 61.9746 294.912 62.1496 295.016 62.3751H295.06C295.168 62.157 295.331 61.9837 295.547 61.8554C295.763 61.7252 296.023 61.6602 296.325 61.6602C296.703 61.6602 297.012 61.7784 297.252 62.0149C297.492 62.2496 297.612 62.6153 297.612 63.1121V65.9391H296.963V63.1121C296.963 62.8005 296.878 62.5777 296.708 62.4439C296.537 62.3101 296.336 62.2431 296.105 62.2431C295.808 62.2431 295.578 62.333 295.415 62.5126C295.252 62.6905 295.17 62.916 295.17 63.1891V65.9391H294.51V63.0461C294.51 62.806 294.432 62.6126 294.277 62.4659C294.121 62.3174 293.92 62.2431 293.674 62.2431C293.506 62.2431 293.348 62.2881 293.201 62.3779C293.057 62.4677 292.939 62.5924 292.849 62.7519C292.761 62.9096 292.717 63.092 292.717 63.2991V65.9391H292.068Z" fill="#525D61"/>
<path d="M289.164 66.0271C288.783 66.0271 288.448 65.9364 288.16 65.7549C287.874 65.5734 287.651 65.3194 287.489 64.9931C287.33 64.6668 287.25 64.2855 287.25 63.8491C287.25 63.4091 287.33 63.0251 287.489 62.6969C287.651 62.3687 287.874 62.1139 288.16 61.9324C288.448 61.7509 288.783 61.6602 289.164 61.6602C289.545 61.6602 289.879 61.7509 290.165 61.9324C290.453 62.1139 290.676 62.3687 290.836 62.6969C290.997 63.0251 291.078 63.4091 291.078 63.8491C291.078 64.2855 290.997 64.6668 290.836 64.9931C290.676 65.3194 290.453 65.5734 290.165 65.7549C289.879 65.9364 289.545 66.0271 289.164 66.0271ZM289.164 65.4441C289.454 65.4441 289.692 65.3699 289.879 65.2214C290.066 65.0729 290.204 64.8776 290.294 64.6356C290.384 64.3936 290.429 64.1315 290.429 63.8491C290.429 63.5668 290.384 63.3037 290.294 63.0599C290.204 62.8161 290.066 62.619 289.879 62.4686C289.692 62.3183 289.454 62.2431 289.164 62.2431C288.874 62.2431 288.636 62.3183 288.449 62.4686C288.262 62.619 288.124 62.8161 288.034 63.0599C287.944 63.3037 287.899 63.5668 287.899 63.8491C287.899 64.1315 287.944 64.3936 288.034 64.6356C288.124 64.8776 288.262 65.0729 288.449 65.2214C288.636 65.3699 288.874 65.4441 289.164 65.4441Z" fill="#525D61"/>
<path d="M283.708 65.9405H281.97V60.3086H283.785C284.332 60.3086 284.799 60.4213 285.188 60.6468C285.576 60.8705 285.874 61.1922 286.081 61.6121C286.289 62.0301 286.392 62.5306 286.392 63.1136C286.392 63.7002 286.288 64.2053 286.079 64.6288C285.87 65.0505 285.565 65.3749 285.166 65.6023C284.766 65.8278 284.28 65.9405 283.708 65.9405ZM282.652 65.3355H283.664C284.13 65.3355 284.516 65.2457 284.822 65.066C285.128 64.8864 285.356 64.6306 285.507 64.2988C285.657 63.967 285.732 63.5719 285.732 63.1136C285.732 62.6589 285.658 62.2675 285.509 61.9393C285.361 61.6093 285.139 61.3563 284.844 61.1803C284.549 61.0025 284.181 60.9136 283.741 60.9136H282.652V65.3355Z" fill="#525D61"/>
<path d="M321.045 51.5303L320.462 51.6953C320.426 51.5981 320.371 51.5037 320.3 51.412C320.23 51.3185 320.135 51.2415 320.014 51.181C319.893 51.1205 319.738 51.0903 319.549 51.0903C319.291 51.0903 319.075 51.1499 318.903 51.269C318.732 51.3864 318.647 51.5358 318.647 51.7173C318.647 51.8786 318.706 52.006 318.823 52.0995C318.941 52.193 319.124 52.2709 319.373 52.3333L320 52.4873C320.378 52.5789 320.659 52.7192 320.844 52.908C321.03 53.095 321.122 53.3361 321.122 53.6313C321.122 53.8733 321.053 54.0896 320.913 54.2802C320.776 54.4709 320.583 54.6212 320.336 54.7312C320.088 54.8412 319.8 54.8962 319.472 54.8962C319.041 54.8962 318.685 54.8027 318.402 54.6157C318.12 54.4287 317.941 54.1556 317.866 53.7963L318.482 53.6423C318.541 53.8696 318.652 54.0401 318.815 54.1538C318.98 54.2674 319.195 54.3242 319.461 54.3242C319.764 54.3242 320.004 54.2601 320.182 54.1318C320.361 54.0016 320.451 53.8458 320.451 53.6643C320.451 53.5176 320.4 53.3948 320.297 53.2958C320.195 53.1949 320.037 53.1198 319.824 53.0703L319.12 52.9053C318.733 52.8136 318.449 52.6715 318.268 52.479C318.088 52.2847 317.998 52.0418 317.998 51.7503C317.998 51.512 318.065 51.3011 318.199 51.1178C318.335 50.9345 318.519 50.7905 318.752 50.686C318.986 50.5815 319.252 50.5293 319.549 50.5293C319.967 50.5293 320.295 50.621 320.534 50.8043C320.774 50.9876 320.944 51.2296 321.045 51.5303Z" fill="#525D61"/>
<path d="M314.172 52.2673V54.8082H313.523V50.5843H314.15V51.2443H314.205C314.304 51.0298 314.454 50.8575 314.656 50.7273C314.858 50.5953 315.118 50.5293 315.437 50.5293C315.723 50.5293 315.973 50.588 316.188 50.7053C316.402 50.8208 316.569 50.9968 316.688 51.2333C316.807 51.468 316.867 51.7649 316.867 52.1243V54.8082H316.218V52.1683C316.218 51.8364 316.132 51.578 315.959 51.3928C315.787 51.2058 315.551 51.1123 315.25 51.1123C315.043 51.1123 314.858 51.1572 314.694 51.247C314.533 51.3369 314.406 51.468 314.312 51.6403C314.219 51.8126 314.172 52.0216 314.172 52.2673Z" fill="#525D61"/>
<path d="M310.619 54.8962C310.237 54.8962 309.903 54.8055 309.615 54.624C309.329 54.4425 309.105 54.1886 308.944 53.8623C308.784 53.5359 308.705 53.1546 308.705 52.7183C308.705 52.2783 308.784 51.8942 308.944 51.566C309.105 51.2379 309.329 50.983 309.615 50.8015C309.903 50.62 310.237 50.5293 310.619 50.5293C311 50.5293 311.334 50.62 311.62 50.8015C311.907 50.983 312.131 51.2379 312.291 51.566C312.452 51.8942 312.533 52.2783 312.533 52.7183C312.533 53.1546 312.452 53.5359 312.291 53.8623C312.131 54.1886 311.907 54.4425 311.62 54.624C311.334 54.8055 311 54.8962 310.619 54.8962ZM310.619 54.3132C310.908 54.3132 311.147 54.239 311.334 54.0905C311.521 53.942 311.659 53.7468 311.749 53.5048C311.839 53.2628 311.884 53.0006 311.884 52.7183C311.884 52.4359 311.839 52.1729 311.749 51.929C311.659 51.6852 311.521 51.4881 311.334 51.3378C311.147 51.1875 310.908 51.1123 310.619 51.1123C310.329 51.1123 310.091 51.1875 309.904 51.3378C309.717 51.4881 309.578 51.6852 309.488 51.929C309.398 52.1729 309.354 52.4359 309.354 52.7183C309.354 53.0006 309.398 53.2628 309.488 53.5048C309.578 53.7468 309.717 53.942 309.904 54.0905C310.091 54.239 310.329 54.3132 310.619 54.3132Z" fill="#525D61"/>
<path d="M307.065 54.8079V50.584H307.714V54.8079H307.065ZM307.395 49.88C307.268 49.88 307.159 49.8369 307.067 49.7507C306.978 49.6646 306.933 49.561 306.933 49.44C306.933 49.319 306.978 49.2154 307.067 49.1292C307.159 49.0431 307.268 49 307.395 49C307.521 49 307.629 49.0431 307.719 49.1292C307.811 49.2154 307.857 49.319 307.857 49.44C307.857 49.561 307.811 49.6646 307.719 49.7507C307.629 49.8369 307.521 49.88 307.395 49.88Z" fill="#525D61"/>
<path d="M306.088 50.5843V51.1342H303.899V50.5843H306.088ZM304.537 49.5723H305.186V53.5982C305.186 53.7815 305.213 53.919 305.266 54.0107C305.321 54.1005 305.391 54.161 305.475 54.1922C305.561 54.2215 305.652 54.2362 305.747 54.2362C305.819 54.2362 305.878 54.2325 305.923 54.2252C305.969 54.216 306.006 54.2087 306.033 54.2032L306.165 54.7862C306.121 54.8027 306.06 54.8192 305.981 54.8357C305.902 54.854 305.802 54.8632 305.681 54.8632C305.498 54.8632 305.318 54.8238 305.142 54.7449C304.968 54.6661 304.823 54.546 304.708 54.3847C304.594 54.2234 304.537 54.0199 304.537 53.7742V49.5723Z" fill="#525D61"/>
<path d="M301.131 54.9072C300.863 54.9072 300.62 54.8568 300.402 54.756C300.184 54.6533 300.011 54.5057 299.882 54.3132C299.754 54.1189 299.69 53.8843 299.69 53.6093C299.69 53.3673 299.738 53.1711 299.833 53.0208C299.928 52.8686 300.056 52.7494 300.215 52.6633C300.375 52.5771 300.551 52.5129 300.743 52.4708C300.938 52.4268 301.133 52.3919 301.329 52.3663C301.586 52.3333 301.794 52.3085 301.953 52.292C302.114 52.2737 302.232 52.2434 302.305 52.2013C302.38 52.1591 302.418 52.0858 302.418 51.9813V51.9593C302.418 51.6879 302.344 51.4771 302.195 51.3268C302.048 51.1765 301.826 51.1013 301.527 51.1013C301.217 51.1013 300.974 51.1691 300.798 51.3048C300.622 51.4405 300.498 51.5853 300.427 51.7393L299.811 51.5193C299.921 51.2626 300.068 51.0628 300.251 50.9198C300.436 50.775 300.638 50.6741 300.856 50.6173C301.076 50.5586 301.292 50.5293 301.505 50.5293C301.641 50.5293 301.796 50.5458 301.972 50.5788C302.15 50.61 302.322 50.675 302.487 50.774C302.653 50.873 302.792 51.0225 302.902 51.2223C303.012 51.4221 303.067 51.6898 303.067 52.0253V54.8082H302.418V54.2362H302.385C302.341 54.3279 302.268 54.426 302.165 54.5305C302.062 54.635 301.926 54.7239 301.755 54.7972C301.585 54.8706 301.377 54.9072 301.131 54.9072ZM301.23 54.3242C301.487 54.3242 301.703 54.2738 301.879 54.173C302.057 54.0722 302.191 53.942 302.28 53.7825C302.372 53.623 302.418 53.4553 302.418 53.2793V52.6853C302.39 52.7183 302.33 52.7485 302.236 52.776C302.145 52.8017 302.038 52.8246 301.917 52.8448C301.798 52.8631 301.682 52.8796 301.568 52.8943C301.456 52.9071 301.366 52.9181 301.296 52.9273C301.127 52.9493 300.97 52.985 300.823 53.0345C300.678 53.0822 300.561 53.1546 300.471 53.2518C300.383 53.3471 300.339 53.4773 300.339 53.6423C300.339 53.8678 300.422 54.0383 300.589 54.1538C300.758 54.2674 300.971 54.3242 301.23 54.3242Z" fill="#525D61"/>
<path d="M297.007 54.8075V50.5836H297.634V51.2216H297.678C297.755 51.0126 297.894 50.843 298.096 50.7128C298.297 50.5827 298.525 50.5176 298.778 50.5176C298.825 50.5176 298.885 50.5185 298.957 50.5203C299.028 50.5222 299.082 50.5249 299.119 50.5286V51.1886C299.097 51.1831 299.046 51.1748 298.968 51.1638C298.891 51.151 298.809 51.1446 298.723 51.1446C298.517 51.1446 298.334 51.1877 298.173 51.2738C298.013 51.3582 297.887 51.4755 297.793 51.6258C297.702 51.7743 297.656 51.9439 297.656 52.1346V54.8075H297.007Z" fill="#525D61"/>
<path d="M294.271 54.8962C293.864 54.8962 293.513 54.8064 293.217 54.6267C292.924 54.4452 292.698 54.1923 292.538 53.8678C292.381 53.5414 292.302 53.1619 292.302 52.7293C292.302 52.2966 292.381 51.9153 292.538 51.5853C292.698 51.2535 292.92 50.995 293.204 50.8098C293.49 50.6228 293.823 50.5293 294.205 50.5293C294.425 50.5293 294.642 50.566 294.856 50.6393C295.071 50.7126 295.266 50.8318 295.442 50.9968C295.618 51.16 295.758 51.3763 295.863 51.6458C295.967 51.9153 296.02 52.2471 296.02 52.6413V52.9163H292.764V52.3553H295.36C295.36 52.1169 295.312 51.9043 295.217 51.7173C295.123 51.5303 294.989 51.3827 294.815 51.2745C294.643 51.1664 294.439 51.1123 294.205 51.1123C293.946 51.1123 293.723 51.1765 293.534 51.3048C293.347 51.4313 293.203 51.5963 293.102 51.7998C293.001 52.0033 292.951 52.2214 292.951 52.4543V52.8283C292.951 53.1473 293.006 53.4177 293.116 53.6395C293.228 53.8595 293.382 54.0273 293.58 54.1428C293.778 54.2564 294.009 54.3132 294.271 54.3132C294.441 54.3132 294.595 54.2894 294.733 54.2417C294.872 54.1923 294.992 54.1189 295.093 54.0218C295.194 53.9228 295.272 53.7999 295.327 53.6533L295.954 53.8293C295.888 54.0419 295.777 54.2289 295.621 54.3902C295.465 54.5497 295.273 54.6744 295.043 54.7642C294.814 54.8522 294.557 54.8962 294.271 54.8962Z" fill="#525D61"/>
<path d="M287.781 56.3922V50.5843H288.408V51.2553H288.485C288.532 51.182 288.598 51.0885 288.683 50.9748C288.769 50.8593 288.892 50.7566 289.051 50.6668C289.213 50.5751 289.431 50.5293 289.706 50.5293C290.061 50.5293 290.375 50.6182 290.646 50.796C290.918 50.9739 291.129 51.226 291.281 51.5523C291.434 51.8786 291.51 52.2636 291.51 52.7073C291.51 53.1546 291.434 53.5423 291.281 53.8705C291.129 54.1968 290.918 54.4498 290.649 54.6295C290.379 54.8073 290.069 54.8962 289.717 54.8962C289.445 54.8962 289.228 54.8513 289.065 54.7615C288.902 54.6698 288.776 54.5662 288.688 54.4507C288.6 54.3334 288.532 54.2362 288.485 54.1593H288.43V56.3922H287.781ZM288.419 52.6963C288.419 53.0153 288.466 53.2967 288.559 53.5405C288.653 53.7825 288.789 53.9723 288.969 54.1098C289.148 54.2454 289.368 54.3132 289.629 54.3132C289.9 54.3132 290.126 54.2417 290.308 54.0988C290.491 53.9539 290.629 53.7596 290.72 53.5158C290.814 53.2701 290.861 52.9969 290.861 52.6963C290.861 52.3993 290.815 52.1316 290.723 51.8933C290.633 51.6531 290.497 51.4634 290.313 51.324C290.132 51.1829 289.904 51.1123 289.629 51.1123C289.365 51.1123 289.143 51.1792 288.963 51.313C288.784 51.445 288.648 51.6302 288.556 51.8685C288.465 52.105 288.419 52.3809 288.419 52.6963Z" fill="#525D61"/>
<path d="M286.722 51.9926C286.722 52.5866 286.615 53.0999 286.4 53.5326C286.186 53.9652 285.891 54.2989 285.517 54.5335C285.143 54.7682 284.716 54.8855 284.236 54.8855C283.756 54.8855 283.328 54.7682 282.954 54.5335C282.58 54.2989 282.286 53.9652 282.072 53.5326C281.857 53.0999 281.75 52.5866 281.75 51.9926C281.75 51.3986 281.857 50.8853 282.072 50.4526C282.286 50.0199 282.58 49.6863 282.954 49.4516C283.328 49.2169 283.756 49.0996 284.236 49.0996C284.716 49.0996 285.143 49.2169 285.517 49.4516C285.891 49.6863 286.186 50.0199 286.4 50.4526C286.615 50.8853 286.722 51.3986 286.722 51.9926ZM286.062 51.9926C286.062 51.5049 285.98 51.0933 285.817 50.7578C285.656 50.4223 285.437 50.1684 285.16 49.9961C284.885 49.8238 284.577 49.7376 284.236 49.7376C283.895 49.7376 283.586 49.8238 283.309 49.9961C283.034 50.1684 282.815 50.4223 282.652 50.7578C282.491 51.0933 282.41 51.5049 282.41 51.9926C282.41 52.4802 282.491 52.8918 282.652 53.2273C282.815 53.5628 283.034 53.8167 283.309 53.989C283.586 54.1614 283.895 54.2475 284.236 54.2475C284.577 54.2475 284.885 54.1614 285.16 53.989C285.437 53.8167 285.656 53.5628 285.817 53.2273C285.98 52.8918 286.062 52.4802 286.062 51.9926Z" fill="#525D61"/>
<path d="M110.671 183.3V185.841H110.022V181.617H110.649V182.277H110.704C110.803 182.063 110.954 181.891 111.155 181.76C111.357 181.628 111.617 181.562 111.936 181.562C112.222 181.562 112.473 181.621 112.687 181.738C112.902 181.854 113.069 182.03 113.188 182.266C113.307 182.501 113.366 182.798 113.366 183.157V185.841H112.717V183.201C112.717 182.87 112.631 182.611 112.459 182.426C112.287 182.239 112.05 182.145 111.749 182.145C111.542 182.145 111.357 182.19 111.194 182.28C111.033 182.37 110.905 182.501 110.812 182.673C110.718 182.846 110.671 183.055 110.671 183.3Z" fill="#525D61"/>
<path d="M108.185 185.841V181.617H108.834V185.841H108.185ZM108.515 180.913C108.388 180.913 108.279 180.87 108.187 180.784C108.098 180.698 108.053 180.594 108.053 180.473C108.053 180.352 108.098 180.249 108.187 180.162C108.279 180.076 108.388 180.033 108.515 180.033C108.641 180.033 108.749 180.076 108.839 180.162C108.931 180.249 108.977 180.352 108.977 180.473C108.977 180.594 108.931 180.698 108.839 180.784C108.749 180.87 108.641 180.913 108.515 180.913Z" fill="#525D61"/>
<path d="M105.064 185.94C104.796 185.94 104.553 185.89 104.335 185.789C104.117 185.687 103.944 185.539 103.816 185.346C103.687 185.152 103.623 184.917 103.623 184.642C103.623 184.4 103.671 184.204 103.766 184.054C103.861 183.902 103.989 183.783 104.148 183.696C104.308 183.61 104.484 183.546 104.676 183.504C104.871 183.46 105.066 183.425 105.262 183.399C105.519 183.366 105.727 183.342 105.886 183.325C106.048 183.307 106.165 183.277 106.238 183.234C106.313 183.192 106.351 183.119 106.351 183.014V182.992C106.351 182.721 106.277 182.51 106.128 182.36C105.982 182.21 105.759 182.134 105.46 182.134C105.15 182.134 104.907 182.202 104.731 182.338C104.555 182.474 104.432 182.618 104.36 182.772L103.744 182.552C103.854 182.296 104.001 182.096 104.184 181.953C104.369 181.808 104.571 181.707 104.789 181.65C105.009 181.592 105.225 181.562 105.438 181.562C105.574 181.562 105.73 181.579 105.906 181.612C106.083 181.643 106.255 181.708 106.42 181.807C106.587 181.906 106.725 182.056 106.835 182.255C106.945 182.455 107 182.723 107 183.058V185.841H106.351V185.269H106.318C106.274 185.361 106.201 185.459 106.098 185.564C105.995 185.668 105.859 185.757 105.688 185.83C105.518 185.904 105.31 185.94 105.064 185.94ZM105.163 185.357C105.42 185.357 105.636 185.307 105.812 185.206C105.99 185.105 106.124 184.975 106.214 184.816C106.305 184.656 106.351 184.488 106.351 184.312V183.718C106.324 183.751 106.263 183.782 106.17 183.809C106.078 183.835 105.972 183.858 105.851 183.878C105.731 183.896 105.615 183.913 105.501 183.927C105.389 183.94 105.299 183.951 105.229 183.96C105.06 183.982 104.903 184.018 104.756 184.068C104.611 184.115 104.494 184.188 104.404 184.285C104.316 184.38 104.272 184.51 104.272 184.675C104.272 184.901 104.355 185.071 104.522 185.187C104.691 185.301 104.905 185.357 105.163 185.357Z" fill="#525D61"/>
<path d="M97.0903 185.841V181.617H97.7173V182.277H97.7723C97.8603 182.052 98.0024 181.877 98.1986 181.752C98.3947 181.626 98.6303 181.562 98.9053 181.562C99.184 181.562 99.4159 181.626 99.6011 181.752C99.788 181.877 99.9338 182.052 100.038 182.277H100.082C100.19 182.059 100.353 181.886 100.569 181.758C100.785 181.628 101.045 181.562 101.347 181.562C101.725 181.562 102.034 181.681 102.274 181.917C102.514 182.152 102.634 182.518 102.634 183.014V185.841H101.985V183.014C101.985 182.703 101.9 182.48 101.73 182.346C101.559 182.212 101.358 182.145 101.127 182.145C100.83 182.145 100.6 182.235 100.437 182.415C100.274 182.593 100.192 182.818 100.192 183.091V185.841H99.5323V182.948C99.5323 182.708 99.4544 182.515 99.2986 182.368C99.1427 182.22 98.942 182.145 98.6963 182.145C98.5276 182.145 98.37 182.19 98.2233 182.28C98.0785 182.37 97.9612 182.495 97.8713 182.654C97.7833 182.812 97.7393 182.994 97.7393 183.201V185.841H97.0903Z" fill="#525D61"/>
<path d="M94.1859 185.929C93.8046 185.929 93.47 185.839 93.1822 185.657C92.8962 185.476 92.6726 185.222 92.5112 184.895C92.3517 184.569 92.272 184.188 92.272 183.751C92.272 183.311 92.3517 182.927 92.5112 182.599C92.6726 182.271 92.8962 182.016 93.1822 181.835C93.47 181.653 93.8046 181.562 94.1859 181.562C94.5673 181.562 94.9009 181.653 95.1869 181.835C95.4748 182.016 95.6984 182.271 95.8579 182.599C96.0193 182.927 96.0999 183.311 96.0999 183.751C96.0999 184.188 96.0193 184.569 95.8579 184.895C95.6984 185.222 95.4748 185.476 95.1869 185.657C94.9009 185.839 94.5673 185.929 94.1859 185.929ZM94.1859 185.346C94.4756 185.346 94.7139 185.272 94.9009 185.124C95.0879 184.975 95.2264 184.78 95.3162 184.538C95.406 184.296 95.4509 184.034 95.4509 183.751C95.4509 183.469 95.406 183.206 95.3162 182.962C95.2264 182.718 95.0879 182.521 94.9009 182.371C94.7139 182.221 94.4756 182.145 94.1859 182.145C93.8963 182.145 93.658 182.221 93.471 182.371C93.284 182.521 93.1455 182.718 93.0557 182.962C92.9659 183.206 92.921 183.469 92.921 183.751C92.921 184.034 92.9659 184.296 93.0557 184.538C93.1455 184.78 93.284 184.975 93.471 185.124C93.658 185.272 93.8963 185.346 94.1859 185.346Z" fill="#525D61"/>
<path d="M88.7302 185.841H86.9922V180.209H88.8072C89.3535 180.209 89.821 180.322 90.2096 180.547C90.5983 180.771 90.8962 181.093 91.1034 181.512C91.3105 181.93 91.4141 182.431 91.4141 183.014C91.4141 183.601 91.3096 184.106 91.1006 184.529C90.8916 184.951 90.5873 185.275 90.1876 185.503C89.788 185.728 89.3022 185.841 88.7302 185.841ZM87.6742 185.236H88.6862C89.1518 185.236 89.5377 185.146 89.8439 184.966C90.1501 184.787 90.3783 184.531 90.5286 184.199C90.679 183.867 90.7541 183.472 90.7541 183.014C90.7541 182.559 90.6799 182.168 90.5314 181.84C90.3829 181.51 90.1611 181.257 89.8659 181.081C89.5707 180.903 89.2032 180.814 88.7632 180.814H87.6742V185.236Z" fill="#525D61"/>
<path d="M115.383 170.485V171.035H113.194V170.485H115.383ZM113.832 169.473H114.481V173.499C114.481 173.682 114.508 173.819 114.561 173.911C114.616 174.001 114.686 174.061 114.77 174.093C114.856 174.122 114.947 174.137 115.042 174.137C115.114 174.137 115.172 174.133 115.218 174.126C115.264 174.116 115.301 174.109 115.328 174.104L115.46 174.687C115.416 174.703 115.355 174.72 115.276 174.736C115.197 174.754 115.097 174.764 114.976 174.764C114.793 174.764 114.613 174.724 114.437 174.645C114.263 174.567 114.118 174.446 114.003 174.285C113.889 174.124 113.832 173.92 113.832 173.675V169.473Z" fill="#525D61"/>
<path d="M110.4 174.708V170.484H111.027V171.122H111.071C111.148 170.913 111.288 170.743 111.489 170.613C111.691 170.483 111.918 170.418 112.171 170.418C112.219 170.418 112.279 170.419 112.35 170.421C112.422 170.423 112.476 170.425 112.512 170.429V171.089C112.49 171.083 112.44 171.075 112.361 171.064C112.284 171.051 112.203 171.045 112.116 171.045C111.911 171.045 111.728 171.088 111.566 171.174C111.407 171.259 111.28 171.376 111.187 171.526C111.095 171.675 111.049 171.844 111.049 172.035V174.708H110.4Z" fill="#525D61"/>
<path d="M107.496 174.797C107.114 174.797 106.78 174.706 106.492 174.524C106.206 174.343 105.982 174.089 105.821 173.763C105.661 173.436 105.582 173.055 105.582 172.619C105.582 172.179 105.661 171.795 105.821 171.466C105.982 171.138 106.206 170.883 106.492 170.702C106.78 170.52 107.114 170.43 107.496 170.43C107.877 170.43 108.211 170.52 108.497 170.702C108.784 170.883 109.008 171.138 109.167 171.466C109.329 171.795 109.409 172.179 109.409 172.619C109.409 173.055 109.329 173.436 109.167 173.763C109.008 174.089 108.784 174.343 108.497 174.524C108.211 174.706 107.877 174.797 107.496 174.797ZM107.496 174.214C107.785 174.214 108.024 174.139 108.211 173.991C108.398 173.842 108.536 173.647 108.626 173.405C108.716 173.163 108.761 172.901 108.761 172.619C108.761 172.336 108.716 172.073 108.626 171.829C108.536 171.586 108.398 171.389 108.211 171.238C108.024 171.088 107.785 171.013 107.496 171.013C107.206 171.013 106.968 171.088 106.781 171.238C106.594 171.389 106.455 171.586 106.365 171.829C106.275 172.073 106.231 172.336 106.231 172.619C106.231 172.901 106.275 173.163 106.365 173.405C106.455 173.647 106.594 173.842 106.781 173.991C106.968 174.139 107.206 174.214 107.496 174.214Z" fill="#525D61"/>
<path d="M101.061 176.293V170.485H101.688V171.156H101.765C101.813 171.082 101.879 170.989 101.963 170.875C102.049 170.76 102.172 170.657 102.332 170.567C102.493 170.476 102.711 170.43 102.986 170.43C103.342 170.43 103.655 170.519 103.926 170.696C104.198 170.874 104.41 171.126 104.562 171.453C104.714 171.779 104.79 172.164 104.79 172.608C104.79 173.055 104.714 173.443 104.562 173.771C104.41 174.097 104.199 174.35 103.929 174.53C103.66 174.708 103.349 174.797 102.997 174.797C102.726 174.797 102.508 174.752 102.345 174.662C102.182 174.57 102.057 174.467 101.969 174.351C101.881 174.234 101.813 174.137 101.765 174.06H101.71V176.293H101.061ZM101.699 172.597C101.699 172.916 101.746 173.197 101.839 173.441C101.933 173.683 102.069 173.873 102.249 174.01C102.429 174.146 102.649 174.214 102.909 174.214C103.18 174.214 103.407 174.142 103.588 173.999C103.772 173.854 103.909 173.66 104.001 173.416C104.094 173.17 104.141 172.897 104.141 172.597C104.141 172.3 104.095 172.032 104.003 171.794C103.914 171.554 103.777 171.364 103.594 171.224C103.412 171.083 103.184 171.013 102.909 171.013C102.645 171.013 102.423 171.08 102.244 171.213C102.064 171.345 101.928 171.531 101.837 171.769C101.745 172.005 101.699 172.281 101.699 172.597Z" fill="#525D61"/>
<path d="M96.3418 176.293V170.485H96.9688V171.156H97.0458C97.0935 171.082 97.1595 170.989 97.2438 170.875C97.33 170.76 97.4528 170.657 97.6123 170.567C97.7736 170.476 97.9918 170.43 98.2668 170.43C98.6224 170.43 98.9359 170.519 99.2073 170.696C99.4786 170.874 99.6903 171.126 99.8425 171.453C99.9947 171.779 100.071 172.164 100.071 172.608C100.071 173.055 99.9947 173.443 99.8425 173.771C99.6903 174.097 99.4795 174.35 99.21 174.53C98.9405 174.708 98.6298 174.797 98.2778 174.797C98.0064 174.797 97.7892 174.752 97.626 174.662C97.4629 174.57 97.3373 174.467 97.2493 174.351C97.1613 174.234 97.0935 174.137 97.0458 174.06H96.9908V176.293H96.3418ZM96.9798 172.597C96.9798 172.916 97.0265 173.197 97.12 173.441C97.2135 173.683 97.3501 173.873 97.5298 174.01C97.7094 174.146 97.9294 174.214 98.1898 174.214C98.4611 174.214 98.6875 174.142 98.869 173.999C99.0523 173.854 99.1898 173.66 99.2815 173.416C99.375 173.17 99.4218 172.897 99.4218 172.597C99.4218 172.3 99.3759 172.032 99.2843 171.794C99.1944 171.554 99.0578 171.364 98.8745 171.224C98.693 171.083 98.4648 171.013 98.1898 171.013C97.9258 171.013 97.7039 171.08 97.5243 171.213C97.3446 171.345 97.209 171.531 97.1173 171.769C97.0256 172.005 96.9798 172.281 96.9798 172.597Z" fill="#525D61"/>
<path d="M94.5043 172.981V170.484H95.1532V174.708H94.5043V173.993H94.4603C94.3613 174.208 94.2073 174.39 93.9983 174.541C93.7893 174.689 93.5253 174.763 93.2063 174.763C92.9423 174.763 92.7076 174.706 92.5023 174.59C92.2969 174.473 92.1356 174.297 92.0183 174.062C91.901 173.826 91.8423 173.528 91.8423 173.168V170.484H92.4913V173.124C92.4913 173.432 92.5774 173.678 92.7498 173.861C92.9239 174.045 93.1458 174.136 93.4153 174.136C93.5766 174.136 93.7407 174.095 93.9075 174.013C94.0762 173.93 94.2173 173.804 94.331 173.633C94.4465 173.463 94.5043 173.245 94.5043 172.981Z" fill="#525D61"/>
<path d="M90.072 170.485C90.039 170.206 89.9051 169.99 89.6705 169.836C89.4358 169.682 89.148 169.605 88.807 169.605C88.5576 169.605 88.3395 169.645 88.1525 169.726C87.9673 169.807 87.8225 169.918 87.718 170.059C87.6153 170.2 87.564 170.36 87.564 170.54C87.564 170.69 87.5997 170.82 87.6712 170.928C87.7446 171.034 87.8381 171.123 87.9517 171.194C88.0654 171.264 88.1846 171.322 88.3092 171.368C88.4339 171.412 88.5485 171.447 88.653 171.475L89.225 171.629C89.3716 171.667 89.5348 171.721 89.7145 171.788C89.896 171.856 90.0692 171.949 90.2342 172.066C90.401 172.182 90.5385 172.33 90.6467 172.512C90.7549 172.693 90.8089 172.916 90.8089 173.18C90.8089 173.484 90.7292 173.759 90.5697 174.005C90.412 174.251 90.181 174.446 89.8767 174.591C89.5742 174.736 89.2066 174.808 88.774 174.808C88.3706 174.808 88.0214 174.743 87.7262 174.613C87.4329 174.483 87.2019 174.301 87.0332 174.068C86.8664 173.835 86.772 173.565 86.75 173.257H87.454C87.4723 173.47 87.5438 173.646 87.6685 173.785C87.795 173.922 87.9545 174.025 88.147 174.093C88.3413 174.159 88.5503 174.192 88.774 174.192C89.0343 174.192 89.2681 174.15 89.4752 174.065C89.6824 173.979 89.8465 173.86 89.9675 173.708C90.0885 173.554 90.149 173.374 90.149 173.169C90.149 172.982 90.0967 172.83 89.9922 172.712C89.8877 172.595 89.7502 172.5 89.5797 172.426C89.4092 172.353 89.225 172.289 89.027 172.234L88.334 172.036C87.894 171.909 87.5457 171.729 87.289 171.494C87.0323 171.26 86.904 170.952 86.904 170.573C86.904 170.258 86.9892 169.983 87.1597 169.748C87.3321 169.511 87.5631 169.328 87.8527 169.198C88.1442 169.066 88.4696 169 88.829 169C89.192 169 89.5146 169.065 89.797 169.195C90.0793 169.324 90.303 169.5 90.468 169.723C90.6348 169.947 90.7228 170.201 90.7319 170.485H90.072Z" fill="#525D61"/>
</svg>
