<svg width="88" height="89" viewBox="0 0 88 89" fill="none" xmlns="http://www.w3.org/2000/svg">
<path d="M0.5 12.5C0.5 6.14873 5.64873 1 12 1H76C82.3513 1 87.5 6.14873 87.5 12.5V76.5C87.5 82.8513 82.3513 88 76 88H12C5.64873 88 0.5 82.8513 0.5 76.5V12.5Z" stroke="#DDDFDA"/>
<path fill-rule="evenodd" clip-rule="evenodd" d="M54.8535 34.9602C54.9314 35.0458 55.0335 35.1085 55.1477 35.1409C56.802 35.5108 58.2558 36.4437 59.2341 37.7628C60.2125 39.082 60.6471 40.6959 60.4559 42.2988C60.2648 43.9018 59.4611 45.3827 58.1969 46.4609C56.933 47.5392 55.2962 48.14 53.5967 48.1497H48.4424V43.0339C48.4424 40.705 46.4535 38.8171 44 38.8171C41.5466 38.8171 39.5577 40.705 39.5577 43.0339V48.1497H36.1648C34.0158 48.2866 31.8976 47.6077 30.2761 46.2622C28.6546 44.9167 27.6625 43.0148 27.5183 40.975C27.374 38.9353 28.0893 36.9246 29.5067 35.3854C30.2086 34.6233 31.0617 33.9999 32.0174 33.5507C32.9731 33.1016 34.0127 32.8355 35.0767 32.7677C35.1871 32.77 35.2959 32.7422 35.3903 32.6877C35.4846 32.6332 35.5606 32.5542 35.6092 32.46C36.3432 30.4407 37.7843 28.7212 39.6923 27.5884C41.6002 26.4555 43.8596 25.9778 46.0937 26.2349C48.3278 26.4919 50.4016 27.4682 51.9691 29.0009C53.5368 30.5336 54.5035 32.5301 54.7078 34.6574C54.7251 34.7695 54.7753 34.8745 54.8535 34.9602Z" fill="white"/>
<path fill-rule="evenodd" clip-rule="evenodd" d="M54.8535 34.9602C54.9314 35.0458 55.0335 35.1085 55.1477 35.1409C56.802 35.5108 58.2558 36.4437 59.2341 37.7628C60.2125 39.082 60.6471 40.6959 60.4559 42.2988C60.2648 43.9018 59.4611 45.3827 58.1969 46.4609C56.933 47.5392 55.2962 48.14 53.5967 48.1497H48.4424V43.0339C48.4424 40.705 46.4535 38.8171 44 38.8171C41.5466 38.8171 39.5577 40.705 39.5577 43.0339V48.1497H36.1648C34.0158 48.2866 31.8976 47.6077 30.2761 46.2622C28.6546 44.9167 27.6625 43.0148 27.5183 40.975C27.374 38.9353 28.0893 36.9246 29.5067 35.3854C30.2086 34.6233 31.0617 33.9999 32.0174 33.5507C32.9731 33.1016 34.0127 32.8355 35.0767 32.7677C35.1871 32.77 35.2959 32.7422 35.3903 32.6877C35.4846 32.6332 35.5606 32.5542 35.6092 32.46C36.3432 30.4407 37.7843 28.7212 39.6923 27.5884C41.6002 26.4555 43.8596 25.9778 46.0937 26.2349C48.3278 26.4919 50.4016 27.4682 51.9691 29.0009C53.5368 30.5336 54.5035 32.5301 54.7078 34.6574C54.7251 34.7695 54.7753 34.8745 54.8535 34.9602Z" fill="#FFE9E4"/>
<path d="M49.6719 48.1497H53.5967C55.2962 48.14 56.933 47.5392 58.1969 46.4609C59.4611 45.3827 60.2648 43.9018 60.4559 42.2989C60.6471 40.6959 60.2125 39.082 59.2341 37.7628C58.2558 36.4437 56.802 35.5108 55.1477 35.1409C55.0335 35.1085 54.9314 35.0458 54.8535 34.9602C54.7753 34.8745 54.7251 34.7695 54.7078 34.6574C54.5035 32.5301 53.5368 30.5336 51.9691 29.0009C50.4016 27.4682 48.3278 26.4919 46.0937 26.2349C43.8596 25.9778 41.6002 26.4555 39.6923 27.5884C37.7843 28.7212 36.3432 30.4407 35.6092 32.46C35.5606 32.5542 35.4846 32.6332 35.3903 32.6877C35.2959 32.7422 35.1871 32.77 35.0767 32.7677C34.0127 32.8355 32.9731 33.1016 32.0174 33.5507C31.0617 33.9999 30.2086 34.6233 29.5067 35.3854C28.0893 36.9246 27.374 38.9353 27.5183 40.975C27.6625 43.0148 28.6546 44.9167 30.2761 46.2622C31.8976 47.6077 34.0158 48.2866 36.1648 48.1497H38.3678" stroke="#FF6849" stroke-width="1.5" stroke-linecap="round" stroke-linejoin="round"/>
<path d="M44 57.3337V42.667" stroke="#FF6849" stroke-width="1.5" stroke-linecap="round" stroke-linejoin="round"/>
<path d="M25.666 60.3887L43.9993 60.3887" stroke="#FF6849" stroke-width="1.5" stroke-linecap="round" stroke-linejoin="round"/>
<path d="M44 60.3887H62.3333" stroke="#FF6849" stroke-width="1.5" stroke-linecap="round" stroke-linejoin="round"/>
<path d="M40.334 59.1667C40.334 60.1391 40.7203 61.0718 41.4079 61.7594C42.0956 62.447 43.0282 62.8333 44.0007 62.8333C44.9731 62.8333 45.9057 62.447 46.5934 61.7594C47.281 61.0718 47.6673 60.1391 47.6673 59.1667C47.6673 58.1942 47.281 57.2616 46.5934 56.5739C45.9057 55.8863 44.9731 55.5 44.0007 55.5C43.0282 55.5 42.0956 55.8863 41.4079 56.5739C40.7203 57.2616 40.334 58.1942 40.334 59.1667Z" fill="white"/>
<path d="M40.334 59.1667C40.334 60.1391 40.7203 61.0718 41.4079 61.7594C42.0956 62.447 43.0282 62.8333 44.0007 62.8333C44.9731 62.8333 45.9057 62.447 46.5934 61.7594C47.281 61.0718 47.6673 60.1391 47.6673 59.1667C47.6673 58.1942 47.281 57.2616 46.5934 56.5739C45.9057 55.8863 44.9731 55.5 44.0007 55.5C43.0282 55.5 42.0956 55.8863 41.4079 56.5739C40.7203 57.2616 40.334 58.1942 40.334 59.1667Z" fill="#FFE9E4"/>
<path d="M40.334 59.1667C40.334 60.1391 40.7203 61.0718 41.4079 61.7594C42.0956 62.447 43.0282 62.8333 44.0007 62.8333C44.9731 62.8333 45.9057 62.447 46.5934 61.7594C47.281 61.0718 47.6673 60.1391 47.6673 59.1667C47.6673 58.1942 47.281 57.2616 46.5934 56.5739C45.9057 55.8863 44.9731 55.5 44.0007 55.5C43.0282 55.5 42.0956 55.8863 41.4079 56.5739C40.7203 57.2616 40.334 58.1942 40.334 59.1667Z" stroke="#FF6849" stroke-width="1.5" stroke-linecap="round" stroke-linejoin="round"/>
<path d="M25.666 62.8333V55.5H32.9993V62.8333H25.666Z" fill="white"/>
<path d="M25.666 62.8333V55.5H32.9993V62.8333H25.666Z" fill="#FFE9E4"/>
<path d="M25.666 62.8333V55.5H32.9993V62.8333H25.666Z" stroke="#FF6849" stroke-width="1.5" stroke-linecap="round" stroke-linejoin="round"/>
<path d="M55 62.8333V55.5H62.3333V62.8333H55Z" fill="white"/>
<path d="M55 62.8333V55.5H62.3333V62.8333H55Z" fill="#FFE9E4"/>
<path d="M55 62.8333V55.5H62.3333V62.8333H55Z" stroke="#FF6849" stroke-width="1.5" stroke-linecap="round" stroke-linejoin="round"/>
</svg>
