<svg width="64" height="64" viewBox="0 0 64 64" fill="none" xmlns="http://www.w3.org/2000/svg">
<path d="M0.5 12C0.5 5.64873 5.64873 0.5 12 0.5H52C58.3513 0.5 63.5 5.64873 63.5 12V52C63.5 58.3513 58.3513 63.5 52 63.5H12C5.64873 63.5 0.5 58.3513 0.5 52V12Z" stroke="#DDDFDA"/>
<path fill-rule="evenodd" clip-rule="evenodd" d="M41.7686 23.4138C41.8387 23.4909 41.9305 23.5474 42.0333 23.5765C43.5222 23.9095 44.8306 24.749 45.7111 25.9363C46.5916 27.1235 46.9827 28.576 46.8107 30.0187C46.6387 31.4614 45.9154 32.7941 44.7776 33.7645C43.6401 34.7349 42.167 35.2757 40.6374 35.2844H35.9985V30.6802C35.9985 28.5842 34.2085 26.8851 32.0004 26.8851C29.7923 26.8851 28.0023 28.5842 28.0023 30.6802V35.2844H24.9487C23.0146 35.4077 21.1083 34.7966 19.6489 33.5857C18.1895 32.3747 17.2967 30.6631 17.1668 28.8272C17.037 26.9914 17.6807 25.1819 18.9565 23.7966C19.5881 23.1107 20.356 22.5496 21.2161 22.1453C22.0762 21.7411 23.0118 21.5016 23.9694 21.4406C24.0688 21.4427 24.1667 21.4177 24.2517 21.3686C24.3366 21.3196 24.4049 21.2485 24.4486 21.1637C25.1093 19.3463 26.4063 17.7988 28.1234 16.7792C29.8406 15.7597 31.8741 15.3297 33.8848 15.5611C35.8955 15.7924 37.7618 16.6711 39.1725 18.0505C40.5835 19.43 41.4535 21.2268 41.6374 23.1414C41.653 23.2422 41.6982 23.3368 41.7686 23.4138Z" fill="white"/>
<path fill-rule="evenodd" clip-rule="evenodd" d="M41.7686 23.4138C41.8387 23.4909 41.9305 23.5474 42.0333 23.5765C43.5222 23.9095 44.8306 24.749 45.7111 25.9363C46.5916 27.1235 46.9827 28.576 46.8107 30.0187C46.6387 31.4614 45.9154 32.7941 44.7776 33.7645C43.6401 34.7349 42.167 35.2757 40.6374 35.2844H35.9985V30.6802C35.9985 28.5842 34.2085 26.8851 32.0004 26.8851C29.7923 26.8851 28.0023 28.5842 28.0023 30.6802V35.2844H24.9487C23.0146 35.4077 21.1083 34.7966 19.6489 33.5857C18.1895 32.3747 17.2967 30.6631 17.1668 28.8272C17.037 26.9914 17.6807 25.1819 18.9565 23.7966C19.5881 23.1107 20.356 22.5496 21.2161 22.1453C22.0762 21.7411 23.0118 21.5016 23.9694 21.4406C24.0688 21.4427 24.1667 21.4177 24.2517 21.3686C24.3366 21.3196 24.4049 21.2485 24.4486 21.1637C25.1093 19.3463 26.4063 17.7988 28.1234 16.7792C29.8406 15.7597 31.8741 15.3297 33.8848 15.5611C35.8955 15.7924 37.7618 16.6711 39.1725 18.0505C40.5835 19.43 41.4535 21.2268 41.6374 23.1414C41.653 23.2422 41.6982 23.3368 41.7686 23.4138Z" fill="#FFE9E4"/>
<path d="M37.1051 35.2844H40.6374C42.167 35.2757 43.6401 34.7349 44.7776 33.7645C45.9154 32.7941 46.6387 31.4614 46.8107 30.0187C46.9827 28.576 46.5916 27.1235 45.7111 25.9363C44.8306 24.749 43.5222 23.9095 42.0333 23.5765C41.9305 23.5474 41.8387 23.4909 41.7686 23.4138C41.6982 23.3367 41.653 23.2422 41.6374 23.1414C41.4535 21.2268 40.5835 19.43 39.1725 18.0505C37.7618 16.6711 35.8955 15.7924 33.8848 15.5611C31.8741 15.3297 29.8406 15.7597 28.1234 16.7792C26.4063 17.7988 25.1093 19.3463 24.4486 21.1637C24.4049 21.2485 24.3366 21.3196 24.2517 21.3686C24.1667 21.4177 24.0688 21.4427 23.9694 21.4406C23.0118 21.5016 22.0762 21.7411 21.2161 22.1453C20.356 22.5496 19.5881 23.1107 18.9565 23.7966C17.6807 25.1819 17.037 26.9914 17.1668 28.8272C17.2967 30.6631 18.1895 32.3747 19.6489 33.5857C21.1083 34.7966 23.0146 35.4077 24.9487 35.2844H26.9314" stroke="#FF6849" stroke-width="1.5" stroke-linecap="round" stroke-linejoin="round"/>
<path d="M32 43.5496V30.3496" stroke="#FF6849" stroke-width="1.5" stroke-linecap="round" stroke-linejoin="round"/>
<path d="M15.5 46.3008L32 46.3008" stroke="#FF6849" stroke-width="1.5" stroke-linecap="round" stroke-linejoin="round"/>
<path d="M32 46.3008H48.5" stroke="#FF6849" stroke-width="1.5" stroke-linecap="round" stroke-linejoin="round"/>
<path d="M28.7002 45.2004C28.7002 46.0756 29.0479 46.915 29.6667 47.5338C30.2856 48.1527 31.125 48.5004 32.0002 48.5004C32.8754 48.5004 33.7148 48.1527 34.3336 47.5338C34.9525 46.915 35.3002 46.0756 35.3002 45.2004C35.3002 44.3252 34.9525 43.4858 34.3336 42.8669C33.7148 42.2481 32.8754 41.9004 32.0002 41.9004C31.125 41.9004 30.2856 42.2481 29.6667 42.8669C29.0479 43.4858 28.7002 44.3252 28.7002 45.2004Z" fill="white"/>
<path d="M28.7002 45.2004C28.7002 46.0756 29.0479 46.915 29.6667 47.5338C30.2856 48.1527 31.125 48.5004 32.0002 48.5004C32.8754 48.5004 33.7148 48.1527 34.3336 47.5338C34.9525 46.915 35.3002 46.0756 35.3002 45.2004C35.3002 44.3252 34.9525 43.4858 34.3336 42.8669C33.7148 42.2481 32.8754 41.9004 32.0002 41.9004C31.125 41.9004 30.2856 42.2481 29.6667 42.8669C29.0479 43.4858 28.7002 44.3252 28.7002 45.2004Z" fill="#FFE9E4"/>
<path d="M28.7002 45.2004C28.7002 46.0756 29.0479 46.915 29.6667 47.5338C30.2856 48.1527 31.125 48.5004 32.0002 48.5004C32.8754 48.5004 33.7148 48.1527 34.3336 47.5338C34.9525 46.915 35.3002 46.0756 35.3002 45.2004C35.3002 44.3252 34.9525 43.4858 34.3336 42.8669C33.7148 42.2481 32.8754 41.9004 32.0002 41.9004C31.125 41.9004 30.2856 42.2481 29.6667 42.8669C29.0479 43.4858 28.7002 44.3252 28.7002 45.2004Z" stroke="#FF6849" stroke-width="1.5" stroke-linecap="round" stroke-linejoin="round"/>
<path d="M15.5 48.5004V41.9004H22.1V48.5004H15.5Z" fill="white"/>
<path d="M15.5 48.5004V41.9004H22.1V48.5004H15.5Z" fill="#FFE9E4"/>
<path d="M15.5 48.5004V41.9004H22.1V48.5004H15.5Z" stroke="#FF6849" stroke-width="1.5" stroke-linecap="round" stroke-linejoin="round"/>
<path d="M41.9004 48.5004V41.9004H48.5004V48.5004H41.9004Z" fill="white"/>
<path d="M41.9004 48.5004V41.9004H48.5004V48.5004H41.9004Z" fill="#FFE9E4"/>
<path d="M41.9004 48.5004V41.9004H48.5004V48.5004H41.9004Z" stroke="#FF6849" stroke-width="1.5" stroke-linecap="round" stroke-linejoin="round"/>
</svg>
