<svg width="54" height="54" viewBox="0 0 54 54" fill="none" xmlns="http://www.w3.org/2000/svg">
<path d="M0.5 12C0.5 5.64873 5.64873 0.5 12 0.5H42C48.3513 0.5 53.5 5.64873 53.5 12V42C53.5 48.3513 48.3513 53.5 42 53.5H12C5.64873 53.5 0.5 48.3513 0.5 42V12Z" stroke="#DDDFDA"/>
<path fill-rule="evenodd" clip-rule="evenodd" d="M33.5122 21.2759C33.559 21.3273 33.6202 21.3649 33.6887 21.3843C34.6813 21.6063 35.5536 22.166 36.1406 22.9575C36.7276 23.749 36.9883 24.7173 36.8736 25.6791C36.759 26.6409 36.2768 27.5294 35.5183 28.1763C34.7599 28.8233 33.7778 29.1838 32.7581 29.1896H29.6655V26.1201C29.6655 24.7228 28.4722 23.5901 27.0001 23.5901C25.5281 23.5901 24.3347 24.7228 24.3347 26.1201V29.1896H22.299C21.0096 29.2718 19.7387 28.8644 18.7658 28.0571C17.7928 27.2498 17.1976 26.1087 17.1111 24.8848C17.0245 23.661 17.4536 22.4546 18.3041 21.5311C18.7253 21.0738 19.2371 20.6997 19.8106 20.4302C20.384 20.1607 21.0077 20.0011 21.6461 19.9604C21.7124 19.9618 21.7777 19.9451 21.8343 19.9124C21.8909 19.8797 21.9364 19.8323 21.9656 19.7758C22.406 18.5642 23.2707 17.5325 24.4155 16.8528C25.5602 16.1731 26.9159 15.8865 28.2563 16.0407C29.5968 16.195 30.8411 16.7807 31.7815 17.7004C32.7222 18.62 33.3022 19.8179 33.4248 21.0943C33.4351 21.1615 33.4653 21.2245 33.5122 21.2759Z" fill="white"/>
<path fill-rule="evenodd" clip-rule="evenodd" d="M33.5122 21.2759C33.559 21.3273 33.6202 21.3649 33.6887 21.3843C34.6813 21.6063 35.5536 22.166 36.1406 22.9575C36.7276 23.749 36.9883 24.7173 36.8736 25.6791C36.759 26.6409 36.2768 27.5294 35.5183 28.1763C34.7599 28.8233 33.7778 29.1838 32.7581 29.1896H29.6655V26.1201C29.6655 24.7228 28.4722 23.5901 27.0001 23.5901C25.5281 23.5901 24.3347 24.7228 24.3347 26.1201V29.1896H22.299C21.0096 29.2718 19.7387 28.8644 18.7658 28.0571C17.7928 27.2498 17.1976 26.1087 17.1111 24.8848C17.0245 23.661 17.4536 22.4546 18.3041 21.5311C18.7253 21.0738 19.2371 20.6997 19.8106 20.4302C20.384 20.1607 21.0077 20.0011 21.6461 19.9604C21.7124 19.9618 21.7777 19.9451 21.8343 19.9124C21.8909 19.8797 21.9364 19.8323 21.9656 19.7758C22.406 18.5642 23.2707 17.5325 24.4155 16.8528C25.5602 16.1731 26.9159 15.8865 28.2563 16.0407C29.5968 16.195 30.8411 16.7807 31.7815 17.7004C32.7222 18.62 33.3022 19.8179 33.4248 21.0943C33.4351 21.1615 33.4653 21.2245 33.5122 21.2759Z" fill="#FFE9E4"/>
<path d="M30.4033 29.1896H32.7581C33.7778 29.1838 34.7599 28.8233 35.5183 28.1763C36.2767 27.5294 36.759 26.6409 36.8736 25.6791C36.9883 24.7173 36.7276 23.749 36.1406 22.9575C35.5536 22.166 34.6813 21.6063 33.6887 21.3843C33.6202 21.3649 33.559 21.3273 33.5122 21.2759C33.4653 21.2245 33.4351 21.1615 33.4248 21.0943C33.3022 19.8179 32.7222 18.62 31.7815 17.7004C30.8411 16.7807 29.5968 16.195 28.2563 16.0407C26.9159 15.8865 25.5602 16.1731 24.4155 16.8528C23.2707 17.5325 22.406 18.5642 21.9656 19.7758C21.9364 19.8323 21.8909 19.8797 21.8343 19.9124C21.7777 19.9451 21.7124 19.9618 21.6461 19.9604C21.0077 20.0011 20.384 20.1607 19.8106 20.4302C19.2371 20.6997 18.7253 21.0738 18.3041 21.5311C17.4536 22.4546 17.0245 23.661 17.1111 24.8848C17.1976 26.1087 17.7928 27.2498 18.7658 28.0571C19.7387 28.8644 21.0096 29.2718 22.299 29.1896H23.6208" stroke="#FF6849" stroke-width="1.5" stroke-linecap="round" stroke-linejoin="round"/>
<path d="M27 34.6984V25.8984" stroke="#FF6849" stroke-width="1.5" stroke-linecap="round" stroke-linejoin="round"/>
<path d="M16 36.5352L27 36.5352" stroke="#FF6849" stroke-width="1.5" stroke-linecap="round" stroke-linejoin="round"/>
<path d="M27 36.5352H38" stroke="#FF6849" stroke-width="1.5" stroke-linecap="round" stroke-linejoin="round"/>
<path d="M24.8 35.8016C24.8 36.385 25.0318 36.9446 25.4444 37.3572C25.857 37.7698 26.4166 38.0016 27 38.0016C27.5835 38.0016 28.1431 37.7698 28.5557 37.3572C28.9683 36.9446 29.2 36.385 29.2 35.8016C29.2 35.2181 28.9683 34.6585 28.5557 34.2459C28.1431 33.8333 27.5835 33.6016 27 33.6016C26.4166 33.6016 25.857 33.8333 25.4444 34.2459C25.0318 34.6585 24.8 35.2181 24.8 35.8016Z" fill="white"/>
<path d="M24.8 35.8016C24.8 36.385 25.0318 36.9446 25.4444 37.3572C25.857 37.7698 26.4166 38.0016 27 38.0016C27.5835 38.0016 28.1431 37.7698 28.5557 37.3572C28.9683 36.9446 29.2 36.385 29.2 35.8016C29.2 35.2181 28.9683 34.6585 28.5557 34.2459C28.1431 33.8333 27.5835 33.6016 27 33.6016C26.4166 33.6016 25.857 33.8333 25.4444 34.2459C25.0318 34.6585 24.8 35.2181 24.8 35.8016Z" fill="#FFE9E4"/>
<path d="M24.8 35.8016C24.8 36.385 25.0318 36.9446 25.4444 37.3572C25.857 37.7698 26.4166 38.0016 27 38.0016C27.5835 38.0016 28.1431 37.7698 28.5557 37.3572C28.9683 36.9446 29.2 36.385 29.2 35.8016C29.2 35.2181 28.9683 34.6585 28.5557 34.2459C28.1431 33.8333 27.5835 33.6016 27 33.6016C26.4166 33.6016 25.857 33.8333 25.4444 34.2459C25.0318 34.6585 24.8 35.2181 24.8 35.8016Z" stroke="#FF6849" stroke-width="1.5" stroke-linecap="round" stroke-linejoin="round"/>
<path d="M16 38.0016V33.6016H20.4V38.0016H16Z" fill="white"/>
<path d="M16 38.0016V33.6016H20.4V38.0016H16Z" fill="#FFE9E4"/>
<path d="M16 38.0016V33.6016H20.4V38.0016H16Z" stroke="#FF6849" stroke-width="1.5" stroke-linecap="round" stroke-linejoin="round"/>
<path d="M33.6001 38.0016V33.6016H38.0001V38.0016H33.6001Z" fill="white"/>
<path d="M33.6001 38.0016V33.6016H38.0001V38.0016H33.6001Z" fill="#FFE9E4"/>
<path d="M33.6001 38.0016V33.6016H38.0001V38.0016H33.6001Z" stroke="#FF6849" stroke-width="1.5" stroke-linecap="round" stroke-linejoin="round"/>
</svg>
