<svg width="729" height="496" viewBox="0 0 729 496" fill="none" xmlns="http://www.w3.org/2000/svg">
<path d="M378 171.023C373.05 168.164 370 162.882 370 157.166L370 115.641C370 109.925 373.05 104.643 378 101.785L413.962 81.0225C418.912 78.1644 425.011 78.1644 429.962 81.0225L465.923 101.785C470.873 104.643 473.923 109.925 473.923 115.641L473.923 157.166C473.923 162.882 470.873 168.164 465.923 171.023L429.962 191.785C425.011 194.643 418.912 194.643 413.962 191.785L378 171.023Z" fill="#E5EFFF"/>
<path d="M421.113 143.559C425.042 143.559 431.693 142.872 431.693 140.303V125.656C431.693 123.087 425.042 122.4 421.113 122.4C417.184 122.4 410.534 123.087 410.534 125.656V140.303C410.534 142.872 417.184 143.559 421.113 143.559ZM421.113 141.932C415.682 141.932 412.441 140.851 412.163 140.305V137.294C414.383 138.35 418.398 138.676 421.113 138.676C423.829 138.676 427.854 138.346 430.074 137.294V140.248C429.786 140.851 426.545 141.932 421.113 141.932ZM421.113 124.029C426.375 124.029 429.581 125.044 430.039 125.656C429.581 126.27 426.377 127.283 421.113 127.283C415.85 127.283 412.645 126.268 412.188 125.656C412.646 125.044 415.852 124.029 421.113 124.029ZM412.163 127.529C414.383 128.585 418.398 128.912 421.113 128.912C423.829 128.912 427.846 128.585 430.064 127.529V130.489C429.747 131.095 426.515 132.165 421.113 132.165C415.682 132.165 412.441 131.084 412.163 130.538V127.529ZM412.163 132.411C414.383 133.468 418.398 133.794 421.113 133.794C423.829 133.794 427.85 133.464 430.07 132.411V135.367C429.768 135.974 426.532 137.05 421.113 137.05C415.682 137.05 412.441 135.968 412.163 135.423V132.411Z" fill="#303540"/>
<path d="M404.839 160.647H437.387C438.735 160.647 439.828 159.554 439.828 158.206V123.215C439.855 121.958 439.355 120.747 438.451 119.874L431.778 113.2C430.904 112.296 429.693 111.797 428.436 111.823H404.839C403.49 111.823 402.397 112.916 402.397 114.264V158.206C402.397 159.554 403.49 160.647 404.839 160.647ZM437.389 159.02H404.839C404.389 159.02 404.024 158.656 404.024 158.206V147.627H438.201V158.206C438.201 158.422 438.115 158.63 437.963 158.782C437.81 158.935 437.602 159.02 437.387 159.02L437.389 159.02ZM437.051 120.776L432.504 120.774C431.606 120.774 430.878 120.045 430.878 119.147V114.602L437.051 120.776ZM404.839 113.45H428.436C428.652 113.45 428.859 113.536 429.012 113.689C429.165 113.841 429.25 114.049 429.25 114.265V119.147C429.25 120.011 429.592 120.839 430.204 121.449C430.814 122.059 431.642 122.402 432.504 122.402H437.386C437.602 122.402 437.81 122.488 437.962 122.641C438.115 122.793 438.201 122.999 438.201 123.215V146H404.024V114.265C404.024 113.814 404.388 113.45 404.839 113.45Z" fill="#303540"/>
<path d="M444 281.05C439.05 278.192 436 272.91 436 267.193L436 225.669C436 219.952 439.05 214.67 444 211.812L479.962 191.05C484.912 188.192 491.011 188.192 495.962 191.05L531.923 211.812C536.873 214.67 539.923 219.952 539.923 225.669L539.923 267.193C539.923 272.91 536.873 278.192 531.923 281.05L495.962 301.812C491.011 304.67 484.912 304.67 479.962 301.812L444 281.05Z" fill="#1A76FF"/>
<path d="M487.113 253.586C491.042 253.586 497.693 252.9 497.693 250.331V235.683C497.693 233.114 491.042 232.428 487.113 232.428C483.184 232.428 476.534 233.114 476.534 235.683V250.331C476.534 252.899 483.184 253.586 487.113 253.586ZM487.113 251.959C481.682 251.959 478.441 250.878 478.163 250.332V247.321C480.383 248.378 484.398 248.704 487.113 248.704C489.829 248.704 493.854 248.374 496.074 247.321V250.275C495.786 250.878 492.545 251.959 487.113 251.959ZM487.113 234.057C492.375 234.057 495.581 235.071 496.039 235.683C495.581 236.297 492.377 237.31 487.113 237.31C481.85 237.31 478.645 236.296 478.188 235.683C478.646 235.071 481.852 234.057 487.113 234.057ZM478.163 237.556C480.383 238.613 484.398 238.939 487.113 238.939C489.829 238.939 493.846 238.613 496.064 237.556V240.516C495.747 241.123 492.515 242.193 487.113 242.193C481.682 242.193 478.441 241.111 478.163 240.566V237.556ZM478.163 242.439C480.383 243.495 484.398 243.821 487.113 243.821C489.829 243.821 493.85 243.491 496.07 242.439V245.395C495.768 246.001 492.532 247.077 487.113 247.077C481.682 247.077 478.441 245.996 478.163 245.45V242.439Z" fill="#F9F8F6"/>
<path d="M470.839 270.675H503.387C504.735 270.675 505.828 269.582 505.828 268.233V233.242C505.855 231.985 505.355 230.774 504.451 229.901L497.778 223.228C496.904 222.324 495.693 221.824 494.436 221.851H470.839C469.49 221.851 468.397 222.943 468.397 224.292V268.233C468.397 269.582 469.49 270.675 470.839 270.675ZM503.389 269.048H470.839C470.389 269.048 470.024 268.684 470.024 268.233V257.654H504.201V268.233C504.201 268.449 504.115 268.657 503.963 268.809C503.81 268.962 503.602 269.048 503.387 269.048L503.389 269.048ZM503.051 230.803L498.504 230.801C497.606 230.801 496.878 230.073 496.878 229.174V224.629L503.051 230.803ZM470.839 223.477H494.436C494.652 223.477 494.859 223.563 495.012 223.716C495.165 223.868 495.25 224.076 495.25 224.292V229.174C495.25 230.038 495.592 230.866 496.204 231.476C496.814 232.087 497.642 232.43 498.504 232.43H503.386C503.602 232.43 503.81 232.516 503.962 232.668C504.115 232.821 504.201 233.027 504.201 233.242V256.027H470.024V224.292C470.024 223.842 470.388 223.477 470.839 223.477Z" fill="#F9F8F6"/>
<path d="M299.621 276.543L244 308.656C240.906 310.443 239 313.744 239 317.316L239 375.769C239 379.342 240.906 382.643 244 384.43L294.621 413.656C297.715 415.443 301.527 415.443 304.621 413.656L355.243 384.43C358.337 382.643 360.243 379.342 360.243 375.769L360.243 311.543" stroke="#FF6849" stroke-dasharray="4 8"/>
<path d="M256 381.05C251.05 378.192 248 372.91 248 367.193L248 325.669C248 319.952 251.05 314.67 256 311.812L291.962 291.05C296.912 288.192 303.011 288.192 307.962 291.05L343.923 311.812C348.873 314.67 351.923 319.952 351.923 325.669L351.923 367.193C351.923 372.91 348.873 378.192 343.923 381.05L307.962 401.812C303.011 404.67 296.912 404.67 291.962 401.812L256 381.05Z" fill="#E5EFFF"/>
<path d="M299.113 353.586C303.042 353.586 309.693 352.9 309.693 350.331V335.683C309.693 333.114 303.042 332.428 299.113 332.428C295.184 332.428 288.534 333.114 288.534 335.683V350.331C288.534 352.899 295.184 353.586 299.113 353.586ZM299.113 351.959C293.682 351.959 290.441 350.878 290.163 350.332V347.321C292.383 348.378 296.398 348.704 299.113 348.704C301.829 348.704 305.854 348.374 308.074 347.321V350.275C307.786 350.878 304.545 351.959 299.113 351.959ZM299.113 334.057C304.375 334.057 307.581 335.071 308.039 335.683C307.581 336.297 304.377 337.31 299.113 337.31C293.85 337.31 290.645 336.296 290.188 335.683C290.646 335.071 293.852 334.057 299.113 334.057ZM290.163 337.556C292.383 338.613 296.398 338.939 299.113 338.939C301.829 338.939 305.846 338.613 308.064 337.556V340.516C307.747 341.123 304.515 342.193 299.113 342.193C293.682 342.193 290.441 341.111 290.163 340.566V337.556ZM290.163 342.439C292.383 343.495 296.398 343.821 299.113 343.821C301.829 343.821 305.85 343.491 308.07 342.439V345.395C307.768 346.001 304.532 347.077 299.113 347.077C293.682 347.077 290.441 345.996 290.163 345.45V342.439Z" fill="#303540"/>
<path d="M282.839 370.675H315.387C316.735 370.675 317.828 369.582 317.828 368.233V333.242C317.855 331.985 317.355 330.774 316.451 329.901L309.778 323.228C308.904 322.324 307.693 321.824 306.436 321.851H282.839C281.49 321.851 280.397 322.943 280.397 324.292V368.233C280.397 369.582 281.49 370.675 282.839 370.675ZM315.389 369.048H282.839C282.389 369.048 282.024 368.684 282.024 368.233V357.654H316.201V368.233C316.201 368.449 316.115 368.657 315.963 368.809C315.81 368.962 315.602 369.048 315.387 369.048L315.389 369.048ZM315.051 330.803L310.504 330.801C309.606 330.801 308.878 330.073 308.878 329.174V324.629L315.051 330.803ZM282.839 323.477H306.436C306.652 323.477 306.859 323.563 307.012 323.716C307.165 323.868 307.25 324.076 307.25 324.292V329.174C307.25 330.038 307.592 330.866 308.204 331.476C308.814 332.087 309.642 332.43 310.504 332.43H315.386C315.602 332.43 315.81 332.516 315.962 332.668C316.115 332.821 316.201 333.027 316.201 333.242V356.027H282.024V324.292C282.024 323.842 282.388 323.477 282.839 323.477Z" fill="#303540"/>
<path d="M300 276.543L300 212.316C300 208.744 301.906 205.443 305 203.656L360.621 171.543M421.243 206.543L421.243 270.769C421.243 274.342 419.337 277.643 416.243 279.43L360.621 311.543" stroke="#FF6849" stroke-dasharray="4 8"/>
<path d="M381 382.052C376.05 379.194 373 373.912 373 368.195L373 326.671C373 320.954 376.05 315.672 381 312.814L416.962 292.052C421.912 289.194 428.011 289.194 432.962 292.052L468.923 312.814C473.873 315.672 476.923 320.954 476.923 326.671L476.923 368.195C476.923 373.912 473.873 379.194 468.923 382.052L432.962 402.814C428.011 405.672 421.912 405.672 416.962 402.814L381 382.052Z" fill="#1A76FF"/>
<path d="M424.815 354.521C428.731 354.521 435.361 353.836 435.361 351.276V336.675C435.361 334.114 428.732 333.43 424.815 333.43C420.899 333.43 414.27 334.114 414.27 336.675V351.276C414.27 353.836 420.899 354.521 424.815 354.521ZM424.815 352.899C419.401 352.899 416.171 351.821 415.893 351.278V348.276C418.106 349.329 422.108 349.654 424.815 349.654C427.522 349.654 431.534 349.325 433.747 348.276V351.221C433.46 351.821 430.23 352.899 424.815 352.899ZM424.815 335.053C430.06 335.053 433.256 336.065 433.712 336.675C433.256 337.287 430.062 338.297 424.815 338.297C419.568 338.297 416.374 337.285 415.918 336.675C416.374 336.065 419.57 335.053 424.815 335.053ZM415.893 338.542C418.106 339.595 422.108 339.92 424.815 339.92C427.522 339.92 431.526 339.595 433.737 338.542V341.492C433.422 342.097 430.199 343.164 424.815 343.164C419.401 343.164 416.171 342.086 415.893 341.542V338.542ZM415.893 343.409C418.106 344.462 422.108 344.787 424.815 344.787C427.522 344.787 431.53 344.458 433.743 343.409V346.356C433.443 346.96 430.216 348.032 424.815 348.032C419.401 348.032 416.171 346.954 415.893 346.411V343.409Z" fill="#F9F8F6"/>
<path d="M408.593 371.555H441.037C442.381 371.555 443.471 370.465 443.471 369.121V334.241C443.497 332.988 442.999 331.781 442.098 330.91L435.446 324.258C434.575 323.357 433.368 322.859 432.115 322.886H408.593C407.249 322.886 406.159 323.975 406.159 325.319V369.121C406.159 370.465 407.249 371.555 408.593 371.555ZM441.039 369.933H408.593C408.144 369.933 407.781 369.57 407.781 369.121V358.576H441.849V369.121C441.849 369.336 441.764 369.543 441.611 369.695C441.459 369.848 441.252 369.933 441.037 369.933L441.039 369.933ZM440.703 331.81L436.17 331.808C435.275 331.808 434.549 331.082 434.549 330.186V325.656L440.703 331.81ZM408.592 324.507H432.115C432.33 324.507 432.537 324.593 432.689 324.745C432.841 324.897 432.927 325.104 432.927 325.319V330.186C432.927 331.047 433.267 331.872 433.877 332.481C434.486 333.089 435.311 333.431 436.17 333.431H441.037C441.252 333.431 441.459 333.517 441.611 333.669C441.763 333.821 441.849 334.026 441.849 334.241V356.954H407.781V325.319C407.781 324.871 408.144 324.507 408.592 324.507Z" fill="#F9F8F6"/>
<path d="M504 176.05C499.05 173.192 496 167.91 496 162.193L496 120.669C496 114.952 499.05 109.67 504 106.812L539.962 86.0499C544.912 83.1917 551.011 83.1917 555.962 86.0499L591.923 106.812C596.873 109.67 599.923 114.952 599.923 120.669L599.923 162.193C599.923 167.91 596.873 173.192 591.923 176.05L555.962 196.812C551.011 199.67 544.912 199.67 539.962 196.812L504 176.05Z" fill="#1A76FF"/>
<path d="M547.113 148.586C551.042 148.586 557.693 147.9 557.693 145.331V130.683C557.693 128.114 551.042 127.428 547.113 127.428C543.184 127.428 536.534 128.114 536.534 130.683V145.331C536.534 147.899 543.184 148.586 547.113 148.586ZM547.113 146.959C541.682 146.959 538.441 145.878 538.163 145.332V142.321C540.383 143.378 544.398 143.704 547.113 143.704C549.829 143.704 553.854 143.374 556.074 142.321V145.275C555.786 145.878 552.545 146.959 547.113 146.959ZM547.113 129.057C552.375 129.057 555.581 130.071 556.039 130.683C555.581 131.297 552.377 132.31 547.113 132.31C541.85 132.31 538.645 131.296 538.188 130.683C538.646 130.071 541.852 129.057 547.113 129.057ZM538.163 132.556C540.383 133.613 544.398 133.939 547.113 133.939C549.829 133.939 553.846 133.613 556.064 132.556V135.516C555.747 136.123 552.515 137.193 547.113 137.193C541.682 137.193 538.441 136.111 538.163 135.566V132.556ZM538.163 137.439C540.383 138.495 544.398 138.821 547.113 138.821C549.829 138.821 553.85 138.491 556.07 137.439V140.395C555.768 141.001 552.532 142.077 547.113 142.077C541.682 142.077 538.441 140.996 538.163 140.45V137.439Z" fill="#F9F8F6"/>
<path d="M530.839 165.675H563.387C564.735 165.675 565.828 164.582 565.828 163.233V128.242C565.855 126.985 565.355 125.774 564.451 124.901L557.778 118.228C556.904 117.324 555.693 116.824 554.436 116.851H530.839C529.49 116.851 528.397 117.943 528.397 119.292V163.233C528.397 164.582 529.49 165.675 530.839 165.675ZM563.389 164.048H530.839C530.389 164.048 530.024 163.684 530.024 163.233V152.654H564.201V163.233C564.201 163.449 564.115 163.657 563.963 163.809C563.81 163.962 563.602 164.048 563.387 164.048L563.389 164.048ZM563.051 125.803L558.504 125.801C557.606 125.801 556.878 125.073 556.878 124.174V119.629L563.051 125.803ZM530.839 118.477H554.436C554.652 118.477 554.859 118.563 555.012 118.716C555.165 118.868 555.25 119.076 555.25 119.292V124.174C555.25 125.038 555.592 125.866 556.204 126.476C556.814 127.087 557.642 127.43 558.504 127.43H563.386C563.602 127.43 563.81 127.516 563.962 127.668C564.115 127.821 564.201 128.027 564.201 128.242V151.027H530.024V119.292C530.024 118.842 530.388 118.477 530.839 118.477Z" fill="#F9F8F6"/>
<path d="M317 275.023C312.05 272.164 309 266.882 309 261.166L309 219.641C309 213.925 312.05 208.643 317 205.785L352.962 185.023C357.912 182.164 364.011 182.164 368.962 185.023L404.923 205.785C409.873 208.643 412.923 213.925 412.923 219.641L412.923 261.166C412.923 266.882 409.873 272.164 404.923 275.023L368.962 295.785C364.011 298.643 357.912 298.643 352.962 295.785L317 275.023Z" fill="#E5EFFF"/>
<path d="M360.113 247.559C364.042 247.559 370.693 246.872 370.693 244.303V229.656C370.693 227.087 364.042 226.4 360.113 226.4C356.184 226.4 349.534 227.087 349.534 229.656V244.303C349.534 246.872 356.184 247.559 360.113 247.559ZM360.113 245.932C354.682 245.932 351.441 244.851 351.163 244.305V241.294C353.383 242.35 357.398 242.676 360.113 242.676C362.829 242.676 366.854 242.346 369.074 241.294V244.248C368.786 244.851 365.545 245.932 360.113 245.932ZM360.113 228.029C365.375 228.029 368.581 229.044 369.039 229.656C368.581 230.27 365.377 231.283 360.113 231.283C354.85 231.283 351.645 230.268 351.188 229.656C351.646 229.044 354.852 228.029 360.113 228.029ZM351.163 231.529C353.383 232.585 357.398 232.912 360.113 232.912C362.829 232.912 366.846 232.585 369.064 231.529V234.489C368.747 235.095 365.515 236.165 360.113 236.165C354.682 236.165 351.441 235.084 351.163 234.538V231.529ZM351.163 236.411C353.383 237.468 357.398 237.794 360.113 237.794C362.829 237.794 366.85 237.464 369.07 236.411V239.367C368.768 239.974 365.532 241.05 360.113 241.05C354.682 241.05 351.441 239.968 351.163 239.423V236.411Z" fill="#303540"/>
<path d="M343.839 264.647H376.387C377.735 264.647 378.828 263.554 378.828 262.206V227.215C378.855 225.958 378.355 224.747 377.451 223.874L370.778 217.2C369.904 216.296 368.693 215.797 367.436 215.823H343.839C342.49 215.823 341.397 216.916 341.397 218.264V262.206C341.397 263.554 342.49 264.647 343.839 264.647ZM376.389 263.02H343.839C343.389 263.02 343.024 262.656 343.024 262.206V251.627H377.201V262.206C377.201 262.422 377.115 262.63 376.963 262.782C376.81 262.935 376.602 263.02 376.387 263.02L376.389 263.02ZM376.051 224.776L371.504 224.774C370.606 224.774 369.878 224.045 369.878 223.147V218.602L376.051 224.776ZM343.839 217.45H367.436C367.652 217.45 367.859 217.536 368.012 217.689C368.165 217.841 368.25 218.049 368.25 218.265V223.147C368.25 224.011 368.592 224.839 369.204 225.449C369.814 226.059 370.642 226.402 371.504 226.402H376.386C376.602 226.402 376.81 226.488 376.962 226.641C377.115 226.793 377.201 226.999 377.201 227.215V250H343.024V218.265C343.024 217.814 343.388 217.45 343.839 217.45Z" fill="#303540"/>
<path d="M300.554 206.422L270.243 188.922L244.932 174.309C241.838 172.522 238.026 172.522 234.932 174.309L184.31 203.535C181.216 205.321 179.31 208.623 179.31 212.195L179.31 270.648C179.31 274.221 181.216 277.522 184.31 279.309L239.932 311.422" stroke="#FF6849" stroke-dasharray="4 8"/>
<path d="M240.311 171.422L240.311 107.195C240.311 103.623 242.217 100.321 245.311 98.5351L295.932 69.3086C299.026 67.5223 302.838 67.5223 305.932 69.3086L331.243 83.9219L361.554 101.422" stroke="#FF6849" stroke-dasharray="4 8"/>
<path d="M361 170.543L361 106.316C361 102.744 362.906 99.4425 366 97.6562L416.621 68.4297C419.715 66.6434 423.527 66.6434 426.621 68.4297L477.243 97.6562C480.337 99.4426 482.243 102.744 482.243 106.316L482.243 164.769C482.243 168.342 480.337 171.643 477.243 173.43L421.621 205.543" stroke="#FF6849" stroke-dasharray="4 8"/>
<path d="M134 168.819C129.05 165.961 126 160.679 126 154.963L126 113.438C126 107.722 129.05 102.44 134 99.5818L169.962 78.8194C174.912 75.9613 181.011 75.9613 185.962 78.8194L221.923 99.5818C226.873 102.44 229.923 107.722 229.923 113.438L229.923 154.963C229.923 160.679 226.873 165.961 221.923 168.819L185.962 189.582C181.011 192.44 174.912 192.44 169.962 189.582L134 168.819Z" fill="#FF6849"/>
<path d="M159.011 134.094V154.167H164.924V151.765C161.149 148.302 159.008 140.731 159.008 134.08" fill="white"/>
<path d="M195.001 134.094V154.167H189.084V151.765C192.859 148.302 195.001 140.731 195.001 134.08" fill="white"/>
<path d="M189.084 119.372V134.836C189.084 139.733 187.67 143.525 185.103 145.921V130.632H178.994V148.68C178.331 148.775 177.663 148.825 176.993 148.827C176.325 148.825 175.658 148.775 174.996 148.68V113.922H168.898V145.921C166.33 143.518 164.917 139.743 164.917 134.836V124.938H159V134.836C159 146.888 166.063 154.679 176.993 154.679C187.924 154.679 194.99 146.888 194.99 134.836V119.372H189.084Z" fill="white"/>
</svg>
