<svg width="696" height="462" viewBox="0 0 696 462" fill="none" xmlns="http://www.w3.org/2000/svg">
<path d="M424.71 284.887L409.754 276.153L424.796 267.567L424.71 284.887ZM414.144 266.374L415.447 265.631L414.144 266.374ZM407.012 253.879L405.709 254.622L405.709 254.622L407.012 253.879ZM233.06 245.516L235.008 245.525L234.993 248.525L233.045 248.516L233.06 245.516ZM242.798 245.564L246.693 245.583L246.678 248.583L242.783 248.564L242.798 245.564ZM254.484 245.622L258.379 245.641L258.364 248.641L254.469 248.622L254.484 245.622ZM266.169 245.68L270.064 245.699L270.049 248.699L266.154 248.68L266.169 245.68ZM277.855 245.738L281.75 245.757L281.735 248.757L277.84 248.738L277.855 245.738ZM289.54 245.796L293.435 245.815L293.42 248.815L289.525 248.796L289.54 245.796ZM301.226 245.854L305.121 245.873L305.106 248.873L301.211 248.854L301.226 245.854ZM312.911 245.912L316.806 245.931L316.791 248.931L312.896 248.912L312.911 245.912ZM324.597 245.97L328.492 245.989L328.477 248.989L324.582 248.97L324.597 245.97ZM336.282 246.028L340.177 246.047L340.162 249.047L336.267 249.028L336.282 246.028ZM347.968 246.086L351.863 246.105L351.848 249.105L347.953 249.086L347.968 246.086ZM359.653 246.144L363.548 246.163L363.533 249.163L359.638 249.144L359.653 246.144ZM371.339 246.202L375.234 246.221L375.219 249.221L371.324 249.202L371.339 246.202ZM383.024 246.26L386.919 246.279L386.904 249.279L383.009 249.26L383.024 246.26ZM394.71 246.318L396.657 246.327L396.642 249.327L394.695 249.318L394.71 246.318ZM396.657 246.327C397.451 246.331 398.234 246.405 399 246.544L398.465 249.496C397.87 249.388 397.26 249.33 396.642 249.327L396.657 246.327ZM406.975 251.201C407.472 251.8 407.922 252.446 408.315 253.135L405.709 254.622C405.403 254.086 405.054 253.583 404.667 253.117L406.975 251.201ZM408.315 253.135L409.504 255.218L406.898 256.705L405.709 254.622L408.315 253.135ZM414.258 263.548L415.447 265.631L412.841 267.118L411.653 265.035L414.258 263.548ZM415.447 265.631L416.327 267.174L413.722 268.661L412.841 267.118L415.447 265.631ZM419.849 273.344L421.611 276.43L419.005 277.917L417.244 274.832L419.849 273.344ZM424.71 284.887L409.754 276.153L424.796 267.567L424.71 284.887ZM414.144 266.374L415.447 265.631L414.144 266.374ZM407.012 253.879L405.709 254.622L405.709 254.622L407.012 253.879ZM233.06 245.516L235.008 245.525L234.993 248.525L233.045 248.516L233.06 245.516ZM242.798 245.564L246.693 245.583L246.678 248.583L242.783 248.564L242.798 245.564ZM254.484 245.622L258.379 245.641L258.364 248.641L254.469 248.622L254.484 245.622ZM266.169 245.68L270.064 245.699L270.049 248.699L266.154 248.68L266.169 245.68ZM277.855 245.738L281.75 245.757L281.735 248.757L277.84 248.738L277.855 245.738ZM289.54 245.796L293.435 245.815L293.42 248.815L289.525 248.796L289.54 245.796ZM301.226 245.854L305.121 245.873L305.106 248.873L301.211 248.854L301.226 245.854ZM312.911 245.912L316.806 245.931L316.791 248.931L312.896 248.912L312.911 245.912ZM324.597 245.97L328.492 245.989L328.477 248.989L324.582 248.97L324.597 245.97ZM336.282 246.028L340.177 246.047L340.162 249.047L336.267 249.028L336.282 246.028ZM347.968 246.086L351.863 246.105L351.848 249.105L347.953 249.086L347.968 246.086ZM359.653 246.144L363.548 246.163L363.533 249.163L359.638 249.144L359.653 246.144ZM371.339 246.202L375.234 246.221L375.219 249.221L371.324 249.202L371.339 246.202ZM383.024 246.26L386.919 246.279L386.904 249.279L383.009 249.26L383.024 246.26ZM394.71 246.318L396.657 246.327L396.642 249.327L394.695 249.318L394.71 246.318ZM396.657 246.327C397.451 246.331 398.234 246.405 399 246.544L398.465 249.496C397.87 249.388 397.26 249.33 396.642 249.327L396.657 246.327ZM406.975 251.201C407.472 251.8 407.922 252.446 408.315 253.135L405.709 254.622C405.403 254.086 405.054 253.583 404.667 253.117L406.975 251.201ZM408.315 253.135L409.504 255.218L406.898 256.705L405.709 254.622L408.315 253.135ZM414.258 263.548L415.447 265.631L412.841 267.118L411.653 265.035L414.258 263.548ZM415.447 265.631L416.327 267.174L413.722 268.661L412.841 267.118L415.447 265.631ZM419.849 273.344L421.611 276.43L419.005 277.917L417.244 274.832L419.849 273.344Z" fill="#FF6849" fill-opacity="0.25"/>
<path d="M424.894 176.035L409.937 184.769L424.98 193.355L424.894 176.035ZM414.328 194.548L415.63 195.291L414.328 194.548ZM407.196 207.043L405.893 206.3L405.893 206.3L407.196 207.043ZM233.244 215.406L235.191 215.397L235.176 212.397L233.229 212.406L233.244 215.406ZM242.982 215.358L246.877 215.339L246.862 212.339L242.967 212.358L242.982 215.358ZM254.667 215.3L258.562 215.281L258.547 212.281L254.652 212.3L254.667 215.3ZM266.353 215.242L270.248 215.223L270.233 212.223L266.338 212.242L266.353 215.242ZM278.038 215.184L281.933 215.165L281.918 212.165L278.023 212.184L278.038 215.184ZM289.724 215.126L293.619 215.107L293.604 212.107L289.709 212.126L289.724 215.126ZM301.409 215.068L305.304 215.049L305.289 212.049L301.394 212.068L301.409 215.068ZM313.095 215.01L316.99 214.991L316.975 211.991L313.08 212.01L313.095 215.01ZM324.78 214.952L328.675 214.933L328.66 211.933L324.765 211.952L324.78 214.952ZM336.466 214.894L340.361 214.875L340.346 211.875L336.451 211.894L336.466 214.894ZM348.151 214.836L352.046 214.817L352.031 211.817L348.136 211.836L348.151 214.836ZM359.837 214.778L363.732 214.759L363.717 211.759L359.822 211.778L359.837 214.778ZM371.522 214.72L375.417 214.701L375.403 211.701L371.507 211.72L371.522 214.72ZM383.208 214.662L387.103 214.643L387.088 211.643L383.193 211.662L383.208 214.662ZM394.893 214.604L396.841 214.595L396.826 211.595L394.878 211.604L394.893 214.604ZM396.841 214.595C397.634 214.591 398.418 214.517 399.184 214.378L398.649 211.426C398.053 211.534 397.444 211.592 396.826 211.595L396.841 214.595ZM407.159 209.721C407.656 209.122 408.105 208.476 408.499 207.787L405.893 206.3C405.587 206.836 405.237 207.339 404.851 207.804L407.159 209.721ZM408.499 207.787L409.687 205.704L407.082 204.217L405.893 206.3L408.499 207.787ZM414.442 197.374L415.63 195.291L413.025 193.804L411.836 195.887L414.442 197.374ZM415.63 195.291L416.511 193.748L413.906 192.261L413.025 193.804L415.63 195.291ZM420.033 187.577L421.794 184.492L419.189 183.005L417.428 186.09L420.033 187.577ZM424.894 176.035L409.937 184.769L424.98 193.355L424.894 176.035ZM414.328 194.548L415.63 195.291L414.328 194.548ZM407.196 207.043L405.893 206.3L405.893 206.3L407.196 207.043ZM233.244 215.406L235.191 215.397L235.176 212.397L233.229 212.406L233.244 215.406ZM242.982 215.358L246.877 215.339L246.862 212.339L242.967 212.358L242.982 215.358ZM254.667 215.3L258.562 215.281L258.547 212.281L254.652 212.3L254.667 215.3ZM266.353 215.242L270.248 215.223L270.233 212.223L266.338 212.242L266.353 215.242ZM278.038 215.184L281.933 215.165L281.918 212.165L278.023 212.184L278.038 215.184ZM289.724 215.126L293.619 215.107L293.604 212.107L289.709 212.126L289.724 215.126ZM301.409 215.068L305.304 215.049L305.289 212.049L301.394 212.068L301.409 215.068ZM313.095 215.01L316.99 214.991L316.975 211.991L313.08 212.01L313.095 215.01ZM324.78 214.952L328.675 214.933L328.66 211.933L324.765 211.952L324.78 214.952ZM336.466 214.894L340.361 214.875L340.346 211.875L336.451 211.894L336.466 214.894ZM348.151 214.836L352.046 214.817L352.031 211.817L348.136 211.836L348.151 214.836ZM359.837 214.778L363.732 214.759L363.717 211.759L359.822 211.778L359.837 214.778ZM371.522 214.72L375.417 214.701L375.403 211.701L371.507 211.72L371.522 214.72ZM383.208 214.662L387.103 214.643L387.088 211.643L383.193 211.662L383.208 214.662ZM394.893 214.604L396.841 214.595L396.826 211.595L394.878 211.604L394.893 214.604ZM396.841 214.595C397.634 214.591 398.418 214.517 399.184 214.378L398.649 211.426C398.053 211.534 397.444 211.592 396.826 211.595L396.841 214.595ZM407.159 209.721C407.656 209.122 408.105 208.476 408.499 207.787L405.893 206.3C405.587 206.836 405.237 207.339 404.851 207.804L407.159 209.721ZM408.499 207.787L409.687 205.704L407.082 204.217L405.893 206.3L408.499 207.787ZM414.442 197.374L415.63 195.291L413.025 193.804L411.836 195.887L414.442 197.374ZM415.63 195.291L416.511 193.748L413.906 192.261L413.025 193.804L415.63 195.291ZM420.033 187.577L421.794 184.492L419.189 183.005L417.428 186.09L420.033 187.577Z" fill="#FF6849" fill-opacity="0.25"/>
<path d="M473.164 230.459L458.164 221.799L458.164 239.119L473.164 230.459ZM70.4341 228.96L55.434 221.799L55.4341 239.12L70.4341 231.96L70.4341 228.96ZM463.218 228.959L459.24 228.959L459.24 231.959L463.218 231.959L463.218 228.959ZM451.283 228.959L447.305 228.959L447.305 231.959L451.283 231.959L451.283 228.959ZM439.348 228.959L435.37 228.959L435.37 231.959L439.348 231.959L439.348 228.959ZM427.413 228.959L423.435 228.959L423.435 231.959L427.413 231.959L427.413 228.959ZM415.478 228.959L411.499 228.959L411.499 231.959L415.478 231.959L415.478 228.959ZM403.543 228.959L399.564 228.959L399.564 231.959L403.543 231.959L403.543 228.959ZM391.607 228.959L387.629 228.959L387.629 231.959L391.607 231.959L391.607 228.959ZM379.672 228.959L375.694 228.959L375.694 231.959L379.672 231.959L379.672 228.959ZM367.737 228.959L363.759 228.959L363.759 231.959L367.737 231.959L367.737 228.959ZM355.802 228.959L351.824 228.959L351.824 231.959L355.802 231.959L355.802 228.959ZM343.867 228.959L339.889 228.959L339.889 231.959L343.867 231.959L343.867 228.959ZM331.932 228.959L327.953 228.959L327.953 231.959L331.932 231.959L331.932 228.959ZM319.997 228.959L316.018 228.959L316.018 231.959L319.997 231.959L319.997 228.959ZM308.061 228.959L304.083 228.959L304.083 231.959L308.061 231.959L308.061 228.959ZM296.126 228.959L292.148 228.959L292.148 231.959L296.126 231.959L296.126 228.959ZM284.191 228.959L280.213 228.959L280.213 231.959L284.191 231.959L284.191 228.959ZM272.256 228.959L268.278 228.959L268.278 231.959L272.256 231.959L272.256 228.959ZM260.321 228.959L256.342 228.959L256.342 231.959L260.321 231.959L260.321 228.959ZM248.386 228.959L244.407 228.959L244.407 231.959L248.386 231.959L248.386 228.959ZM236.451 228.959L232.472 228.959L232.472 231.959L236.451 231.959L236.451 228.959ZM224.515 228.959L220.537 228.959L220.537 231.959L224.515 231.959L224.515 228.959ZM212.58 228.959L208.602 228.959L208.602 231.959L212.58 231.959L212.58 228.959ZM200.645 228.959L196.667 228.959L196.667 231.959L200.645 231.959L200.645 228.959ZM188.71 228.959L184.732 228.959L184.732 231.959L188.71 231.959L188.71 228.959ZM176.775 228.959L172.796 228.959L172.796 231.959L176.775 231.959L176.775 228.959ZM164.84 228.959L160.861 228.959L160.861 231.959L164.84 231.959L164.84 228.959ZM152.905 228.96L148.926 228.96L148.926 231.96L152.905 231.96L152.905 228.96ZM140.969 228.96L136.991 228.96L136.991 231.96L140.969 231.96L140.969 228.96ZM129.034 228.96L125.056 228.96L125.056 231.96L129.034 231.96L129.034 228.96ZM117.099 228.96L113.121 228.96L113.121 231.96L117.099 231.96L117.099 228.96ZM105.164 228.96L101.186 228.96L101.186 231.96L105.164 231.96L105.164 228.96ZM93.2288 228.96L89.2504 228.96L89.2504 231.96L93.2288 231.96L93.2288 228.96ZM81.2936 228.96L77.3152 228.96L77.3152 231.96L81.2936 231.96L81.2936 228.96ZM69.3585 228.96L65.3801 228.96L65.3801 231.96L69.3585 231.96L69.3585 228.96ZM473.164 230.459L458.164 221.799L458.164 239.119L473.164 230.459ZM70.4341 228.96L55.434 221.799L55.4341 239.12L70.4341 231.96L70.4341 228.96ZM463.218 228.959L459.24 228.959L459.24 231.959L463.218 231.959L463.218 228.959ZM451.283 228.959L447.305 228.959L447.305 231.959L451.283 231.959L451.283 228.959ZM439.348 228.959L435.37 228.959L435.37 231.959L439.348 231.959L439.348 228.959ZM427.413 228.959L423.435 228.959L423.435 231.959L427.413 231.959L427.413 228.959ZM415.478 228.959L411.499 228.959L411.499 231.959L415.478 231.959L415.478 228.959ZM403.543 228.959L399.564 228.959L399.564 231.959L403.543 231.959L403.543 228.959ZM391.607 228.959L387.629 228.959L387.629 231.959L391.607 231.959L391.607 228.959ZM379.672 228.959L375.694 228.959L375.694 231.959L379.672 231.959L379.672 228.959ZM367.737 228.959L363.759 228.959L363.759 231.959L367.737 231.959L367.737 228.959ZM355.802 228.959L351.824 228.959L351.824 231.959L355.802 231.959L355.802 228.959ZM343.867 228.959L339.889 228.959L339.889 231.959L343.867 231.959L343.867 228.959ZM331.932 228.959L327.953 228.959L327.953 231.959L331.932 231.959L331.932 228.959ZM319.997 228.959L316.018 228.959L316.018 231.959L319.997 231.959L319.997 228.959ZM308.061 228.959L304.083 228.959L304.083 231.959L308.061 231.959L308.061 228.959ZM296.126 228.959L292.148 228.959L292.148 231.959L296.126 231.959L296.126 228.959ZM284.191 228.959L280.213 228.959L280.213 231.959L284.191 231.959L284.191 228.959ZM272.256 228.959L268.278 228.959L268.278 231.959L272.256 231.959L272.256 228.959ZM260.321 228.959L256.342 228.959L256.342 231.959L260.321 231.959L260.321 228.959ZM248.386 228.959L244.407 228.959L244.407 231.959L248.386 231.959L248.386 228.959ZM236.451 228.959L232.472 228.959L232.472 231.959L236.451 231.959L236.451 228.959ZM224.515 228.959L220.537 228.959L220.537 231.959L224.515 231.959L224.515 228.959ZM212.58 228.959L208.602 228.959L208.602 231.959L212.58 231.959L212.58 228.959ZM200.645 228.959L196.667 228.959L196.667 231.959L200.645 231.959L200.645 228.959ZM188.71 228.959L184.732 228.959L184.732 231.959L188.71 231.959L188.71 228.959ZM176.775 228.959L172.796 228.959L172.796 231.959L176.775 231.959L176.775 228.959ZM164.84 228.959L160.861 228.959L160.861 231.959L164.84 231.959L164.84 228.959ZM152.905 228.96L148.926 228.96L148.926 231.96L152.905 231.96L152.905 228.96ZM140.969 228.96L136.991 228.96L136.991 231.96L140.969 231.96L140.969 228.96ZM129.034 228.96L125.056 228.96L125.056 231.96L129.034 231.96L129.034 228.96ZM117.099 228.96L113.121 228.96L113.121 231.96L117.099 231.96L117.099 228.96ZM105.164 228.96L101.186 228.96L101.186 231.96L105.164 231.96L105.164 228.96ZM93.2288 228.96L89.2504 228.96L89.2504 231.96L93.2288 231.96L93.2288 228.96ZM81.2936 228.96L77.3152 228.96L77.3152 231.96L81.2936 231.96L81.2936 228.96ZM69.3585 228.96L65.3801 228.96L65.3801 231.96L69.3585 231.96L69.3585 228.96Z" fill="#FF6849" fill-opacity="0.25"/>
<path d="M161.484 270.452C155.296 266.88 151.484 260.277 151.484 253.132L151.484 186.226C151.484 179.081 155.296 172.478 161.484 168.905L219.427 135.452C225.615 131.88 233.239 131.88 239.427 135.452L297.369 168.905C303.557 172.478 307.369 179.081 307.369 186.226L307.369 253.132C307.369 260.277 303.557 266.88 297.369 270.452L239.427 303.905C233.239 307.478 225.615 307.478 219.427 303.905L161.484 270.452Z" fill="#FF6849"/>
<path d="M187.052 219.196V266.477H200.98V260.818C192.088 252.662 187.044 234.83 187.044 219.164" fill="white"/>
<path d="M271.825 219.196V266.477H257.889V260.818C266.781 252.662 271.825 234.83 271.825 219.164" fill="white"/>
<path d="M257.889 184.516V220.941C257.889 232.476 254.558 241.408 248.512 247.051V211.038H234.123V253.55C232.562 253.775 230.987 253.891 229.41 253.897C227.836 253.891 226.264 253.774 224.706 253.55V171.68H210.341V247.051C204.295 241.392 200.964 232.5 200.964 220.941V197.628H187.028V220.941C187.028 249.33 203.664 267.68 229.41 267.68C255.156 267.68 271.8 249.33 271.8 220.941V184.516H257.889Z" fill="white"/>
<path d="M494.559 281.562C488.371 277.989 484.559 271.386 484.559 264.241L484.559 197.335C484.559 190.19 488.371 183.587 494.559 180.015L552.501 146.562C558.689 142.989 566.313 142.989 572.501 146.562L630.443 180.015C636.631 183.587 640.443 190.19 640.443 197.335L640.443 264.241C640.443 271.386 636.631 277.989 630.443 281.562L572.501 315.015C566.313 318.587 558.689 318.587 552.501 315.015L494.559 281.562Z" fill="#FCFCFC"/>
<path d="M575.705 216.459L582.659 209.538L583.122 206.625C570.45 195.158 550.306 196.458 538.882 209.338C535.709 212.915 533.355 217.375 532.1 221.98L534.591 221.631L548.498 219.348L549.572 218.256C555.759 211.494 566.219 210.585 573.362 216.338L575.705 216.459Z" fill="#EA4335"/>
<path d="M592.565 221.777C590.967 215.919 587.685 210.653 583.122 206.625L573.362 216.338C577.483 219.689 579.831 224.737 579.731 230.032V231.756C584.528 231.756 588.417 235.627 588.417 240.401C588.417 245.175 584.528 248.948 579.731 248.948H562.333L560.625 250.793V261.162L562.333 262.788H579.731C592.209 262.885 602.403 252.994 602.5 240.577C602.559 233.05 598.83 225.993 592.565 221.777Z" fill="#4285F4"/>
<path d="M544.96 262.789L562.333 262.788V248.948L544.96 248.948C543.723 248.947 542.524 248.683 541.398 248.171L538.934 248.924L531.931 255.844L531.321 258.199C535.248 261.15 540.04 262.81 544.96 262.789Z" fill="#34A853"/>
<path d="M544.96 217.891C532.482 217.965 522.427 228.092 522.501 240.51C522.543 247.444 525.797 253.972 531.321 258.199L541.398 248.171C537.026 246.205 535.083 241.085 537.059 236.734C539.034 232.383 544.179 230.45 548.551 232.415C550.477 233.282 552.02 234.817 552.89 236.734L562.968 226.706C558.68 221.128 552.018 217.866 544.96 217.891Z" fill="#FBBC05"/>
<path d="M405.225 422.523C399.037 418.95 395.225 412.347 395.225 405.202L395.225 338.296C395.225 331.151 399.037 324.548 405.225 320.976L463.167 287.523C469.355 283.95 476.979 283.95 483.167 287.523L541.109 320.976C547.297 324.548 551.109 331.151 551.109 338.296L551.109 405.202C551.109 412.347 547.297 418.95 541.109 422.523L483.167 455.976C476.979 459.548 469.355 459.548 463.167 455.976L405.225 422.523Z" fill="#FCFCFC"/>
<path d="M459.836 334.063H483.508L458.934 406.874C458.682 407.622 458.201 408.272 457.559 408.733C456.918 409.193 456.148 409.441 455.359 409.441H436.936C436.338 409.441 435.748 409.299 435.215 409.026C434.683 408.753 434.223 408.357 433.874 407.871C433.525 407.385 433.297 406.823 433.209 406.231C433.12 405.639 433.173 405.035 433.365 404.468L456.26 336.631C456.512 335.882 456.993 335.232 457.635 334.771C458.276 334.31 459.046 334.063 459.836 334.063Z" fill="url(#paint0_linear_3887_28592)"/>
<path d="M494.237 382.898H456.698C456.349 382.898 456.008 383.003 455.72 383.199C455.431 383.395 455.208 383.674 455.08 383.998C454.952 384.323 454.925 384.679 455.002 385.019C455.079 385.36 455.257 385.669 455.512 385.907L479.633 408.421C480.335 409.076 481.26 409.44 482.221 409.44H503.476L494.237 382.898Z" fill="#0078D4"/>
<path d="M459.836 334.063C459.038 334.059 458.259 334.312 457.614 334.783C456.969 335.254 456.492 335.918 456.251 336.68L433.393 404.405C433.189 404.974 433.125 405.584 433.206 406.183C433.288 406.782 433.512 407.353 433.86 407.846C434.209 408.34 434.671 408.743 435.208 409.02C435.745 409.298 436.341 409.442 436.946 409.44H455.844C456.548 409.314 457.206 409.004 457.751 408.541C458.295 408.078 458.707 407.478 458.944 406.804L463.503 393.369L479.785 408.556C480.468 409.121 481.324 409.433 482.209 409.44H503.386L494.098 382.899L467.023 382.905L483.594 334.063H459.836Z" fill="url(#paint1_linear_3887_28592)"/>
<path d="M490.074 336.626C489.821 335.879 489.341 335.23 488.701 334.77C488.06 334.31 487.291 334.062 486.502 334.063H460.12C460.909 334.063 461.677 334.31 462.318 334.77C462.959 335.23 463.439 335.879 463.691 336.626L486.587 404.466C486.778 405.033 486.832 405.638 486.743 406.23C486.655 406.821 486.427 407.384 486.078 407.87C485.729 408.356 485.269 408.752 484.737 409.025C484.204 409.298 483.614 409.441 483.016 409.441H509.399C509.997 409.441 510.587 409.298 511.12 409.025C511.652 408.752 512.111 408.356 512.46 407.869C512.809 407.383 513.037 406.821 513.126 406.229C513.214 405.638 513.161 405.033 512.969 404.466L490.074 336.626Z" fill="url(#paint2_linear_3887_28592)"/>
<path d="M405.223 141.601C399.035 138.028 395.223 131.426 395.223 124.28L395.223 57.3742C395.223 50.2289 399.035 43.6264 405.223 40.0537L463.165 6.60075C469.353 3.02809 476.977 3.02809 483.165 6.60075L541.107 40.0537C547.295 43.6264 551.107 50.2289 551.107 57.3743L551.107 124.28C551.107 131.426 547.295 138.028 541.107 141.601L483.165 175.054C476.977 178.626 469.353 178.626 463.165 175.054L405.223 141.601Z" fill="#FCFCFC"/>
<path d="M455.711 84.281C455.711 85.2655 455.817 86.0637 456.004 86.6491C456.216 87.2345 456.483 87.8731 456.855 88.5649C456.988 88.7777 457.041 88.9906 457.041 89.1768C457.041 89.4429 456.882 89.709 456.536 89.9751L454.859 91.0926C454.62 91.2522 454.381 91.332 454.168 91.332C453.902 91.332 453.636 91.199 453.369 90.9595C452.997 90.5604 452.678 90.1347 452.412 89.709C452.146 89.2567 451.879 88.7511 451.587 88.1391C449.511 90.587 446.904 91.811 443.764 91.811C441.529 91.811 439.746 91.1724 438.443 89.8952C437.139 88.6181 436.474 86.9152 436.474 84.7866C436.474 82.5249 437.272 80.689 438.895 79.3054C440.518 77.9218 442.673 77.23 445.414 77.23C446.318 77.23 447.25 77.3098 448.234 77.4429C449.219 77.5759 450.23 77.7888 451.294 78.0282V76.0859C451.294 74.0637 450.868 72.6535 450.044 71.8287C449.192 71.0038 447.755 70.6047 445.706 70.6047C444.775 70.6047 443.817 70.7111 442.833 70.9506C441.848 71.1901 440.89 71.4828 439.959 71.8553C439.534 72.0415 439.214 72.148 439.028 72.2012C438.842 72.2544 438.709 72.281 438.602 72.281C438.23 72.281 438.043 72.0149 438.043 71.4562V70.1524C438.043 69.7267 438.097 69.4074 438.23 69.2211C438.363 69.0349 438.602 68.8486 438.975 68.6624C439.906 68.1834 441.024 67.7843 442.327 67.465C443.631 67.1191 445.015 66.9595 446.478 66.9595C449.644 66.9595 451.959 67.6779 453.449 69.1147C454.913 70.5515 455.658 72.7333 455.658 75.6602V84.281H455.711ZM444.908 88.3254C445.786 88.3254 446.691 88.1657 447.649 87.8465C448.607 87.5272 449.458 86.9418 450.177 86.1436C450.602 85.638 450.922 85.0793 451.081 84.4407C451.241 83.8021 451.347 83.0305 451.347 82.1258V81.0083C450.576 80.822 449.751 80.6624 448.899 80.556C448.048 80.4495 447.223 80.3963 446.398 80.3963C444.616 80.3963 443.312 80.7422 442.434 81.4606C441.556 82.179 441.13 83.1901 441.13 84.5205C441.13 85.7711 441.449 86.7023 442.114 87.3409C442.753 88.0061 443.684 88.3254 444.908 88.3254ZM466.274 91.199C465.795 91.199 465.476 91.1192 465.263 90.9329C465.05 90.7733 464.864 90.4008 464.704 89.8952L458.452 69.3275C458.292 68.7954 458.212 68.4495 458.212 68.2632C458.212 67.8375 458.425 67.598 458.851 67.598H461.458C461.964 67.598 462.31 67.6779 462.496 67.8641C462.709 68.0238 462.868 68.3963 463.028 68.9018L467.498 86.5161L471.649 68.9018C471.782 68.3697 471.942 68.0238 472.154 67.8641C472.367 67.7045 472.74 67.598 473.219 67.598H475.347C475.853 67.598 476.199 67.6779 476.412 67.8641C476.625 68.0238 476.811 68.3963 476.917 68.9018L481.121 86.7289L485.724 68.9018C485.884 68.3697 486.07 68.0238 486.256 67.8641C486.469 67.7045 486.815 67.598 487.294 67.598H489.769C490.194 67.598 490.434 67.8109 490.434 68.2632C490.434 68.3963 490.407 68.5293 490.381 68.689C490.354 68.8486 490.301 69.0615 490.194 69.3542L483.782 89.9218C483.622 90.454 483.436 90.7999 483.223 90.9595C483.01 91.1192 482.664 91.2256 482.212 91.2256H479.924C479.418 91.2256 479.072 91.1458 478.86 90.9595C478.647 90.7733 478.46 90.4274 478.354 89.8952L474.23 72.7333L470.132 89.8686C469.999 90.4008 469.84 90.7467 469.627 90.9329C469.414 91.1192 469.041 91.199 468.562 91.199H466.274ZM500.465 91.9174C499.081 91.9174 497.698 91.7578 496.367 91.4385C495.037 91.1192 493.999 90.7733 493.308 90.3742C492.882 90.1347 492.589 89.8686 492.483 89.6292C492.376 89.3897 492.323 89.1236 492.323 88.8841V87.5272C492.323 86.9684 492.536 86.7023 492.935 86.7023C493.095 86.7023 493.254 86.7289 493.414 86.7821C493.574 86.8354 493.813 86.9418 494.079 87.0482C494.984 87.4473 495.968 87.7666 497.006 87.9795C498.07 88.1924 499.108 88.2988 500.172 88.2988C501.849 88.2988 503.152 88.0061 504.057 87.4207C504.962 86.8354 505.441 85.9839 505.441 84.893C505.441 84.148 505.201 83.536 504.722 83.0305C504.243 82.5249 503.339 82.0726 502.035 81.6469L498.177 80.4495C496.234 79.8376 494.798 78.9329 493.919 77.7356C493.041 76.5648 492.589 75.261 492.589 73.8774C492.589 72.7599 492.829 71.7754 493.308 70.924C493.786 70.0726 494.425 69.3275 495.223 68.7422C496.021 68.1302 496.926 67.6779 497.99 67.3586C499.055 67.0393 500.172 66.9062 501.343 66.9062C501.928 66.9062 502.54 66.9329 503.126 67.0127C503.738 67.0925 504.296 67.1989 504.855 67.3054C505.387 67.4384 505.893 67.5714 506.372 67.7311C506.851 67.8907 507.223 68.0504 507.489 68.21C507.862 68.4229 508.128 68.6357 508.288 68.8752C508.447 69.0881 508.527 69.3808 508.527 69.7533V71.0038C508.527 71.5626 508.314 71.8553 507.915 71.8553C507.702 71.8553 507.356 71.7488 506.904 71.536C505.387 70.8442 503.684 70.4983 501.795 70.4983C500.279 70.4983 499.081 70.7377 498.257 71.2433C497.432 71.7488 497.006 72.5205 497.006 73.6114C497.006 74.3564 497.272 74.995 497.804 75.5005C498.336 76.0061 499.321 76.5116 500.731 76.9639L504.509 78.1613C506.425 78.7733 507.809 79.6247 508.633 80.7156C509.458 81.8065 509.857 83.0571 509.857 84.4407C509.857 85.5848 509.618 86.6225 509.166 87.5272C508.687 88.4318 508.048 89.23 507.223 89.8686C506.398 90.5338 505.414 91.0128 504.27 91.3587C503.073 91.7312 501.822 91.9174 500.465 91.9174Z" fill="#303540"/>
<path fill-rule="evenodd" clip-rule="evenodd" d="M505.494 104.85C496.74 111.316 484.022 114.748 473.086 114.748C457.76 114.748 443.951 109.081 433.52 99.662C432.696 98.917 433.441 97.9059 434.425 98.4912C445.707 105.037 459.623 109.001 474.017 109.001C483.729 109.001 494.399 106.979 504.217 102.828C505.68 102.163 506.931 103.786 505.494 104.85Z" fill="#FF9900"/>
<path fill-rule="evenodd" clip-rule="evenodd" d="M509.137 100.697C508.019 99.2603 501.74 100.005 498.893 100.351C498.041 100.458 497.908 99.7126 498.68 99.1538C503.682 95.6416 511.904 96.6527 512.862 97.8234C513.82 99.0208 512.596 107.243 507.913 111.18C507.194 111.792 506.503 111.473 506.822 110.675C507.886 108.041 510.254 102.107 509.137 100.697Z" fill="#FF9900"/>
<defs>
<linearGradient id="paint0_linear_3887_28592" x1="468.464" y1="339.649" x2="443.88" y2="412.277" gradientUnits="userSpaceOnUse">
<stop stop-color="#114A8B"/>
<stop offset="1" stop-color="#0669BC"/>
</linearGradient>
<linearGradient id="paint1_linear_3887_28592" x1="476.143" y1="373.495" x2="470.457" y2="375.417" gradientUnits="userSpaceOnUse">
<stop stop-opacity="0.3"/>
<stop offset="0.071" stop-opacity="0.2"/>
<stop offset="0.321" stop-opacity="0.1"/>
<stop offset="0.623" stop-opacity="0.05"/>
<stop offset="1" stop-opacity="0"/>
</linearGradient>
<linearGradient id="paint2_linear_3887_28592" x1="473.018" y1="337.53" x2="500.004" y2="409.426" gradientUnits="userSpaceOnUse">
<stop stop-color="#3CCBF4"/>
<stop offset="1" stop-color="#2892DF"/>
</linearGradient>
</defs>
</svg>
