<svg width="66" height="65" viewBox="0 0 66 65" fill="none" xmlns="http://www.w3.org/2000/svg">
<path d="M1 8C1 3.85786 4.35786 0.5 8.5 0.5H57.5C61.6421 0.5 65 3.85786 65 8V57C65 61.1421 61.6421 64.5 57.5 64.5H8.5C4.35786 64.5 1 61.1421 1 57V8Z" stroke="#DDDFDA"/>
<path d="M41.7692 29.5742H24.2307C23.1545 29.5742 22.282 30.4467 22.282 31.5229V43.2152C22.282 44.2915 23.1545 45.164 24.2307 45.164H41.7692C42.8454 45.164 43.7179 44.2915 43.7179 43.2152V31.5229C43.7179 30.4467 42.8454 29.5742 41.7692 29.5742Z" fill="#FFE9E4"/>
<path d="M41.7692 29.5742H24.2307C23.1545 29.5742 22.282 30.4467 22.282 31.5229V43.2152C22.282 44.2915 23.1545 45.164 24.2307 45.164H41.7692C42.8454 45.164 43.7179 44.2915 43.7179 43.2152V31.5229C43.7179 30.4467 42.8454 29.5742 41.7692 29.5742Z" stroke="#FF6849" stroke-width="1.5" stroke-linecap="round" stroke-linejoin="round"/>
<path d="M39.8205 29.5756V26.6525C39.8205 24.8436 39.102 23.1088 37.8228 21.8297C36.5437 20.5506 34.8089 19.832 33 19.832C31.191 19.832 29.4562 20.5506 28.1771 21.8297C26.898 23.1088 26.1794 24.8436 26.1794 26.6525V29.5756" stroke="#FF6849" stroke-width="1.5" stroke-linecap="round" stroke-linejoin="round"/>
<path d="M33 38.3432C33.5381 38.3432 33.9744 37.907 33.9744 37.3689C33.9744 36.8308 33.5381 36.3945 33 36.3945C32.4619 36.3945 32.0256 36.8308 32.0256 37.3689C32.0256 37.907 32.4619 38.3432 33 38.3432Z" stroke="#FF6849" stroke-width="1.5" stroke-linecap="round" stroke-linejoin="round"/>
</svg>
