<svg width="66" height="66" viewBox="0 0 66 66" fill="none" xmlns="http://www.w3.org/2000/svg">
<path d="M1 8.125C1 3.98286 4.35786 0.625 8.5 0.625H57.5C61.6421 0.625 65 3.98286 65 8.125V57.125C65 61.2671 61.6421 64.625 57.5 64.625H8.5C4.35786 64.625 1 61.2671 1 57.125V8.125Z" stroke="#DDDFDA"/>
<path d="M43.7179 34.5724V30.675C43.7179 24.7556 38.9194 19.957 32.9999 19.957C27.0806 19.957 22.282 24.7556 22.282 30.675V34.5724C22.282 40.4918 27.0806 45.2904 32.9999 45.2904C38.9194 45.2904 43.7179 40.4918 43.7179 34.5724Z" fill="#FFE9E4"/>
<path d="M33 45.2914C38.9194 45.2914 43.7179 40.4928 43.7179 34.5734V30.676C43.7179 28.0849 42.7985 25.7086 41.268 23.8555" stroke="#FF6849" stroke-width="1.5" stroke-linecap="round" stroke-linejoin="round"/>
<path d="M22.282 31.6484V34.5715C22.282 38.8949 24.8419 42.6205 28.5286 44.3151" stroke="#FF6849" stroke-width="1.5" stroke-linecap="round" stroke-linejoin="round"/>
<path d="M37.4712 20.9314C36.1103 20.3058 34.5958 19.957 32.9999 19.957C28.2196 19.957 24.1703 23.0865 22.7888 27.4084" stroke="#FF6849" stroke-width="1.5" stroke-linecap="round" stroke-linejoin="round"/>
<path d="M27.4865 28.7266C27.271 29.3361 27.1538 29.992 27.1538 30.6753V34.5727C27.1538 37.8015 29.7712 40.4189 33 40.4189C34.4973 40.4189 35.8631 39.8559 36.8974 38.9302" stroke="#FF6849" stroke-width="1.5" stroke-linecap="round" stroke-linejoin="round"/>
<path d="M31.8057 24.9502C32.1912 24.8702 32.5906 24.8281 32.9999 24.8281C36.2286 24.8281 38.846 27.4455 38.846 30.6743V33.5974" stroke="#FF6849" stroke-width="1.5" stroke-linecap="round" stroke-linejoin="round"/>
<path d="M33 30.6758V34.5732" stroke="#FF6849" stroke-width="1.5" stroke-linecap="round" stroke-linejoin="round"/>
</svg>
