<svg width="66" height="65" viewBox="0 0 66 65" fill="none" xmlns="http://www.w3.org/2000/svg">
<path d="M1 8C1 3.85786 4.35786 0.5 8.5 0.5H57.5C61.6421 0.5 65 3.85786 65 8V57C65 61.1421 61.6421 64.5 57.5 64.5H8.5C4.35786 64.5 1 61.1421 1 57V8Z" stroke="#DDDFDA"/>
<g clip-path="url(#clip0_4056_1696)">
<path d="M34.0256 42.0372L33 47.1654L38.1282 46.1397L46.0329 38.235C46.4335 37.8345 46.4335 37.1851 46.0329 36.7845L43.3808 34.1324C42.9802 33.7319 42.3309 33.7319 41.9303 34.1324L34.0256 42.0372Z" fill="#FFE9E4"/>
<path d="M34.0769 42.4474L33 47.832L38.3846 46.7551L46.6845 38.4551C47.1051 38.0346 47.1051 37.3527 46.6845 36.9322L43.8998 34.1475C43.4792 33.7269 42.7974 33.7269 42.3768 34.1475L34.0769 42.4474Z" stroke="#FF6849" stroke-width="1.5" stroke-linecap="round" stroke-linejoin="round"/>
<path fill-rule="evenodd" clip-rule="evenodd" d="M25.3674 22.0286L26.0879 20.2141C26.2094 19.9069 26.4232 19.6427 26.7013 19.456C26.9793 19.2694 27.3087 19.1689 27.6462 19.168H29.0202C29.3578 19.1689 29.6871 19.2694 29.9652 19.456C30.2433 19.6427 30.4571 19.9069 30.5786 20.2141L31.2991 22.0286L33.7455 23.4016L35.7227 23.1074C36.052 23.0638 36.387 23.1167 36.6854 23.2593C36.9838 23.4019 37.2319 23.6279 37.3983 23.9084L38.0686 25.0526C38.2403 25.3376 38.3195 25.6667 38.2955 25.9965C38.2716 26.3263 38.1457 26.6412 37.9345 26.8998L36.7113 28.42V31.1661L37.9681 32.6864C38.1793 32.9449 38.3051 33.2597 38.3291 33.5895C38.353 33.9195 38.2739 34.2485 38.1021 34.5336L37.4319 35.6776C37.2654 35.9583 37.0173 36.1842 36.7189 36.3268C36.4206 36.4693 36.0855 36.5222 35.7562 36.4788L33.779 36.1844L31.3326 37.5575L30.6121 39.372C30.4906 39.6792 30.2768 39.9434 29.9987 40.1299C29.7207 40.3168 29.3913 40.4172 29.0538 40.418H27.6462C27.3087 40.4172 26.9793 40.3168 26.7013 40.1299C26.4232 39.9434 26.2094 39.6792 26.0879 39.372L25.3674 37.5575L22.921 36.1844L20.9438 36.4788C20.6145 36.5222 20.2795 36.4693 19.9811 36.3268C19.6827 36.1842 19.4346 35.9583 19.2681 35.6776L18.5979 34.5336C18.4261 34.2485 18.347 33.9195 18.3709 33.5895C18.3949 33.2597 18.5207 32.9449 18.7319 32.6864L19.9552 31.1661V28.42L18.6984 26.8998C18.4872 26.6412 18.3614 26.3263 18.3374 25.9965C18.3135 25.6667 18.3926 25.3376 18.5644 25.0526L19.2346 23.9084C19.4011 23.6279 19.6492 23.4019 19.9476 23.2593C20.2459 23.1167 20.581 23.0638 20.9103 23.1074L22.8875 23.4016L25.3674 22.0286ZM25.2082 29.7938C25.2082 30.3968 25.3915 30.9862 25.7349 31.4875C26.0783 31.9889 26.5663 32.3796 27.1374 32.6103C27.7084 32.841 28.3367 32.9015 28.9429 32.7837C29.5491 32.6661 30.1059 32.3759 30.5429 31.9494C30.98 31.5231 31.2776 30.9799 31.3982 30.3886C31.5188 29.7972 31.4569 29.1842 31.2204 28.6272C30.9838 28.0701 30.5833 27.594 30.0694 27.259C29.5555 26.9241 28.9513 26.7453 28.3332 26.7453C27.5044 26.7453 26.7096 27.0665 26.1235 27.6382C25.5375 28.2099 25.2082 28.9853 25.2082 29.7938Z" fill="#FFE9E4"/>
<path d="M26.0879 20.2141L25.3674 22.0286L22.8875 23.4016L20.9103 23.1074C20.581 23.0638 20.2459 23.1167 19.9476 23.2593C19.6492 23.4019 19.4011 23.6279 19.2346 23.9084L18.5644 25.0526C18.3926 25.3376 18.3135 25.6667 18.3374 25.9965C18.3614 26.3263 18.4872 26.6412 18.6984 26.8998L19.9552 28.42V31.1661L18.7319 32.6864C18.5207 32.9449 18.3949 33.2597 18.3709 33.5895C18.347 33.9195 18.4261 34.2485 18.5979 34.5336L19.2681 35.6776C19.4346 35.9583 19.6827 36.1842 19.9811 36.3268C20.2795 36.4693 20.6145 36.5222 20.9438 36.4788L22.921 36.1844L25.3674 37.5575L26.0879 39.372C26.2094 39.6792 26.4232 39.9434 26.7013 40.1299C26.9793 40.3168 27.3087 40.4172 27.6462 40.418H29.0538C29.3913 40.4172 29.7207 40.3168 29.9987 40.1299C30.2768 39.9434 30.4906 39.6792 30.6121 39.372L31.3326 37.5575L33.779 36.1844L35.7562 36.4788C36.0855 36.5222 36.4206 36.4693 36.7189 36.3268C37.0173 36.1842 37.2654 35.9583 37.4319 35.6776L38.1021 34.5336C38.2739 34.2485 38.353 33.9195 38.3291 33.5895C38.3051 33.2597 38.1793 32.9449 37.9681 32.6864L36.7113 31.1661V28.42L37.9345 26.8998C38.1457 26.6412 38.2716 26.3263 38.2955 25.9965C38.3195 25.6667 38.2403 25.3376 38.0686 25.0526L37.3983 23.9084C37.2319 23.6279 36.9838 23.4019 36.6854 23.2593C36.387 23.1167 36.052 23.0638 35.7227 23.1074L33.7455 23.4016L31.2991 22.0286L30.5786 20.2141C30.4571 19.9069 30.2433 19.6427 29.9652 19.456C29.6871 19.2694 29.3578 19.1689 29.0202 19.168H27.6462C27.3087 19.1689 26.9793 19.2694 26.7013 19.456C26.4232 19.6427 26.2094 19.9069 26.0879 20.2141Z" stroke="#FF6849" stroke-width="1.5" stroke-linecap="round" stroke-linejoin="round"/>
<path d="M25.5618 31.0173C25.1955 30.4691 25 29.8246 25 29.1654C25 28.2813 25.3512 27.4335 25.9763 26.8084C26.6014 26.1832 27.4493 25.832 28.3333 25.832C28.9926 25.832 29.6371 26.0275 30.1852 26.3938C30.7334 26.7601 31.1606 27.2807 31.4129 27.8898C31.6652 28.4988 31.7312 29.1691 31.6026 29.8157C31.474 30.4623 31.1565 31.0562 30.6904 31.5224C30.2242 31.9885 29.6302 32.3061 28.9836 32.4347C28.337 32.5632 27.6668 32.4973 27.0577 32.2451C26.4486 31.9925 25.928 31.5653 25.5618 31.0173Z" stroke="#FF6849" stroke-width="1.5" stroke-linecap="round" stroke-linejoin="round"/>
</g>
<defs>
<clipPath id="clip0_4056_1696">
<rect width="32" height="32" fill="white" transform="translate(17 16.5)"/>
</clipPath>
</defs>
</svg>
