<svg width="66" height="66" viewBox="0 0 66 66" fill="none" xmlns="http://www.w3.org/2000/svg">
<path d="M1 8.125C1 3.98286 4.35786 0.625 8.5 0.625H57.5C61.6421 0.625 65 3.98286 65 8.125V57.125C65 61.2671 61.6421 64.625 57.5 64.625H8.5C4.35786 64.625 1 61.2671 1 57.125V8.125Z" stroke="#DDDFDA"/>
<path d="M41.4443 37.3746V33.1523H45.6666V37.3746H41.4443Z" fill="#FFE9E4"/>
<path d="M41.4443 37.3746V33.1523H45.6666V37.3746H41.4443Z" stroke="#FF6849" stroke-width="1.5" stroke-linecap="round" stroke-linejoin="round"/>
<path d="M38.2776 35.2617H41.4443" stroke="#FF6849" stroke-width="1.5" stroke-linecap="round" stroke-linejoin="round"/>
<path d="M24.5554 25.7652V21.543H20.3332V25.7652H24.5554Z" fill="#FFE9E4"/>
<path d="M24.5554 25.7652V21.543H20.3332V25.7652H24.5554Z" stroke="#FF6849" stroke-width="1.5" stroke-linecap="round" stroke-linejoin="round"/>
<path d="M27.7222 23.6523H24.5555" stroke="#FF6849" stroke-width="1.5" stroke-linecap="round" stroke-linejoin="round"/>
<path d="M26.6665 41.5973V37.375H22.4442V41.5973H26.6665Z" fill="#FFE9E4"/>
<path d="M26.6665 41.5973V37.375H22.4442V41.5973H26.6665Z" stroke="#FF6849" stroke-width="1.5" stroke-linecap="round" stroke-linejoin="round"/>
<path d="M29.8333 39.4844H26.6666" stroke="#FF6849" stroke-width="1.5" stroke-linecap="round" stroke-linejoin="round"/>
<path d="M39.3333 29.9879V25.7656H43.5555V29.9879H39.3333Z" fill="#FFE9E4"/>
<path d="M39.3333 29.9879V25.7656H43.5555V29.9879H39.3333Z" stroke="#FF6849" stroke-width="1.5" stroke-linecap="round" stroke-linejoin="round"/>
<path d="M36.1665 27.875H39.3332" stroke="#FF6849" stroke-width="1.5" stroke-linecap="round" stroke-linejoin="round"/>
<path d="M36.1665 43.7105V39.4883H40.3888V43.7105H36.1665Z" fill="#FFE9E4"/>
<path d="M36.1665 43.7105V39.4883H40.3888V43.7105H36.1665Z" stroke="#FF6849" stroke-width="1.5" stroke-linecap="round" stroke-linejoin="round"/>
<path d="M33 34.2066V29.9844H37.2223V34.2066H33Z" fill="#FFE9E4"/>
<path d="M33 34.2066V29.9844H37.2223V34.2066H33Z" stroke="#FF6849" stroke-width="1.5" stroke-linecap="round" stroke-linejoin="round"/>
<path d="M23.5 32.0977H33.0001" stroke="#FF6849" stroke-width="1.5" stroke-linecap="round" stroke-linejoin="round"/>
<path d="M29.8333 39.4844L38.2778 35.2621" stroke="#FF6849" stroke-width="1.5" stroke-linecap="round" stroke-linejoin="round"/>
<path d="M36.1667 27.875L27.7222 23.6527" stroke="#FF6849" stroke-width="1.5" stroke-linecap="round" stroke-linejoin="round"/>
<path d="M21.3889 34.2066V29.9844H25.6112V34.2066H21.3889Z" fill="#FFE9E4"/>
<path d="M21.3889 34.2066V29.9844H25.6112V34.2066H21.3889Z" stroke="#FF6849" stroke-width="1.5" stroke-linecap="round" stroke-linejoin="round"/>
</svg>
