<svg width="66" height="66" viewBox="0 0 66 66" fill="none" xmlns="http://www.w3.org/2000/svg">
<path d="M1 8.125C1 3.98286 4.35786 0.625 8.5 0.625H57.5C61.6421 0.625 65 3.98286 65 8.125V57.125C65 61.2671 61.6421 64.625 57.5 64.625H8.5C4.35786 64.625 1 61.2671 1 57.125V8.125Z" stroke="#DDDFDA"/>
<path d="M23.9272 28.7263C23.7435 28.1088 23.6448 27.4547 23.6448 26.7775C23.6448 23.0107 26.6984 19.957 30.4653 19.957C34.2322 19.957 37.2858 23.0107 37.2858 26.7775C37.2858 27.4547 37.1871 28.1088 37.0034 28.7263" stroke="#FF6849" stroke-width="1.5" stroke-linecap="round" stroke-linejoin="round"/>
<path d="M41.1831 19.957L44.1062 22.8801L41.1831 25.8032" stroke="#FF6849" stroke-width="1.5" stroke-linecap="round" stroke-linejoin="round"/>
<path d="M44.1063 22.8789H36.0632" stroke="#FF6849" stroke-width="1.5" stroke-linecap="round" stroke-linejoin="round"/>
<path d="M28.0293 28.2406V40.4201L25.7143 38.1051C24.8403 37.2312 23.4233 37.2312 22.5493 38.1051C21.7757 38.8786 21.6748 40.0981 22.3107 40.9885L25.3846 45.2919H41.2717L41.6511 41.1189C41.9214 38.1457 39.5498 35.5965 36.5649 35.6516L32.901 35.7374V28.2406C32.901 26.8953 31.8105 25.8047 30.4652 25.8047C29.1198 25.8047 28.0293 26.8953 28.0293 28.2406Z" fill="#FFE9E4"/>
<path d="M41.2718 45.2919L41.65 41.1298C41.9207 38.1527 39.5429 35.6017 36.5542 35.6627L32.901 35.7373V28.2406C32.901 26.8953 31.8105 25.8047 30.4652 25.8047C29.1198 25.8047 28.0293 26.8953 28.0293 28.2406V40.4201L25.7143 38.1051C24.8403 37.2312 23.4233 37.2312 22.5493 38.1051C21.7757 38.8786 21.6748 40.0981 22.3107 40.9885L25.3846 45.2919" stroke="#FF6849" stroke-width="1.5" stroke-linecap="round" stroke-linejoin="round"/>
</svg>
