<svg width="66" height="65" viewBox="0 0 66 65" fill="none" xmlns="http://www.w3.org/2000/svg">
<path d="M1 8C1 3.85786 4.35786 0.5 8.5 0.5H57.5C61.6421 0.5 65 3.85786 65 8V57C65 61.1421 61.6421 64.5 57.5 64.5H8.5C4.35786 64.5 1 61.1421 1 57V8Z" stroke="#DDDFDA"/>
<g clip-path="url(#clip0_4056_1662)">
<path fill-rule="evenodd" clip-rule="evenodd" d="M42.7728 25.9858C42.8429 26.067 42.9348 26.1265 43.0377 26.1572C44.5273 26.5081 45.8363 27.3931 46.7172 28.6444C47.5981 29.8958 47.9895 31.4267 47.8173 32.9473C47.6452 34.4679 46.9216 35.8726 45.7833 36.8954C45.1741 37.4429 44.4688 37.8606 43.7101 38.132C43.7497 37.9284 43.7771 37.7217 43.792 37.5132C43.8644 36.488 43.6278 35.4648 43.1131 34.5758L42.6637 33.7893L42.6525 33.7702C42.1424 32.8886 41.3814 32.1785 40.4667 31.7303C39.706 31.3575 38.8668 31.1795 38.0244 31.2094C37.6382 30.4743 37.078 29.8411 36.3891 29.367C35.5366 28.7804 34.5268 28.4648 33.4919 28.4618H32.5428L32.5309 28.4618C31.4961 28.4649 30.4863 28.7804 29.6338 29.367C28.9446 29.8413 28.3843 30.4749 27.998 31.2103C27.1486 31.1765 26.3012 31.354 25.5332 31.7303C24.6185 32.1785 23.8576 32.8886 23.3474 33.7702L22.887 34.5758C22.3722 35.4648 22.1355 36.488 22.2081 37.5132C22.2141 37.5976 22.2221 37.6817 22.2322 37.7653C21.6631 37.4859 21.1281 37.1314 20.6425 36.7069C19.1824 35.4306 18.2892 33.6265 18.1593 31.6915C18.0293 29.7566 18.6734 27.8493 19.9497 26.3892C20.5817 25.6662 21.3499 25.0748 22.2105 24.6488C23.071 24.2227 24.007 23.9703 24.9651 23.9059C25.0646 23.9081 25.1625 23.8818 25.2475 23.8301C25.3324 23.7784 25.4008 23.7035 25.4446 23.6141C26.1055 21.6986 27.4031 20.0675 29.1211 18.9929C30.8391 17.9183 32.8735 17.4651 34.8852 17.7089C36.8969 17.9528 38.7641 18.8789 40.1755 20.3328C41.5872 21.7867 42.4576 23.6806 42.6416 25.6986C42.6571 25.8049 42.7024 25.9045 42.7728 25.9858Z" fill="#FFE9E4"/>
<path d="M44.8361 37.5973C45.1712 37.395 45.4884 37.1604 45.7833 36.8954C46.9216 35.8726 47.6452 34.4679 47.8173 32.9473C47.9894 31.4267 47.5981 29.8958 46.7172 28.6444C45.8363 27.3931 44.5273 26.5081 43.0377 26.1572C42.9348 26.1265 42.8429 26.067 42.7728 25.9858C42.7024 25.9045 42.6571 25.8049 42.6416 25.6986C42.4576 23.6806 41.5872 21.7867 40.1755 20.3328C38.7641 18.8789 36.8969 17.9528 34.8852 17.7089C32.8735 17.4651 30.8391 17.9183 29.1211 18.9929C27.4031 20.0675 26.1055 21.6986 25.4446 23.6141C25.4008 23.7035 25.3324 23.7784 25.2475 23.8301C25.1625 23.8818 25.0646 23.9081 24.9651 23.9059C24.007 23.9703 23.071 24.2227 22.2105 24.6488C21.3499 25.0748 20.5817 25.6662 19.9497 26.3892C18.6734 27.8493 18.0293 29.7566 18.1593 31.6915C18.2892 33.6265 19.1824 35.4306 20.6425 36.7069C20.8719 36.9075 21.1124 37.0924 21.3623 37.2612" stroke="#FF6849" stroke-width="1.5" stroke-linecap="round" stroke-linejoin="round"/>
<path d="M40.7948 44.707L38.3333 44.707L38.3333 47.1686L40.7948 47.1686L40.7948 44.707Z" fill="#FFE9E4"/>
<path d="M40.7948 44.707L38.3333 44.707L38.3333 47.1686L40.7948 47.1686L40.7948 44.707Z" stroke="#FF6849" stroke-width="1.5" stroke-linecap="round" stroke-linejoin="round"/>
<path d="M38.3333 39.168L38.3333 42.0771L39.5641 44.7064" stroke="#FF6849" stroke-width="1.5" stroke-linecap="round" stroke-linejoin="round"/>
<path d="M25.0001 44.707L27.4617 44.707L27.4617 47.1686L25.0001 47.1686L25.0001 44.707Z" fill="#FFE9E4"/>
<path d="M25.0001 44.707L27.4617 44.707L27.4617 47.1686L25.0001 47.1686L25.0001 44.707Z" stroke="#FF6849" stroke-width="1.5" stroke-linecap="round" stroke-linejoin="round"/>
<path d="M27.4617 39.168L27.4617 42.0771L26.2308 44.7064" stroke="#FF6849" stroke-width="1.5" stroke-linecap="round" stroke-linejoin="round"/>
<path d="M34.5385 44.293L31.6667 44.293L31.6667 47.1648L34.5385 47.1648L34.5385 44.293Z" fill="#FFE9E4"/>
<path d="M34.5385 44.293L31.6667 44.293L31.6667 47.1648L34.5385 47.1648L34.5385 44.293Z" stroke="#FF6849" stroke-width="1.5" stroke-linecap="round" stroke-linejoin="round"/>
<path d="M33.1025 37.832L33.1025 44.2936" stroke="#FF6849" stroke-width="1.5" stroke-linecap="round" stroke-linejoin="round"/>
<path fill-rule="evenodd" clip-rule="evenodd" d="M26.3333 29.9453V39.4752C26.3333 40.0416 26.7925 40.5009 27.3589 40.5009H38.6409C39.2074 40.5009 39.6666 40.0416 39.6666 39.4752V29.9453H26.3333Z" fill="#F9F8F6"/>
<path fill-rule="evenodd" clip-rule="evenodd" d="M39.6666 29.9662H26.3333V28.1936C26.3333 27.6272 26.7925 27.168 27.3589 27.168H38.6409C39.2074 27.168 39.6666 27.6272 39.6666 28.1936V29.9662Z" fill="#FFE9E4"/>
<path d="M38.6409 27.168H27.3589C26.7925 27.168 26.3333 27.6272 26.3333 28.1936V39.4756C26.3333 40.0421 26.7925 40.5013 27.3589 40.5013H38.6409C39.2074 40.5013 39.6666 40.0421 39.6666 39.4756V28.1936C39.6666 27.6272 39.2074 27.168 38.6409 27.168Z" stroke="#FF6849" stroke-width="1.5" stroke-linecap="round" stroke-linejoin="round"/>
<path d="M26.3333 29.9453H39.6667" stroke="#FF6849" stroke-width="1.5" stroke-linecap="round" stroke-linejoin="round"/>
<path d="M31.3332 33.8359L29.6665 35.5026L31.3332 37.1693" stroke="#FF6849" stroke-width="1.5" stroke-linecap="round" stroke-linejoin="round"/>
<path d="M34.6665 33.8359L36.3332 35.5026L34.6665 37.1693" stroke="#FF6849" stroke-width="1.5" stroke-linecap="round" stroke-linejoin="round"/>
</g>
<defs>
<clipPath id="clip0_4056_1662">
<rect width="32" height="32" fill="white" transform="translate(17 16.5)"/>
</clipPath>
</defs>
</svg>
