<svg width="54" height="54" viewBox="0 0 54 54" fill="none" xmlns="http://www.w3.org/2000/svg">
<path d="M12 0.5H42C48.3513 0.5 53.5 5.64873 53.5 12V42C53.5 48.3513 48.3513 53.5 42 53.5H12C5.64873 53.5 0.5 48.3513 0.5 42V12C0.5 5.64873 5.64873 0.5 12 0.5Z" stroke="#E7E7E7"/>
<g clip-path="url(#clip0_4156_33945)">
<path fill-rule="evenodd" clip-rule="evenodd" d="M34.7143 19.4883C34.7143 21.4954 30.493 23.1226 25.2857 23.1226C20.0784 23.1226 15.8571 21.4954 15.8571 19.4883V31.0768C15.8571 33.0329 19.8355 34.6139 24.8982 34.7069C24.8944 34.5786 24.897 34.4499 24.9061 34.321C24.9511 33.6855 25.1527 33.0733 25.4902 32.5381C25.1527 32.0029 24.9511 31.3908 24.9061 30.7553C24.8516 29.9864 25.0291 29.219 25.4153 28.5522L25.7605 27.948C26.1432 27.2868 26.7139 26.7543 27.3999 26.4181C27.9759 26.1359 28.6114 26.0028 29.2485 26.0282C29.5382 25.4766 29.9585 25.0014 30.4754 24.6457C31.1147 24.2057 31.8721 23.969 32.6482 23.9667L32.6571 23.9667H33.3689C33.8311 23.9681 34.2864 24.0525 34.7143 24.2135V19.4883Z" fill="#FFE9E4"/>
<path d="M25.2857 23.124C30.493 23.124 34.7143 21.4969 34.7143 19.4898C34.7143 17.4826 30.493 15.8555 25.2857 15.8555C20.0784 15.8555 15.8571 17.4826 15.8571 19.4898C15.8571 21.4969 20.0784 23.124 25.2857 23.124Z" fill="white"/>
<path d="M25.2857 23.124C30.493 23.124 34.7143 21.4969 34.7143 19.4898C34.7143 17.4826 30.493 15.8555 25.2857 15.8555C20.0784 15.8555 15.8571 17.4826 15.8571 19.4898C15.8571 21.4969 20.0784 23.124 25.2857 23.124Z" stroke="#FF6849" stroke-width="1.5" stroke-linecap="round" stroke-linejoin="round"/>
<path d="M15.8571 19.4883V31.0768C15.8571 32.9581 19.5653 34.5054 24.3179 34.6923" stroke="#FF6849" stroke-width="1.5" stroke-linecap="round" stroke-linejoin="round"/>
<path d="M34.7142 23.5683V19.4883" stroke="#FF6849" stroke-width="1.5" stroke-linecap="round" stroke-linejoin="round"/>
<path d="M15.8571 25.2852C15.8571 27.1468 19.4884 28.6814 24.1695 28.8942" stroke="#FF6849" stroke-width="1.5" stroke-linecap="round" stroke-linejoin="round"/>
<path d="M31.4747 28.4456L31.8452 27.489C31.9077 27.3271 32.0177 27.1878 32.1607 27.0894C32.3036 26.9909 32.473 26.938 32.6467 26.9375H33.3533C33.5269 26.938 33.6963 26.9909 33.8393 27.0894C33.9823 27.1878 34.0921 27.3271 34.1547 27.489L34.5253 28.4456L35.7835 29.1694L36.8002 29.0143C36.9696 28.9913 37.1419 29.0192 37.2953 29.0944C37.4489 29.1696 37.5764 29.2887 37.662 29.4366L38.0067 30.0398C38.095 30.19 38.1358 30.3635 38.1235 30.5374C38.1111 30.7112 38.0465 30.8773 37.9378 31.0136L37.3087 31.815V33.2627L37.9549 34.0641C38.0636 34.2004 38.1284 34.3665 38.1406 34.5404C38.1529 34.7142 38.1123 34.8877 38.024 35.0379L37.6793 35.6411C37.5937 35.7891 37.466 35.9082 37.3126 35.9833C37.1592 36.0585 36.9869 36.0863 36.8175 36.0633L35.8006 35.9084L34.5425 36.6321L34.172 37.5887C34.1095 37.7507 33.9996 37.8899 33.8564 37.9883C33.7135 38.0867 33.5441 38.1397 33.3706 38.1402H32.6467C32.473 38.1397 32.3036 38.0867 32.1607 37.9883C32.0177 37.8899 31.9077 37.7507 31.8452 37.5887L31.4747 36.6321L30.2165 35.9084L29.1997 36.0633C29.0303 36.0863 28.858 36.0585 28.7046 35.9833C28.5511 35.9082 28.4235 35.7891 28.3379 35.6411L27.9932 35.0379C27.9049 34.8877 27.8642 34.7142 27.8765 34.5404C27.8888 34.3665 27.9535 34.2004 28.0622 34.0641L28.6912 33.2627V31.815L28.0449 31.0136C27.9363 30.8773 27.8716 30.7112 27.8593 30.5374C27.847 30.3635 27.8876 30.19 27.976 30.0398L28.3207 29.4366C28.4063 29.2887 28.5339 29.1696 28.6873 29.0944C28.8408 29.0192 29.0131 28.9913 29.1824 29.0143L30.1993 29.1694L31.4747 28.4456Z" fill="white"/>
<path d="M31.4747 28.4456L31.8452 27.489C31.9077 27.3271 32.0177 27.1878 32.1607 27.0894C32.3036 26.9909 32.473 26.938 32.6467 26.9375H33.3533C33.5269 26.938 33.6963 26.9909 33.8393 27.0894C33.9823 27.1878 34.0921 27.3271 34.1547 27.489L34.5253 28.4456L35.7835 29.1694L36.8002 29.0143C36.9696 28.9913 37.1419 29.0192 37.2953 29.0944C37.4489 29.1696 37.5764 29.2887 37.662 29.4366L38.0067 30.0398C38.095 30.19 38.1358 30.3635 38.1235 30.5374C38.1111 30.7112 38.0465 30.8773 37.9378 31.0136L37.3087 31.815V33.2627L37.9549 34.0641C38.0636 34.2004 38.1284 34.3665 38.1406 34.5404C38.1529 34.7142 38.1123 34.8877 38.024 35.0379L37.6793 35.6411C37.5937 35.7891 37.466 35.9082 37.3126 35.9833C37.1592 36.0585 36.9869 36.0863 36.8175 36.0633L35.8006 35.9084L34.5425 36.6321L34.172 37.5887C34.1095 37.7507 33.9996 37.8899 33.8564 37.9883C33.7135 38.0867 33.5441 38.1397 33.3706 38.1402H32.6467C32.473 38.1397 32.3036 38.0867 32.1607 37.9883C32.0177 37.8899 31.9077 37.7507 31.8452 37.5887L31.4747 36.6321L30.2165 35.9084L29.1997 36.0633C29.0303 36.0863 28.858 36.0585 28.7046 35.9833C28.5511 35.9082 28.4235 35.7891 28.3379 35.6411L27.9932 35.0379C27.9049 34.8877 27.8642 34.7142 27.8765 34.5404C27.8888 34.3665 27.9535 34.2004 28.0622 34.0641L28.6912 33.2627V31.815L28.0449 31.0136C27.9363 30.8773 27.8716 30.7112 27.8593 30.5374C27.847 30.3635 27.8876 30.19 27.976 30.0398L28.3207 29.4366C28.4063 29.2887 28.5339 29.1696 28.6873 29.0944C28.8408 29.0192 29.0131 28.9913 29.1824 29.0143L30.1993 29.1694L31.4747 28.4456Z" stroke="#FF6849" stroke-width="1.5" stroke-linecap="round" stroke-linejoin="round"/>
<path d="M32.1428 32.5407C32.1428 32.7681 32.2331 32.9861 32.3939 33.1468C32.5546 33.3076 32.7726 33.3979 33 33.3979C33.2273 33.3979 33.4453 33.3076 33.6061 33.1468C33.7668 32.9861 33.8571 32.7681 33.8571 32.5407C33.8571 32.3134 33.7668 32.0954 33.6061 31.9346C33.4453 31.7739 33.2273 31.6836 33 31.6836C32.7726 31.6836 32.5546 31.7739 32.3939 31.9346C32.2331 32.0954 32.1428 32.3134 32.1428 32.5407Z" stroke="#FF6849" stroke-width="1.5" stroke-linecap="round" stroke-linejoin="round"/>
</g>
<defs>
<clipPath id="clip0_4156_33945">
<rect width="24" height="24" fill="white" transform="translate(15 15)"/>
</clipPath>
</defs>
</svg>
