<svg width="88" height="89" viewBox="0 0 88 89" fill="none" xmlns="http://www.w3.org/2000/svg">
<path d="M0.5 12.5C0.5 6.14873 5.64873 1 12 1H76C82.3513 1 87.5 6.14873 87.5 12.5V76.5C87.5 82.8513 82.3513 88 76 88H12C5.64873 88 0.5 82.8513 0.5 76.5V12.5Z" stroke="#DDDFDA"/>
<path fill-rule="evenodd" clip-rule="evenodd" d="M56.8573 31.9863C56.8573 35.3316 49.8218 38.0435 41.143 38.0435C32.4642 38.0435 25.4287 35.3316 25.4287 31.9863V51.3006C25.4287 54.5606 32.0593 57.1958 40.4971 57.3506C40.4908 57.1369 40.4951 56.9223 40.5103 56.7075C40.5853 55.6483 40.9214 54.628 41.4838 53.736C40.9214 52.8441 40.5853 51.8239 40.5103 50.7648C40.4196 49.4832 40.7154 48.2041 41.359 47.0929L41.9344 46.0859C42.5722 44.9839 43.5233 44.0964 44.6667 43.5361C45.6267 43.0657 46.6859 42.8438 47.7477 42.8861C48.2305 41.9668 48.931 41.1748 49.7925 40.582C50.8581 39.8486 52.1203 39.4542 53.4139 39.4504L53.4287 39.4504H54.615C55.3853 39.4527 56.1441 39.5934 56.8573 39.8616V31.9863Z" fill="#FFE9E4"/>
<path d="M41.143 38.043C49.8218 38.043 56.8573 35.3311 56.8573 31.9859C56.8573 28.6406 49.8218 25.9287 41.143 25.9287C32.4642 25.9287 25.4287 28.6406 25.4287 31.9859C25.4287 35.3311 32.4642 38.043 41.143 38.043Z" fill="white"/>
<path d="M41.143 38.043C49.8218 38.043 56.8573 35.3311 56.8573 31.9859C56.8573 28.6406 49.8218 25.9287 41.143 25.9287C32.4642 25.9287 25.4287 28.6406 25.4287 31.9859C25.4287 35.3311 32.4642 38.043 41.143 38.043Z" stroke="#FF6849" stroke-width="1.5" stroke-linecap="round" stroke-linejoin="round"/>
<path d="M25.4287 31.9863V51.3006C25.4287 54.436 31.609 57.0149 39.5301 57.3263" stroke="#FF6849" stroke-width="1.5" stroke-linecap="round" stroke-linejoin="round"/>
<path d="M56.8574 38.7863V31.9863" stroke="#FF6849" stroke-width="1.5" stroke-linecap="round" stroke-linejoin="round"/>
<path d="M25.4287 41.6426C25.4287 44.7452 31.4808 47.303 39.2827 47.6577" stroke="#FF6849" stroke-width="1.5" stroke-linecap="round" stroke-linejoin="round"/>
<path d="M51.458 46.9138L52.0756 45.3196C52.1797 45.0496 52.363 44.8175 52.6013 44.6535C52.8396 44.4894 53.1218 44.4012 53.4113 44.4004H54.589C54.8784 44.4012 55.1607 44.4894 55.399 44.6535C55.6373 44.8175 55.8204 45.0496 55.9247 45.3196L56.5424 46.9138L58.6393 48.1203L60.3338 47.8617C60.6161 47.8235 60.9033 47.8699 61.159 47.9952C61.415 48.1205 61.6276 48.319 61.7701 48.5655L62.3447 49.5709C62.4918 49.8213 62.5598 50.1104 62.5393 50.4002C62.5187 50.6899 62.411 50.9666 62.2298 51.1938L61.1813 52.5295V54.9424L62.2584 56.2781C62.4396 56.5053 62.5476 56.7821 62.5678 57.0718C62.5884 57.3616 62.5207 57.6507 62.3736 57.901L61.799 58.9064C61.6564 59.153 61.4436 59.3516 61.1878 59.4767C60.9321 59.6021 60.645 59.6484 60.3627 59.6101L58.6678 59.3519L56.571 60.5581L55.9536 62.1524C55.8493 62.4224 55.6661 62.6544 55.4276 62.8184C55.1893 62.9824 54.907 63.0707 54.6178 63.0716H53.4113C53.1218 63.0707 52.8396 62.9824 52.6013 62.8184C52.363 62.6544 52.1797 62.4224 52.0756 62.1524L51.458 60.5581L49.361 59.3519L47.6663 59.6101C47.3841 59.6484 47.0969 59.6021 46.8411 59.4767C46.5854 59.3516 46.3727 59.153 46.23 58.9064L45.6555 57.901C45.5083 57.6507 45.4405 57.3616 45.461 57.0718C45.4815 56.7821 45.5894 56.5053 45.7704 56.2781L46.8189 54.9424V52.5295L45.7417 51.1938C45.5607 50.9666 45.4528 50.6899 45.4323 50.4002C45.4118 50.1104 45.4796 49.8213 45.6268 49.5709L46.2013 48.5655C46.344 48.319 46.5567 48.1205 46.8124 47.9952C47.0682 47.8699 47.3554 47.8235 47.6376 47.8617L49.3323 48.1203L51.458 46.9138Z" fill="white"/>
<path d="M51.458 46.9138L52.0756 45.3196C52.1797 45.0496 52.363 44.8175 52.6013 44.6535C52.8396 44.4894 53.1218 44.4012 53.4113 44.4004H54.589C54.8784 44.4012 55.1607 44.4894 55.399 44.6535C55.6373 44.8175 55.8204 45.0496 55.9247 45.3196L56.5424 46.9138L58.6393 48.1203L60.3338 47.8617C60.6161 47.8235 60.9033 47.8699 61.159 47.9952C61.415 48.1205 61.6276 48.319 61.7701 48.5655L62.3447 49.5709C62.4918 49.8213 62.5598 50.1104 62.5393 50.4002C62.5187 50.6899 62.411 50.9666 62.2298 51.1938L61.1813 52.5295V54.9424L62.2584 56.2781C62.4396 56.5053 62.5476 56.7821 62.5678 57.0719C62.5884 57.3616 62.5207 57.6507 62.3736 57.901L61.799 58.9064C61.6564 59.153 61.4436 59.3516 61.1878 59.4767C60.9321 59.6021 60.645 59.6484 60.3627 59.6101L58.6678 59.3519L56.571 60.5581L55.9536 62.1524C55.8493 62.4224 55.6661 62.6544 55.4276 62.8184C55.1893 62.9824 54.907 63.0707 54.6178 63.0716H53.4113C53.1218 63.0707 52.8396 62.9824 52.6013 62.8184C52.363 62.6544 52.1797 62.4224 52.0756 62.1524L51.458 60.5581L49.361 59.3519L47.6663 59.6101C47.3841 59.6484 47.0969 59.6021 46.8411 59.4767C46.5854 59.3516 46.3727 59.153 46.23 58.9064L45.6555 57.901C45.5083 57.6507 45.4405 57.3616 45.461 57.0719C45.4815 56.7821 45.5894 56.5053 45.7704 56.2781L46.8189 54.9424V52.5295L45.7417 51.1938C45.5607 50.9666 45.4528 50.6899 45.4323 50.4002C45.4118 50.1104 45.4796 49.8213 45.6268 49.5709L46.2013 48.5655C46.344 48.319 46.5567 48.1205 46.8124 47.9952C47.0682 47.8699 47.3554 47.8235 47.6376 47.8617L49.3323 48.1203L51.458 46.9138Z" stroke="#FF6849" stroke-width="1.5" stroke-linecap="round" stroke-linejoin="round"/>
<path d="M52.5713 53.7342C52.5713 54.1131 52.7218 54.4765 52.9897 54.7444C53.2576 55.0123 53.621 55.1628 53.9999 55.1628C54.3787 55.1628 54.7421 55.0123 55.01 54.7444C55.2779 54.4765 55.4284 54.1131 55.4284 53.7342C55.4284 53.3554 55.2779 52.992 55.01 52.7241C54.7421 52.4562 54.3787 52.3057 53.9999 52.3057C53.621 52.3057 53.2576 52.4562 52.9897 52.7241C52.7218 52.992 52.5713 53.3554 52.5713 53.7342Z" stroke="#FF6849" stroke-width="1.5" stroke-linecap="round" stroke-linejoin="round"/>
</svg>
