<svg width="64" height="64" viewBox="0 0 64 64" fill="none" xmlns="http://www.w3.org/2000/svg">
<path d="M0.5 12C0.5 5.64873 5.64873 0.5 12 0.5H52C58.3513 0.5 63.5 5.64873 63.5 12V52C63.5 58.3513 58.3513 63.5 52 63.5H12C5.64873 63.5 0.5 58.3513 0.5 52V12Z" stroke="#DDDFDA"/>
<g clip-path="url(#clip0_4156_31615)">
<path fill-rule="evenodd" clip-rule="evenodd" d="M43.5714 20.7363C43.5714 23.7471 37.2394 26.1878 29.4285 26.1878C21.6176 26.1878 15.2856 23.7471 15.2856 20.7363V38.1192C15.2856 41.0532 21.2532 43.4248 28.8472 43.5642C28.8415 43.3718 28.8454 43.1787 28.8591 42.9854C28.9266 42.0321 29.2291 41.1139 29.7352 40.3111C29.2291 39.5083 28.9266 38.5901 28.8591 37.6369C28.7774 36.4835 29.0437 35.3323 29.6229 34.3322L30.1408 33.426C30.7148 32.4341 31.5708 31.6354 32.5999 31.1311C33.4638 30.7078 34.4171 30.5081 35.3727 30.5461C35.8073 29.7188 36.4377 29.006 37.213 28.4724C38.1721 27.8124 39.3081 27.4575 40.4723 27.454L40.4856 27.454H41.5533C42.2466 27.456 42.9295 27.5827 43.5714 27.8241V20.7363Z" fill="#FFE9E4"/>
<path d="M29.4285 26.188C37.2394 26.188 43.5714 23.7473 43.5714 20.7366C43.5714 17.7259 37.2394 15.2852 29.4285 15.2852C21.6176 15.2852 15.2856 17.7259 15.2856 20.7366C15.2856 23.7473 21.6176 26.188 29.4285 26.188Z" fill="white"/>
<path d="M29.4285 26.188C37.2394 26.188 43.5714 23.7473 43.5714 20.7366C43.5714 17.7259 37.2394 15.2852 29.4285 15.2852C21.6176 15.2852 15.2856 17.7259 15.2856 20.7366C15.2856 23.7473 21.6176 26.188 29.4285 26.188Z" stroke="#FF6849" stroke-width="1.5" stroke-linecap="round" stroke-linejoin="round"/>
<path d="M15.2856 20.7363V38.1192C15.2856 40.9411 20.8479 43.262 27.9769 43.5423" stroke="#FF6849" stroke-width="1.5" stroke-linecap="round" stroke-linejoin="round"/>
<path d="M43.5713 26.8563V20.7363" stroke="#FF6849" stroke-width="1.5" stroke-linecap="round" stroke-linejoin="round"/>
<path d="M15.2856 29.4277C15.2856 32.2201 20.7325 34.5221 27.7543 34.8414" stroke="#FF6849" stroke-width="1.5" stroke-linecap="round" stroke-linejoin="round"/>
<path d="M38.712 34.1722L39.2678 32.7374C39.3615 32.4945 39.5265 32.2855 39.7409 32.1379C39.9554 31.9903 40.2095 31.9109 40.4699 31.9102H41.5299C41.7904 31.9109 42.0444 31.9903 42.2589 32.1379C42.4733 32.2855 42.6382 32.4945 42.732 32.7374L43.288 34.1722L45.1751 35.2581L46.7003 35.0254C46.9543 34.9909 47.2127 35.0327 47.4429 35.1455C47.6733 35.2583 47.8646 35.4369 47.9929 35.6588L48.51 36.5636C48.6425 36.789 48.7037 37.0492 48.6851 37.31C48.6666 37.5707 48.5697 37.8198 48.4067 38.0242L47.4629 39.2264V41.398L48.4324 42.6001C48.5954 42.8046 48.6926 43.0537 48.7109 43.3145C48.7294 43.5752 48.6684 43.8354 48.536 44.0607L48.0189 44.9656C47.8906 45.1875 47.699 45.3662 47.4689 45.4788C47.2387 45.5917 46.9803 45.6334 46.7262 45.5989L45.2009 45.3665L43.3137 46.4521L42.758 47.887C42.6641 48.13 42.4993 48.3388 42.2846 48.4864C42.0701 48.634 41.8161 48.7134 41.5559 48.7142H40.4699C40.2095 48.7134 39.9554 48.634 39.7409 48.4864C39.5265 48.3388 39.3615 48.13 39.2678 47.887L38.712 46.4521L36.8247 45.3665L35.2994 45.5989C35.0455 45.6334 34.787 45.5917 34.5568 45.4788C34.3267 45.3662 34.1352 45.1875 34.0068 44.9656L33.4898 44.0607C33.3573 43.8354 33.2963 43.5752 33.3147 43.3145C33.3332 43.0537 33.4303 42.8046 33.5932 42.6001L34.5368 41.398V39.2264L33.5673 38.0242C33.4044 37.8198 33.3073 37.5707 33.2889 37.31C33.2704 37.0492 33.3314 36.789 33.4639 36.5636L33.981 35.6588C34.1094 35.4369 34.3008 35.2583 34.531 35.1455C34.7611 35.0327 35.0196 34.9909 35.2736 35.0254L36.7989 35.2581L38.712 34.1722Z" fill="white"/>
<path d="M38.712 34.1722L39.2678 32.7374C39.3615 32.4945 39.5265 32.2855 39.7409 32.1379C39.9554 31.9903 40.2095 31.9109 40.4699 31.9102H41.5299C41.7904 31.9109 42.0444 31.9903 42.2589 32.1379C42.4733 32.2855 42.6382 32.4945 42.732 32.7374L43.288 34.1722L45.1751 35.2581L46.7003 35.0254C46.9543 34.9909 47.2127 35.0327 47.4429 35.1455C47.6733 35.2583 47.8646 35.4369 47.9929 35.6588L48.51 36.5636C48.6425 36.789 48.7037 37.0492 48.6851 37.31C48.6666 37.5707 48.5697 37.8198 48.4067 38.0242L47.4629 39.2264V41.398L48.4324 42.6001C48.5954 42.8046 48.6926 43.0537 48.7109 43.3145C48.7294 43.5752 48.6684 43.8354 48.536 44.0607L48.0189 44.9656C47.8906 45.1875 47.699 45.3662 47.4689 45.4788C47.2387 45.5917 46.9803 45.6334 46.7262 45.5989L45.2009 45.3665L43.3137 46.4521L42.758 47.887C42.6641 48.13 42.4993 48.3388 42.2846 48.4864C42.0701 48.634 41.8161 48.7134 41.5559 48.7142H40.4699C40.2095 48.7134 39.9554 48.634 39.7409 48.4864C39.5265 48.3388 39.3615 48.13 39.2678 47.887L38.712 46.4521L36.8247 45.3665L35.2994 45.5989C35.0455 45.6334 34.787 45.5917 34.5568 45.4788C34.3267 45.3662 34.1352 45.1875 34.0068 44.9656L33.4898 44.0607C33.3573 43.8354 33.2963 43.5752 33.3147 43.3145C33.3332 43.0537 33.4303 42.8046 33.5932 42.6001L34.5368 41.398V39.2264L33.5673 38.0242C33.4044 37.8198 33.3073 37.5707 33.2889 37.31C33.2704 37.0492 33.3314 36.789 33.4639 36.5636L33.981 35.6588C34.1094 35.4369 34.3008 35.2583 34.531 35.1455C34.7611 35.0327 35.0196 34.9909 35.2736 35.0254L36.7989 35.2581L38.712 34.1722Z" stroke="#FF6849" stroke-width="1.5" stroke-linecap="round" stroke-linejoin="round"/>
<path d="M39.7141 40.3111C39.7141 40.6521 39.8496 40.9791 40.0907 41.2202C40.3318 41.4614 40.6588 41.5968 40.9998 41.5968C41.3408 41.5968 41.6678 41.4614 41.909 41.2202C42.1501 40.9791 42.2855 40.6521 42.2855 40.3111C42.2855 39.9701 42.1501 39.6431 41.909 39.402C41.6678 39.1608 41.3408 39.0254 40.9998 39.0254C40.6588 39.0254 40.3318 39.1608 40.0907 39.402C39.8496 39.6431 39.7141 39.9701 39.7141 40.3111Z" stroke="#FF6849" stroke-width="1.5" stroke-linecap="round" stroke-linejoin="round"/>
</g>
<defs>
<clipPath id="clip0_4156_31615">
<rect width="36" height="36" fill="white" transform="translate(14 14)"/>
</clipPath>
</defs>
</svg>
