<svg width="368" height="218" viewBox="0 0 368 218" fill="none" xmlns="http://www.w3.org/2000/svg">
<path d="M191.246 42.8109L184.917 39.4895L184.917 39.4891C184.331 39.1793 183.628 39.1802 183.043 39.4878C183.043 39.4878 183.043 39.4879 183.043 39.4879C183.042 39.488 183.042 39.4881 183.042 39.4881L176.715 42.8089C176.714 42.8091 176.714 42.8092 176.714 42.8094C176.71 42.8111 176.708 42.8121 176.706 42.8127C176.704 42.8121 176.701 42.8107 176.697 42.8078C176.695 42.806 176.693 42.8043 176.692 42.803C176.692 42.8018 176.692 42.8003 176.692 42.7985C176.692 42.7983 176.692 42.7982 176.692 42.798L177.901 35.7631L177.901 35.7627C178.012 35.1133 177.799 34.4461 177.321 33.983C177.321 33.9827 177.32 33.9824 177.32 33.9821L172.198 28.999L172.196 28.9968C172.196 28.9965 172.195 28.9962 172.195 28.9959C172.195 28.9948 172.195 28.9936 172.196 28.9923C172.197 28.9897 172.198 28.9875 172.199 28.9859C172.2 28.9856 172.202 28.9852 172.205 28.9848L179.281 27.9598C179.282 27.9597 179.282 27.9597 179.282 27.9596C179.938 27.8654 180.505 27.455 180.798 26.8618C180.798 26.8617 180.799 26.8616 180.799 26.8615C180.799 26.8614 180.799 26.8613 180.799 26.8611L183.967 20.4572C183.967 20.4571 183.967 20.457 183.967 20.4569C183.968 20.4548 183.969 20.4532 183.969 20.4521C183.971 20.4516 183.974 20.4512 183.978 20.4512C183.982 20.4512 183.985 20.4518 183.987 20.4523C183.988 20.4536 183.989 20.4555 183.991 20.4581C183.991 20.4583 183.991 20.4584 183.991 20.4585L187.158 26.8611C187.158 26.8612 187.158 26.8614 187.158 26.8615C187.158 26.8616 187.158 26.8617 187.158 26.8618C187.452 27.4574 188.024 27.8656 188.674 27.9596C188.674 27.9596 188.674 27.9596 188.674 27.9596L195.753 28.985L195.755 28.9853C195.757 28.9855 195.758 28.9858 195.759 28.986C195.76 28.987 195.76 28.9883 195.761 28.9897C195.761 28.9907 195.761 28.9916 195.762 28.9925C195.762 28.9935 195.762 28.9944 195.762 28.9952C195.761 28.9963 195.76 28.9977 195.758 28.9994L190.637 33.982C190.636 33.9824 190.636 33.9827 190.636 33.9831C190.156 34.4485 189.948 35.1152 190.055 35.7585L190.056 35.7631L191.264 42.7988C191.265 42.8015 191.265 42.8035 191.265 42.8051C191.264 42.8065 191.262 42.8081 191.26 42.8098C191.257 42.8118 191.254 42.8132 191.252 42.814C191.251 42.8134 191.249 42.8125 191.246 42.811L191.246 42.8109Z" fill="white" stroke="#FFE500" stroke-width="2"/>
<path d="M191.246 196.948L184.917 193.626L184.917 193.626C184.331 193.316 183.628 193.317 183.043 193.624C183.043 193.625 183.043 193.625 183.043 193.625C183.042 193.625 183.042 193.625 183.042 193.625L176.715 196.946C176.714 196.946 176.714 196.946 176.714 196.946C176.71 196.948 176.708 196.949 176.706 196.949C176.704 196.949 176.701 196.947 176.697 196.945C176.695 196.943 176.693 196.941 176.692 196.94C176.692 196.938 176.692 196.937 176.692 196.935C176.692 196.935 176.692 196.935 176.692 196.935L177.901 189.9L177.901 189.899C178.012 189.25 177.799 188.583 177.321 188.12C177.321 188.119 177.32 188.119 177.32 188.119L172.198 183.136L172.196 183.134C172.196 183.133 172.195 183.133 172.195 183.133C172.195 183.131 172.195 183.13 172.196 183.129C172.197 183.126 172.198 183.124 172.199 183.123C172.2 183.122 172.202 183.122 172.205 183.122L179.281 182.097C179.282 182.096 179.282 182.096 179.282 182.096C179.938 182.002 180.505 181.592 180.798 180.999C180.798 180.998 180.799 180.998 180.799 180.998C180.799 180.998 180.799 180.998 180.799 180.998L183.967 174.594C183.967 174.594 183.967 174.594 183.967 174.594C183.968 174.592 183.969 174.59 183.969 174.589C183.971 174.588 183.974 174.588 183.978 174.588C183.982 174.588 183.985 174.589 183.987 174.589C183.988 174.59 183.989 174.592 183.991 174.595C183.991 174.595 183.991 174.595 183.991 174.595L187.158 180.998C187.158 180.998 187.158 180.998 187.158 180.998C187.158 180.998 187.158 180.998 187.158 180.999C187.452 181.594 188.024 182.002 188.674 182.096C188.674 182.096 188.674 182.096 188.674 182.096L195.753 183.122L195.755 183.122C195.757 183.122 195.758 183.122 195.759 183.123C195.76 183.124 195.76 183.125 195.761 183.126C195.761 183.127 195.761 183.128 195.762 183.129C195.762 183.13 195.762 183.131 195.762 183.132C195.761 183.133 195.76 183.134 195.758 183.136L190.637 188.119C190.636 188.119 190.636 188.119 190.636 188.12C190.156 188.585 189.948 189.252 190.055 189.895L190.056 189.9L191.264 196.936C191.265 196.938 191.265 196.94 191.265 196.942C191.264 196.943 191.262 196.945 191.26 196.946C191.257 196.949 191.254 196.95 191.252 196.951C191.251 196.95 191.249 196.949 191.246 196.948L191.246 196.948Z" fill="white" stroke="#FFE500" stroke-width="2"/>
<path d="M114.542 117.547L108.213 114.226L108.213 114.225C107.627 113.916 106.924 113.917 106.339 114.224C106.339 114.224 106.339 114.224 106.338 114.224C106.338 114.224 106.338 114.224 106.338 114.224L100.01 117.545C100.01 117.545 100.01 117.546 100.01 117.546C100.006 117.547 100.004 117.548 100.002 117.549C100 117.548 99.9971 117.547 99.9931 117.544C99.9905 117.542 99.9887 117.541 99.9875 117.539C99.9877 117.538 99.9879 117.537 99.9881 117.535C99.9882 117.535 99.9882 117.535 99.9882 117.534L101.196 110.499L101.197 110.499C101.308 109.85 101.095 109.182 100.617 108.719C100.616 108.719 100.616 108.719 100.616 108.718L95.494 103.735L95.4918 103.733C95.4915 103.733 95.4911 103.732 95.4908 103.732C95.491 103.731 95.4914 103.73 95.4918 103.729C95.4926 103.726 95.4936 103.724 95.4945 103.722C95.496 103.722 95.4979 103.722 95.5004 103.721L102.577 102.696C102.578 102.696 102.578 102.696 102.578 102.696C103.234 102.602 103.801 102.191 104.094 101.598C104.094 101.598 104.094 101.598 104.094 101.598C104.095 101.598 104.095 101.598 104.095 101.597L107.262 95.1935C107.262 95.1934 107.263 95.1933 107.263 95.1932C107.264 95.1912 107.265 95.1896 107.265 95.1884C107.267 95.188 107.27 95.1875 107.274 95.1875C107.278 95.1875 107.281 95.1881 107.283 95.1886C107.284 95.1899 107.285 95.1918 107.286 95.1945C107.286 95.1946 107.287 95.1947 107.287 95.1949L110.454 101.597C110.454 101.598 110.454 101.598 110.454 101.598C110.454 101.598 110.454 101.598 110.454 101.598C110.748 102.194 111.32 102.602 111.97 102.696C111.97 102.696 111.97 102.696 111.97 102.696L119.049 103.721L119.051 103.722C119.053 103.722 119.054 103.722 119.055 103.722C119.056 103.723 119.056 103.725 119.057 103.726C119.057 103.727 119.057 103.728 119.057 103.729C119.058 103.73 119.058 103.731 119.058 103.732C119.057 103.733 119.056 103.734 119.054 103.736L113.933 108.718C113.932 108.719 113.932 108.719 113.932 108.719C113.452 109.185 113.244 109.851 113.351 110.495L113.352 110.499L114.56 117.535C114.561 117.538 114.561 117.54 114.561 117.541C114.56 117.543 114.558 117.544 114.556 117.546C114.553 117.548 114.55 117.55 114.548 117.55C114.547 117.55 114.545 117.549 114.542 117.547L114.542 117.547Z" fill="white" stroke="#FFE500" stroke-width="2"/>
<path d="M267.95 120.282L261.621 116.96L261.621 116.96C261.035 116.65 260.332 116.651 259.747 116.958C259.747 116.959 259.747 116.959 259.747 116.959C259.747 116.959 259.746 116.959 259.746 116.959L253.419 120.28C253.418 120.28 253.418 120.28 253.418 120.28C253.414 120.282 253.412 120.283 253.41 120.283C253.408 120.283 253.405 120.281 253.401 120.279C253.399 120.277 253.397 120.275 253.396 120.274C253.396 120.272 253.396 120.271 253.396 120.269C253.396 120.269 253.396 120.269 253.396 120.269L254.605 113.234L254.605 113.233C254.716 112.584 254.503 111.917 254.025 111.454C254.025 111.453 254.024 111.453 254.024 111.453L248.902 106.47L248.9 106.468C248.9 106.467 248.899 106.467 248.899 106.467C248.899 106.465 248.9 106.464 248.9 106.463C248.901 106.46 248.902 106.458 248.903 106.457C248.904 106.456 248.906 106.456 248.909 106.456L255.985 105.43C255.986 105.43 255.986 105.43 255.987 105.43C256.642 105.336 257.209 104.926 257.503 104.333C257.503 104.332 257.503 104.332 257.503 104.332C257.503 104.332 257.503 104.332 257.503 104.332L260.671 97.9279C260.671 97.9278 260.671 97.9277 260.671 97.9276C260.672 97.9255 260.673 97.924 260.673 97.9228C260.675 97.9223 260.678 97.9219 260.682 97.9219C260.686 97.9219 260.689 97.9225 260.691 97.923C260.692 97.9243 260.693 97.9262 260.695 97.9288C260.695 97.929 260.695 97.9291 260.695 97.9292L263.862 104.332C263.862 104.332 263.862 104.332 263.862 104.332C263.862 104.332 263.862 104.332 263.862 104.333C264.157 104.928 264.728 105.336 265.378 105.43C265.378 105.43 265.378 105.43 265.378 105.43L272.457 106.456L272.46 106.456C272.461 106.456 272.462 106.456 272.463 106.457C272.464 106.458 272.464 106.459 272.465 106.46C272.465 106.461 272.465 106.462 272.466 106.463C272.466 106.464 272.466 106.465 272.466 106.466C272.465 106.467 272.464 106.468 272.462 106.47L267.341 111.453C267.34 111.453 267.34 111.453 267.34 111.454C266.86 111.919 266.652 112.586 266.759 113.229L266.76 113.234L267.969 120.27C267.969 120.272 267.969 120.274 267.969 120.276C267.968 120.277 267.966 120.279 267.964 120.28C267.961 120.283 267.959 120.284 267.957 120.285C267.955 120.284 267.953 120.283 267.95 120.282L267.95 120.282Z" fill="white" stroke="#FFE500" stroke-width="2"/>
<path d="M258.362 157.649L252.033 154.327L252.033 154.327C251.447 154.017 250.745 154.018 250.159 154.326C250.159 154.326 250.159 154.326 250.159 154.326C250.159 154.326 250.158 154.326 250.158 154.326L243.831 157.647C243.83 157.647 243.83 157.647 243.83 157.647C243.826 157.649 243.824 157.65 243.822 157.651C243.821 157.65 243.817 157.649 243.813 157.646C243.811 157.644 243.809 157.642 243.808 157.641C243.808 157.64 243.808 157.638 243.808 157.636C243.808 157.636 243.809 157.636 243.809 157.636L245.017 150.601L245.017 150.601C245.128 149.951 244.915 149.284 244.437 148.821C244.437 148.821 244.436 148.82 244.436 148.82L239.314 143.837L239.312 143.835C239.312 143.834 239.311 143.834 239.311 143.834C239.311 143.833 239.312 143.831 239.312 143.83C239.313 143.828 239.314 143.825 239.315 143.824C239.316 143.823 239.318 143.823 239.321 143.823L246.398 142.798C246.398 142.798 246.398 142.798 246.399 142.798C247.054 142.703 247.622 142.293 247.915 141.7C247.915 141.7 247.915 141.7 247.915 141.699C247.915 141.699 247.915 141.699 247.915 141.699L251.083 135.295C251.083 135.295 251.083 135.295 251.083 135.295C251.084 135.293 251.085 135.291 251.086 135.29C251.087 135.29 251.09 135.289 251.094 135.289C251.098 135.289 251.102 135.29 251.103 135.29C251.104 135.291 251.105 135.293 251.107 135.296C251.107 135.296 251.107 135.296 251.107 135.296L254.274 141.699C254.274 141.699 254.274 141.699 254.274 141.699C254.274 141.7 254.274 141.7 254.274 141.7C254.569 142.295 255.14 142.703 255.79 142.797C255.79 142.797 255.79 142.797 255.79 142.798L262.869 143.823L262.872 143.823C262.873 143.823 262.874 143.824 262.875 143.824C262.876 143.825 262.877 143.826 262.877 143.828C262.877 143.829 262.878 143.829 262.878 143.83C262.878 143.831 262.878 143.832 262.878 143.833C262.877 143.834 262.876 143.836 262.874 143.837L257.753 148.82C257.753 148.82 257.752 148.821 257.752 148.821C257.272 149.286 257.064 149.953 257.171 150.596L257.172 150.601L258.381 157.637C258.381 157.639 258.381 157.641 258.381 157.643C258.38 157.644 258.378 157.646 258.376 157.648C258.373 157.65 258.371 157.651 258.369 157.652C258.367 157.651 258.365 157.65 258.362 157.649L258.362 157.649Z" fill="white" stroke="#FFE500" stroke-width="2"/>
<path d="M232.337 186.358L226.008 183.036L226.008 183.036C225.422 182.726 224.719 182.727 224.134 183.035C224.134 183.035 224.133 183.035 224.133 183.035C224.133 183.035 224.133 183.035 224.133 183.035L217.805 186.356C217.805 186.356 217.805 186.356 217.804 186.356C217.801 186.358 217.798 186.359 217.797 186.36C217.795 186.359 217.792 186.358 217.788 186.355C217.785 186.353 217.784 186.351 217.782 186.35C217.783 186.349 217.783 186.347 217.783 186.345C217.783 186.345 217.783 186.345 217.783 186.345L218.991 179.31L218.991 179.31C219.103 178.66 218.889 177.993 218.412 177.53C218.411 177.53 218.411 177.529 218.411 177.529L213.289 172.546L213.287 172.544C213.286 172.543 213.286 172.543 213.286 172.543C213.286 172.542 213.286 172.54 213.287 172.539C213.288 172.537 213.289 172.534 213.289 172.533C213.291 172.532 213.293 172.532 213.295 172.532L220.372 171.507C220.373 171.507 220.373 171.507 220.373 171.507C221.029 171.412 221.596 171.002 221.889 170.409C221.889 170.409 221.889 170.409 221.889 170.408C221.889 170.408 221.89 170.408 221.89 170.408L225.057 164.004C225.057 164.004 225.057 164.004 225.057 164.004C225.059 164.002 225.059 164 225.06 163.999C225.062 163.999 225.065 163.998 225.069 163.998C225.073 163.998 225.076 163.999 225.078 163.999C225.079 164 225.08 164.002 225.081 164.005C225.081 164.005 225.081 164.005 225.082 164.005L228.249 170.408C228.249 170.408 228.249 170.408 228.249 170.408C228.249 170.409 228.249 170.409 228.249 170.409C228.543 171.004 229.115 171.412 229.765 171.506C229.765 171.506 229.765 171.506 229.765 171.506L236.844 172.532L236.846 172.532C236.848 172.532 236.849 172.533 236.85 172.533C236.851 172.534 236.851 172.535 236.852 172.537C236.852 172.538 236.852 172.538 236.852 172.539C236.853 172.54 236.853 172.541 236.853 172.542C236.852 172.543 236.851 172.545 236.849 172.546L231.728 177.529C231.727 177.529 231.727 177.53 231.726 177.53C231.246 177.995 231.039 178.662 231.146 179.305L231.147 179.31L232.355 186.346C232.356 186.348 232.356 186.35 232.356 186.352C232.355 186.353 232.353 186.355 232.351 186.357C232.348 186.359 232.345 186.36 232.343 186.361C232.342 186.36 232.34 186.359 232.337 186.358L232.337 186.358Z" fill="white" stroke="#FFE500" stroke-width="2"/>
<path d="M150.154 186.358L143.825 183.036L143.825 183.036C143.239 182.726 142.537 182.727 141.951 183.035C141.951 183.035 141.951 183.035 141.951 183.035C141.951 183.035 141.95 183.035 141.95 183.035L135.623 186.356C135.622 186.356 135.622 186.356 135.622 186.356C135.618 186.358 135.616 186.359 135.614 186.36C135.613 186.359 135.609 186.358 135.605 186.355C135.603 186.353 135.601 186.351 135.6 186.35C135.6 186.349 135.6 186.347 135.6 186.345C135.6 186.345 135.601 186.345 135.601 186.345L136.809 179.31L136.809 179.31C136.92 178.66 136.707 177.993 136.229 177.53C136.229 177.53 136.228 177.529 136.228 177.529L131.106 172.546L131.104 172.544C131.104 172.543 131.103 172.543 131.103 172.543C131.103 172.542 131.104 172.54 131.104 172.539C131.105 172.537 131.106 172.534 131.107 172.533C131.108 172.532 131.11 172.532 131.113 172.532L138.19 171.507C138.19 171.507 138.19 171.507 138.191 171.507C138.846 171.412 139.414 171.002 139.707 170.409C139.707 170.409 139.707 170.409 139.707 170.408C139.707 170.408 139.707 170.408 139.707 170.408L142.875 164.004C142.875 164.004 142.875 164.004 142.875 164.004C142.876 164.002 142.877 164 142.878 163.999C142.879 163.999 142.882 163.998 142.886 163.998C142.89 163.998 142.894 163.999 142.895 163.999C142.896 164 142.897 164.002 142.899 164.005C142.899 164.005 142.899 164.005 142.899 164.005L146.066 170.408C146.066 170.408 146.066 170.408 146.066 170.408C146.066 170.409 146.066 170.409 146.066 170.409C146.361 171.004 146.932 171.412 147.582 171.506C147.582 171.506 147.582 171.506 147.582 171.506L154.661 172.532L154.664 172.532C154.665 172.532 154.666 172.533 154.667 172.533C154.668 172.534 154.669 172.535 154.669 172.537C154.669 172.538 154.67 172.538 154.67 172.539C154.67 172.54 154.67 172.541 154.67 172.542C154.669 172.543 154.668 172.545 154.666 172.546L149.545 177.529C149.545 177.529 149.544 177.53 149.544 177.53C149.064 177.995 148.856 178.662 148.963 179.305L148.964 179.31L150.173 186.346C150.173 186.348 150.173 186.35 150.173 186.352C150.172 186.353 150.17 186.355 150.168 186.357C150.165 186.359 150.163 186.36 150.161 186.361C150.159 186.36 150.157 186.359 150.154 186.358L150.154 186.358Z" fill="white" stroke="#FFE500" stroke-width="2"/>
<path d="M122.761 157.649L116.432 154.327L116.432 154.327C115.845 154.017 115.143 154.018 114.557 154.326C114.557 154.326 114.557 154.326 114.557 154.326C114.557 154.326 114.557 154.326 114.557 154.326L108.229 157.647C108.229 157.647 108.229 157.647 108.228 157.647C108.225 157.649 108.222 157.65 108.221 157.651C108.219 157.65 108.216 157.649 108.212 157.646C108.209 157.644 108.207 157.642 108.206 157.641C108.206 157.64 108.207 157.638 108.207 157.636C108.207 157.636 108.207 157.636 108.207 157.636L109.415 150.601L109.415 150.601C109.527 149.951 109.313 149.284 108.836 148.821C108.835 148.821 108.835 148.82 108.835 148.82L103.713 143.837L103.711 143.835C103.71 143.834 103.71 143.834 103.71 143.834C103.71 143.833 103.71 143.831 103.711 143.83C103.711 143.828 103.712 143.825 103.713 143.824C103.715 143.823 103.717 143.823 103.719 143.823L110.796 142.798C110.796 142.798 110.797 142.798 110.797 142.798C111.453 142.703 112.02 142.293 112.313 141.7C112.313 141.7 112.313 141.7 112.313 141.699C112.313 141.699 112.313 141.699 112.313 141.699L115.481 135.295C115.481 135.295 115.481 135.295 115.481 135.295C115.482 135.293 115.483 135.291 115.484 135.29C115.486 135.29 115.489 135.289 115.492 135.289C115.497 135.289 115.5 135.29 115.502 135.29C115.503 135.291 115.504 135.293 115.505 135.296C115.505 135.296 115.505 135.296 115.505 135.296L118.672 141.699C118.673 141.699 118.673 141.699 118.673 141.699C118.673 141.7 118.673 141.7 118.673 141.7C118.967 142.295 119.539 142.703 120.188 142.797C120.188 142.797 120.189 142.797 120.189 142.798L127.267 143.823L127.27 143.823C127.272 143.823 127.273 143.824 127.274 143.824C127.274 143.825 127.275 143.826 127.275 143.828C127.276 143.829 127.276 143.829 127.276 143.83C127.276 143.831 127.277 143.832 127.277 143.833C127.276 143.834 127.274 143.836 127.273 143.837L122.151 148.82C122.151 148.82 122.151 148.821 122.15 148.821C121.67 149.286 121.462 149.953 121.57 150.596L121.571 150.601L122.779 157.637C122.78 157.639 122.78 157.641 122.78 157.643C122.779 157.644 122.777 157.646 122.775 157.648C122.772 157.65 122.769 157.651 122.767 157.652C122.766 157.651 122.764 157.65 122.761 157.649L122.761 157.649Z" fill="white" stroke="#FFE500" stroke-width="2"/>
<path d="M122.761 81.0902L116.432 77.7688L116.432 77.7684C115.845 77.4586 115.143 77.4595 114.557 77.7671C114.557 77.7671 114.557 77.7672 114.557 77.7672C114.557 77.7673 114.557 77.7674 114.557 77.7674L108.229 81.0882C108.229 81.0884 108.229 81.0885 108.228 81.0887C108.225 81.0904 108.222 81.0914 108.221 81.092C108.219 81.0914 108.216 81.09 108.212 81.0871C108.209 81.0853 108.207 81.0836 108.206 81.0823C108.206 81.0811 108.207 81.0796 108.207 81.0778C108.207 81.0776 108.207 81.0775 108.207 81.0773L109.415 74.0424L109.415 74.042C109.527 73.3926 109.313 72.7254 108.836 72.2623C108.835 72.262 108.835 72.2617 108.835 72.2614L103.713 67.2783L103.711 67.2761C103.71 67.2758 103.71 67.2755 103.71 67.2751C103.71 67.2741 103.71 67.2729 103.711 67.2716C103.711 67.269 103.712 67.2668 103.713 67.2652C103.715 67.2649 103.717 67.2645 103.719 67.2641L110.796 66.2391C110.796 66.239 110.797 66.239 110.797 66.2389C111.453 66.1446 112.02 65.7343 112.313 65.1411C112.313 65.141 112.313 65.1409 112.313 65.1408C112.313 65.1407 112.313 65.1406 112.313 65.1404L115.481 58.7365C115.481 58.7364 115.481 58.7363 115.481 58.7362C115.482 58.7341 115.483 58.7325 115.484 58.7314C115.486 58.7309 115.489 58.7305 115.492 58.7305C115.497 58.7305 115.5 58.7311 115.502 58.7316C115.503 58.7329 115.504 58.7348 115.505 58.7374C115.505 58.7376 115.505 58.7377 115.505 58.7378L118.672 65.1404C118.673 65.1405 118.673 65.1407 118.673 65.1408C118.673 65.1409 118.673 65.141 118.673 65.1411C118.967 65.7367 119.539 66.1449 120.188 66.2389C120.188 66.2389 120.189 66.2389 120.189 66.2389L127.267 67.2642L127.27 67.2646C127.272 67.2648 127.273 67.2651 127.274 67.2653C127.274 67.2663 127.275 67.2676 127.275 67.269C127.276 67.27 127.276 67.2709 127.276 67.2718C127.276 67.2728 127.277 67.2737 127.277 67.2745C127.276 67.2756 127.274 67.277 127.273 67.2787L122.151 72.2613C122.151 72.2617 122.151 72.262 122.15 72.2624C121.67 72.7278 121.462 73.3945 121.57 74.0378L121.571 74.0424L122.779 81.0781C122.78 81.0808 122.78 81.0828 122.78 81.0844C122.779 81.0858 122.777 81.0874 122.775 81.0891C122.772 81.0911 122.769 81.0925 122.767 81.0933C122.766 81.0927 122.764 81.0918 122.761 81.0903L122.761 81.0902Z" fill="white" stroke="#FFE500" stroke-width="2"/>
<path d="M151.981 55.0121L145.652 51.6907L145.653 51.6902C145.066 51.3804 144.364 51.3814 143.778 51.6889C143.778 51.689 143.778 51.689 143.778 51.6891C143.778 51.6892 143.778 51.6892 143.777 51.6893L137.45 55.0101C137.45 55.0102 137.449 55.0104 137.449 55.0105C137.446 55.0123 137.443 55.0133 137.441 55.0138C137.44 55.0132 137.437 55.0119 137.433 55.009C137.43 55.0071 137.428 55.0054 137.427 55.0041C137.427 55.0029 137.427 55.0014 137.428 54.9996C137.428 54.9995 137.428 54.9993 137.428 54.9992L138.636 47.9642L138.636 47.9639C138.747 47.3145 138.534 46.6473 138.056 46.1842C138.056 46.1839 138.056 46.1835 138.055 46.1832L132.933 41.2001L132.931 41.198C132.931 41.1977 132.931 41.1973 132.93 41.197C132.93 41.1959 132.931 41.1947 132.931 41.1935C132.932 41.1909 132.933 41.1887 132.934 41.1871C132.935 41.1868 132.937 41.1864 132.94 41.186L140.017 40.161C140.017 40.1609 140.017 40.1609 140.018 40.1608C140.674 40.0665 141.241 39.6561 141.534 39.063C141.534 39.0629 141.534 39.0628 141.534 39.0627C141.534 39.0626 141.534 39.0624 141.534 39.0623L144.702 32.6583C144.702 32.6582 144.702 32.6582 144.702 32.6581C144.703 32.656 144.704 32.6544 144.705 32.6532C144.707 32.6528 144.709 32.6523 144.713 32.6523C144.718 32.6523 144.721 32.653 144.723 32.6535C144.723 32.6548 144.725 32.6566 144.726 32.6592C144.726 32.6594 144.726 32.6596 144.726 32.6597L147.893 39.0623C147.893 39.0624 147.893 39.0626 147.893 39.0627C147.893 39.0628 147.893 39.0629 147.894 39.063C148.188 39.6587 148.759 40.0669 149.409 40.1608L156.488 41.1861L156.491 41.1865C156.492 41.1867 156.494 41.1869 156.495 41.1871C156.495 41.1882 156.496 41.1895 156.496 41.1909C156.497 41.193 156.497 41.1949 156.497 41.1964C156.496 41.1975 156.495 41.1989 156.493 41.2006L151.372 46.1832C151.372 46.1837 151.371 46.1841 151.371 46.1845C150.891 46.6499 150.683 47.3164 150.791 47.9597L150.791 47.9642L152 55C152 55.0001 152 55.0001 152 55.0002C152 55.0027 152 55.0047 152.001 55.0063C151.999 55.0076 151.998 55.0093 151.995 55.0109C151.994 55.012 151.993 55.0128 151.991 55.0135C151.99 55.0142 151.989 55.0148 151.988 55.0152C151.986 55.0146 151.984 55.0136 151.981 55.0122L151.981 55.0121Z" fill="white" stroke="#FFE500" stroke-width="2"/>
<path d="M230.511 55.0121L224.182 51.6907L224.182 51.6902C223.595 51.3804 222.893 51.3814 222.307 51.6889C222.307 51.689 222.307 51.689 222.307 51.6891C222.307 51.6892 222.307 51.6892 222.307 51.6893L215.979 55.0101C215.979 55.0102 215.979 55.0104 215.978 55.0105C215.975 55.0123 215.972 55.0133 215.971 55.0138C215.969 55.0132 215.966 55.0119 215.962 55.009C215.959 55.0071 215.957 55.0054 215.956 55.0041C215.956 55.0029 215.957 55.0015 215.957 54.9997C215.957 54.9995 215.957 54.9993 215.957 54.9992L217.165 47.9642L217.165 47.9639C217.277 47.3145 217.063 46.6473 216.586 46.1842C216.585 46.1839 216.585 46.1835 216.585 46.1832L211.463 41.2001L211.461 41.198C211.46 41.1977 211.46 41.1973 211.46 41.197C211.46 41.1959 211.46 41.1947 211.461 41.1935C211.461 41.1909 211.462 41.1887 211.463 41.1871C211.465 41.1868 211.467 41.1864 211.469 41.186L218.546 40.161C218.546 40.1609 218.547 40.1609 218.547 40.1608C219.203 40.0665 219.77 39.6561 220.063 39.063C220.063 39.0629 220.063 39.0628 220.063 39.0627C220.063 39.0626 220.063 39.0624 220.063 39.0623L223.231 32.6583C223.231 32.6583 223.231 32.6582 223.231 32.6581C223.232 32.656 223.233 32.6544 223.234 32.6532C223.236 32.6528 223.239 32.6523 223.242 32.6523C223.247 32.6523 223.25 32.653 223.252 32.6535C223.253 32.6548 223.254 32.6567 223.255 32.6593C223.255 32.6594 223.255 32.6596 223.255 32.6597L226.422 39.0623C226.423 39.0624 226.423 39.0626 226.423 39.0627C226.423 39.0628 226.423 39.0629 226.423 39.063C226.717 39.6586 227.289 40.0667 227.938 40.1607C227.938 40.1608 227.939 40.1608 227.939 40.1608L235.017 41.1861L235.02 41.1865C235.022 41.1867 235.023 41.1869 235.024 41.1871C235.024 41.1882 235.025 41.1895 235.025 41.1909C235.026 41.1919 235.026 41.1928 235.026 41.1936C235.026 41.1946 235.027 41.1956 235.027 41.1964C235.026 41.1975 235.024 41.1989 235.023 41.2006L229.901 46.1832C229.901 46.1836 229.901 46.1839 229.9 46.1843C229.42 46.6496 229.212 47.3163 229.32 47.9597L229.321 47.9642L230.529 55C230.53 55.0026 230.53 55.0047 230.53 55.0063C230.529 55.0076 230.527 55.0093 230.525 55.0109C230.522 55.013 230.519 55.0144 230.517 55.0152C230.516 55.0146 230.514 55.0136 230.511 55.0122L230.511 55.0121Z" fill="white" stroke="#FFE500" stroke-width="2"/>
<path d="M258.362 80.9867L252.033 77.6653L252.033 77.6649C251.447 77.355 250.745 77.356 250.159 77.6635C250.159 77.6636 250.159 77.6636 250.159 77.6637C250.159 77.6638 250.158 77.6638 250.158 77.6639L243.831 80.9847C243.83 80.9848 243.83 80.985 243.83 80.9852C243.826 80.9869 243.824 80.9879 243.822 80.9884C243.821 80.9879 243.817 80.9865 243.813 80.9836C243.811 80.9817 243.809 80.98 243.808 80.9787C243.808 80.9776 243.808 80.9761 243.808 80.9743C243.808 80.9741 243.809 80.974 243.809 80.9738L245.017 73.9389L245.017 73.9385C245.128 73.2891 244.915 72.6219 244.437 72.1588C244.437 72.1585 244.436 72.1582 244.436 72.1578L239.314 67.1748L239.312 67.1726C239.312 67.1723 239.311 67.1719 239.311 67.1716C239.311 67.1706 239.312 67.1694 239.312 67.1681C239.313 67.1655 239.314 67.1633 239.315 67.1617C239.316 67.1614 239.318 67.161 239.321 67.1606L246.398 66.1356C246.398 66.1355 246.398 66.1355 246.399 66.1354C247.054 66.0411 247.622 65.6307 247.915 65.0376C247.915 65.0375 247.915 65.0374 247.915 65.0373C247.915 65.0372 247.915 65.037 247.915 65.0369L251.083 58.6329C251.083 58.6329 251.083 58.6328 251.083 58.6327C251.084 58.6306 251.085 58.629 251.086 58.6278C251.087 58.6274 251.09 58.627 251.094 58.627C251.098 58.627 251.102 58.6276 251.103 58.6281C251.104 58.6294 251.105 58.6313 251.107 58.6339C251.107 58.634 251.107 58.6342 251.107 58.6343L254.274 65.0369C254.274 65.037 254.274 65.0372 254.274 65.0373C254.274 65.0374 254.274 65.0375 254.274 65.0376C254.569 65.6332 255.14 66.0414 255.79 66.1353C255.79 66.1354 255.79 66.1354 255.79 66.1354L262.869 67.1607L262.872 67.1611C262.873 67.1613 262.874 67.1615 262.875 67.1617C262.876 67.1628 262.877 67.1641 262.877 67.1655C262.877 67.1665 262.878 67.1674 262.878 67.1682C262.878 67.1692 262.878 67.1702 262.878 67.171C262.877 67.1721 262.876 67.1735 262.874 67.1752L257.753 72.1578C257.753 72.1582 257.752 72.1585 257.752 72.1589C257.272 72.6242 257.064 73.2909 257.171 73.9343L257.172 73.9389L258.381 80.9746C258.381 80.9772 258.381 80.9793 258.381 80.9809C258.38 80.9822 258.378 80.9839 258.376 80.9856C258.373 80.9876 258.371 80.989 258.369 80.9898C258.367 80.9892 258.365 80.9882 258.362 80.9868L258.362 80.9867Z" fill="white" stroke="#FFE500" stroke-width="2"/>
<path d="M148.067 135.48C144.97 133.694 143.062 130.394 143.06 126.824L143.045 90.3966C143.044 86.8265 144.95 83.5284 148.045 81.7446L179.629 63.544C182.725 61.7602 186.54 61.7618 189.636 63.5481L221.236 81.7746C224.333 83.5609 226.241 86.8606 226.243 90.4307L226.258 126.858C226.259 130.428 224.353 133.726 221.258 135.51L189.674 153.71C186.578 155.494 182.763 155.493 179.666 153.706L148.067 135.48Z" fill="#1A76FF"/>
<path d="M200.419 102.24C199.835 93.5928 192.852 86.7402 184.343 86.7402C177.718 86.7402 171.77 90.9514 169.352 97.2865C163.008 98.555 158.316 104.375 158.316 111.128C158.316 115.593 160.299 119.7 163.751 122.392C164.291 122.812 165.07 122.721 165.491 122.182C165.912 121.643 165.82 120.865 165.273 120.445C162.429 118.224 160.793 114.83 160.793 111.13C160.793 105.342 164.939 100.386 170.434 99.6131C170.899 99.5454 171.265 99.2362 171.42 98.8279C171.444 98.7796 171.468 98.7216 171.483 98.6733C173.409 93.0197 178.572 89.2218 184.334 89.2218C191.85 89.2218 197.967 95.5931 197.967 103.416C197.967 104.097 198.524 104.653 199.206 104.653C203.989 104.653 207.882 108.717 207.882 113.709C207.882 116.937 206.214 119.95 203.525 121.563C202.936 121.916 202.75 122.677 203.103 123.264C203.338 123.648 203.747 123.863 204.169 123.863C204.386 123.863 204.609 123.808 204.808 123.685C208.235 121.626 210.365 117.801 210.365 113.713C210.365 107.775 206.001 102.972 200.419 102.353V102.24Z" fill="white" stroke="#1A76FF" stroke-width="3"/>
<path d="M178.521 115.001V108.722C178.521 108.029 179.083 107.467 179.777 107.467H189.829C190.523 107.467 191.085 108.029 191.085 108.722V115.001C191.085 115.694 190.523 116.256 189.829 116.256H179.777C179.083 116.256 178.521 115.694 178.521 115.001Z" fill="#F9F8F6"/>
<path d="M197.368 94.9102H172.238C170.851 94.9102 169.726 96.0345 169.726 97.4215V104.14C169.726 113.626 175.799 122.047 184.803 125.046C193.807 122.047 199.881 113.626 199.881 104.14V97.4215C199.881 96.0345 198.755 94.9102 197.368 94.9102Z" stroke="white" stroke-width="2" stroke-linecap="round" stroke-linejoin="round"/>
<path d="M178.521 115.001V108.722C178.521 108.029 179.083 107.467 179.777 107.467H189.829C190.523 107.467 191.085 108.029 191.085 108.722V115.001C191.085 115.694 190.523 116.256 189.829 116.256H179.777C179.083 116.256 178.521 115.694 178.521 115.001Z" stroke="white" stroke-width="2" stroke-linecap="round" stroke-linejoin="round"/>
<path d="M180.405 107.468V104.328C180.405 101.901 182.374 99.9336 184.803 99.9336C187.232 99.9336 189.2 101.901 189.2 104.328V107.468" stroke="white" stroke-width="2" stroke-linecap="round" stroke-linejoin="round"/>
</svg>
