<svg width="368" height="218" viewBox="0 0 368 218" fill="none" xmlns="http://www.w3.org/2000/svg">
<path d="M132.541 117.391C129.503 115.607 127.637 112.319 127.637 108.75L127.637 56.7863C127.637 53.1777 129.544 49.831 132.637 48.0151L176.75 22.1079C179.842 20.292 183.645 20.2849 186.717 22.0892L230.958 48.071C233.996 49.8554 235.862 53.1433 235.862 56.7122L235.862 108.676C235.862 112.284 233.955 115.631 230.863 117.447L186.749 143.354C183.657 145.17 179.854 145.177 176.782 143.373L132.541 117.391Z" fill="#1A76FF"/>
<path d="M170.647 102.895V98.7892C170.647 98.2448 170.877 97.7226 171.286 97.3376C171.695 96.9526 172.249 96.7363 172.827 96.7363H190.267C190.846 96.7363 191.4 96.9526 191.809 97.3376C192.218 97.7226 192.447 98.2448 192.447 98.7892V102.895" stroke="#FF6849" stroke-width="1.5" stroke-linecap="round" stroke-linejoin="round"/>
<path d="M167.62 106.179V102.073C167.62 101.507 168.072 101.047 168.629 101.047H172.666C173.224 101.047 173.676 101.507 173.676 102.073V106.179C173.676 106.746 173.224 107.206 172.666 107.206H168.629C168.072 107.206 167.62 106.746 167.62 106.179Z" fill="#FFE9E4"/>
<path d="M167.62 106.179V102.073C167.62 101.507 168.072 101.047 168.629 101.047H172.666C173.224 101.047 173.676 101.507 173.676 102.073V106.179C173.676 106.746 173.224 107.206 172.666 107.206H168.629C168.072 107.206 167.62 106.746 167.62 106.179Z" stroke="#FF6849" stroke-width="1.5" stroke-linecap="round" stroke-linejoin="round"/>
<path d="M189.42 106.179V102.073C189.42 101.507 189.872 101.047 190.429 101.047H194.466C195.024 101.047 195.475 101.507 195.475 102.073V106.179C195.475 106.746 195.024 107.206 194.466 107.206H190.429C189.872 107.206 189.42 106.746 189.42 106.179Z" fill="#FFE9E4"/>
<path d="M189.42 106.179V102.073C189.42 101.507 189.872 101.047 190.429 101.047H194.466C195.024 101.047 195.475 101.507 195.475 102.073V106.179C195.475 106.746 195.024 107.206 194.466 107.206H190.429C189.872 107.206 189.42 106.746 189.42 106.179Z" stroke="#FF6849" stroke-width="1.5" stroke-linecap="round" stroke-linejoin="round"/>
<path d="M181.548 89.3457V96.7362" stroke="#FF6849" stroke-width="1.5" stroke-linecap="round" stroke-linejoin="round"/>
<path d="M178.521 98.7885V94.6827C178.521 94.1159 178.972 93.6562 179.53 93.6562H183.567C184.124 93.6562 184.576 94.1159 184.576 94.6827V98.7885C184.576 99.3554 184.124 99.815 183.567 99.815H179.53C178.972 99.815 178.521 99.3554 178.521 98.7885Z" fill="#FFE9E4"/>
<path d="M178.521 98.7885V94.6827C178.521 94.1159 178.972 93.6562 179.53 93.6562H183.567C184.124 93.6562 184.576 94.1159 184.576 94.6827V98.7885C184.576 99.3554 184.124 99.815 183.567 99.815H179.53C178.972 99.815 178.521 99.3554 178.521 98.7885Z" stroke="#FF6849" stroke-width="1.5" stroke-linecap="round" stroke-linejoin="round"/>
<path d="M196.786 70.9897C196.63 70.9424 196.491 70.8508 196.385 70.7257C196.278 70.6006 196.21 70.4472 196.186 70.2836C195.907 67.1765 194.59 64.2605 192.453 62.0219C190.316 59.7833 187.489 58.3574 184.444 57.982C181.398 57.6065 178.318 58.3042 175.718 59.9588C173.117 61.6134 171.152 64.1248 170.152 67.0741C170.085 67.2116 169.982 67.327 169.853 67.4066C169.725 67.4863 169.576 67.5268 169.426 67.5235C167.975 67.6225 166.558 68.0111 165.256 68.6672C163.953 69.3232 162.79 70.2338 161.833 71.3469C159.901 73.595 158.926 76.5316 159.123 79.5108C159.319 82.49 160.672 85.2677 162.882 87.2329C165.092 89.198 167.98 90.1898 170.909 89.9899H194.671C196.988 89.9758 199.219 89.0981 200.942 87.5232C202.665 85.9483 203.761 83.7855 204.022 81.4443C204.282 79.103 203.69 76.7459 202.356 74.8192C201.023 72.8925 199.041 71.53 196.786 70.9897Z" fill="#FFE9E4"/>
<path d="M196.786 70.9897C196.63 70.9424 196.491 70.8508 196.385 70.7257C196.278 70.6006 196.21 70.4472 196.186 70.2836C195.907 67.1765 194.59 64.2605 192.453 62.0219C190.316 59.7833 187.489 58.3574 184.444 57.982C181.398 57.6065 178.318 58.3042 175.718 59.9588C173.117 61.6134 171.152 64.1248 170.152 67.0741C170.085 67.2116 169.982 67.327 169.853 67.4066C169.725 67.4863 169.576 67.5268 169.426 67.5235C167.975 67.6225 166.558 68.0111 165.256 68.6672C163.953 69.3232 162.79 70.2338 161.833 71.3469C159.901 73.595 158.926 76.5316 159.123 79.5108C159.319 82.49 160.672 85.2677 162.882 87.2329C165.092 89.198 167.98 90.1898 170.909 89.9899H194.671C196.988 89.9758 199.219 89.0981 200.942 87.5232C202.665 85.9483 203.761 83.7855 204.022 81.4443C204.282 79.103 203.69 76.7459 202.356 74.8192C201.023 72.8925 199.041 71.53 196.786 70.9897Z" stroke="#FF6849" stroke-width="1.5" stroke-linecap="round" stroke-linejoin="round"/>
<path d="M66.863 172.869C63.9135 171.172 62.0955 168.033 62.0955 164.639L62.0955 120.752C62.0955 117.365 63.9059 114.237 66.8455 112.545L105.001 90.5882C107.941 88.8965 111.564 88.8978 114.507 90.5915L152.638 112.535C155.587 114.232 157.405 117.371 157.405 120.765L157.405 164.651C157.405 168.039 155.595 171.167 152.655 172.858L114.5 194.816C111.56 196.507 107.937 196.506 104.994 194.812L66.863 172.869Z" fill="white" stroke="#F8F8F8"/>
<path d="M109.848 164.789C114.826 164.789 118.861 160.767 118.861 155.805C118.861 150.843 114.826 146.82 109.848 146.82C104.869 146.82 100.834 150.843 100.834 155.805C100.834 160.767 104.869 164.789 109.848 164.789Z" fill="#FF6849" fill-opacity="0.25"/>
<path d="M100.834 155.805C100.834 150.843 104.869 146.82 109.848 146.82C110.319 146.82 110.782 146.856 111.234 146.926V149.93C111.234 150.572 110.979 151.187 110.523 151.641C110.068 152.094 109.451 152.349 108.807 152.349C108.164 152.349 107.547 152.604 107.092 153.058C106.636 153.511 106.381 154.126 106.381 154.768V156.841C106.381 157.483 106.125 158.098 105.67 158.552C105.215 159.005 104.598 159.26 103.954 159.26H101.525C101.08 158.196 100.834 157.029 100.834 155.805Z" fill="white"/>
<path d="M118.861 155.666C118.167 155.307 117.397 155.118 116.615 155.113H113.661C113.017 155.113 112.4 155.368 111.945 155.822C111.49 156.275 111.234 156.891 111.234 157.532C111.234 158.174 111.49 158.789 111.945 159.243C112.4 159.696 113.017 159.951 113.661 159.951C114.121 159.951 114.562 160.133 114.887 160.457C115.212 160.781 115.394 161.221 115.394 161.679V162.887C117.505 161.242 118.861 158.681 118.861 155.804V155.666Z" fill="white"/>
<path d="M109.848 164.789C114.826 164.789 118.861 160.767 118.861 155.805C118.861 150.843 114.826 146.82 109.848 146.82C104.869 146.82 100.834 150.843 100.834 155.805C100.834 160.767 104.869 164.789 109.848 164.789Z" stroke="#FF6849" stroke-width="1.5" stroke-linecap="round" stroke-linejoin="round"/>
<path d="M101.527 159.261H103.954C104.598 159.261 105.215 159.006 105.67 158.553C106.125 158.099 106.381 157.484 106.381 156.842V154.769C106.381 154.127 106.636 153.512 107.092 153.059C107.547 152.605 108.164 152.35 108.807 152.35C109.451 152.35 110.068 152.095 110.523 151.642C110.979 151.188 111.234 150.573 111.234 149.931V146.918" stroke="#FF6849" stroke-width="1.5" stroke-linecap="round" stroke-linejoin="round"/>
<path d="M118.861 155.666C118.167 155.307 117.397 155.118 116.615 155.113H113.661C113.017 155.113 112.4 155.368 111.945 155.822C111.49 156.275 111.234 156.891 111.234 157.532C111.234 158.174 111.49 158.789 111.945 159.243C112.4 159.696 113.017 159.951 113.661 159.951C114.121 159.951 114.562 160.133 114.887 160.457C115.212 160.781 115.394 161.221 115.394 161.679V162.881" stroke="#FF6849" stroke-width="1.5" stroke-linecap="round" stroke-linejoin="round"/>
<path fill-rule="evenodd" clip-rule="evenodd" d="M124.841 132.45C124.949 132.575 125.091 132.667 125.25 132.714C127.55 133.254 129.572 134.617 130.932 136.543C132.292 138.469 132.896 140.825 132.631 143.166C132.365 145.506 131.247 147.668 129.49 149.243C128.231 150.371 126.705 151.141 125.073 151.492C123.233 144.777 117.07 139.841 109.749 139.841C102.552 139.841 96.4734 144.612 94.5223 151.155C93.1168 150.687 91.8039 149.944 90.6667 148.953C88.412 146.988 87.0327 144.211 86.832 141.233C86.6314 138.255 87.626 135.319 89.5969 133.071C90.5728 131.959 91.7591 131.048 93.088 130.392C94.4168 129.737 95.8623 129.348 97.3418 129.249C97.4953 129.252 97.6466 129.212 97.7778 129.132C97.909 129.053 98.0146 128.937 98.0821 128.8C99.1028 125.851 101.107 123.341 103.76 121.687C106.413 120.033 109.554 119.335 112.661 119.71C115.767 120.086 118.651 121.511 120.83 123.749C123.01 125.987 124.354 128.902 124.638 132.008C124.662 132.172 124.732 132.325 124.841 132.45Z" fill="#FF6849" fill-opacity="0.25"/>
<path d="M92.9381 150.49C92.1277 150.075 91.3642 149.56 90.6667 148.953C88.412 146.988 87.0327 144.211 86.832 141.233C86.6314 138.255 87.626 135.319 89.5969 133.071C90.5728 131.959 91.7591 131.048 93.088 130.392C94.4168 129.737 95.8623 129.348 97.3418 129.249C97.4953 129.252 97.6466 129.212 97.7778 129.132C97.909 129.053 98.0146 128.937 98.0821 128.8C99.1028 125.851 101.107 123.341 103.76 121.687C106.413 120.033 109.554 119.335 112.661 119.71C115.767 120.086 118.651 121.511 120.83 123.749C123.01 125.987 124.354 128.902 124.638 132.008C124.662 132.172 124.732 132.325 124.841 132.45C124.949 132.575 125.091 132.667 125.25 132.714C127.55 133.254 129.572 134.617 130.932 136.543C132.292 138.469 132.896 140.825 132.631 143.166C132.365 145.506 131.247 147.668 129.49 149.243C128.647 149.998 127.684 150.593 126.65 151.009" stroke="#FF6849" stroke-width="1.5" stroke-linecap="round" stroke-linejoin="round"/>
<path d="M215.802 172.864C212.885 171.167 211.09 168.036 211.09 164.644L211.09 120.788C211.09 117.379 212.902 114.225 215.84 112.517L253.499 90.6192C256.438 88.9106 260.056 88.9078 262.986 90.6119L300.699 112.54C303.616 114.236 305.411 117.367 305.411 120.76L305.411 164.616C305.411 168.024 303.599 171.179 300.661 172.887L263.002 194.785C260.063 196.493 256.445 196.496 253.514 194.792L215.802 172.864Z" fill="white" stroke="#F8F8F8"/>
<path fill-rule="evenodd" clip-rule="evenodd" d="M273.2 132.558C273.307 132.683 273.447 132.775 273.604 132.822C275.88 133.362 277.88 134.723 279.226 136.648C280.571 138.574 281.169 140.929 280.906 143.269C280.643 145.608 279.538 147.769 277.799 149.343C276.308 150.692 274.442 151.529 272.467 151.749C272.011 150.691 271.333 149.753 270.491 148.995V148.737C270.491 141.939 265.02 136.429 258.27 136.429C251.52 136.429 246.049 141.939 246.049 148.737V148.995C245.266 149.7 244.624 150.561 244.171 151.531C242.418 151.113 240.774 150.269 239.392 149.053C237.161 147.089 235.797 144.314 235.598 141.337C235.4 138.36 236.384 135.425 238.334 133.179C239.299 132.066 240.473 131.156 241.787 130.501C243.102 129.845 244.532 129.457 245.995 129.358C246.147 129.361 246.297 129.321 246.427 129.241C246.557 129.162 246.661 129.047 246.728 128.909C247.738 125.962 249.72 123.452 252.344 121.799C254.969 120.146 258.077 119.449 261.15 119.824C264.223 120.199 267.076 121.624 269.232 123.861C271.388 126.098 272.718 129.011 272.999 132.116C273.023 132.28 273.092 132.433 273.2 132.558Z" fill="#FF6849" fill-opacity="0.25"/>
<path d="M243.085 151.212C241.74 150.743 240.484 150.015 239.392 149.053C237.161 147.089 235.797 144.314 235.598 141.337C235.4 138.36 236.384 135.425 238.334 133.179C239.299 132.066 240.473 131.156 241.787 130.501C243.102 129.845 244.532 129.457 245.995 129.358C246.147 129.361 246.297 129.321 246.427 129.241C246.557 129.162 246.661 129.047 246.728 128.909C247.738 125.962 249.72 123.452 252.344 121.799C254.969 120.146 258.077 119.449 261.15 119.824C264.223 120.199 267.076 121.624 269.232 123.861C271.388 126.098 272.718 129.011 272.999 132.116C273.023 132.28 273.092 132.433 273.2 132.558C273.307 132.683 273.447 132.775 273.604 132.822C275.88 133.362 277.88 134.723 279.226 136.648C280.571 138.574 281.169 140.929 280.906 143.269C280.643 145.608 279.538 147.769 277.799 149.343C276.73 150.31 275.468 151.014 274.111 151.416" stroke="#FF6849" stroke-width="1.5" stroke-linecap="round" stroke-linejoin="round"/>
<path d="M249.54 163.683V154.891C249.54 153.92 250.322 153.133 251.286 153.133H265.253C266.217 153.133 266.999 153.92 266.999 154.891V163.683C266.999 164.654 266.217 165.441 265.253 165.441H251.286C250.322 165.441 249.54 164.654 249.54 163.683Z" fill="white"/>
<path d="M249.54 163.683V154.891C249.54 153.92 250.322 153.133 251.286 153.133H265.253C266.217 153.133 266.999 153.92 266.999 154.891V163.683C266.999 164.654 266.217 165.441 265.253 165.441H251.286C250.322 165.441 249.54 164.654 249.54 163.683Z" stroke="#FF6849" stroke-width="1.5" stroke-linecap="round" stroke-linejoin="round"/>
<path d="M252.159 153.134V148.738C252.159 145.339 254.895 142.584 258.27 142.584C261.645 142.584 264.381 145.339 264.381 148.738V153.134" stroke="#FF6849" stroke-width="1.5" stroke-linecap="round" stroke-linejoin="round"/>
<path d="M209.4 153.498L194.573 144.544L194.232 161.861L209.4 153.498ZM157.758 152.48L172.585 161.434L172.926 144.117L157.758 152.48ZM198.671 151.786L194.367 151.701L194.308 154.701L198.612 154.786L198.671 151.786ZM185.76 151.532L181.457 151.447L181.398 154.446L185.701 154.531L185.76 151.532ZM172.85 151.277L168.546 151.193L168.487 154.192L172.791 154.277L172.85 151.277ZM209.4 153.498L194.573 144.544L194.232 161.861L209.4 153.498ZM157.758 152.48L172.585 161.434L172.926 144.117L157.758 152.48ZM198.671 151.786L194.367 151.701L194.308 154.701L198.612 154.786L198.671 151.786ZM185.76 151.532L181.457 151.447L181.398 154.446L185.701 154.531L185.76 151.532ZM172.85 151.277L168.546 151.193L168.487 154.192L172.791 154.277L172.85 151.277Z" fill="#FACCBB"/>
</svg>
