<svg width="422" height="157" viewBox="0 0 422 157" fill="none" xmlns="http://www.w3.org/2000/svg">
<path d="M0.5 8C0.5 3.85786 3.85786 0.5 8 0.5H414C418.142 0.5 421.5 3.85786 421.5 8V149C421.5 153.142 418.142 156.5 414 156.5H7.99999C3.85785 156.5 0.5 153.142 0.5 149V8Z" fill="#F9F8F6"/>
<path d="M0.5 8C0.5 3.85786 3.85786 0.5 8 0.5H414C418.142 0.5 421.5 3.85786 421.5 8V149C421.5 153.142 418.142 156.5 414 156.5H7.99999C3.85785 156.5 0.5 153.142 0.5 149V8Z" stroke="#DDDFDA"/>
<path d="M24.5 34.5C24.5 30.3579 27.8579 27 32 27H120C124.142 27 127.5 30.3579 127.5 34.5V122.5C127.5 126.642 124.142 130 120 130H32C27.8579 130 24.5 126.642 24.5 122.5V34.5Z" fill="#F9F8F6"/>
<path d="M24.5 34.5C24.5 30.3579 27.8579 27 32 27H120C124.142 27 127.5 30.3579 127.5 34.5V122.5C127.5 126.642 124.142 130 120 130H32C27.8579 130 24.5 126.642 24.5 122.5V34.5Z" stroke="#DDDFDA"/>
<path d="M78.1635 59.833L64.4063 71.7941L52.6667 92.9208H63.2517L78.1635 59.833ZM79.9936 62.6316L74.1224 79.2232L85.3799 93.4041L63.5403 97.1663H99.3334L79.9936 62.6316Z" fill="#0072C6"/>
<path d="M154.83 95H152.614L159.023 77.5455H161.205L167.614 95H165.398L160.182 80.3068H160.045L154.83 95ZM155.648 88.1818H164.58V90.0568H155.648V88.1818ZM169.685 95V93.4659L177.116 83.9205V83.7841H169.923V81.9091H179.707V83.5114L172.48 92.9886V93.125H179.946V95H169.685ZM191.294 89.6477V81.9091H193.305V95H191.294V92.7841H191.158C190.851 93.4489 190.374 94.0142 189.726 94.4801C189.078 94.9403 188.26 95.1705 187.271 95.1705C186.453 95.1705 185.726 94.9915 185.089 94.6335C184.453 94.2699 183.953 93.7244 183.589 92.9972C183.226 92.2642 183.044 91.3409 183.044 90.2273V81.9091H185.055V90.0909C185.055 91.0455 185.322 91.8068 185.857 92.375C186.396 92.9432 187.084 93.2273 187.919 93.2273C188.419 93.2273 188.928 93.0994 189.445 92.8438C189.967 92.5881 190.405 92.196 190.757 91.6676C191.115 91.1392 191.294 90.4659 191.294 89.6477ZM196.989 95V81.9091H198.933V83.8864H199.069C199.308 83.2386 199.739 82.7131 200.364 82.3097C200.989 81.9062 201.694 81.7045 202.478 81.7045C202.626 81.7045 202.81 81.7074 203.032 81.7131C203.254 81.7187 203.421 81.7273 203.535 81.7386V83.7841C203.467 83.767 203.31 83.7415 203.066 83.7074C202.827 83.6676 202.575 83.6477 202.308 83.6477C201.671 83.6477 201.103 83.7812 200.603 84.0483C200.109 84.3097 199.717 84.6733 199.427 85.1392C199.143 85.5994 199.001 86.125 199.001 86.7159V95H196.989ZM211.009 95.2727C209.748 95.2727 208.66 94.9943 207.745 94.4375C206.836 93.875 206.134 93.0909 205.64 92.0852C205.151 91.0739 204.907 89.8977 204.907 88.5568C204.907 87.2159 205.151 86.0341 205.64 85.0114C206.134 83.983 206.822 83.1818 207.702 82.608C208.589 82.0284 209.623 81.7386 210.805 81.7386C211.487 81.7386 212.16 81.8523 212.825 82.0795C213.489 82.3068 214.094 82.6761 214.64 83.1875C215.185 83.6932 215.62 84.3636 215.944 85.1989C216.268 86.0341 216.43 87.0625 216.43 88.2841V89.1364H206.339V87.3977H214.384C214.384 86.6591 214.237 86 213.941 85.4205C213.651 84.8409 213.237 84.3835 212.697 84.0483C212.163 83.7131 211.532 83.5455 210.805 83.5455C210.004 83.5455 209.31 83.7443 208.725 84.142C208.146 84.5341 207.7 85.0455 207.387 85.6761C207.075 86.3068 206.918 86.983 206.918 87.7045V88.8636C206.918 89.8523 207.089 90.6903 207.43 91.3778C207.776 92.0597 208.256 92.5795 208.87 92.9375C209.484 93.2898 210.197 93.4659 211.009 93.4659C211.538 93.4659 212.015 93.392 212.441 93.2443C212.873 93.0909 213.245 92.8636 213.558 92.5625C213.87 92.2557 214.112 91.875 214.282 91.4205L216.225 91.9659C216.021 92.625 215.677 93.2045 215.194 93.7045C214.711 94.1989 214.114 94.5852 213.404 94.8636C212.694 95.1364 211.896 95.2727 211.009 95.2727Z" fill="#252532"/>
</svg>
