<svg width="422" height="157" viewBox="0 0 422 157" fill="none" xmlns="http://www.w3.org/2000/svg">
<path d="M0.5 8C0.5 3.85786 3.85786 0.5 8 0.5H414C418.142 0.5 421.5 3.85786 421.5 8V149C421.5 153.142 418.142 156.5 414 156.5H7.99999C3.85785 156.5 0.5 153.142 0.5 149V8Z" fill="#F9F8F6"/>
<path d="M0.5 8C0.5 3.85786 3.85786 0.5 8 0.5H414C418.142 0.5 421.5 3.85786 421.5 8V149C421.5 153.142 418.142 156.5 414 156.5H7.99999C3.85785 156.5 0.5 153.142 0.5 149V8Z" stroke="#DDDFDA"/>
<path d="M24.5 34.5C24.5 30.3579 27.8579 27 32 27H120C124.142 27 127.5 30.3579 127.5 34.5V122.5C127.5 126.642 124.142 130 120 130H32C27.8579 130 24.5 126.642 24.5 122.5V34.5Z" fill="#F9F8F6"/>
<path d="M24.5 34.5C24.5 30.3579 27.8579 27 32 27H120C124.142 27 127.5 30.3579 127.5 34.5V122.5C127.5 126.642 124.142 130 120 130H32C27.8579 130 24.5 126.642 24.5 122.5V34.5Z" stroke="#DDDFDA"/>
<path d="M76 101.834C88.8866 101.834 99.3333 91.387 99.3333 78.5003C99.3333 65.6137 88.8866 55.167 76 55.167C63.1133 55.167 52.6666 65.6137 52.6666 78.5003C52.6666 91.387 63.1133 101.834 76 101.834Z" fill="#F37441"/>
<path d="M70.9095 77.0007C70.9095 77.2878 70.9414 77.5202 70.9961 77.6888C71.0599 77.862 71.1374 78.0488 71.2468 78.2493C71.2878 78.3086 71.3014 78.3724 71.3014 78.4271C71.3014 78.5046 71.2559 78.582 71.1556 78.6595L70.668 78.9831C70.6087 79.0241 70.5404 79.0514 70.4675 79.0514C70.39 79.0514 70.3125 79.0104 70.235 78.9421C70.1302 78.8281 70.0391 78.7096 69.957 78.5775C69.8705 78.4271 69.7884 78.2767 69.7155 78.1217C69.1094 78.8372 68.3483 79.1927 67.4323 79.1927C66.7806 79.1927 66.2611 79.0059 65.8828 78.6367C65.5046 78.263 65.3086 77.7663 65.3086 77.1465C65.3086 76.4857 65.541 75.9525 66.015 75.5469C66.4889 75.1413 67.1178 74.9408 67.9154 74.9408C68.1797 74.9408 68.4531 74.9635 68.7357 75.0046C69.0228 75.0456 69.319 75.1048 69.6289 75.1777V74.6126C69.6289 74.0247 69.5059 73.61 69.2643 73.373C69.0182 73.1315 68.599 73.0176 68.002 73.0176C67.7285 73.0176 67.4505 73.0495 67.1634 73.1178C66.8763 73.1862 66.5983 73.2728 66.3249 73.3822C66.2383 73.4232 66.1471 73.4551 66.0514 73.4824C66.0104 73.4961 65.9694 73.5007 65.9284 73.5052C65.819 73.5052 65.7643 73.4277 65.7643 73.2637V72.8854C65.7643 72.7624 65.778 72.6667 65.819 72.612C65.8783 72.5436 65.9512 72.4844 66.0378 72.4479C66.3112 72.3066 66.6348 72.1927 67.013 72.097C67.4095 71.9967 67.8151 71.9466 68.2253 71.9512C69.1504 71.9512 69.8249 72.1608 70.2578 72.5801C70.6862 72.9993 70.9004 73.6328 70.9004 74.4896V77.0052L70.9095 77.0007ZM67.7604 78.181C68.0156 78.181 68.28 78.1354 68.558 78.0397C68.8359 77.9486 69.0866 77.7754 69.2962 77.543C69.4193 77.3971 69.515 77.2331 69.5606 77.0462C69.6061 76.8594 69.638 76.6361 69.638 76.3717V76.0482C69.4011 75.9889 69.1641 75.9479 68.9225 75.916C68.681 75.8841 68.4349 75.8704 68.1934 75.8704C67.6738 75.8704 67.291 75.9707 67.0358 76.1803C66.7806 76.39 66.6576 76.6862 66.6576 77.0736C66.6576 77.4382 66.7487 77.7116 66.9447 77.8939C67.1315 78.0898 67.4004 78.181 67.7604 78.181ZM73.9902 79.0195C73.849 79.0195 73.7578 78.9967 73.694 78.9421C73.6302 78.8965 73.5755 78.7871 73.53 78.6413L71.707 72.6439C71.6706 72.5436 71.6478 72.4388 71.6387 72.334C71.6387 72.2109 71.7025 72.138 71.8255 72.138H72.5866C72.7324 72.138 72.8327 72.1608 72.8874 72.2155C72.9512 72.2611 72.9968 72.3704 73.0423 72.5208L74.3457 77.6569L75.558 72.5208C75.599 72.3659 75.6445 72.2656 75.7038 72.2155C75.7949 72.1562 75.9043 72.1289 76.0137 72.138H76.638C76.7839 72.138 76.8887 72.1608 76.9479 72.2155C77.0072 72.2611 77.0664 72.3704 77.0938 72.5208L78.3197 77.7207L79.6641 72.5208C79.7096 72.3659 79.7643 72.2656 79.819 72.2155C79.9102 72.1562 80.015 72.1289 80.1198 72.138H80.8444C80.9675 72.138 81.0404 72.2018 81.0404 72.334C81.0404 72.375 81.0313 72.4115 81.0221 72.457C81.0085 72.5254 80.9902 72.5892 80.9675 72.653L79.099 78.6504C79.0534 78.8053 78.9987 78.9056 78.9349 78.9512C78.8483 79.0059 78.7435 79.0332 78.6387 79.0286H77.9688C77.8229 79.0286 77.7227 79.0059 77.6589 78.9512C77.5996 78.8965 77.5449 78.7962 77.513 78.6413L76.3099 73.6374L75.1159 78.6367C75.0749 78.7917 75.0293 78.8919 74.9701 78.9466C74.9063 79.0013 74.7969 79.0241 74.6602 79.0241L73.9902 79.0195ZM83.9616 79.2292C83.556 79.2292 83.155 79.1836 82.7676 79.0879C82.3802 78.9967 82.0794 78.8919 81.8744 78.778C81.7513 78.7096 81.6647 78.6322 81.6328 78.5592C81.6009 78.4909 81.5872 78.418 81.5872 78.3405V77.944C81.5872 77.7799 81.6511 77.7025 81.765 77.7025C81.8106 77.7025 81.8561 77.7116 81.9063 77.7253C81.9518 77.7389 82.0247 77.7708 82.1022 77.8027C82.3665 77.9212 82.6537 78.0124 82.9544 78.0762C83.2643 78.14 83.5651 78.1673 83.8796 78.1673C84.3672 78.1673 84.75 78.0807 85.0143 77.9121C85.2695 77.7572 85.4245 77.4746 85.4199 77.1738C85.4245 76.9733 85.3516 76.7773 85.2103 76.6315C85.069 76.4857 84.8047 76.3535 84.4264 76.2259L83.3008 75.875C82.7357 75.6973 82.3164 75.4329 82.0612 75.0866C81.8106 74.763 81.6738 74.3665 81.6738 73.9609C81.6738 73.6374 81.7468 73.3503 81.8835 73.0996C82.0247 72.8535 82.207 72.6348 82.444 72.4616C82.6764 72.2839 82.9408 72.1517 83.2507 72.056C83.5606 71.9648 83.8887 71.9238 84.2305 71.9238C84.3991 71.9238 84.5814 71.9329 84.75 71.9557C84.9277 71.9785 85.0918 72.0104 85.2559 72.0423C85.4108 72.0833 85.5612 72.1198 85.6979 72.1654C85.8392 72.2109 85.9486 72.2565 86.0261 72.3066C86.1172 72.3522 86.1992 72.4206 86.2585 72.5026C86.3086 72.5801 86.3314 72.6667 86.3268 72.7578V73.1224C86.3268 73.2865 86.263 73.373 86.1491 73.373C86.0443 73.3594 85.944 73.3275 85.8529 73.2819C85.3835 73.0768 84.8776 72.972 84.3626 72.9811C83.9206 72.9811 83.5697 73.0495 83.3281 73.1999C83.0866 73.3457 82.9636 73.5736 82.9636 73.888C82.9636 74.1068 83.041 74.2936 83.196 74.4395C83.3509 74.5853 83.638 74.7357 84.0482 74.8678L85.1511 75.2142C85.707 75.3919 86.1126 75.6426 86.3542 75.9616C86.5957 76.2806 86.7096 76.6452 86.7096 77.0462C86.7096 77.3789 86.6413 77.6842 86.5091 77.9486C86.3678 78.2129 86.181 78.4453 85.944 78.6322C85.7025 78.8281 85.4154 78.9648 85.0827 79.0651C84.7227 79.1745 84.3581 79.2292 83.9616 79.2292ZM85.429 82.998C82.877 84.8848 79.1673 85.8828 75.9772 85.8828C71.5065 85.8828 67.4779 84.2285 64.4382 81.4805C64.1966 81.2617 64.4154 80.9701 64.7025 81.1387C67.9928 83.0482 72.0534 84.2057 76.2507 84.2057C79.0853 84.2057 82.1934 83.6178 85.0599 82.4056C85.4837 82.2142 85.8483 82.6882 85.429 82.998ZM86.4909 81.7904C86.1628 81.3711 84.3307 81.5898 83.5013 81.6901C83.2552 81.722 83.2142 81.5033 83.4421 81.3392C84.9004 80.3138 87.2975 80.61 87.5801 80.9518C87.8581 81.3027 87.5026 83.6999 86.1354 84.8483C85.9258 85.026 85.7253 84.9349 85.8164 84.7025C86.1263 83.9323 86.819 82.2005 86.4909 81.7904Z" fill="white"/>
<path d="M154.83 95H152.614L159.023 77.5455H161.205L167.614 95H165.398L160.182 80.3068H160.045L154.83 95ZM155.648 88.1818H164.58V90.0568H155.648V88.1818ZM171.385 95L167.396 81.9091H169.51L172.339 91.9318H172.476L175.271 81.9091H177.419L180.18 91.8977H180.317L183.146 81.9091H185.26L181.271 95H179.294L176.43 84.9432H176.226L173.362 95H171.385ZM197.192 84.8409L195.385 85.3523C195.271 85.0511 195.104 84.7585 194.882 84.4744C194.666 84.1847 194.371 83.946 193.996 83.7585C193.621 83.571 193.141 83.4773 192.555 83.4773C191.754 83.4773 191.087 83.6619 190.553 84.0312C190.024 84.3949 189.76 84.858 189.76 85.4205C189.76 85.9205 189.942 86.3153 190.305 86.6051C190.669 86.8949 191.237 87.1364 192.01 87.3295L193.953 87.8068C195.124 88.0909 195.996 88.5256 196.57 89.1108C197.143 89.6903 197.43 90.4375 197.43 91.3523C197.43 92.1023 197.214 92.7727 196.783 93.3636C196.357 93.9545 195.76 94.4205 194.993 94.7614C194.226 95.1023 193.334 95.2727 192.317 95.2727C190.982 95.2727 189.876 94.983 189.001 94.4034C188.126 93.8239 187.572 92.9773 187.339 91.8636L189.249 91.3864C189.43 92.0909 189.774 92.6193 190.28 92.9716C190.791 93.3239 191.459 93.5 192.283 93.5C193.22 93.5 193.964 93.3011 194.516 92.9034C195.072 92.5 195.351 92.017 195.351 91.4545C195.351 91 195.192 90.6193 194.874 90.3125C194.555 90 194.067 89.767 193.408 89.6136L191.226 89.1023C190.027 88.8182 189.146 88.3778 188.584 87.7812C188.027 87.179 187.749 86.4261 187.749 85.5227C187.749 84.7841 187.956 84.1307 188.371 83.5625C188.791 82.9943 189.362 82.5483 190.084 82.2244C190.811 81.9006 191.635 81.7386 192.555 81.7386C193.851 81.7386 194.868 82.0227 195.607 82.5909C196.351 83.1591 196.879 83.9091 197.192 84.8409Z" fill="#252532"/>
</svg>
