<svg width="422" height="157" viewBox="0 0 422 157" fill="none" xmlns="http://www.w3.org/2000/svg">
<path d="M0.5 8C0.5 3.85786 3.85786 0.5 8 0.5H414C418.142 0.5 421.5 3.85786 421.5 8V149C421.5 153.142 418.142 156.5 414 156.5H7.99999C3.85785 156.5 0.5 153.142 0.5 149V8Z" fill="#F9F8F6"/>
<path d="M0.5 8C0.5 3.85786 3.85786 0.5 8 0.5H414C418.142 0.5 421.5 3.85786 421.5 8V149C421.5 153.142 418.142 156.5 414 156.5H7.99999C3.85785 156.5 0.5 153.142 0.5 149V8Z" stroke="#DDDFDA"/>
<path d="M24.5 34.5C24.5 30.3579 27.8579 27 32 27H120C124.142 27 127.5 30.3579 127.5 34.5V122.5C127.5 126.642 124.142 130 120 130H32C27.8579 130 24.5 126.642 24.5 122.5V34.5Z" fill="#F9F8F6"/>
<path d="M24.5 34.5C24.5 30.3579 27.8579 27 32 27H120C124.142 27 127.5 30.3579 127.5 34.5V122.5C127.5 126.642 124.142 130 120 130H32C27.8579 130 24.5 126.642 24.5 122.5V34.5Z" stroke="#DDDFDA"/>
<path fill-rule="evenodd" clip-rule="evenodd" d="M67.504 75.4886C64.4294 72.9631 61.0392 70.1768 59.2412 68.6807C58.5824 68.1317 58.1294 67.7611 57.9785 67.6513C57.1138 66.9239 56.4275 65.6611 57.8961 64.7827C58.5412 64.3984 69.5079 58.1121 73.5569 55.7788C74.9843 54.9553 76.7275 54.9553 78.1549 55.7788C80.0902 56.9043 85.9098 60.2533 85.9098 60.2533C86.5275 60.6102 86.5275 61.4886 85.9098 61.8317L67.7647 72.2219C66.5569 72.9219 66.4196 74.5964 67.4902 75.4886H67.504Z" fill="#FACCBB"/>
<path fill-rule="evenodd" clip-rule="evenodd" d="M72.0333 82.8591L64.649 94.114C64.1137 94.9238 63.0431 95.1846 62.2059 94.6905L57.3059 91.863C55.8922 91.0395 55 89.5297 55 87.8826V69.1062C55 67.6513 55.7 66.2924 56.8529 65.4277C55.5353 66.4434 56.0569 67.5689 56.9353 68.2964C57.0588 68.3924 67.9157 77.3277 71.6765 80.4297C72.4039 81.0199 72.5549 82.063 72.0471 82.8454L72.0333 82.8591Z" fill="#F37441"/>
<path fill-rule="evenodd" clip-rule="evenodd" d="M84.2353 81.5C87.3098 84.0255 90.7 86.8118 92.4981 88.3078C93.1569 88.8569 93.6098 89.2274 93.7608 89.3373C94.6255 90.0647 95.3118 91.3274 93.8432 92.2059C93.1981 92.5902 82.2314 98.8765 78.1824 101.21C76.7549 102.033 75.0118 102.033 73.5843 101.21C71.6491 100.084 65.8294 96.7353 65.8294 96.7353C65.2118 96.3784 65.2118 95.5 65.8294 95.1569L83.9745 84.7667C85.1824 84.0667 85.3196 82.3922 84.2491 81.5H84.2353Z" fill="#F37441"/>
<path fill-rule="evenodd" clip-rule="evenodd" d="M79.6921 74.1295L87.0764 62.8746C87.6117 62.0648 88.6823 61.804 89.5196 62.2982L94.4196 65.1256C95.8333 65.9491 96.7254 67.459 96.7254 69.106V87.8825C96.7254 89.3374 96.0254 90.6962 94.8725 91.5609C96.1901 90.5452 95.6686 89.4197 94.7901 88.6923C94.6666 88.5962 83.8097 79.6609 80.049 76.559C79.3215 75.9688 79.1705 74.9256 79.6784 74.1433L79.6921 74.1295Z" fill="#F37441"/>
<path d="M163.659 81.9091C163.557 81.0455 163.142 80.375 162.415 79.8977C161.688 79.4205 160.795 79.1818 159.739 79.1818C158.966 79.1818 158.29 79.3068 157.71 79.5568C157.136 79.8068 156.688 80.1506 156.364 80.5881C156.045 81.0256 155.886 81.5227 155.886 82.0795C155.886 82.5455 155.997 82.946 156.219 83.2812C156.446 83.6108 156.736 83.8864 157.088 84.108C157.44 84.3239 157.81 84.5028 158.196 84.6449C158.582 84.7812 158.938 84.892 159.261 84.9773L161.034 85.4545C161.489 85.5739 161.994 85.7386 162.551 85.9489C163.114 86.1591 163.651 86.446 164.162 86.8097C164.679 87.1676 165.105 87.6278 165.44 88.1903C165.776 88.7528 165.943 89.4432 165.943 90.2614C165.943 91.2045 165.696 92.0568 165.202 92.8182C164.713 93.5795 163.997 94.1847 163.054 94.6335C162.116 95.0824 160.977 95.3068 159.636 95.3068C158.386 95.3068 157.304 95.1051 156.389 94.7017C155.48 94.2983 154.764 93.7358 154.241 93.0142C153.724 92.2926 153.432 91.4545 153.364 90.5H155.545C155.602 91.1591 155.824 91.7045 156.21 92.1364C156.602 92.5625 157.097 92.8807 157.693 93.0909C158.295 93.2955 158.943 93.3977 159.636 93.3977C160.443 93.3977 161.168 93.267 161.81 93.0057C162.452 92.7386 162.96 92.3693 163.335 91.8977C163.71 91.4205 163.898 90.8636 163.898 90.2273C163.898 89.6477 163.736 89.1761 163.412 88.8125C163.088 88.4489 162.662 88.1534 162.134 87.9261C161.605 87.6989 161.034 87.5 160.42 87.3295L158.273 86.7159C156.909 86.3239 155.83 85.7642 155.034 85.0369C154.239 84.3097 153.841 83.358 153.841 82.1818C153.841 81.2045 154.105 80.3523 154.634 79.625C155.168 78.892 155.884 78.3239 156.781 77.9205C157.685 77.5114 158.693 77.3068 159.807 77.3068C160.932 77.3068 161.932 77.5085 162.807 77.9119C163.682 78.3097 164.375 78.8551 164.886 79.5483C165.403 80.2415 165.676 81.0284 165.705 81.9091H163.659ZM174.839 81.9091V83.6136H168.055V81.9091H174.839ZM170.032 78.7727H172.043V91.25C172.043 91.8182 172.126 92.2443 172.29 92.5284C172.461 92.8068 172.677 92.9943 172.938 93.0909C173.205 93.1818 173.487 93.2273 173.782 93.2273C174.004 93.2273 174.185 93.2159 174.327 93.1932C174.469 93.1648 174.583 93.142 174.668 93.125L175.077 94.9318C174.941 94.983 174.751 95.0341 174.506 95.0852C174.262 95.142 173.952 95.1705 173.577 95.1705C173.009 95.1705 172.452 95.0483 171.907 94.804C171.367 94.5597 170.918 94.1875 170.56 93.6875C170.208 93.1875 170.032 92.5568 170.032 91.7955V78.7727ZM181.717 95.3068C180.887 95.3068 180.134 95.1506 179.458 94.8381C178.782 94.5199 178.245 94.0625 177.847 93.4659C177.45 92.8636 177.251 92.1364 177.251 91.2841C177.251 90.5341 177.398 89.9261 177.694 89.4602C177.989 88.9886 178.384 88.6193 178.879 88.3523C179.373 88.0852 179.918 87.8864 180.515 87.7557C181.117 87.6193 181.722 87.5114 182.33 87.4318C183.126 87.3295 183.771 87.2528 184.265 87.2017C184.765 87.1449 185.129 87.0511 185.356 86.9205C185.589 86.7898 185.705 86.5625 185.705 86.2386V86.1705C185.705 85.3295 185.475 84.6761 185.015 84.2102C184.56 83.7443 183.87 83.5114 182.944 83.5114C181.984 83.5114 181.231 83.7216 180.685 84.142C180.14 84.5625 179.756 85.0114 179.535 85.4886L177.626 84.8068C177.967 84.0114 178.421 83.392 178.989 82.9489C179.563 82.5 180.188 82.1875 180.864 82.0114C181.546 81.8295 182.217 81.7386 182.876 81.7386C183.296 81.7386 183.779 81.7898 184.325 81.892C184.876 81.9886 185.407 82.1903 185.918 82.4972C186.435 82.804 186.864 83.267 187.205 83.8864C187.546 84.5057 187.717 85.3352 187.717 86.375V95H185.705V93.2273H185.603C185.467 93.5114 185.239 93.8153 184.921 94.1392C184.603 94.4631 184.18 94.7386 183.651 94.9659C183.123 95.1932 182.478 95.3068 181.717 95.3068ZM182.023 93.5C182.819 93.5 183.489 93.3438 184.035 93.0312C184.586 92.7188 185.001 92.3153 185.279 91.821C185.563 91.3267 185.705 90.8068 185.705 90.2614V88.4205C185.62 88.5227 185.433 88.6165 185.143 88.7017C184.859 88.7812 184.529 88.8523 184.154 88.9148C183.785 88.9716 183.424 89.0227 183.072 89.0682C182.725 89.108 182.444 89.142 182.228 89.1705C181.705 89.2386 181.217 89.3494 180.762 89.5028C180.313 89.6506 179.95 89.875 179.671 90.1761C179.398 90.4716 179.262 90.875 179.262 91.3864C179.262 92.0852 179.521 92.6136 180.038 92.9716C180.56 93.3239 181.222 93.5 182.023 93.5ZM191.388 95V81.9091H193.331V83.8864H193.467C193.706 83.2386 194.138 82.7131 194.763 82.3097C195.388 81.9062 196.092 81.7045 196.876 81.7045C197.024 81.7045 197.209 81.7074 197.43 81.7131C197.652 81.7187 197.82 81.7273 197.933 81.7386V83.7841C197.865 83.767 197.709 83.7415 197.464 83.7074C197.226 83.6676 196.973 83.6477 196.706 83.6477C196.07 83.6477 195.501 83.7812 195.001 84.0483C194.507 84.3097 194.115 84.6733 193.825 85.1392C193.541 85.5994 193.399 86.125 193.399 86.7159V95H191.388ZM200.59 95V77.5455H206.488C207.852 77.5455 208.971 77.7784 209.846 78.2443C210.721 78.7045 211.369 79.3381 211.789 80.1449C212.21 80.9517 212.42 81.8693 212.42 82.8977C212.42 83.9261 212.21 84.8381 211.789 85.6335C211.369 86.429 210.724 87.054 209.854 87.5085C208.985 87.9574 207.874 88.1818 206.522 88.1818H201.749V86.2727H206.454C207.386 86.2727 208.136 86.1364 208.704 85.8636C209.278 85.5909 209.692 85.2045 209.948 84.7045C210.21 84.1989 210.34 83.5966 210.34 82.8977C210.34 82.1989 210.21 81.5881 209.948 81.0653C209.687 80.5426 209.269 80.1392 208.695 79.8551C208.121 79.5653 207.363 79.4205 206.42 79.4205H202.704V95H200.59ZM208.806 87.1591L213.102 95H210.647L206.42 87.1591H208.806ZM220.847 95.2727C219.665 95.2727 218.628 94.9915 217.736 94.429C216.849 93.8665 216.156 93.0795 215.656 92.0682C215.162 91.0568 214.915 89.875 214.915 88.5227C214.915 87.1591 215.162 85.9687 215.656 84.9517C216.156 83.9347 216.849 83.1449 217.736 82.5824C218.628 82.0199 219.665 81.7386 220.847 81.7386C222.028 81.7386 223.063 82.0199 223.949 82.5824C224.841 83.1449 225.534 83.9347 226.028 84.9517C226.528 85.9687 226.778 87.1591 226.778 88.5227C226.778 89.875 226.528 91.0568 226.028 92.0682C225.534 93.0795 224.841 93.8665 223.949 94.429C223.063 94.9915 222.028 95.2727 220.847 95.2727ZM220.847 93.4659C221.744 93.4659 222.483 93.2358 223.062 92.7756C223.642 92.3153 224.071 91.7102 224.349 90.9602C224.628 90.2102 224.767 89.3977 224.767 88.5227C224.767 87.6477 224.628 86.8324 224.349 86.0767C224.071 85.321 223.642 84.7102 223.062 84.2443C222.483 83.7784 221.744 83.5455 220.847 83.5455C219.949 83.5455 219.21 83.7784 218.631 84.2443C218.051 84.7102 217.622 85.321 217.344 86.0767C217.065 86.8324 216.926 87.6477 216.926 88.5227C216.926 89.3977 217.065 90.2102 217.344 90.9602C217.622 91.7102 218.051 92.3153 218.631 92.7756C219.21 93.2358 219.949 93.4659 220.847 93.4659ZM235.167 95.2727C233.94 95.2727 232.883 94.983 231.996 94.4034C231.11 93.8239 230.428 93.0256 229.951 92.0085C229.474 90.9915 229.235 89.8295 229.235 88.5227C229.235 87.1932 229.479 86.0199 229.968 85.0028C230.462 83.9801 231.15 83.1818 232.031 82.608C232.917 82.0284 233.951 81.7386 235.133 81.7386C236.053 81.7386 236.883 81.9091 237.621 82.25C238.36 82.5909 238.965 83.0682 239.437 83.6818C239.908 84.2955 240.201 85.0114 240.315 85.8295H238.303C238.15 85.233 237.809 84.7045 237.281 84.2443C236.758 83.7784 236.053 83.5455 235.167 83.5455C234.383 83.5455 233.695 83.75 233.104 84.1591C232.519 84.5625 232.062 85.1335 231.732 85.8722C231.408 86.6051 231.246 87.4659 231.246 88.4545C231.246 89.4659 231.406 90.3466 231.724 91.0966C232.048 91.8466 232.502 92.429 233.087 92.8438C233.678 93.2585 234.371 93.4659 235.167 93.4659C235.69 93.4659 236.164 93.375 236.59 93.1932C237.016 93.0114 237.377 92.75 237.673 92.4091C237.968 92.0682 238.178 91.6591 238.303 91.1818H240.315C240.201 91.9545 239.92 92.6506 239.471 93.2699C239.028 93.8835 238.44 94.3722 237.707 94.7358C236.979 95.0938 236.133 95.2727 235.167 95.2727ZM245.13 90.2273L245.096 87.7386H245.505L251.232 81.9091H253.721L247.619 88.0795H247.448L245.13 90.2273ZM243.255 95V77.5455H245.266V95H243.255ZM251.573 95L246.46 88.5227L247.891 87.125L254.13 95H251.573ZM265.582 84.8409L263.776 85.3523C263.662 85.0511 263.494 84.7585 263.273 84.4744C263.057 84.1847 262.761 83.946 262.386 83.7585C262.011 83.571 261.531 83.4773 260.946 83.4773C260.145 83.4773 259.477 83.6619 258.943 84.0312C258.415 84.3949 258.151 84.858 258.151 85.4205C258.151 85.9205 258.332 86.3153 258.696 86.6051C259.06 86.8949 259.628 87.1364 260.401 87.3295L262.344 87.8068C263.514 88.0909 264.386 88.5256 264.96 89.1108C265.534 89.6903 265.821 90.4375 265.821 91.3523C265.821 92.1023 265.605 92.7727 265.173 93.3636C264.747 93.9545 264.151 94.4205 263.384 94.7614C262.616 95.1023 261.724 95.2727 260.707 95.2727C259.372 95.2727 258.267 94.983 257.392 94.4034C256.517 93.8239 255.963 92.9773 255.73 91.8636L257.639 91.3864C257.821 92.0909 258.165 92.6193 258.67 92.9716C259.182 93.3239 259.849 93.5 260.673 93.5C261.611 93.5 262.355 93.3011 262.906 92.9034C263.463 92.5 263.741 92.017 263.741 91.4545C263.741 91 263.582 90.6193 263.264 90.3125C262.946 90 262.457 89.767 261.798 89.6136L259.616 89.1023C258.418 88.8182 257.537 88.3778 256.974 87.7812C256.418 87.179 256.139 86.4261 256.139 85.5227C256.139 84.7841 256.347 84.1307 256.761 83.5625C257.182 82.9943 257.753 82.5483 258.474 82.2244C259.202 81.9006 260.026 81.7386 260.946 81.7386C262.241 81.7386 263.259 82.0227 263.997 82.5909C264.741 83.1591 265.27 83.9091 265.582 84.8409ZM276.945 83.8182L274.167 77.5455H275.292L277.235 82.1477L279.178 77.5455H280.303L277.525 83.8182H276.945ZM273.962 83.8182V77.5455H275.053V83.8182H273.962ZM279.417 83.8182V77.5455H280.508V83.8182H279.417ZM269.871 83.8182V78.0909H270.962V83.8182H269.871ZM267.962 78.5V77.5455H272.871V78.5H267.962ZM290.473 95V77.5455H301.007V79.4205H292.587V85.3182H300.462V87.1932H292.587V93.125H301.143V95H290.473ZM306.555 87.125V95H304.544V81.9091H306.487V83.9545H306.658C306.964 83.2898 307.43 82.7557 308.055 82.3523C308.68 81.9432 309.487 81.7386 310.476 81.7386C311.362 81.7386 312.138 81.9205 312.803 82.2841C313.467 82.642 313.984 83.1875 314.354 83.9205C314.723 84.6477 314.908 85.5682 314.908 86.6818V95H312.896V86.8182C312.896 85.7898 312.629 84.9886 312.095 84.4148C311.561 83.8352 310.828 83.5455 309.896 83.5455C309.254 83.5455 308.68 83.6847 308.175 83.9631C307.675 84.2415 307.28 84.6477 306.99 85.1818C306.7 85.7159 306.555 86.3636 306.555 87.125ZM323.867 100.182C322.896 100.182 322.06 100.057 321.362 99.8068C320.663 99.5625 320.08 99.2386 319.614 98.8352C319.154 98.4375 318.788 98.0114 318.515 97.5568L320.117 96.4318C320.299 96.6705 320.529 96.9432 320.808 97.25C321.086 97.5625 321.467 97.8324 321.95 98.0597C322.438 98.2926 323.077 98.4091 323.867 98.4091C324.924 98.4091 325.796 98.1534 326.484 97.642C327.171 97.1307 327.515 96.3295 327.515 95.2386V92.5795H327.344C327.197 92.8182 326.987 93.1136 326.714 93.4659C326.447 93.8125 326.06 94.1222 325.555 94.3949C325.055 94.6619 324.379 94.7955 323.526 94.7955C322.469 94.7955 321.521 94.5455 320.68 94.0455C319.844 93.5455 319.183 92.8182 318.694 91.8636C318.211 90.9091 317.969 89.75 317.969 88.3864C317.969 87.0455 318.205 85.8778 318.677 84.8835C319.148 83.8835 319.805 83.1108 320.646 82.5653C321.487 82.0142 322.458 81.7386 323.56 81.7386C324.413 81.7386 325.089 81.8807 325.589 82.1648C326.094 82.4432 326.481 82.7614 326.748 83.1193C327.021 83.4716 327.231 83.7614 327.379 83.9886H327.583V81.9091H329.526V95.375C329.526 96.5 329.271 97.4148 328.759 98.1193C328.254 98.8295 327.572 99.3494 326.714 99.679C325.862 100.014 324.913 100.182 323.867 100.182ZM323.799 92.9886C324.606 92.9886 325.288 92.804 325.844 92.4347C326.401 92.0653 326.825 91.5341 327.114 90.8409C327.404 90.1477 327.549 89.3182 327.549 88.3523C327.549 87.4091 327.407 86.5767 327.123 85.8551C326.839 85.1335 326.418 84.5682 325.862 84.1591C325.305 83.75 324.617 83.5455 323.799 83.5455C322.947 83.5455 322.237 83.7614 321.668 84.1932C321.106 84.625 320.683 85.2045 320.398 85.9318C320.12 86.6591 319.981 87.4659 319.981 88.3523C319.981 89.2614 320.123 90.0653 320.407 90.7642C320.697 91.4574 321.123 92.0028 321.685 92.4006C322.254 92.7926 322.958 92.9886 323.799 92.9886ZM333.208 95V81.9091H335.219V95H333.208ZM334.231 79.7273C333.839 79.7273 333.501 79.5938 333.217 79.3267C332.938 79.0597 332.799 78.7386 332.799 78.3636C332.799 77.9886 332.938 77.6676 333.217 77.4006C333.501 77.1335 333.839 77 334.231 77C334.623 77 334.958 77.1335 335.237 77.4006C335.521 77.6676 335.663 77.9886 335.663 78.3636C335.663 78.7386 335.521 79.0597 335.237 79.3267C334.958 79.5938 334.623 79.7273 334.231 79.7273ZM340.915 87.125V95H338.903V81.9091H340.847V83.9545H341.017C341.324 83.2898 341.79 82.7557 342.415 82.3523C343.04 81.9432 343.847 81.7386 344.835 81.7386C345.722 81.7386 346.497 81.9205 347.162 82.2841C347.827 82.642 348.344 83.1875 348.713 83.9205C349.082 84.6477 349.267 85.5682 349.267 86.6818V95H347.256V86.8182C347.256 85.7898 346.989 84.9886 346.455 84.4148C345.92 83.8352 345.188 83.5455 344.256 83.5455C343.614 83.5455 343.04 83.6847 342.534 83.9631C342.034 84.2415 341.639 84.6477 341.349 85.1818C341.06 85.7159 340.915 86.3636 340.915 87.125ZM358.431 95.2727C357.17 95.2727 356.082 94.9943 355.167 94.4375C354.258 93.875 353.556 93.0909 353.062 92.0852C352.573 91.0739 352.329 89.8977 352.329 88.5568C352.329 87.2159 352.573 86.0341 353.062 85.0114C353.556 83.983 354.244 83.1818 355.124 82.608C356.011 82.0284 357.045 81.7386 358.227 81.7386C358.908 81.7386 359.582 81.8523 360.246 82.0795C360.911 82.3068 361.516 82.6761 362.062 83.1875C362.607 83.6932 363.042 84.3636 363.366 85.1989C363.69 86.0341 363.852 87.0625 363.852 88.2841V89.1364H353.761V87.3977H361.806C361.806 86.6591 361.658 86 361.363 85.4205C361.073 84.8409 360.658 84.3835 360.119 84.0483C359.585 83.7131 358.954 83.5455 358.227 83.5455C357.425 83.5455 356.732 83.7443 356.147 84.142C355.567 84.5341 355.121 85.0455 354.809 85.6761C354.496 86.3068 354.34 86.983 354.34 87.7045V88.8636C354.34 89.8523 354.511 90.6903 354.852 91.3778C355.198 92.0597 355.678 92.5795 356.292 92.9375C356.906 93.2898 357.619 93.4659 358.431 93.4659C358.96 93.4659 359.437 93.392 359.863 93.2443C360.295 93.0909 360.667 92.8636 360.979 92.5625C361.292 92.2557 361.533 91.875 361.704 91.4205L363.647 91.9659C363.442 92.625 363.099 93.2045 362.616 93.7045C362.133 94.1989 361.536 94.5852 360.826 94.8636C360.116 95.1364 359.317 95.2727 358.431 95.2727Z" fill="#252532"/>
</svg>
