<svg width="422" height="157" viewBox="0 0 422 157" fill="none" xmlns="http://www.w3.org/2000/svg">
<path d="M0.5 8C0.5 3.85786 3.85786 0.5 8 0.5H414C418.142 0.5 421.5 3.85786 421.5 8V149C421.5 153.142 418.142 156.5 414 156.5H7.99999C3.85785 156.5 0.5 153.142 0.5 149V8Z" fill="#F9F8F6"/>
<path d="M0.5 8C0.5 3.85786 3.85786 0.5 8 0.5H414C418.142 0.5 421.5 3.85786 421.5 8V149C421.5 153.142 418.142 156.5 414 156.5H7.99999C3.85785 156.5 0.5 153.142 0.5 149V8Z" stroke="#DDDFDA"/>
<path d="M24.5 34.5C24.5 30.3579 27.8579 27 32 27H120C124.142 27 127.5 30.3579 127.5 34.5V122.5C127.5 126.642 124.142 130 120 130H32C27.8579 130 24.5 126.642 24.5 122.5V34.5Z" fill="#F9F8F6"/>
<path d="M24.5 34.5C24.5 30.3579 27.8579 27 32 27H120C124.142 27 127.5 30.3579 127.5 34.5V122.5C127.5 126.642 124.142 130 120 130H32C27.8579 130 24.5 126.642 24.5 122.5V34.5Z" stroke="#DDDFDA"/>
<path d="M75.8382 55.1711C75.4256 55.1925 75.0214 55.2979 74.6493 55.4812L58.4256 63.4703C58.0057 63.677 57.6368 63.9777 57.3462 64.3502C57.0556 64.7226 56.8508 65.1572 56.7471 65.6216L52.7446 83.5673C52.6521 83.9807 52.6418 84.409 52.7142 84.8266C52.7865 85.2442 52.9401 85.6428 53.1658 85.9986C53.2205 86.0857 53.2794 86.1699 53.3421 86.251L64.5715 100.64C64.8622 101.013 65.2311 101.313 65.6511 101.52C66.071 101.727 66.531 101.834 66.997 101.834L85.0051 101.829C85.471 101.83 85.9309 101.723 86.3508 101.517C86.7707 101.31 87.1398 101.01 87.4307 100.638L98.6559 86.2467C98.9467 85.8742 99.1516 85.4394 99.2554 84.9748C99.3592 84.5102 99.3592 84.0276 99.2555 83.563L95.2469 65.6173C95.1431 65.1529 94.9384 64.7183 94.6478 64.3459C94.3572 63.9735 93.9882 63.6728 93.5683 63.4661L77.3425 55.4811C76.8744 55.2506 76.3571 55.144 75.8382 55.1711Z" fill="#326CE5"/>
<path d="M75.9997 61.2783C75.4635 61.2784 75.0286 61.7762 75.0287 62.3903C75.0287 62.3997 75.0305 62.4088 75.0307 62.4181C75.0299 62.5016 75.026 62.6021 75.0287 62.6747C75.0414 63.0289 75.1163 63.3 75.1615 63.6263C75.2432 64.3247 75.3115 64.9037 75.2694 65.4418C75.2282 65.6447 75.0833 65.8303 74.954 65.9593L74.9312 66.3828C74.3404 66.4329 73.7538 66.5258 73.1758 66.6607C70.6544 67.2508 68.4835 68.5893 66.8307 70.3966C66.7128 70.3126 66.5959 70.2271 66.4801 70.1399C66.3067 70.1641 66.1315 70.2193 65.9032 70.0822C65.4687 69.7808 65.0729 69.3646 64.594 68.8633C64.3745 68.6236 64.2156 68.3952 63.9549 68.164C63.8957 68.1116 63.8054 68.0406 63.7391 67.9865C63.5353 67.8191 63.2949 67.7317 63.0627 67.7236C62.7642 67.713 62.4768 67.8333 62.2888 68.0764C61.9544 68.5085 62.0615 69.1691 62.5274 69.5519C62.5321 69.5558 62.5371 69.5588 62.5419 69.5626C62.6059 69.6161 62.6843 69.6846 62.7432 69.7294C63.0198 69.9399 63.2725 70.0477 63.5482 70.2148C64.129 70.5845 64.6105 70.8909 64.9923 71.2605C65.1415 71.4243 65.1676 71.713 65.1874 71.8379L65.4986 72.1244C63.8325 74.7086 63.0614 77.9005 63.5171 81.1529L63.1105 81.2747C63.0032 81.4174 62.8518 81.6419 62.6934 81.7089C62.1937 81.871 61.6314 81.9306 60.9526 82.0039C60.6339 82.0313 60.3588 82.0149 60.0209 82.0809C59.9465 82.0954 59.8429 82.1233 59.7615 82.1429L59.7532 82.1451C59.7488 82.1461 59.7429 82.1484 59.7387 82.1493C59.1664 82.2919 58.7987 82.834 58.917 83.3683C59.0354 83.9026 59.5945 84.2275 60.1703 84.0996C60.1745 84.0986 60.1805 84.0984 60.1848 84.0975C60.1913 84.096 60.197 84.0927 60.2035 84.091C60.2838 84.0729 60.3843 84.0527 60.4546 84.0333C60.7868 83.9416 61.0273 83.807 61.326 83.689C61.9685 83.4516 62.5007 83.2531 63.0192 83.1758C63.2356 83.1583 63.4638 83.3135 63.5773 83.379L64.0006 83.3041C64.9746 86.4165 67.0159 88.9321 69.6007 90.5106L69.4243 90.9469C69.4879 91.1162 69.5581 91.3454 69.5106 91.5128C69.3222 92.0164 68.9994 92.5481 68.6318 93.1408C68.4537 93.4147 68.2716 93.6272 68.1109 93.9406C68.0725 94.0156 68.0236 94.1309 67.9864 94.2101C67.7369 94.7604 67.9199 95.3942 68.3994 95.6322C68.8818 95.8715 69.4806 95.619 69.7397 95.0676C69.7401 95.0668 69.7414 95.0662 69.7418 95.0654C69.742 95.0648 69.7415 95.0639 69.7418 95.0634C69.7787 94.9852 69.831 94.8824 69.8622 94.8088C69.9997 94.484 70.0455 94.2056 70.1423 93.8914C70.3992 93.2263 70.5403 92.5284 70.894 92.0935C70.9909 91.9745 71.1488 91.9286 71.3125 91.8834L71.5324 91.4729C73.7858 92.3643 76.3082 92.6035 78.8278 92.0139C79.3941 91.8812 79.9508 91.7083 80.4939 91.4964C80.5557 91.6094 80.6706 91.8267 80.7014 91.8813C80.8678 91.9371 81.0494 91.9659 81.1973 92.1914C81.4619 92.6574 81.6429 93.2086 81.8634 93.8743C81.9601 94.1885 82.008 94.4669 82.1456 94.7917C82.1769 94.8657 82.229 94.97 82.2659 95.0483C82.5245 95.6016 83.1252 95.8549 83.6084 95.615C84.0877 95.377 84.271 94.7433 84.0213 94.1929C83.9842 94.1137 83.9332 93.9985 83.8947 93.9235C83.734 93.6101 83.5519 93.3997 83.3739 93.1259C83.0063 92.5332 82.7013 92.0408 82.5128 91.537C82.434 91.2772 82.5261 91.1157 82.5875 90.9469C82.5507 90.9034 82.472 90.6581 82.4257 90.5427C85.1119 88.908 87.0933 86.2986 88.0237 83.2849C88.1494 83.3053 88.3678 83.3451 88.4387 83.3597C88.5848 83.2605 88.719 83.1309 88.9824 83.1523C89.5008 83.2296 90.033 83.4281 90.6755 83.6655C90.9741 83.7834 91.2147 83.9203 91.547 84.0119C91.6171 84.0313 91.7177 84.0494 91.798 84.0676C91.8044 84.0691 91.8101 84.0724 91.8167 84.0739C91.821 84.0749 91.827 84.0751 91.8312 84.0761C92.407 84.2038 92.9662 83.879 93.0844 83.3447C93.2026 82.8105 92.8352 82.2682 92.2628 82.1259C92.1795 82.1063 92.0615 82.0732 91.9806 82.0574C91.6426 81.9915 91.3677 82.0077 91.049 81.9805C90.3701 81.9071 89.8078 81.8475 89.3081 81.6853C89.1044 81.6039 88.9595 81.3541 88.889 81.2512L88.4968 81.1336C88.7001 79.6176 88.6453 78.0398 88.2935 76.4611C87.9384 74.8678 87.3108 73.4105 86.4738 72.1266C86.5744 72.0323 86.7644 71.859 86.8182 71.8079C86.834 71.6284 86.8204 71.4401 87.0008 71.2413C87.3827 70.8717 87.8642 70.5652 88.445 70.1956C88.7206 70.0284 88.9755 69.9207 89.2521 69.7101C89.3146 69.6625 89.4001 69.5871 89.4658 69.5326C89.9316 69.1497 90.0388 68.4892 89.7044 68.0572C89.37 67.6251 88.722 67.5843 88.2561 67.9673C88.1899 68.0214 88.0999 68.0921 88.0403 68.1448C87.7797 68.376 87.6187 68.6043 87.3992 68.8441C86.9203 69.3454 86.5245 69.7637 86.0899 70.0652C85.9016 70.1781 85.6258 70.1391 85.5007 70.1314L85.1314 70.403C83.0253 68.127 80.1579 66.6719 77.0704 66.3892C77.0618 66.2558 77.0505 66.0148 77.0476 65.9422C76.9211 65.8176 76.7684 65.7112 76.7301 65.4418C76.6878 64.9037 76.7584 64.3247 76.8401 63.6263C76.8851 63.3 76.96 63.029 76.9729 62.6747C76.9758 62.5942 76.9711 62.4773 76.9708 62.3903C76.9707 61.7762 76.536 61.2783 75.9997 61.2783ZM74.7838 69.0408L74.4954 74.2906L74.4747 74.3014C74.4553 74.771 74.0803 75.146 73.6198 75.146C73.4312 75.146 73.2571 75.0836 73.1156 74.9771L73.1073 74.9813L68.9305 71.9298C70.2142 70.6289 71.8562 69.6675 73.7484 69.2248C74.0903 69.1452 74.4359 69.0838 74.7838 69.0408ZM77.2177 69.0408C79.4269 69.3208 81.47 70.3519 83.0357 71.932L78.8859 74.9642L78.8714 74.9579C78.503 75.2351 77.9841 75.1663 77.697 74.7954C77.5835 74.6498 77.5181 74.4707 77.5103 74.2842L77.5061 74.2821L77.2177 69.0408ZM67.4158 73.8908L71.2295 77.4063L71.2253 77.4277C71.5696 77.7361 71.6204 78.2713 71.3332 78.6423C71.2201 78.7889 71.0645 78.8944 70.8892 78.9438L70.8851 78.9609L65.9966 80.4151C65.7478 78.0703 66.284 75.7911 67.4158 73.8908ZM84.5566 73.8928C85.1233 74.8394 85.5523 75.8967 85.8077 77.0428C86.0601 78.1752 86.1235 79.3055 86.0194 80.398L81.1061 78.9396L81.1019 78.9182C80.6619 78.7943 80.3915 78.333 80.4939 77.8704C80.5338 77.6884 80.629 77.5243 80.7658 77.402L80.7637 77.3914L84.5566 73.8929V73.8928ZM75.2175 77.6779H76.7799L77.751 78.9289L77.4024 80.4899L75.9997 81.1849L74.5929 80.4878L74.2443 78.9267L75.2175 77.6779ZM80.2263 81.959C80.2927 81.9556 80.3588 81.9618 80.4234 81.974L80.4317 81.9633L85.4882 82.8443C84.7482 84.9871 83.3321 86.8433 81.4401 88.0856L79.4773 83.1993L79.4834 83.1908C79.3032 82.759 79.4836 82.2526 79.8984 82.0467C80.0047 81.994 80.1156 81.9648 80.2263 81.959ZM71.7337 81.9804C72.1196 81.986 72.4657 82.262 72.5554 82.6669C72.5974 82.8564 72.5769 83.0441 72.5076 83.21L72.5222 83.2292L70.5801 88.0664C68.7643 86.8655 67.318 85.0675 66.5444 82.8614L71.5573 81.9847L71.5656 81.9954C71.6217 81.9848 71.6786 81.9796 71.7337 81.9804ZM75.9685 84.0997C76.107 84.0947 76.2445 84.1248 76.369 84.1872C76.539 84.2716 76.6703 84.4044 76.7529 84.5636H76.7716L79.2428 89.1655C78.9184 89.2773 78.5887 89.3722 78.2551 89.45C76.3652 89.8922 74.4812 89.7582 72.7754 89.1591L75.2403 84.5658H75.2445C75.3151 84.4296 75.4192 84.315 75.5462 84.2332C75.6733 84.1514 75.8189 84.1053 75.9686 84.0996L75.9685 84.0997Z" fill="white" stroke="white" stroke-width="0.276684"/>
<path d="M154.114 95V77.5455H156.227V86.2045H156.432L164.273 77.5455H167.034L159.705 85.4205L167.034 95H164.477L158.409 86.8864L156.227 89.3409V95H154.114ZM176.927 89.6477V81.9091H178.938V95H176.927V92.7841H176.79C176.484 93.4489 176.006 94.0142 175.359 94.4801C174.711 94.9403 173.893 95.1705 172.904 95.1705C172.086 95.1705 171.359 94.9915 170.722 94.6335C170.086 94.2699 169.586 93.7244 169.222 92.9972C168.859 92.2642 168.677 91.3409 168.677 90.2273V81.9091H170.688V90.0909C170.688 91.0455 170.955 91.8068 171.489 92.375C172.029 92.9432 172.717 93.2273 173.552 93.2273C174.052 93.2273 174.56 93.0994 175.077 92.8438C175.6 92.5881 176.038 92.196 176.39 91.6676C176.748 91.1392 176.927 90.4659 176.927 89.6477ZM182.895 95V77.5455H184.906V83.9886H185.077C185.224 83.7614 185.429 83.4716 185.69 83.1193C185.957 82.7614 186.338 82.4432 186.832 82.1648C187.332 81.8807 188.009 81.7386 188.861 81.7386C189.963 81.7386 190.935 82.0142 191.776 82.5653C192.616 83.1165 193.273 83.8977 193.744 84.9091C194.216 85.9205 194.452 87.1136 194.452 88.4886C194.452 89.875 194.216 91.0767 193.744 92.0938C193.273 93.1051 192.619 93.8892 191.784 94.446C190.949 94.9972 189.986 95.2727 188.895 95.2727C188.054 95.2727 187.381 95.1335 186.875 94.8551C186.369 94.571 185.98 94.25 185.707 93.892C185.435 93.5284 185.224 93.2273 185.077 92.9886H184.838V95H182.895ZM184.872 88.4545C184.872 89.4432 185.017 90.3153 185.307 91.071C185.597 91.821 186.02 92.4091 186.577 92.8352C187.134 93.2557 187.815 93.4659 188.622 93.4659C189.463 93.4659 190.165 93.2443 190.727 92.8011C191.295 92.3523 191.722 91.75 192.006 90.9943C192.295 90.233 192.44 89.3864 192.44 88.4545C192.44 87.5341 192.298 86.7045 192.014 85.9659C191.736 85.2216 191.313 84.6335 190.744 84.2017C190.182 83.7642 189.474 83.5455 188.622 83.5455C187.804 83.5455 187.116 83.7528 186.56 84.1676C186.003 84.5767 185.582 85.1506 185.298 85.8892C185.014 86.6222 184.872 87.4773 184.872 88.4545ZM203.017 95.2727C201.756 95.2727 200.668 94.9943 199.753 94.4375C198.844 93.875 198.142 93.0909 197.648 92.0852C197.159 91.0739 196.915 89.8977 196.915 88.5568C196.915 87.2159 197.159 86.0341 197.648 85.0114C198.142 83.983 198.83 83.1818 199.71 82.608C200.597 82.0284 201.631 81.7386 202.812 81.7386C203.494 81.7386 204.168 81.8523 204.832 82.0795C205.497 82.3068 206.102 82.6761 206.648 83.1875C207.193 83.6932 207.628 84.3636 207.952 85.1989C208.276 86.0341 208.438 87.0625 208.438 88.2841V89.1364H198.347V87.3977H206.392C206.392 86.6591 206.244 86 205.949 85.4205C205.659 84.8409 205.244 84.3835 204.705 84.0483C204.17 83.7131 203.54 83.5455 202.812 83.5455C202.011 83.5455 201.318 83.7443 200.733 84.142C200.153 84.5341 199.707 85.0455 199.395 85.6761C199.082 86.3068 198.926 86.983 198.926 87.7045V88.8636C198.926 89.8523 199.097 90.6903 199.438 91.3778C199.784 92.0597 200.264 92.5795 200.878 92.9375C201.491 93.2898 202.205 93.4659 203.017 93.4659C203.545 93.4659 204.023 93.392 204.449 93.2443C204.881 93.0909 205.253 92.8636 205.565 92.5625C205.878 92.2557 206.119 91.875 206.29 91.4205L208.233 91.9659C208.028 92.625 207.685 93.2045 207.202 93.7045C206.719 94.1989 206.122 94.5852 205.412 94.8636C204.702 95.1364 203.903 95.2727 203.017 95.2727ZM211.497 95V81.9091H213.44V83.8864H213.577C213.815 83.2386 214.247 82.7131 214.872 82.3097C215.497 81.9062 216.202 81.7045 216.986 81.7045C217.134 81.7045 217.318 81.7074 217.54 81.7131C217.761 81.7187 217.929 81.7273 218.043 81.7386V83.7841C217.974 83.767 217.818 83.7415 217.574 83.7074C217.335 83.6676 217.082 83.6477 216.815 83.6477C216.179 83.6477 215.611 83.7812 215.111 84.0483C214.616 84.3097 214.224 84.6733 213.935 85.1392C213.651 85.5994 213.509 86.125 213.509 86.7159V95H211.497ZM222.438 87.125V95H220.427V81.9091H222.37V83.9545H222.54C222.847 83.2898 223.313 82.7557 223.938 82.3523C224.563 81.9432 225.37 81.7386 226.359 81.7386C227.245 81.7386 228.021 81.9205 228.685 82.2841C229.35 82.642 229.867 83.1875 230.237 83.9205C230.606 84.6477 230.79 85.5682 230.79 86.6818V95H228.779V86.8182C228.779 85.7898 228.512 84.9886 227.978 84.4148C227.444 83.8352 226.711 83.5455 225.779 83.5455C225.137 83.5455 224.563 83.6847 224.058 83.9631C223.558 84.2415 223.163 84.6477 222.873 85.1818C222.583 85.7159 222.438 86.3636 222.438 87.125ZM239.955 95.2727C238.693 95.2727 237.605 94.9943 236.69 94.4375C235.781 93.875 235.08 93.0909 234.585 92.0852C234.097 91.0739 233.852 89.8977 233.852 88.5568C233.852 87.2159 234.097 86.0341 234.585 85.0114C235.08 83.983 235.767 83.1818 236.648 82.608C237.534 82.0284 238.568 81.7386 239.75 81.7386C240.432 81.7386 241.105 81.8523 241.77 82.0795C242.435 82.3068 243.04 82.6761 243.585 83.1875C244.131 83.6932 244.565 84.3636 244.889 85.1989C245.213 86.0341 245.375 87.0625 245.375 88.2841V89.1364H235.284V87.3977H243.33C243.33 86.6591 243.182 86 242.886 85.4205C242.597 84.8409 242.182 84.3835 241.642 84.0483C241.108 83.7131 240.477 83.5455 239.75 83.5455C238.949 83.5455 238.256 83.7443 237.67 84.142C237.091 84.5341 236.645 85.0455 236.332 85.6761C236.02 86.3068 235.864 86.983 235.864 87.7045V88.8636C235.864 89.8523 236.034 90.6903 236.375 91.3778C236.722 92.0597 237.202 92.5795 237.815 92.9375C238.429 93.2898 239.142 93.4659 239.955 93.4659C240.483 93.4659 240.96 93.392 241.386 93.2443C241.818 93.0909 242.19 92.8636 242.503 92.5625C242.815 92.2557 243.057 91.875 243.227 91.4205L245.17 91.9659C244.966 92.625 244.622 93.2045 244.139 93.7045C243.656 94.1989 243.06 94.5852 242.349 94.8636C241.639 95.1364 240.841 95.2727 239.955 95.2727ZM254.128 81.9091V83.6136H247.344V81.9091H254.128ZM249.321 78.7727H251.332V91.25C251.332 91.8182 251.415 92.2443 251.58 92.5284C251.75 92.8068 251.966 92.9943 252.227 93.0909C252.494 93.1818 252.776 93.2273 253.071 93.2273C253.293 93.2273 253.474 93.2159 253.616 93.1932C253.759 93.1648 253.872 93.142 253.957 93.125L254.366 94.9318C254.23 94.983 254.04 95.0341 253.795 95.0852C253.551 95.142 253.241 95.1705 252.866 95.1705C252.298 95.1705 251.741 95.0483 251.196 94.804C250.656 94.5597 250.207 94.1875 249.849 93.6875C249.497 93.1875 249.321 92.5568 249.321 91.7955V78.7727ZM262.501 95.2727C261.24 95.2727 260.152 94.9943 259.237 94.4375C258.328 93.875 257.626 93.0909 257.132 92.0852C256.643 91.0739 256.399 89.8977 256.399 88.5568C256.399 87.2159 256.643 86.0341 257.132 85.0114C257.626 83.983 258.314 83.1818 259.195 82.608C260.081 82.0284 261.115 81.7386 262.297 81.7386C262.979 81.7386 263.652 81.8523 264.317 82.0795C264.982 82.3068 265.587 82.6761 266.132 83.1875C266.678 83.6932 267.112 84.3636 267.436 85.1989C267.76 86.0341 267.922 87.0625 267.922 88.2841V89.1364H257.831V87.3977H265.876C265.876 86.6591 265.729 86 265.433 85.4205C265.143 84.8409 264.729 84.3835 264.189 84.0483C263.655 83.7131 263.024 83.5455 262.297 83.5455C261.496 83.5455 260.803 83.7443 260.217 84.142C259.638 84.5341 259.192 85.0455 258.879 85.6761C258.567 86.3068 258.411 86.983 258.411 87.7045V88.8636C258.411 89.8523 258.581 90.6903 258.922 91.3778C259.268 92.0597 259.749 92.5795 260.362 92.9375C260.976 93.2898 261.689 93.4659 262.501 93.4659C263.03 93.4659 263.507 93.392 263.933 93.2443C264.365 93.0909 264.737 92.8636 265.05 92.5625C265.362 92.2557 265.604 91.875 265.774 91.4205L267.717 91.9659C267.513 92.625 267.169 93.2045 266.686 93.7045C266.203 94.1989 265.607 94.5852 264.896 94.8636C264.186 95.1364 263.388 95.2727 262.501 95.2727ZM280.254 84.8409L278.447 85.3523C278.334 85.0511 278.166 84.7585 277.945 84.4744C277.729 84.1847 277.433 83.946 277.058 83.7585C276.683 83.571 276.203 83.4773 275.618 83.4773C274.817 83.4773 274.149 83.6619 273.615 84.0312C273.087 84.3949 272.822 84.858 272.822 85.4205C272.822 85.9205 273.004 86.3153 273.368 86.6051C273.732 86.8949 274.3 87.1364 275.072 87.3295L277.016 87.8068C278.186 88.0909 279.058 88.5256 279.632 89.1108C280.206 89.6903 280.493 90.4375 280.493 91.3523C280.493 92.1023 280.277 92.7727 279.845 93.3636C279.419 93.9545 278.822 94.4205 278.055 94.7614C277.288 95.1023 276.396 95.2727 275.379 95.2727C274.044 95.2727 272.939 94.983 272.064 94.4034C271.189 93.8239 270.635 92.9773 270.402 91.8636L272.311 91.3864C272.493 92.0909 272.837 92.6193 273.342 92.9716C273.854 93.3239 274.521 93.5 275.345 93.5C276.283 93.5 277.027 93.3011 277.578 92.9034C278.135 92.5 278.413 92.017 278.413 91.4545C278.413 91 278.254 90.6193 277.936 90.3125C277.618 90 277.129 89.767 276.47 89.6136L274.288 89.1023C273.089 88.8182 272.209 88.3778 271.646 87.7812C271.089 87.179 270.811 86.4261 270.811 85.5227C270.811 84.7841 271.018 84.1307 271.433 83.5625C271.854 82.9943 272.425 82.5483 273.146 82.2244C273.874 81.9006 274.697 81.7386 275.618 81.7386C276.913 81.7386 277.93 82.0227 278.669 82.5909C279.413 83.1591 279.942 83.9091 280.254 84.8409Z" fill="#252532"/>
</svg>
