<svg width="422" height="157" viewBox="0 0 422 157" fill="none" xmlns="http://www.w3.org/2000/svg">
<path d="M0.5 8C0.5 3.85786 3.85786 0.5 8 0.5H414C418.142 0.5 421.5 3.85786 421.5 8V149C421.5 153.142 418.142 156.5 414 156.5H7.99999C3.85785 156.5 0.5 153.142 0.5 149V8Z" fill="#F9F8F6"/>
<path d="M0.5 8C0.5 3.85786 3.85786 0.5 8 0.5H414C418.142 0.5 421.5 3.85786 421.5 8V149C421.5 153.142 418.142 156.5 414 156.5H7.99999C3.85785 156.5 0.5 153.142 0.5 149V8Z" stroke="#DDDFDA"/>
<path d="M24.5 34.5C24.5 30.3579 27.8579 27 32 27H120C124.142 27 127.5 30.3579 127.5 34.5V122.5C127.5 126.642 124.142 130 120 130H32C27.8579 130 24.5 126.642 24.5 122.5V34.5Z" fill="#F9F8F6"/>
<path d="M24.5 34.5C24.5 30.3579 27.8579 27 32 27H120C124.142 27 127.5 30.3579 127.5 34.5V122.5C127.5 126.642 124.142 130 120 130H32C27.8579 130 24.5 126.642 24.5 122.5V34.5Z" stroke="#DDDFDA"/>
<path d="M83.7021 70.1404L87.7586 66.1035L88.029 64.4037C80.6368 57.7146 68.8861 58.4731 62.2225 65.9863C60.3715 68.073 58.9983 70.6746 58.266 73.3611L59.7189 73.1574L67.8318 71.826L68.4581 71.1885C72.067 67.2444 78.1688 66.7137 82.3356 70.0696L83.7021 70.1404Z" fill="#EA4335"/>
<path d="M93.5373 73.2424C92.6049 69.8254 90.6906 66.7535 88.029 64.4037L82.3356 70.0696C84.7397 72.0245 86.1093 74.9694 86.0506 78.0582V79.0639C88.8489 79.0639 91.1177 81.3216 91.1177 84.1064C91.1177 86.8913 88.8489 89.0924 86.0506 89.0924H75.9022L74.9058 90.1688V96.217L75.9022 97.1659H86.0506C93.3295 97.2224 99.2762 91.4527 99.3329 84.209C99.3672 79.8184 97.1919 75.7023 93.5373 73.2424Z" fill="#4285F4"/>
<path d="M65.768 97.166L75.9022 97.1659V89.0924L65.768 89.0923C65.0459 89.0921 64.3467 88.9377 63.69 88.6391L62.2523 89.0781L58.1673 93.115L57.8115 94.489C60.1024 96.2104 62.8974 97.1784 65.768 97.166Z" fill="#34A853"/>
<path d="M65.768 70.9761C58.4889 71.0193 52.6235 76.9266 52.6669 84.1703C52.6911 88.2153 54.5895 92.0231 57.8115 94.489L63.69 88.6391C61.1396 87.4924 60.0063 84.5055 61.1586 81.9676C62.3106 79.4297 65.3123 78.3019 67.8623 79.4484C68.9862 79.9536 69.8861 80.8494 70.3938 81.9676L76.2724 76.1177C73.7711 72.8638 69.8847 70.9614 65.768 70.9761Z" fill="#FBBC05"/>
<path d="M166.045 83C165.858 82.4261 165.611 81.9119 165.304 81.4574C165.003 80.9972 164.642 80.6051 164.222 80.2812C163.807 79.9574 163.335 79.7102 162.807 79.5398C162.278 79.3693 161.699 79.2841 161.068 79.2841C160.034 79.2841 159.094 79.5511 158.247 80.0852C157.401 80.6193 156.727 81.4062 156.227 82.446C155.727 83.4858 155.477 84.7614 155.477 86.2727C155.477 87.7841 155.73 89.0597 156.236 90.0994C156.741 91.1392 157.426 91.9261 158.29 92.4602C159.153 92.9943 160.125 93.2614 161.205 93.2614C162.205 93.2614 163.085 93.0483 163.847 92.6222C164.614 92.1903 165.21 91.5824 165.636 90.7983C166.068 90.0085 166.284 89.0795 166.284 88.0114L166.932 88.1477H161.682V86.2727H168.33V88.1477C168.33 89.5852 168.023 90.8352 167.409 91.8977C166.801 92.9602 165.96 93.7841 164.886 94.3693C163.818 94.9489 162.591 95.2386 161.205 95.2386C159.659 95.2386 158.301 94.875 157.131 94.1477C155.966 93.4205 155.057 92.3864 154.403 91.0455C153.756 89.7045 153.432 88.1136 153.432 86.2727C153.432 84.892 153.616 83.6506 153.986 82.5483C154.361 81.4403 154.889 80.4972 155.571 79.7188C156.253 78.9403 157.06 78.3438 157.991 77.929C158.923 77.5142 159.949 77.3068 161.068 77.3068C161.989 77.3068 162.847 77.446 163.642 77.7244C164.443 77.9972 165.156 78.3864 165.781 78.892C166.412 79.392 166.938 79.9915 167.358 80.6903C167.778 81.3835 168.068 82.1534 168.227 83H166.045ZM185.995 83H183.881C183.756 82.392 183.538 81.858 183.225 81.3977C182.918 80.9375 182.543 80.5511 182.1 80.2386C181.663 79.9205 181.177 79.6818 180.643 79.5227C180.109 79.3636 179.552 79.2841 178.972 79.2841C177.915 79.2841 176.958 79.5511 176.1 80.0852C175.248 80.6193 174.569 81.4062 174.063 82.446C173.563 83.4858 173.313 84.7614 173.313 86.2727C173.313 87.7841 173.563 89.0597 174.063 90.0994C174.569 91.1392 175.248 91.9261 176.1 92.4602C176.958 92.9943 177.915 93.2614 178.972 93.2614C179.552 93.2614 180.109 93.1818 180.643 93.0227C181.177 92.8636 181.663 92.6278 182.1 92.3153C182.543 91.9972 182.918 91.608 183.225 91.1477C183.538 90.6818 183.756 90.1477 183.881 89.5455H185.995C185.836 90.4375 185.546 91.2358 185.126 91.9403C184.705 92.6449 184.183 93.2443 183.558 93.7386C182.933 94.2273 182.231 94.5994 181.452 94.8551C180.68 95.1108 179.853 95.2386 178.972 95.2386C177.484 95.2386 176.16 94.875 175.001 94.1477C173.842 93.4205 172.93 92.3864 172.265 91.0455C171.6 89.7045 171.268 88.1136 171.268 86.2727C171.268 84.4318 171.6 82.8409 172.265 81.5C172.93 80.1591 173.842 79.125 175.001 78.3977C176.16 77.6705 177.484 77.3068 178.972 77.3068C179.853 77.3068 180.68 77.4347 181.452 77.6903C182.231 77.946 182.933 78.321 183.558 78.8153C184.183 79.304 184.705 79.9006 185.126 80.6051C185.546 81.304 185.836 82.1023 185.995 83ZM189.411 95V77.5455H195.308C196.678 77.5455 197.797 77.7926 198.666 78.2869C199.541 78.7756 200.189 79.4375 200.609 80.2727C201.03 81.108 201.24 82.0398 201.24 83.0682C201.24 84.0966 201.03 85.0312 200.609 85.8722C200.195 86.7131 199.553 87.3835 198.683 87.8835C197.814 88.3778 196.7 88.625 195.342 88.625H191.115V86.75H195.274C196.212 86.75 196.964 86.5881 197.533 86.2642C198.101 85.9403 198.513 85.5028 198.768 84.9517C199.03 84.3949 199.161 83.767 199.161 83.0682C199.161 82.3693 199.03 81.7443 198.768 81.1932C198.513 80.642 198.098 80.2102 197.524 79.8977C196.95 79.5795 196.189 79.4205 195.24 79.4205H191.524V95H189.411Z" fill="#252532"/>
</svg>
