<svg width="422" height="157" viewBox="0 0 422 157" fill="none" xmlns="http://www.w3.org/2000/svg">
<path d="M0.5 8C0.5 3.85786 3.85786 0.5 8 0.5H414C418.142 0.5 421.5 3.85786 421.5 8V149C421.5 153.142 418.142 156.5 414 156.5H7.99999C3.85785 156.5 0.5 153.142 0.5 149V8Z" fill="#F9F8F6"/>
<path d="M0.5 8C0.5 3.85786 3.85786 0.5 8 0.5H414C418.142 0.5 421.5 3.85786 421.5 8V149C421.5 153.142 418.142 156.5 414 156.5H7.99999C3.85785 156.5 0.5 153.142 0.5 149V8Z" stroke="#DDDFDA"/>
<path d="M24.5 34.5C24.5 30.3579 27.8579 27 32 27H120C124.142 27 127.5 30.3579 127.5 34.5V122.5C127.5 126.642 124.142 130 120 130H32C27.8579 130 24.5 126.642 24.5 122.5V34.5Z" fill="#F9F8F6"/>
<path d="M24.5 34.5C24.5 30.3579 27.8579 27 32 27H120C124.142 27 127.5 30.3579 127.5 34.5V122.5C127.5 126.642 124.142 130 120 130H32C27.8579 130 24.5 126.642 24.5 122.5V34.5Z" stroke="#DDDFDA"/>
<path d="M76 101.833L52.6666 90.743L64.3333 87.0371L76 98.1547L87.6666 87.0371L99.3333 90.743L76 101.833Z" fill="#4285F4"/>
<path d="M76 55.167L95.4444 73.6964L76 92.2257L56.5555 73.6964L76 55.167ZM76 58.8729L60.4444 73.6964L76 88.5199L91.5555 73.6964L76 58.8729Z" fill="#4285F4"/>
<path d="M93.7359 79.2529L95.4445 80.8872L75.999 99.6378L56.553 80.8872L58.2615 79.2555L59.8871 80.812L59.7262 80.9659L75.999 96.2429L92.2719 80.9659L92.1078 80.812L93.7359 79.2529Z" fill="#4285F4"/>
<path d="M154.114 95V77.5455H160.216C161.432 77.5455 162.435 77.7557 163.224 78.1761C164.014 78.5909 164.602 79.1506 164.989 79.8551C165.375 80.554 165.568 81.3295 165.568 82.1818C165.568 82.9318 165.435 83.5511 165.168 84.0398C164.906 84.5284 164.56 84.9148 164.128 85.1989C163.702 85.483 163.239 85.6932 162.739 85.8295V86C163.273 86.0341 163.81 86.2216 164.349 86.5625C164.889 86.9034 165.341 87.392 165.705 88.0284C166.068 88.6648 166.25 89.4432 166.25 90.3636C166.25 91.2386 166.051 92.0256 165.653 92.7244C165.256 93.4233 164.628 93.9773 163.77 94.3864C162.912 94.7955 161.795 95 160.42 95H154.114ZM156.227 93.125H160.42C161.801 93.125 162.781 92.858 163.361 92.3239C163.946 91.7841 164.239 91.1307 164.239 90.3636C164.239 89.7727 164.088 89.2273 163.787 88.7273C163.486 88.2216 163.057 87.8182 162.5 87.517C161.943 87.2102 161.284 87.0568 160.523 87.0568H156.227V93.125ZM156.227 85.2159H160.148C160.784 85.2159 161.358 85.0909 161.869 84.8409C162.386 84.5909 162.795 84.2386 163.097 83.7841C163.403 83.3295 163.557 82.7955 163.557 82.1818C163.557 81.4148 163.29 80.7642 162.756 80.2301C162.222 79.6903 161.375 79.4205 160.216 79.4205H156.227V85.2159ZM173.303 95.3068C172.473 95.3068 171.72 95.1506 171.044 94.8381C170.368 94.5199 169.831 94.0625 169.433 93.4659C169.036 92.8636 168.837 92.1364 168.837 91.2841C168.837 90.5341 168.984 89.9261 169.28 89.4602C169.575 88.9886 169.97 88.6193 170.464 88.3523C170.959 88.0852 171.504 87.8864 172.101 87.7557C172.703 87.6193 173.308 87.5114 173.916 87.4318C174.712 87.3295 175.357 87.2528 175.851 87.2017C176.351 87.1449 176.714 87.0511 176.942 86.9205C177.175 86.7898 177.291 86.5625 177.291 86.2386V86.1705C177.291 85.3295 177.061 84.6761 176.601 84.2102C176.146 83.7443 175.456 83.5114 174.53 83.5114C173.57 83.5114 172.817 83.7216 172.271 84.142C171.726 84.5625 171.342 85.0114 171.121 85.4886L169.212 84.8068C169.553 84.0114 170.007 83.392 170.575 82.9489C171.149 82.5 171.774 82.1875 172.45 82.0114C173.132 81.8295 173.803 81.7386 174.462 81.7386C174.882 81.7386 175.365 81.7898 175.911 81.892C176.462 81.9886 176.993 82.1903 177.504 82.4972C178.021 82.804 178.45 83.267 178.791 83.8864C179.132 84.5057 179.303 85.3352 179.303 86.375V95H177.291V93.2273H177.189C177.053 93.5114 176.825 93.8153 176.507 94.1392C176.189 94.4631 175.766 94.7386 175.237 94.9659C174.709 95.1932 174.064 95.3068 173.303 95.3068ZM173.609 93.5C174.405 93.5 175.075 93.3438 175.621 93.0312C176.172 92.7188 176.587 92.3153 176.865 91.821C177.149 91.3267 177.291 90.8068 177.291 90.2614V88.4205C177.206 88.5227 177.018 88.6165 176.729 88.7017C176.445 88.7812 176.115 88.8523 175.74 88.9148C175.371 88.9716 175.01 89.0227 174.658 89.0682C174.311 89.108 174.03 89.142 173.814 89.1705C173.291 89.2386 172.803 89.3494 172.348 89.5028C171.899 89.6506 171.536 89.875 171.257 90.1761C170.984 90.4716 170.848 90.875 170.848 91.3864C170.848 92.0852 171.107 92.6136 171.624 92.9716C172.146 93.3239 172.808 93.5 173.609 93.5ZM182.974 95V81.9091H184.917V83.8864H185.053C185.292 83.2386 185.724 82.7131 186.349 82.3097C186.974 81.9062 187.678 81.7045 188.462 81.7045C188.61 81.7045 188.795 81.7074 189.016 81.7131C189.238 81.7187 189.406 81.7273 189.519 81.7386V83.7841C189.451 83.767 189.295 83.7415 189.05 83.7074C188.812 83.6676 188.559 83.6477 188.292 83.6477C187.656 83.6477 187.087 83.7812 186.587 84.0483C186.093 84.3097 185.701 84.6733 185.411 85.1392C185.127 85.5994 184.985 86.125 184.985 86.7159V95H182.974ZM196.994 95.2727C195.732 95.2727 194.644 94.9943 193.729 94.4375C192.82 93.875 192.119 93.0909 191.624 92.0852C191.136 91.0739 190.891 89.8977 190.891 88.5568C190.891 87.2159 191.136 86.0341 191.624 85.0114C192.119 83.983 192.806 83.1818 193.687 82.608C194.573 82.0284 195.607 81.7386 196.789 81.7386C197.471 81.7386 198.144 81.8523 198.809 82.0795C199.474 82.3068 200.079 82.6761 200.624 83.1875C201.17 83.6932 201.604 84.3636 201.928 85.1989C202.252 86.0341 202.414 87.0625 202.414 88.2841V89.1364H192.323V87.3977H200.369C200.369 86.6591 200.221 86 199.925 85.4205C199.636 84.8409 199.221 84.3835 198.681 84.0483C198.147 83.7131 197.516 83.5455 196.789 83.5455C195.988 83.5455 195.295 83.7443 194.71 84.142C194.13 84.5341 193.684 85.0455 193.371 85.6761C193.059 86.3068 192.903 86.983 192.903 87.7045V88.8636C192.903 89.8523 193.073 90.6903 193.414 91.3778C193.761 92.0597 194.241 92.5795 194.854 92.9375C195.468 93.2898 196.181 93.4659 196.994 93.4659C197.522 93.4659 197.999 93.392 198.425 93.2443C198.857 93.0909 199.229 92.8636 199.542 92.5625C199.854 92.2557 200.096 91.875 200.266 91.4205L202.21 91.9659C202.005 92.625 201.661 93.2045 201.178 93.7045C200.695 94.1989 200.099 94.5852 199.388 94.8636C198.678 95.1364 197.88 95.2727 196.994 95.2727ZM212.224 95V81.9091H214.167V83.9545H214.337C214.61 83.2557 215.05 82.7131 215.658 82.3267C216.266 81.9347 216.996 81.7386 217.849 81.7386C218.712 81.7386 219.431 81.9347 220.005 82.3267C220.585 82.7131 221.036 83.2557 221.36 83.9545H221.496C221.832 83.2784 222.335 82.7415 223.005 82.3438C223.675 81.9403 224.479 81.7386 225.417 81.7386C226.587 81.7386 227.545 82.1051 228.289 82.8381C229.033 83.5653 229.406 84.6989 229.406 86.2386V95H227.394V86.2386C227.394 85.2727 227.13 84.5824 226.602 84.1676C226.073 83.7528 225.451 83.5455 224.735 83.5455C223.815 83.5455 223.102 83.8239 222.596 84.3807C222.09 84.9318 221.837 85.6307 221.837 86.4773V95H219.792V86.0341C219.792 85.2898 219.55 84.6903 219.067 84.2358C218.585 83.7756 217.962 83.5455 217.201 83.5455C216.678 83.5455 216.19 83.6847 215.735 83.9631C215.286 84.2415 214.923 84.6278 214.644 85.1222C214.371 85.6108 214.235 86.1761 214.235 86.8182V95H212.224ZM238.572 95.2727C237.31 95.2727 236.222 94.9943 235.308 94.4375C234.398 93.875 233.697 93.0909 233.202 92.0852C232.714 91.0739 232.469 89.8977 232.469 88.5568C232.469 87.2159 232.714 86.0341 233.202 85.0114C233.697 83.983 234.384 83.1818 235.265 82.608C236.151 82.0284 237.185 81.7386 238.367 81.7386C239.049 81.7386 239.722 81.8523 240.387 82.0795C241.052 82.3068 241.657 82.6761 242.202 83.1875C242.748 83.6932 243.183 84.3636 243.506 85.1989C243.83 86.0341 243.992 87.0625 243.992 88.2841V89.1364H233.901V87.3977H241.947C241.947 86.6591 241.799 86 241.504 85.4205C241.214 84.8409 240.799 84.3835 240.259 84.0483C239.725 83.7131 239.094 83.5455 238.367 83.5455C237.566 83.5455 236.873 83.7443 236.288 84.142C235.708 84.5341 235.262 85.0455 234.95 85.6761C234.637 86.3068 234.481 86.983 234.481 87.7045V88.8636C234.481 89.8523 234.651 90.6903 234.992 91.3778C235.339 92.0597 235.819 92.5795 236.433 92.9375C237.046 93.2898 237.759 93.4659 238.572 93.4659C239.1 93.4659 239.577 93.392 240.004 93.2443C240.435 93.0909 240.808 92.8636 241.12 92.5625C241.433 92.2557 241.674 91.875 241.844 91.4205L243.788 91.9659C243.583 92.625 243.239 93.2045 242.756 93.7045C242.273 94.1989 241.677 94.5852 240.967 94.8636C240.256 95.1364 239.458 95.2727 238.572 95.2727ZM252.745 81.9091V83.6136H245.961V81.9091H252.745ZM247.938 78.7727H249.95V91.25C249.95 91.8182 250.032 92.2443 250.197 92.5284C250.367 92.8068 250.583 92.9943 250.844 93.0909C251.112 93.1818 251.393 93.2273 251.688 93.2273C251.91 93.2273 252.092 93.2159 252.234 93.1932C252.376 93.1648 252.489 93.142 252.575 93.125L252.984 94.9318C252.847 94.983 252.657 95.0341 252.413 95.0852C252.168 95.142 251.859 95.1705 251.484 95.1705C250.915 95.1705 250.359 95.0483 249.813 94.804C249.273 94.5597 248.825 94.1875 248.467 93.6875C248.114 93.1875 247.938 92.5568 247.938 91.7955V78.7727ZM259.623 95.3068C258.793 95.3068 258.04 95.1506 257.364 94.8381C256.688 94.5199 256.151 94.0625 255.754 93.4659C255.356 92.8636 255.157 92.1364 255.157 91.2841C255.157 90.5341 255.305 89.9261 255.6 89.4602C255.896 88.9886 256.29 88.6193 256.785 88.3523C257.279 88.0852 257.825 87.8864 258.421 87.7557C259.023 87.6193 259.629 87.5114 260.237 87.4318C261.032 87.3295 261.677 87.2528 262.171 87.2017C262.671 87.1449 263.035 87.0511 263.262 86.9205C263.495 86.7898 263.612 86.5625 263.612 86.2386V86.1705C263.612 85.3295 263.381 84.6761 262.921 84.2102C262.467 83.7443 261.776 83.5114 260.85 83.5114C259.89 83.5114 259.137 83.7216 258.592 84.142C258.046 84.5625 257.663 85.0114 257.441 85.4886L255.532 84.8068C255.873 84.0114 256.327 83.392 256.896 82.9489C257.469 82.5 258.094 82.1875 258.771 82.0114C259.452 81.8295 260.123 81.7386 260.782 81.7386C261.202 81.7386 261.685 81.7898 262.231 81.892C262.782 81.9886 263.313 82.1903 263.825 82.4972C264.342 82.804 264.771 83.267 265.112 83.8864C265.452 84.5057 265.623 85.3352 265.623 86.375V95H263.612V93.2273H263.509C263.373 93.5114 263.146 93.8153 262.827 94.1392C262.509 94.4631 262.086 94.7386 261.558 94.9659C261.029 95.1932 260.384 95.3068 259.623 95.3068ZM259.93 93.5C260.725 93.5 261.396 93.3438 261.941 93.0312C262.492 92.7188 262.907 92.3153 263.185 91.821C263.469 91.3267 263.612 90.8068 263.612 90.2614V88.4205C263.526 88.5227 263.339 88.6165 263.049 88.7017C262.765 88.7812 262.435 88.8523 262.06 88.9148C261.691 88.9716 261.33 89.0227 260.978 89.0682C260.631 89.108 260.35 89.142 260.134 89.1705C259.612 89.2386 259.123 89.3494 258.668 89.5028C258.219 89.6506 257.856 89.875 257.577 90.1761C257.305 90.4716 257.168 90.875 257.168 91.3864C257.168 92.0852 257.427 92.6136 257.944 92.9716C258.467 93.3239 259.129 93.5 259.93 93.5ZM271.305 77.5455V95H269.294V77.5455H271.305Z" fill="#252532"/>
</svg>
