<svg width="1921" height="752" viewBox="0 0 1921 752" fill="none" xmlns="http://www.w3.org/2000/svg">
<mask id="mask0_509_409" style="mask-type:luminance" maskUnits="userSpaceOnUse" x="0" y="0" width="1921" height="752">
<path d="M1920.5 0.5H0.5V751.5H1920.5V0.5Z" fill="white"/>
</mask>
<g mask="url(#mask0_509_409)">
<path d="M1219.95 101.602C1378.99 9.78476 1582.34 64.2733 1674.16 223.305L1840.41 511.259L1264.5 843.759L1098.25 555.805C1006.43 396.773 1060.92 193.419 1219.95 101.602Z" fill="url(#paint0_linear_509_409)"/>
<path d="M738.156 804.306C829.974 963.338 775.485 1166.69 616.453 1258.51L328.5 1424.76L-4 848.852L283.954 682.602C442.986 590.785 646.339 645.273 738.156 804.306Z" fill="url(#paint1_linear_509_409)"/>
<path d="M75.1572 120.306C166.975 279.338 112.486 482.692 -46.5462 574.509L-334.5 740.759L-667 164.852L-379.046 -1.39792C-220.014 -93.2153 -16.6602 -38.7268 75.1572 120.306Z" fill="url(#paint2_linear_509_409)"/>
</g>
<defs>
<linearGradient id="paint0_linear_509_409" x1="1277.08" y1="82.1837" x2="1491.68" y2="646.344" gradientUnits="userSpaceOnUse">
<stop stop-color="#ECEADF"/>
<stop offset="1" stop-color="#F8F7F3"/>
</linearGradient>
<linearGradient id="paint1_linear_509_409" x1="757.575" y1="861.431" x2="193.415" y2="1076.03" gradientUnits="userSpaceOnUse">
<stop stop-color="#ECEADF"/>
<stop offset="1" stop-color="#F8F7F3"/>
</linearGradient>
<linearGradient id="paint2_linear_509_409" x1="94.5756" y1="177.431" x2="-469.584" y2="392.037" gradientUnits="userSpaceOnUse">
<stop stop-color="#ECEADF"/>
<stop offset="1" stop-color="#F8F7F3"/>
</linearGradient>
</defs>
</svg>
