<svg width="376" height="743" viewBox="0 0 376 743" fill="none" xmlns="http://www.w3.org/2000/svg">
<g clip-path="url(#clip0_236_1393)">
<mask id="mask0_236_1393" style="mask-type:luminance" maskUnits="userSpaceOnUse" x="0" y="0" width="376" height="743">
<path d="M375.5 0.5H0.5V742.5H375.5V0.5Z" fill="white"/>
</mask>
<g mask="url(#mask0_236_1393)">
<path d="M375.824 51.1685C421.109 25.0229 479.016 40.5389 505.161 85.8244L552.502 167.821L388.509 262.503L341.168 180.506C315.022 135.221 330.538 77.3141 375.824 51.1685Z" fill="url(#paint0_linear_236_1393)"/>
<path d="M258.628 371.269C284.774 416.555 269.258 474.461 223.972 500.606L141.976 547.947L47.2939 383.954L129.291 336.613C174.576 310.468 232.482 325.984 258.628 371.269Z" fill="url(#paint1_linear_236_1393)"/>
<path d="M69.835 126.496C95.9806 171.781 80.4646 229.687 35.1791 255.833L-46.8174 303.174L-141.499 139.181L-59.5023 91.8394C-14.2169 65.6938 43.6894 81.2098 69.835 126.496Z" fill="url(#paint2_linear_236_1393)"/>
</g>
</g>
<defs>
<linearGradient id="paint0_linear_236_1393" x1="392.091" y1="45.639" x2="453.201" y2="206.288" gradientUnits="userSpaceOnUse">
<stop stop-color="#ECEADF"/>
<stop offset="1" stop-color="#F8F7F3"/>
</linearGradient>
<linearGradient id="paint1_linear_236_1393" x1="264.157" y1="387.536" x2="103.509" y2="448.646" gradientUnits="userSpaceOnUse">
<stop stop-color="#ECEADF"/>
<stop offset="1" stop-color="#F8F7F3"/>
</linearGradient>
<linearGradient id="paint2_linear_236_1393" x1="75.3645" y1="142.762" x2="-85.2837" y2="203.873" gradientUnits="userSpaceOnUse">
<stop stop-color="#ECEADF"/>
<stop offset="1" stop-color="#F8F7F3"/>
</linearGradient>
<clipPath id="clip0_236_1393">
<rect width="375" height="742" fill="white" transform="translate(0.5 0.5)"/>
</clipPath>
</defs>
</svg>
