<svg width="375" height="511" viewBox="0 0 375 511" fill="none" xmlns="http://www.w3.org/2000/svg">
<path d="M375.324 13.6689C420.609 -12.4767 478.516 3.03927 504.661 48.3248L552.002 130.321L388.009 225.003L340.668 143.006C314.522 97.721 330.038 39.8145 375.324 13.6689Z" fill="url(#paint0_linear_592_491)"/>
<path d="M258.128 333.769C284.274 379.055 268.758 436.961 223.472 463.106L141.476 510.447L46.7939 346.454L128.791 299.113C174.076 272.968 231.982 288.484 258.128 333.769Z" fill="url(#paint1_linear_592_491)"/>
<path d="M69.335 88.9959C95.4806 134.281 79.9646 192.187 34.6791 218.333L-47.3174 265.674L-141.999 101.681L-60.0024 54.3396C-14.7169 28.194 43.1894 43.71 69.335 88.9959Z" fill="url(#paint2_linear_592_491)"/>
<defs>
<linearGradient id="paint0_linear_592_491" x1="378.754" y1="10.2965" x2="474.575" y2="176.452" gradientUnits="userSpaceOnUse">
<stop stop-color="#EFEEEB"/>
<stop offset="1" stop-color="#F9F8F6"/>
</linearGradient>
<linearGradient id="paint1_linear_592_491" x1="261.5" y1="337.199" x2="95.3448" y2="433.02" gradientUnits="userSpaceOnUse">
<stop stop-color="#EFEEEB"/>
<stop offset="1" stop-color="#F9F8F6"/>
</linearGradient>
<linearGradient id="paint2_linear_592_491" x1="72.7074" y1="92.4259" x2="-93.448" y2="188.246" gradientUnits="userSpaceOnUse">
<stop stop-color="#EFEEEB"/>
<stop offset="1" stop-color="#F9F8F6"/>
</linearGradient>
</defs>
</svg>
