<svg width="84" height="99" viewBox="0 0 84 99" fill="none" xmlns="http://www.w3.org/2000/svg">
<path d="M69.7256 53.0635V17.2645H83.4146V53.0635C83.4146 53.1043 83.4145 53.1451 83.4145 53.1859C83.4305 52.5595 83.4385 51.9359 83.4385 51.3156V97.8162H69.7257V92.2549C75.178 87.2594 79.1601 78.5711 81.387 69.0064C76.273 87.6413 61.8086 99 41.7033 99C21.9263 99 7.61233 88.0092 2.28451 69.9133C4.54832 79.1183 8.44928 87.4178 13.7288 92.2549V97.8162H0.0238802V54.8979C0.00798667 54.2913 0 53.6798 0 53.0635V30.1508H13.7128V53.0635C13.7128 64.4245 16.99 73.1637 22.9396 78.725V4.64819H37.074V85.1125C38.6073 85.3335 40.1541 85.4476 41.7033 85.4542C43.2551 85.4478 44.8046 85.3337 46.3405 85.1125V43.3312H60.4988V78.725C66.4485 73.1796 69.7256 64.4006 69.7256 53.0635Z" fill="#FF6849"/>
</svg>
