<svg width="105" height="104" viewBox="0 0 105 104" fill="none" xmlns="http://www.w3.org/2000/svg">
<path d="M1.16602 8C1.16602 3.85786 4.52388 0.5 8.66602 0.5H96.666C100.808 0.5 104.166 3.85786 104.166 8V96C104.166 100.142 100.808 103.5 96.666 103.5H8.66602C4.52388 103.5 1.16602 100.142 1.16602 96V8Z" stroke="#E7E7E7"/>
<path d="M68.0127 46.8848H37.3204C35.437 46.8848 33.9102 48.4116 33.9102 50.295V70.7566C33.9102 72.64 35.437 74.1668 37.3204 74.1668H68.0127C69.8962 74.1668 71.423 72.64 71.423 70.7566V50.295C71.423 48.4116 69.8962 46.8848 68.0127 46.8848Z" fill="#FFE9E4"/>
<path d="M68.0127 46.8848H37.3204C35.437 46.8848 33.9102 48.4116 33.9102 50.295V70.7566C33.9102 72.64 35.437 74.1668 37.3204 74.1668H68.0127C69.8962 74.1668 71.423 72.64 71.423 70.7566V50.295C71.423 48.4116 69.8962 46.8848 68.0127 46.8848Z" stroke="#FF6849" stroke-width="1.5" stroke-linecap="round" stroke-linejoin="round"/>
<path d="M64.6023 46.8843V41.7689C64.6023 38.6033 63.3449 35.5674 61.1063 33.329C58.8679 31.0905 55.832 29.833 52.6664 29.833C49.5008 29.833 46.4648 31.0905 44.2264 33.329C41.988 35.5674 40.7305 38.6033 40.7305 41.7689V46.8843" stroke="#FF6849" stroke-width="1.5" stroke-linecap="round" stroke-linejoin="round"/>
<path d="M52.6661 62.2306C53.6078 62.2306 54.3712 61.4672 54.3712 60.5254C54.3712 59.5837 53.6078 58.8203 52.6661 58.8203C51.7244 58.8203 50.9609 59.5837 50.9609 60.5254C50.9609 61.4672 51.7244 62.2306 52.6661 62.2306Z" stroke="#FF6849" stroke-width="1.5" stroke-linecap="round" stroke-linejoin="round"/>
</svg>
