<svg width="105" height="104" viewBox="0 0 105 104" fill="none" xmlns="http://www.w3.org/2000/svg">
<path d="M0.832031 8C0.832031 3.85786 4.1899 0.5 8.33203 0.5H96.332C100.474 0.5 103.832 3.85786 103.832 8V96C103.832 100.142 100.474 103.5 96.332 103.5H8.33203C4.1899 103.5 0.832031 100.142 0.832031 96V8Z" stroke="#DDDFDA"/>
<path d="M54.1269 68.692L52.332 77.6663L61.3064 75.8715L75.1396 62.0382C75.8406 61.3373 75.8406 60.2008 75.1396 59.4999L70.4984 54.8587C69.7975 54.1578 68.661 54.1578 67.9601 54.8587L54.1269 68.692Z" fill="#FFE9E4"/>
<path d="M54.2166 69.4099L52.332 78.833L61.7551 76.9484L76.2799 62.4235C77.016 61.6875 77.016 60.4942 76.2799 59.7582L71.4066 54.885C70.6707 54.149 69.4774 54.149 68.7414 54.885L54.2166 69.4099Z" stroke="#FF6849" stroke-width="1.5" stroke-linecap="round" stroke-linejoin="round"/>
<path fill-rule="evenodd" clip-rule="evenodd" d="M38.9758 33.6731L40.2367 30.4978C40.4493 29.9602 40.8235 29.4977 41.3101 29.1711C41.7967 28.8444 42.373 28.6687 42.9638 28.667H45.3683C45.959 28.6687 46.5353 28.8444 47.022 29.1711C47.5086 29.4977 47.8827 29.9602 48.0953 30.4978L49.3562 33.6731L53.6374 36.0759L57.0976 35.561C57.6738 35.4847 58.2602 35.5772 58.7823 35.8268C59.3044 36.0764 59.7387 36.4718 60.0299 36.9627L61.2029 38.9652C61.5034 39.4639 61.6419 40.0398 61.6 40.6169C61.5582 41.194 61.3379 41.7451 60.9683 42.1976L58.8277 44.858V49.6637L61.0269 52.3242C61.3965 52.7766 61.6168 53.3276 61.6587 53.9046C61.7006 54.4821 61.5621 55.0578 61.2615 55.5568L60.0886 57.5589C59.7974 58.0501 59.363 58.4453 58.8409 58.695C58.3188 58.9442 57.7324 59.0369 57.1563 58.9609L53.6961 58.4457L49.4149 60.8486L48.154 64.024C47.9413 64.5617 47.5672 65.0239 47.0806 65.3504C46.594 65.6774 46.0176 65.8532 45.4269 65.8545H42.9638C42.373 65.8532 41.7967 65.6774 41.3101 65.3504C40.8235 65.0239 40.4493 64.5617 40.2367 64.024L38.9758 60.8486L34.6946 58.4457L31.2344 58.9609C30.6582 59.0369 30.0719 58.9442 29.5498 58.695C29.0276 58.4453 28.5933 58.0501 28.3021 57.5589L27.1291 55.5568C26.8286 55.0578 26.6901 54.4821 26.732 53.9046C26.7739 53.3276 26.9941 52.7766 27.3637 52.3242L29.5043 49.6637V44.858L27.3051 42.1976C26.9355 41.7451 26.7152 41.194 26.6733 40.6169C26.6315 40.0398 26.7699 39.4639 27.0705 38.9652L28.2434 36.9627C28.5347 36.4718 28.969 36.0764 29.4911 35.8268C30.0132 35.5772 30.5996 35.4847 31.1758 35.561L34.6359 36.0759L38.9758 33.6731ZM38.6973 47.2622C38.6973 48.3174 39.018 49.3488 39.6189 50.2262C40.2198 51.1036 41.0739 51.7873 42.0732 52.191C43.0725 52.5948 44.1721 52.7006 45.2329 52.4945C46.2937 52.2888 47.2682 51.7809 48.033 51.0344C48.7978 50.2885 49.3187 49.3379 49.5297 48.303C49.7407 47.2681 49.6324 46.1955 49.2185 45.2206C48.8046 44.2458 48.1036 43.4126 47.2043 42.8264C46.3049 42.2402 45.2476 41.9272 44.166 41.9272C42.7156 41.9272 41.3246 42.4893 40.299 43.4898C39.2734 44.4903 38.6973 45.8473 38.6973 47.2622Z" fill="#FFE9E4"/>
<path d="M40.2367 30.4978L38.9758 33.6731L34.6359 36.0759L31.1758 35.561C30.5996 35.4847 30.0132 35.5772 29.4911 35.8268C28.969 36.0764 28.5347 36.4718 28.2434 36.9627L27.0705 38.9652C26.7699 39.4639 26.6315 40.0398 26.6733 40.6169C26.7152 41.194 26.9355 41.7451 27.3051 42.1976L29.5043 44.858V49.6637L27.3637 52.3242C26.9941 52.7766 26.7739 53.3276 26.732 53.9046C26.6901 54.4821 26.8286 55.0578 27.1291 55.5568L28.3021 57.5589C28.5933 58.0501 29.0276 58.4453 29.5498 58.695C30.0719 58.9442 30.6582 59.0369 31.2344 58.9609L34.6946 58.4457L38.9758 60.8486L40.2367 64.024C40.4493 64.5617 40.8235 65.0239 41.3101 65.3504C41.7967 65.6774 42.373 65.8532 42.9638 65.8545H45.4269C46.0176 65.8532 46.594 65.6774 47.0806 65.3504C47.5672 65.0239 47.9413 64.5617 48.154 64.024L49.4149 60.8486L53.6961 58.4457L57.1563 58.9609C57.7324 59.0369 58.3188 58.9442 58.8409 58.695C59.363 58.4453 59.7974 58.0501 60.0886 57.5589L61.2615 55.5568C61.5621 55.0578 61.7006 54.4821 61.6587 53.9046C61.6168 53.3276 61.3966 52.7766 61.027 52.3242L58.8277 49.6637V44.858L60.9683 42.1976C61.3379 41.7451 61.5582 41.194 61.6 40.6169C61.6419 40.0398 61.5034 39.4639 61.2029 38.9652L60.0299 36.9627C59.7387 36.4718 59.3044 36.0764 58.7823 35.8268C58.2602 35.5772 57.6738 35.4847 57.0976 35.561L53.6374 36.0759L49.3562 33.6731L48.0953 30.4978C47.8827 29.9602 47.5086 29.4977 47.022 29.1711C46.5353 28.8444 45.959 28.6687 45.3683 28.667H42.9638C42.373 28.6687 41.7967 28.8444 41.3101 29.1711C40.8235 29.4977 40.4493 29.9602 40.2367 30.4978Z" stroke="#FF6849" stroke-width="1.5" stroke-linecap="round" stroke-linejoin="round"/>
<path d="M39.3151 49.4072C38.6741 48.4479 38.332 47.3201 38.332 46.1663C38.332 44.6192 38.9466 43.1355 40.0406 42.0416C41.1346 40.9476 42.6183 40.333 44.1654 40.333C45.3191 40.333 46.4469 40.6751 47.4062 41.3161C48.3655 41.9571 49.1132 42.8681 49.5547 43.934C49.9962 44.9999 50.1117 46.1728 49.8866 47.3044C49.6615 48.4359 49.106 49.4753 48.2901 50.2912C47.4744 51.1069 46.435 51.6627 45.3034 51.8876C44.1719 52.1126 42.9989 51.9973 41.9331 51.5558C40.8672 51.1139 39.9561 50.3663 39.3151 49.4072Z" stroke="#FF6849" stroke-width="1.5" stroke-linecap="round" stroke-linejoin="round"/>
</svg>
