<svg width="104" height="104" viewBox="0 0 104 104" fill="none" xmlns="http://www.w3.org/2000/svg">
<path d="M0.5 8C0.5 3.85786 3.85786 0.5 8 0.5H96C100.142 0.5 103.5 3.85786 103.5 8V96C103.5 100.142 100.142 103.5 96 103.5H8C3.85786 103.5 0.5 100.142 0.5 96V8Z" stroke="#DDDFDA"/>
<path fill-rule="evenodd" clip-rule="evenodd" d="M69.1024 40.5972C69.2252 40.7394 69.386 40.8434 69.566 40.8972C72.1728 41.5113 74.4636 43.0599 76.0052 45.2498C77.5468 47.4397 78.2316 50.1188 77.9304 52.7798C77.6292 55.4409 76.3628 57.8991 74.3708 59.6891C73.3048 60.6471 72.0704 61.3781 70.7428 61.8531C70.812 61.4967 70.86 61.1351 70.886 60.7702C71.0128 58.976 70.5988 57.1854 69.698 55.6297L68.9116 54.2533L68.892 54.22C67.9992 52.6771 66.6676 51.4345 65.0668 50.6502C63.7356 49.9977 62.267 49.6862 60.7928 49.7384C60.1168 48.4521 59.1365 47.344 57.931 46.5144C56.4391 45.4877 54.672 44.9355 52.861 44.9302H51.2L51.1792 44.9302C49.3682 44.9356 47.6011 45.4877 46.1092 46.5144C44.9032 47.3443 43.9225 48.4531 43.2466 49.7402C41.76 49.681 40.2772 49.9916 38.9332 50.6502C37.3324 51.4345 36.0009 52.677 35.108 54.2199L34.3024 55.6296C33.4014 57.1854 32.9872 58.976 33.1142 60.7702C33.1247 60.9179 33.1388 61.065 33.1564 61.2114C32.1606 60.7224 31.2242 60.102 30.3744 59.3592C27.8193 57.1256 26.2561 53.9684 26.0288 50.5822C25.8014 47.1961 26.9285 43.8583 29.1621 41.3032C30.2681 40.038 31.6124 39.003 33.1184 38.2574C34.6243 37.5118 36.2624 37.0701 37.939 36.9575C38.113 36.9613 38.2845 36.9152 38.4332 36.8248C38.5818 36.7342 38.7015 36.6031 38.778 36.4468C39.9347 33.0946 42.2056 30.2402 45.212 28.3596C48.2185 26.479 51.7788 25.686 55.2992 26.1127C58.8196 26.5394 62.0873 28.1601 64.5572 30.7045C67.0276 33.2489 68.5508 36.5632 68.8728 40.0946C68.9 40.2806 68.9792 40.455 69.1024 40.5972Z" fill="#FFE9E4"/>
<path d="M72.7132 60.9174C73.2996 60.5633 73.8548 60.1528 74.3708 59.6891C76.3628 57.8991 77.6292 55.4409 77.9304 52.7798C78.2316 50.1188 77.5468 47.4397 76.0052 45.2498C74.4636 43.0599 72.1728 41.5113 69.566 40.8972C69.386 40.8434 69.2252 40.7394 69.1024 40.5972C68.9792 40.455 68.9 40.2806 68.8728 40.0946C68.5508 36.5632 67.0276 33.2489 64.5572 30.7045C62.0873 28.1601 58.8196 26.5394 55.2992 26.1127C51.7788 25.686 48.2185 26.479 45.212 28.3596C42.2056 30.2402 39.9347 33.0946 38.778 36.4468C38.7015 36.6031 38.5818 36.7342 38.4332 36.8248C38.2845 36.9152 38.113 36.9613 37.939 36.9575C36.2624 37.0701 34.6243 37.5118 33.1184 38.2574C31.6124 39.003 30.2681 40.038 29.1621 41.3032C26.9285 43.8583 25.8014 47.1961 26.0288 50.5822C26.2561 53.9684 27.8193 57.1256 30.3744 59.3592C30.776 59.7101 31.1968 60.0338 31.634 60.3292" stroke="#FF6849" stroke-width="1.5" stroke-linecap="round" stroke-linejoin="round"/>
<path d="M65.6417 73.3594L61.334 73.3594L61.334 77.6671L65.6417 77.6671L65.6417 73.3594Z" fill="#FFE9E4"/>
<path d="M65.6417 73.3594L61.334 73.3594L61.334 77.6671L65.6417 77.6671L65.6417 73.3594Z" stroke="#FF6849" stroke-width="1.5" stroke-linecap="round" stroke-linejoin="round"/>
<path d="M61.334 63.667L61.334 68.7579L63.4879 73.3593" stroke="#FF6849" stroke-width="1.5" stroke-linecap="round" stroke-linejoin="round"/>
<path d="M38.0009 73.3594L42.3086 73.3594L42.3086 77.6671L38.0009 77.6671L38.0009 73.3594Z" fill="#FFE9E4"/>
<path d="M38.0009 73.3594L42.3086 73.3594L42.3086 77.6671L38.0009 77.6671L38.0009 73.3594Z" stroke="#FF6849" stroke-width="1.5" stroke-linecap="round" stroke-linejoin="round"/>
<path d="M42.3086 63.667L42.3086 68.7579L40.1547 73.3593" stroke="#FF6849" stroke-width="1.5" stroke-linecap="round" stroke-linejoin="round"/>
<path d="M54.6917 72.6406L49.666 72.6406L49.666 77.6663L54.6917 77.6663L54.6917 72.6406Z" fill="#FFE9E4"/>
<path d="M54.6917 72.6406L49.666 72.6406L49.666 77.6663L54.6917 77.6663L54.6917 72.6406Z" stroke="#FF6849" stroke-width="1.5" stroke-linecap="round" stroke-linejoin="round"/>
<path d="M52.1797 61.333L52.1797 72.6407" stroke="#FF6849" stroke-width="1.5" stroke-linecap="round" stroke-linejoin="round"/>
<path fill-rule="evenodd" clip-rule="evenodd" d="M40.334 47.5283V64.2056C40.334 65.1969 41.1376 66.0005 42.1289 66.0005H61.8724C62.8637 66.0005 63.6673 65.1969 63.6673 64.2056V47.5283H40.334Z" fill="#F9F8F6"/>
<path fill-rule="evenodd" clip-rule="evenodd" d="M63.6673 47.5639H40.334V44.4619C40.334 43.4706 41.1376 42.667 42.1289 42.667H61.8724C62.8637 42.667 63.6673 43.4706 63.6673 44.4619V47.5639Z" fill="#FFE9E4"/>
<path d="M61.8724 42.667H42.1289C41.1376 42.667 40.334 43.4706 40.334 44.4619V64.2054C40.334 65.1967 41.1376 66.0003 42.1289 66.0003H61.8724C62.8637 66.0003 63.6673 65.1967 63.6673 64.2054V44.4619C63.6673 43.4706 62.8637 42.667 61.8724 42.667Z" stroke="#FF6849" stroke-width="1.5" stroke-linecap="round" stroke-linejoin="round"/>
<path d="M40.334 47.5283H63.6675" stroke="#FF6849" stroke-width="1.5" stroke-linecap="round" stroke-linejoin="round"/>
<path d="M49.0846 54.334L46.168 57.2507L49.0846 60.1673" stroke="#FF6849" stroke-width="1.5" stroke-linecap="round" stroke-linejoin="round"/>
<path d="M54.918 54.334L57.8346 57.2507L54.918 60.1673" stroke="#FF6849" stroke-width="1.5" stroke-linecap="round" stroke-linejoin="round"/>
</svg>
