<svg width="105" height="104" viewBox="0 0 105 104" fill="none" xmlns="http://www.w3.org/2000/svg">
<path d="M1.16602 8C1.16602 3.85786 4.52388 0.5 8.66602 0.5H96.666C100.808 0.5 104.166 3.85786 104.166 8V96C104.166 100.142 100.808 103.5 96.666 103.5H8.66602C4.52388 103.5 1.16602 100.142 1.16602 96V8Z" stroke="#E7E7E7"/>
<path d="M36.7892 45.1801C36.4676 44.0996 36.2949 42.9549 36.2949 41.7699C36.2949 35.1779 41.6388 29.834 48.2308 29.834C54.8228 29.834 60.1667 35.1779 60.1667 41.7699C60.1667 42.9549 59.994 44.0996 59.6724 45.1801" stroke="#FF6849" stroke-width="1.5" stroke-linecap="round" stroke-linejoin="round"/>
<path d="M66.9863 29.834L72.1017 34.9494L66.9863 40.0648" stroke="#FF6849" stroke-width="1.5" stroke-linecap="round" stroke-linejoin="round"/>
<path d="M72.1026 34.9492H58.0273" stroke="#FF6849" stroke-width="1.5" stroke-linecap="round" stroke-linejoin="round"/>
<path d="M43.9675 44.3273V65.6414L39.9164 61.5902C38.3869 60.0608 35.9071 60.0608 34.3776 61.5902C33.0239 62.9439 32.8472 65.078 33.96 66.6362L39.3393 74.167H67.1418L67.8058 66.8643C68.2788 61.6612 64.1285 57.2001 58.9049 57.2966L52.4932 57.4466V44.3273C52.4932 41.973 50.5846 40.0645 48.2303 40.0645C45.876 40.0645 43.9675 41.973 43.9675 44.3273Z" fill="#FFE9E4"/>
<path d="M67.1419 74.167L67.8038 66.8834C68.2775 61.6734 64.1163 57.2092 58.8861 57.316L52.4932 57.4466V44.3273C52.4932 41.973 50.5846 40.0645 48.2303 40.0645C45.876 40.0645 43.9675 41.973 43.9675 44.3273V65.6414L39.9164 61.5902C38.3869 60.0608 35.9071 60.0608 34.3776 61.5902C33.0239 62.9439 32.8472 65.078 33.96 66.6362L39.3393 74.167" stroke="#FF6849" stroke-width="1.5" stroke-linecap="round" stroke-linejoin="round"/>
</svg>
