<svg width="104" height="104" viewBox="0 0 104 104" fill="none" xmlns="http://www.w3.org/2000/svg">
<path d="M0.5 8C0.5 3.85786 3.85786 0.5 8 0.5H96C100.142 0.5 103.5 3.85786 103.5 8V96C103.5 100.142 100.142 103.5 96 103.5H8C3.85786 103.5 0.5 100.142 0.5 96V8Z" stroke="#DDDFDA"/>
<path d="M66.7773 60.3108V52.9219H74.1663V60.3108H66.7773Z" fill="#FFE9E4"/>
<path d="M66.7773 60.3108V52.9219H74.1663V60.3108H66.7773Z" stroke="#FF6849" stroke-width="1.5" stroke-linecap="round" stroke-linejoin="round"/>
<path d="M61.2363 56.6152H66.7781" stroke="#FF6849" stroke-width="1.5" stroke-linecap="round" stroke-linejoin="round"/>
<path d="M37.2246 39.9925V32.6035H29.8356V39.9925H37.2246Z" fill="#FFE9E4"/>
<path d="M37.2246 39.9925V32.6035H29.8356V39.9925H37.2246Z" stroke="#FF6849" stroke-width="1.5" stroke-linecap="round" stroke-linejoin="round"/>
<path d="M42.7656 36.2969H37.2239" stroke="#FF6849" stroke-width="1.5" stroke-linecap="round" stroke-linejoin="round"/>
<path d="M40.918 67.7015V60.3125H33.529V67.7015H40.918Z" fill="#FFE9E4"/>
<path d="M40.918 67.7015V60.3125H33.529V67.7015H40.918Z" stroke="#FF6849" stroke-width="1.5" stroke-linecap="round" stroke-linejoin="round"/>
<path d="M46.459 64.0059H40.9173" stroke="#FF6849" stroke-width="1.5" stroke-linecap="round" stroke-linejoin="round"/>
<path d="M63.084 47.3831V39.9941H70.4729V47.3831H63.084Z" fill="#FFE9E4"/>
<path d="M63.084 47.3831V39.9941H70.4729V47.3831H63.084Z" stroke="#FF6849" stroke-width="1.5" stroke-linecap="round" stroke-linejoin="round"/>
<path d="M57.543 43.6875H63.0847" stroke="#FF6849" stroke-width="1.5" stroke-linecap="round" stroke-linejoin="round"/>
<path d="M57.543 71.3948V64.0059H64.9319V71.3948H57.543Z" fill="#FFE9E4"/>
<path d="M57.543 71.3948V64.0059H64.9319V71.3948H57.543Z" stroke="#FF6849" stroke-width="1.5" stroke-linecap="round" stroke-linejoin="round"/>
<path d="M52.002 54.7698V47.3809H59.3909V54.7698H52.002Z" fill="#FFE9E4"/>
<path d="M52.002 54.7698V47.3809H59.3909V54.7698H52.002Z" stroke="#FF6849" stroke-width="1.5" stroke-linecap="round" stroke-linejoin="round"/>
<path d="M35.375 51.0742H52.0002" stroke="#FF6849" stroke-width="1.5" stroke-linecap="round" stroke-linejoin="round"/>
<path d="M46.459 64.0059L61.2369 56.6169" stroke="#FF6849" stroke-width="1.5" stroke-linecap="round" stroke-linejoin="round"/>
<path d="M57.543 43.6875L42.765 36.2985" stroke="#FF6849" stroke-width="1.5" stroke-linecap="round" stroke-linejoin="round"/>
<path d="M31.6816 54.7698V47.3809H39.0706V54.7698H31.6816Z" fill="#FFE9E4"/>
<path d="M31.6816 54.7698V47.3809H39.0706V54.7698H31.6816Z" stroke="#FF6849" stroke-width="1.5" stroke-linecap="round" stroke-linejoin="round"/>
</svg>
