<svg width="105" height="104" viewBox="0 0 105 104" fill="none" xmlns="http://www.w3.org/2000/svg">
<path d="M0.832031 8C0.832031 3.85786 4.1899 0.5 8.33203 0.5H96.332C100.474 0.5 103.832 3.85786 103.832 8V96C103.832 100.142 100.474 103.5 96.332 103.5H8.33203C4.1899 103.5 0.832031 100.142 0.832031 96V8Z" stroke="#E7E7E7"/>
<path d="M71.089 55.4109V48.5904C71.089 38.2315 62.6916 29.834 52.3326 29.834C41.9737 29.834 33.5762 38.2315 33.5762 48.5904V55.4109C33.5762 65.7699 41.9737 74.1673 52.3326 74.1673C62.6916 74.1673 71.089 65.7699 71.089 55.4109Z" fill="#FFE9E4"/>
<path d="M52.332 74.1671C62.691 74.1671 71.0884 65.7697 71.0884 55.4107V48.5902C71.0884 44.0558 69.4795 39.8972 66.8011 36.6543" stroke="#FF6849" stroke-width="1.5" stroke-linecap="round" stroke-linejoin="round"/>
<path d="M33.5762 50.2949V55.4103C33.5762 62.9763 38.056 69.496 44.5078 72.4616" stroke="#FF6849" stroke-width="1.5" stroke-linecap="round" stroke-linejoin="round"/>
<path d="M60.157 31.5391C57.7754 30.4444 55.1251 29.834 52.3323 29.834C43.9668 29.834 36.8804 35.3105 34.4629 42.8739" stroke="#FF6849" stroke-width="1.5" stroke-linecap="round" stroke-linejoin="round"/>
<path d="M42.6837 45.1797C42.3067 46.2463 42.1016 47.3942 42.1016 48.5899V55.4105C42.1016 61.0607 46.682 65.6412 52.3323 65.6412C54.9526 65.6412 57.3428 64.656 59.1528 63.0361" stroke="#FF6849" stroke-width="1.5" stroke-linecap="round" stroke-linejoin="round"/>
<path d="M50.2422 38.573C50.9168 38.433 51.6159 38.3594 52.3321 38.3594C57.9824 38.3594 62.5628 42.9399 62.5628 48.5901V53.7055" stroke="#FF6849" stroke-width="1.5" stroke-linecap="round" stroke-linejoin="round"/>
<path d="M52.332 48.5898V55.4104" stroke="#FF6849" stroke-width="1.5" stroke-linecap="round" stroke-linejoin="round"/>
</svg>
