<svg width="723" height="563" viewBox="0 0 723 563" fill="none" xmlns="http://www.w3.org/2000/svg">
<path d="M179.822 200.338C184.463 203.018 187.322 207.97 187.322 213.329L187.322 256.008C187.322 261.367 184.463 266.319 179.822 268.999L142.861 290.338C138.22 293.018 132.502 293.018 127.861 290.338L90.8992 268.999C86.2582 266.319 83.3992 261.367 83.3992 256.008L83.3992 213.329C83.3992 207.97 86.2582 203.018 90.8992 200.338L127.861 178.999C132.502 176.319 138.22 176.319 142.861 178.999L179.822 200.338Z" fill="#F8F7F3"/>
<path fill-rule="evenodd" clip-rule="evenodd" d="M152.841 223.597C152.963 223.739 153.124 223.843 153.304 223.897C155.911 224.511 158.202 226.06 159.743 228.25C161.285 230.44 161.97 233.119 161.669 235.78C161.367 238.441 160.101 240.899 158.109 242.689C156.117 244.479 153.538 245.476 150.86 245.493H150.721C150.858 243.541 150.18 241.542 148.688 240.05L140.689 232.051L140.67 232.032L140.658 232.021C139.399 230.777 137.655 230 135.738 230C134.8 230 133.889 230.189 133.057 230.533C132.04 231.028 131.546 231.404 130.71 232.128L122.789 240.05C121.321 241.518 120.641 243.475 120.749 245.396C118.308 245.052 115.997 244.007 114.113 242.359C111.558 240.126 109.994 236.968 109.767 233.582C109.54 230.196 110.667 226.858 112.9 224.303C114.006 223.038 115.351 222.003 116.857 221.257C118.363 220.512 120.001 220.07 121.677 219.957C121.851 219.961 122.023 219.915 122.171 219.825C122.32 219.734 122.44 219.603 122.516 219.447C123.673 216.095 125.944 213.24 128.95 211.36C131.957 209.479 135.517 208.686 139.037 209.113C142.558 209.539 145.826 211.16 148.295 213.704C150.766 216.249 152.289 219.563 152.611 223.095C152.638 223.281 152.717 223.455 152.841 223.597Z" fill="#F9E9E7"/>
<path d="M152.486 245.361C154.568 245.036 156.525 244.113 158.109 242.689C160.101 240.899 161.367 238.441 161.669 235.78C161.97 233.119 161.285 230.44 159.743 228.25C158.202 226.06 155.911 224.511 153.304 223.897C153.124 223.843 152.963 223.739 152.841 223.597C152.717 223.455 152.638 223.281 152.611 223.095C152.289 219.563 150.766 216.249 148.295 213.704C145.826 211.16 142.558 209.539 139.037 209.113C135.517 208.686 131.957 209.479 128.95 211.36C125.944 213.24 123.673 216.095 122.516 219.447C122.44 219.603 122.32 219.734 122.171 219.825C122.023 219.915 121.851 219.961 121.677 219.957C120.001 220.07 118.363 220.512 116.857 221.257C115.351 222.003 114.006 223.038 112.9 224.303C110.667 226.858 109.54 230.196 109.767 233.582C109.994 236.968 111.558 240.126 114.113 242.359C115.549 243.615 117.232 244.52 119.032 245.033" stroke="#F37441" stroke-linecap="round" stroke-linejoin="round"/>
<path d="M135.738 237V261" stroke="#F37441" stroke-linecap="round" stroke-linejoin="round"/>
<path d="M127.738 245L135.738 237L143.738 245" stroke="#F37441" stroke-linecap="round" stroke-linejoin="round"/>
<path d="M168.822 378.338C173.463 381.018 176.322 385.97 176.322 391.329L176.322 434.008C176.322 439.367 173.463 444.319 168.822 446.999L131.861 468.338C127.22 471.018 121.502 471.018 116.861 468.338L79.8992 446.999C75.2582 444.319 72.3992 439.367 72.3992 434.008L72.3992 391.329C72.3992 385.97 75.2582 381.018 79.8992 378.338L116.861 356.999C121.502 354.319 127.22 354.319 131.861 356.999L168.822 378.338Z" fill="#F8F7F3"/>
<path d="M135.988 398H117.238C115.167 398 113.488 399.679 113.488 401.75V433.625C113.488 435.696 115.167 437.375 117.238 437.375H141.613C143.684 437.375 145.363 435.696 145.363 433.625V407.375L135.988 398Z" fill="#FFE9E4"/>
<path d="M134.113 409.25V398H135.988L145.363 407.375V409.25H134.113Z" fill="#F9F8F6"/>
<path d="M135.988 398H117.238C115.167 398 113.488 399.679 113.488 401.75V433.625C113.488 435.696 115.167 437.375 117.238 437.375H141.613C143.684 437.375 145.363 435.696 145.363 433.625V407.375L135.988 398Z" stroke="#FF6849" stroke-linecap="round" stroke-linejoin="round"/>
<path d="M126.613 388.625H107.863C105.792 388.625 104.113 390.304 104.113 392.375V424.25" stroke="#FF6849" stroke-linecap="round" stroke-linejoin="round"/>
<path d="M134.113 398V409.25H145.363" stroke="#FF6849" stroke-linecap="round" stroke-linejoin="round"/>
<path d="M641.822 377.338C646.463 380.018 649.322 384.97 649.322 390.329L649.322 433.008C649.322 438.367 646.463 443.319 641.822 445.999L604.861 467.338C600.22 470.018 594.502 470.018 589.861 467.338L552.899 445.999C548.258 443.319 545.399 438.367 545.399 433.008L545.399 390.329C545.399 384.97 548.258 380.018 552.899 377.338L589.861 355.999C594.502 353.319 600.22 353.319 604.861 355.999L641.822 377.338Z" fill="#F8F7F3"/>
<path d="M617.738 388H577.738C575.529 388 573.738 389.791 573.738 392V403C573.738 405.209 575.529 407 577.738 407H617.738C619.947 407 621.738 405.209 621.738 403V392C621.738 389.791 619.947 388 617.738 388Z" fill="#F9E9E7"/>
<path d="M617.738 407H577.738C575.529 407 573.738 408.791 573.738 411V422C573.738 424.209 575.529 426 577.738 426H617.738C619.947 426 621.738 424.209 621.738 422V411C621.738 408.791 619.947 407 617.738 407Z" fill="#F9E9E7"/>
<path d="M617.738 388H577.738C575.529 388 573.738 389.791 573.738 392V403C573.738 405.209 575.529 407 577.738 407H617.738C619.947 407 621.738 405.209 621.738 403V392C621.738 389.791 619.947 388 617.738 388Z" stroke="#F37441" stroke-linecap="round" stroke-linejoin="round"/>
<path d="M577.738 407C576.677 407 575.66 407.421 574.91 408.172C574.16 408.922 573.738 409.939 573.738 411V422C573.738 423.061 574.16 424.078 574.91 424.828C575.66 425.578 576.677 426 577.738 426H617.738C618.799 426 619.817 425.578 620.567 424.828C621.317 424.078 621.738 423.061 621.738 422V411C621.738 409.939 621.317 408.922 620.567 408.172C619.817 407.421 618.799 407 617.738 407" stroke="#F37441" stroke-linecap="round" stroke-linejoin="round"/>
<path d="M582.738 417.5C582.186 417.5 581.738 417.052 581.738 416.5C581.738 415.948 582.186 415.5 582.738 415.5" stroke="#F37441" stroke-linecap="round" stroke-linejoin="round"/>
<path d="M582.738 417.5C583.291 417.5 583.738 417.052 583.738 416.5C583.738 415.948 583.291 415.5 582.738 415.5" stroke="#F37441" stroke-linecap="round" stroke-linejoin="round"/>
<path d="M582.738 398.5C582.186 398.5 581.738 398.052 581.738 397.5C581.738 396.948 582.186 396.5 582.738 396.5" stroke="#F37441" stroke-linecap="round" stroke-linejoin="round"/>
<path d="M582.738 398.5C583.291 398.5 583.738 398.052 583.738 397.5C583.738 396.948 583.291 396.5 582.738 396.5" stroke="#F37441" stroke-linecap="round" stroke-linejoin="round"/>
<path d="M597.738 426V436" stroke="#F37441" stroke-linecap="round" stroke-linejoin="round"/>
<path d="M577.738 436H617.738" stroke="#F37441" stroke-linecap="round" stroke-linejoin="round"/>
<path d="M599.738 397.5H613.738" stroke="#F37441" stroke-linecap="round" stroke-linejoin="round"/>
<path d="M599.738 416.5H613.738" stroke="#F37441" stroke-linecap="round" stroke-linejoin="round"/>
<path d="M408.822 93.3384C413.463 96.0179 416.322 100.97 416.322 106.329L416.322 149.008C416.322 154.367 413.463 159.319 408.822 161.999L371.861 183.338C367.22 186.018 361.502 186.018 356.861 183.338L319.899 161.999C315.258 159.319 312.399 154.367 312.399 149.008L312.399 106.329C312.399 100.97 315.258 96.0179 319.899 93.3384L356.861 71.9987C361.502 69.3192 367.22 69.3192 371.861 71.9987L408.822 93.3384Z" fill="#F8F7F3"/>
<path d="M342.517 150.235L340.988 124.235C340.852 121.937 342.679 120 344.981 120H353.615C355.451 120 357.051 121.249 357.496 123.03L358.738 128H384.419C386.749 128 388.586 129.984 388.407 132.307L387.022 150.307C386.862 152.391 385.124 154 383.034 154H346.51C344.392 154 342.641 152.349 342.517 150.235Z" fill="#F9E9E7"/>
<path d="M347.738 106V120H356.738L358.738 128H381.738V106C381.738 103.791 379.947 102 377.738 102H351.738C349.529 102 347.738 103.791 347.738 106Z" fill="white"/>
<path d="M347.738 112V106C347.738 103.791 349.529 102 351.738 102H377.738C379.947 102 381.738 103.791 381.738 106V120" stroke="#F37441" stroke-linecap="round" stroke-linejoin="round"/>
<path d="M342.517 150.235L340.988 124.235C340.852 121.937 342.679 120 344.981 120H353.615C355.451 120 357.051 121.249 357.496 123.03L358.738 128H384.419C386.749 128 388.586 129.984 388.407 132.307L387.022 150.307C386.862 152.391 385.124 154 383.034 154H346.51C344.392 154 342.641 152.349 342.517 150.235Z" stroke="#F37441" stroke-linecap="round" stroke-linejoin="round"/>
<path d="M634.822 200.338C639.463 203.018 642.322 207.97 642.322 213.329L642.322 256.008C642.322 261.367 639.463 266.319 634.822 268.999L597.861 290.338C593.22 293.018 587.502 293.018 582.861 290.338L545.899 268.999C541.258 266.319 538.399 261.367 538.399 256.008L538.399 213.329C538.399 207.97 541.258 203.018 545.899 200.338L582.861 178.999C587.502 176.319 593.22 176.319 597.861 178.999L634.822 200.338Z" fill="#F8F7F3"/>
<path fill-rule="evenodd" clip-rule="evenodd" d="M582.738 211H610.738C612.947 211 614.738 212.791 614.738 215V255C614.738 257.209 612.947 259 610.738 259H596.988C597.473 257.76 597.738 256.411 597.738 255V229C597.738 222.925 592.813 218 586.738 218H578.738V215C578.738 212.791 580.529 211 582.738 211Z" fill="white"/>
<path d="M598.738 259H610.738C612.947 259 614.738 257.209 614.738 255V215C614.738 212.791 612.947 211 610.738 211H582.738C580.529 211 578.738 212.791 578.738 215V216.625" stroke="#F37441" stroke-linecap="round" stroke-linejoin="round"/>
<path d="M586.738 225H570.738C568.529 225 566.738 226.791 566.738 229V255C566.738 257.209 568.529 259 570.738 259H586.738C588.947 259 590.738 257.209 590.738 255V229C590.738 226.791 588.947 225 586.738 225Z" fill="#F9E9E7"/>
<path d="M586.738 225H570.738C568.529 225 566.738 226.791 566.738 229V255C566.738 257.209 568.529 259 570.738 259H586.738C588.947 259 590.738 257.209 590.738 255V229C590.738 226.791 588.947 225 586.738 225Z" stroke="#F37441" stroke-linecap="round" stroke-linejoin="round"/>
<path d="M576.738 251H580.738" stroke="#F37441" stroke-linecap="round" stroke-linejoin="round"/>
<path d="M294.297 387.601C288.109 384.028 284.297 377.426 284.297 370.28L284.297 303.374C284.297 296.229 288.109 289.626 294.297 286.054L352.239 252.601C358.427 249.028 366.051 249.028 372.239 252.601L430.181 286.054C436.369 289.626 440.181 296.229 440.181 303.374L440.181 370.28C440.181 377.426 436.369 384.028 430.181 387.601L372.239 421.054C366.051 424.626 358.427 424.626 352.239 421.054L294.297 387.601Z" fill="#F9F8F6"/>
<path d="M281.546 391.93L283.322 392.956L284.072 391.657L291.177 395.759L290.427 397.058L293.98 399.109L294.73 397.81L301.835 401.912L301.085 403.211L304.637 405.262L305.387 403.963L312.492 408.065L311.742 409.364L315.295 411.415L316.045 410.116L323.15 414.218L322.4 415.517L325.952 417.568L326.702 416.269L333.807 420.371L333.057 421.67L336.61 423.721L337.36 422.422L344.465 426.524L343.715 427.823L347.267 429.874L348.017 428.575L355.122 432.677L354.372 433.976L356.148 435.002C356.836 435.399 357.549 435.73 358.281 435.997L358.794 434.587C361.444 435.552 364.353 435.552 367.003 434.587L367.516 435.997C368.247 435.73 368.961 435.399 369.648 435.002L371.425 433.976L370.675 432.677L377.78 428.575L378.53 429.874L382.082 427.823L381.332 426.524L388.437 422.422L389.187 423.721L392.74 421.67L391.99 420.371L399.095 416.269L399.845 417.568L403.397 415.517L402.647 414.218L409.752 410.116L410.502 411.415L414.055 409.364L413.305 408.065L420.41 403.963L421.16 405.262L424.712 403.211L423.962 401.912L431.067 397.81L431.817 399.109L435.37 397.058L434.62 395.759L441.725 391.657L442.475 392.956L444.251 391.93C444.938 391.533 445.582 391.081 446.179 390.581L445.215 389.431C447.375 387.619 448.829 385.1 449.319 382.323L450.796 382.583C450.931 381.816 451.001 381.032 451.001 380.239L451.001 378.188L449.501 378.188L449.501 369.984L451.001 369.984L451.001 365.882L449.501 365.882L449.501 357.677L451.001 357.677L451.001 353.575L449.501 353.575L449.501 345.371L451.001 345.371L451.001 341.269L449.501 341.269L449.501 333.065L451.001 333.065L451.001 328.963L449.501 328.963L449.501 320.759L451.001 320.759L451.001 316.657L449.501 316.657L449.501 308.452L451.001 308.452L451.001 304.35L449.501 304.35L449.501 296.146L451.001 296.146L451.001 294.095C451.001 293.302 450.931 292.518 450.796 291.751L449.319 292.011C448.829 289.234 447.375 286.715 445.215 284.903L446.179 283.753C445.582 283.253 444.938 282.801 444.251 282.404L442.475 281.378L441.725 282.677L434.62 278.575L435.37 277.276L431.817 275.225L431.067 276.524L423.962 272.422L424.712 271.123L421.16 269.072L420.41 270.371L413.305 266.269L414.055 264.97L410.502 262.919L409.752 264.218L402.647 260.116L403.397 258.817L399.845 256.766L399.095 258.065L391.99 253.963L392.74 252.664L389.187 250.613L388.437 251.912L381.332 247.81L382.082 246.511L378.53 244.46L377.78 245.759L370.675 241.657L371.425 240.358L369.648 239.332C368.961 238.935 368.247 238.604 367.516 238.337L367.003 239.747C364.353 238.782 361.444 238.782 358.794 239.747L358.281 238.337C357.55 238.604 356.836 238.935 356.148 239.332L354.372 240.358L355.122 241.657L348.017 245.759L347.267 244.46L343.715 246.511L344.465 247.81L337.36 251.912L336.61 250.613L333.057 252.664L333.807 253.963L326.702 258.065L325.952 256.766L322.4 258.817L323.15 260.116L316.045 264.218L315.295 262.919L311.742 264.97L312.492 266.269L305.387 270.371L304.637 269.072L301.085 271.123L301.835 272.422L294.73 276.524L293.98 275.225L290.427 277.276L291.177 278.575L284.072 282.677L283.322 281.378L281.546 282.404C280.859 282.801 280.215 283.253 279.618 283.753L280.582 284.903C278.422 286.715 276.967 289.234 276.478 292.011L275.001 291.751C274.866 292.518 274.796 293.302 274.796 294.095L274.796 296.146L276.296 296.146L276.296 304.35L274.796 304.35L274.796 308.452L276.296 308.452L276.296 316.657L274.796 316.657L274.796 320.759L276.296 320.759L276.296 328.963L274.796 328.963L274.796 333.065L276.296 333.065L276.296 341.269L274.796 341.269L274.796 345.371L276.296 345.371L276.296 353.575L274.796 353.575L274.796 357.677L276.296 357.677L276.296 365.882L274.796 365.882L274.796 369.984L276.296 369.984L276.296 378.188L274.796 378.188L274.796 380.239C274.796 381.032 274.866 381.816 275.001 382.583L276.478 382.323C276.967 385.099 278.422 387.619 280.582 389.431L279.618 390.581C280.215 391.081 280.859 391.533 281.546 391.93Z" stroke="#FACCBB" stroke-width="3" stroke-dasharray="4 8"/>
<path d="M361.738 329.088C380.673 329.088 396.024 323.184 396.024 315.901V358.099C396.024 365.378 380.674 371.286 361.738 371.286C342.802 371.286 327.452 365.378 327.452 358.099V315.901C327.452 323.184 342.802 329.088 361.738 329.088Z" fill="#FFE9E4"/>
<path d="M361.738 329.087C380.673 329.087 396.024 323.184 396.024 315.901C396.024 308.618 380.673 302.714 361.738 302.714C342.802 302.714 327.452 308.618 327.452 315.901C327.452 323.184 342.802 329.087 361.738 329.087Z" fill="white"/>
<path d="M361.738 329.087C380.673 329.087 396.024 323.184 396.024 315.901C396.024 308.618 380.673 302.714 361.738 302.714C342.802 302.714 327.452 308.618 327.452 315.901C327.452 323.184 342.802 329.087 361.738 329.087Z" stroke="#FF6849" stroke-linecap="round" stroke-linejoin="round"/>
<path d="M327.452 315.901V358.099C327.452 365.378 342.802 371.286 361.738 371.286C380.674 371.286 396.024 365.378 396.024 358.099V315.901" stroke="#FF6849" stroke-linecap="round" stroke-linejoin="round"/>
<path d="M396.024 337C396.024 344.279 380.674 350.187 361.738 350.187C342.802 350.187 327.452 344.279 327.452 337" stroke="#FF6849" stroke-linecap="round" stroke-linejoin="round"/>
<path d="M363.738 175.34L372.399 184L363.738 192.66L355.078 184L363.738 175.34ZM362.238 233.906V231.827H365.238V233.906H362.238ZM362.238 223.509V219.35H365.238V223.509H362.238ZM362.238 211.033V206.874H365.238V211.033H362.238ZM362.238 198.556V194.397H365.238V198.556H362.238ZM362.238 186.079V184H365.238V186.079H362.238ZM363.738 175.34L372.399 184L363.738 192.66L355.078 184L363.738 175.34ZM362.238 233.906V231.827H365.238V233.906H362.238ZM362.238 223.509V219.35H365.238V223.509H362.238ZM362.238 211.033V206.874H365.238V211.033H362.238ZM362.238 198.556V194.397H365.238V198.556H362.238ZM362.238 186.079V184H365.238V186.079H362.238Z" fill="#FACCBB"/>
<path d="M464.016 262.63L462.725 261.867L464.016 262.63ZM550.399 256.841L541.738 265.501L533.078 256.841L541.738 248.18L550.399 256.841ZM488.844 256.841L488.844 258.341L488.834 258.341L488.844 256.841ZM474.428 256.74L474.438 255.24L474.438 255.24L474.428 256.74ZM447.447 287.693L448.296 286.259L450.878 287.786L450.029 289.221L447.447 287.693ZM451.691 280.519L453.389 277.65L455.971 279.177L454.273 282.047L451.691 280.519ZM456.784 271.91L458.481 269.041L461.063 270.568L459.366 273.438L456.784 271.91ZM461.876 263.301L462.725 261.867L465.307 263.394L464.458 264.829L461.876 263.301ZM462.725 261.867C463.128 261.186 463.585 260.549 464.089 259.959L466.368 261.91C465.976 262.369 465.62 262.864 465.307 263.394L462.725 261.867ZM472.101 255.427C472.866 255.299 473.647 255.235 474.438 255.24L474.417 258.24C473.802 258.236 473.194 258.286 472.599 258.386L472.101 255.427ZM474.438 255.24L476.841 255.257L476.82 258.257L474.417 258.24L474.438 255.24ZM486.452 255.324L488.854 255.341L488.834 258.341L486.431 258.324L486.452 255.324ZM488.844 255.341L491.048 255.341L491.048 258.341L488.844 258.341L488.844 255.341ZM499.864 255.341L504.272 255.341L504.272 258.341L499.864 258.341L499.864 255.341ZM513.087 255.341L517.495 255.341L517.495 258.341L513.087 258.341L513.087 255.341ZM526.311 255.341L530.719 255.341L530.719 258.341L526.311 258.341L526.311 255.341ZM539.534 255.341L541.738 255.341L541.738 258.341L539.534 258.341L539.534 255.341ZM464.016 262.63L462.725 261.867L464.016 262.63ZM550.399 256.841L541.738 265.501L533.078 256.841L541.738 248.18L550.399 256.841ZM488.844 256.841L488.844 258.341L488.834 258.341L488.844 256.841ZM474.428 256.74L474.438 255.24L474.438 255.24L474.428 256.74ZM447.447 287.693L448.296 286.259L450.878 287.786L450.029 289.221L447.447 287.693ZM451.691 280.519L453.389 277.65L455.971 279.177L454.273 282.047L451.691 280.519ZM456.784 271.91L458.481 269.041L461.063 270.568L459.366 273.438L456.784 271.91ZM461.876 263.301L462.725 261.867L465.307 263.394L464.458 264.829L461.876 263.301ZM462.725 261.867C463.128 261.186 463.585 260.549 464.089 259.959L466.368 261.91C465.976 262.369 465.62 262.864 465.307 263.394L462.725 261.867ZM472.101 255.427C472.866 255.299 473.647 255.235 474.438 255.24L474.417 258.24C473.802 258.236 473.194 258.286 472.599 258.386L472.101 255.427ZM474.438 255.24L476.841 255.257L476.82 258.257L474.417 258.24L474.438 255.24ZM486.452 255.324L488.854 255.341L488.834 258.341L486.431 258.324L486.452 255.324ZM488.844 255.341L491.048 255.341L491.048 258.341L488.844 258.341L488.844 255.341ZM499.864 255.341L504.272 255.341L504.272 258.341L499.864 258.341L499.864 255.341ZM513.087 255.341L517.495 255.341L517.495 258.341L513.087 258.341L513.087 255.341ZM526.311 255.341L530.719 255.341L530.719 258.341L526.311 258.341L526.311 255.341ZM539.534 255.341L541.738 255.341L541.738 258.341L539.534 258.341L539.534 255.341Z" fill="#FACCBB"/>
<path d="M474.452 430.352L473.145 431.088L474.452 430.352ZM559.291 436.367L550.631 427.707L541.97 436.367L550.631 445.027L559.291 436.367ZM499.236 436.367L499.236 434.867L499.226 434.867L499.236 436.367ZM484.993 436.466L484.983 434.966L484.993 436.466ZM448.324 386.986L449.358 388.823L451.972 387.352L450.938 385.514L448.324 386.986ZM453.495 396.173L455.563 399.849L458.177 398.377L456.109 394.702L453.495 396.173ZM459.7 407.199L461.768 410.874L464.383 409.403L462.314 405.728L459.7 407.199ZM465.905 418.225L467.974 421.9L470.588 420.428L468.52 416.753L465.905 418.225ZM472.11 429.25L473.145 431.088L475.759 429.616L474.725 427.779L472.11 429.25ZM473.145 431.088C473.541 431.791 473.995 432.451 474.499 433.062L476.812 431.152C476.42 430.677 476.067 430.164 475.759 429.616L473.145 431.088ZM482.618 437.771C483.398 437.905 484.196 437.972 485.003 437.966L484.983 434.966C484.354 434.971 483.733 434.919 483.127 434.814L482.618 437.771ZM485.003 437.966L487.377 437.95L487.356 434.95L484.983 434.966L485.003 437.966ZM496.873 437.884L499.247 437.867L499.226 434.867L496.852 434.884L496.873 437.884ZM499.236 437.867L501.378 437.867L501.378 434.867L499.236 434.867L499.236 437.867ZM509.943 437.867L514.226 437.867L514.226 434.867L509.943 434.867L509.943 437.867ZM522.792 437.867L527.075 437.867L527.075 434.867L522.792 434.867L522.792 437.867ZM535.641 437.867L539.923 437.867L539.923 434.867L535.641 434.867L535.641 437.867ZM548.489 437.867L550.631 437.867L550.631 434.867L548.489 434.867L548.489 437.867ZM474.452 430.352L473.145 431.088L474.452 430.352ZM559.291 436.367L550.631 427.707L541.97 436.367L550.631 445.027L559.291 436.367ZM499.236 436.367L499.236 434.867L499.226 434.867L499.236 436.367ZM484.993 436.466L484.983 434.966L484.993 436.466ZM448.324 386.986L449.358 388.823L451.972 387.352L450.938 385.514L448.324 386.986ZM453.495 396.173L455.563 399.849L458.177 398.377L456.109 394.702L453.495 396.173ZM459.7 407.199L461.768 410.874L464.383 409.403L462.314 405.728L459.7 407.199ZM465.905 418.225L467.974 421.9L470.588 420.428L468.52 416.753L465.905 418.225ZM472.11 429.25L473.145 431.088L475.759 429.616L474.725 427.779L472.11 429.25ZM473.145 431.088C473.541 431.791 473.995 432.451 474.499 433.062L476.812 431.152C476.42 430.677 476.067 430.164 475.759 429.616L473.145 431.088ZM482.618 437.771C483.398 437.905 484.196 437.972 485.003 437.966L484.983 434.966C484.354 434.971 483.733 434.919 483.127 434.814L482.618 437.771ZM485.003 437.966L487.377 437.95L487.356 434.95L484.983 434.966L485.003 437.966ZM496.873 437.884L499.247 437.867L499.226 434.867L496.852 434.884L496.873 437.884ZM499.236 437.867L501.378 437.867L501.378 434.867L499.236 434.867L499.236 437.867ZM509.943 437.867L514.226 437.867L514.226 434.867L509.943 434.867L509.943 437.867ZM522.792 437.867L527.075 437.867L527.075 434.867L522.792 434.867L522.792 437.867ZM535.641 437.867L539.923 437.867L539.923 434.867L535.641 434.867L535.641 437.867ZM548.489 437.867L550.631 437.867L550.631 434.867L548.489 434.867L548.489 437.867Z" fill="#FACCBB"/>
<path d="M249.997 429.616L251.271 430.406L249.997 429.616ZM165.078 435.191L173.738 426.531L182.399 435.191L173.738 443.851L165.078 435.191ZM225.133 435.191L225.133 433.691L225.143 433.691L225.133 435.191ZM239.714 435.292L239.704 436.792L239.714 435.292ZM278.013 387.275L276.899 389.072L274.349 387.491L275.463 385.694L278.013 387.275ZM272.442 396.261L270.213 399.855L267.664 398.274L269.892 394.68L272.442 396.261ZM265.757 407.043L263.528 410.638L260.978 409.057L263.207 405.463L265.757 407.043ZM259.071 417.826L256.843 421.421L254.293 419.84L256.521 416.246L259.071 417.826ZM252.386 428.609L251.271 430.406L248.722 428.826L249.836 427.028L252.386 428.609ZM251.271 430.406C250.863 431.065 250.403 431.681 249.899 432.25L247.654 430.26C248.046 429.817 248.404 429.338 248.722 428.826L251.271 430.406ZM241.995 436.613C241.245 436.737 240.478 436.798 239.704 436.792L239.725 433.793C240.328 433.797 240.924 433.749 241.507 433.653L241.995 436.613ZM239.704 436.792L237.274 436.776L237.294 433.776L239.725 433.793L239.704 436.792ZM227.553 436.708L225.122 436.691L225.143 433.691L227.573 433.708L227.553 436.708ZM225.133 436.691L222.991 436.691L222.991 433.691L225.133 433.691L225.133 436.691ZM214.426 436.691L210.143 436.691L210.143 433.691L214.426 433.691L214.426 436.691ZM201.577 436.691L197.294 436.691L197.294 433.691L201.577 433.691L201.577 436.691ZM188.728 436.691L184.445 436.691L184.445 433.691L188.728 433.691L188.728 436.691ZM175.88 436.691L173.738 436.691L173.738 433.691L175.88 433.691L175.88 436.691ZM249.997 429.616L251.271 430.406L249.997 429.616ZM165.078 435.191L173.738 426.531L182.399 435.191L173.738 443.851L165.078 435.191ZM225.133 435.191L225.133 433.691L225.143 433.691L225.133 435.191ZM239.714 435.292L239.704 436.792L239.714 435.292ZM278.013 387.275L276.899 389.072L274.349 387.491L275.463 385.694L278.013 387.275ZM272.442 396.261L270.213 399.855L267.664 398.274L269.892 394.68L272.442 396.261ZM265.757 407.043L263.528 410.638L260.978 409.057L263.207 405.463L265.757 407.043ZM259.071 417.826L256.843 421.421L254.293 419.84L256.521 416.246L259.071 417.826ZM252.386 428.609L251.271 430.406L248.722 428.826L249.836 427.028L252.386 428.609ZM251.271 430.406C250.863 431.065 250.403 431.681 249.899 432.25L247.654 430.26C248.046 429.817 248.404 429.338 248.722 428.826L251.271 430.406ZM241.995 436.613C241.245 436.737 240.478 436.798 239.704 436.792L239.725 433.793C240.328 433.797 240.924 433.749 241.507 433.653L241.995 436.613ZM239.704 436.792L237.274 436.776L237.294 433.776L239.725 433.793L239.704 436.792ZM227.553 436.708L225.122 436.691L225.143 433.691L227.573 433.708L227.553 436.708ZM225.133 436.691L222.991 436.691L222.991 433.691L225.133 433.691L225.133 436.691ZM214.426 436.691L210.143 436.691L210.143 433.691L214.426 433.691L214.426 436.691ZM201.577 436.691L197.294 436.691L197.294 433.691L201.577 433.691L201.577 436.691ZM188.728 436.691L184.445 436.691L184.445 433.691L188.728 433.691L188.728 436.691ZM175.88 436.691L173.738 436.691L173.738 433.691L175.88 433.691L175.88 436.691Z" fill="#FACCBB"/>
<path d="M260.953 263.606L259.659 264.364L260.953 263.606ZM176.078 257.773L184.738 266.434L193.398 257.773L184.738 249.113L176.078 257.773ZM236.132 257.773L236.132 259.273L236.143 259.273L236.132 257.773ZM250.516 257.673L250.526 259.173L250.516 257.673ZM276.532 287.223L275.341 285.191L272.753 286.708L273.944 288.739L276.532 287.223ZM270.58 277.066L268.199 273.004L265.611 274.52L267.991 278.583L270.58 277.066ZM263.437 264.878L262.247 262.847L259.659 264.364L260.849 266.395L263.437 264.878ZM262.247 262.847C261.845 262.162 261.389 261.521 260.884 260.927L258.599 262.871C258.991 263.332 259.346 263.831 259.659 264.364L262.247 262.847ZM252.852 256.362C252.084 256.232 251.299 256.168 250.506 256.173L250.526 259.173C251.144 259.169 251.755 259.219 252.352 259.32L252.852 256.362ZM250.506 256.173L248.108 256.19L248.129 259.19L250.526 259.173L250.506 256.173ZM238.519 256.257L236.122 256.273L236.143 259.273L238.54 259.257L238.519 256.257ZM236.132 256.273L233.991 256.273L233.991 259.273L236.132 259.273L236.132 256.273ZM225.425 256.273L221.142 256.273L221.142 259.273L225.425 259.273L225.425 256.273ZM212.577 256.273L208.294 256.273L208.294 259.273L212.577 259.273L212.577 256.273ZM199.728 256.273L195.445 256.273L195.445 259.273L199.728 259.273L199.728 256.273ZM186.879 256.273L184.738 256.273L184.738 259.273L186.879 259.273L186.879 256.273ZM260.953 263.606L259.659 264.364L260.953 263.606ZM176.078 257.773L184.738 266.434L193.398 257.773L184.738 249.113L176.078 257.773ZM236.132 257.773L236.132 259.273L236.143 259.273L236.132 257.773ZM250.516 257.673L250.526 259.173L250.516 257.673ZM276.532 287.223L275.341 285.191L272.753 286.708L273.944 288.739L276.532 287.223ZM270.58 277.066L268.199 273.004L265.611 274.52L267.991 278.583L270.58 277.066ZM263.437 264.878L262.247 262.847L259.659 264.364L260.849 266.395L263.437 264.878ZM262.247 262.847C261.845 262.162 261.389 261.521 260.884 260.927L258.599 262.871C258.991 263.332 259.346 263.831 259.659 264.364L262.247 262.847ZM252.852 256.362C252.084 256.232 251.299 256.168 250.506 256.173L250.526 259.173C251.144 259.169 251.755 259.219 252.352 259.32L252.852 256.362ZM250.506 256.173L248.108 256.19L248.129 259.19L250.526 259.173L250.506 256.173ZM238.519 256.257L236.122 256.273L236.143 259.273L238.54 259.257L238.519 256.257ZM236.132 256.273L233.991 256.273L233.991 259.273L236.132 259.273L236.132 256.273ZM225.425 256.273L221.142 256.273L221.142 259.273L225.425 259.273L225.425 256.273ZM212.577 256.273L208.294 256.273L208.294 259.273L212.577 259.273L212.577 256.273ZM199.728 256.273L195.445 256.273L195.445 259.273L199.728 259.273L199.728 256.273ZM186.879 256.273L184.738 256.273L184.738 259.273L186.879 259.273L186.879 256.273Z" fill="#FACCBB"/>
<path d="M320.962 471.155C319.103 470.083 317.957 468.104 317.955 465.963L317.927 422.94C317.926 420.799 319.069 418.821 320.927 417.752L358.257 396.265C360.114 395.196 362.404 395.197 364.263 396.269L401.621 417.805C403.481 418.877 404.627 420.856 404.628 422.997L404.656 466.02C404.658 468.161 403.514 470.139 401.656 471.208L364.327 492.695C362.469 493.764 360.179 493.763 358.32 492.691L320.962 471.155Z" fill="#FF6849"/>
<path d="M344.747 443.455V462.815H350.468V460.498C346.816 457.158 344.744 449.856 344.744 443.441" fill="#F9F8F6"/>
<path d="M379.566 443.455V462.815H373.842V460.498C377.494 457.158 379.566 449.856 379.566 443.441" fill="#F9F8F6"/>
<path d="M373.842 429.256V444.171C373.842 448.894 372.474 452.552 369.99 454.862V440.116H364.081V457.523C363.44 457.615 362.793 457.663 362.145 457.666C361.499 457.663 360.853 457.615 360.213 457.523V424H354.313V454.862C351.83 452.545 350.462 448.904 350.462 444.171V434.625H344.738V444.171C344.738 455.795 351.571 463.309 362.145 463.309C372.719 463.309 379.555 455.795 379.555 444.171V429.256H373.842Z" fill="#F9F8F6"/>
</svg>
