<svg width="295" height="113" viewBox="0 0 295 113" fill="none" xmlns="http://www.w3.org/2000/svg">
<path d="M0.5 8C0.5 3.85787 3.85786 0.5 8 0.5H287C291.142 0.5 294.5 3.85786 294.5 8V105C294.5 109.142 291.142 112.5 287 112.5H7.99999C3.85786 112.5 0.5 109.142 0.5 105V8Z" fill="#F9F8F6"/>
<path d="M0.5 8C0.5 3.85787 3.85786 0.5 8 0.5H287C291.142 0.5 294.5 3.85786 294.5 8V105C294.5 109.142 291.142 112.5 287 112.5H7.99999C3.85786 112.5 0.5 109.142 0.5 105V8Z" stroke="#DDDFDA"/>
<path d="M24.5 32C24.5 27.8579 27.8579 24.5 32 24.5H81C85.1421 24.5 88.5 27.8579 88.5 32V81C88.5 85.1421 85.1421 88.5 81 88.5H32C27.8579 88.5 24.5 85.1421 24.5 81V32Z" fill="#F9F8F6"/>
<path d="M24.5 32C24.5 27.8579 27.8579 24.5 32 24.5H81C85.1421 24.5 88.5 27.8579 88.5 32V81C88.5 85.1421 85.1421 88.5 81 88.5H32C27.8579 88.5 24.5 85.1421 24.5 81V32Z" stroke="#DDDFDA"/>
<path d="M61.4514 51.1262L64.0591 48.531L64.2329 47.4383C59.4809 43.1382 51.9268 43.6258 47.643 48.4557C46.4531 49.7972 45.5703 51.4696 45.0996 53.1966L46.0336 53.0657L51.249 52.2098L51.6517 51.8C53.9716 49.2644 57.8943 48.9233 60.5729 51.0807L61.4514 51.1262Z" fill="#EA4335"/>
<path d="M67.774 53.1203C67.1746 50.9237 65.944 48.9489 64.2329 47.4383L60.5729 51.0807C62.1184 52.3374 62.9988 54.2305 62.9611 56.2162V56.8627C64.7601 56.8627 66.2186 58.3141 66.2186 60.1043C66.2186 61.8946 64.7601 63.3096 62.9611 63.3096H56.4372L55.7966 64.0016V67.8897L56.4372 68.4997H62.9611C67.6404 68.536 71.4633 64.8269 71.4997 60.1703C71.5218 57.3478 70.1234 54.7017 67.774 53.1203Z" fill="#4285F4"/>
<path d="M49.9223 68.4998L56.4372 68.4997V63.3096L49.9223 63.3095C49.4581 63.3094 49.0086 63.2102 48.5865 63.0182L47.6622 63.3004L45.0362 65.8956L44.8074 66.7788C46.2801 67.8854 48.077 68.5077 49.9223 68.4998Z" fill="#34A853"/>
<path d="M49.9223 51.6634C45.2429 51.6912 41.4723 55.4888 41.5002 60.1454C41.5157 62.7458 42.7361 65.1936 44.8074 66.7788L48.5865 63.0182C46.9469 62.2811 46.2184 60.3609 46.9591 58.7294C47.6997 57.0979 49.6293 56.3729 51.2687 57.1099C51.9911 57.4347 52.5697 58.0105 52.8961 58.7294L56.6751 54.9688C55.0672 52.877 52.5688 51.654 49.9223 51.6634Z" fill="#FBBC05"/>
<path d="M114.364 54.5C114.239 54.1174 114.074 53.7746 113.869 53.4716C113.669 53.1648 113.428 52.9034 113.148 52.6875C112.871 52.4716 112.557 52.3068 112.205 52.1932C111.852 52.0795 111.466 52.0227 111.045 52.0227C110.356 52.0227 109.729 52.2008 109.165 52.5568C108.6 52.9129 108.152 53.4375 107.818 54.1307C107.485 54.8239 107.318 55.6742 107.318 56.6818C107.318 57.6894 107.487 58.5398 107.824 59.233C108.161 59.9261 108.617 60.4508 109.193 60.8068C109.769 61.1629 110.417 61.3409 111.136 61.3409C111.803 61.3409 112.39 61.1989 112.898 60.9148C113.409 60.6269 113.807 60.2216 114.091 59.6989C114.379 59.1723 114.523 58.553 114.523 57.8409L114.955 57.9318H111.455V56.6818H115.886V57.9318C115.886 58.8902 115.682 59.7235 115.273 60.4318C114.867 61.1402 114.307 61.6894 113.591 62.0795C112.879 62.4659 112.061 62.6591 111.136 62.6591C110.106 62.6591 109.201 62.4167 108.42 61.9318C107.644 61.447 107.038 60.7576 106.602 59.8636C106.17 58.9697 105.955 57.9091 105.955 56.6818C105.955 55.7614 106.078 54.9337 106.324 54.1989C106.574 53.4602 106.926 52.8314 107.381 52.3125C107.835 51.7936 108.373 51.3958 108.994 51.1193C109.616 50.8428 110.299 50.7045 111.045 50.7045C111.659 50.7045 112.231 50.7973 112.761 50.983C113.295 51.1648 113.771 51.4242 114.188 51.7614C114.608 52.0947 114.958 52.4943 115.239 52.9602C115.519 53.4223 115.712 53.9356 115.818 54.5H114.364ZM127.663 54.5H126.254C126.171 54.0947 126.025 53.7386 125.817 53.4318C125.612 53.125 125.362 52.8674 125.067 52.6591C124.775 52.447 124.451 52.2879 124.095 52.1818C123.739 52.0758 123.368 52.0227 122.982 52.0227C122.277 52.0227 121.639 52.2008 121.067 52.5568C120.499 52.9129 120.046 53.4375 119.709 54.1307C119.375 54.8239 119.209 55.6742 119.209 56.6818C119.209 57.6894 119.375 58.5398 119.709 59.233C120.046 59.9261 120.499 60.4508 121.067 60.8068C121.639 61.1629 122.277 61.3409 122.982 61.3409C123.368 61.3409 123.739 61.2879 124.095 61.1818C124.451 61.0758 124.775 60.9186 125.067 60.7102C125.362 60.4981 125.612 60.2386 125.817 59.9318C126.025 59.6212 126.171 59.2652 126.254 58.8636H127.663C127.557 59.4583 127.364 59.9905 127.084 60.4602C126.804 60.9299 126.455 61.3295 126.038 61.6591C125.622 61.9848 125.154 62.233 124.635 62.4034C124.12 62.5739 123.569 62.6591 122.982 62.6591C121.989 62.6591 121.107 62.4167 120.334 61.9318C119.561 61.447 118.953 60.7576 118.51 59.8636C118.067 58.9697 117.845 57.9091 117.845 56.6818C117.845 55.4545 118.067 54.3939 118.51 53.5C118.953 52.6061 119.561 51.9167 120.334 51.4318C121.107 50.947 121.989 50.7045 122.982 50.7045C123.569 50.7045 124.12 50.7898 124.635 50.9602C125.154 51.1307 125.622 51.3807 126.038 51.7102C126.455 52.036 126.804 52.4337 127.084 52.9034C127.364 53.3693 127.557 53.9015 127.663 54.5ZM129.94 62.5V50.8636H133.872C134.785 50.8636 135.531 51.0284 136.111 51.358C136.694 51.6837 137.126 52.125 137.406 52.6818C137.687 53.2386 137.827 53.8598 137.827 54.5455C137.827 55.2311 137.687 55.8542 137.406 56.4148C137.13 56.9754 136.702 57.4223 136.122 57.7557C135.543 58.0852 134.8 58.25 133.895 58.25H131.077V57H133.849C134.474 57 134.976 56.892 135.355 56.6761C135.734 56.4602 136.009 56.1686 136.179 55.8011C136.353 55.4299 136.44 55.0114 136.44 54.5455C136.44 54.0795 136.353 53.6629 136.179 53.2955C136.009 52.928 135.732 52.6402 135.349 52.4318C134.967 52.2197 134.459 52.1136 133.827 52.1136H131.349V62.5H129.94Z" fill="#252532"/>
</svg>
