<svg width="295" height="113" viewBox="0 0 295 113" fill="none" xmlns="http://www.w3.org/2000/svg">
<path d="M0.5 8C0.5 3.85787 3.85786 0.5 8 0.5H287C291.142 0.5 294.5 3.85786 294.5 8V105C294.5 109.142 291.142 112.5 287 112.5H7.99999C3.85786 112.5 0.5 109.142 0.5 105V8Z" fill="#F9F8F6"/>
<path d="M0.5 8C0.5 3.85787 3.85786 0.5 8 0.5H287C291.142 0.5 294.5 3.85786 294.5 8V105C294.5 109.142 291.142 112.5 287 112.5H7.99999C3.85786 112.5 0.5 109.142 0.5 105V8Z" stroke="#DDDFDA"/>
<path d="M24.5 32C24.5 27.8579 27.8579 24.5 32 24.5H81C85.1421 24.5 88.5 27.8579 88.5 32V81C88.5 85.1421 85.1421 88.5 81 88.5H32C27.8579 88.5 24.5 85.1421 24.5 81V32Z" fill="#F9F8F6"/>
<path d="M24.5 32C24.5 27.8579 27.8579 24.5 32 24.5H81C85.1421 24.5 88.5 27.8579 88.5 32V81C88.5 85.1421 85.1421 88.5 81 88.5H32C27.8579 88.5 24.5 85.1421 24.5 81V32Z" stroke="#DDDFDA"/>
<path d="M57.8908 44.5L49.0469 52.1893L41.5 65.7707H48.3046L57.8908 44.5ZM59.0673 46.2991L55.2929 56.9651L62.5299 66.0814L48.4902 68.5H71.5L59.0673 46.2991Z" fill="#0072C6"/>
<path d="M106.886 62.5H105.409L109.682 50.8636H111.136L115.409 62.5H113.932L110.455 52.7045H110.364L106.886 62.5ZM107.432 57.9545H113.386V59.2045H107.432V57.9545ZM116.79 62.5V61.4773L121.744 55.1136V55.0227H116.949V53.7727H123.472V54.8409L118.653 61.1591V61.25H123.631V62.5H116.79ZM131.196 58.9318V53.7727H132.537V62.5H131.196V61.0227H131.105C130.901 61.4659 130.582 61.8428 130.151 62.1534C129.719 62.4602 129.173 62.6136 128.514 62.6136C127.969 62.6136 127.484 62.4943 127.06 62.2557C126.635 62.0133 126.302 61.6496 126.06 61.1648C125.817 60.6761 125.696 60.0606 125.696 59.3182V53.7727H127.037V59.2273C127.037 59.8636 127.215 60.3712 127.571 60.75C127.931 61.1288 128.389 61.3182 128.946 61.3182C129.279 61.3182 129.618 61.233 129.963 61.0625C130.312 60.892 130.603 60.6307 130.838 60.2784C131.077 59.9261 131.196 59.4773 131.196 58.9318ZM134.993 62.5V53.7727H136.288V55.0909H136.379C136.538 54.6591 136.826 54.3087 137.243 54.0398C137.66 53.7708 138.129 53.6364 138.652 53.6364C138.75 53.6364 138.874 53.6383 139.021 53.642C139.169 53.6458 139.281 53.6515 139.357 53.6591V55.0227C139.311 55.0114 139.207 54.9943 139.044 54.9716C138.885 54.9451 138.716 54.9318 138.538 54.9318C138.114 54.9318 137.735 55.0208 137.402 55.1989C137.072 55.3731 136.811 55.6155 136.618 55.9261C136.429 56.233 136.334 56.5833 136.334 56.9773V62.5H134.993ZM144.339 62.6818C143.499 62.6818 142.773 62.4962 142.163 62.125C141.557 61.75 141.089 61.2273 140.76 60.5568C140.434 59.8826 140.271 59.0985 140.271 58.2045C140.271 57.3106 140.434 56.5227 140.76 55.8409C141.089 55.1553 141.548 54.6212 142.135 54.2386C142.726 53.8523 143.415 53.6591 144.203 53.6591C144.658 53.6591 145.107 53.7348 145.55 53.8864C145.993 54.0379 146.396 54.2841 146.76 54.625C147.124 54.9621 147.413 55.4091 147.629 55.9659C147.845 56.5227 147.953 57.2083 147.953 58.0227V58.5909H141.226V57.4318H146.589C146.589 56.9394 146.491 56.5 146.294 56.1136C146.101 55.7273 145.824 55.4223 145.464 55.1989C145.108 54.9754 144.688 54.8636 144.203 54.8636C143.669 54.8636 143.207 54.9962 142.817 55.2614C142.43 55.5227 142.133 55.8636 141.925 56.2841C141.716 56.7045 141.612 57.1553 141.612 57.6364V58.4091C141.612 59.0682 141.726 59.6269 141.953 60.0852C142.184 60.5398 142.504 60.8864 142.913 61.125C143.322 61.3598 143.798 61.4773 144.339 61.4773C144.692 61.4773 145.01 61.428 145.294 61.3295C145.582 61.2273 145.83 61.0758 146.038 60.875C146.247 60.6705 146.408 60.4167 146.521 60.1136L147.817 60.4773C147.68 60.9167 147.451 61.303 147.129 61.6364C146.807 61.9659 146.41 62.2235 145.936 62.4091C145.463 62.5909 144.93 62.6818 144.339 62.6818Z" fill="#252532"/>
</svg>
