<svg width="295" height="113" viewBox="0 0 295 113" fill="none" xmlns="http://www.w3.org/2000/svg">
<path d="M0.5 8C0.5 3.85787 3.85786 0.5 8 0.5H287C291.142 0.5 294.5 3.85786 294.5 8V105C294.5 109.142 291.142 112.5 287 112.5H7.99999C3.85786 112.5 0.5 109.142 0.5 105V8Z" fill="#F9F8F6"/>
<path d="M0.5 8C0.5 3.85787 3.85786 0.5 8 0.5H287C291.142 0.5 294.5 3.85786 294.5 8V105C294.5 109.142 291.142 112.5 287 112.5H7.99999C3.85786 112.5 0.5 109.142 0.5 105V8Z" stroke="#DDDFDA"/>
<path d="M24.5 32C24.5 27.8579 27.8579 24.5 32 24.5H81C85.1421 24.5 88.5 27.8579 88.5 32V81C88.5 85.1421 85.1421 88.5 81 88.5H32C27.8579 88.5 24.5 85.1421 24.5 81V32Z" fill="#F9F8F6"/>
<path d="M24.5 32C24.5 27.8579 27.8579 24.5 32 24.5H81C85.1421 24.5 88.5 27.8579 88.5 32V81C88.5 85.1421 85.1421 88.5 81 88.5H32C27.8579 88.5 24.5 85.1421 24.5 81V32Z" stroke="#DDDFDA"/>
<path fill-rule="evenodd" clip-rule="evenodd" d="M51.0381 54.5637C49.0617 52.9402 46.8823 51.149 45.7264 50.1873C45.3029 49.8343 45.0117 49.5961 44.9146 49.5255C44.3587 49.0579 43.9176 48.2461 44.8617 47.6814C45.2764 47.4343 52.3264 43.3932 54.9293 41.8932C55.847 41.3637 56.9676 41.3637 57.8852 41.8932C59.1293 42.6167 62.8705 44.7696 62.8705 44.7696C63.2676 44.999 63.2676 45.5637 62.8705 45.7843L51.2058 52.4637C50.4293 52.9137 50.3411 53.9902 51.0293 54.5637H51.0381Z" fill="#FACCBB"/>
<path fill-rule="evenodd" clip-rule="evenodd" d="M53.95 59.3035L49.2029 66.5388C48.8588 67.0594 48.1706 67.2271 47.6324 66.9094L44.4824 65.0918C43.5735 64.5624 43 63.5918 43 62.533V50.4624C43 49.5271 43.45 48.6535 44.1912 48.0977C43.3441 48.7506 43.6794 49.4741 44.2441 49.9418C44.3235 50.0035 51.3029 55.7477 53.7206 57.7418C54.1882 58.1212 54.2853 58.7918 53.9588 59.2947L53.95 59.3035Z" fill="#F37441"/>
<path fill-rule="evenodd" clip-rule="evenodd" d="M61.7942 58.4297C63.7707 60.0532 65.9501 61.8444 67.106 62.8062C67.5295 63.1591 67.8207 63.3973 67.9177 63.4679C68.4736 63.9356 68.9148 64.7473 67.9707 65.312C67.556 65.5591 60.506 69.6003 57.903 71.1003C56.9854 71.6297 55.8648 71.6297 54.9472 71.1003C53.703 70.3767 49.9619 68.2238 49.9619 68.2238C49.5648 67.9944 49.5648 67.4297 49.9619 67.2091L61.6266 60.5297C62.403 60.0797 62.4913 59.0032 61.803 58.4297H61.7942Z" fill="#F37441"/>
<path fill-rule="evenodd" clip-rule="evenodd" d="M58.8736 53.6887L63.6206 46.4534C63.9647 45.9328 64.653 45.7651 65.1912 46.0828L68.3412 47.9004C69.25 48.4299 69.8236 49.4004 69.8236 50.4593V62.5299C69.8236 63.4651 69.3736 64.3387 68.6324 64.8946C69.4794 64.2416 69.1442 63.5181 68.5794 63.0504C68.5 62.9887 61.5206 57.2446 59.103 55.2504C58.6353 54.871 58.5383 54.2004 58.8647 53.6975L58.8736 53.6887Z" fill="#F37441"/>
<path d="M112.773 53.7727C112.705 53.197 112.428 52.75 111.943 52.4318C111.458 52.1136 110.864 51.9545 110.159 51.9545C109.644 51.9545 109.193 52.0379 108.807 52.2045C108.424 52.3712 108.125 52.6004 107.909 52.892C107.697 53.1837 107.591 53.5152 107.591 53.8864C107.591 54.197 107.665 54.464 107.812 54.6875C107.964 54.9072 108.157 55.0909 108.392 55.2386C108.627 55.3826 108.873 55.5019 109.131 55.5966C109.388 55.6875 109.625 55.7614 109.841 55.8182L111.023 56.1364C111.326 56.2159 111.663 56.3258 112.034 56.4659C112.409 56.6061 112.767 56.7973 113.108 57.0398C113.453 57.2784 113.737 57.5852 113.96 57.9602C114.184 58.3352 114.295 58.7955 114.295 59.3409C114.295 59.9697 114.131 60.5379 113.801 61.0455C113.475 61.553 112.998 61.9564 112.369 62.2557C111.744 62.5549 110.985 62.7045 110.091 62.7045C109.258 62.7045 108.536 62.5701 107.926 62.3011C107.32 62.0322 106.843 61.6572 106.494 61.1761C106.15 60.6951 105.955 60.1364 105.909 59.5H107.364C107.402 59.9394 107.549 60.303 107.807 60.5909C108.068 60.875 108.398 61.0871 108.795 61.2273C109.197 61.3636 109.629 61.4318 110.091 61.4318C110.629 61.4318 111.112 61.3447 111.54 61.1705C111.968 60.9924 112.307 60.7462 112.557 60.4318C112.807 60.1136 112.932 59.7424 112.932 59.3182C112.932 58.9318 112.824 58.6174 112.608 58.375C112.392 58.1326 112.108 57.9356 111.756 57.7841C111.403 57.6326 111.023 57.5 110.614 57.3864L109.182 56.9773C108.273 56.7159 107.553 56.3428 107.023 55.858C106.492 55.3731 106.227 54.7386 106.227 53.9545C106.227 53.303 106.403 52.7348 106.756 52.25C107.112 51.7614 107.589 51.3826 108.188 51.1136C108.79 50.8409 109.462 50.7045 110.205 50.7045C110.955 50.7045 111.621 50.839 112.205 51.108C112.788 51.3731 113.25 51.7367 113.591 52.1989C113.936 52.661 114.117 53.1856 114.136 53.7727H112.773ZM120.226 53.7727V54.9091H115.703V53.7727H120.226ZM117.021 51.6818H118.362V60C118.362 60.3788 118.417 60.6629 118.527 60.8523C118.641 61.0379 118.785 61.1629 118.959 61.2273C119.137 61.2879 119.324 61.3182 119.521 61.3182C119.669 61.3182 119.79 61.3106 119.885 61.2955C119.98 61.2765 120.055 61.2614 120.112 61.25L120.385 62.4545C120.294 62.4886 120.167 62.5227 120.004 62.5568C119.841 62.5947 119.635 62.6136 119.385 62.6136C119.006 62.6136 118.635 62.5322 118.271 62.3693C117.911 62.2064 117.612 61.9583 117.374 61.625C117.139 61.2917 117.021 60.8712 117.021 60.3636V51.6818ZM124.811 62.7045C124.258 62.7045 123.756 62.6004 123.305 62.392C122.855 62.1799 122.497 61.875 122.232 61.4773C121.966 61.0758 121.834 60.5909 121.834 60.0227C121.834 59.5227 121.932 59.1174 122.129 58.8068C122.326 58.4924 122.589 58.2462 122.919 58.0682C123.249 57.8902 123.612 57.7576 124.01 57.6705C124.411 57.5795 124.815 57.5076 125.22 57.4545C125.75 57.3864 126.18 57.3352 126.51 57.3011C126.843 57.2633 127.086 57.2008 127.237 57.1136C127.393 57.0265 127.47 56.875 127.47 56.6591V56.6136C127.47 56.053 127.317 55.6174 127.01 55.3068C126.707 54.9962 126.247 54.8409 125.629 54.8409C124.989 54.8409 124.487 54.9811 124.124 55.2614C123.76 55.5417 123.504 55.8409 123.357 56.1591L122.084 55.7045C122.311 55.1742 122.614 54.7614 122.993 54.4659C123.375 54.1667 123.792 53.9583 124.243 53.8409C124.697 53.7197 125.144 53.6591 125.584 53.6591C125.864 53.6591 126.186 53.6932 126.55 53.7614C126.917 53.8258 127.271 53.9602 127.612 54.1648C127.957 54.3693 128.243 54.678 128.47 55.0909C128.697 55.5038 128.811 56.0568 128.811 56.75V62.5H127.47V61.3182H127.402C127.311 61.5076 127.16 61.7102 126.947 61.9261C126.735 62.142 126.453 62.3258 126.101 62.4773C125.749 62.6288 125.319 62.7045 124.811 62.7045ZM125.016 61.5C125.546 61.5 125.993 61.3958 126.357 61.1875C126.724 60.9792 127 60.7102 127.186 60.3807C127.375 60.0511 127.47 59.7045 127.47 59.3409V58.1136C127.413 58.1818 127.288 58.2443 127.095 58.3011C126.906 58.3542 126.686 58.4015 126.436 58.4432C126.19 58.4811 125.949 58.5152 125.714 58.5455C125.483 58.572 125.296 58.5947 125.152 58.6136C124.804 58.6591 124.478 58.733 124.175 58.8352C123.875 58.9337 123.633 59.0833 123.447 59.2841C123.266 59.4811 123.175 59.75 123.175 60.0909C123.175 60.5568 123.347 60.9091 123.692 61.1477C124.04 61.3826 124.482 61.5 125.016 61.5ZM131.259 62.5V53.7727H132.554V55.0909H132.645C132.804 54.6591 133.092 54.3087 133.509 54.0398C133.925 53.7708 134.395 53.6364 134.918 53.6364C135.016 53.6364 135.139 53.6383 135.287 53.642C135.435 53.6458 135.546 53.6515 135.622 53.6591V55.0227C135.577 55.0114 135.473 54.9943 135.31 54.9716C135.151 54.9451 134.982 54.9318 134.804 54.9318C134.38 54.9318 134.001 55.0208 133.668 55.1989C133.338 55.3731 133.077 55.6155 132.884 55.9261C132.694 56.233 132.599 56.5833 132.599 56.9773V62.5H131.259ZM137.393 62.5V50.8636H141.325C142.234 50.8636 142.981 51.0189 143.564 51.3295C144.147 51.6364 144.579 52.0587 144.859 52.5966C145.14 53.1345 145.28 53.7462 145.28 54.4318C145.28 55.1174 145.14 55.7254 144.859 56.2557C144.579 56.786 144.149 57.2027 143.57 57.5057C142.99 57.8049 142.25 57.9545 141.348 57.9545H138.166V56.6818H141.303C141.924 56.6818 142.424 56.5909 142.803 56.4091C143.185 56.2273 143.462 55.9697 143.632 55.6364C143.806 55.2992 143.893 54.8977 143.893 54.4318C143.893 53.9659 143.806 53.5587 143.632 53.2102C143.458 52.8617 143.179 52.5928 142.797 52.4034C142.414 52.2102 141.909 52.1136 141.28 52.1136H138.803V62.5H137.393ZM142.871 57.2727L145.734 62.5H144.098L141.28 57.2727H142.871ZM150.898 62.6818C150.11 62.6818 149.419 62.4943 148.824 62.1193C148.233 61.7443 147.771 61.2197 147.438 60.5455C147.108 59.8712 146.943 59.0833 146.943 58.1818C146.943 57.2727 147.108 56.4792 147.438 55.8011C147.771 55.1231 148.233 54.5966 148.824 54.2216C149.419 53.8466 150.11 53.6591 150.898 53.6591C151.686 53.6591 152.375 53.8466 152.966 54.2216C153.561 54.5966 154.023 55.1231 154.352 55.8011C154.686 56.4792 154.852 57.2727 154.852 58.1818C154.852 59.0833 154.686 59.8712 154.352 60.5455C154.023 61.2197 153.561 61.7443 152.966 62.1193C152.375 62.4943 151.686 62.6818 150.898 62.6818ZM150.898 61.4773C151.496 61.4773 151.989 61.3239 152.375 61.017C152.761 60.7102 153.047 60.3068 153.233 59.8068C153.419 59.3068 153.511 58.7652 153.511 58.1818C153.511 57.5985 153.419 57.0549 153.233 56.5511C153.047 56.0473 152.761 55.6402 152.375 55.3295C151.989 55.0189 151.496 54.8636 150.898 54.8636C150.299 54.8636 149.807 55.0189 149.42 55.3295C149.034 55.6402 148.748 56.0473 148.562 56.5511C148.377 57.0549 148.284 57.5985 148.284 58.1818C148.284 58.7652 148.377 59.3068 148.562 59.8068C148.748 60.3068 149.034 60.7102 149.42 61.017C149.807 61.3239 150.299 61.4773 150.898 61.4773ZM160.445 62.6818C159.626 62.6818 158.922 62.4886 158.331 62.1023C157.74 61.7159 157.286 61.1837 156.967 60.5057C156.649 59.8277 156.49 59.053 156.49 58.1818C156.49 57.2955 156.653 56.5133 156.979 55.8352C157.308 55.1534 157.767 54.6212 158.354 54.2386C158.945 53.8523 159.634 53.6591 160.422 53.6591C161.036 53.6591 161.589 53.7727 162.081 54C162.573 54.2273 162.977 54.5455 163.291 54.9545C163.606 55.3636 163.801 55.8409 163.876 56.3864H162.536C162.433 55.9886 162.206 55.6364 161.854 55.3295C161.505 55.0189 161.036 54.8636 160.445 54.8636C159.922 54.8636 159.464 55 159.07 55.2727C158.679 55.5417 158.375 55.9223 158.155 56.4148C157.939 56.9034 157.831 57.4773 157.831 58.1364C157.831 58.8106 157.937 59.3977 158.149 59.8977C158.365 60.3977 158.668 60.786 159.058 61.0625C159.452 61.339 159.914 61.4773 160.445 61.4773C160.793 61.4773 161.109 61.4167 161.393 61.2955C161.678 61.1742 161.918 61 162.115 60.7727C162.312 60.5455 162.452 60.2727 162.536 59.9545H163.876C163.801 60.4697 163.613 60.9337 163.314 61.3466C163.018 61.7557 162.626 62.0814 162.138 62.3239C161.653 62.5625 161.089 62.6818 160.445 62.6818ZM167.087 59.3182L167.064 57.6591H167.337L171.155 53.7727H172.814L168.746 57.8864H168.632L167.087 59.3182ZM165.837 62.5V50.8636H167.178V62.5H165.837ZM171.382 62.5L167.973 58.1818L168.928 57.25L173.087 62.5H171.382ZM180.722 55.7273L179.517 56.0682C179.441 55.8674 179.33 55.6723 179.182 55.483C179.038 55.2898 178.841 55.1307 178.591 55.0057C178.341 54.8807 178.021 54.8182 177.631 54.8182C177.097 54.8182 176.652 54.9413 176.295 55.1875C175.943 55.4299 175.767 55.7386 175.767 56.1136C175.767 56.447 175.888 56.7102 176.131 56.9034C176.373 57.0966 176.752 57.2576 177.267 57.3864L178.562 57.7045C179.343 57.8939 179.924 58.1837 180.307 58.5739C180.689 58.9602 180.881 59.4583 180.881 60.0682C180.881 60.5682 180.737 61.0152 180.449 61.4091C180.165 61.803 179.767 62.1136 179.256 62.3409C178.744 62.5682 178.15 62.6818 177.472 62.6818C176.581 62.6818 175.845 62.4886 175.261 62.1023C174.678 61.7159 174.309 61.1515 174.153 60.4091L175.426 60.0909C175.547 60.5606 175.777 60.9129 176.114 61.1477C176.455 61.3826 176.9 61.5 177.449 61.5C178.074 61.5 178.57 61.3674 178.938 61.1023C179.309 60.8333 179.494 60.5114 179.494 60.1364C179.494 59.8333 179.388 59.5795 179.176 59.375C178.964 59.1667 178.638 59.0114 178.199 58.9091L176.744 58.5682C175.945 58.3788 175.358 58.0852 174.983 57.6875C174.612 57.286 174.426 56.7841 174.426 56.1818C174.426 55.6894 174.564 55.2538 174.841 54.875C175.121 54.4962 175.502 54.1989 175.983 53.983C176.468 53.767 177.017 53.6591 177.631 53.6591C178.494 53.6591 179.172 53.8485 179.665 54.2273C180.161 54.6061 180.513 55.1061 180.722 55.7273ZM188.297 55.0455L186.445 50.8636H187.195L188.49 53.9318L189.786 50.8636H190.536L188.683 55.0455H188.297ZM186.308 55.0455V50.8636H187.036V55.0455H186.308ZM189.945 55.0455V50.8636H190.672V55.0455H189.945ZM183.581 55.0455V51.2273H184.308V55.0455H183.581ZM182.308 51.5V50.8636H185.581V51.5H182.308ZM197.315 62.5V50.8636H204.338V52.1136H198.724V56.0455H203.974V57.2955H198.724V61.25H204.429V62.5H197.315ZM208.037 57.25V62.5H206.696V53.7727H207.991V55.1364H208.105C208.31 54.6932 208.62 54.3371 209.037 54.0682C209.454 53.7955 209.991 53.6591 210.651 53.6591C211.241 53.6591 211.759 53.7803 212.202 54.0227C212.645 54.2614 212.99 54.625 213.236 55.1136C213.482 55.5985 213.605 56.2121 213.605 56.9545V62.5H212.264V57.0455C212.264 56.3598 212.086 55.8258 211.73 55.4432C211.374 55.0568 210.885 54.8636 210.264 54.8636C209.836 54.8636 209.454 54.9564 209.116 55.142C208.783 55.3277 208.52 55.5985 208.327 55.9545C208.134 56.3106 208.037 56.7424 208.037 57.25ZM219.578 65.9545C218.93 65.9545 218.374 65.8712 217.908 65.7045C217.442 65.5417 217.054 65.3258 216.743 65.0568C216.436 64.7917 216.192 64.5076 216.01 64.2045L217.078 63.4545C217.199 63.6136 217.353 63.7955 217.538 64C217.724 64.2083 217.978 64.3883 218.3 64.5398C218.625 64.6951 219.052 64.7727 219.578 64.7727C220.283 64.7727 220.864 64.6023 221.322 64.2614C221.781 63.9205 222.01 63.3864 222.01 62.6591V60.8864H221.896C221.798 61.0455 221.658 61.2424 221.476 61.4773C221.298 61.7083 221.04 61.9148 220.703 62.0966C220.37 62.2746 219.919 62.3636 219.351 62.3636C218.646 62.3636 218.014 62.197 217.453 61.8636C216.896 61.5303 216.455 61.0455 216.129 60.4091C215.807 59.7727 215.646 59 215.646 58.0909C215.646 57.197 215.804 56.4186 216.118 55.7557C216.432 55.089 216.87 54.5739 217.43 54.2102C217.991 53.8428 218.639 53.6591 219.374 53.6591C219.942 53.6591 220.393 53.7538 220.726 53.9432C221.063 54.1288 221.321 54.3409 221.499 54.5795C221.68 54.8144 221.821 55.0076 221.919 55.1591H222.055V53.7727H223.351V62.75C223.351 63.5 223.18 64.1098 222.839 64.5795C222.502 65.053 222.048 65.3996 221.476 65.6193C220.908 65.8428 220.275 65.9545 219.578 65.9545ZM219.533 61.1591C220.071 61.1591 220.525 61.036 220.896 60.7898C221.268 60.5436 221.55 60.1894 221.743 59.7273C221.936 59.2652 222.033 58.7121 222.033 58.0682C222.033 57.4394 221.938 56.8845 221.749 56.4034C221.559 55.9223 221.279 55.5455 220.908 55.2727C220.536 55 220.078 54.8636 219.533 54.8636C218.964 54.8636 218.491 55.0076 218.112 55.2955C217.737 55.5833 217.455 55.9697 217.266 56.4545C217.08 56.9394 216.987 57.4773 216.987 58.0682C216.987 58.6742 217.082 59.2102 217.271 59.6761C217.464 60.1383 217.749 60.5019 218.124 60.767C218.502 61.0284 218.972 61.1591 219.533 61.1591ZM225.805 62.5V53.7727H227.146V62.5H225.805ZM226.487 52.3182C226.226 52.3182 226 52.2292 225.811 52.0511C225.625 51.8731 225.533 51.6591 225.533 51.4091C225.533 51.1591 225.625 50.9451 225.811 50.767C226 50.589 226.226 50.5 226.487 50.5C226.749 50.5 226.972 50.589 227.158 50.767C227.347 50.9451 227.442 51.1591 227.442 51.4091C227.442 51.6591 227.347 51.8731 227.158 52.0511C226.972 52.2292 226.749 52.3182 226.487 52.3182ZM230.943 57.25V62.5H229.602V53.7727H230.898V55.1364H231.011C231.216 54.6932 231.527 54.3371 231.943 54.0682C232.36 53.7955 232.898 53.6591 233.557 53.6591C234.148 53.6591 234.665 53.7803 235.108 54.0227C235.551 54.2614 235.896 54.625 236.142 55.1136C236.388 55.5985 236.511 56.2121 236.511 56.9545V62.5H235.17V57.0455C235.17 56.3598 234.992 55.8258 234.636 55.4432C234.28 55.0568 233.792 54.8636 233.17 54.8636C232.742 54.8636 232.36 54.9564 232.023 55.142C231.689 55.3277 231.426 55.5985 231.233 55.9545C231.04 56.3106 230.943 56.7424 230.943 57.25ZM242.621 62.6818C241.78 62.6818 241.054 62.4962 240.445 62.125C239.839 61.75 239.371 61.2273 239.041 60.5568C238.715 59.8826 238.553 59.0985 238.553 58.2045C238.553 57.3106 238.715 56.5227 239.041 55.8409C239.371 55.1553 239.829 54.6212 240.416 54.2386C241.007 53.8523 241.696 53.6591 242.484 53.6591C242.939 53.6591 243.388 53.7348 243.831 53.8864C244.274 54.0379 244.678 54.2841 245.041 54.625C245.405 54.9621 245.695 55.4091 245.911 55.9659C246.126 56.5227 246.234 57.2083 246.234 58.0227V58.5909H239.507V57.4318H244.871C244.871 56.9394 244.772 56.5 244.575 56.1136C244.382 55.7273 244.106 55.4223 243.746 55.1989C243.39 54.9754 242.969 54.8636 242.484 54.8636C241.95 54.8636 241.488 54.9962 241.098 55.2614C240.712 55.5227 240.414 55.8636 240.206 56.2841C239.998 56.7045 239.893 57.1553 239.893 57.6364V58.4091C239.893 59.0682 240.007 59.6269 240.234 60.0852C240.465 60.5398 240.786 60.8864 241.195 61.125C241.604 61.3598 242.079 61.4773 242.621 61.4773C242.973 61.4773 243.291 61.428 243.575 61.3295C243.863 61.2273 244.111 61.0758 244.32 60.875C244.528 60.6705 244.689 60.4167 244.803 60.1136L246.098 60.4773C245.962 60.9167 245.732 61.303 245.411 61.6364C245.089 61.9659 244.691 62.2235 244.217 62.4091C243.744 62.5909 243.212 62.6818 242.621 62.6818Z" fill="#252532"/>
</svg>
