<svg width="64" height="64" viewBox="0 0 64 64" fill="none" xmlns="http://www.w3.org/2000/svg">
<path d="M0.5 12C0.5 5.64873 5.64873 0.5 12 0.5H52C58.3513 0.5 63.5 5.64873 63.5 12V52C63.5 58.3513 58.3513 63.5 52 63.5H12C5.64873 63.5 0.5 58.3513 0.5 52V12Z" stroke="#DDDFDA"/>
<path fill-rule="evenodd" clip-rule="evenodd" d="M32.4928 28.773C33.7882 29.0022 34.8754 30.0206 35.1768 31.4208L35.227 31.654C36.3575 36.9053 43.8287 36.9527 45.0075 31.6964L45.0685 31.4245C45.1204 31.1939 45.1932 30.9738 45.2845 30.7658V45.1972C45.2845 46.5287 44.2053 47.608 42.8738 47.608H18.7667C17.4353 47.608 16.356 46.5287 16.356 45.1972V28.3223H31.0814C31.5026 28.5269 31.973 28.6811 32.4928 28.773Z" fill="#F9F8F6"/>
<path fill-rule="evenodd" clip-rule="evenodd" d="M31.0814 28.322C28.3069 26.974 27.6729 23.4378 29.1796 21.0898H18.7667C17.4353 21.0898 16.356 22.1691 16.356 23.5006V28.322H31.0814Z" fill="#FFE9E4"/>
<path d="M28.3841 21.1523H18.7413C18.1019 21.1523 17.4887 21.4063 17.0366 21.8584C16.5846 22.3105 16.3306 22.9237 16.3306 23.5631V45.2595C16.3306 45.8988 16.5846 46.5121 17.0366 46.9641C17.4887 47.4161 18.1019 47.6702 18.7413 47.6702H42.8484C44.1799 47.6702 45.2591 46.5909 45.2591 45.2595V32.0006" stroke="#FF6849" stroke-width="1.5" stroke-linecap="round" stroke-linejoin="round"/>
<path d="M16.3306 28.3828H30.1922" stroke="#FF6849" stroke-width="1.5" stroke-linecap="round" stroke-linejoin="round"/>
<path d="M23.5962 41.5486L27.2123 37.9325L23.5962 34.3164" stroke="#FF6849" stroke-width="1.5" stroke-linecap="round" stroke-linejoin="round"/>
<path d="M30.8286 41.5469H34.4447" stroke="#FF6849" stroke-width="1.5" stroke-linecap="round" stroke-linejoin="round"/>
<path d="M33.2278 24.6189C32.3948 24.4716 32.3948 23.2556 33.2278 23.1082C36.2457 22.5743 38.6461 20.2369 39.3012 17.194L39.3513 16.9608C39.5317 16.1236 40.7038 16.1184 40.8913 16.9539L40.9523 17.2258C41.6314 20.2542 44.0325 22.5719 47.042 23.1043C47.8792 23.2524 47.8792 24.4747 47.042 24.6228C44.0325 25.1552 41.6314 27.4729 40.9523 30.5014L40.8913 30.7732C40.7038 31.6087 39.5317 31.6035 39.3513 30.7663L39.3012 30.5331C38.6461 27.4903 36.2457 25.1528 33.2278 24.6189Z" fill="#F9F8F6"/>
<path d="M33.2278 24.6189C32.3948 24.4716 32.3948 23.2556 33.2278 23.1082C36.2457 22.5743 38.6461 20.2369 39.3012 17.194L39.3513 16.9608C39.5317 16.1236 40.7038 16.1184 40.8913 16.9539L40.9523 17.2258C41.6314 20.2542 44.0325 22.5719 47.042 23.1043C47.8793 23.2524 47.8793 24.4747 47.042 24.6228C44.0325 25.1552 41.6314 27.4729 40.9523 30.5014L40.8913 30.7732C40.7038 31.6087 39.5317 31.6035 39.3513 30.7663L39.3012 30.5331C38.6461 27.4903 36.2457 25.1528 33.2278 24.6189Z" stroke="#FF6849" stroke-width="1.5" stroke-linecap="round" stroke-linejoin="round"/>
</svg>
