<svg width="88" height="89" viewBox="0 0 88 89" fill="none" xmlns="http://www.w3.org/2000/svg">
<path d="M0.5 12.5C0.5 6.14873 5.64873 1 12 1H76C82.3513 1 87.5 6.14873 87.5 12.5V76.5C87.5 82.8513 82.3513 88 76 88H12C5.64873 88 0.5 82.8513 0.5 76.5V12.5Z" stroke="#DDDFDA"/>
<path fill-rule="evenodd" clip-rule="evenodd" d="M44.547 40.9149C45.9864 41.1695 47.1943 42.3011 47.5292 43.8569L47.585 44.116C48.8411 49.9508 57.1425 50.0035 58.4523 44.1631L58.52 43.861C58.5776 43.6048 58.6585 43.3602 58.76 43.1291V59.164C58.76 60.6434 57.5609 61.8426 56.0815 61.8426H29.2958C27.8164 61.8426 26.6172 60.6434 26.6172 59.164V40.4141H42.9788C43.4467 40.6414 43.9695 40.8127 44.547 40.9149Z" fill="#F9F8F6"/>
<path fill-rule="evenodd" clip-rule="evenodd" d="M42.9788 40.4136C39.896 38.9159 39.1916 34.9867 40.8657 32.3779H29.2958C27.8164 32.3779 26.6172 33.5772 26.6172 35.0565V40.4136H42.9788Z" fill="#FFE9E4"/>
<path d="M39.9827 32.4463H29.2684C28.558 32.4463 27.8767 32.7285 27.3744 33.2308C26.8721 33.7332 26.5898 34.4144 26.5898 35.1249V59.232C26.5898 59.9424 26.8721 60.6238 27.3744 61.126C27.8767 61.6283 28.558 61.9106 29.2684 61.9106H56.0541C57.5335 61.9106 58.7327 60.7114 58.7327 59.232V44.4999" stroke="#FF6849" stroke-width="1.5" stroke-linecap="round" stroke-linejoin="round"/>
<path d="M26.5898 40.4814H41.9916" stroke="#FF6849" stroke-width="1.5" stroke-linecap="round" stroke-linejoin="round"/>
<path d="M34.6621 55.109L38.68 51.0911L34.6621 47.0732" stroke="#FF6849" stroke-width="1.5" stroke-linecap="round" stroke-linejoin="round"/>
<path d="M42.6992 55.1084H46.7171" stroke="#FF6849" stroke-width="1.5" stroke-linecap="round" stroke-linejoin="round"/>
<path d="M45.3641 36.2987C44.4385 36.135 44.4385 34.7838 45.3641 34.6201C48.7174 34.0269 51.3844 31.4297 52.1123 28.0488L52.1681 27.7897C52.3684 26.8594 53.6707 26.8537 53.8791 27.782L53.9469 28.0841C54.7014 31.449 57.3693 34.0243 60.7132 34.6158C61.6435 34.7804 61.6435 36.1384 60.7132 36.303C57.3693 36.8946 54.7014 39.4698 53.9469 42.8347L53.8791 43.1367C53.6707 44.0651 52.3684 44.0594 52.1681 43.1291L52.1123 42.87C51.3844 39.4891 48.7174 36.8919 45.3641 36.2987Z" fill="#F9F8F6"/>
<path d="M45.3641 36.2987C44.4385 36.135 44.4385 34.7838 45.3641 34.6201C48.7174 34.0269 51.3844 31.4297 52.1123 28.0488L52.1681 27.7897C52.3684 26.8594 53.6707 26.8537 53.8791 27.782L53.9469 28.0841C54.7014 31.449 57.3693 34.0243 60.7132 34.6158C61.6435 34.7804 61.6435 36.1384 60.7132 36.303C57.3693 36.8946 54.7014 39.4698 53.9469 42.8347L53.8791 43.1367C53.6707 44.0651 52.3684 44.0594 52.1681 43.1291L52.1123 42.87C51.3844 39.4891 48.7174 36.8919 45.3641 36.2987Z" stroke="#FF6849" stroke-width="1.5" stroke-linecap="round" stroke-linejoin="round"/>
</svg>
