<svg width="54" height="54" viewBox="0 0 54 54" fill="none" xmlns="http://www.w3.org/2000/svg">
<path d="M12 0.5H42C48.3513 0.5 53.5 5.64873 53.5 12V42C53.5 48.3513 48.3513 53.5 42 53.5H12C5.64873 53.5 0.5 48.3513 0.5 42V12C0.5 5.64873 5.64873 0.5 12 0.5Z" stroke="#DDDFDA"/>
<g clip-path="url(#clip0_4156_33981)">
<path fill-rule="evenodd" clip-rule="evenodd" d="M27.3283 24.8513C28.192 25.0041 28.9167 25.683 29.1177 26.6165L29.1511 26.772C29.9048 30.2728 34.8856 30.3044 35.6715 26.8002L35.7122 26.619C35.7467 26.4652 35.7952 26.3184 35.8562 26.1798V35.8008C35.8562 36.6884 35.1366 37.4079 34.249 37.4079H18.1776C17.29 37.4079 16.5704 36.6884 16.5704 35.8008V24.5508H26.3874C26.6682 24.6872 26.9818 24.79 27.3283 24.8513Z" fill="#F9F8F6"/>
<path fill-rule="evenodd" clip-rule="evenodd" d="M26.3874 24.548C24.5377 23.6494 24.1151 21.2918 25.1195 19.7266H18.1776C17.29 19.7266 16.5704 20.4461 16.5704 21.3337V24.548H26.3874Z" fill="#FFE9E4"/>
<path d="M24.5893 19.7695H18.1607C17.7345 19.7695 17.3257 19.9389 17.0243 20.2402C16.7229 20.5417 16.5536 20.9504 16.5536 21.3767V35.841C16.5536 36.2672 16.7229 36.676 17.0243 36.9774C17.3257 37.2787 17.7345 37.4481 18.1607 37.4481H34.2322C35.1198 37.4481 35.8393 36.7286 35.8393 35.841V27.0017" stroke="#FF6849" stroke-width="1.5" stroke-linecap="round" stroke-linejoin="round"/>
<path d="M16.5536 24.5898H25.7947" stroke="#FF6849" stroke-width="1.5" stroke-linecap="round" stroke-linejoin="round"/>
<path d="M21.3973 33.3683L23.8081 30.9576L21.3973 28.5469" stroke="#FF6849" stroke-width="1.5" stroke-linecap="round" stroke-linejoin="round"/>
<path d="M26.2189 33.3672H28.6296" stroke="#FF6849" stroke-width="1.5" stroke-linecap="round" stroke-linejoin="round"/>
<path d="M27.8184 22.0806C27.263 21.9823 27.263 21.1717 27.8184 21.0734C29.8303 20.7175 31.4305 19.1592 31.8673 17.1307L31.9007 16.9752C32.0209 16.417 32.8023 16.4136 32.9274 16.9706L32.968 17.1518C33.4208 19.1708 35.0215 20.7159 37.0278 21.0709C37.586 21.1696 37.586 21.9844 37.0278 22.0832C35.0215 22.4381 33.4208 23.9832 32.968 26.0022L32.9274 26.1834C32.8023 26.7405 32.0209 26.737 31.9007 26.1789L31.8673 26.0234C31.4305 23.9948 29.8303 22.4365 27.8184 22.0806Z" fill="#F9F8F6"/>
<path d="M27.8184 22.0806C27.263 21.9823 27.263 21.1717 27.8184 21.0734C29.8303 20.7175 31.4305 19.1592 31.8673 17.1307L31.9007 16.9752C32.0209 16.417 32.8023 16.4136 32.9274 16.9706L32.968 17.1518C33.4208 19.1708 35.0215 20.7159 37.0278 21.0709C37.586 21.1696 37.586 21.9844 37.0278 22.0832C35.0215 22.4381 33.4208 23.9832 32.968 26.0022L32.9274 26.1834C32.8023 26.7405 32.0209 26.737 31.9007 26.1789L31.8673 26.0234C31.4305 23.9948 29.8303 22.4365 27.8184 22.0806Z" stroke="#FF6849" stroke-width="1.5" stroke-linecap="round" stroke-linejoin="round"/>
</g>
<defs>
<clipPath id="clip0_4156_33981">
<rect width="24" height="24" fill="white" transform="translate(15 15)"/>
</clipPath>
</defs>
</svg>
