<svg width="723" height="563" viewBox="0 0 723 563" fill="none" xmlns="http://www.w3.org/2000/svg">
<rect x="289.062" y="159" width="21" height="23" rx="3.5" fill="#F9F8F6" stroke="white"/>
<rect x="344.062" y="159" width="22" height="23" rx="3.5" fill="#F9F8F6" stroke="white"/>
<rect x="401.062" y="159" width="19" height="23" rx="3.5" fill="#F9F8F6" stroke="white"/>
<rect x="289.062" y="360" width="21" height="22" rx="3.5" fill="#F9F8F6" stroke="white"/>
<rect x="344.062" y="360" width="20" height="22" rx="3.5" fill="#F9F8F6" stroke="white"/>
<rect x="399.062" y="360" width="20" height="22" rx="3.5" fill="#F9F8F6" stroke="white"/>
<rect x="445.062" y="335" width="21" height="22" rx="3.5" transform="rotate(-90 445.062 335)" fill="#F9F8F6" stroke="white"/>
<rect x="445.062" y="280" width="21" height="22" rx="3.5" transform="rotate(-90 445.062 280)" fill="#F9F8F6" stroke="white"/>
<rect x="445.062" y="225" width="21" height="22" rx="3.5" transform="rotate(-90 445.062 225)" fill="#F9F8F6" stroke="white"/>
<rect x="244.062" y="227" width="20" height="22" rx="3.5" transform="rotate(-90 244.062 227)" fill="#F9F8F6" stroke="white"/>
<rect x="243.062" y="281" width="20" height="22" rx="3.5" transform="rotate(-90 243.062 281)" fill="#F9F8F6" stroke="white"/>
<rect x="244.062" y="335" width="21" height="22" rx="3.5" transform="rotate(-90 244.062 335)" fill="#F9F8F6" stroke="white"/>
<rect x="264" y="179.5" width="183" height="182" rx="11" fill="url(#paint0_linear_3984_26041)" stroke="url(#paint1_linear_3984_26041)" stroke-width="2"/>
<path d="M288.562 33.0055V67.0646L320.08 98.2417M299.594 155.618V118.939L331.111 87.762M347.658 20.4299L368.145 40.6033M354.224 155.618V55.5369L393.359 16.5M384.954 109.507L397.167 121.952M409.38 155.618V134.397L397.167 121.952M397.167 121.952L438.797 80.1642M470.314 214.828H550.947M667.563 163.478H613.982L578.525 214.828H550.947M550.947 214.828L596.91 261.201H641.035M470.314 268.537H511.025L547.533 324.865H559.614M663.623 282.423H613.982L578.525 324.865H559.614M470.314 324.865H559.614M624.488 324.865H559.614M559.614 324.865L605.578 371.5H653.642" stroke="#FFA28D" stroke-width="3" stroke-dasharray="4 6"/>
<rect x="289" y="204.5" width="132" height="132" rx="12" fill="#FF6849"/>
<path d="M300.45 385.799V437.287L312.722 449.765M324.994 462.243L312.722 449.765M312.722 449.765L272.51 490.614M354.5 385.799V515.57L339.854 530.807M316.116 555.5L339.854 530.807M339.854 530.807L361.028 552.348M409.857 385.799V451.473L388.793 473.014M378.262 483.784L388.793 473.014M388.793 473.014L420.563 505.063V539.213M80.0685 277.569H120.28L166.498 324.329M50.5625 376.605H103.83L140.386 324.329H239.349M54.4792 256.553H103.83L140.386 214.26M239.349 214.26H169.892M93.1242 214.26H157.881M239.349 271.264H206.97L169.892 214.26M169.892 214.26H157.881M157.881 214.26L111.663 167.5H65.9683" stroke="#FFA28D" stroke-width="3" stroke-dasharray="4 6"/>
<path d="M32.3648 263.102C31.746 262.745 31.3648 262.085 31.3648 261.37L31.3648 252.948C31.3648 252.234 31.746 251.573 32.3648 251.216L39.6584 247.005C40.2772 246.648 41.0396 246.648 41.6584 247.005L48.952 251.216C49.5708 251.573 49.9519 252.234 49.9519 252.948L49.952 261.37C49.952 262.085 49.5708 262.745 48.952 263.102L41.6584 267.313C41.0396 267.67 40.2772 267.67 39.6584 267.313L32.3648 263.102Z" fill="#FFA28D"/>
<path d="M273 274.274C272.381 273.917 272 273.256 272 272.542L272 268.851C272 268.137 272.381 267.476 273 267.119L276.196 265.274C276.815 264.917 277.577 264.917 278.196 265.274L281.392 267.119C282.011 267.476 282.392 268.137 282.392 268.851L282.392 272.542C282.392 273.256 282.011 273.917 281.392 274.274L278.196 276.119C277.577 276.476 276.815 276.476 276.196 276.119L273 274.274Z" fill="#F9F8F6"/>
<path d="M273 220.274C272.381 219.917 272 219.256 272 218.542L272 214.851C272 214.137 272.381 213.476 273 213.119L276.196 211.274C276.815 210.917 277.577 210.917 278.196 211.274L281.392 213.119C282.011 213.476 282.392 214.137 282.392 214.851L282.392 218.542C282.392 219.256 282.011 219.917 281.392 220.274L278.196 222.119C277.577 222.476 276.815 222.476 276.196 222.119L273 220.274Z" fill="#F9F8F6"/>
<path d="M271 328.274C270.381 327.917 270 327.256 270 326.542L270 322.851C270 322.137 270.381 321.476 271 321.119L274.196 319.274C274.815 318.917 275.577 318.917 276.196 319.274L279.392 321.119C280.011 321.476 280.392 322.137 280.392 322.851L280.392 326.542C280.392 327.256 280.011 327.917 279.392 328.274L276.196 330.119C275.577 330.476 274.815 330.476 274.196 330.119L271 328.274Z" fill="#F9F8F6"/>
<path d="M296 354.274C295.381 353.917 295 353.256 295 352.542L295 348.851C295 348.137 295.381 347.476 296 347.119L299.196 345.274C299.815 344.917 300.577 344.917 301.196 345.274L304.392 347.119C305.011 347.476 305.392 348.137 305.392 348.851L305.392 352.542C305.392 353.256 305.011 353.917 304.392 354.274L301.196 356.119C300.577 356.476 299.815 356.476 299.196 356.119L296 354.274Z" fill="#F9F8F6"/>
<path d="M350 354.274C349.381 353.917 349 353.256 349 352.542L349 348.851C349 348.137 349.381 347.476 350 347.119L353.196 345.274C353.815 344.917 354.577 344.917 355.196 345.274L358.392 347.119C359.011 347.476 359.392 348.137 359.392 348.851L359.392 352.542C359.392 353.256 359.011 353.917 358.392 354.274L355.196 356.119C354.577 356.476 353.815 356.476 353.196 356.119L350 354.274Z" fill="#F9F8F6"/>
<path d="M405 354.274C404.381 353.917 404 353.256 404 352.542L404 348.851C404 348.137 404.381 347.476 405 347.119L408.196 345.274C408.815 344.917 409.577 344.917 410.196 345.274L413.392 347.119C414.011 347.476 414.392 348.137 414.392 348.851L414.392 352.542C414.392 353.256 414.011 353.917 413.392 354.274L410.196 356.119C409.577 356.476 408.815 356.476 408.196 356.119L405 354.274Z" fill="#F9F8F6"/>
<path d="M407 195.274C406.381 194.917 406 194.256 406 193.542L406 189.851C406 189.137 406.381 188.476 407 188.119L410.196 186.274C410.815 185.917 411.577 185.917 412.196 186.274L415.392 188.119C416.011 188.476 416.392 189.137 416.392 189.851L416.392 193.542C416.392 194.256 416.011 194.917 415.392 195.274L412.196 197.119C411.577 197.476 410.815 197.476 410.196 197.119L407 195.274Z" fill="#F9F8F6"/>
<path d="M351 195.274C350.381 194.917 350 194.256 350 193.542L350 189.851C350 189.137 350.381 188.476 351 188.119L354.196 186.274C354.815 185.917 355.577 185.917 356.196 186.274L359.392 188.119C360.011 188.476 360.392 189.137 360.392 189.851L360.392 193.542C360.392 194.256 360.011 194.917 359.392 195.274L356.196 197.119C355.577 197.476 354.815 197.476 354.196 197.119L351 195.274Z" fill="#F9F8F6"/>
<path d="M296 195.274C295.381 194.917 295 194.256 295 193.542L295 189.851C295 189.137 295.381 188.476 296 188.119L299.196 186.274C299.815 185.917 300.577 185.917 301.196 186.274L304.392 188.119C305.011 188.476 305.392 189.137 305.392 189.851L305.392 193.542C305.392 194.256 305.011 194.917 304.392 195.274L301.196 197.119C300.577 197.476 299.815 197.476 299.196 197.119L296 195.274Z" fill="#F9F8F6"/>
<path d="M429 218.274C428.381 217.917 428 217.256 428 216.542L428 212.851C428 212.137 428.381 211.476 429 211.119L432.196 209.274C432.815 208.917 433.577 208.917 434.196 209.274L437.392 211.119C438.011 211.476 438.392 212.137 438.392 212.851L438.392 216.542C438.392 217.256 438.011 217.917 437.392 218.274L434.196 220.119C433.577 220.476 432.815 220.476 432.196 220.119L429 218.274Z" fill="#F9F8F6"/>
<path d="M429 274.274C428.381 273.917 428 273.256 428 272.542L428 268.851C428 268.137 428.381 267.476 429 267.119L432.196 265.274C432.815 264.917 433.577 264.917 434.196 265.274L437.392 267.119C438.011 267.476 438.392 268.137 438.392 268.851L438.392 272.542C438.392 273.256 438.011 273.917 437.392 274.274L434.196 276.119C433.577 276.476 432.815 276.476 432.196 276.119L429 274.274Z" fill="#F9F8F6"/>
<path d="M429 328.274C428.381 327.917 428 327.256 428 326.542L428 322.851C428 322.137 428.381 321.476 429 321.119L432.196 319.274C432.815 318.917 433.577 318.917 434.196 319.274L437.392 321.119C438.011 321.476 438.392 322.137 438.392 322.851L438.392 326.542C438.392 327.256 438.011 327.917 437.392 328.274L434.196 330.119C433.577 330.476 432.815 330.476 432.196 330.119L429 328.274Z" fill="#F9F8F6"/>
<path d="M669.543 289.496C668.924 289.138 668.543 288.478 668.543 287.764L668.543 276.987C668.543 276.273 668.924 275.612 669.543 275.255L678.876 269.867C679.495 269.51 680.257 269.51 680.876 269.867L690.208 275.255C690.827 275.612 691.208 276.273 691.208 276.987L691.208 287.764C691.208 288.478 690.827 289.138 690.208 289.496L680.876 294.884C680.257 295.241 679.495 295.241 678.876 294.884L669.543 289.496Z" fill="#FFA28D"/>
<path d="M6.41475 321.418C5.79595 321.061 5.41475 320.4 5.41475 319.686L5.41475 316.286C5.41475 315.571 5.79595 314.911 6.41475 314.554L9.35937 312.854C9.97817 312.496 10.7406 312.496 11.3594 312.854L14.304 314.554C14.9228 314.911 15.304 315.571 15.304 316.286L15.304 319.686C15.304 320.4 14.9228 321.061 14.304 321.418L11.3594 323.118C10.7406 323.475 9.97818 323.475 9.35937 323.118L6.41475 321.418Z" fill="#FFD2C8"/>
<path d="M657.771 375.287C657.152 374.93 656.771 374.27 656.771 373.555L656.771 369.321C656.771 368.607 657.152 367.947 657.771 367.589L661.438 365.472C662.057 365.115 662.819 365.115 663.438 365.472L667.105 367.589C667.724 367.947 668.105 368.607 668.105 369.321L668.105 373.555C668.105 374.27 667.724 374.93 667.105 375.287L663.438 377.405C662.819 377.762 662.057 377.762 661.438 377.405L657.771 375.287Z" fill="#FFD2C8"/>
<path d="M92.2712 441.287C91.6524 440.93 91.2712 440.27 91.2712 439.555L91.2712 435.321C91.2712 434.607 91.6524 433.947 92.2712 433.589L95.938 431.472C96.5568 431.115 97.3192 431.115 97.938 431.472L101.605 433.589C102.224 433.947 102.605 434.607 102.605 435.321L102.605 439.555C102.605 440.27 102.224 440.93 101.605 441.287L97.938 443.405C97.3192 443.762 96.5568 443.762 95.938 443.405L92.2712 441.287Z" fill="#FFD2C8"/>
<path d="M310.51 558.024C310.004 557.519 309.807 556.783 309.992 556.092L311.088 552.003C311.273 551.312 311.812 550.773 312.502 550.588L316.592 549.493C317.282 549.308 318.018 549.505 318.524 550.01L321.518 553.004C322.023 553.509 322.22 554.246 322.035 554.936L320.939 559.026C320.754 559.716 320.215 560.255 319.525 560.44L315.435 561.536C314.745 561.721 314.009 561.524 313.504 561.018L310.51 558.024Z" fill="#FFD2C8"/>
<path d="M357.742 558.68C357.052 558.495 356.513 557.956 356.328 557.266L355.232 553.176C355.047 552.486 355.245 551.749 355.75 551.244L358.744 548.25C359.249 547.745 359.986 547.547 360.676 547.732L364.765 548.828C365.456 549.013 365.995 549.552 366.18 550.242L367.276 554.332C367.46 555.022 367.263 555.759 366.758 556.264L363.764 559.258C363.259 559.763 362.522 559.961 361.832 559.776L357.742 558.68Z" fill="#FFD2C8"/>
<path d="M398.91 17.6119C398.22 17.7968 397.484 17.5995 396.978 17.0942L393.637 13.7529C393.132 13.2477 392.934 12.5113 393.119 11.8211L394.342 7.25676C394.527 6.56657 395.066 6.02748 395.757 5.84255L400.321 4.61954C401.011 4.43461 401.748 4.63193 402.253 5.13718L405.594 8.47849C406.099 8.98374 406.297 9.72016 406.112 10.4103L404.889 14.9747C404.704 15.6648 404.165 16.2039 403.474 16.3889L398.91 17.6119Z" fill="#FFD2C8"/>
<path d="M331.51 85.0243C331.004 84.5191 330.807 83.7826 330.992 83.0925L332.088 79.0027C332.273 78.3125 332.812 77.7734 333.502 77.5885L337.592 76.4926C338.282 76.3077 339.018 76.505 339.524 77.0102L342.518 80.0042C343.023 80.5094 343.22 81.2458 343.035 81.936L341.939 86.0258C341.754 86.716 341.215 87.2551 340.525 87.44L336.435 88.5359C335.745 88.7208 335.009 88.5235 334.504 88.0183L331.51 85.0243Z" fill="#FFD2C8"/>
<path d="M186.865 133.102C186.246 132.745 185.865 132.085 185.865 131.37L185.865 122.948C185.865 122.234 186.246 121.573 186.865 121.216L194.158 117.005C194.777 116.648 195.54 116.648 196.158 117.005L203.452 121.216C204.071 121.573 204.452 122.234 204.452 122.948L204.452 131.37C204.452 132.085 204.071 132.745 203.452 133.102L196.158 137.313C195.54 137.67 194.777 137.67 194.158 137.313L186.865 133.102Z" fill="#FFD2C8"/>
<path d="M484.791 381.579C484.172 381.221 483.791 380.561 483.791 379.847L483.791 371.425C483.791 370.71 484.172 370.05 484.791 369.693L492.084 365.482C492.703 365.125 493.465 365.125 494.084 365.482L501.378 369.693C501.997 370.05 502.378 370.71 502.378 371.425L502.378 379.847C502.378 380.561 501.997 381.221 501.378 381.579L494.084 385.79C493.465 386.147 492.703 386.147 492.084 385.79L484.791 381.579Z" fill="#FFD2C8"/>
<path d="M64.3648 533.102C63.746 532.745 63.3648 532.085 63.3648 531.37L63.3648 522.948C63.3648 522.234 63.746 521.573 64.3648 521.216L71.6584 517.005C72.2772 516.648 73.0396 516.648 73.6584 517.005L80.952 521.216C81.5708 521.573 81.9519 522.234 81.9519 522.948L81.952 531.37C81.952 532.085 81.5708 532.745 80.952 533.102L73.6584 537.313C73.0396 537.67 72.2772 537.67 71.6584 537.313L64.3648 533.102Z" fill="#FFD2C8"/>
<path d="M44.5244 459.774C43.9056 459.417 43.5244 458.757 43.5244 458.042L43.5244 454.619C43.5244 453.904 43.9056 453.244 44.5244 452.887L47.4888 451.175C48.1076 450.818 48.87 450.818 49.4888 451.175L52.4533 452.887C53.0721 453.244 53.4533 453.904 53.4533 454.619L53.4533 458.042C53.4533 458.757 53.0721 459.417 52.4533 459.774L49.4888 461.486C48.87 461.843 48.1076 461.843 47.4888 461.486L44.5244 459.774Z" fill="#FFD2C8"/>
<path d="M545.619 154.102C545 153.745 544.619 153.085 544.619 152.37L544.619 143.948C544.619 143.234 545 142.573 545.619 142.216L552.912 138.005C553.531 137.648 554.293 137.648 554.912 138.005L562.206 142.216C562.825 142.573 563.206 143.234 563.206 143.948L563.206 152.37C563.206 153.085 562.825 153.745 562.206 154.102L554.912 158.313C554.293 158.67 553.531 158.67 552.912 158.313L545.619 154.102Z" fill="#FFD2C8"/>
<path d="M657.365 27.1021C656.746 26.7449 656.365 26.0846 656.365 25.3701L656.365 16.9482C656.365 16.2337 656.746 15.5734 657.365 15.2162L664.658 11.0052C665.277 10.648 666.04 10.648 666.658 11.0052L673.952 15.2162C674.571 15.5734 674.952 16.2337 674.952 16.9482L674.952 25.3701C674.952 26.0846 674.571 26.7449 673.952 27.1021L666.658 31.3131C666.04 31.6704 665.277 31.6704 664.658 31.3131L657.365 27.1021Z" fill="#FFD2C8"/>
<path d="M602.135 110.226C601.517 109.869 601.135 109.208 601.135 108.494L601.135 93.0388C601.135 92.3243 601.517 91.664 602.135 91.3067L615.52 83.5792C616.139 83.2219 616.901 83.2219 617.52 83.5792L630.904 91.3067C631.523 91.664 631.904 92.3243 631.904 93.0388L631.904 108.494C631.904 109.208 631.523 109.869 630.904 110.226L617.52 117.954C616.901 118.311 616.139 118.311 615.52 117.954L602.135 110.226Z" fill="#FFE9E4"/>
<path d="M514.595 67.6281C513.976 67.2708 513.595 66.6105 513.595 65.896L513.595 62.0157C513.595 61.3012 513.976 60.6409 514.595 60.2837L517.955 58.3435C518.574 57.9863 519.336 57.9863 519.955 58.3435L523.315 60.2837C523.934 60.6409 524.315 61.3012 524.315 62.0157L524.315 65.896C524.315 66.6105 523.934 67.2708 523.315 67.6281L519.955 69.5682C519.336 69.9255 518.574 69.9255 517.955 69.5682L514.595 67.6281Z" fill="#FFD2C8"/>
<path d="M676.855 121.869C676.236 121.512 675.855 120.852 675.855 120.137L675.855 117.735C675.855 117.021 676.236 116.361 676.855 116.003L678.935 114.802C679.554 114.445 680.317 114.445 680.935 114.802L683.015 116.003C683.634 116.361 684.015 117.021 684.015 117.735L684.015 120.137C684.015 120.852 683.634 121.512 683.015 121.869L680.935 123.07C680.317 123.428 679.554 123.428 678.935 123.07L676.855 121.869Z" fill="#FFD2C8"/>
<path d="M213.236 187.652C212.617 187.294 212.236 186.634 212.236 185.919L212.236 183.518C212.236 182.803 212.617 182.143 213.236 181.786L215.316 180.585C215.935 180.227 216.697 180.227 217.316 180.585L219.396 181.786C220.015 182.143 220.396 182.803 220.396 183.518L220.396 185.919C220.396 186.634 220.015 187.294 219.396 187.652L217.316 188.852C216.697 189.21 215.935 189.21 215.316 188.852L213.236 187.652Z" fill="#FFD2C8"/>
<path d="M274.482 81.9094C273.863 81.5521 273.482 80.8918 273.482 80.1773L273.482 77.7754C273.482 77.0609 273.863 76.4006 274.482 76.0434L276.562 74.8424C277.181 74.4852 277.944 74.4852 278.562 74.8424L280.642 76.0434C281.261 76.4006 281.642 77.0609 281.642 77.7754L281.642 80.1773C281.642 80.8918 281.261 81.5521 280.642 81.9094L278.562 83.1103C277.944 83.4676 277.181 83.4676 276.562 83.1103L274.482 81.9094Z" fill="#FFD2C8"/>
<path d="M593.855 444.869C593.236 444.512 592.855 443.852 592.855 443.137L592.855 440.735C592.855 440.021 593.236 439.361 593.855 439.003L595.935 437.802C596.554 437.445 597.317 437.445 597.935 437.802L600.015 439.003C600.634 439.361 601.015 440.021 601.015 440.735L601.015 443.137C601.015 443.852 600.634 444.512 600.015 444.869L597.935 446.07C597.317 446.428 596.554 446.428 595.935 446.07L593.855 444.869Z" fill="#FFD2C8"/>
<path d="M427.861 470.853C427.242 470.495 426.861 469.835 426.861 469.121L426.861 466.719C426.861 466.004 427.242 465.344 427.861 464.987L429.941 463.786C430.56 463.429 431.322 463.429 431.941 463.786L434.021 464.987C434.64 465.344 435.021 466.004 435.021 466.719L435.021 469.121C435.021 469.835 434.64 470.495 434.021 470.853L431.941 472.054C431.322 472.411 430.56 472.411 429.941 472.054L427.861 470.853Z" fill="#FFD2C8"/>
<path d="M37.8553 38.8693C37.2365 38.5121 36.8553 37.8518 36.8553 37.1373L36.8553 34.7354C36.8553 34.0208 37.2365 33.3606 37.8553 33.0033L39.9354 31.8024C40.5542 31.4451 41.3166 31.4451 41.9354 31.8024L44.0155 33.0033C44.6343 33.3606 45.0155 34.0208 45.0155 34.7354L45.0155 37.1373C45.0155 37.8518 44.6343 38.5121 44.0155 38.8693L41.9354 40.0703C41.3166 40.4275 40.5542 40.4275 39.9354 40.0703L37.8553 38.8693Z" fill="#FFD2C8"/>
<path d="M13.3553 548.869C12.7365 548.512 12.3553 547.852 12.3553 547.137L12.3553 544.735C12.3553 544.021 12.7365 543.361 13.3553 543.003L15.4354 541.802C16.0542 541.445 16.8166 541.445 17.4354 541.802L19.5155 543.003C20.1343 543.361 20.5155 544.021 20.5155 544.735L20.5155 547.137C20.5155 547.852 20.1343 548.512 19.5155 548.869L17.4354 550.07C16.8166 550.428 16.0542 550.428 15.4354 550.07L13.3553 548.869Z" fill="#FFD2C8"/>
<path d="M283.577 27.2094C283.22 26.5906 283.22 25.8282 283.577 25.2094L285.277 22.2648C285.635 21.646 286.295 21.2648 287.009 21.2648L290.41 21.2648C291.124 21.2648 291.784 21.646 292.142 22.2648L293.842 25.2094C294.199 25.8282 294.199 26.5906 293.842 27.2094L292.142 30.154C291.784 30.7728 291.124 31.154 290.41 31.154L287.009 31.154C286.295 31.154 285.635 30.7728 285.277 30.154L283.577 27.2094Z" fill="#FFD2C8"/>
<path d="M339.152 19.911C338.462 19.7261 337.923 19.187 337.738 18.4968L336.858 15.2125C336.673 14.5223 336.87 13.7859 337.376 13.2806L339.78 10.8764C340.285 10.3711 341.022 10.1738 341.712 10.3587L344.996 11.2388C345.686 11.4237 346.225 11.9628 346.41 12.653L347.29 15.9373C347.475 16.6275 347.278 17.3639 346.773 17.8691L344.368 20.2734C343.863 20.7786 343.127 20.976 342.437 20.791L339.152 19.911Z" fill="#FFD2C8"/>
<path d="M438.51 77.0243C438.004 76.5191 437.807 75.7826 437.992 75.0925L439.088 71.0027C439.273 70.3125 439.812 69.7734 440.502 69.5885L444.592 68.4926C445.282 68.3077 446.018 68.505 446.524 69.0102L449.518 72.0042C450.023 72.5094 450.22 73.2458 450.035 73.936L448.939 78.0258C448.754 78.716 448.215 79.2551 447.525 79.44L443.435 80.5359C442.745 80.7208 442.009 80.5235 441.504 80.0183L438.51 77.0243Z" fill="#FFD2C8"/>
<path d="M375.742 108.68C375.052 108.495 374.513 107.956 374.328 107.266L373.232 103.176C373.047 102.486 373.245 101.749 373.75 101.244L376.744 98.25C377.249 97.7447 377.986 97.5474 378.676 97.7323L382.765 98.8282C383.456 99.0131 383.995 99.5522 384.18 100.242L385.276 104.332C385.46 105.022 385.263 105.759 384.758 106.264L381.764 109.258C381.259 109.763 380.522 109.961 379.832 109.776L375.742 108.68Z" fill="#FFD2C8"/>
<path d="M414.577 547.043C414.22 546.425 414.22 545.662 414.577 545.043L416.694 541.377C417.052 540.758 417.712 540.377 418.426 540.377L422.66 540.377C423.375 540.377 424.035 540.758 424.393 541.377L426.51 545.043C426.867 545.662 426.867 546.425 426.51 547.043L424.393 550.71C424.035 551.329 423.375 551.71 422.66 551.71L418.426 551.71C417.712 551.71 417.052 551.329 416.694 550.71L414.577 547.043Z" fill="#FFD2C8"/>
<path d="M14.6374 217.732C14.0186 217.375 13.6374 216.715 13.6374 216L13.6374 212.6C13.6374 211.886 14.0186 211.225 14.6374 210.868L17.582 209.168C18.2008 208.811 18.9632 208.811 19.582 209.168L22.5266 210.868C23.1455 211.225 23.5266 211.886 23.5266 212.6L23.5266 216C23.5266 216.715 23.1455 217.375 22.5266 217.732L19.582 219.432C18.9632 219.79 18.2008 219.79 17.582 219.432L14.6374 217.732Z" fill="#FFD2C8"/>
<path d="M31.4928 382.848C30.874 382.491 30.4928 381.831 30.4928 381.116L30.4928 374.438C30.4928 373.724 30.874 373.064 31.4928 372.706L37.2758 369.367C37.8946 369.01 38.657 369.01 39.2758 369.367L45.0589 372.706C45.6777 373.064 46.0589 373.724 46.0589 374.438L46.0589 381.116C46.0589 381.831 45.6777 382.491 45.0589 382.848L39.2758 386.187C38.657 386.544 37.8946 386.544 37.2758 386.187L31.4928 382.848Z" fill="#FFD2C8"/>
<path d="M645.771 265.287C645.152 264.93 644.771 264.27 644.771 263.555L644.771 259.321C644.771 258.607 645.152 257.947 645.771 257.589L649.438 255.472C650.057 255.115 650.819 255.115 651.438 255.472L655.105 257.589C655.724 257.947 656.105 258.607 656.105 259.321L656.105 263.555C656.105 264.27 655.724 264.93 655.105 265.287L651.438 267.405C650.819 267.762 650.057 267.762 649.438 267.405L645.771 265.287Z" fill="#FFD2C8"/>
<path d="M74.7712 281.287C74.1524 280.93 73.7712 280.27 73.7712 279.555L73.7712 275.321C73.7712 274.607 74.1524 273.947 74.7712 273.589L78.438 271.472C79.0568 271.115 79.8192 271.115 80.438 271.472L84.1048 273.589C84.7236 273.947 85.1048 274.607 85.1048 275.321L85.1048 279.555C85.1048 280.27 84.7237 280.93 84.1048 281.287L80.438 283.405C79.8192 283.762 79.0568 283.762 78.438 283.405L74.7712 281.287Z" fill="#FFD2C8"/>
<path d="M79.7712 218.287C79.1524 217.93 78.7712 217.27 78.7712 216.555L78.7712 212.321C78.7712 211.607 79.1524 210.947 79.7712 210.589L83.438 208.472C84.0568 208.115 84.8192 208.115 85.438 208.472L89.1048 210.589C89.7236 210.947 90.1048 211.607 90.1048 212.321L90.1048 216.555C90.1048 217.27 89.7237 217.93 89.1048 218.287L85.438 220.405C84.8192 220.762 84.0568 220.762 83.438 220.405L79.7712 218.287Z" fill="#FFD2C8"/>
<path d="M627.771 329.287C627.152 328.93 626.771 328.27 626.771 327.555L626.771 323.321C626.771 322.607 627.152 321.947 627.771 321.589L631.438 319.472C632.057 319.115 632.819 319.115 633.438 319.472L637.105 321.589C637.724 321.947 638.105 322.607 638.105 323.321L638.105 327.555C638.105 328.27 637.724 328.93 637.105 329.287L633.438 331.405C632.819 331.762 632.057 331.762 631.438 331.405L627.771 329.287Z" fill="#FFD2C8"/>
<path d="M261.51 498.024C261.004 497.519 260.807 496.783 260.992 496.092L262.088 492.003C262.273 491.312 262.812 490.773 263.502 490.588L267.592 489.493C268.282 489.308 269.018 489.505 269.524 490.01L272.518 493.004C273.023 493.509 273.22 494.246 273.035 494.936L271.939 499.026C271.754 499.716 271.215 500.255 270.525 500.44L266.435 501.536C265.745 501.721 265.009 501.524 264.504 501.018L261.51 498.024Z" fill="#FFD2C8"/>
<path d="M326.742 472.68C326.052 472.495 325.513 471.956 325.328 471.266L324.232 467.176C324.047 466.486 324.245 465.749 324.75 465.244L327.744 462.25C328.249 461.745 328.986 461.547 329.676 461.732L333.765 462.828C334.456 463.013 334.995 463.552 335.18 464.242L336.276 468.332C336.46 469.022 336.263 469.759 335.758 470.264L332.764 473.258C332.259 473.763 331.522 473.961 330.832 473.776L326.742 472.68Z" fill="#FFD2C8"/>
<path d="M367.433 491.949C366.928 491.444 366.731 490.707 366.916 490.017L368.012 485.927C368.197 485.237 368.736 484.698 369.426 484.513L373.516 483.417C374.206 483.232 374.942 483.43 375.448 483.935L378.441 486.929C378.947 487.434 379.144 488.171 378.959 488.861L377.863 492.951C377.678 493.641 377.139 494.18 376.449 494.365L372.359 495.461C371.669 495.646 370.933 495.448 370.427 494.943L367.433 491.949Z" fill="#FFD2C8"/>
<path d="M59.7263 170.656C59.1075 170.298 58.7263 169.638 58.7263 168.924L58.7263 164.69C58.7263 163.975 59.1075 163.315 59.7263 162.957L63.3931 160.84C64.0119 160.483 64.7743 160.483 65.3931 160.84L69.0599 162.957C69.6787 163.315 70.0599 163.975 70.0599 164.69L70.0599 168.924C70.0599 169.638 69.6787 170.298 69.0599 170.656L65.3931 172.773C64.7743 173.13 64.0119 173.13 63.3931 172.773L59.7263 170.656Z" fill="#FFD2C8"/>
<path d="M669.525 167.287C668.906 166.93 668.525 166.27 668.525 165.555L668.525 161.321C668.525 160.607 668.906 159.947 669.525 159.589L673.192 157.472C673.811 157.115 674.573 157.115 675.192 157.472L678.859 159.589C679.478 159.947 679.859 160.607 679.859 161.321L679.859 165.555C679.859 166.27 679.478 166.93 678.859 167.287L675.192 169.405C674.573 169.762 673.811 169.762 673.192 169.405L669.525 167.287Z" fill="#FFD2C8"/>
<path d="M370.649 229.5V258.591H364.498V229.5H370.649Z" fill="#F9F8F6"/>
<path d="M339.591 258.591H333L343.043 229.5H350.969L360.997 258.591H354.406L347.119 236.148H346.892L339.591 258.591ZM339.179 247.156H354.747V251.957H339.179V247.156Z" fill="#F9F8F6"/>
<path d="M369.602 308.682V279.591H375.752V303.611H388.224V308.682H369.602Z" fill="#F9F8F6"/>
<path d="M333 279.591H340.585L348.597 299.136H348.938L356.949 279.591H364.534V308.682H358.568V289.747H358.327L350.798 308.54H346.736L339.207 289.676H338.966V308.682H333V279.591Z" fill="#F9F8F6"/>
<defs>
<linearGradient id="paint0_linear_3984_26041" x1="266.268" y1="254.125" x2="431.993" y2="281.033" gradientUnits="userSpaceOnUse">
<stop stop-color="#F4F3EB"/>
<stop offset="1" stop-color="#F8F8F8"/>
</linearGradient>
<linearGradient id="paint1_linear_3984_26041" x1="266.268" y1="254.125" x2="431.993" y2="281.033" gradientUnits="userSpaceOnUse">
<stop stop-color="#F4F3EB"/>
<stop offset="1" stop-color="#F8F8F8"/>
</linearGradient>
</defs>
</svg>
