<svg width="723" height="465" viewBox="0 0 723 465" fill="none" xmlns="http://www.w3.org/2000/svg">
<path d="M486.921 126.44L471.861 134.996L471.982 117.675L486.921 126.44ZM465.606 126.291L465.616 124.792L465.606 126.291ZM451.218 126.191L451.208 127.691L451.208 127.691L451.218 126.191ZM356.706 272.468L357.692 270.788L360.279 272.306L359.294 273.986L356.706 272.468ZM361.634 264.068L363.605 260.709L366.192 262.227L364.221 265.586L361.634 264.068ZM367.547 253.989L369.518 250.629L372.106 252.147L370.135 255.507L367.547 253.989ZM373.46 243.91L375.431 240.55L378.019 242.068L376.048 245.428L373.46 243.91ZM379.373 233.831L381.344 230.471L383.932 231.989L381.961 235.349L379.373 233.831ZM385.287 223.752L387.258 220.392L389.845 221.91L387.874 225.27L385.287 223.752ZM391.2 213.673L393.171 210.313L395.758 211.831L393.787 215.191L391.2 213.673ZM397.113 203.593L399.084 200.234L401.671 201.752L399.7 205.112L397.113 203.593ZM403.026 193.514L404.997 190.155L407.585 191.673L405.614 195.032L403.026 193.514ZM408.939 183.435L410.91 180.076L413.498 181.594L411.527 184.953L408.939 183.435ZM414.852 173.356L416.823 169.996L419.411 171.514L417.44 174.874L414.852 173.356ZM420.765 163.277L422.737 159.917L425.324 161.435L423.353 164.795L420.765 163.277ZM426.679 153.198L428.65 149.838L431.237 151.356L429.266 154.716L426.679 153.198ZM432.592 143.119L434.563 139.759L437.15 141.277L435.179 144.637L432.592 143.119ZM438.505 133.04L439.491 131.36L442.078 132.878L441.093 134.558L438.505 133.04ZM439.491 131.36C439.892 130.675 440.349 130.034 440.853 129.441L443.138 131.386C442.746 131.846 442.391 132.345 442.078 132.878L439.491 131.36ZM448.883 124.88C449.651 124.75 450.435 124.686 451.229 124.691L451.208 127.691C450.59 127.687 449.98 127.737 449.383 127.838L448.883 124.88ZM451.229 124.691L453.626 124.708L453.606 127.708L451.208 127.691L451.229 124.691ZM463.218 124.775L465.616 124.792L465.595 127.791L463.197 127.775L463.218 124.775ZM465.616 124.792L467.392 124.804L467.371 127.804L465.595 127.791L465.616 124.792ZM474.497 124.853L478.05 124.878L478.029 127.878L474.476 127.853L474.497 124.853ZM486.921 126.44L471.861 134.996L471.982 117.675L486.921 126.44ZM465.606 126.291L465.616 124.792L465.606 126.291ZM451.218 126.191L451.208 127.691L451.208 127.691L451.218 126.191ZM356.706 272.468L357.692 270.788L360.279 272.306L359.294 273.986L356.706 272.468ZM361.634 264.068L363.605 260.709L366.192 262.227L364.221 265.586L361.634 264.068ZM367.547 253.989L369.518 250.629L372.106 252.147L370.135 255.507L367.547 253.989ZM373.46 243.91L375.431 240.55L378.019 242.068L376.048 245.428L373.46 243.91ZM379.373 233.831L381.344 230.471L383.932 231.989L381.961 235.349L379.373 233.831ZM385.287 223.752L387.258 220.392L389.845 221.91L387.874 225.27L385.287 223.752ZM391.2 213.673L393.171 210.313L395.758 211.831L393.787 215.191L391.2 213.673ZM397.113 203.593L399.084 200.234L401.671 201.752L399.7 205.112L397.113 203.593ZM403.026 193.514L404.997 190.155L407.585 191.673L405.614 195.032L403.026 193.514ZM408.939 183.435L410.91 180.076L413.498 181.594L411.527 184.953L408.939 183.435ZM414.852 173.356L416.823 169.996L419.411 171.514L417.44 174.874L414.852 173.356ZM420.765 163.277L422.737 159.917L425.324 161.435L423.353 164.795L420.765 163.277ZM426.679 153.198L428.65 149.838L431.237 151.356L429.266 154.716L426.679 153.198ZM432.592 143.119L434.563 139.759L437.15 141.277L435.179 144.637L432.592 143.119ZM438.505 133.04L439.491 131.36L442.078 132.878L441.093 134.558L438.505 133.04ZM439.491 131.36C439.892 130.675 440.349 130.034 440.853 129.441L443.138 131.386C442.746 131.846 442.391 132.345 442.078 132.878L439.491 131.36ZM448.883 124.88C449.651 124.75 450.435 124.686 451.229 124.691L451.208 127.691C450.59 127.687 449.98 127.737 449.383 127.838L448.883 124.88ZM451.229 124.691L453.626 124.708L453.606 127.708L451.208 127.691L451.229 124.691ZM463.218 124.775L465.616 124.792L465.595 127.791L463.197 127.775L463.218 124.775ZM465.616 124.792L467.392 124.804L467.371 127.804L465.595 127.791L465.616 124.792ZM474.497 124.853L478.05 124.878L478.029 127.878L474.476 127.853L474.497 124.853Z" fill="#FACCBB"/>
<path d="M240.999 127.066L256.165 135.433L255.827 118.115L240.999 127.066ZM262.311 126.651L262.281 125.151L262.311 126.651ZM276.696 126.37L276.725 127.87L276.725 127.87L276.696 126.37ZM373.032 271.451L372.026 269.784L369.457 271.334L370.464 273.002L373.032 271.451ZM368 263.114L365.987 259.78L363.418 261.33L365.431 264.665L368 263.114ZM361.961 253.11L359.948 249.775L357.379 251.326L359.392 254.661L361.961 253.11ZM355.922 243.106L353.909 239.771L351.341 241.322L353.354 244.656L355.922 243.106ZM349.883 233.102L347.87 229.767L345.302 231.317L347.315 234.652L349.883 233.102ZM343.844 223.097L341.831 219.763L339.263 221.313L341.276 224.648L343.844 223.097ZM337.805 213.093L335.792 209.758L333.224 211.309L335.237 214.644L337.805 213.093ZM331.766 203.089L329.753 199.754L327.185 201.304L329.198 204.639L331.766 203.089ZM325.727 193.085L323.714 189.75L321.146 191.3L323.159 194.635L325.727 193.085ZM319.688 183.08L317.675 179.746L315.107 181.296L317.12 184.631L319.688 183.08ZM313.649 173.076L311.636 169.741L309.068 171.292L311.081 174.626L313.649 173.076ZM307.61 163.072L305.597 159.737L303.029 161.287L305.042 164.622L307.61 163.072ZM301.571 153.068L299.558 149.733L296.99 151.283L299.003 154.618L301.571 153.068ZM295.532 143.063L293.519 139.728L290.951 141.279L292.964 144.614L295.532 143.063ZM289.493 133.059L288.487 131.392L285.919 132.942L286.925 134.609L289.493 133.059ZM288.487 131.392C288.077 130.712 287.612 130.077 287.1 129.49L284.84 131.463C285.238 131.919 285.599 132.413 285.919 132.942L288.487 131.392ZM279.014 125.03C278.245 124.91 277.46 124.855 276.666 124.871L276.725 127.87C277.342 127.858 277.953 127.9 278.551 127.994L279.014 125.03ZM276.666 124.871L274.269 124.917L274.327 127.917L276.725 127.87L276.666 124.871ZM264.679 125.104L262.281 125.151L262.34 128.151L264.737 128.104L264.679 125.104ZM262.281 125.151L260.505 125.186L260.564 128.185L262.34 128.151L262.281 125.151ZM253.401 125.324L249.849 125.393L249.908 128.393L253.46 128.324L253.401 125.324ZM240.999 127.066L256.165 135.433L255.827 118.115L240.999 127.066ZM262.311 126.651L262.281 125.151L262.311 126.651ZM276.696 126.37L276.725 127.87L276.725 127.87L276.696 126.37ZM373.032 271.451L372.026 269.784L369.457 271.334L370.464 273.002L373.032 271.451ZM368 263.114L365.987 259.78L363.418 261.33L365.431 264.665L368 263.114ZM361.961 253.11L359.948 249.775L357.379 251.326L359.392 254.661L361.961 253.11ZM355.922 243.106L353.909 239.771L351.341 241.322L353.354 244.656L355.922 243.106ZM349.883 233.102L347.87 229.767L345.302 231.317L347.315 234.652L349.883 233.102ZM343.844 223.097L341.831 219.763L339.263 221.313L341.276 224.648L343.844 223.097ZM337.805 213.093L335.792 209.758L333.224 211.309L335.237 214.644L337.805 213.093ZM331.766 203.089L329.753 199.754L327.185 201.304L329.198 204.639L331.766 203.089ZM325.727 193.085L323.714 189.75L321.146 191.3L323.159 194.635L325.727 193.085ZM319.688 183.08L317.675 179.746L315.107 181.296L317.12 184.631L319.688 183.08ZM313.649 173.076L311.636 169.741L309.068 171.292L311.081 174.626L313.649 173.076ZM307.61 163.072L305.597 159.737L303.029 161.287L305.042 164.622L307.61 163.072ZM301.571 153.068L299.558 149.733L296.99 151.283L299.003 154.618L301.571 153.068ZM295.532 143.063L293.519 139.728L290.951 141.279L292.964 144.614L295.532 143.063ZM289.493 133.059L288.487 131.392L285.919 132.942L286.925 134.609L289.493 133.059ZM288.487 131.392C288.077 130.712 287.612 130.077 287.1 129.49L284.84 131.463C285.238 131.919 285.599 132.413 285.919 132.942L288.487 131.392ZM279.014 125.03C278.245 124.91 277.46 124.855 276.666 124.871L276.725 127.87C277.342 127.858 277.953 127.9 278.551 127.994L279.014 125.03ZM276.666 124.871L274.269 124.917L274.327 127.917L276.725 127.87L276.666 124.871ZM264.679 125.104L262.281 125.151L262.34 128.151L264.737 128.104L264.679 125.104ZM262.281 125.151L260.505 125.186L260.564 128.185L262.34 128.151L262.281 125.151ZM253.401 125.324L249.849 125.393L249.908 128.393L253.46 128.324L253.401 125.324Z" fill="#FACCBB"/>
<path d="M486.921 352.224L471.861 343.669L471.982 360.989L486.921 352.224ZM465.606 352.373L465.616 353.873L465.606 352.373ZM451.218 352.473L451.208 350.973L451.208 350.973L451.218 352.473ZM356.706 206.197L357.692 207.876L360.279 206.358L359.294 204.678L356.706 206.197ZM361.634 214.596L363.605 217.956L366.192 216.437L364.221 213.078L361.634 214.596ZM367.547 224.675L369.518 228.035L372.106 226.517L370.135 223.157L367.547 224.675ZM373.46 234.754L375.431 238.114L378.019 236.596L376.048 233.236L373.46 234.754ZM379.373 244.833L381.344 248.193L383.932 246.675L381.961 243.315L379.373 244.833ZM385.287 254.912L387.258 258.272L389.845 256.754L387.874 253.394L385.287 254.912ZM391.2 264.991L393.171 268.351L395.758 266.833L393.787 263.473L391.2 264.991ZM397.113 275.071L399.084 278.43L401.671 276.912L399.7 273.553L397.113 275.071ZM403.026 285.15L404.997 288.509L407.585 286.991L405.614 283.632L403.026 285.15ZM408.939 295.229L410.91 298.589L413.498 297.07L411.527 293.711L408.939 295.229ZM414.852 305.308L416.823 308.668L419.411 307.15L417.44 303.79L414.852 305.308ZM420.765 315.387L422.737 318.747L425.324 317.229L423.353 313.869L420.765 315.387ZM426.679 325.466L428.65 328.826L431.237 327.308L429.266 323.948L426.679 325.466ZM432.592 335.545L434.563 338.905L437.15 337.387L435.179 334.027L432.592 335.545ZM438.505 345.624L439.491 347.304L442.078 345.786L441.093 344.106L438.505 345.624ZM439.491 347.304C439.892 347.989 440.349 348.63 440.853 349.223L443.138 347.279C442.746 346.818 442.391 346.319 442.078 345.786L439.491 347.304ZM448.883 353.784C449.651 353.914 450.435 353.978 451.229 353.973L451.208 350.973C450.59 350.977 449.98 350.927 449.383 350.826L448.883 353.784ZM451.229 353.973L453.626 353.956L453.606 350.956L451.208 350.973L451.229 353.973ZM463.218 353.889L465.616 353.873L465.595 350.873L463.197 350.889L463.218 353.889ZM465.616 353.873L467.392 353.86L467.371 350.86L465.595 350.873L465.616 353.873ZM474.497 353.811L478.05 353.786L478.029 350.786L474.476 350.811L474.497 353.811ZM486.921 352.224L471.861 343.669L471.982 360.989L486.921 352.224ZM465.606 352.373L465.616 353.873L465.606 352.373ZM451.218 352.473L451.208 350.973L451.208 350.973L451.218 352.473ZM356.706 206.197L357.692 207.876L360.279 206.358L359.294 204.678L356.706 206.197ZM361.634 214.596L363.605 217.956L366.192 216.437L364.221 213.078L361.634 214.596ZM367.547 224.675L369.518 228.035L372.106 226.517L370.135 223.157L367.547 224.675ZM373.46 234.754L375.431 238.114L378.019 236.596L376.048 233.236L373.46 234.754ZM379.373 244.833L381.344 248.193L383.932 246.675L381.961 243.315L379.373 244.833ZM385.287 254.912L387.258 258.272L389.845 256.754L387.874 253.394L385.287 254.912ZM391.2 264.991L393.171 268.351L395.758 266.833L393.787 263.473L391.2 264.991ZM397.113 275.071L399.084 278.43L401.671 276.912L399.7 273.553L397.113 275.071ZM403.026 285.15L404.997 288.509L407.585 286.991L405.614 283.632L403.026 285.15ZM408.939 295.229L410.91 298.589L413.498 297.07L411.527 293.711L408.939 295.229ZM414.852 305.308L416.823 308.668L419.411 307.15L417.44 303.79L414.852 305.308ZM420.765 315.387L422.737 318.747L425.324 317.229L423.353 313.869L420.765 315.387ZM426.679 325.466L428.65 328.826L431.237 327.308L429.266 323.948L426.679 325.466ZM432.592 335.545L434.563 338.905L437.15 337.387L435.179 334.027L432.592 335.545ZM438.505 345.624L439.491 347.304L442.078 345.786L441.093 344.106L438.505 345.624ZM439.491 347.304C439.892 347.989 440.349 348.63 440.853 349.223L443.138 347.279C442.746 346.818 442.391 346.319 442.078 345.786L439.491 347.304ZM448.883 353.784C449.651 353.914 450.435 353.978 451.229 353.973L451.208 350.973C450.59 350.977 449.98 350.927 449.383 350.826L448.883 353.784ZM451.229 353.973L453.626 353.956L453.606 350.956L451.208 350.973L451.229 353.973ZM463.218 353.889L465.616 353.873L465.595 350.873L463.197 350.889L463.218 353.889ZM465.616 353.873L467.392 353.86L467.371 350.86L465.595 350.873L465.616 353.873ZM474.497 353.811L478.05 353.786L478.029 350.786L474.476 350.811L474.497 353.811Z" fill="#FACCBB"/>
<path d="M237.999 351.598L253.165 343.231L252.827 360.549L237.999 351.598ZM259.311 352.013L259.281 353.513L259.311 352.013ZM273.696 352.294L273.725 350.794L273.725 350.794L273.696 352.294ZM370.032 207.213L369.026 208.88L366.457 207.33L367.464 205.662L370.032 207.213ZM365 215.55L362.987 218.884L360.418 217.334L362.431 213.999L365 215.55ZM358.961 225.554L356.948 228.889L354.379 227.338L356.392 224.003L358.961 225.554ZM352.922 235.558L350.909 238.893L348.341 237.343L350.354 234.008L352.922 235.558ZM346.883 245.562L344.87 248.897L342.302 247.347L344.315 244.012L346.883 245.562ZM340.844 255.567L338.831 258.901L336.263 257.351L338.276 254.016L340.844 255.567ZM334.805 265.571L332.792 268.906L330.224 267.355L332.237 264.021L334.805 265.571ZM328.766 275.575L326.753 278.91L324.185 277.36L326.198 274.025L328.766 275.575ZM322.727 285.579L320.714 288.914L318.146 287.364L320.159 284.029L322.727 285.579ZM316.688 295.584L314.675 298.918L312.107 297.368L314.12 294.033L316.688 295.584ZM310.649 305.588L308.636 308.923L306.068 307.372L308.081 304.038L310.649 305.588ZM304.61 315.592L302.597 318.927L300.029 317.377L302.042 314.042L304.61 315.592ZM298.571 325.597L296.558 328.931L293.99 327.381L296.003 324.046L298.571 325.597ZM292.532 335.601L290.519 338.936L287.951 337.385L289.964 334.05L292.532 335.601ZM286.493 345.605L285.487 347.272L282.919 345.722L283.925 344.055L286.493 345.605ZM285.487 347.272C285.077 347.952 284.612 348.587 284.1 349.174L281.84 347.201C282.238 346.745 282.599 346.251 282.919 345.722L285.487 347.272ZM276.014 353.634C275.245 353.754 274.46 353.809 273.666 353.793L273.725 350.794C274.342 350.806 274.953 350.764 275.551 350.67L276.014 353.634ZM273.666 353.793L271.269 353.747L271.327 350.747L273.725 350.794L273.666 353.793ZM261.679 353.56L259.281 353.513L259.34 350.513L261.737 350.56L261.679 353.56ZM259.281 353.513L257.505 353.478L257.564 350.479L259.34 350.513L259.281 353.513ZM250.401 353.34L246.849 353.271L246.908 350.271L250.46 350.34L250.401 353.34ZM237.999 351.598L253.165 343.231L252.827 360.549L237.999 351.598ZM259.311 352.013L259.281 353.513L259.311 352.013ZM273.696 352.294L273.725 350.794L273.725 350.794L273.696 352.294ZM370.032 207.213L369.026 208.88L366.457 207.33L367.464 205.662L370.032 207.213ZM365 215.55L362.987 218.884L360.418 217.334L362.431 213.999L365 215.55ZM358.961 225.554L356.948 228.889L354.379 227.338L356.392 224.003L358.961 225.554ZM352.922 235.558L350.909 238.893L348.341 237.343L350.354 234.008L352.922 235.558ZM346.883 245.562L344.87 248.897L342.302 247.347L344.315 244.012L346.883 245.562ZM340.844 255.567L338.831 258.901L336.263 257.351L338.276 254.016L340.844 255.567ZM334.805 265.571L332.792 268.906L330.224 267.355L332.237 264.021L334.805 265.571ZM328.766 275.575L326.753 278.91L324.185 277.36L326.198 274.025L328.766 275.575ZM322.727 285.579L320.714 288.914L318.146 287.364L320.159 284.029L322.727 285.579ZM316.688 295.584L314.675 298.918L312.107 297.368L314.12 294.033L316.688 295.584ZM310.649 305.588L308.636 308.923L306.068 307.372L308.081 304.038L310.649 305.588ZM304.61 315.592L302.597 318.927L300.029 317.377L302.042 314.042L304.61 315.592ZM298.571 325.597L296.558 328.931L293.99 327.381L296.003 324.046L298.571 325.597ZM292.532 335.601L290.519 338.936L287.951 337.385L289.964 334.05L292.532 335.601ZM286.493 345.605L285.487 347.272L282.919 345.722L283.925 344.055L286.493 345.605ZM285.487 347.272C285.077 347.952 284.612 348.587 284.1 349.174L281.84 347.201C282.238 346.745 282.599 346.251 282.919 345.722L285.487 347.272ZM276.014 353.634C275.245 353.754 274.46 353.809 273.666 353.793L273.725 350.794C274.342 350.806 274.953 350.764 275.551 350.67L276.014 353.634ZM273.666 353.793L271.269 353.747L271.327 350.747L273.725 350.794L273.666 353.793ZM261.679 353.56L259.281 353.513L259.34 350.513L261.737 350.56L261.679 353.56ZM259.281 353.513L257.505 353.478L257.564 350.479L259.34 350.513L259.281 353.513ZM250.401 353.34L246.849 353.271L246.908 350.271L250.46 350.34L250.401 353.34Z" fill="#FACCBB"/>
<path d="M111.559 177.827C105.371 174.255 101.559 167.652 101.559 160.507L101.559 93.6008C101.559 86.4555 105.371 79.853 111.559 76.2803L169.501 42.8273C175.689 39.2547 183.313 39.2547 189.501 42.8273L247.443 76.2803C253.631 79.853 257.443 86.4555 257.443 93.6008L257.443 160.507C257.443 167.652 253.631 174.255 247.443 177.827L189.501 211.28C183.313 214.853 175.689 214.853 169.501 211.28L111.559 177.827Z" fill="white"/>
<path d="M148.044 83.4993V156.227H134.869V96.3189H134.443L117.433 107.185V95.1115L135.509 83.4993H148.044Z" fill="#F8F7F3"/>
<g clip-path="url(#clip0_3925_27156)">
<path d="M161 109.58L174.5 95.1201L181.5 107.24L162.24 111.7L161 109.58Z" fill="#F9E9E7"/>
<path d="M174.094 94.4092L181.909 107.946" stroke="#F37441" stroke-linecap="round" stroke-linejoin="round"/>
<path d="M181.5 107.235L162.234 111.709L161 109.571L174.508 95.123" stroke="#F37441" stroke-linecap="round" stroke-linejoin="round"/>
<path d="M166.426 110.734L167.487 112.571C167.872 113.231 168.503 113.711 169.241 113.905C169.98 114.099 170.765 113.992 171.425 113.607C172.084 113.223 172.564 112.591 172.758 111.853C172.953 111.114 172.846 110.329 172.461 109.669L172.291 109.375" stroke="#F37441" stroke-linecap="round" stroke-linejoin="round"/>
<path d="M174 90.6907V88" stroke="#F37441" stroke-linecap="round" stroke-linejoin="round"/>
<path d="M184.309 101.001H186.999" stroke="#F37441" stroke-linecap="round" stroke-linejoin="round"/>
<path d="M161 101.001H163.691" stroke="#F37441" stroke-linecap="round" stroke-linejoin="round"/>
<path d="M164.805 91.8076L166.707 93.7103" stroke="#F37441" stroke-linecap="round" stroke-linejoin="round"/>
<path d="M181.289 93.7102L183.192 91.8076" stroke="#F37441" stroke-linecap="round" stroke-linejoin="round"/>
</g>
<path d="M162.409 123.364H164.091L168.045 133.023H168.182L172.136 123.364H173.818V135H172.5V126.159H172.386L168.75 135H167.477L163.841 126.159H163.727V135H162.409V123.364ZM179.03 135.205C178.477 135.205 177.975 135.1 177.524 134.892C177.073 134.68 176.715 134.375 176.45 133.977C176.185 133.576 176.053 133.091 176.053 132.523C176.053 132.023 176.151 131.617 176.348 131.307C176.545 130.992 176.808 130.746 177.138 130.568C177.467 130.39 177.831 130.258 178.229 130.17C178.63 130.08 179.034 130.008 179.439 129.955C179.969 129.886 180.399 129.835 180.729 129.801C181.062 129.763 181.304 129.701 181.456 129.614C181.611 129.527 181.689 129.375 181.689 129.159V129.114C181.689 128.553 181.536 128.117 181.229 127.807C180.926 127.496 180.465 127.341 179.848 127.341C179.208 127.341 178.706 127.481 178.342 127.761C177.979 128.042 177.723 128.341 177.575 128.659L176.303 128.205C176.53 127.674 176.833 127.261 177.212 126.966C177.594 126.667 178.011 126.458 178.462 126.341C178.916 126.22 179.363 126.159 179.803 126.159C180.083 126.159 180.405 126.193 180.768 126.261C181.136 126.326 181.49 126.46 181.831 126.665C182.176 126.869 182.462 127.178 182.689 127.591C182.916 128.004 183.03 128.557 183.03 129.25V135H181.689V133.818H181.621C181.53 134.008 181.378 134.21 181.166 134.426C180.954 134.642 180.672 134.826 180.32 134.977C179.967 135.129 179.537 135.205 179.03 135.205ZM179.234 134C179.765 134 180.212 133.896 180.575 133.688C180.943 133.479 181.219 133.21 181.405 132.881C181.594 132.551 181.689 132.205 181.689 131.841V130.614C181.632 130.682 181.507 130.744 181.314 130.801C181.125 130.854 180.905 130.902 180.655 130.943C180.409 130.981 180.168 131.015 179.933 131.045C179.702 131.072 179.515 131.095 179.371 131.114C179.022 131.159 178.696 131.233 178.393 131.335C178.094 131.434 177.852 131.583 177.666 131.784C177.484 131.981 177.393 132.25 177.393 132.591C177.393 133.057 177.566 133.409 177.911 133.648C178.259 133.883 178.7 134 179.234 134ZM185.477 135V126.273H186.773V127.591H186.864C187.023 127.159 187.311 126.809 187.727 126.54C188.144 126.271 188.614 126.136 189.136 126.136C189.235 126.136 189.358 126.138 189.506 126.142C189.653 126.146 189.765 126.152 189.841 126.159V127.523C189.795 127.511 189.691 127.494 189.528 127.472C189.369 127.445 189.201 127.432 189.023 127.432C188.598 127.432 188.22 127.521 187.886 127.699C187.557 127.873 187.295 128.116 187.102 128.426C186.913 128.733 186.818 129.083 186.818 129.477V135H185.477ZM192.68 131.818L192.658 130.159H192.93L196.749 126.273H198.408L194.339 130.386H194.226L192.68 131.818ZM191.43 135V123.364H192.771V135H191.43ZM196.976 135L193.567 130.682L194.521 129.75L198.68 135H196.976ZM203.433 135.182C202.592 135.182 201.867 134.996 201.257 134.625C200.651 134.25 200.183 133.727 199.854 133.057C199.528 132.383 199.365 131.598 199.365 130.705C199.365 129.811 199.528 129.023 199.854 128.341C200.183 127.655 200.642 127.121 201.229 126.739C201.82 126.352 202.509 126.159 203.297 126.159C203.751 126.159 204.2 126.235 204.643 126.386C205.087 126.538 205.49 126.784 205.854 127.125C206.217 127.462 206.507 127.909 206.723 128.466C206.939 129.023 207.047 129.708 207.047 130.523V131.091H200.32V129.932H205.683C205.683 129.439 205.585 129 205.388 128.614C205.195 128.227 204.918 127.922 204.558 127.699C204.202 127.475 203.782 127.364 203.297 127.364C202.763 127.364 202.301 127.496 201.911 127.761C201.524 128.023 201.227 128.364 201.018 128.784C200.81 129.205 200.706 129.655 200.706 130.136V130.909C200.706 131.568 200.82 132.127 201.047 132.585C201.278 133.04 201.598 133.386 202.007 133.625C202.416 133.86 202.892 133.977 203.433 133.977C203.786 133.977 204.104 133.928 204.388 133.83C204.676 133.727 204.924 133.576 205.132 133.375C205.34 133.17 205.501 132.917 205.615 132.614L206.911 132.977C206.774 133.417 206.545 133.803 206.223 134.136C205.901 134.466 205.503 134.723 205.03 134.909C204.556 135.091 204.024 135.182 203.433 135.182ZM212.882 126.273V127.409H208.359V126.273H212.882ZM209.678 124.182H211.018V132.5C211.018 132.879 211.073 133.163 211.183 133.352C211.297 133.538 211.441 133.663 211.615 133.727C211.793 133.788 211.981 133.818 212.178 133.818C212.325 133.818 212.446 133.811 212.541 133.795C212.636 133.777 212.712 133.761 212.768 133.75L213.041 134.955C212.95 134.989 212.823 135.023 212.661 135.057C212.498 135.095 212.291 135.114 212.041 135.114C211.662 135.114 211.291 135.032 210.928 134.869C210.568 134.706 210.268 134.458 210.03 134.125C209.795 133.792 209.678 133.371 209.678 132.864V124.182ZM214.899 135V126.273H216.24V135H214.899ZM215.581 124.818C215.32 124.818 215.094 124.729 214.905 124.551C214.719 124.373 214.626 124.159 214.626 123.909C214.626 123.659 214.719 123.445 214.905 123.267C215.094 123.089 215.32 123 215.581 123C215.842 123 216.066 123.089 216.251 123.267C216.441 123.445 216.536 123.659 216.536 123.909C216.536 124.159 216.441 124.373 216.251 124.551C216.066 124.729 215.842 124.818 215.581 124.818ZM220.037 129.75V135H218.696V126.273H219.991V127.636H220.105C220.31 127.193 220.62 126.837 221.037 126.568C221.454 126.295 221.991 126.159 222.651 126.159C223.241 126.159 223.759 126.28 224.202 126.523C224.645 126.761 224.99 127.125 225.236 127.614C225.482 128.098 225.605 128.712 225.605 129.455V135H224.264V129.545C224.264 128.86 224.086 128.326 223.73 127.943C223.374 127.557 222.885 127.364 222.264 127.364C221.836 127.364 221.454 127.456 221.116 127.642C220.783 127.828 220.52 128.098 220.327 128.455C220.134 128.811 220.037 129.242 220.037 129.75ZM231.578 138.455C230.93 138.455 230.374 138.371 229.908 138.205C229.442 138.042 229.054 137.826 228.743 137.557C228.436 137.292 228.192 137.008 228.01 136.705L229.078 135.955C229.199 136.114 229.353 136.295 229.538 136.5C229.724 136.708 229.978 136.888 230.3 137.04C230.625 137.195 231.052 137.273 231.578 137.273C232.283 137.273 232.864 137.102 233.322 136.761C233.781 136.42 234.01 135.886 234.01 135.159V133.386H233.896C233.798 133.545 233.658 133.742 233.476 133.977C233.298 134.208 233.04 134.415 232.703 134.597C232.37 134.775 231.919 134.864 231.351 134.864C230.646 134.864 230.014 134.697 229.453 134.364C228.896 134.03 228.455 133.545 228.129 132.909C227.807 132.273 227.646 131.5 227.646 130.591C227.646 129.697 227.804 128.919 228.118 128.256C228.432 127.589 228.87 127.074 229.43 126.71C229.991 126.343 230.639 126.159 231.374 126.159C231.942 126.159 232.393 126.254 232.726 126.443C233.063 126.629 233.321 126.841 233.499 127.08C233.68 127.314 233.821 127.508 233.919 127.659H234.055V126.273H235.351V135.25C235.351 136 235.18 136.61 234.839 137.08C234.502 137.553 234.048 137.9 233.476 138.119C232.908 138.343 232.275 138.455 231.578 138.455ZM231.533 133.659C232.071 133.659 232.525 133.536 232.896 133.29C233.268 133.044 233.55 132.689 233.743 132.227C233.936 131.765 234.033 131.212 234.033 130.568C234.033 129.939 233.938 129.384 233.749 128.903C233.559 128.422 233.279 128.045 232.908 127.773C232.536 127.5 232.078 127.364 231.533 127.364C230.964 127.364 230.491 127.508 230.112 127.795C229.737 128.083 229.455 128.47 229.266 128.955C229.08 129.439 228.987 129.977 228.987 130.568C228.987 131.174 229.082 131.71 229.271 132.176C229.464 132.638 229.749 133.002 230.124 133.267C230.502 133.528 230.972 133.659 231.533 133.659ZM166 163H162.409V151.364H166.159C167.288 151.364 168.254 151.597 169.057 152.062C169.86 152.525 170.475 153.189 170.903 154.057C171.331 154.92 171.545 155.955 171.545 157.159C171.545 158.371 171.33 159.415 170.898 160.29C170.466 161.161 169.837 161.831 169.011 162.301C168.186 162.767 167.182 163 166 163ZM163.818 161.75H165.909C166.871 161.75 167.669 161.564 168.301 161.193C168.934 160.822 169.405 160.294 169.716 159.608C170.027 158.922 170.182 158.106 170.182 157.159C170.182 156.22 170.028 155.411 169.722 154.733C169.415 154.051 168.956 153.528 168.347 153.165C167.737 152.797 166.977 152.614 166.068 152.614H163.818V161.75ZM177.273 163.182C176.485 163.182 175.794 162.994 175.199 162.619C174.608 162.244 174.146 161.72 173.812 161.045C173.483 160.371 173.318 159.583 173.318 158.682C173.318 157.773 173.483 156.979 173.812 156.301C174.146 155.623 174.608 155.097 175.199 154.722C175.794 154.347 176.485 154.159 177.273 154.159C178.061 154.159 178.75 154.347 179.341 154.722C179.936 155.097 180.398 155.623 180.727 156.301C181.061 156.979 181.227 157.773 181.227 158.682C181.227 159.583 181.061 160.371 180.727 161.045C180.398 161.72 179.936 162.244 179.341 162.619C178.75 162.994 178.061 163.182 177.273 163.182ZM177.273 161.977C177.871 161.977 178.364 161.824 178.75 161.517C179.136 161.21 179.422 160.807 179.608 160.307C179.794 159.807 179.886 159.265 179.886 158.682C179.886 158.098 179.794 157.555 179.608 157.051C179.422 156.547 179.136 156.14 178.75 155.83C178.364 155.519 177.871 155.364 177.273 155.364C176.674 155.364 176.182 155.519 175.795 155.83C175.409 156.14 175.123 156.547 174.938 157.051C174.752 157.555 174.659 158.098 174.659 158.682C174.659 159.265 174.752 159.807 174.938 160.307C175.123 160.807 175.409 161.21 175.795 161.517C176.182 161.824 176.674 161.977 177.273 161.977ZM183.274 163V154.273H184.57V155.636H184.683C184.865 155.17 185.159 154.809 185.564 154.551C185.969 154.29 186.456 154.159 187.024 154.159C187.6 154.159 188.079 154.29 188.462 154.551C188.848 154.809 189.149 155.17 189.365 155.636H189.456C189.679 155.186 190.015 154.828 190.462 154.562C190.909 154.294 191.445 154.159 192.07 154.159C192.85 154.159 193.488 154.403 193.984 154.892C194.481 155.377 194.729 156.133 194.729 157.159V163H193.388V157.159C193.388 156.515 193.212 156.055 192.859 155.778C192.507 155.502 192.092 155.364 191.615 155.364C191.001 155.364 190.526 155.549 190.189 155.92C189.852 156.288 189.683 156.754 189.683 157.318V163H188.32V157.023C188.32 156.527 188.159 156.127 187.837 155.824C187.515 155.517 187.1 155.364 186.592 155.364C186.244 155.364 185.918 155.456 185.615 155.642C185.316 155.828 185.073 156.085 184.888 156.415C184.706 156.741 184.615 157.117 184.615 157.545V163H183.274ZM199.749 163.205C199.196 163.205 198.694 163.1 198.243 162.892C197.792 162.68 197.434 162.375 197.169 161.977C196.904 161.576 196.771 161.091 196.771 160.523C196.771 160.023 196.87 159.617 197.067 159.307C197.264 158.992 197.527 158.746 197.857 158.568C198.186 158.39 198.55 158.258 198.947 158.17C199.349 158.08 199.752 158.008 200.158 157.955C200.688 157.886 201.118 157.835 201.447 157.801C201.781 157.763 202.023 157.701 202.175 157.614C202.33 157.527 202.408 157.375 202.408 157.159V157.114C202.408 156.553 202.254 156.117 201.947 155.807C201.644 155.496 201.184 155.341 200.567 155.341C199.927 155.341 199.425 155.481 199.061 155.761C198.697 156.042 198.442 156.341 198.294 156.659L197.021 156.205C197.249 155.674 197.552 155.261 197.93 154.966C198.313 154.667 198.73 154.458 199.18 154.341C199.635 154.22 200.082 154.159 200.521 154.159C200.802 154.159 201.124 154.193 201.487 154.261C201.855 154.326 202.209 154.46 202.55 154.665C202.894 154.869 203.18 155.178 203.408 155.591C203.635 156.004 203.749 156.557 203.749 157.25V163H202.408V161.818H202.339C202.249 162.008 202.097 162.21 201.885 162.426C201.673 162.642 201.391 162.826 201.038 162.977C200.686 163.129 200.256 163.205 199.749 163.205ZM199.953 162C200.483 162 200.93 161.896 201.294 161.688C201.661 161.479 201.938 161.21 202.124 160.881C202.313 160.551 202.408 160.205 202.408 159.841V158.614C202.351 158.682 202.226 158.744 202.033 158.801C201.843 158.854 201.624 158.902 201.374 158.943C201.127 158.981 200.887 159.015 200.652 159.045C200.421 159.072 200.233 159.095 200.089 159.114C199.741 159.159 199.415 159.233 199.112 159.335C198.813 159.434 198.571 159.583 198.385 159.784C198.203 159.981 198.112 160.25 198.112 160.591C198.112 161.057 198.285 161.409 198.629 161.648C198.978 161.883 199.419 162 199.953 162ZM206.196 163V154.273H207.537V163H206.196ZM206.878 152.818C206.616 152.818 206.391 152.729 206.202 152.551C206.016 152.373 205.923 152.159 205.923 151.909C205.923 151.659 206.016 151.445 206.202 151.267C206.391 151.089 206.616 151 206.878 151C207.139 151 207.363 151.089 207.548 151.267C207.738 151.445 207.832 151.659 207.832 151.909C207.832 152.159 207.738 152.373 207.548 152.551C207.363 152.729 207.139 152.818 206.878 152.818ZM211.334 157.75V163H209.993V154.273H211.288V155.636H211.402C211.607 155.193 211.917 154.837 212.334 154.568C212.75 154.295 213.288 154.159 213.947 154.159C214.538 154.159 215.055 154.28 215.499 154.523C215.942 154.761 216.286 155.125 216.533 155.614C216.779 156.098 216.902 156.712 216.902 157.455V163H215.561V157.545C215.561 156.86 215.383 156.326 215.027 155.943C214.671 155.557 214.182 155.364 213.561 155.364C213.133 155.364 212.75 155.456 212.413 155.642C212.08 155.828 211.817 156.098 211.624 156.455C211.43 156.811 211.334 157.242 211.334 157.75Z" fill="#525D61"/>
<path d="M480.559 178.827C474.371 175.255 470.559 168.652 470.559 161.507L470.559 94.6008C470.559 87.4555 474.371 80.853 480.559 77.2803L538.501 43.8273C544.689 40.2547 552.313 40.2547 558.501 43.8273L616.443 77.2803C622.631 80.853 626.443 87.4555 626.443 94.6008L626.443 161.507C626.443 168.652 622.631 175.255 616.443 178.827L558.501 212.28C552.313 215.853 544.689 215.853 538.501 212.28L480.559 178.827Z" fill="white"/>
<path d="M489.463 158V148.483L514.712 123.732C517.126 121.293 519.139 119.127 520.749 117.233C522.358 115.339 523.566 113.504 524.371 111.729C525.176 109.953 525.578 108.059 525.578 106.047C525.578 103.75 525.057 101.786 524.016 100.152C522.974 98.4948 521.542 97.2164 519.719 96.3168C517.896 95.4171 515.824 94.9673 513.504 94.9673C511.113 94.9673 509.018 95.4645 507.219 96.4588C505.42 97.4294 504.023 98.8144 503.028 100.614C502.058 102.413 501.572 104.555 501.572 107.041H489.037C489.037 102.425 490.09 98.4119 492.197 95.0028C494.304 91.5937 497.205 88.9541 500.898 87.0838C504.615 85.2135 508.876 84.2784 513.682 84.2784C518.559 84.2784 522.844 85.1899 526.537 87.0128C530.23 88.8357 533.095 91.3333 535.131 94.5057C537.19 97.678 538.22 101.3 538.22 105.372C538.22 108.095 537.699 110.77 536.658 113.398C535.616 116.026 533.781 118.937 531.153 122.134C528.549 125.33 524.892 129.2 520.18 133.746L507.645 146.494V146.991H539.321V158H489.463Z" fill="#F8F7F3"/>
<path d="M546 101C546 103.652 547.054 106.196 548.929 108.071C550.804 109.946 553.348 111 556 111C558.652 111 561.196 109.946 563.071 108.071C564.946 106.196 566 103.652 566 101C566 98.3478 564.946 95.8043 563.071 93.9289C561.196 92.0536 558.652 91 556 91C553.348 91 550.804 92.0536 548.929 93.9289C547.054 95.8043 546 98.3478 546 101Z" fill="#F9E9E7" stroke="#F37441" stroke-linecap="round" stroke-linejoin="round"/>
<path d="M556 88V91" stroke="#F37441" stroke-linecap="round" stroke-linejoin="round"/>
<path d="M556 111V114" stroke="#F37441" stroke-linecap="round" stroke-linejoin="round"/>
<path d="M569 101H566" stroke="#F37441" stroke-linecap="round" stroke-linejoin="round"/>
<path d="M546 101H543" stroke="#F37441" stroke-linecap="round" stroke-linejoin="round"/>
<path d="M546.809 91.8076L548.93 93.9289" stroke="#F37441" stroke-linecap="round" stroke-linejoin="round"/>
<path d="M563.07 108.071L565.192 110.193" stroke="#F37441" stroke-linecap="round" stroke-linejoin="round"/>
<path d="M565.192 91.8076L563.07 93.9289" stroke="#F37441" stroke-linecap="round" stroke-linejoin="round"/>
<path d="M548.93 108.071L546.809 110.193" stroke="#F37441" stroke-linecap="round" stroke-linejoin="round"/>
<path d="M546 101C546 103.652 547.054 106.196 548.929 108.071C550.804 109.946 553.348 111 556 111C558.652 111 561.196 109.946 563.071 108.071C564.946 106.196 566 103.652 566 101C566 98.3478 564.946 95.8043 563.071 93.9289C561.196 92.0536 558.652 91 556 91C553.348 91 550.804 92.0536 548.929 93.9289C547.054 95.8043 546 98.3478 546 101Z" stroke="#F37441" stroke-linecap="round" stroke-linejoin="round"/>
<path d="M556 101H566" stroke="#F37441" stroke-linecap="round" stroke-linejoin="round"/>
<path d="M551 92.3398L556 101" stroke="#F37441" stroke-linecap="round" stroke-linejoin="round"/>
<path d="M551 109.66L556 101" stroke="#F37441" stroke-linecap="round" stroke-linejoin="round"/>
<path d="M544.227 125.182C544.227 126.409 544.006 127.47 543.562 128.364C543.119 129.258 542.511 129.947 541.739 130.432C540.966 130.917 540.083 131.159 539.091 131.159C538.098 131.159 537.216 130.917 536.443 130.432C535.67 129.947 535.063 129.258 534.619 128.364C534.176 127.47 533.955 126.409 533.955 125.182C533.955 123.955 534.176 122.894 534.619 122C535.063 121.106 535.67 120.417 536.443 119.932C537.216 119.447 538.098 119.205 539.091 119.205C540.083 119.205 540.966 119.447 541.739 119.932C542.511 120.417 543.119 121.106 543.562 122C544.006 122.894 544.227 123.955 544.227 125.182ZM542.864 125.182C542.864 124.174 542.695 123.324 542.358 122.631C542.025 121.938 541.572 121.413 541 121.057C540.432 120.701 539.795 120.523 539.091 120.523C538.386 120.523 537.748 120.701 537.176 121.057C536.608 121.413 536.155 121.938 535.818 122.631C535.485 123.324 535.318 124.174 535.318 125.182C535.318 126.189 535.485 127.04 535.818 127.733C536.155 128.426 536.608 128.951 537.176 129.307C537.748 129.663 538.386 129.841 539.091 129.841C539.795 129.841 540.432 129.663 541 129.307C541.572 128.951 542.025 128.426 542.358 127.733C542.695 127.04 542.864 126.189 542.864 125.182ZM546.415 134.273V122.273H547.71V123.659H547.869C547.968 123.508 548.104 123.314 548.278 123.08C548.456 122.841 548.71 122.629 549.04 122.443C549.373 122.254 549.824 122.159 550.392 122.159C551.127 122.159 551.775 122.343 552.335 122.71C552.896 123.078 553.333 123.598 553.648 124.273C553.962 124.947 554.119 125.742 554.119 126.659C554.119 127.583 553.962 128.384 553.648 129.062C553.333 129.737 552.898 130.259 552.341 130.631C551.784 130.998 551.142 131.182 550.415 131.182C549.854 131.182 549.405 131.089 549.068 130.903C548.731 130.714 548.472 130.5 548.29 130.261C548.108 130.019 547.968 129.818 547.869 129.659H547.756V134.273H546.415ZM547.733 126.636C547.733 127.295 547.83 127.877 548.023 128.381C548.216 128.881 548.498 129.273 548.869 129.557C549.241 129.837 549.695 129.977 550.233 129.977C550.794 129.977 551.261 129.83 551.636 129.534C552.015 129.235 552.299 128.833 552.489 128.33C552.682 127.822 552.778 127.258 552.778 126.636C552.778 126.023 552.684 125.47 552.494 124.977C552.309 124.481 552.027 124.089 551.648 123.801C551.273 123.509 550.801 123.364 550.233 123.364C549.688 123.364 549.229 123.502 548.858 123.778C548.487 124.051 548.206 124.434 548.017 124.926C547.828 125.415 547.733 125.985 547.733 126.636ZM559.824 131.182C558.983 131.182 558.258 130.996 557.648 130.625C557.042 130.25 556.574 129.727 556.244 129.057C555.919 128.383 555.756 127.598 555.756 126.705C555.756 125.811 555.919 125.023 556.244 124.341C556.574 123.655 557.032 123.121 557.619 122.739C558.21 122.352 558.9 122.159 559.688 122.159C560.142 122.159 560.591 122.235 561.034 122.386C561.477 122.538 561.881 122.784 562.244 123.125C562.608 123.462 562.898 123.909 563.114 124.466C563.33 125.023 563.438 125.708 563.438 126.523V127.091H556.71V125.932H562.074C562.074 125.439 561.975 125 561.778 124.614C561.585 124.227 561.309 123.922 560.949 123.699C560.593 123.475 560.172 123.364 559.688 123.364C559.153 123.364 558.691 123.496 558.301 123.761C557.915 124.023 557.617 124.364 557.409 124.784C557.201 125.205 557.097 125.655 557.097 126.136V126.909C557.097 127.568 557.21 128.127 557.438 128.585C557.669 129.04 557.989 129.386 558.398 129.625C558.807 129.86 559.282 129.977 559.824 129.977C560.176 129.977 560.494 129.928 560.778 129.83C561.066 129.727 561.314 129.576 561.523 129.375C561.731 129.17 561.892 128.917 562.006 128.614L563.301 128.977C563.165 129.417 562.936 129.803 562.614 130.136C562.292 130.466 561.894 130.723 561.42 130.909C560.947 131.091 560.415 131.182 559.824 131.182ZM565.477 131V122.273H566.773V123.591H566.864C567.023 123.159 567.311 122.809 567.727 122.54C568.144 122.271 568.614 122.136 569.136 122.136C569.235 122.136 569.358 122.138 569.506 122.142C569.653 122.146 569.765 122.152 569.841 122.159V123.523C569.795 123.511 569.691 123.494 569.528 123.472C569.369 123.445 569.201 123.432 569.023 123.432C568.598 123.432 568.22 123.521 567.886 123.699C567.557 123.873 567.295 124.116 567.102 124.426C566.913 124.733 566.818 125.083 566.818 125.477V131H565.477ZM573.999 131.205C573.446 131.205 572.944 131.1 572.493 130.892C572.042 130.68 571.684 130.375 571.419 129.977C571.154 129.576 571.021 129.091 571.021 128.523C571.021 128.023 571.12 127.617 571.317 127.307C571.514 126.992 571.777 126.746 572.107 126.568C572.436 126.39 572.8 126.258 573.197 126.17C573.599 126.08 574.002 126.008 574.408 125.955C574.938 125.886 575.368 125.835 575.697 125.801C576.031 125.763 576.273 125.701 576.425 125.614C576.58 125.527 576.658 125.375 576.658 125.159V125.114C576.658 124.553 576.504 124.117 576.197 123.807C575.894 123.496 575.434 123.341 574.817 123.341C574.177 123.341 573.675 123.481 573.311 123.761C572.947 124.042 572.692 124.341 572.544 124.659L571.271 124.205C571.499 123.674 571.802 123.261 572.18 122.966C572.563 122.667 572.98 122.458 573.43 122.341C573.885 122.22 574.332 122.159 574.771 122.159C575.052 122.159 575.374 122.193 575.737 122.261C576.105 122.326 576.459 122.46 576.8 122.665C577.144 122.869 577.43 123.178 577.658 123.591C577.885 124.004 577.999 124.557 577.999 125.25V131H576.658V129.818H576.589C576.499 130.008 576.347 130.21 576.135 130.426C575.923 130.642 575.641 130.826 575.288 130.977C574.936 131.129 574.506 131.205 573.999 131.205ZM574.203 130C574.733 130 575.18 129.896 575.544 129.688C575.911 129.479 576.188 129.21 576.374 128.881C576.563 128.551 576.658 128.205 576.658 127.841V126.614C576.601 126.682 576.476 126.744 576.283 126.801C576.093 126.854 575.874 126.902 575.624 126.943C575.377 126.981 575.137 127.015 574.902 127.045C574.671 127.072 574.483 127.095 574.339 127.114C573.991 127.159 573.665 127.233 573.362 127.335C573.063 127.434 572.821 127.583 572.635 127.784C572.453 127.981 572.362 128.25 572.362 128.591C572.362 129.057 572.535 129.409 572.879 129.648C573.228 129.883 573.669 130 574.203 130ZM584.241 122.273V123.409H579.719V122.273H584.241ZM581.037 120.182H582.378V128.5C582.378 128.879 582.433 129.163 582.543 129.352C582.656 129.538 582.8 129.663 582.974 129.727C583.152 129.788 583.34 129.818 583.537 129.818C583.685 129.818 583.806 129.811 583.901 129.795C583.995 129.777 584.071 129.761 584.128 129.75L584.401 130.955C584.31 130.989 584.183 131.023 584.02 131.057C583.857 131.095 583.651 131.114 583.401 131.114C583.022 131.114 582.651 131.032 582.287 130.869C581.927 130.706 581.628 130.458 581.389 130.125C581.154 129.792 581.037 129.371 581.037 128.864V120.182ZM586.259 131V122.273H587.599V131H586.259ZM586.94 120.818C586.679 120.818 586.454 120.729 586.264 120.551C586.079 120.373 585.986 120.159 585.986 119.909C585.986 119.659 586.079 119.445 586.264 119.267C586.454 119.089 586.679 119 586.94 119C587.202 119 587.425 119.089 587.611 119.267C587.8 119.445 587.895 119.659 587.895 119.909C587.895 120.159 587.8 120.373 587.611 120.551C587.425 120.729 587.202 120.818 586.94 120.818ZM593.601 131.182C592.813 131.182 592.122 130.994 591.527 130.619C590.936 130.244 590.474 129.72 590.141 129.045C589.811 128.371 589.646 127.583 589.646 126.682C589.646 125.773 589.811 124.979 590.141 124.301C590.474 123.623 590.936 123.097 591.527 122.722C592.122 122.347 592.813 122.159 593.601 122.159C594.389 122.159 595.078 122.347 595.669 122.722C596.264 123.097 596.726 123.623 597.055 124.301C597.389 124.979 597.555 125.773 597.555 126.682C597.555 127.583 597.389 128.371 597.055 129.045C596.726 129.72 596.264 130.244 595.669 130.619C595.078 130.994 594.389 131.182 593.601 131.182ZM593.601 129.977C594.199 129.977 594.692 129.824 595.078 129.517C595.464 129.21 595.75 128.807 595.936 128.307C596.122 127.807 596.214 127.265 596.214 126.682C596.214 126.098 596.122 125.555 595.936 125.051C595.75 124.547 595.464 124.14 595.078 123.83C594.692 123.519 594.199 123.364 593.601 123.364C593.002 123.364 592.51 123.519 592.124 123.83C591.737 124.14 591.451 124.547 591.266 125.051C591.08 125.555 590.987 126.098 590.987 126.682C590.987 127.265 591.08 127.807 591.266 128.307C591.451 128.807 591.737 129.21 592.124 129.517C592.51 129.824 593.002 129.977 593.601 129.977ZM600.943 125.75V131H599.602V122.273H600.898V123.636H601.011C601.216 123.193 601.527 122.837 601.943 122.568C602.36 122.295 602.898 122.159 603.557 122.159C604.148 122.159 604.665 122.28 605.108 122.523C605.551 122.761 605.896 123.125 606.142 123.614C606.388 124.098 606.511 124.712 606.511 125.455V131H605.17V125.545C605.17 124.86 604.992 124.326 604.636 123.943C604.28 123.557 603.792 123.364 603.17 123.364C602.742 123.364 602.36 123.456 602.023 123.642C601.689 123.828 601.426 124.098 601.233 124.455C601.04 124.811 600.943 125.242 600.943 125.75ZM615.143 124.227L613.939 124.568C613.863 124.367 613.751 124.172 613.604 123.983C613.46 123.79 613.263 123.631 613.013 123.506C612.763 123.381 612.443 123.318 612.053 123.318C611.518 123.318 611.073 123.441 610.717 123.688C610.365 123.93 610.189 124.239 610.189 124.614C610.189 124.947 610.31 125.21 610.553 125.403C610.795 125.597 611.174 125.758 611.689 125.886L612.984 126.205C613.765 126.394 614.346 126.684 614.729 127.074C615.111 127.46 615.303 127.958 615.303 128.568C615.303 129.068 615.159 129.515 614.871 129.909C614.587 130.303 614.189 130.614 613.678 130.841C613.166 131.068 612.571 131.182 611.893 131.182C611.003 131.182 610.267 130.989 609.683 130.602C609.1 130.216 608.731 129.652 608.575 128.909L609.848 128.591C609.969 129.061 610.198 129.413 610.536 129.648C610.876 129.883 611.321 130 611.871 130C612.496 130 612.992 129.867 613.359 129.602C613.731 129.333 613.916 129.011 613.916 128.636C613.916 128.333 613.81 128.08 613.598 127.875C613.386 127.667 613.06 127.511 612.621 127.409L611.166 127.068C610.367 126.879 609.78 126.585 609.405 126.188C609.034 125.786 608.848 125.284 608.848 124.682C608.848 124.189 608.986 123.754 609.263 123.375C609.543 122.996 609.924 122.699 610.405 122.483C610.89 122.267 611.439 122.159 612.053 122.159C612.916 122.159 613.594 122.348 614.087 122.727C614.583 123.106 614.935 123.606 615.143 124.227ZM538 159H534.409V147.364H538.159C539.288 147.364 540.254 147.597 541.057 148.062C541.86 148.525 542.475 149.189 542.903 150.057C543.331 150.92 543.545 151.955 543.545 153.159C543.545 154.371 543.33 155.415 542.898 156.29C542.466 157.161 541.837 157.831 541.011 158.301C540.186 158.767 539.182 159 538 159ZM535.818 157.75H537.909C538.871 157.75 539.669 157.564 540.301 157.193C540.934 156.822 541.405 156.294 541.716 155.608C542.027 154.922 542.182 154.106 542.182 153.159C542.182 152.22 542.028 151.411 541.722 150.733C541.415 150.051 540.956 149.528 540.347 149.165C539.737 148.797 538.977 148.614 538.068 148.614H535.818V157.75ZM549.273 159.182C548.485 159.182 547.794 158.994 547.199 158.619C546.608 158.244 546.146 157.72 545.812 157.045C545.483 156.371 545.318 155.583 545.318 154.682C545.318 153.773 545.483 152.979 545.812 152.301C546.146 151.623 546.608 151.097 547.199 150.722C547.794 150.347 548.485 150.159 549.273 150.159C550.061 150.159 550.75 150.347 551.341 150.722C551.936 151.097 552.398 151.623 552.727 152.301C553.061 152.979 553.227 153.773 553.227 154.682C553.227 155.583 553.061 156.371 552.727 157.045C552.398 157.72 551.936 158.244 551.341 158.619C550.75 158.994 550.061 159.182 549.273 159.182ZM549.273 157.977C549.871 157.977 550.364 157.824 550.75 157.517C551.136 157.21 551.422 156.807 551.608 156.307C551.794 155.807 551.886 155.265 551.886 154.682C551.886 154.098 551.794 153.555 551.608 153.051C551.422 152.547 551.136 152.14 550.75 151.83C550.364 151.519 549.871 151.364 549.273 151.364C548.674 151.364 548.182 151.519 547.795 151.83C547.409 152.14 547.123 152.547 546.938 153.051C546.752 153.555 546.659 154.098 546.659 154.682C546.659 155.265 546.752 155.807 546.938 156.307C547.123 156.807 547.409 157.21 547.795 157.517C548.182 157.824 548.674 157.977 549.273 157.977ZM555.274 159V150.273H556.57V151.636H556.683C556.865 151.17 557.159 150.809 557.564 150.551C557.969 150.29 558.456 150.159 559.024 150.159C559.6 150.159 560.079 150.29 560.462 150.551C560.848 150.809 561.149 151.17 561.365 151.636H561.456C561.679 151.186 562.015 150.828 562.462 150.562C562.909 150.294 563.445 150.159 564.07 150.159C564.85 150.159 565.488 150.403 565.984 150.892C566.481 151.377 566.729 152.133 566.729 153.159V159H565.388V153.159C565.388 152.515 565.212 152.055 564.859 151.778C564.507 151.502 564.092 151.364 563.615 151.364C563.001 151.364 562.526 151.549 562.189 151.92C561.852 152.288 561.683 152.754 561.683 153.318V159H560.32V153.023C560.32 152.527 560.159 152.127 559.837 151.824C559.515 151.517 559.1 151.364 558.592 151.364C558.244 151.364 557.918 151.456 557.615 151.642C557.316 151.828 557.073 152.085 556.888 152.415C556.706 152.741 556.615 153.117 556.615 153.545V159H555.274ZM571.749 159.205C571.196 159.205 570.694 159.1 570.243 158.892C569.792 158.68 569.434 158.375 569.169 157.977C568.904 157.576 568.771 157.091 568.771 156.523C568.771 156.023 568.87 155.617 569.067 155.307C569.264 154.992 569.527 154.746 569.857 154.568C570.186 154.39 570.55 154.258 570.947 154.17C571.349 154.08 571.752 154.008 572.158 153.955C572.688 153.886 573.118 153.835 573.447 153.801C573.781 153.763 574.023 153.701 574.175 153.614C574.33 153.527 574.408 153.375 574.408 153.159V153.114C574.408 152.553 574.254 152.117 573.947 151.807C573.644 151.496 573.184 151.341 572.567 151.341C571.927 151.341 571.425 151.481 571.061 151.761C570.697 152.042 570.442 152.341 570.294 152.659L569.021 152.205C569.249 151.674 569.552 151.261 569.93 150.966C570.313 150.667 570.73 150.458 571.18 150.341C571.635 150.22 572.082 150.159 572.521 150.159C572.802 150.159 573.124 150.193 573.487 150.261C573.855 150.326 574.209 150.46 574.55 150.665C574.894 150.869 575.18 151.178 575.408 151.591C575.635 152.004 575.749 152.557 575.749 153.25V159H574.408V157.818H574.339C574.249 158.008 574.097 158.21 573.885 158.426C573.673 158.642 573.391 158.826 573.038 158.977C572.686 159.129 572.256 159.205 571.749 159.205ZM571.953 158C572.483 158 572.93 157.896 573.294 157.688C573.661 157.479 573.938 157.21 574.124 156.881C574.313 156.551 574.408 156.205 574.408 155.841V154.614C574.351 154.682 574.226 154.744 574.033 154.801C573.843 154.854 573.624 154.902 573.374 154.943C573.127 154.981 572.887 155.015 572.652 155.045C572.421 155.072 572.233 155.095 572.089 155.114C571.741 155.159 571.415 155.233 571.112 155.335C570.813 155.434 570.571 155.583 570.385 155.784C570.203 155.981 570.112 156.25 570.112 156.591C570.112 157.057 570.285 157.409 570.629 157.648C570.978 157.883 571.419 158 571.953 158ZM578.196 159V150.273H579.537V159H578.196ZM578.878 148.818C578.616 148.818 578.391 148.729 578.202 148.551C578.016 148.373 577.923 148.159 577.923 147.909C577.923 147.659 578.016 147.445 578.202 147.267C578.391 147.089 578.616 147 578.878 147C579.139 147 579.363 147.089 579.548 147.267C579.738 147.445 579.832 147.659 579.832 147.909C579.832 148.159 579.738 148.373 579.548 148.551C579.363 148.729 579.139 148.818 578.878 148.818ZM583.334 153.75V159H581.993V150.273H583.288V151.636H583.402C583.607 151.193 583.917 150.837 584.334 150.568C584.75 150.295 585.288 150.159 585.947 150.159C586.538 150.159 587.055 150.28 587.499 150.523C587.942 150.761 588.286 151.125 588.533 151.614C588.779 152.098 588.902 152.712 588.902 153.455V159H587.561V153.545C587.561 152.86 587.383 152.326 587.027 151.943C586.671 151.557 586.182 151.364 585.561 151.364C585.133 151.364 584.75 151.456 584.413 151.642C584.08 151.828 583.817 152.098 583.624 152.455C583.43 152.811 583.334 153.242 583.334 153.75Z" fill="#525D61"/>
<path d="M107.559 404.827C101.371 401.255 97.5586 394.652 97.5586 387.507L97.5586 320.601C97.5586 313.456 101.371 306.853 107.559 303.28L165.501 269.827C171.689 266.255 179.313 266.255 185.501 269.827L243.443 303.28C249.631 306.853 253.443 313.456 253.443 320.601L253.443 387.507C253.443 394.652 249.631 401.255 243.443 404.827L185.501 438.28C179.313 441.853 171.689 441.853 165.501 438.28L107.559 404.827Z" fill="white"/>
<path d="M140.564 388.221C135.45 388.221 130.905 387.345 126.928 385.593C122.974 383.841 119.849 381.403 117.553 378.278C115.256 375.153 114.037 371.542 113.895 367.447H127.247C127.366 369.412 128.017 371.128 129.2 372.596C130.384 374.04 131.958 375.165 133.923 375.969C135.888 376.774 138.09 377.177 140.528 377.177C143.133 377.177 145.441 376.727 147.453 375.827C149.465 374.904 151.04 373.626 152.176 371.992C153.313 370.359 153.869 368.477 153.845 366.346C153.869 364.144 153.301 362.203 152.141 360.522C150.981 358.841 149.3 357.527 147.098 356.58C144.92 355.633 142.292 355.16 139.214 355.16H132.787V345.004H139.214C141.748 345.004 143.961 344.566 145.855 343.69C147.773 342.814 149.276 341.583 150.365 339.996C151.454 338.387 151.987 336.528 151.963 334.421C151.987 332.362 151.525 330.574 150.578 329.059C149.655 327.52 148.341 326.325 146.636 325.472C144.955 324.62 142.979 324.194 140.706 324.194C138.481 324.194 136.421 324.596 134.527 325.401C132.633 326.206 131.106 327.354 129.946 328.846C128.786 330.314 128.17 332.066 128.099 334.102H115.422C115.517 330.03 116.688 326.455 118.938 323.377C121.21 320.276 124.241 317.861 128.028 316.133C131.816 314.381 136.066 313.505 140.777 313.505C145.63 313.505 149.844 314.416 153.419 316.239C157.018 318.039 159.799 320.465 161.764 323.519C163.729 326.573 164.712 329.947 164.712 333.64C164.735 337.736 163.528 341.168 161.089 343.938C158.675 346.708 155.502 348.519 151.572 349.371V349.94C156.686 350.65 160.604 352.544 163.327 355.621C166.073 358.675 167.434 362.475 167.411 367.021C167.411 371.093 166.25 374.738 163.93 377.958C161.634 381.154 158.462 383.664 154.413 385.487C150.389 387.309 145.772 388.221 140.564 388.221Z" fill="#F8F7F3"/>
<path d="M187.32 322.28L186.46 324.5L183.5 326.18L181.14 325.82C180.747 325.767 180.347 325.831 179.991 326.006C179.635 326.18 179.339 326.457 179.14 326.8L178.34 328.2C178.135 328.549 178.041 328.951 178.069 329.355C178.098 329.758 178.248 330.144 178.5 330.46L180 332.32V333.773C180.929 333.349 181.943 333.072 183.017 332.971C184.049 332.875 185.159 332.776 186.219 332.695C186.415 332.127 186.739 331.605 187.172 331.172C187.922 330.421 188.939 330 190 330C190.791 330 191.565 330.235 192.223 330.674C192.88 331.114 193.393 331.738 193.696 332.469C193.727 332.544 193.755 332.619 193.781 332.695C194.842 332.776 195.952 332.875 196.984 332.971C198.058 333.072 199.072 333.349 200 333.773V332.32L201.46 330.46C201.712 330.144 201.863 329.758 201.891 329.355C201.92 328.951 201.825 328.549 201.62 328.2L200.82 326.8C200.622 326.457 200.325 326.18 199.969 326.006C199.613 325.831 199.213 325.767 198.82 325.82L196.46 326.18L193.54 324.5L192.68 322.28C192.535 321.904 192.28 321.581 191.948 321.352C191.616 321.124 191.223 321.001 190.82 321H189.18C188.777 321.001 188.384 321.124 188.052 321.352C187.721 321.581 187.465 321.904 187.32 322.28Z" fill="#F9E9E7"/>
<path d="M180 333.773V332.32L178.5 330.46C178.248 330.144 178.098 329.758 178.069 329.355C178.041 328.951 178.135 328.549 178.34 328.2L179.14 326.8C179.339 326.457 179.635 326.18 179.991 326.006C180.347 325.831 180.747 325.767 181.14 325.82L183.5 326.18L186.46 324.5L187.32 322.28C187.465 321.904 187.721 321.581 188.052 321.352C188.384 321.124 188.777 321.001 189.18 321H190.82C191.223 321.001 191.616 321.124 191.948 321.352C192.28 321.581 192.535 321.904 192.68 322.28L193.54 324.5L196.46 326.18L198.82 325.82C199.213 325.767 199.613 325.831 199.969 326.006C200.325 326.18 200.622 326.457 200.82 326.8L201.62 328.2C201.825 328.549 201.92 328.951 201.891 329.355C201.863 329.758 201.712 330.144 201.46 330.46L200 332.32V333.773" stroke="#F37441" stroke-linecap="round" stroke-linejoin="round"/>
<path d="M186.219 332.695C186.415 332.127 186.738 331.605 187.171 331.172C187.921 330.421 188.939 330 190 330C190.791 330 191.564 330.235 192.222 330.674C192.88 331.114 193.393 331.738 193.695 332.469C193.726 332.544 193.755 332.619 193.781 332.695" stroke="#F37441" stroke-linecap="round" stroke-linejoin="round"/>
<path d="M180 345H183.5C184.328 345 185 344.328 185 343.5C185 342.672 185.672 342 186.5 342H193.5C194.328 342 195 342.672 195 343.5C195 344.328 195.672 345 196.5 345H200C201.105 345 202 344.105 202 343V342.37C202 339.313 199.702 336.741 196.658 336.456C194.152 336.221 191.412 336 190 336C188.588 336 185.848 336.221 183.342 336.456C180.298 336.741 178 339.313 178 342.37V343C178 344.105 178.895 345 180 345Z" fill="white"/>
<path d="M180 345H183.5C184.328 345 185 344.328 185 343.5C185 342.672 185.672 342 186.5 342H193.5C194.328 342 195 342.672 195 343.5C195 344.328 195.672 345 196.5 345H200C201.105 345 202 344.105 202 343V342.37C202 339.313 199.702 336.741 196.658 336.456C194.152 336.221 191.412 336 190 336C188.588 336 185.848 336.221 183.342 336.456C180.298 336.741 178 339.313 178 342.37V343C178 344.105 178.895 345 180 345Z" stroke="#F37441" stroke-linecap="round" stroke-linejoin="round"/>
<path d="M183.773 356.273C183.705 355.697 183.428 355.25 182.943 354.932C182.458 354.614 181.864 354.455 181.159 354.455C180.644 354.455 180.193 354.538 179.807 354.705C179.424 354.871 179.125 355.1 178.909 355.392C178.697 355.684 178.591 356.015 178.591 356.386C178.591 356.697 178.665 356.964 178.812 357.188C178.964 357.407 179.157 357.591 179.392 357.739C179.627 357.883 179.873 358.002 180.131 358.097C180.388 358.187 180.625 358.261 180.841 358.318L182.023 358.636C182.326 358.716 182.663 358.826 183.034 358.966C183.409 359.106 183.767 359.297 184.108 359.54C184.453 359.778 184.737 360.085 184.96 360.46C185.184 360.835 185.295 361.295 185.295 361.841C185.295 362.47 185.131 363.038 184.801 363.545C184.475 364.053 183.998 364.456 183.369 364.756C182.744 365.055 181.985 365.205 181.091 365.205C180.258 365.205 179.536 365.07 178.926 364.801C178.32 364.532 177.843 364.157 177.494 363.676C177.15 363.195 176.955 362.636 176.909 362H178.364C178.402 362.439 178.549 362.803 178.807 363.091C179.068 363.375 179.398 363.587 179.795 363.727C180.197 363.864 180.629 363.932 181.091 363.932C181.629 363.932 182.112 363.845 182.54 363.67C182.968 363.492 183.307 363.246 183.557 362.932C183.807 362.614 183.932 362.242 183.932 361.818C183.932 361.432 183.824 361.117 183.608 360.875C183.392 360.633 183.108 360.436 182.756 360.284C182.403 360.133 182.023 360 181.614 359.886L180.182 359.477C179.273 359.216 178.553 358.843 178.023 358.358C177.492 357.873 177.227 357.239 177.227 356.455C177.227 355.803 177.403 355.235 177.756 354.75C178.112 354.261 178.589 353.883 179.188 353.614C179.79 353.341 180.462 353.205 181.205 353.205C181.955 353.205 182.621 353.339 183.205 353.608C183.788 353.873 184.25 354.237 184.591 354.699C184.936 355.161 185.117 355.686 185.136 356.273H183.773ZM192.93 361.432V356.273H194.271V365H192.93V363.523H192.839C192.635 363.966 192.317 364.343 191.885 364.653C191.453 364.96 190.908 365.114 190.249 365.114C189.703 365.114 189.218 364.994 188.794 364.756C188.37 364.513 188.036 364.15 187.794 363.665C187.552 363.176 187.43 362.561 187.43 361.818V356.273H188.771V361.727C188.771 362.364 188.949 362.871 189.305 363.25C189.665 363.629 190.124 363.818 190.68 363.818C191.014 363.818 191.353 363.733 191.697 363.562C192.046 363.392 192.338 363.131 192.572 362.778C192.811 362.426 192.93 361.977 192.93 361.432ZM196.727 368.273V356.273H198.023V357.659H198.182C198.28 357.508 198.417 357.314 198.591 357.08C198.769 356.841 199.023 356.629 199.352 356.443C199.686 356.254 200.136 356.159 200.705 356.159C201.439 356.159 202.087 356.343 202.648 356.71C203.208 357.078 203.646 357.598 203.96 358.273C204.275 358.947 204.432 359.742 204.432 360.659C204.432 361.583 204.275 362.384 203.96 363.062C203.646 363.737 203.21 364.259 202.653 364.631C202.097 364.998 201.455 365.182 200.727 365.182C200.167 365.182 199.718 365.089 199.381 364.903C199.044 364.714 198.784 364.5 198.602 364.261C198.42 364.019 198.28 363.818 198.182 363.659H198.068V368.273H196.727ZM198.045 360.636C198.045 361.295 198.142 361.877 198.335 362.381C198.528 362.881 198.811 363.273 199.182 363.557C199.553 363.837 200.008 363.977 200.545 363.977C201.106 363.977 201.574 363.83 201.949 363.534C202.328 363.235 202.612 362.833 202.801 362.33C202.994 361.822 203.091 361.258 203.091 360.636C203.091 360.023 202.996 359.47 202.807 358.977C202.621 358.481 202.339 358.089 201.96 357.801C201.585 357.509 201.114 357.364 200.545 357.364C200 357.364 199.542 357.502 199.17 357.778C198.799 358.051 198.519 358.434 198.33 358.926C198.14 359.415 198.045 359.985 198.045 360.636ZM206.477 368.273V356.273H207.773V357.659H207.932C208.03 357.508 208.167 357.314 208.341 357.08C208.519 356.841 208.773 356.629 209.102 356.443C209.436 356.254 209.886 356.159 210.455 356.159C211.189 356.159 211.837 356.343 212.398 356.71C212.958 357.078 213.396 357.598 213.71 358.273C214.025 358.947 214.182 359.742 214.182 360.659C214.182 361.583 214.025 362.384 213.71 363.062C213.396 363.737 212.96 364.259 212.403 364.631C211.847 364.998 211.205 365.182 210.477 365.182C209.917 365.182 209.468 365.089 209.131 364.903C208.794 364.714 208.534 364.5 208.352 364.261C208.17 364.019 208.03 363.818 207.932 363.659H207.818V368.273H206.477ZM207.795 360.636C207.795 361.295 207.892 361.877 208.085 362.381C208.278 362.881 208.561 363.273 208.932 363.557C209.303 363.837 209.758 363.977 210.295 363.977C210.856 363.977 211.324 363.83 211.699 363.534C212.078 363.235 212.362 362.833 212.551 362.33C212.744 361.822 212.841 361.258 212.841 360.636C212.841 360.023 212.746 359.47 212.557 358.977C212.371 358.481 212.089 358.089 211.71 357.801C211.335 357.509 210.864 357.364 210.295 357.364C209.75 357.364 209.292 357.502 208.92 357.778C208.549 358.051 208.269 358.434 208.08 358.926C207.89 359.415 207.795 359.985 207.795 360.636ZM219.773 365.182C218.985 365.182 218.294 364.994 217.699 364.619C217.108 364.244 216.646 363.72 216.312 363.045C215.983 362.371 215.818 361.583 215.818 360.682C215.818 359.773 215.983 358.979 216.312 358.301C216.646 357.623 217.108 357.097 217.699 356.722C218.294 356.347 218.985 356.159 219.773 356.159C220.561 356.159 221.25 356.347 221.841 356.722C222.436 357.097 222.898 357.623 223.227 358.301C223.561 358.979 223.727 359.773 223.727 360.682C223.727 361.583 223.561 362.371 223.227 363.045C222.898 363.72 222.436 364.244 221.841 364.619C221.25 364.994 220.561 365.182 219.773 365.182ZM219.773 363.977C220.371 363.977 220.864 363.824 221.25 363.517C221.636 363.21 221.922 362.807 222.108 362.307C222.294 361.807 222.386 361.265 222.386 360.682C222.386 360.098 222.294 359.555 222.108 359.051C221.922 358.547 221.636 358.14 221.25 357.83C220.864 357.519 220.371 357.364 219.773 357.364C219.174 357.364 218.682 357.519 218.295 357.83C217.909 358.14 217.623 358.547 217.438 359.051C217.252 359.555 217.159 360.098 217.159 360.682C217.159 361.265 217.252 361.807 217.438 362.307C217.623 362.807 217.909 363.21 218.295 363.517C218.682 363.824 219.174 363.977 219.773 363.977ZM225.774 365V356.273H227.07V357.591H227.161C227.32 357.159 227.607 356.809 228.024 356.54C228.441 356.271 228.911 356.136 229.433 356.136C229.532 356.136 229.655 356.138 229.803 356.142C229.95 356.146 230.062 356.152 230.138 356.159V357.523C230.092 357.511 229.988 357.494 229.825 357.472C229.666 357.445 229.498 357.432 229.32 357.432C228.895 357.432 228.517 357.521 228.183 357.699C227.854 357.873 227.592 358.116 227.399 358.426C227.21 358.733 227.115 359.083 227.115 359.477V365H225.774ZM236.07 356.273V357.409H231.547V356.273H236.07ZM232.865 354.182H234.206V362.5C234.206 362.879 234.261 363.163 234.371 363.352C234.484 363.538 234.628 363.663 234.803 363.727C234.981 363.788 235.168 363.818 235.365 363.818C235.513 363.818 235.634 363.811 235.729 363.795C235.823 363.777 235.899 363.761 235.956 363.75L236.229 364.955C236.138 364.989 236.011 365.023 235.848 365.057C235.685 365.095 235.479 365.114 235.229 365.114C234.85 365.114 234.479 365.032 234.115 364.869C233.755 364.706 233.456 364.458 233.217 364.125C232.982 363.792 232.865 363.371 232.865 362.864V354.182ZM181 393H177.409V381.364H181.159C182.288 381.364 183.254 381.597 184.057 382.062C184.86 382.525 185.475 383.189 185.903 384.057C186.331 384.92 186.545 385.955 186.545 387.159C186.545 388.371 186.33 389.415 185.898 390.29C185.466 391.161 184.837 391.831 184.011 392.301C183.186 392.767 182.182 393 181 393ZM178.818 391.75H180.909C181.871 391.75 182.669 391.564 183.301 391.193C183.934 390.822 184.405 390.294 184.716 389.608C185.027 388.922 185.182 388.106 185.182 387.159C185.182 386.22 185.028 385.411 184.722 384.733C184.415 384.051 183.956 383.528 183.347 383.165C182.737 382.797 181.977 382.614 181.068 382.614H178.818V391.75ZM192.273 393.182C191.485 393.182 190.794 392.994 190.199 392.619C189.608 392.244 189.146 391.72 188.812 391.045C188.483 390.371 188.318 389.583 188.318 388.682C188.318 387.773 188.483 386.979 188.812 386.301C189.146 385.623 189.608 385.097 190.199 384.722C190.794 384.347 191.485 384.159 192.273 384.159C193.061 384.159 193.75 384.347 194.341 384.722C194.936 385.097 195.398 385.623 195.727 386.301C196.061 386.979 196.227 387.773 196.227 388.682C196.227 389.583 196.061 390.371 195.727 391.045C195.398 391.72 194.936 392.244 194.341 392.619C193.75 392.994 193.061 393.182 192.273 393.182ZM192.273 391.977C192.871 391.977 193.364 391.824 193.75 391.517C194.136 391.21 194.422 390.807 194.608 390.307C194.794 389.807 194.886 389.265 194.886 388.682C194.886 388.098 194.794 387.555 194.608 387.051C194.422 386.547 194.136 386.14 193.75 385.83C193.364 385.519 192.871 385.364 192.273 385.364C191.674 385.364 191.182 385.519 190.795 385.83C190.409 386.14 190.123 386.547 189.938 387.051C189.752 387.555 189.659 388.098 189.659 388.682C189.659 389.265 189.752 389.807 189.938 390.307C190.123 390.807 190.409 391.21 190.795 391.517C191.182 391.824 191.674 391.977 192.273 391.977ZM198.274 393V384.273H199.57V385.636H199.683C199.865 385.17 200.159 384.809 200.564 384.551C200.969 384.29 201.456 384.159 202.024 384.159C202.6 384.159 203.079 384.29 203.462 384.551C203.848 384.809 204.149 385.17 204.365 385.636H204.456C204.679 385.186 205.015 384.828 205.462 384.562C205.909 384.294 206.445 384.159 207.07 384.159C207.85 384.159 208.488 384.403 208.984 384.892C209.481 385.377 209.729 386.133 209.729 387.159V393H208.388V387.159C208.388 386.515 208.212 386.055 207.859 385.778C207.507 385.502 207.092 385.364 206.615 385.364C206.001 385.364 205.526 385.549 205.189 385.92C204.852 386.288 204.683 386.754 204.683 387.318V393H203.32V387.023C203.32 386.527 203.159 386.127 202.837 385.824C202.515 385.517 202.1 385.364 201.592 385.364C201.244 385.364 200.918 385.456 200.615 385.642C200.316 385.828 200.073 386.085 199.888 386.415C199.706 386.741 199.615 387.117 199.615 387.545V393H198.274ZM214.749 393.205C214.196 393.205 213.694 393.1 213.243 392.892C212.792 392.68 212.434 392.375 212.169 391.977C211.904 391.576 211.771 391.091 211.771 390.523C211.771 390.023 211.87 389.617 212.067 389.307C212.264 388.992 212.527 388.746 212.857 388.568C213.186 388.39 213.55 388.258 213.947 388.17C214.349 388.08 214.752 388.008 215.158 387.955C215.688 387.886 216.118 387.835 216.447 387.801C216.781 387.763 217.023 387.701 217.175 387.614C217.33 387.527 217.408 387.375 217.408 387.159V387.114C217.408 386.553 217.254 386.117 216.947 385.807C216.644 385.496 216.184 385.341 215.567 385.341C214.927 385.341 214.425 385.481 214.061 385.761C213.697 386.042 213.442 386.341 213.294 386.659L212.021 386.205C212.249 385.674 212.552 385.261 212.93 384.966C213.313 384.667 213.73 384.458 214.18 384.341C214.635 384.22 215.082 384.159 215.521 384.159C215.802 384.159 216.124 384.193 216.487 384.261C216.855 384.326 217.209 384.46 217.55 384.665C217.894 384.869 218.18 385.178 218.408 385.591C218.635 386.004 218.749 386.557 218.749 387.25V393H217.408V391.818H217.339C217.249 392.008 217.097 392.21 216.885 392.426C216.673 392.642 216.391 392.826 216.038 392.977C215.686 393.129 215.256 393.205 214.749 393.205ZM214.953 392C215.483 392 215.93 391.896 216.294 391.688C216.661 391.479 216.938 391.21 217.124 390.881C217.313 390.551 217.408 390.205 217.408 389.841V388.614C217.351 388.682 217.226 388.744 217.033 388.801C216.843 388.854 216.624 388.902 216.374 388.943C216.127 388.981 215.887 389.015 215.652 389.045C215.421 389.072 215.233 389.095 215.089 389.114C214.741 389.159 214.415 389.233 214.112 389.335C213.813 389.434 213.571 389.583 213.385 389.784C213.203 389.981 213.112 390.25 213.112 390.591C213.112 391.057 213.285 391.409 213.629 391.648C213.978 391.883 214.419 392 214.953 392ZM221.196 393V384.273H222.537V393H221.196ZM221.878 382.818C221.616 382.818 221.391 382.729 221.202 382.551C221.016 382.373 220.923 382.159 220.923 381.909C220.923 381.659 221.016 381.445 221.202 381.267C221.391 381.089 221.616 381 221.878 381C222.139 381 222.363 381.089 222.548 381.267C222.738 381.445 222.832 381.659 222.832 381.909C222.832 382.159 222.738 382.373 222.548 382.551C222.363 382.729 222.139 382.818 221.878 382.818ZM226.334 387.75V393H224.993V384.273H226.288V385.636H226.402C226.607 385.193 226.917 384.837 227.334 384.568C227.75 384.295 228.288 384.159 228.947 384.159C229.538 384.159 230.055 384.28 230.499 384.523C230.942 384.761 231.286 385.125 231.533 385.614C231.779 386.098 231.902 386.712 231.902 387.455V393H230.561V387.545C230.561 386.86 230.383 386.326 230.027 385.943C229.671 385.557 229.182 385.364 228.561 385.364C228.133 385.364 227.75 385.456 227.413 385.642C227.08 385.828 226.817 386.098 226.624 386.455C226.43 386.811 226.334 387.242 226.334 387.75Z" fill="#525D61"/>
<path d="M480.559 404.827C474.371 401.255 470.559 394.652 470.559 387.507L470.559 320.601C470.559 313.456 474.371 306.853 480.559 303.28L538.501 269.827C544.689 266.255 552.313 266.255 558.501 269.827L616.443 303.28C622.631 306.853 626.443 313.456 626.443 320.601L626.443 387.507C626.443 394.652 622.631 401.255 616.443 404.827L558.501 438.28C552.313 441.853 544.689 441.853 538.501 438.28L480.559 404.827Z" fill="white"/>
<path d="M494.149 372.732V362.256L525.009 313.499H533.744V328.414H528.418L507.643 361.333V361.901H550.719V372.732H494.149ZM528.844 386.227V369.536L528.986 364.849V313.499H541.415V386.227H528.844Z" fill="#F8F7F3"/>
<path d="M560 335H555V343C555 344.105 555.895 345 557 345H560C561.105 345 562 344.105 562 343V337C562 335.895 561.105 335 560 335Z" fill="#F9E9E7"/>
<path d="M579 335H574C572.895 335 572 335.895 572 337V343C572 344.105 572.895 345 574 345H577C578.105 345 579 344.105 579 343V335Z" fill="#F9E9E7"/>
<path d="M560 335H555V343C555 344.105 555.895 345 557 345H560C561.105 345 562 344.105 562 343V337C562 335.895 561.105 335 560 335Z" stroke="#F37441" stroke-linecap="round" stroke-linejoin="round"/>
<path d="M579 335H574C572.895 335 572 335.895 572 337V343C572 344.105 572.895 345 574 345H577C578.105 345 579 344.105 579 343V335Z" stroke="#F37441" stroke-linecap="round" stroke-linejoin="round"/>
<path d="M555 335V333C555 326.373 560.373 321 567 321C573.627 321 579 326.373 579 333V335" stroke="#F37441" stroke-linecap="round" stroke-linejoin="round"/>
<path d="M554.409 361V349.364H555.818V354.545H562.023V349.364H563.432V361H562.023V355.795H555.818V361H554.409ZM566.253 361V349.364H570.185C571.094 349.364 571.84 349.519 572.423 349.83C573.007 350.136 573.438 350.559 573.719 351.097C573.999 351.634 574.139 352.246 574.139 352.932C574.139 353.617 573.999 354.225 573.719 354.756C573.438 355.286 573.009 355.703 572.429 356.006C571.849 356.305 571.109 356.455 570.207 356.455H567.026V355.182H570.162C570.783 355.182 571.283 355.091 571.662 354.909C572.045 354.727 572.321 354.47 572.491 354.136C572.666 353.799 572.753 353.398 572.753 352.932C572.753 352.466 572.666 352.059 572.491 351.71C572.317 351.362 572.039 351.093 571.656 350.903C571.274 350.71 570.768 350.614 570.139 350.614H567.662V361H566.253ZM571.73 355.773L574.594 361H572.957L570.139 355.773H571.73ZM558 389H554.409V377.364H558.159C559.288 377.364 560.254 377.597 561.057 378.062C561.86 378.525 562.475 379.189 562.903 380.057C563.331 380.92 563.545 381.955 563.545 383.159C563.545 384.371 563.33 385.415 562.898 386.29C562.466 387.161 561.837 387.831 561.011 388.301C560.186 388.767 559.182 389 558 389ZM555.818 387.75H557.909C558.871 387.75 559.669 387.564 560.301 387.193C560.934 386.822 561.405 386.294 561.716 385.608C562.027 384.922 562.182 384.106 562.182 383.159C562.182 382.22 562.028 381.411 561.722 380.733C561.415 380.051 560.956 379.528 560.347 379.165C559.737 378.797 558.977 378.614 558.068 378.614H555.818V387.75ZM569.273 389.182C568.485 389.182 567.794 388.994 567.199 388.619C566.608 388.244 566.146 387.72 565.812 387.045C565.483 386.371 565.318 385.583 565.318 384.682C565.318 383.773 565.483 382.979 565.812 382.301C566.146 381.623 566.608 381.097 567.199 380.722C567.794 380.347 568.485 380.159 569.273 380.159C570.061 380.159 570.75 380.347 571.341 380.722C571.936 381.097 572.398 381.623 572.727 382.301C573.061 382.979 573.227 383.773 573.227 384.682C573.227 385.583 573.061 386.371 572.727 387.045C572.398 387.72 571.936 388.244 571.341 388.619C570.75 388.994 570.061 389.182 569.273 389.182ZM569.273 387.977C569.871 387.977 570.364 387.824 570.75 387.517C571.136 387.21 571.422 386.807 571.608 386.307C571.794 385.807 571.886 385.265 571.886 384.682C571.886 384.098 571.794 383.555 571.608 383.051C571.422 382.547 571.136 382.14 570.75 381.83C570.364 381.519 569.871 381.364 569.273 381.364C568.674 381.364 568.182 381.519 567.795 381.83C567.409 382.14 567.123 382.547 566.938 383.051C566.752 383.555 566.659 384.098 566.659 384.682C566.659 385.265 566.752 385.807 566.938 386.307C567.123 386.807 567.409 387.21 567.795 387.517C568.182 387.824 568.674 387.977 569.273 387.977ZM575.274 389V380.273H576.57V381.636H576.683C576.865 381.17 577.159 380.809 577.564 380.551C577.969 380.29 578.456 380.159 579.024 380.159C579.6 380.159 580.079 380.29 580.462 380.551C580.848 380.809 581.149 381.17 581.365 381.636H581.456C581.679 381.186 582.015 380.828 582.462 380.562C582.909 380.294 583.445 380.159 584.07 380.159C584.85 380.159 585.488 380.403 585.984 380.892C586.481 381.377 586.729 382.133 586.729 383.159V389H585.388V383.159C585.388 382.515 585.212 382.055 584.859 381.778C584.507 381.502 584.092 381.364 583.615 381.364C583.001 381.364 582.526 381.549 582.189 381.92C581.852 382.288 581.683 382.754 581.683 383.318V389H580.32V383.023C580.32 382.527 580.159 382.127 579.837 381.824C579.515 381.517 579.1 381.364 578.592 381.364C578.244 381.364 577.918 381.456 577.615 381.642C577.316 381.828 577.073 382.085 576.888 382.415C576.706 382.741 576.615 383.117 576.615 383.545V389H575.274ZM591.749 389.205C591.196 389.205 590.694 389.1 590.243 388.892C589.792 388.68 589.434 388.375 589.169 387.977C588.904 387.576 588.771 387.091 588.771 386.523C588.771 386.023 588.87 385.617 589.067 385.307C589.264 384.992 589.527 384.746 589.857 384.568C590.186 384.39 590.55 384.258 590.947 384.17C591.349 384.08 591.752 384.008 592.158 383.955C592.688 383.886 593.118 383.835 593.447 383.801C593.781 383.763 594.023 383.701 594.175 383.614C594.33 383.527 594.408 383.375 594.408 383.159V383.114C594.408 382.553 594.254 382.117 593.947 381.807C593.644 381.496 593.184 381.341 592.567 381.341C591.927 381.341 591.425 381.481 591.061 381.761C590.697 382.042 590.442 382.341 590.294 382.659L589.021 382.205C589.249 381.674 589.552 381.261 589.93 380.966C590.313 380.667 590.73 380.458 591.18 380.341C591.635 380.22 592.082 380.159 592.521 380.159C592.802 380.159 593.124 380.193 593.487 380.261C593.855 380.326 594.209 380.46 594.55 380.665C594.894 380.869 595.18 381.178 595.408 381.591C595.635 382.004 595.749 382.557 595.749 383.25V389H594.408V387.818H594.339C594.249 388.008 594.097 388.21 593.885 388.426C593.673 388.642 593.391 388.826 593.038 388.977C592.686 389.129 592.256 389.205 591.749 389.205ZM591.953 388C592.483 388 592.93 387.896 593.294 387.688C593.661 387.479 593.938 387.21 594.124 386.881C594.313 386.551 594.408 386.205 594.408 385.841V384.614C594.351 384.682 594.226 384.744 594.033 384.801C593.843 384.854 593.624 384.902 593.374 384.943C593.127 384.981 592.887 385.015 592.652 385.045C592.421 385.072 592.233 385.095 592.089 385.114C591.741 385.159 591.415 385.233 591.112 385.335C590.813 385.434 590.571 385.583 590.385 385.784C590.203 385.981 590.112 386.25 590.112 386.591C590.112 387.057 590.285 387.409 590.629 387.648C590.978 387.883 591.419 388 591.953 388ZM598.196 389V380.273H599.537V389H598.196ZM598.878 378.818C598.616 378.818 598.391 378.729 598.202 378.551C598.016 378.373 597.923 378.159 597.923 377.909C597.923 377.659 598.016 377.445 598.202 377.267C598.391 377.089 598.616 377 598.878 377C599.139 377 599.363 377.089 599.548 377.267C599.738 377.445 599.832 377.659 599.832 377.909C599.832 378.159 599.738 378.373 599.548 378.551C599.363 378.729 599.139 378.818 598.878 378.818ZM603.334 383.75V389H601.993V380.273H603.288V381.636H603.402C603.607 381.193 603.917 380.837 604.334 380.568C604.75 380.295 605.288 380.159 605.947 380.159C606.538 380.159 607.055 380.28 607.499 380.523C607.942 380.761 608.286 381.125 608.533 381.614C608.779 382.098 608.902 382.712 608.902 383.455V389H607.561V383.545C607.561 382.86 607.383 382.326 607.027 381.943C606.671 381.557 606.182 381.364 605.561 381.364C605.133 381.364 604.75 381.456 604.413 381.642C604.08 381.828 603.817 382.098 603.624 382.455C603.43 382.811 603.334 383.242 603.334 383.75Z" fill="#525D61"/>
<path d="M293.559 287.827C287.371 284.255 283.559 277.652 283.559 270.507L283.559 203.601C283.559 196.456 287.371 189.853 293.559 186.28L351.501 152.827C357.689 149.255 365.313 149.255 371.501 152.827L429.443 186.28C435.631 189.853 439.443 196.456 439.443 203.601L439.443 270.507C439.443 277.652 435.631 284.255 429.443 287.827L371.501 321.28C365.313 324.853 357.689 324.853 351.501 321.28L293.559 287.827Z" fill="white"/>
<path d="M341.132 240.195C341.132 243.182 339.745 244.895 337.328 244.895C335.138 244.895 333.887 243.257 333.887 240.4V232.758H331.074V240.477C331.074 245.778 334.343 247.658 337.154 247.658C338.718 247.658 340.068 247.225 341.137 246.404V247.402H343.951V232.758H341.137L341.132 240.195Z" fill="#162B33"/>
<path d="M353.563 232.5C351.999 232.5 350.638 232.934 349.578 233.754V232.756H346.766V247.4H349.578V239.963C349.578 236.975 350.965 235.261 353.382 235.261C355.572 235.261 356.823 236.901 356.823 239.758V247.4H359.638V239.681C359.638 234.38 356.369 232.5 353.558 232.5" fill="#162B33"/>
<path d="M365.071 232.758H362.258V247.402H365.071V232.758Z" fill="#162B33"/>
<path d="M363.678 228.48C363.235 228.479 362.81 228.651 362.492 228.959C362.174 229.268 361.989 229.688 361.977 230.13C361.977 230.581 362.157 231.014 362.476 231.332C362.795 231.651 363.227 231.831 363.678 231.832C364.126 231.828 364.553 231.646 364.867 231.327C365.182 231.008 365.356 230.578 365.354 230.13C365.345 229.691 365.164 229.273 364.851 228.965C364.538 228.656 364.117 228.483 363.678 228.48Z" fill="#162B33"/>
<path d="M373.249 244.742C372.998 244.841 372.73 244.892 372.461 244.893C372.168 244.893 371.678 244.893 371.678 243.778V226.23H368.863V243.835C368.863 246.197 370.193 247.663 372.332 247.663C372.99 247.668 373.642 247.525 374.238 247.245L374.869 246.928L374.482 244.128L373.249 244.742Z" fill="#162B33"/>
<path d="M387.141 234.14C385.841 233.066 384.203 232.485 382.517 232.5C378.433 232.5 375.234 235.834 375.234 240.091C375.234 244.347 378.433 247.66 382.517 247.66C384.207 247.664 385.844 247.073 387.141 245.99V247.401H389.954V232.757H387.141V234.14ZM382.594 244.894C380.045 244.894 378.047 242.785 378.047 240.091C378.047 237.397 380.045 235.262 382.594 235.262C385.187 235.262 387.141 237.338 387.141 240.091C387.141 242.785 385.144 244.894 382.594 244.894Z" fill="#162B33"/>
<path d="M407.495 232.757H403.727L398.401 238.596H396.567V226.227H393.754V247.401H396.567V241.383H398.344L403.722 247.401H407.453L400.876 239.998L407.495 232.757Z" fill="#162B33"/>
<path d="M413.893 232.499C409.684 232.499 406.508 235.768 406.508 240.089C406.508 244.332 409.808 247.659 414.022 247.659C416.441 247.659 418.592 246.668 420.082 244.869L420.651 244.18L418.69 242.219L418.002 243.054C417.522 243.643 416.914 244.115 416.225 244.435C415.535 244.754 414.782 244.912 414.022 244.898C412.989 244.903 411.983 244.565 411.162 243.937C410.342 243.308 409.753 242.425 409.489 241.426H420.77L420.928 240.635C420.982 240.361 421.005 240.081 420.999 239.802C420.999 235.702 417.878 232.492 413.893 232.492M409.493 238.686C410.047 236.643 411.767 235.245 413.893 235.245C415.941 235.245 417.601 236.664 418.077 238.686H409.493Z" fill="#162B33"/>
<path d="M304.006 236.339V246.401H306.97V245.197C305.077 243.461 304.004 239.666 304.004 236.332" fill="#F37441"/>
<path d="M322.046 236.339V246.401H319.08V245.197C320.972 243.461 322.046 239.666 322.046 236.332" fill="#F37441"/>
<path d="M319.081 228.959V236.711C319.081 239.166 318.372 241.067 317.085 242.267V234.603H314.023V243.651C313.691 243.698 313.356 243.723 313.02 243.725C312.685 243.723 312.35 243.698 312.019 243.651V226.227H308.962V242.267C307.675 241.063 306.966 239.171 306.966 236.711V231.749H304V236.711C304 242.753 307.541 246.658 313.02 246.658C318.499 246.658 322.042 242.753 322.042 236.711V228.959H319.081Z" fill="#F37441"/>
<defs>
<clipPath id="clip0_3925_27156">
<rect width="28" height="28" fill="white" transform="translate(160 87)"/>
</clipPath>
</defs>
</svg>
